<?xml version="1.0" encoding="UTF-8"?>
<svg id="Capa_2" data-name="Capa 2" xmlns="http://www.w3.org/2000/svg" viewBox="0 0 485.99 46.62">
  <defs>
    <style>
      .cls-1 {
        fill: #243746;
      }
    </style>
  </defs>
  <g id="Capa_1-2" data-name="Capa 1">
    <g id="admision_uandes">
      <g>
        <g>
          <path class="cls-1" d="M10.85,44.1c-2.44,0-4.46-.44-6.08-1.32-1.62-.88-2.82-2.02-3.6-3.42-.78-1.4-1.17-2.94-1.17-4.61,0-2.08.53-3.83,1.59-5.27,1.06-1.44,2.56-2.52,4.49-3.24,1.94-.72,4.16-1.08,6.68-1.08h8.15c0-1.96-.3-3.61-.9-4.97-.6-1.36-1.47-2.39-2.61-3.09-1.14-.7-2.59-1.05-4.34-1.05-2.08,0-3.86.52-5.33,1.56-1.48,1.04-2.4,2.56-2.76,4.55H.6c.24-2.12.97-3.89,2.19-5.33,1.22-1.44,2.74-2.53,4.55-3.27,1.82-.74,3.72-1.11,5.72-1.11,2.76,0,5.02.53,6.8,1.59,1.78,1.06,3.1,2.51,3.96,4.34.86,1.84,1.29,3.96,1.29,6.35v18.64h-3.83l-.18-5.51c-.4.84-.91,1.64-1.53,2.4-.62.76-1.34,1.42-2.16,1.98-.82.56-1.77,1.01-2.85,1.35-1.08.34-2.32.51-3.71.51ZM11.33,40.39c1.52,0,2.86-.3,4.01-.9,1.16-.6,2.16-1.4,3-2.4.84-1,1.48-2.14,1.92-3.41.44-1.28.66-2.58.66-3.89v-1.08h-7.85c-2.12,0-3.82.26-5.09.78-1.28.52-2.2,1.22-2.76,2.1-.56.88-.84,1.9-.84,3.06s.27,2.17.81,3.03c.54.86,1.33,1.53,2.37,2.01,1.04.48,2.3.72,3.78.72Z"/>
          <path class="cls-1" d="M46.26,44.1c-2.96,0-5.52-.69-7.7-2.07-2.18-1.38-3.86-3.27-5.06-5.66-1.2-2.4-1.8-5.11-1.8-8.15s.6-5.74,1.8-8.12,2.9-4.24,5.09-5.6c2.2-1.36,4.77-2.04,7.73-2.04,2.52,0,4.74.55,6.68,1.65,1.94,1.1,3.42,2.65,4.46,4.65V.24h4.19v43.14h-3.83l-.36-5.45c-.6,1.04-1.42,2.04-2.46,3-1.04.96-2.29,1.73-3.75,2.31-1.46.58-3.13.87-5,.87ZM46.56,40.45c2.12,0,3.96-.51,5.54-1.53,1.58-1.02,2.83-2.44,3.75-4.25.92-1.82,1.38-3.94,1.38-6.38s-.46-4.57-1.38-6.41c-.92-1.84-2.17-3.25-3.75-4.25-1.58-1-3.43-1.5-5.54-1.5s-3.87.5-5.48,1.5c-1.62,1-2.88,2.41-3.77,4.23-.9,1.82-1.35,3.96-1.35,6.44s.46,4.62,1.38,6.44c.92,1.82,2.18,3.23,3.78,4.23,1.6,1,3.42,1.5,5.45,1.5Z"/>
          <path class="cls-1" d="M70.17,43.38V13.18h3.83l.3,4.55c.92-1.68,2.2-2.98,3.84-3.89,1.64-.92,3.46-1.38,5.45-1.38,1.52,0,2.92.22,4.2.66,1.28.44,2.4,1.1,3.36,1.98.96.88,1.74,2.02,2.34,3.41.96-1.88,2.35-3.35,4.16-4.43,1.82-1.08,3.76-1.62,5.84-1.62,2.32,0,4.33.46,6.05,1.38,1.72.92,3.05,2.32,3.99,4.19.94,1.88,1.41,4.25,1.41,7.13v18.22h-4.19v-17.74c0-3.19-.65-5.58-1.95-7.16-1.3-1.58-3.15-2.37-5.54-2.37-1.6,0-3.06.43-4.37,1.29-1.32.86-2.35,2.1-3.09,3.72-.74,1.62-1.11,3.62-1.11,6.02v16.24h-4.19v-17.74c0-3.19-.66-5.58-1.98-7.16-1.32-1.58-3.14-2.37-5.45-2.37-1.68,0-3.17.43-4.46,1.29-1.3.86-2.33,2.12-3.09,3.78-.76,1.66-1.14,3.71-1.14,6.14v16.06h-4.19Z"/>
          <path class="cls-1" d="M125.53,6.05c-.84,0-1.56-.29-2.16-.87-.6-.58-.9-1.31-.9-2.19s.29-1.65.87-2.19c.58-.54,1.31-.81,2.19-.81.8,0,1.5.27,2.1.81.6.54.9,1.27.9,2.19s-.29,1.61-.87,2.19c-.58.58-1.29.87-2.13.87ZM123.44,43.38V13.18h4.19v30.2h-4.19Z"/>
          <path class="cls-1" d="M147.76,44.1c-2.4,0-4.5-.4-6.32-1.2-1.82-.8-3.28-1.95-4.37-3.44-1.1-1.5-1.77-3.29-2.01-5.36h4.37c.2,1.16.65,2.22,1.35,3.18.7.96,1.65,1.72,2.85,2.28,1.2.56,2.62.84,4.25.84,1.52,0,2.77-.22,3.75-.66.98-.44,1.72-1.05,2.22-1.83.5-.78.75-1.65.75-2.61,0-1.32-.31-2.35-.93-3.09-.62-.74-1.51-1.29-2.67-1.65-1.16-.36-2.56-.7-4.19-1.02-1.36-.24-2.65-.56-3.87-.96-1.22-.4-2.32-.92-3.29-1.56-.98-.64-1.76-1.45-2.34-2.43-.58-.98-.87-2.13-.87-3.45,0-1.72.43-3.23,1.29-4.52s2.09-2.32,3.69-3.06c1.6-.74,3.47-1.11,5.63-1.11,3.08,0,5.59.77,7.55,2.31,1.96,1.54,3.1,3.79,3.42,6.74h-4.19c-.16-1.64-.84-2.94-2.04-3.89s-2.82-1.44-4.85-1.44-3.53.41-4.58,1.23c-1.06.82-1.59,1.93-1.59,3.33,0,.88.28,1.64.84,2.28.56.64,1.39,1.19,2.49,1.65,1.1.46,2.45.85,4.05,1.17,1.92.36,3.68.83,5.3,1.41,1.62.58,2.94,1.46,3.96,2.64,1.02,1.18,1.53,2.85,1.53,5,.04,1.8-.4,3.4-1.32,4.79-.92,1.4-2.21,2.49-3.86,3.27-1.66.78-3.65,1.17-5.96,1.17Z"/>
          <path class="cls-1" d="M169.03,6.05c-.84,0-1.56-.29-2.16-.87-.6-.58-.9-1.31-.9-2.19s.29-1.65.87-2.19c.58-.54,1.31-.81,2.19-.81.8,0,1.5.27,2.1.81.6.54.9,1.27.9,2.19s-.29,1.61-.87,2.19c-.58.58-1.29.87-2.13.87ZM166.94,43.38V13.18h4.19v30.2h-4.19Z"/>
          <path class="cls-1" d="M193.48,44.1c-2.76,0-5.24-.65-7.46-1.95s-3.97-3.14-5.24-5.51c-1.28-2.38-1.92-5.14-1.92-8.3s.65-6.09,1.95-8.45c1.3-2.36,3.07-4.18,5.3-5.48,2.24-1.3,4.73-1.95,7.49-1.95s5.41.65,7.61,1.95c2.2,1.3,3.93,3.13,5.21,5.48,1.28,2.36,1.92,5.17,1.92,8.45s-.65,5.92-1.95,8.3c-1.3,2.38-3.06,4.21-5.27,5.51-2.22,1.3-4.76,1.95-7.64,1.95ZM193.54,40.51c1.88,0,3.6-.46,5.18-1.38,1.58-.92,2.86-2.29,3.83-4.1.98-1.82,1.47-4.06,1.47-6.74s-.48-4.97-1.44-6.77c-.96-1.8-2.23-3.15-3.8-4.04-1.58-.9-3.31-1.35-5.18-1.35s-3.5.46-5.09,1.38c-1.6.92-2.89,2.27-3.87,4.05-.98,1.78-1.47,4.02-1.47,6.74s.48,4.92,1.44,6.74c.96,1.82,2.23,3.19,3.8,4.1s3.29,1.38,5.12,1.38ZM187.91,10.61l-.42-3,11.74-7.61.54,3.66-11.87,6.95Z"/>
          <path class="cls-1" d="M215.53,43.38V13.18h3.83l.24,5.39c.96-1.92,2.35-3.41,4.16-4.49,1.82-1.08,3.84-1.62,6.08-1.62s4.33.46,6.05,1.38c1.72.92,3.06,2.31,4.01,4.16.96,1.86,1.44,4.23,1.44,7.1v18.28h-4.19v-17.8c0-3.2-.7-5.57-2.1-7.13-1.4-1.56-3.38-2.34-5.93-2.34-1.8,0-3.41.43-4.82,1.29-1.42.86-2.54,2.11-3.36,3.75-.82,1.64-1.23,3.66-1.23,6.05v16.18h-4.19Z"/>
        </g>
        <g>
          <path class="cls-1" d="M412.97,15.2c0,.46-.57.68-.87.33-1.01-1.14-2.28-2.31-3.39-2.84-1.45-.69-3.02-1.04-4.7-1.04-2.4,0-4.6.64-6.62,1.92-2.02,1.28-3.63,3.12-4.82,5.52-1.2,2.4-1.8,5.3-1.8,8.7,0,3.07.54,5.83,1.61,8.29,1.07,2.46,2.6,4.39,4.57,5.8,1.98,1.41,4.33,2.11,7.06,2.11,1.56,0,3.06-.31,4.51-.91,1.12-.47,2.49-1.73,3.57-2.94.31-.35.88-.13.88.33v2.9h7.76V2.11h-7.76v13.09ZM412.75,32.52c-.61,1.35-1.47,2.4-2.58,3.15-1.11.76-2.45,1.14-4,1.14s-2.84-.37-3.97-1.1c-1.14-.73-2.01-1.77-2.62-3.12-.61-1.35-.91-2.94-.91-4.79s.3-3.44.91-4.76c.61-1.32,1.48-2.35,2.62-3.09,1.14-.73,2.46-1.1,3.97-1.1s2.89.37,4,1.1c1.11.74,1.98,1.78,2.58,3.12.61,1.35.91,2.92.91,4.73s-.3,3.38-.91,4.73Z"/>
          <path class="cls-1" d="M482.08,26.22c-1.18-.72-2.44-1.28-3.78-1.7-1.35-.42-2.65-.78-3.91-1.07-1.35-.33-2.43-.64-3.25-.91-.82-.27-1.41-.6-1.77-.98-.36-.38-.54-.84-.54-1.39,0-.8.39-1.43,1.17-1.89.78-.46,1.77-.69,2.99-.69,1.39,0,2.7.31,3.94.91.98.48,1.8,1.15,2.48,2.01.31.39.9.43,1.29.12l4.08-3.23c-1.18-1.85-2.78-3.27-4.79-4.26-2.02-.99-4.27-1.48-6.75-1.48-4.13,0-7.31,1.16-9.54,3.49-1.49,1.55-2.2,3.64-2.19,5.79,0,1.61.33,2.95.98,4.03.65,1.09,1.5,1.99,2.55,2.68,1.05.69,2.21,1.25,3.47,1.67,1.26.42,2.48.8,3.66,1.13,1.14.3,2.16.6,3.09.91.92.32,1.66.72,2.21,1.2.55.48.82,1.1.82,1.86,0,.93-.43,1.69-1.29,2.3-.86.61-2.07.91-3.63.91-1.98,0-3.63-.49-4.95-1.48-1.01-.76-1.85-1.57-2.5-2.43-.32-.43-.94-.47-1.35-.12l-4.57,3.98c.71.93,1.67,1.89,2.87,2.9,1.2,1.01,2.66,1.85,4.38,2.52,1.72.67,3.74,1.01,6.05,1.01,2.56,0,4.79-.44,6.68-1.32,1.89-.88,3.36-2.11,4.41-3.69,1.05-1.58,1.58-3.39,1.58-5.46,0-1.81-.36-3.3-1.07-4.48-.72-1.18-1.66-2.12-2.84-2.84Z"/>
          <path class="cls-1" d="M452.63,16.29c-1.18-1.45-2.67-2.59-4.48-3.41-1.81-.82-3.93-1.23-6.37-1.23-2.61,0-4.85.47-6.72,1.42-1.87.95-3.39,2.2-4.57,3.75-1.18,1.56-2.06,3.3-2.65,5.23-.59,1.93-.88,3.91-.88,5.93s.29,4.11.88,6.02c.59,1.91,1.5,3.62,2.74,5.11,1.24,1.49,2.83,2.68,4.76,3.56,1.93.88,4.25,1.32,6.94,1.32,1.81,0,3.42-.16,4.82-.47,1.41-.32,2.76-.83,4.07-1.54,1.3-.72,2.69-1.64,4.16-2.78l-3.91-5.3c-1.18,1.05-2.52,1.86-4.04,2.43-1.51.57-3.07.85-4.67.85-2.19,0-4-.57-5.46-1.7-1.21-.95-1.99-2.28-2.34-3.99-.11-.54.28-1.05.83-1.05h20.26c.08-.59.14-1.14.16-1.67.02-.53.03-.93.03-1.23,0-2.19-.31-4.25-.91-6.18-.61-1.93-1.5-3.63-2.68-5.08ZM448.13,24.64h-13.41c.13-1.04.45-2.06.98-3.05.52-.99,1.31-1.8,2.36-2.43,1.05-.63,2.35-.95,3.91-.95,1.05,0,1.99.16,2.81.47.82.32,1.52.77,2.11,1.36.59.59,1.05,1.27,1.39,2.05.26.6.42,1.23.48,1.89.03.36-.27.65-.63.65Z"/>
          <path class="cls-1" d="M379.84,13.17c-1.7-1.01-3.82-1.51-6.34-1.51-2.19,0-4.18.53-5.99,1.58-1.21.71-2.21,1.74-3.03,3.05v-4h-7.82v31.09h6.97c.47,0,.85-.38.85-.85v-17.95c0-1.94.56-3.44,1.68-4.51,1.12-1.07,2.74-1.6,4.84-1.6.03,0,.05,0,.08,0,.03,0,.05,0,.07,0,.44,0,.85.04,1.24.09,0,0,.01,0,.02,0,.35.05.67.13.97.22.22.06.41.14.61.22,0,0,.01,0,.02,0,.57.24,1.08.54,1.49.94,1.01,1,1.52,2.48,1.52,4.44v18.97h6.97c.47,0,.85-.38.85-.85v-18.57c0-2.48-.41-4.65-1.23-6.49-.82-1.85-2.08-3.28-3.78-4.29Z"/>
          <path class="cls-1" d="M306.66,13.14v17.95c0,1.94-.56,3.44-1.68,4.51-1.12,1.07-2.74,1.6-4.84,1.6-.03,0-.05,0-.08,0-.03,0-.05,0-.07,0-.44,0-.85-.04-1.24-.09,0,0-.01,0-.02,0-.35-.05-.67-.13-.97-.22-.22-.06-.41-.14-.61-.22,0,0-.01,0-.02,0-.57-.24-1.08-.54-1.49-.94-1.01-1-1.52-2.48-1.52-4.44V12.28h-6.97c-.47,0-.85.38-.85.85v18.57c0,2.48.41,4.65,1.23,6.49.82,1.85,2.08,3.28,3.78,4.29,1.7,1.01,3.82,1.51,6.34,1.51,2.19,0,4.18-.53,5.99-1.58.85-.5,1.6-1.16,2.25-1.96.26-.32.78-.15.78.26v2.64s7.82,0,7.82,0V12.28h-6.97c-.47,0-.85.38-.85.85Z"/>
          <path class="cls-1" d="M341.53,12.49c-.7-.23-1.44-.4-2.22-.53-.26-.04-.54-.07-.81-.1-.88-.12-1.79-.2-2.77-.2-2.65,0-5.12.39-7.41,1.17-2.06.7-4.08,1.8-6.05,3.3-.37.28-.44.82-.16,1.19l3.47,4.69c1.3-1.18,2.81-2.09,4.51-2.74,1.7-.65,3.37-.98,5.01-.98,1.33,0,2.45.22,3.4.63.28.12.56.26.81.42.16.1.34.19.49.3,1.16.9,1.74,2.28,1.74,4.13v.76h-8.95c-1.47,0-2.85.13-4.13.38-1.28.25-2.45.69-3.5,1.32-1.22.67-2.2,1.65-2.93,2.93-.74,1.28-1.1,2.83-1.1,4.63,0,2.02.51,3.81,1.55,5.36,1.03,1.56,2.44,2.75,4.23,3.59,1.79.84,3.81,1.26,6.08,1.26,1.71,0,3.32-.36,4.84-1.08l.03-.05v-4.65c0-.29-.24-.53-.53-.53h-3.21c-1.47,0-2.66-.32-3.57-.96-1.09-.77-1.68-2.11-1.51-3.43.04-.36.14-.69.29-1,.21-.44.53-.81.95-1.1.46-.38,1.02-.62,1.67-.73.65-.1,1.31-.16,1.99-.16h6.7c.62,0,1.12.5,1.12,1.12v11.93h7.82v-19.61c0-3.78-1.2-6.75-3.6-8.89-1.18-1.05-2.59-1.85-4.22-2.38Z"/>
          <path class="cls-1" d="M253.63,46.62v-8.85c0-.67.33-1.3.87-1.69l11.81-8.57-11.81-8.57c-.54-.4-.87-1.03-.87-1.69v-8.84l17.53,12.72c4.37,3.17,4.37,9.61,0,12.78l-17.53,12.72Z"/>
        </g>
      </g>
    </g>
  </g>
</svg>