<?xml version="1.0" encoding="UTF-8"?>
<svg id="Capa_2" data-name="Capa 2" xmlns="http://www.w3.org/2000/svg" viewBox="0 0 383.63 43.83">
  <defs>
    <style>
      .cls-1 {
        fill: #1d1d1b;
      }
    </style>
  </defs>
  <g id="Capa_1-2" data-name="Capa 1">
    <g id="alumni_uandes">
      <g>
        <path class="cls-1" d="M10.78,43.83c-2.42,0-4.44-.44-6.04-1.31s-2.8-2-3.57-3.39c-.77-1.39-1.16-2.92-1.16-4.59,0-2.06.53-3.81,1.58-5.24,1.05-1.43,2.54-2.5,4.47-3.22,1.93-.71,4.14-1.07,6.64-1.07h8.1c0-1.95-.3-3.59-.89-4.94-.6-1.35-1.46-2.37-2.59-3.07-1.13-.69-2.57-1.04-4.32-1.04-2.06,0-3.83.52-5.3,1.55-1.47,1.03-2.38,2.54-2.74,4.53H.6c.24-2.1.96-3.87,2.17-5.3,1.21-1.43,2.72-2.51,4.53-3.25,1.81-.73,3.7-1.1,5.69-1.1,2.74,0,4.99.53,6.76,1.58,1.77,1.05,3.08,2.49,3.93,4.32.85,1.83,1.28,3.93,1.28,6.31v18.52h-3.81l-.18-5.48c-.4.83-.9,1.63-1.52,2.38-.62.75-1.33,1.41-2.14,1.96-.81.56-1.76,1-2.83,1.34-1.07.34-2.3.51-3.69.51ZM11.26,40.14c1.51,0,2.84-.3,3.99-.89,1.15-.6,2.14-1.39,2.98-2.38s1.47-2.12,1.91-3.4c.44-1.27.66-2.56.66-3.87v-1.07h-7.8c-2.1,0-3.79.26-5.06.77-1.27.52-2.18,1.21-2.74,2.08-.56.87-.83,1.89-.83,3.04s.27,2.15.8,3.01c.54.85,1.32,1.52,2.35,2,1.03.48,2.28.71,3.75.71Z"/>
        <path class="cls-1" d="M32.81,43.12V.24h4.17v42.88h-4.17Z"/>
        <path class="cls-1" d="M56.28,43.83c-2.26,0-4.26-.45-5.99-1.34-1.73-.89-3.07-2.27-4.02-4.14-.95-1.87-1.43-4.23-1.43-7.09V13.1h4.17v17.69c0,3.18.7,5.54,2.11,7.09,1.41,1.55,3.36,2.32,5.87,2.32,1.79,0,3.38-.43,4.79-1.28,1.41-.85,2.52-2.09,3.34-3.72.81-1.63,1.22-3.63,1.22-6.01V13.1h4.17v30.02h-3.81l-.24-5.36c-.95,1.91-2.33,3.4-4.14,4.47-1.81,1.07-3.82,1.61-6.04,1.61Z"/>
        <path class="cls-1" d="M78.97,43.12V13.1h3.81l.3,4.53c.91-1.67,2.18-2.96,3.81-3.87,1.63-.91,3.43-1.37,5.42-1.37,1.51,0,2.9.22,4.17.66,1.27.44,2.38,1.09,3.33,1.96.95.87,1.73,2.01,2.32,3.39.95-1.87,2.33-3.33,4.14-4.41,1.81-1.07,3.74-1.61,5.81-1.61,2.3,0,4.31.46,6.02,1.37,1.71.91,3.03,2.3,3.96,4.17.93,1.87,1.4,4.23,1.4,7.09v18.1h-4.17v-17.63c0-3.18-.65-5.55-1.94-7.12-1.29-1.57-3.13-2.35-5.51-2.35-1.59,0-3.04.43-4.35,1.28-1.31.85-2.33,2.08-3.07,3.69-.74,1.61-1.1,3.6-1.1,5.99v16.14h-4.17v-17.63c0-3.18-.65-5.55-1.97-7.12-1.31-1.57-3.12-2.35-5.42-2.35-1.67,0-3.15.43-4.44,1.28-1.29.85-2.31,2.11-3.07,3.75-.75,1.65-1.13,3.68-1.13,6.1v15.96h-4.17Z"/>
        <path class="cls-1" d="M131.32,43.12V13.1h3.81l.24,5.36c.95-1.91,2.33-3.39,4.14-4.47,1.81-1.07,3.82-1.61,6.04-1.61s4.31.46,6.02,1.37c1.71.91,3.04,2.29,3.99,4.14.95,1.85,1.43,4.2,1.43,7.06v18.16h-4.17v-17.69c0-3.18-.7-5.54-2.08-7.09-1.39-1.55-3.36-2.32-5.9-2.32-1.79,0-3.39.43-4.79,1.28-1.41.85-2.52,2.09-3.33,3.72-.81,1.63-1.22,3.63-1.22,6.01v16.08h-4.17Z"/>
        <path class="cls-1" d="M167.53,6.02c-.83,0-1.55-.29-2.14-.86-.6-.58-.89-1.3-.89-2.17s.29-1.64.86-2.17c.57-.54,1.3-.8,2.17-.8.79,0,1.49.27,2.08.8.6.54.89,1.26.89,2.17s-.29,1.6-.86,2.17c-.58.58-1.28.86-2.11.86ZM165.44,43.12V13.1h4.17v30.02h-4.17Z"/>
      </g>
      <path class="cls-1" d="M311.06,15.11c0,.46-.56.67-.87.33-1-1.13-2.27-2.3-3.36-2.82-1.44-.69-3-1.03-4.67-1.03-2.38,0-4.57.64-6.58,1.91-2.01,1.28-3.6,3.1-4.79,5.48-1.19,2.38-1.79,5.27-1.79,8.65,0,3.05.53,5.8,1.6,8.24,1.07,2.44,2.58,4.37,4.54,5.77,1.96,1.4,4.3,2.1,7.02,2.1,1.55,0,3.04-.3,4.48-.91,1.11-.47,2.47-1.72,3.55-2.92.31-.34.87-.13.87.33v2.88h7.71V2.1h-7.71v13.01ZM310.84,32.33c-.61,1.34-1.46,2.38-2.57,3.13-1.11.75-2.43,1.13-3.98,1.13s-2.82-.37-3.95-1.1c-1.13-.73-2-1.76-2.6-3.1-.61-1.34-.91-2.92-.91-4.76s.3-3.41.91-4.73c.6-1.32,1.47-2.34,2.6-3.07,1.13-.73,2.44-1.1,3.95-1.1s2.87.37,3.98,1.1c1.11.73,1.96,1.77,2.57,3.1.61,1.34.91,2.9.91,4.7s-.3,3.36-.91,4.7Z"/>
      <path class="cls-1" d="M379.75,26.06c-1.17-.71-2.42-1.27-3.76-1.69-1.34-.42-2.63-.77-3.89-1.07-1.34-.33-2.41-.64-3.23-.91-.81-.27-1.4-.59-1.75-.97-.35-.38-.53-.83-.53-1.38,0-.79.39-1.42,1.16-1.88.77-.46,1.76-.69,2.98-.69,1.38,0,2.69.3,3.92.91.97.48,1.79,1.14,2.47,2,.31.39.89.43,1.28.12l4.06-3.21c-1.17-1.84-2.76-3.25-4.76-4.23-2.01-.98-4.24-1.47-6.71-1.47-4.1,0-7.26,1.16-9.48,3.47-1.48,1.54-2.19,3.62-2.18,5.75,0,1.6.33,2.93.97,4,.65,1.09,1.49,1.97,2.54,2.66,1.04.69,2.19,1.24,3.45,1.66,1.25.42,2.47.79,3.63,1.13,1.13.29,2.15.6,3.07.91.92.31,1.65.71,2.19,1.19.54.48.81,1.1.81,1.85,0,.92-.43,1.68-1.29,2.29-.86.61-2.06.91-3.6.91-1.96,0-3.6-.49-4.92-1.47-1.01-.75-1.84-1.56-2.49-2.42-.32-.42-.94-.47-1.34-.12l-4.54,3.95c.71.92,1.66,1.88,2.85,2.88,1.19,1,2.64,1.84,4.35,2.51,1.71.67,3.72,1,6.02,1,2.55,0,4.76-.44,6.64-1.32,1.88-.88,3.34-2.1,4.39-3.67,1.04-1.57,1.57-3.37,1.57-5.42,0-1.8-.35-3.28-1.07-4.45-.71-1.17-1.65-2.11-2.82-2.82Z"/>
      <path class="cls-1" d="M350.48,16.19c-1.17-1.44-2.66-2.57-4.45-3.39-1.8-.81-3.91-1.22-6.33-1.22-2.59,0-4.82.47-6.68,1.41-1.86.94-3.37,2.18-4.54,3.73-1.17,1.55-2.05,3.28-2.63,5.2-.59,1.92-.88,3.89-.88,5.89s.29,4.08.88,5.99c.58,1.9,1.49,3.59,2.73,5.08,1.23,1.48,2.81,2.66,4.73,3.54,1.92.88,4.22,1.32,6.89,1.32,1.8,0,3.39-.16,4.79-.47,1.4-.31,2.75-.82,4.04-1.53,1.29-.71,2.67-1.63,4.14-2.76l-3.89-5.26c-1.17,1.05-2.51,1.85-4.01,2.41-1.51.56-3.05.85-4.64.85-2.17,0-3.98-.56-5.42-1.69-1.2-.94-1.98-2.27-2.32-3.97-.11-.53.28-1.04.83-1.04h20.14c.08-.58.13-1.14.16-1.66.02-.52.03-.93.03-1.22,0-2.17-.3-4.22-.91-6.14-.61-1.92-1.49-3.6-2.66-5.05ZM346.01,24.49h-13.32c.13-1.04.45-2.05.97-3.03.52-.98,1.3-1.79,2.35-2.41,1.04-.63,2.34-.94,3.89-.94,1.05,0,1.97.16,2.79.47.82.31,1.51.76,2.1,1.35.59.59,1.04,1.26,1.38,2.04.26.6.42,1.22.47,1.88.03.35-.27.65-.62.65Z"/>
      <path class="cls-1" d="M278.13,13.09c-1.69-1-3.79-1.5-6.3-1.5-2.17,0-4.16.52-5.95,1.57-1.21.7-2.2,1.73-3.01,3.04v-3.98h-7.77v30.9h6.93c.47,0,.85-.38.85-.85v-17.84c0-1.93.56-3.42,1.67-4.48,1.12-1.06,2.72-1.59,4.81-1.59.03,0,.05,0,.08,0,.03,0,.05,0,.07,0,.44,0,.85.04,1.23.09,0,0,.01,0,.02,0,.35.05.67.13.97.22.21.06.41.14.61.22,0,0,.01,0,.02,0,.56.24,1.07.54,1.48.94,1,.99,1.51,2.46,1.51,4.41v18.85h6.93c.47,0,.85-.38.85-.85v-18.46c0-2.47-.41-4.62-1.22-6.45-.81-1.84-2.07-3.26-3.76-4.26Z"/>
      <path class="cls-1" d="M205.4,13.06v17.84c0,1.93-.56,3.42-1.67,4.48-1.12,1.06-2.72,1.59-4.81,1.59-.03,0-.05,0-.08,0-.03,0-.05,0-.07,0-.44,0-.85-.04-1.23-.09,0,0-.01,0-.02,0-.35-.05-.67-.13-.97-.22-.21-.06-.41-.14-.61-.22,0,0-.01,0-.02,0-.56-.24-1.07-.54-1.48-.94-1-.99-1.51-2.46-1.51-4.41V12.21h-6.93c-.47,0-.85.38-.85.85v18.46c0,2.47.41,4.62,1.22,6.45.81,1.84,2.07,3.26,3.76,4.26,1.69,1,3.79,1.5,6.3,1.5,2.17,0,4.16-.52,5.95-1.57.85-.49,1.59-1.15,2.24-1.95.26-.32.77-.15.77.26v2.63s7.77,0,7.77,0V12.21h-6.93c-.47,0-.85.38-.85.85Z"/>
      <path class="cls-1" d="M240.06,12.41c-.69-.23-1.43-.4-2.21-.53-.26-.04-.54-.07-.8-.1-.87-.11-1.78-.19-2.76-.19-2.63,0-5.09.39-7.36,1.16-2.05.7-4.05,1.79-6.02,3.28-.37.28-.44.81-.16,1.18l3.45,4.66c1.29-1.17,2.79-2.08,4.48-2.73,1.69-.65,3.35-.97,4.98-.97,1.32,0,2.44.22,3.38.63.28.12.55.26.8.41.16.1.34.19.48.3,1.15.9,1.72,2.27,1.72,4.11v.75h-8.9c-1.46,0-2.83.13-4.11.38-1.28.25-2.43.69-3.48,1.32-1.21.67-2.18,1.64-2.91,2.91-.73,1.27-1.1,2.81-1.1,4.61,0,2.01.51,3.78,1.54,5.33,1.02,1.55,2.42,2.74,4.2,3.57,1.77.83,3.79,1.25,6.05,1.25,1.7,0,3.3-.36,4.81-1.08l.03-.04v-4.62c0-.29-.23-.52-.52-.52h-3.19c-1.46,0-2.64-.32-3.54-.95-1.08-.76-1.67-2.1-1.5-3.41.04-.36.14-.69.28-.99.21-.44.52-.8.94-1.09.46-.38,1.01-.62,1.66-.72.65-.1,1.31-.16,1.97-.16h6.66c.62,0,1.12.5,1.12,1.12v11.86h7.77v-19.49c0-3.76-1.19-6.71-3.57-8.84-1.17-1.05-2.57-1.84-4.2-2.37Z"/>
    </g>
  </g>
</svg>