<?xml version="1.0" encoding="UTF-8"?>
<svg id="Capa_2" data-name="Capa 2" xmlns="http://www.w3.org/2000/svg" viewBox="0 0 527.65 44.25">
  <defs>
    <style>
      .cls-1 {
        fill: #ce0019;
      }

      .cls-2 {
        fill: #243746;
      }
    </style>
  </defs>
  <g id="Capa_1-2" data-name="Capa 1">
    <g id="bachillerato_uandes">
      <g>
        <path class="cls-2" d="M14.61,41.86c-1.67,0-3.19-.26-4.58-.77-1.38-.51-2.59-1.21-3.61-2.1-1.02-.89-1.84-1.91-2.45-3.04l-.34,5.23H0V.23h3.98v17.46c.95-1.63,2.31-3.01,4.09-4.15,1.78-1.14,3.96-1.71,6.54-1.71,2.81,0,5.25.65,7.34,1.96,2.08,1.31,3.69,3.09,4.81,5.35,1.12,2.26,1.68,4.83,1.68,7.7s-.57,5.46-1.71,7.73c-1.14,2.28-2.74,4.06-4.81,5.35-2.07,1.29-4.5,1.93-7.31,1.93ZM14.33,38.39c2.01,0,3.76-.48,5.26-1.45,1.5-.97,2.67-2.31,3.53-4.04.85-1.72,1.28-3.74,1.28-6.06s-.43-4.39-1.28-6.11c-.85-1.72-2.04-3.06-3.55-4.01-1.52-.95-3.26-1.42-5.23-1.42s-3.72.47-5.26,1.42c-1.54.95-2.73,2.29-3.58,4.04-.85,1.74-1.28,3.77-1.28,6.08s.43,4.39,1.28,6.11c.85,1.73,2.05,3.06,3.58,4.01,1.54.95,3.29,1.42,5.26,1.42Z"/>
        <path class="cls-2" d="M44.41,41.86c-2.31,0-4.24-.42-5.77-1.25s-2.67-1.91-3.41-3.24c-.74-1.33-1.11-2.79-1.11-4.38,0-1.97.5-3.64,1.51-5,1-1.37,2.43-2.39,4.27-3.07,1.84-.68,3.95-1.02,6.34-1.02h7.73c0-1.86-.28-3.43-.85-4.72-.57-1.29-1.39-2.26-2.47-2.93-1.08-.66-2.46-.99-4.12-.99-1.97,0-3.66.49-5.06,1.48-1.4.99-2.28,2.43-2.62,4.32h-4.15c.23-2.01.92-3.7,2.08-5.06,1.16-1.37,2.6-2.4,4.32-3.1,1.72-.7,3.53-1.05,5.43-1.05,2.62,0,4.77.5,6.45,1.51,1.69,1,2.94,2.38,3.75,4.12.82,1.74,1.22,3.75,1.22,6.03v17.69h-3.64l-.17-5.23c-.38.8-.86,1.56-1.45,2.28-.59.72-1.27,1.35-2.05,1.88-.78.53-1.68.96-2.7,1.28-1.02.32-2.2.48-3.53.48ZM44.87,38.33c1.44,0,2.71-.28,3.81-.85,1.1-.57,2.05-1.33,2.84-2.28.8-.95,1.4-2.03,1.82-3.24.42-1.21.63-2.45.63-3.7v-1.02h-7.45c-2.01,0-3.62.25-4.83.74-1.21.49-2.09,1.16-2.62,1.99-.53.83-.8,1.8-.8,2.9s.26,2.06.77,2.87c.51.82,1.26,1.45,2.25,1.9.98.46,2.18.68,3.58.68Z"/>
        <path class="cls-2" d="M78.08,41.86c-2.62,0-4.98-.63-7.08-1.88s-3.76-3-4.98-5.26c-1.21-2.25-1.82-4.86-1.82-7.82s.61-5.72,1.82-7.93c1.21-2.22,2.87-3.96,4.98-5.23,2.1-1.27,4.46-1.9,7.08-1.9,3.34,0,6.11.86,8.33,2.59,2.22,1.73,3.63,4.01,4.24,6.85h-3.98c-.42-1.89-1.41-3.36-2.99-4.41-1.57-1.04-3.44-1.56-5.6-1.56-1.74,0-3.36.43-4.83,1.28-1.48.85-2.67,2.13-3.58,3.84-.91,1.71-1.37,3.87-1.37,6.48,0,1.93.27,3.62.8,5.06s1.26,2.64,2.19,3.61c.93.97,1.97,1.7,3.13,2.19,1.16.49,2.38.74,3.67.74,1.4,0,2.7-.24,3.9-.71,1.19-.47,2.21-1.16,3.04-2.07s1.38-2.01,1.65-3.3h3.98c-.57,2.77-1.97,5.03-4.21,6.8-2.24,1.76-5.02,2.64-8.36,2.64Z"/>
        <path class="cls-2" d="M97.47,41.17V.23h3.98v17.4c.99-1.82,2.36-3.24,4.12-4.26,1.76-1.02,3.67-1.54,5.72-1.54,2.16,0,4.05.44,5.66,1.31,1.61.87,2.86,2.2,3.75,3.98.89,1.78,1.34,4.06,1.34,6.82v17.23h-3.92v-16.78c0-3.07-.64-5.35-1.9-6.85-1.27-1.5-3.14-2.25-5.6-2.25-1.71,0-3.25.42-4.63,1.25-1.38.83-2.48,2.04-3.3,3.61-.82,1.57-1.22,3.52-1.22,5.83v15.18h-3.98Z"/>
        <path class="cls-2" d="M132.1,5.74c-.8,0-1.48-.27-2.05-.82-.57-.55-.85-1.24-.85-2.08s.27-1.56.82-2.08c.55-.51,1.24-.77,2.08-.77.76,0,1.42.26,1.99.77.57.51.85,1.2.85,2.08s-.28,1.53-.82,2.08c-.55.55-1.22.82-2.02.82ZM130.11,41.17V12.51h3.98v28.66h-3.98Z"/>
        <path class="cls-2" d="M142.68,41.17V.23h3.98v40.95h-3.98Z"/>
        <path class="cls-2" d="M154.74,41.17V.23h3.98v40.95h-3.98Z"/>
        <path class="cls-2" d="M179.08,41.86c-2.65,0-4.99-.63-7.02-1.88-2.03-1.25-3.62-3-4.78-5.26-1.16-2.25-1.73-4.9-1.73-7.93s.57-5.67,1.71-7.91c1.14-2.24,2.74-3.97,4.81-5.2,2.07-1.23,4.44-1.85,7.14-1.85s5.12.63,7.05,1.88c1.93,1.25,3.4,2.88,4.41,4.89,1,2.01,1.51,4.21,1.51,6.6v1.16c0,.4-.02.86-.06,1.39h-23.54v-3.36h19.73c-.11-2.92-1.03-5.17-2.76-6.77-1.73-1.59-3.9-2.39-6.51-2.39-1.67,0-3.24.39-4.72,1.17-1.48.78-2.66,1.91-3.55,3.41-.89,1.5-1.34,3.38-1.34,5.66v1.48c0,2.58.46,4.72,1.39,6.43.93,1.71,2.13,2.98,3.61,3.81,1.48.83,3.03,1.25,4.66,1.25,2.16,0,3.94-.48,5.35-1.45,1.4-.97,2.41-2.3,3.01-4.01h3.92c-.45,1.67-1.23,3.18-2.33,4.52-1.1,1.35-2.48,2.41-4.15,3.19-1.67.78-3.6,1.17-5.8,1.17Z"/>
        <path class="cls-2" d="M198.64,41.17V12.51h3.64l.28,5.52c.61-1.33,1.42-2.45,2.45-3.36,1.02-.91,2.25-1.61,3.7-2.1,1.44-.49,3.07-.74,4.89-.74v4.15h-1.54c-1.21,0-2.39.16-3.53.48-1.14.32-2.14.86-3.01,1.62s-1.57,1.78-2.1,3.07c-.53,1.29-.8,2.9-.8,4.83v15.18h-3.98Z"/>
        <path class="cls-2" d="M228.32,41.86c-2.31,0-4.24-.42-5.77-1.25s-2.67-1.91-3.41-3.24c-.74-1.33-1.11-2.79-1.11-4.38,0-1.97.5-3.64,1.51-5,1-1.37,2.43-2.39,4.27-3.07,1.84-.68,3.95-1.02,6.34-1.02h7.73c0-1.86-.28-3.43-.85-4.72-.57-1.29-1.39-2.26-2.47-2.93-1.08-.66-2.46-.99-4.12-.99-1.97,0-3.66.49-5.06,1.48-1.4.99-2.28,2.43-2.62,4.32h-4.15c.23-2.01.92-3.7,2.08-5.06,1.16-1.37,2.6-2.4,4.32-3.1,1.72-.7,3.53-1.05,5.43-1.05,2.62,0,4.77.5,6.45,1.51,1.69,1,2.94,2.38,3.75,4.12.82,1.74,1.22,3.75,1.22,6.03v17.69h-3.64l-.17-5.23c-.38.8-.86,1.56-1.45,2.28-.59.72-1.27,1.35-2.05,1.88-.78.53-1.68.96-2.7,1.28-1.02.32-2.2.48-3.53.48ZM228.78,38.33c1.44,0,2.71-.28,3.81-.85,1.1-.57,2.05-1.33,2.84-2.28.8-.95,1.4-2.03,1.82-3.24.42-1.21.63-2.45.63-3.7v-1.02h-7.45c-2.01,0-3.62.25-4.83.74-1.21.49-2.09,1.16-2.62,1.99-.53.83-.8,1.8-.8,2.9s.26,2.06.77,2.87c.51.82,1.26,1.45,2.25,1.9.98.46,2.18.68,3.58.68Z"/>
        <path class="cls-2" d="M259.32,41.17c-1.63,0-3.03-.26-4.21-.77-1.18-.51-2.08-1.37-2.7-2.56s-.94-2.83-.94-4.92V15.92h-5v-3.41h5l.57-6.65h3.41v6.71h8.59v3.36h-8.59v17c0,1.9.38,3.18,1.14,3.84.76.66,2.1.99,4.04.99h2.96v3.41h-4.26Z"/>
        <path class="cls-2" d="M282.06,41.86c-2.62,0-4.98-.62-7.08-1.85s-3.76-2.98-4.98-5.23c-1.21-2.25-1.82-4.88-1.82-7.88s.62-5.78,1.85-8.02c1.23-2.24,2.91-3.97,5.03-5.2,2.12-1.23,4.49-1.85,7.11-1.85s5.14.62,7.22,1.85c2.08,1.23,3.73,2.97,4.95,5.2,1.21,2.24,1.82,4.91,1.82,8.02s-.62,5.62-1.85,7.88c-1.23,2.26-2.9,4-5,5.23-2.1,1.23-4.52,1.85-7.25,1.85ZM282.12,38.44c1.78,0,3.42-.44,4.92-1.31,1.5-.87,2.71-2.17,3.64-3.9.93-1.72,1.39-3.86,1.39-6.4s-.45-4.72-1.36-6.43c-.91-1.71-2.11-2.99-3.61-3.84-1.5-.85-3.14-1.28-4.92-1.28s-3.32.44-4.83,1.31c-1.52.87-2.74,2.15-3.67,3.84-.93,1.69-1.39,3.82-1.39,6.4s.46,4.67,1.37,6.4c.91,1.73,2.11,3.02,3.61,3.9s3.12,1.31,4.86,1.31Z"/>
      </g>
      <g>
        <path class="cls-2" d="M458.36,14.43c0,.44-.54.64-.83.32-.96-1.08-2.17-2.2-3.21-2.7-1.38-.66-2.86-.99-4.46-.99-2.27,0-4.37.61-6.28,1.83-1.92,1.22-3.44,2.96-4.58,5.24-1.14,2.27-1.71,5.03-1.71,8.26,0,2.91.51,5.54,1.53,7.87,1.02,2.33,2.46,4.17,4.34,5.51,1.87,1.34,4.11,2,6.7,2,1.48,0,2.9-.29,4.28-.87,1.06-.45,2.36-1.64,3.39-2.79.29-.33.83-.13.83.31v2.75h7.36V2.01h-7.36v12.42ZM458.15,30.87c-.58,1.28-1.4,2.27-2.45,2.99-1.06.72-2.32,1.08-3.8,1.08s-2.69-.35-3.77-1.05c-1.08-.7-1.91-1.68-2.48-2.96-.58-1.28-.87-2.79-.87-4.55s.29-3.26.87-4.52c.58-1.26,1.41-2.23,2.48-2.93,1.08-.7,2.33-1.05,3.77-1.05s2.74.35,3.8,1.05c1.06.7,1.87,1.69,2.45,2.96.58,1.28.87,2.77.87,4.49s-.29,3.21-.87,4.49Z"/>
        <path class="cls-2" d="M523.94,24.89c-1.12-.68-2.31-1.22-3.59-1.62-1.28-.4-2.51-.74-3.71-1.02-1.28-.32-2.3-.61-3.08-.87-.78-.26-1.34-.57-1.68-.93-.34-.36-.51-.8-.51-1.32,0-.76.37-1.36,1.11-1.8.74-.44,1.68-.66,2.84-.66,1.32,0,2.56.29,3.74.87.93.46,1.71,1.09,2.35,1.91.29.37.85.41,1.22.12l3.87-3.07c-1.12-1.76-2.63-3.1-4.55-4.04-1.92-.94-4.05-1.41-6.4-1.41-3.92,0-6.93,1.11-9.05,3.31-1.41,1.47-2.09,3.45-2.08,5.5,0,1.52.32,2.8.93,3.82.62,1.04,1.43,1.88,2.42,2.54,1,.66,2.09,1.19,3.29,1.59,1.2.4,2.35.76,3.47,1.08,1.08.28,2.05.57,2.93.87.88.3,1.58.68,2.09,1.14.52.46.78,1.05.78,1.77,0,.88-.41,1.61-1.23,2.19-.82.58-1.96.87-3.44.87-1.88,0-3.44-.47-4.7-1.41-.96-.72-1.75-1.49-2.38-2.31-.31-.4-.9-.45-1.28-.12l-4.33,3.77c.68.88,1.59,1.8,2.72,2.75,1.14.96,2.52,1.76,4.16,2.39,1.64.64,3.55.96,5.75.96,2.43,0,4.55-.42,6.34-1.26,1.8-.84,3.19-2.01,4.19-3.5,1-1.5,1.5-3.22,1.5-5.18,0-1.71-.34-3.13-1.02-4.25-.68-1.12-1.58-2.01-2.69-2.69Z"/>
        <path class="cls-2" d="M496,15.46c-1.12-1.38-2.54-2.45-4.25-3.23-1.72-.78-3.73-1.17-6.04-1.17-2.48,0-4.6.45-6.37,1.35-1.78.9-3.22,2.09-4.34,3.56-1.12,1.48-1.96,3.13-2.51,4.97-.56,1.84-.84,3.71-.84,5.63s.28,3.9.84,5.72c.56,1.82,1.43,3.43,2.6,4.85,1.18,1.42,2.68,2.54,4.52,3.38,1.83.84,4.03,1.26,6.58,1.26,1.71,0,3.24-.15,4.58-.45,1.34-.3,2.62-.79,3.86-1.47,1.24-.68,2.55-1.56,3.95-2.63l-3.71-5.03c-1.12,1-2.39,1.77-3.83,2.3-1.44.54-2.91.81-4.43.81-2.08,0-3.8-.54-5.18-1.62-1.15-.9-1.89-2.16-2.22-3.79-.1-.51.27-1,.79-1h19.23c.08-.56.13-1.09.15-1.59.02-.5.03-.89.03-1.17,0-2.07-.29-4.03-.87-5.86-.58-1.84-1.43-3.44-2.54-4.82ZM491.73,23.38h-12.72c.12-.99.43-1.96.93-2.9.5-.94,1.25-1.71,2.24-2.3,1-.6,2.23-.9,3.71-.9,1,0,1.89.15,2.66.45.78.3,1.45.73,2.01,1.29.56.56,1,1.21,1.32,1.95.25.57.4,1.17.45,1.8.03.34-.26.62-.6.62Z"/>
        <path class="cls-2" d="M426.91,12.5c-1.62-.96-3.62-1.44-6.01-1.44-2.07,0-3.97.5-5.69,1.5-1.15.67-2.1,1.65-2.87,2.9v-3.8h-7.42v29.5h6.61c.45,0,.81-.36.81-.81v-17.04c0-1.84.53-3.26,1.6-4.28,1.07-1.01,2.6-1.52,4.6-1.52.03,0,.05,0,.08,0,.02,0,.05,0,.07,0,.42,0,.81.03,1.18.09,0,0,.01,0,.02,0,.33.05.64.12.92.21.2.06.39.14.58.21,0,0,.01,0,.02,0,.54.23,1.02.51,1.41.89.96.95,1.44,2.35,1.44,4.22v18h6.61c.45,0,.81-.36.81-.81v-17.62c0-2.35-.39-4.41-1.17-6.16-.78-1.76-1.97-3.11-3.59-4.07Z"/>
        <path class="cls-2" d="M357.46,12.47v17.04c0,1.84-.53,3.26-1.6,4.28-1.07,1.01-2.6,1.52-4.6,1.52-.03,0-.05,0-.08,0-.02,0-.05,0-.07,0-.42,0-.81-.03-1.18-.09,0,0-.01,0-.02,0-.33-.05-.64-.12-.92-.21-.2-.06-.39-.14-.58-.21,0,0-.01,0-.02,0-.54-.23-1.02-.51-1.41-.89-.96-.95-1.44-2.35-1.44-4.22V11.66h-6.61c-.45,0-.81.36-.81.81v17.62c0,2.35.39,4.41,1.17,6.16.78,1.76,1.97,3.11,3.59,4.07,1.62.96,3.62,1.44,6.01,1.44,2.07,0,3.97-.5,5.69-1.5.81-.47,1.52-1.1,2.14-1.86.25-.31.74-.14.74.25v2.51s7.42,0,7.42,0V11.66h-6.61c-.45,0-.81.36-.81.81Z"/>
        <path class="cls-2" d="M390.56,11.85c-.66-.22-1.37-.38-2.11-.51-.25-.04-.51-.07-.77-.1-.84-.11-1.7-.19-2.63-.19-2.51,0-4.86.37-7.03,1.11-1.96.66-3.87,1.71-5.74,3.13-.35.27-.42.78-.16,1.13l3.3,4.45c1.24-1.12,2.66-1.98,4.28-2.6,1.62-.62,3.2-.93,4.76-.93,1.26,0,2.33.21,3.23.6.27.12.53.25.77.4.15.1.32.18.46.29,1.1.86,1.65,2.17,1.65,3.92v.72h-8.5c-1.4,0-2.7.12-3.92.36-1.22.24-2.32.66-3.32,1.26-1.16.64-2.08,1.57-2.78,2.78-.7,1.22-1.05,2.68-1.05,4.4,0,1.91.49,3.61,1.47,5.09.98,1.48,2.31,2.61,4.01,3.41,1.69.8,3.62,1.2,5.77,1.2,1.62,0,3.15-.34,4.59-1.03l.03-.04v-4.42c0-.28-.22-.5-.5-.5h-3.04c-1.4,0-2.53-.3-3.38-.91-1.03-.73-1.59-2-1.43-3.26.04-.34.13-.66.27-.95.2-.42.5-.77.9-1.05.44-.36.97-.59,1.59-.69.62-.1,1.25-.15,1.88-.15h6.35c.59,0,1.07.48,1.07,1.07v11.32h7.42v-18.61c0-3.59-1.14-6.4-3.41-8.44-1.12-1-2.46-1.75-4.01-2.26Z"/>
        <path class="cls-1" d="M307.13,44.25v-8.4c0-.63.31-1.23.82-1.6l11.21-8.14-11.21-8.14c-.51-.38-.82-.98-.82-1.61V7.98l16.64,12.07c4.15,3.01,4.15,9.12,0,12.13l-16.64,12.07Z"/>
      </g>
    </g>
  </g>
</svg>