<?xml version="1.0" encoding="UTF-8"?>
<svg id="Capa_2" data-name="Capa 2" xmlns="http://www.w3.org/2000/svg" viewBox="0 0 517.64 47.63">
  <defs>
    <style>
      .cls-1 {
        fill: #ce0019;
      }

      .cls-2 {
        fill: #243746;
      }
    </style>
  </defs>
  <g id="Capa_1-2" data-name="Capa 1">
    <g id="biblioteca_uandes">
      <g>
        <path class="cls-2" d="M15.73,45.05c-1.8,0-3.44-.28-4.93-.83-1.49-.55-2.78-1.31-3.89-2.26-1.1-.96-1.98-2.05-2.63-3.28l-.37,5.63H0V.24h4.28v18.79c1.02-1.75,2.49-3.24,4.41-4.47,1.92-1.22,4.26-1.84,7.04-1.84,3.02,0,5.65.7,7.9,2.11,2.24,1.41,3.97,3.33,5.17,5.75,1.2,2.43,1.81,5.19,1.81,8.29s-.61,5.88-1.84,8.32c-1.22,2.45-2.95,4.37-5.17,5.75-2.22,1.39-4.85,2.08-7.87,2.08ZM15.42,41.31c2.16,0,4.05-.52,5.66-1.56,1.61-1.04,2.88-2.49,3.79-4.35.92-1.86,1.38-4.03,1.38-6.52s-.46-4.72-1.38-6.58c-.92-1.86-2.19-3.29-3.83-4.32-1.63-1.02-3.51-1.53-5.63-1.53s-4.01.51-5.66,1.53c-1.65,1.02-2.94,2.47-3.86,4.35-.92,1.88-1.38,4.06-1.38,6.55s.46,4.72,1.38,6.58c.92,1.86,2.2,3.3,3.86,4.32s3.54,1.53,5.66,1.53Z"/>
        <path class="cls-2" d="M40.7,6.18c-.86,0-1.59-.3-2.2-.89-.61-.59-.92-1.34-.92-2.23s.3-1.68.89-2.23c.59-.55,1.34-.83,2.23-.83.82,0,1.53.28,2.14.83.61.55.92,1.3.92,2.23s-.3,1.64-.89,2.23c-.59.59-1.32.89-2.17.89ZM38.56,44.31V13.47h4.28v30.85h-4.28Z"/>
        <path class="cls-2" d="M67.81,45.05c-1.8,0-3.44-.28-4.93-.83-1.49-.55-2.78-1.31-3.89-2.26-1.1-.96-1.98-2.05-2.63-3.28l-.37,5.63h-3.92V.24h4.28v18.79c1.02-1.75,2.49-3.24,4.41-4.47,1.92-1.22,4.26-1.84,7.04-1.84,3.02,0,5.65.7,7.9,2.11,2.24,1.41,3.97,3.33,5.17,5.75,1.2,2.43,1.81,5.19,1.81,8.29s-.61,5.88-1.84,8.32c-1.22,2.45-2.95,4.37-5.17,5.75-2.22,1.39-4.85,2.08-7.87,2.08ZM67.51,41.31c2.16,0,4.05-.52,5.66-1.56,1.61-1.04,2.88-2.49,3.79-4.35.92-1.86,1.38-4.03,1.38-6.52s-.46-4.72-1.38-6.58c-.92-1.86-2.19-3.29-3.83-4.32-1.63-1.02-3.51-1.53-5.63-1.53s-4.01.51-5.66,1.53c-1.65,1.02-2.94,2.47-3.86,4.35-.92,1.88-1.38,4.06-1.38,6.55s.46,4.72,1.38,6.58c.92,1.86,2.2,3.3,3.86,4.32s3.54,1.53,5.66,1.53Z"/>
        <path class="cls-2" d="M90.03,44.31V.24h4.28v44.07h-4.28Z"/>
        <path class="cls-2" d="M105.76,6.18c-.86,0-1.59-.3-2.2-.89-.61-.59-.92-1.34-.92-2.23s.3-1.68.89-2.23c.59-.55,1.34-.83,2.23-.83.82,0,1.53.28,2.14.83.61.55.92,1.3.92,2.23s-.3,1.64-.89,2.23c-.59.59-1.32.89-2.17.89ZM103.62,44.31V13.47h4.28v30.85h-4.28Z"/>
        <path class="cls-2" d="M130.73,45.05c-2.82,0-5.36-.66-7.62-1.99s-4.05-3.2-5.36-5.63c-1.31-2.43-1.96-5.25-1.96-8.48s.66-6.22,1.99-8.63c1.33-2.41,3.13-4.27,5.42-5.6,2.29-1.33,4.84-1.99,7.65-1.99s5.53.66,7.77,1.99c2.24,1.33,4.02,3.19,5.32,5.6,1.31,2.41,1.96,5.28,1.96,8.63s-.66,6.05-1.99,8.48c-1.33,2.43-3.12,4.31-5.39,5.63-2.26,1.33-4.87,1.99-7.8,1.99ZM130.79,41.38c1.92,0,3.68-.47,5.29-1.41,1.61-.94,2.92-2.33,3.92-4.19,1-1.86,1.5-4.15,1.5-6.89s-.49-5.08-1.47-6.92c-.98-1.84-2.27-3.21-3.89-4.13-1.61-.92-3.38-1.38-5.29-1.38s-3.57.47-5.2,1.41c-1.63.94-2.95,2.32-3.95,4.13-1,1.82-1.5,4.11-1.5,6.88s.49,5.03,1.47,6.89c.98,1.86,2.27,3.25,3.89,4.19,1.61.94,3.36,1.41,5.23,1.41Z"/>
        <path class="cls-2" d="M163.72,44.31c-1.76,0-3.27-.28-4.53-.83-1.27-.55-2.23-1.47-2.91-2.75s-1.01-3.05-1.01-5.29v-18.3h-5.39v-3.67h5.39l.61-7.16h3.67v7.22h9.24v3.61h-9.24v18.3c0,2.04.41,3.42,1.22,4.13.82.71,2.27,1.07,4.35,1.07h3.18v3.67h-4.59Z"/>
        <path class="cls-2" d="M187.84,45.05c-2.86,0-5.38-.67-7.56-2.02-2.18-1.35-3.9-3.23-5.14-5.66-1.25-2.43-1.87-5.27-1.87-8.54s.61-6.1,1.84-8.51c1.22-2.41,2.95-4.27,5.17-5.6,2.22-1.33,4.78-1.99,7.68-1.99s5.51.67,7.59,2.02c2.08,1.35,3.66,3.1,4.74,5.26,1.08,2.16,1.62,4.53,1.62,7.1v1.25c0,.43-.02.93-.06,1.5h-25.34v-3.61h21.24c-.12-3.14-1.11-5.57-2.97-7.28-1.86-1.71-4.19-2.57-7.01-2.57-1.8,0-3.49.42-5.08,1.26-1.59.84-2.87,2.06-3.83,3.67-.96,1.61-1.44,3.64-1.44,6.09v1.59c0,2.78.5,5.08,1.5,6.92,1,1.84,2.3,3.2,3.89,4.1,1.59.9,3.26,1.35,5.02,1.35,2.33,0,4.24-.52,5.75-1.56,1.51-1.04,2.59-2.48,3.24-4.32h4.22c-.49,1.8-1.33,3.42-2.51,4.87-1.18,1.45-2.67,2.59-4.47,3.43-1.8.84-3.88,1.26-6.24,1.26Z"/>
        <path class="cls-2" d="M222.48,45.05c-2.82,0-5.36-.67-7.62-2.02-2.26-1.35-4.05-3.23-5.36-5.66-1.31-2.43-1.96-5.23-1.96-8.42s.65-6.15,1.96-8.54c1.31-2.39,3.09-4.26,5.36-5.63,2.26-1.37,4.8-2.05,7.62-2.05,3.59,0,6.58.93,8.97,2.78,2.39,1.86,3.91,4.32,4.56,7.37h-4.28c-.45-2.04-1.52-3.62-3.21-4.74-1.69-1.12-3.7-1.68-6.03-1.68-1.88,0-3.61.46-5.2,1.38-1.59.92-2.88,2.3-3.86,4.13-.98,1.84-1.47,4.16-1.47,6.98,0,2.08.29,3.9.86,5.45s1.36,2.85,2.36,3.89c1,1.04,2.12,1.83,3.37,2.36,1.24.53,2.56.8,3.95.8,1.51,0,2.91-.25,4.19-.77,1.29-.51,2.38-1.25,3.27-2.23s1.49-2.16,1.78-3.55h4.28c-.61,2.98-2.12,5.42-4.53,7.31-2.41,1.9-5.41,2.85-9,2.85Z"/>
        <path class="cls-2" d="M253.2,45.05c-2.49,0-4.56-.45-6.21-1.35s-2.88-2.06-3.67-3.49c-.8-1.43-1.19-3-1.19-4.71,0-2.12.54-3.92,1.62-5.38,1.08-1.47,2.61-2.57,4.59-3.3,1.98-.73,4.25-1.1,6.82-1.1h8.32c0-2-.31-3.69-.92-5.08-.61-1.39-1.5-2.44-2.66-3.15-1.16-.71-2.64-1.07-4.44-1.07-2.12,0-3.94.53-5.45,1.59-1.51,1.06-2.45,2.61-2.82,4.65h-4.47c.24-2.16.99-3.98,2.23-5.45,1.24-1.47,2.79-2.58,4.65-3.34,1.86-.75,3.8-1.13,5.85-1.13,2.82,0,5.13.54,6.95,1.62,1.82,1.08,3.16,2.56,4.04,4.44.88,1.88,1.32,4.04,1.32,6.49v19.04h-3.92l-.18-5.63c-.41.86-.93,1.67-1.56,2.45-.63.78-1.37,1.45-2.2,2.02-.84.57-1.81,1.03-2.91,1.38-1.1.35-2.37.52-3.79.52ZM253.69,41.25c1.55,0,2.92-.31,4.1-.92,1.18-.61,2.2-1.43,3.06-2.45.86-1.02,1.51-2.18,1.96-3.49.45-1.31.67-2.63.67-3.98v-1.1h-8.02c-2.16,0-3.9.27-5.2.8-1.31.53-2.24,1.24-2.82,2.14-.57.9-.86,1.94-.86,3.12s.28,2.21.83,3.09c.55.88,1.36,1.56,2.42,2.05,1.06.49,2.35.73,3.86.73Z"/>
      </g>
      <g>
        <path class="cls-2" d="M443.06,15.53c0,.47-.58.69-.89.34-1.03-1.17-2.33-2.36-3.46-2.9-1.48-.71-3.08-1.06-4.8-1.06-2.45,0-4.7.66-6.76,1.96-2.06,1.31-3.7,3.19-4.93,5.64-1.22,2.45-1.84,5.41-1.84,8.89,0,3.14.55,5.96,1.64,8.47,1.1,2.51,2.65,4.49,4.67,5.93,2.02,1.44,4.42,2.16,7.21,2.16,1.59,0,3.12-.31,4.61-.93,1.14-.48,2.54-1.76,3.65-3.01.31-.35.89-.14.89.34v2.96h7.92V2.16h-7.92v13.37ZM442.84,33.22c-.62,1.38-1.5,2.45-2.64,3.22-1.14.77-2.5,1.16-4.09,1.16s-2.9-.38-4.06-1.13c-1.16-.75-2.05-1.81-2.67-3.19-.62-1.37-.93-3-.93-4.89s.31-3.51.93-4.86c.62-1.35,1.51-2.4,2.67-3.16,1.16-.75,2.51-1.13,4.06-1.13s2.95.38,4.09,1.13c1.14.75,2.02,1.81,2.64,3.19.62,1.37.93,2.99.93,4.83s-.31,3.46-.93,4.83Z"/>
        <path class="cls-2" d="M513.65,26.78c-1.2-.73-2.49-1.31-3.86-1.74-1.37-.43-2.7-.79-3.99-1.1-1.37-.34-2.48-.65-3.32-.93-.84-.28-1.44-.61-1.8-1-.36-.39-.55-.86-.55-1.42,0-.82.4-1.46,1.19-1.93.79-.47,1.81-.71,3.06-.71,1.42,0,2.76.31,4.03.93,1,.49,1.84,1.18,2.53,2.05.32.4.92.44,1.32.12l4.17-3.3c-1.2-1.89-2.84-3.34-4.9-4.35-2.06-1.01-4.36-1.51-6.89-1.51-4.21,0-7.46,1.19-9.74,3.56-1.52,1.58-2.25,3.72-2.24,5.91,0,1.64.34,3.01,1,4.11.67,1.12,1.54,2.03,2.61,2.74,1.07.71,2.25,1.28,3.54,1.71,1.29.43,2.53.82,3.74,1.16,1.16.3,2.21.61,3.16.93.94.32,1.7.73,2.25,1.22.56.49.84,1.13.84,1.9,0,.95-.44,1.73-1.32,2.35-.88.62-2.11.93-3.7.93-2.02,0-3.7-.5-5.06-1.51-1.04-.77-1.89-1.6-2.56-2.49-.33-.44-.96-.48-1.38-.13l-4.66,4.06c.73.95,1.71,1.93,2.93,2.96,1.22,1.03,2.71,1.89,4.48,2.58,1.76.69,3.82,1.03,6.18,1.03,2.62,0,4.89-.45,6.83-1.35,1.93-.9,3.44-2.16,4.51-3.77,1.07-1.61,1.61-3.47,1.61-5.57,0-1.84-.36-3.37-1.09-4.57-.73-1.2-1.7-2.17-2.9-2.9Z"/>
        <path class="cls-2" d="M483.57,16.64c-1.2-1.48-2.73-2.64-4.57-3.48-1.85-.84-4.02-1.26-6.5-1.26-2.66,0-4.95.48-6.86,1.45-1.91.97-3.47,2.24-4.67,3.83-1.2,1.59-2.1,3.37-2.7,5.35-.6,1.98-.9,3.99-.9,6.05s.3,4.2.9,6.15c.6,1.95,1.53,3.69,2.8,5.22,1.27,1.52,2.89,2.74,4.86,3.64,1.97.9,4.34,1.35,7.08,1.35,1.84,0,3.49-.16,4.93-.48,1.44-.32,2.82-.85,4.15-1.58,1.33-.73,2.75-1.68,4.25-2.84l-3.99-5.41c-1.2,1.07-2.58,1.9-4.12,2.48-1.55.58-3.14.87-4.77.87-2.23,0-4.09-.58-5.57-1.74-1.24-.97-2.03-2.33-2.39-4.08-.11-.55.29-1.07.85-1.07h20.7c.09-.6.14-1.17.16-1.71.02-.54.03-.95.03-1.26,0-2.23-.31-4.34-.93-6.31-.62-1.98-1.54-3.7-2.74-5.18ZM478.97,25.17h-13.69c.13-1.07.46-2.11,1-3.12.54-1.01,1.34-1.84,2.41-2.48,1.07-.65,2.4-.97,3.99-.97,1.07,0,2.03.16,2.87.48.84.32,1.56.78,2.16,1.39.6.6,1.07,1.3,1.42,2.09.26.61.43,1.26.49,1.93.03.36-.28.67-.64.67Z"/>
        <path class="cls-2" d="M409.22,13.45c-1.74-1.03-3.9-1.55-6.47-1.55-2.23,0-4.27.54-6.12,1.61-1.24.72-2.26,1.78-3.09,3.12v-4.09h-7.99v31.75h7.12c.48,0,.87-.39.87-.87v-18.34c0-1.98.57-3.51,1.72-4.6,1.15-1.09,2.8-1.63,4.95-1.63.03,0,.06,0,.09,0,.03,0,.05,0,.08,0,.45,0,.87.04,1.27.1,0,0,.01,0,.02,0,.36.05.69.13.99.23.22.06.42.15.62.23,0,0,.01,0,.02,0,.58.24,1.1.55,1.52.96,1.03,1.02,1.55,2.53,1.55,4.54v19.38h7.12c.48,0,.87-.39.87-.87v-18.97c0-2.53-.42-4.74-1.26-6.63-.84-1.89-2.13-3.35-3.86-4.38Z"/>
        <path class="cls-2" d="M334.47,13.42v18.34c0,1.98-.57,3.51-1.72,4.6-1.15,1.09-2.8,1.63-4.95,1.63-.03,0-.06,0-.09,0-.03,0-.05,0-.08,0-.45,0-.87-.04-1.27-.1,0,0-.01,0-.02,0-.36-.05-.69-.13-.99-.23-.22-.06-.42-.15-.62-.23,0,0-.01,0-.02,0-.58-.24-1.1-.55-1.52-.96-1.03-1.02-1.55-2.53-1.55-4.54V12.55h-7.12c-.48,0-.87.39-.87.87v18.97c0,2.53.42,4.74,1.26,6.63.84,1.89,2.13,3.35,3.86,4.38,1.74,1.03,3.9,1.55,6.47,1.55,2.23,0,4.27-.54,6.12-1.61.87-.51,1.63-1.18,2.3-2,.27-.33.79-.15.79.27v2.7s7.99,0,7.99,0V12.55h-7.12c-.48,0-.87.39-.87.87Z"/>
        <path class="cls-2" d="M370.09,12.76c-.71-.23-1.47-.41-2.27-.55-.27-.05-.55-.07-.83-.11-.9-.12-1.83-.2-2.83-.2-2.7,0-5.23.4-7.57,1.19-2.11.71-4.17,1.84-6.18,3.37-.38.29-.45.84-.17,1.22l3.55,4.79c1.33-1.2,2.87-2.14,4.6-2.8,1.74-.67,3.45-1,5.12-1,1.35,0,2.5.22,3.48.65.29.13.57.26.83.43.17.1.34.19.5.31,1.18.92,1.77,2.33,1.77,4.22v.77h-9.15c-1.5,0-2.91.13-4.22.39-1.31.26-2.5.71-3.58,1.35-1.24.69-2.24,1.69-2.99,3-.75,1.31-1.13,2.89-1.13,4.73,0,2.06.53,3.89,1.58,5.47,1.05,1.59,2.49,2.81,4.32,3.67,1.82.86,3.9,1.29,6.21,1.29,1.75,0,3.39-.37,4.94-1.11l.03-.05v-4.75c0-.3-.24-.54-.54-.54h-3.28c-1.5,0-2.72-.33-3.64-.98-1.11-.79-1.71-2.16-1.54-3.51.05-.37.14-.71.29-1.02.21-.45.54-.83.97-1.13.47-.39,1.04-.63,1.71-.74.67-.11,1.34-.16,2.03-.16h6.84c.63,0,1.15.51,1.15,1.15v12.18h7.99v-20.03c0-3.86-1.22-6.89-3.67-9.08-1.2-1.08-2.64-1.89-4.31-2.43Z"/>
        <path class="cls-1" d="M280.3,47.63v-9.04c0-.68.33-1.32.89-1.73l12.07-8.76-12.07-8.76c-.55-.41-.89-1.05-.89-1.73v-9.03l17.91,12.99c4.46,3.24,4.46,9.81,0,13.05l-17.91,12.99Z"/>
      </g>
    </g>
  </g>
</svg>