<?xml version="1.0" encoding="UTF-8"?>
<svg id="Capa_2" data-name="Capa 2" xmlns="http://www.w3.org/2000/svg" viewBox="0 0 455.33 54.18">
  <defs>
    <style>
      .cls-1 {
        fill: #ce0019;
      }

      .cls-2 {
        fill: #243746;
      }
    </style>
  </defs>
  <g id="Capa_1-2" data-name="Capa 1">
    <g id="campus_uandes">
      <path class="cls-2" d="M14.55,41.78c-2.74,0-5.22-.66-7.42-1.97-2.21-1.31-3.95-3.15-5.22-5.52-1.27-2.36-1.91-5.1-1.91-8.2s.64-5.99,1.91-8.32c1.27-2.32,3.01-4.15,5.22-5.49,2.21-1.33,4.68-2,7.42-2,3.5,0,6.41.9,8.73,2.71,2.33,1.81,3.81,4.2,4.44,7.18h-4.17c-.44-1.99-1.48-3.53-3.13-4.62-1.65-1.09-3.61-1.64-5.87-1.64-1.83,0-3.52.45-5.07,1.34-1.55.89-2.8,2.24-3.76,4.02-.95,1.79-1.43,4.06-1.43,6.8,0,2.03.28,3.8.83,5.31.56,1.51,1.32,2.77,2.3,3.79.97,1.01,2.07,1.78,3.28,2.29,1.21.52,2.49.78,3.85.78,1.47,0,2.83-.25,4.08-.75,1.25-.5,2.32-1.22,3.19-2.17s1.45-2.11,1.73-3.46h4.17c-.6,2.9-2.07,5.28-4.41,7.13-2.35,1.85-5.27,2.77-8.76,2.77Z"/>
      <path class="cls-2" d="M44.48,41.78c-2.42,0-4.44-.44-6.05-1.31-1.61-.87-2.8-2.01-3.58-3.4-.77-1.39-1.16-2.92-1.16-4.59,0-2.07.53-3.82,1.58-5.25,1.05-1.43,2.54-2.51,4.47-3.22,1.93-.72,4.14-1.07,6.65-1.07h8.11c0-1.95-.3-3.6-.89-4.95-.6-1.35-1.46-2.37-2.59-3.07-1.13-.7-2.57-1.04-4.32-1.04-2.07,0-3.84.52-5.31,1.55-1.47,1.03-2.39,2.54-2.74,4.53h-4.35c.24-2.11.96-3.88,2.18-5.31,1.21-1.43,2.72-2.51,4.53-3.25,1.81-.73,3.71-1.1,5.69-1.1,2.74,0,5,.53,6.77,1.58,1.77,1.05,3.08,2.49,3.94,4.32.85,1.83,1.28,3.94,1.28,6.32v18.54h-3.82l-.18-5.49c-.4.83-.91,1.63-1.52,2.39-.62.76-1.33,1.41-2.15,1.97-.82.56-1.76,1.01-2.83,1.34-1.07.34-2.31.51-3.7.51ZM44.95,38.08c1.51,0,2.84-.3,3.99-.89,1.15-.6,2.15-1.39,2.98-2.39.83-.99,1.47-2.13,1.91-3.4.44-1.27.66-2.56.66-3.88v-1.07h-7.81c-2.11,0-3.8.26-5.07.78-1.27.52-2.19,1.21-2.74,2.09-.56.88-.83,1.89-.83,3.04s.27,2.16.8,3.01c.54.85,1.32,1.52,2.36,2,1.03.48,2.29.72,3.76.72Z"/>
      <path class="cls-2" d="M66.54,41.06V11.01h3.82l.3,4.53c.91-1.67,2.19-2.96,3.82-3.88,1.63-.91,3.44-1.37,5.43-1.37,1.51,0,2.9.22,4.17.66,1.27.44,2.38,1.09,3.34,1.97.95.88,1.73,2.01,2.33,3.4.95-1.87,2.33-3.34,4.14-4.41,1.81-1.07,3.75-1.61,5.81-1.61,2.3,0,4.31.46,6.02,1.37,1.71.91,3.03,2.3,3.97,4.17.93,1.87,1.4,4.23,1.4,7.09v18.12h-4.17v-17.65c0-3.18-.65-5.55-1.94-7.12-1.29-1.57-3.13-2.35-5.52-2.35-1.59,0-3.04.43-4.35,1.28-1.31.86-2.34,2.09-3.07,3.7-.74,1.61-1.1,3.61-1.1,5.99v16.16h-4.17v-17.65c0-3.18-.66-5.55-1.97-7.12s-3.12-2.35-5.43-2.35c-1.67,0-3.15.43-4.44,1.28-1.29.86-2.32,2.11-3.07,3.76-.76,1.65-1.13,3.69-1.13,6.11v15.98h-4.17Z"/>
      <path class="cls-2" d="M118.94,54.18V11.01h3.82l.36,5.43c.64-1.07,1.47-2.08,2.5-3.01,1.03-.93,2.28-1.69,3.73-2.27,1.45-.58,3.11-.86,4.98-.86,2.9,0,5.43.7,7.6,2.09,2.17,1.39,3.85,3.27,5.04,5.63s1.79,5.06,1.79,8.08-.61,5.71-1.82,8.08-2.89,4.22-5.04,5.57c-2.15,1.35-4.69,2.03-7.63,2.03-2.54,0-4.78-.55-6.71-1.64-1.93-1.09-3.41-2.63-4.44-4.62v18.66h-4.17ZM133.97,38.14c2.07,0,3.9-.51,5.49-1.52,1.59-1.01,2.83-2.41,3.73-4.2s1.34-3.91,1.34-6.38-.45-4.55-1.34-6.38c-.89-1.83-2.14-3.24-3.73-4.23-1.59-.99-3.42-1.49-5.49-1.49s-3.9.5-5.49,1.49c-1.59.99-2.84,2.4-3.76,4.2s-1.37,3.94-1.37,6.41.46,4.54,1.37,6.35c.91,1.81,2.17,3.22,3.76,4.23,1.59,1.01,3.42,1.52,5.49,1.52Z"/>
      <path class="cls-2" d="M166.76,41.78c-2.27,0-4.26-.45-5.99-1.34-1.73-.89-3.07-2.27-4.02-4.14s-1.43-4.23-1.43-7.09V11.01h4.17v17.71c0,3.18.7,5.54,2.12,7.09,1.41,1.55,3.37,2.33,5.87,2.33,1.79,0,3.39-.43,4.8-1.28,1.41-.85,2.52-2.1,3.34-3.73.81-1.63,1.22-3.64,1.22-6.02V11.01h4.17v30.05h-3.82l-.24-5.37c-.95,1.91-2.34,3.4-4.14,4.47-1.81,1.07-3.83,1.61-6.05,1.61Z"/>
      <path class="cls-2" d="M200.5,41.78c-2.38,0-4.48-.4-6.29-1.19-1.81-.79-3.26-1.94-4.35-3.43-1.09-1.49-1.76-3.27-2-5.34h4.35c.2,1.15.65,2.21,1.34,3.16.69.95,1.64,1.71,2.83,2.27,1.19.56,2.6.83,4.23.83,1.51,0,2.75-.22,3.73-.66.97-.44,1.71-1.04,2.21-1.82.5-.77.75-1.64.75-2.59,0-1.31-.31-2.33-.92-3.07-.62-.73-1.5-1.28-2.65-1.64-1.15-.36-2.54-.69-4.17-1.01-1.35-.24-2.63-.56-3.85-.96-1.21-.4-2.3-.91-3.28-1.55-.97-.64-1.75-1.44-2.33-2.41-.58-.97-.86-2.12-.86-3.43,0-1.71.43-3.21,1.28-4.5s2.08-2.3,3.67-3.04c1.59-.73,3.46-1.1,5.6-1.1,3.06,0,5.56.77,7.51,2.29,1.95,1.53,3.08,3.77,3.4,6.71h-4.17c-.16-1.63-.83-2.92-2.03-3.88s-2.8-1.43-4.83-1.43-3.51.41-4.56,1.22c-1.05.82-1.58,1.92-1.58,3.31,0,.87.28,1.63.83,2.27.56.64,1.38,1.18,2.47,1.64,1.09.46,2.43.84,4.03,1.16,1.91.36,3.67.83,5.28,1.4,1.61.58,2.92,1.45,3.94,2.62,1.01,1.17,1.52,2.83,1.52,4.98.04,1.79-.4,3.38-1.31,4.77-.91,1.39-2.2,2.47-3.85,3.25-1.65.77-3.63,1.16-5.93,1.16Z"/>
      <path class="cls-2" d="M382.37,13.02c0,.46-.56.67-.87.33-1.01-1.13-2.27-2.3-3.37-2.83-1.44-.69-3-1.04-4.67-1.04-2.38,0-4.58.64-6.59,1.91-2.01,1.28-3.61,3.11-4.8,5.49-1.19,2.38-1.79,5.27-1.79,8.66,0,3.05.53,5.8,1.6,8.25,1.07,2.45,2.58,4.37,4.55,5.77,1.97,1.4,4.31,2.1,7.03,2.1,1.55,0,3.04-.3,4.49-.91,1.11-.47,2.48-1.72,3.55-2.93.31-.34.87-.13.87.33v2.88h7.72V0h-7.72v13.02ZM382.15,30.26c-.61,1.34-1.46,2.38-2.57,3.14-1.11.75-2.44,1.13-3.98,1.13s-2.82-.37-3.95-1.1c-1.13-.73-2-1.77-2.6-3.11-.61-1.34-.91-2.93-.91-4.77s.3-3.42.91-4.74c.6-1.32,1.47-2.34,2.6-3.07,1.13-.73,2.45-1.1,3.95-1.1s2.88.37,3.98,1.1c1.11.73,1.97,1.77,2.57,3.11.61,1.34.91,2.91.91,4.71s-.3,3.37-.91,4.71Z"/>
      <path class="cls-2" d="M451.44,23.99c-1.17-.71-2.43-1.28-3.76-1.7-1.34-.42-2.63-.77-3.89-1.07-1.34-.33-2.41-.64-3.23-.91-.82-.27-1.4-.6-1.76-.97-.35-.38-.53-.84-.53-1.38,0-.79.39-1.42,1.16-1.88.77-.46,1.77-.69,2.98-.69,1.38,0,2.69.3,3.92.91.97.48,1.79,1.14,2.47,2,.31.39.89.43,1.28.12l4.06-3.22c-1.17-1.84-2.76-3.25-4.77-4.24-2.01-.98-4.24-1.48-6.71-1.48-4.11,0-7.27,1.16-9.49,3.47-1.48,1.54-2.19,3.62-2.18,5.76,0,1.6.33,2.94.97,4.01.65,1.09,1.5,1.98,2.54,2.67,1.04.69,2.19,1.25,3.45,1.66,1.26.42,2.47.79,3.64,1.13,1.13.29,2.15.6,3.07.91.92.31,1.65.71,2.2,1.19.54.48.82,1.1.82,1.85,0,.92-.43,1.68-1.29,2.29-.86.61-2.06.91-3.61.91-1.97,0-3.61-.49-4.93-1.47-1.01-.75-1.84-1.56-2.49-2.42-.32-.42-.94-.47-1.34-.12l-4.54,3.96c.71.92,1.66,1.88,2.85,2.89,1.19,1,2.64,1.84,4.36,2.51,1.72.67,3.72,1,6.02,1,2.55,0,4.77-.44,6.65-1.32,1.88-.88,3.35-2.1,4.39-3.67,1.04-1.57,1.57-3.38,1.57-5.43,0-1.8-.35-3.28-1.07-4.45-.71-1.17-1.65-2.11-2.82-2.82Z"/>
      <path class="cls-2" d="M421.88,14.1c-1.17-1.44-2.66-2.57-4.46-3.39-1.8-.82-3.91-1.22-6.34-1.22-2.6,0-4.82.47-6.68,1.41-1.86.94-3.38,2.19-4.55,3.73-1.17,1.55-2.05,3.28-2.63,5.21-.59,1.92-.88,3.89-.88,5.9s.29,4.09.88,5.99c.58,1.9,1.49,3.6,2.73,5.08,1.23,1.48,2.81,2.67,4.74,3.54,1.92.88,4.22,1.32,6.9,1.32,1.8,0,3.4-.16,4.8-.47,1.4-.31,2.75-.82,4.05-1.54,1.3-.71,2.68-1.63,4.14-2.76l-3.89-5.27c-1.17,1.05-2.51,1.85-4.02,2.41-1.51.57-3.05.85-4.64.85-2.18,0-3.98-.57-5.43-1.7-1.21-.94-1.98-2.27-2.33-3.97-.11-.54.28-1.05.83-1.05h20.16c.08-.58.14-1.14.16-1.66.02-.52.03-.93.03-1.22,0-2.17-.31-4.22-.91-6.15-.61-1.92-1.5-3.61-2.67-5.05ZM417.4,22.41h-13.34c.13-1.04.45-2.05.97-3.04.52-.98,1.31-1.79,2.35-2.41,1.04-.63,2.34-.94,3.89-.94,1.05,0,1.98.16,2.79.47.82.31,1.52.76,2.1,1.35.59.59,1.05,1.27,1.38,2.04.26.6.42,1.22.48,1.88.03.35-.27.65-.63.65Z"/>
      <path class="cls-2" d="M349.12,11c-1.7-1-3.8-1.51-6.31-1.51-2.17,0-4.16.52-5.96,1.57-1.21.7-2.2,1.73-3.01,3.04v-3.98h-7.78v30.93h6.93c.47,0,.85-.38.85-.85v-17.86c0-1.93.56-3.42,1.68-4.48,1.12-1.06,2.72-1.59,4.82-1.59.03,0,.05,0,.08,0,.03,0,.05,0,.07,0,.44,0,.85.04,1.23.09,0,0,.01,0,.02,0,.35.05.67.13.97.22.21.06.41.14.61.22,0,0,.01,0,.02,0,.57.24,1.07.54,1.48.94,1.01.99,1.51,2.46,1.51,4.42v18.88h6.93c.47,0,.85-.38.85-.85v-18.48c0-2.47-.41-4.62-1.22-6.46-.82-1.84-2.07-3.26-3.76-4.27Z"/>
      <path class="cls-2" d="M275.91,10.97v17.86c0,1.93-.56,3.42-1.68,4.48-1.12,1.06-2.72,1.59-4.82,1.59-.03,0-.05,0-.08,0-.03,0-.05,0-.07,0-.44,0-.85-.04-1.23-.09,0,0-.01,0-.02,0-.35-.05-.67-.13-.97-.22-.21-.06-.41-.14-.61-.22,0,0-.01,0-.02,0-.57-.24-1.07-.54-1.48-.94-1.01-.99-1.51-2.46-1.51-4.42V10.12h-6.93c-.47,0-.85.38-.85.85v18.48c0,2.47.41,4.62,1.22,6.46.82,1.84,2.07,3.26,3.76,4.27,1.7,1,3.8,1.51,6.31,1.51,2.17,0,4.16-.52,5.96-1.57.85-.49,1.59-1.15,2.24-1.95.26-.32.77-.15.77.26v2.63s7.78,0,7.78,0V10.12h-6.93c-.47,0-.85.38-.85.85Z"/>
      <path class="cls-2" d="M310.91,10.32c-.69-.23-1.43-.4-2.21-.53-.26-.04-.54-.07-.8-.1-.88-.12-1.78-.19-2.76-.19-2.63,0-5.09.39-7.37,1.16-2.05.7-4.06,1.79-6.02,3.28-.37.28-.44.81-.16,1.19l3.46,4.66c1.3-1.17,2.79-2.08,4.49-2.73,1.69-.65,3.36-.97,4.99-.97,1.32,0,2.44.22,3.39.63.28.12.55.26.8.41.16.1.34.19.48.3,1.15.9,1.73,2.27,1.73,4.11v.75h-8.91c-1.47,0-2.83.13-4.11.38-1.28.25-2.44.69-3.48,1.32-1.21.67-2.19,1.64-2.92,2.92-.73,1.28-1.1,2.81-1.1,4.61,0,2.01.51,3.79,1.54,5.33,1.02,1.55,2.43,2.74,4.2,3.58,1.78.84,3.8,1.26,6.05,1.26,1.7,0,3.31-.36,4.82-1.08l.03-.04v-4.63c0-.29-.23-.52-.52-.52h-3.19c-1.46,0-2.65-.32-3.55-.95-1.08-.77-1.67-2.1-1.5-3.42.04-.36.14-.69.28-1,.21-.44.52-.8.94-1.1.46-.38,1.01-.62,1.66-.72.65-.1,1.31-.16,1.98-.16h6.66c.62,0,1.12.5,1.12,1.12v11.87h7.78v-19.51c0-3.76-1.19-6.71-3.58-8.85-1.17-1.05-2.58-1.84-4.2-2.37Z"/>
      <path class="cls-1" d="M223.27,44.29v-8.8c0-.66.32-1.29.86-1.68l11.75-8.53-11.75-8.53c-.54-.4-.86-1.02-.86-1.69V6.26l17.44,12.66c4.35,3.16,4.35,9.56,0,12.71l-17.44,12.66Z"/>
    </g>
  </g>
</svg>