<?xml version="1.0" encoding="UTF-8"?>
<svg id="Capa_2" data-name="Capa 2" xmlns="http://www.w3.org/2000/svg" viewBox="0 0 425.72 46.2">
  <defs>
    <style>
      .cls-1 {
        fill: #243746;
      }
    </style>
  </defs>
  <g id="Capa_1-2" data-name="Capa 1">
    <g id="cultura_uandes">
      <g>
        <path class="cls-1" d="M14.5,43.67c-2.74,0-5.21-.66-7.4-1.97-2.19-1.31-3.92-3.15-5.19-5.52-1.27-2.36-1.91-5.08-1.91-8.14,0-3.26.64-6.06,1.91-8.41,1.27-2.35,3.01-4.18,5.22-5.49s4.66-1.97,7.37-1.97c3.58,0,6.53.9,8.86,2.71,2.33,1.81,3.79,4.21,4.38,7.19h-4.18c-.44-2.03-1.48-3.59-3.13-4.68-1.65-1.09-3.63-1.64-5.94-1.64-1.79,0-3.47.46-5.04,1.37-1.57.91-2.83,2.26-3.76,4.03-.94,1.77-1.4,4.05-1.4,6.83,0,1.99.28,3.75.83,5.28.56,1.53,1.31,2.8,2.27,3.82.95,1.01,2.05,1.78,3.28,2.3,1.23.52,2.51.78,3.82.78,1.47,0,2.85-.26,4.14-.78,1.29-.52,2.37-1.24,3.22-2.18.86-.93,1.42-2.08,1.7-3.43h4.18c-.6,2.9-2.07,5.28-4.41,7.13-2.35,1.85-5.29,2.77-8.83,2.77Z"/>
        <path class="cls-1" d="M45.75,43.67c-2.27,0-4.26-.45-5.97-1.34-1.71-.89-3.04-2.28-4-4.14-.96-1.87-1.43-4.24-1.43-7.1V12.89h4.18v17.72c0,3.22.7,5.6,2.09,7.13,1.39,1.53,3.36,2.3,5.9,2.3,1.79,0,3.38-.43,4.77-1.28,1.39-.85,2.49-2.09,3.31-3.7s1.22-3.61,1.22-6V12.89h4.18v30.06h-3.76l-.3-5.37c-.91,1.91-2.28,3.4-4.09,4.47-1.81,1.07-3.85,1.61-6.11,1.61Z"/>
        <path class="cls-1" d="M68.54,42.95V0h4.17v42.95h-4.17Z"/>
        <path class="cls-1" d="M92.52,42.95c-1.71,0-3.18-.27-4.42-.81s-2.18-1.44-2.83-2.71c-.65-1.27-.98-2.98-.98-5.13v-17.84h-5.25v-3.58h5.25l.6-7.04h3.58v7.04h8.95v3.58h-8.95v17.84c0,1.99.41,3.33,1.22,4.03.81.7,2.22,1.04,4.21,1.04h3.1v3.58h-4.47Z"/>
        <path class="cls-1" d="M114.83,43.67c-2.27,0-4.26-.45-5.97-1.34-1.71-.89-3.04-2.28-4-4.14-.96-1.87-1.43-4.24-1.43-7.1V12.89h4.18v17.72c0,3.22.7,5.6,2.09,7.13,1.39,1.53,3.36,2.3,5.9,2.3,1.79,0,3.38-.43,4.77-1.28,1.39-.85,2.49-2.09,3.31-3.7s1.22-3.61,1.22-6V12.89h4.18v30.06h-3.76l-.3-5.37c-.91,1.91-2.28,3.4-4.09,4.47-1.81,1.07-3.85,1.61-6.11,1.61Z"/>
        <path class="cls-1" d="M137.62,42.95V12.89h3.76l.3,5.79c.64-1.39,1.49-2.56,2.57-3.52,1.07-.95,2.36-1.69,3.88-2.21,1.51-.52,3.24-.78,5.19-.78v4.36h-1.67c-1.27,0-2.51.17-3.7.51-1.19.34-2.25.91-3.16,1.7s-1.64,1.87-2.18,3.22c-.54,1.35-.81,3.04-.81,5.07v15.93h-4.17Z"/>
        <path class="cls-1" d="M168.7,43.67c-2.43,0-4.44-.44-6.06-1.31-1.61-.87-2.81-2.01-3.61-3.4-.8-1.39-1.19-2.92-1.19-4.59,0-2.07.53-3.82,1.58-5.25,1.05-1.43,2.55-2.51,4.48-3.22,1.93-.72,4.17-1.07,6.71-1.07h8.11c0-1.95-.3-3.6-.9-4.95-.6-1.35-1.46-2.37-2.6-3.07-1.13-.7-2.59-1.04-4.38-1.04-2.07,0-3.83.52-5.28,1.55-1.45,1.03-2.36,2.56-2.71,4.59h-4.41c.28-2.15,1.02-3.94,2.24-5.37,1.21-1.43,2.72-2.52,4.53-3.25,1.81-.74,3.69-1.1,5.64-1.1,2.78,0,5.06.53,6.83,1.58,1.77,1.05,3.08,2.49,3.94,4.32.85,1.83,1.28,3.96,1.28,6.38v18.49h-3.82l-.18-5.49c-.4.83-.9,1.63-1.52,2.39s-1.33,1.41-2.15,1.97c-.82.56-1.76,1.01-2.83,1.34-1.07.34-2.31.51-3.7.51ZM169.17,40.03c1.47,0,2.79-.3,3.97-.89,1.17-.6,2.17-1.41,2.98-2.45.81-1.03,1.45-2.17,1.91-3.4.46-1.23.69-2.53.69-3.88v-1.13h-7.82c-2.11,0-3.8.26-5.07.78s-2.2,1.22-2.77,2.12-.86,1.92-.86,3.07.27,2.16.81,3.01c.53.85,1.33,1.53,2.39,2.03,1.05.5,2.32.75,3.79.75Z"/>
      </g>
      <g>
        <path class="cls-1" d="M353.03,14.92c0,.46-.56.67-.87.33-1.01-1.14-2.27-2.3-3.37-2.83-1.44-.69-3-1.04-4.68-1.04-2.38,0-4.58.64-6.59,1.91-2.01,1.28-3.61,3.11-4.8,5.49-1.19,2.38-1.79,5.27-1.79,8.66,0,3.06.53,5.81,1.6,8.26,1.07,2.45,2.58,4.37,4.55,5.77,1.97,1.4,4.31,2.1,7.03,2.1,1.55,0,3.04-.3,4.49-.91,1.11-.47,2.48-1.72,3.55-2.93.31-.34.87-.13.87.33v2.88h7.72V1.89h-7.72v13.03ZM352.81,32.16c-.61,1.34-1.47,2.39-2.57,3.14-1.11.75-2.44,1.13-3.99,1.13s-2.82-.37-3.95-1.1c-1.13-.73-2-1.77-2.6-3.11-.61-1.34-.91-2.93-.91-4.77s.3-3.42.91-4.74c.61-1.32,1.47-2.34,2.6-3.08,1.13-.73,2.45-1.1,3.95-1.1s2.88.37,3.99,1.1c1.11.73,1.97,1.77,2.57,3.11.61,1.34.91,2.91.91,4.71s-.3,3.37-.91,4.71Z"/>
        <path class="cls-1" d="M421.83,25.89c-1.17-.71-2.43-1.28-3.77-1.7-1.34-.42-2.64-.77-3.89-1.07-1.34-.33-2.42-.64-3.23-.91-.82-.27-1.4-.6-1.76-.97-.36-.38-.53-.84-.53-1.38,0-.8.39-1.42,1.16-1.88.77-.46,1.77-.69,2.98-.69,1.38,0,2.69.3,3.92.91.97.48,1.8,1.15,2.47,2,.31.39.89.43,1.28.12l4.06-3.22c-1.17-1.84-2.76-3.25-4.77-4.24-2.01-.98-4.25-1.48-6.72-1.48-4.11,0-7.27,1.16-9.5,3.47-1.48,1.54-2.19,3.62-2.18,5.76,0,1.6.33,2.94.97,4.01.65,1.09,1.5,1.98,2.54,2.67,1.05.69,2.2,1.25,3.45,1.66,1.26.42,2.47.8,3.64,1.13,1.13.29,2.16.6,3.08.91.92.31,1.65.71,2.2,1.19.54.48.82,1.1.82,1.85,0,.92-.43,1.69-1.29,2.29-.86.61-2.06.91-3.61.91-1.97,0-3.61-.49-4.93-1.47-1.01-.75-1.84-1.56-2.49-2.42-.32-.42-.94-.47-1.34-.12l-4.55,3.96c.71.92,1.66,1.88,2.86,2.89,1.19,1,2.65,1.84,4.36,2.51,1.72.67,3.73,1,6.03,1,2.55,0,4.77-.44,6.65-1.32,1.88-.88,3.35-2.1,4.39-3.67,1.05-1.57,1.57-3.38,1.57-5.43,0-1.8-.36-3.29-1.07-4.46-.71-1.17-1.65-2.11-2.82-2.82Z"/>
        <path class="cls-1" d="M392.52,16c-1.17-1.44-2.66-2.57-4.46-3.39-1.8-.82-3.91-1.22-6.34-1.22-2.6,0-4.82.47-6.69,1.41-1.86.94-3.38,2.19-4.55,3.73-1.17,1.55-2.05,3.29-2.64,5.21-.59,1.93-.88,3.89-.88,5.9s.29,4.09.88,5.99c.58,1.91,1.49,3.6,2.73,5.09,1.23,1.49,2.81,2.67,4.74,3.55,1.92.88,4.23,1.32,6.91,1.32,1.8,0,3.4-.16,4.8-.47,1.4-.31,2.75-.83,4.05-1.54,1.3-.71,2.68-1.63,4.14-2.76l-3.89-5.27c-1.17,1.05-2.51,1.85-4.02,2.42-1.51.57-3.06.85-4.64.85-2.18,0-3.99-.57-5.43-1.7-1.21-.94-1.98-2.27-2.33-3.98-.11-.54.28-1.05.83-1.05h20.17c.08-.58.14-1.14.16-1.66.02-.52.03-.93.03-1.22,0-2.18-.31-4.23-.91-6.15-.61-1.93-1.5-3.61-2.67-5.05ZM388.03,24.31h-13.35c.13-1.04.45-2.06.97-3.04.52-.98,1.31-1.79,2.35-2.42,1.05-.63,2.34-.94,3.89-.94,1.05,0,1.98.16,2.79.47.82.31,1.52.76,2.1,1.35.59.59,1.05,1.27,1.38,2.04.26.6.42,1.23.48,1.88.03.35-.27.65-.63.65Z"/>
        <path class="cls-1" d="M320.04,12.89c-1.7-1-3.8-1.51-6.31-1.51-2.18,0-4.16.52-5.96,1.57-1.21.7-2.2,1.73-3.01,3.04v-3.98h-7.78v30.95h6.94c.47,0,.85-.38.85-.85v-17.87c0-1.93.56-3.42,1.68-4.49,1.12-1.06,2.72-1.59,4.82-1.59.03,0,.05,0,.08,0,.03,0,.05,0,.07,0,.44,0,.85.04,1.24.09,0,0,.01,0,.02,0,.35.05.67.13.97.22.21.06.41.14.61.22,0,0,.01,0,.02,0,.57.24,1.07.54,1.48.94,1.01.99,1.51,2.47,1.51,4.42v18.89h6.94c.47,0,.85-.38.85-.85v-18.49c0-2.47-.41-4.62-1.22-6.46-.82-1.84-2.07-3.26-3.77-4.27Z"/>
        <path class="cls-1" d="M247.2,12.86v17.87c0,1.93-.56,3.42-1.68,4.49-1.12,1.06-2.72,1.59-4.82,1.59-.03,0-.05,0-.08,0-.03,0-.05,0-.07,0-.44,0-.85-.04-1.24-.09,0,0-.01,0-.02,0-.35-.05-.67-.13-.97-.22-.21-.06-.41-.14-.61-.22,0,0-.01,0-.02,0-.57-.24-1.07-.54-1.48-.94-1.01-.99-1.51-2.47-1.51-4.42V12.01h-6.94c-.47,0-.85.38-.85.85v18.49c0,2.47.41,4.62,1.22,6.46.82,1.84,2.07,3.26,3.77,4.27,1.7,1,3.8,1.51,6.31,1.51,2.18,0,4.16-.52,5.96-1.57.85-.49,1.59-1.15,2.24-1.95.26-.32.77-.15.77.26v2.63s7.78,0,7.78,0V12.01h-6.94c-.47,0-.85.38-.85.85Z"/>
        <path class="cls-1" d="M281.91,12.21c-.69-.23-1.44-.4-2.21-.53-.26-.04-.54-.07-.8-.1-.88-.12-1.78-.19-2.76-.19-2.64,0-5.09.39-7.38,1.16-2.05.7-4.06,1.79-6.03,3.28-.37.28-.44.81-.16,1.19l3.46,4.67c1.3-1.17,2.79-2.08,4.49-2.73,1.69-.65,3.36-.97,4.99-.97,1.32,0,2.44.22,3.39.63.28.12.55.26.8.41.16.1.34.19.48.3,1.15.9,1.73,2.27,1.73,4.11v.75h-8.91c-1.47,0-2.84.13-4.11.38-1.28.25-2.44.69-3.48,1.32-1.21.67-2.19,1.64-2.92,2.92-.73,1.28-1.1,2.81-1.1,4.61,0,2.01.51,3.79,1.54,5.34,1.02,1.55,2.43,2.74,4.21,3.58,1.78.84,3.8,1.26,6.06,1.26,1.7,0,3.31-.36,4.82-1.08l.03-.04v-4.63c0-.29-.23-.52-.52-.52h-3.19c-1.46,0-2.65-.32-3.55-.96-1.08-.77-1.67-2.1-1.51-3.42.04-.36.14-.69.28-1,.21-.44.52-.8.94-1.1.46-.38,1.01-.62,1.66-.72.65-.1,1.31-.16,1.98-.16h6.67c.62,0,1.12.5,1.12,1.12v11.88h7.78v-19.52c0-3.77-1.19-6.72-3.58-8.85-1.17-1.05-2.58-1.84-4.2-2.37Z"/>
        <path class="cls-1" d="M194.53,46.2v-8.81c0-.66.32-1.29.86-1.68l11.76-8.53-11.76-8.53c-.54-.4-.86-1.02-.86-1.69v-8.8l17.45,12.66c4.35,3.16,4.35,9.56,0,12.72l-17.45,12.66Z"/>
      </g>
    </g>
  </g>
</svg>