<?xml version="1.0" encoding="UTF-8"?>
<svg id="Capa_2" data-name="Capa 2" xmlns="http://www.w3.org/2000/svg" viewBox="0 0 543.02 45.27">
  <defs>
    <style>
      .cls-1 {
        fill: #243746;
      }
    </style>
  </defs>
  <g id="Capa_1-2" data-name="Capa 1">
    <g id="doctorados_uandes">
      <g>
        <g>
          <path class="cls-1" d="M14.21,42.81c-2.89,0-5.39-.67-7.51-2.02-2.13-1.35-3.77-3.19-4.94-5.53-1.17-2.34-1.75-4.99-1.75-7.95s.58-5.61,1.75-7.92c1.17-2.32,2.83-4.14,4.97-5.47,2.14-1.33,4.66-1.99,7.54-1.99,2.46,0,4.63.54,6.52,1.61,1.89,1.07,3.34,2.58,4.36,4.53V0h4.09v42.11h-3.74l-.35-5.32c-.59,1.01-1.38,1.99-2.4,2.92-1.01.94-2.23,1.69-3.66,2.25-1.42.56-3.05.85-4.88.85ZM14.5,39.24c2.07,0,3.87-.5,5.41-1.49,1.54-.99,2.76-2.38,3.66-4.15.9-1.77,1.34-3.85,1.34-6.23s-.45-4.46-1.34-6.26c-.9-1.79-2.12-3.18-3.66-4.15-1.54-.97-3.34-1.46-5.41-1.46s-3.77.49-5.35,1.46c-1.58.98-2.81,2.35-3.68,4.12-.88,1.77-1.32,3.87-1.32,6.29s.45,4.51,1.34,6.29c.9,1.78,2.12,3.15,3.68,4.12,1.56.97,3.33,1.46,5.32,1.46Z"/>
          <path class="cls-1" d="M50.53,42.81c-2.69,0-5.12-.63-7.28-1.9s-3.87-3.06-5.12-5.38c-1.25-2.32-1.87-5.02-1.87-8.1s.63-5.94,1.9-8.25c1.27-2.3,2.99-4.08,5.18-5.35,2.18-1.27,4.62-1.9,7.31-1.9s5.28.63,7.43,1.9c2.14,1.27,3.84,3.05,5.09,5.35,1.25,2.3,1.87,5.05,1.87,8.25s-.63,5.78-1.9,8.1c-1.27,2.32-2.98,4.11-5.15,5.38-2.16,1.27-4.65,1.9-7.46,1.9ZM50.58,39.3c1.83,0,3.52-.45,5.06-1.35,1.54-.9,2.79-2.23,3.74-4.01.95-1.77,1.43-3.97,1.43-6.58s-.47-4.85-1.4-6.61c-.94-1.75-2.17-3.07-3.71-3.95-1.54-.88-3.23-1.32-5.06-1.32s-3.41.45-4.97,1.34c-1.56.9-2.82,2.21-3.77,3.95-.96,1.74-1.43,3.93-1.43,6.58s.47,4.81,1.4,6.58c.94,1.78,2.17,3.11,3.71,4.01s3.21,1.35,5,1.35Z"/>
          <path class="cls-1" d="M85.03,42.81c-2.69,0-5.12-.64-7.28-1.93-2.16-1.29-3.87-3.09-5.12-5.41-1.25-2.32-1.87-5-1.87-8.04s.62-5.88,1.87-8.16c1.25-2.28,2.95-4.07,5.12-5.38,2.16-1.31,4.59-1.96,7.28-1.96,3.43,0,6.29.89,8.57,2.66,2.28,1.78,3.73,4.12,4.36,7.05h-4.09c-.43-1.95-1.45-3.46-3.07-4.53-1.62-1.07-3.54-1.61-5.76-1.61-1.79,0-3.45.44-4.97,1.32-1.52.88-2.75,2.19-3.68,3.95-.94,1.76-1.4,3.98-1.4,6.67,0,1.99.27,3.72.82,5.21s1.3,2.72,2.25,3.71c.95.99,2.03,1.75,3.22,2.25,1.19.51,2.45.76,3.77.76,1.44,0,2.78-.24,4.01-.73,1.23-.49,2.27-1.2,3.13-2.13s1.42-2.07,1.7-3.39h4.09c-.58,2.85-2.03,5.18-4.33,6.99-2.3,1.81-5.17,2.72-8.6,2.72Z"/>
          <path class="cls-1" d="M115.21,42.11c-1.68,0-3.12-.26-4.33-.79-1.21-.53-2.13-1.4-2.78-2.63s-.96-2.91-.96-5.06v-17.49h-5.15v-3.51h5.15l.59-6.84h3.51v6.9h8.83v3.45h-8.83v17.49c0,1.95.39,3.27,1.17,3.95.78.68,2.16,1.02,4.15,1.02h3.04v3.51h-4.39Z"/>
          <path class="cls-1" d="M138.6,42.81c-2.69,0-5.12-.63-7.28-1.9s-3.87-3.06-5.12-5.38c-1.25-2.32-1.87-5.02-1.87-8.1s.63-5.94,1.9-8.25c1.27-2.3,2.99-4.08,5.18-5.35,2.18-1.27,4.62-1.9,7.31-1.9s5.28.63,7.43,1.9c2.14,1.27,3.84,3.05,5.09,5.35,1.25,2.3,1.87,5.05,1.87,8.25s-.63,5.78-1.9,8.1c-1.27,2.32-2.98,4.11-5.15,5.38-2.16,1.27-4.65,1.9-7.46,1.9ZM138.66,39.3c1.83,0,3.52-.45,5.06-1.35,1.54-.9,2.79-2.23,3.74-4.01.95-1.77,1.43-3.97,1.43-6.58s-.47-4.85-1.4-6.61c-.94-1.75-2.17-3.07-3.71-3.95-1.54-.88-3.23-1.32-5.06-1.32s-3.41.45-4.97,1.34c-1.56.9-2.82,2.21-3.77,3.95-.96,1.74-1.43,3.93-1.43,6.58s.47,4.81,1.4,6.58c.94,1.78,2.17,3.11,3.71,4.01s3.21,1.35,5,1.35Z"/>
          <path class="cls-1" d="M160.12,42.11V12.63h3.74l.29,5.67c.62-1.36,1.46-2.51,2.52-3.45,1.05-.94,2.32-1.66,3.8-2.16,1.48-.51,3.16-.76,5.03-.76v4.27h-1.58c-1.25,0-2.46.17-3.63.5-1.17.33-2.2.89-3.1,1.67s-1.62,1.83-2.16,3.16c-.55,1.33-.82,2.98-.82,4.97v15.61h-4.09Z"/>
          <path class="cls-1" d="M190.64,42.81c-2.38,0-4.36-.43-5.94-1.29s-2.75-1.97-3.51-3.33c-.76-1.36-1.14-2.87-1.14-4.5,0-2.03.52-3.74,1.55-5.14,1.03-1.4,2.5-2.46,4.39-3.16,1.89-.7,4.06-1.05,6.52-1.05h7.95c0-1.91-.29-3.53-.88-4.85-.58-1.33-1.43-2.33-2.54-3.01-1.11-.68-2.52-1.02-4.24-1.02-2.03,0-3.76.51-5.2,1.52-1.44,1.01-2.34,2.5-2.69,4.44h-4.27c.23-2.07.94-3.8,2.13-5.2,1.19-1.4,2.67-2.47,4.44-3.19,1.77-.72,3.63-1.08,5.58-1.08,2.69,0,4.9.52,6.64,1.55,1.73,1.03,3.02,2.45,3.86,4.24.84,1.79,1.26,3.86,1.26,6.2v18.19h-3.74l-.18-5.38c-.39.82-.89,1.6-1.49,2.34-.6.74-1.31,1.38-2.11,1.93-.8.55-1.73.99-2.78,1.32-1.05.33-2.26.5-3.63.5ZM191.11,39.18c1.48,0,2.79-.29,3.92-.88,1.13-.58,2.11-1.36,2.92-2.34.82-.97,1.44-2.08,1.87-3.33.43-1.25.64-2.51.64-3.8v-1.05h-7.66c-2.07,0-3.72.25-4.97.76-1.25.51-2.14,1.19-2.69,2.05-.55.86-.82,1.85-.82,2.98s.26,2.11.79,2.95c.53.84,1.3,1.49,2.31,1.96,1.01.47,2.24.7,3.68.7Z"/>
          <path class="cls-1" d="M225.21,42.81c-2.89,0-5.39-.67-7.51-2.02-2.13-1.35-3.77-3.19-4.94-5.53-1.17-2.34-1.75-4.99-1.75-7.95s.58-5.61,1.75-7.92,2.83-4.14,4.97-5.47c2.14-1.33,4.66-1.99,7.54-1.99,2.46,0,4.63.54,6.52,1.61,1.89,1.07,3.34,2.58,4.36,4.53V0h4.09v42.11h-3.74l-.35-5.32c-.59,1.01-1.38,1.99-2.4,2.92-1.01.94-2.23,1.69-3.66,2.25-1.42.56-3.05.85-4.88.85ZM225.5,39.24c2.07,0,3.87-.5,5.41-1.49,1.54-.99,2.76-2.38,3.66-4.15.9-1.77,1.34-3.85,1.34-6.23s-.45-4.46-1.34-6.26c-.9-1.79-2.12-3.18-3.66-4.15-1.54-.97-3.34-1.46-5.41-1.46s-3.77.49-5.35,1.46c-1.58.98-2.81,2.35-3.68,4.12-.88,1.77-1.32,3.87-1.32,6.29s.45,4.51,1.34,6.29c.9,1.78,2.12,3.15,3.68,4.12,1.56.97,3.33,1.46,5.32,1.46Z"/>
          <path class="cls-1" d="M261.52,42.81c-2.69,0-5.12-.63-7.28-1.9s-3.87-3.06-5.12-5.38c-1.25-2.32-1.87-5.02-1.87-8.1s.63-5.94,1.9-8.25c1.27-2.3,2.99-4.08,5.18-5.35,2.18-1.27,4.62-1.9,7.31-1.9s5.28.63,7.43,1.9c2.14,1.27,3.84,3.05,5.09,5.35,1.25,2.3,1.87,5.05,1.87,8.25s-.63,5.78-1.9,8.1c-1.27,2.32-2.98,4.11-5.15,5.38-2.16,1.27-4.65,1.9-7.46,1.9ZM261.58,39.3c1.83,0,3.52-.45,5.06-1.35,1.54-.9,2.79-2.23,3.74-4.01.95-1.77,1.43-3.97,1.43-6.58s-.47-4.85-1.4-6.61c-.94-1.75-2.17-3.07-3.71-3.95-1.54-.88-3.23-1.32-5.06-1.32s-3.41.45-4.97,1.34c-1.56.9-2.82,2.21-3.77,3.95-.96,1.74-1.43,3.93-1.43,6.58s.47,4.81,1.4,6.58c.94,1.78,2.17,3.11,3.71,4.01s3.21,1.35,5,1.35Z"/>
          <path class="cls-1" d="M293.86,42.81c-2.34,0-4.4-.39-6.17-1.17-1.77-.78-3.2-1.9-4.27-3.36-1.07-1.46-1.73-3.21-1.96-5.23h4.27c.19,1.13.63,2.16,1.32,3.1.68.94,1.61,1.68,2.78,2.22,1.17.55,2.55.82,4.15.82,1.48,0,2.7-.21,3.66-.64.95-.43,1.68-1.02,2.16-1.78.49-.76.73-1.61.73-2.54,0-1.29-.3-2.29-.91-3.01-.61-.72-1.47-1.26-2.6-1.61-1.13-.35-2.5-.68-4.09-.99-1.33-.24-2.58-.55-3.77-.94-1.19-.39-2.26-.9-3.22-1.52-.96-.62-1.72-1.41-2.28-2.37-.57-.95-.85-2.08-.85-3.36,0-1.67.42-3.15,1.26-4.41s2.04-2.26,3.6-2.98c1.56-.72,3.39-1.08,5.5-1.08,3,0,5.46.75,7.37,2.25,1.91,1.5,3.02,3.7,3.33,6.58h-4.09c-.16-1.6-.82-2.87-1.99-3.8s-2.75-1.4-4.74-1.4-3.44.4-4.47,1.2c-1.03.8-1.55,1.88-1.55,3.25,0,.86.27,1.6.82,2.22.55.62,1.35,1.16,2.43,1.61s2.39.83,3.95,1.14c1.87.35,3.6.81,5.18,1.37,1.58.57,2.87,1.42,3.86,2.57.99,1.15,1.49,2.78,1.49,4.88.04,1.76-.39,3.31-1.29,4.68-.9,1.37-2.15,2.43-3.77,3.19-1.62.76-3.56,1.14-5.82,1.14Z"/>
        </g>
        <path class="cls-1" d="M471.76,14.6c0,.45-.55.66-.85.33-.99-1.11-2.23-2.26-3.3-2.77-1.41-.68-2.94-1.02-4.58-1.02-2.34,0-4.49.63-6.46,1.88-1.97,1.25-3.54,3.05-4.71,5.39-1.17,2.34-1.75,5.17-1.75,8.49,0,3,.52,5.69,1.57,8.09,1.05,2.4,2.53,4.29,4.46,5.66,1.93,1.37,4.23,2.06,6.89,2.06,1.52,0,2.98-.3,4.4-.89,1.09-.46,2.43-1.69,3.48-2.87.3-.34.85-.13.85.32v2.83h7.57V1.83h-7.57v12.77ZM471.54,31.51c-.59,1.31-1.44,2.34-2.52,3.08-1.09.74-2.39,1.11-3.91,1.11s-2.77-.36-3.88-1.08c-1.11-.72-1.96-1.73-2.55-3.05-.6-1.31-.89-2.87-.89-4.68s.3-3.35.89-4.65c.59-1.29,1.45-2.3,2.55-3.02,1.11-.72,2.4-1.08,3.88-1.08s2.82.36,3.91,1.08c1.09.72,1.93,1.73,2.52,3.05.59,1.31.89,2.85.89,4.62s-.3,3.3-.89,4.62Z"/>
        <path class="cls-1" d="M539.2,25.36c-1.15-.7-2.38-1.25-3.69-1.66-1.31-.41-2.58-.76-3.82-1.05-1.31-.33-2.37-.62-3.17-.89-.8-.27-1.37-.58-1.72-.95-.35-.37-.52-.82-.52-1.35,0-.78.38-1.39,1.14-1.85.76-.45,1.73-.68,2.92-.68,1.35,0,2.64.3,3.85.89.95.47,1.76,1.12,2.42,1.96.3.38.87.42,1.26.12l3.98-3.15c-1.15-1.81-2.71-3.19-4.68-4.15-1.97-.96-4.16-1.45-6.58-1.45-4.03,0-7.13,1.14-9.31,3.4-1.45,1.51-2.15,3.55-2.14,5.65,0,1.57.33,2.88.95,3.93.64,1.07,1.47,1.94,2.49,2.62,1.02.68,2.15,1.22,3.38,1.63,1.23.41,2.42.78,3.57,1.11,1.11.29,2.11.59,3.02.89.9.31,1.62.7,2.15,1.17.53.47.8,1.08.8,1.82,0,.9-.42,1.65-1.26,2.25-.84.59-2.02.89-3.54.89-1.93,0-3.54-.48-4.83-1.45-.99-.74-1.8-1.53-2.44-2.38-.31-.42-.92-.46-1.31-.12l-4.46,3.88c.7.9,1.63,1.85,2.8,2.83,1.17.98,2.59,1.81,4.28,2.46,1.68.66,3.65.98,5.91.98,2.5,0,4.68-.43,6.52-1.29,1.85-.86,3.28-2.06,4.31-3.6,1.02-1.54,1.54-3.31,1.54-5.32,0-1.76-.35-3.22-1.05-4.37-.7-1.15-1.62-2.07-2.77-2.77Z"/>
        <path class="cls-1" d="M510.47,15.66c-1.15-1.42-2.61-2.52-4.37-3.32-1.76-.8-3.84-1.2-6.21-1.2-2.55,0-4.73.46-6.56,1.39-1.83.92-3.31,2.14-4.46,3.66-1.15,1.52-2.01,3.22-2.58,5.11-.57,1.89-.86,3.82-.86,5.78s.29,4.01.86,5.88c.57,1.87,1.47,3.53,2.68,4.99,1.21,1.46,2.76,2.61,4.65,3.48,1.89.86,4.14,1.29,6.77,1.29,1.76,0,3.33-.15,4.71-.46,1.37-.31,2.7-.81,3.97-1.51,1.27-.7,2.63-1.6,4.06-2.71l-3.82-5.17c-1.15,1.03-2.46,1.82-3.94,2.37-1.48.55-3,.83-4.55.83-2.13,0-3.91-.55-5.32-1.66-1.18-.93-1.94-2.22-2.28-3.9-.11-.53.28-1.03.81-1.03h19.78c.08-.57.13-1.12.15-1.63.02-.51.03-.91.03-1.2,0-2.13-.3-4.14-.89-6.03-.59-1.89-1.47-3.54-2.62-4.95ZM506.07,23.81h-13.08c.12-1.02.44-2.01.95-2.98.51-.96,1.28-1.75,2.31-2.37,1.02-.62,2.3-.92,3.82-.92,1.03,0,1.94.15,2.74.46.8.31,1.49.75,2.06,1.32.57.57,1.03,1.24,1.35,2,.25.59.41,1.2.47,1.85.03.35-.27.64-.61.64Z"/>
        <path class="cls-1" d="M439.42,12.62c-1.66-.98-3.72-1.48-6.19-1.48-2.13,0-4.08.51-5.85,1.54-1.18.69-2.16,1.7-2.95,2.98v-3.9h-7.63v30.34h6.8c.46,0,.83-.37.83-.83v-17.52c0-1.89.55-3.36,1.64-4.4,1.1-1.04,2.67-1.56,4.73-1.56.03,0,.05,0,.08,0,.02,0,.05,0,.07,0,.43,0,.83.04,1.21.09,0,0,.01,0,.02,0,.34.05.65.12.95.22.21.06.4.14.6.22,0,0,.01,0,.02,0,.55.23,1.05.53,1.45.92.99.97,1.48,2.42,1.48,4.34v18.51h6.8c.46,0,.83-.37.83-.83v-18.12c0-2.42-.4-4.53-1.2-6.34-.8-1.81-2.03-3.2-3.69-4.19Z"/>
        <path class="cls-1" d="M368,12.59v17.52c0,1.89-.55,3.36-1.64,4.4-1.1,1.04-2.67,1.56-4.73,1.56-.03,0-.05,0-.08,0-.02,0-.05,0-.07,0-.43,0-.83-.04-1.21-.09,0,0-.01,0-.02,0-.34-.05-.65-.12-.95-.22-.21-.06-.4-.14-.6-.22,0,0-.01,0-.02,0-.55-.23-1.05-.53-1.45-.92-.99-.97-1.48-2.42-1.48-4.34V11.76h-6.8c-.46,0-.83.37-.83.83v18.12c0,2.42.4,4.53,1.2,6.34.8,1.81,2.03,3.2,3.69,4.19,1.66.98,3.72,1.48,6.19,1.48,2.13,0,4.08-.51,5.85-1.54.83-.48,1.56-1.13,2.2-1.91.25-.31.76-.15.76.26v2.58s7.63,0,7.63,0V11.76h-6.8c-.46,0-.83.37-.83.83Z"/>
        <path class="cls-1" d="M402.04,11.95c-.68-.22-1.41-.39-2.17-.52-.25-.04-.53-.07-.79-.1-.86-.11-1.75-.19-2.71-.19-2.58,0-4.99.38-7.23,1.14-2.01.68-3.98,1.75-5.91,3.22-.36.27-.43.8-.16,1.16l3.39,4.57c1.27-1.15,2.74-2.04,4.4-2.68,1.66-.64,3.29-.95,4.89-.95,1.29,0,2.39.21,3.32.62.28.12.54.25.79.41.16.1.33.18.47.3,1.13.88,1.69,2.23,1.69,4.03v.74h-8.74c-1.44,0-2.78.12-4.03.37-1.25.25-2.39.68-3.42,1.29-1.19.66-2.14,1.61-2.86,2.86-.72,1.25-1.08,2.76-1.08,4.52,0,1.97.5,3.71,1.51,5.23,1,1.52,2.38,2.69,4.12,3.51,1.74.82,3.72,1.23,5.94,1.23,1.67,0,3.24-.35,4.72-1.06l.03-.04v-4.54c0-.28-.23-.51-.51-.51h-3.13c-1.44,0-2.6-.31-3.48-.94-1.06-.75-1.64-2.06-1.48-3.35.04-.35.14-.68.28-.98.21-.43.51-.79.92-1.08.45-.37.99-.61,1.63-.71.64-.1,1.28-.15,1.94-.15h6.53c.61,0,1.1.49,1.1,1.1v11.64h7.63v-19.14c0-3.69-1.17-6.58-3.51-8.68-1.15-1.03-2.53-1.8-4.12-2.33Z"/>
        <path class="cls-1" d="M316.24,45.27v-8.63c0-.65.32-1.27.85-1.65l11.53-8.37-11.53-8.37c-.53-.39-.85-1-.85-1.65V7.97l17.11,12.41c4.26,3.09,4.26,9.38,0,12.47l-17.11,12.41Z"/>
      </g>
    </g>
  </g>
</svg>