<?xml version="1.0" encoding="UTF-8"?>
<svg id="Capa_2" data-name="Capa 2" xmlns="http://www.w3.org/2000/svg" viewBox="0 0 548.37 56.21">
  <defs>
    <style>
      .cls-1 {
        fill: #243746;
      }
    </style>
  </defs>
  <g id="Capa_1-2" data-name="Capa 1">
    <g id="experiencia_uandes">
      <g>
        <g>
          <path class="cls-1" d="M14.17,43.82c-2.78,0-5.23-.65-7.35-1.96-2.12-1.31-3.79-3.15-5-5.51-1.21-2.36-1.82-5.13-1.82-8.31s.6-5.93,1.79-8.28c1.19-2.34,2.87-4.16,5.03-5.45,2.16-1.29,4.65-1.94,7.47-1.94s5.36.65,7.38,1.96c2.02,1.31,3.56,3.02,4.61,5.12,1.05,2.1,1.58,4.41,1.58,6.91v1.22c0,.42-.02.9-.06,1.46H3.16v-3.51h20.66c-.12-3.06-1.08-5.42-2.89-7.09-1.81-1.67-4.08-2.5-6.82-2.5-1.75,0-3.39.41-4.94,1.22-1.55.81-2.79,2-3.72,3.57-.93,1.57-1.4,3.54-1.4,5.93v1.55c0,2.7.49,4.94,1.46,6.73.97,1.79,2.23,3.12,3.78,3.99s3.18,1.31,4.88,1.31c2.26,0,4.13-.51,5.6-1.52,1.47-1.01,2.52-2.41,3.16-4.2h4.11c-.48,1.75-1.29,3.33-2.44,4.73-1.15,1.41-2.6,2.52-4.35,3.33-1.75.81-3.77,1.22-6.07,1.22Z"/>
          <path class="cls-1" d="M30.55,43.11l10-15.01-10-15h4.47l8.46,12.8,8.4-12.8h4.47l-10,15,10,15.01h-4.47l-8.4-12.86-8.4,12.86h-4.53Z"/>
          <path class="cls-1" d="M61.87,56.21V13.1h3.81l.36,5.42c.63-1.07,1.47-2.07,2.5-3.01,1.03-.93,2.27-1.69,3.72-2.26,1.45-.57,3.11-.86,4.97-.86,2.9,0,5.43.69,7.59,2.08,2.16,1.39,3.84,3.27,5.03,5.63,1.19,2.36,1.79,5.05,1.79,8.07s-.61,5.71-1.82,8.07c-1.21,2.36-2.89,4.22-5.03,5.57-2.14,1.35-4.68,2.02-7.62,2.02-2.54,0-4.77-.55-6.7-1.64-1.93-1.09-3.4-2.63-4.44-4.61v18.64h-4.17ZM76.87,40.19c2.06,0,3.89-.51,5.48-1.52,1.59-1.01,2.83-2.41,3.72-4.2s1.34-3.91,1.34-6.37-.45-4.54-1.34-6.37c-.89-1.83-2.13-3.23-3.72-4.23-1.59-.99-3.41-1.49-5.48-1.49s-3.89.5-5.48,1.49c-1.59.99-2.84,2.39-3.75,4.2-.91,1.81-1.37,3.94-1.37,6.4s.46,4.54,1.37,6.34c.91,1.81,2.16,3.22,3.75,4.23,1.59,1.01,3.41,1.52,5.48,1.52Z"/>
          <path class="cls-1" d="M111.64,43.82c-2.78,0-5.23-.65-7.35-1.96-2.12-1.31-3.79-3.15-5-5.51-1.21-2.36-1.82-5.13-1.82-8.31s.6-5.93,1.79-8.28c1.19-2.34,2.87-4.16,5.03-5.45,2.16-1.29,4.65-1.94,7.47-1.94s5.36.65,7.38,1.96c2.02,1.31,3.56,3.02,4.61,5.12,1.05,2.1,1.58,4.41,1.58,6.91v1.22c0,.42-.02.9-.06,1.46h-24.65v-3.51h20.66c-.12-3.06-1.08-5.42-2.89-7.09-1.81-1.67-4.08-2.5-6.82-2.5-1.75,0-3.39.41-4.94,1.22-1.55.81-2.79,2-3.72,3.57-.93,1.57-1.4,3.54-1.4,5.93v1.55c0,2.7.49,4.94,1.46,6.73.97,1.79,2.23,3.12,3.78,3.99s3.18,1.31,4.88,1.31c2.26,0,4.13-.51,5.6-1.52,1.47-1.01,2.52-2.41,3.16-4.2h4.11c-.48,1.75-1.29,3.33-2.44,4.73-1.15,1.41-2.6,2.52-4.35,3.33-1.75.81-3.77,1.22-6.07,1.22Z"/>
          <path class="cls-1" d="M132.13,43.11V13.1h3.81l.3,5.78c.63-1.39,1.49-2.56,2.56-3.51,1.07-.95,2.36-1.69,3.87-2.2,1.51-.52,3.22-.77,5.12-.77v4.35h-1.61c-1.27,0-2.5.17-3.69.51-1.19.34-2.24.9-3.16,1.7-.91.79-1.65,1.87-2.2,3.22-.56,1.35-.83,3.04-.83,5.06v15.9h-4.17Z"/>
          <path class="cls-1" d="M156.3,6.01c-.83,0-1.55-.29-2.14-.86-.6-.58-.89-1.3-.89-2.17s.29-1.64.86-2.17c.58-.54,1.3-.8,2.17-.8.79,0,1.49.27,2.08.8.6.54.89,1.26.89,2.17s-.29,1.6-.86,2.17c-.58.58-1.28.86-2.11.86ZM154.22,43.11V13.1h4.17v30.01h-4.17Z"/>
          <path class="cls-1" d="M180.24,43.82c-2.78,0-5.23-.65-7.35-1.96-2.12-1.31-3.79-3.15-5-5.51-1.21-2.36-1.82-5.13-1.82-8.31s.6-5.93,1.79-8.28c1.19-2.34,2.87-4.16,5.03-5.45,2.16-1.29,4.65-1.94,7.47-1.94s5.36.65,7.38,1.96c2.02,1.31,3.56,3.02,4.61,5.12,1.05,2.1,1.58,4.41,1.58,6.91v1.22c0,.42-.02.9-.06,1.46h-24.65v-3.51h20.66c-.12-3.06-1.08-5.42-2.89-7.09-1.81-1.67-4.08-2.5-6.82-2.5-1.75,0-3.39.41-4.94,1.22-1.55.81-2.79,2-3.72,3.57-.93,1.57-1.4,3.54-1.4,5.93v1.55c0,2.7.49,4.94,1.46,6.73.97,1.79,2.23,3.12,3.78,3.99s3.18,1.31,4.88,1.31c2.26,0,4.13-.51,5.6-1.52,1.47-1.01,2.52-2.41,3.16-4.2h4.11c-.48,1.75-1.29,3.33-2.44,4.73-1.15,1.41-2.6,2.52-4.35,3.33-1.75.81-3.77,1.22-6.07,1.22Z"/>
          <path class="cls-1" d="M200.72,43.11V13.1h3.81l.24,5.36c.95-1.9,2.33-3.39,4.14-4.47,1.81-1.07,3.82-1.61,6.04-1.61s4.31.46,6.01,1.37c1.71.91,3.04,2.29,3.99,4.14.95,1.85,1.43,4.2,1.43,7.06v18.16h-4.17v-17.68c0-3.18-.7-5.54-2.08-7.09-1.39-1.55-3.36-2.32-5.89-2.32-1.79,0-3.38.43-4.79,1.28-1.41.85-2.52,2.09-3.33,3.72-.81,1.63-1.22,3.63-1.22,6.01v16.08h-4.17Z"/>
          <path class="cls-1" d="M247.46,43.82c-2.74,0-5.21-.65-7.41-1.96-2.2-1.31-3.94-3.15-5.21-5.51-1.27-2.36-1.91-5.09-1.91-8.19s.64-5.98,1.91-8.31c1.27-2.32,3.01-4.15,5.21-5.48,2.2-1.33,4.67-1.99,7.41-1.99,3.49,0,6.4.9,8.72,2.71,2.32,1.81,3.8,4.2,4.44,7.17h-4.17c-.44-1.98-1.48-3.52-3.13-4.61-1.65-1.09-3.6-1.64-5.86-1.64-1.83,0-3.51.45-5.06,1.34s-2.8,2.23-3.75,4.02c-.95,1.79-1.43,4.05-1.43,6.79,0,2.02.28,3.79.83,5.3.56,1.51,1.32,2.77,2.29,3.78.97,1.01,2.06,1.78,3.27,2.29,1.21.52,2.49.77,3.84.77,1.47,0,2.83-.25,4.08-.74,1.25-.5,2.31-1.22,3.19-2.17.87-.95,1.45-2.1,1.73-3.45h4.17c-.6,2.9-2.06,5.27-4.41,7.12-2.34,1.85-5.26,2.77-8.75,2.77Z"/>
          <path class="cls-1" d="M270.45,6.01c-.83,0-1.55-.29-2.14-.86-.6-.58-.89-1.3-.89-2.17s.29-1.64.86-2.17c.58-.54,1.3-.8,2.17-.8.79,0,1.49.27,2.08.8.6.54.89,1.26.89,2.17s-.29,1.6-.86,2.17c-.58.58-1.28.86-2.11.86ZM268.36,43.11V13.1h4.17v30.01h-4.17Z"/>
          <path class="cls-1" d="M291.11,43.82c-2.42,0-4.44-.44-6.04-1.31-1.61-.87-2.8-2-3.57-3.39-.77-1.39-1.16-2.92-1.16-4.59,0-2.06.53-3.81,1.58-5.24,1.05-1.43,2.54-2.5,4.47-3.22,1.93-.71,4.14-1.07,6.64-1.07h8.1c0-1.94-.3-3.59-.89-4.94-.6-1.35-1.46-2.37-2.59-3.07-1.13-.69-2.57-1.04-4.32-1.04-2.06,0-3.83.52-5.3,1.55-1.47,1.03-2.38,2.54-2.74,4.53h-4.35c.24-2.1.96-3.87,2.17-5.3,1.21-1.43,2.72-2.51,4.53-3.25,1.81-.73,3.7-1.1,5.69-1.1,2.74,0,4.99.53,6.76,1.58,1.77,1.05,3.08,2.49,3.93,4.32.85,1.83,1.28,3.93,1.28,6.31v18.52h-3.81l-.18-5.48c-.4.83-.9,1.63-1.52,2.38-.62.75-1.33,1.41-2.14,1.96-.81.56-1.76,1-2.83,1.34s-2.3.51-3.69.51ZM291.58,40.13c1.51,0,2.84-.3,3.99-.89,1.15-.6,2.14-1.39,2.98-2.38.83-.99,1.47-2.12,1.91-3.39.44-1.27.66-2.56.66-3.87v-1.07h-7.8c-2.1,0-3.79.26-5.06.77-1.27.52-2.18,1.21-2.74,2.08-.56.87-.83,1.89-.83,3.04s.27,2.15.8,3.01,1.32,1.52,2.35,2c1.03.48,2.28.71,3.75.71Z"/>
        </g>
        <g>
          <path class="cls-1" d="M475.81,15.1c0,.46-.56.67-.87.33-1-1.13-2.27-2.3-3.36-2.82-1.44-.69-3-1.03-4.67-1.03-2.38,0-4.57.64-6.58,1.91-2.01,1.28-3.6,3.1-4.79,5.48-1.19,2.38-1.79,5.26-1.79,8.65,0,3.05.53,5.8,1.6,8.24,1.07,2.44,2.58,4.36,4.54,5.76,1.96,1.4,4.3,2.1,7.02,2.1,1.55,0,3.04-.3,4.48-.91,1.11-.47,2.47-1.72,3.55-2.92.31-.34.87-.13.87.33v2.88h7.71V2.1h-7.71v13ZM475.59,32.32c-.61,1.34-1.46,2.38-2.57,3.13-1.11.75-2.43,1.13-3.98,1.13s-2.82-.37-3.95-1.1c-1.13-.73-2-1.76-2.6-3.1-.61-1.34-.91-2.92-.91-4.76s.3-3.41.91-4.73c.6-1.32,1.47-2.34,2.6-3.07,1.13-.73,2.44-1.1,3.95-1.1s2.87.37,3.98,1.1c1.11.73,1.96,1.76,2.57,3.1.61,1.34.91,2.9.91,4.7s-.3,3.36-.91,4.7Z"/>
          <path class="cls-1" d="M544.48,26.06c-1.17-.71-2.42-1.27-3.76-1.69-1.34-.42-2.63-.77-3.88-1.07-1.34-.33-2.41-.64-3.23-.91-.81-.27-1.4-.59-1.75-.97-.35-.38-.53-.83-.53-1.38,0-.79.39-1.42,1.16-1.88.77-.46,1.76-.69,2.97-.69,1.38,0,2.68.3,3.92.91.97.48,1.79,1.14,2.47,2,.31.39.89.43,1.28.12l4.06-3.21c-1.17-1.84-2.76-3.25-4.76-4.23-2.01-.98-4.24-1.47-6.7-1.47-4.1,0-7.26,1.16-9.48,3.47-1.48,1.54-2.19,3.62-2.18,5.75,0,1.6.33,2.93.97,4,.65,1.09,1.49,1.97,2.54,2.66,1.04.69,2.19,1.24,3.45,1.66,1.25.42,2.46.79,3.63,1.13,1.13.29,2.15.6,3.07.91.92.31,1.65.71,2.19,1.19.54.48.81,1.1.81,1.85,0,.92-.43,1.68-1.28,2.29-.86.61-2.06.91-3.6.91-1.96,0-3.6-.49-4.92-1.47-1.01-.75-1.84-1.56-2.49-2.42-.32-.42-.94-.47-1.34-.12l-4.54,3.95c.71.92,1.66,1.88,2.85,2.88,1.19,1,2.64,1.84,4.35,2.51,1.71.67,3.72,1,6.02,1,2.55,0,4.76-.44,6.64-1.32,1.88-.88,3.34-2.1,4.39-3.67,1.04-1.57,1.57-3.37,1.57-5.42,0-1.79-.35-3.28-1.07-4.45-.71-1.17-1.65-2.11-2.82-2.82Z"/>
          <path class="cls-1" d="M515.22,16.19c-1.17-1.44-2.65-2.57-4.45-3.38-1.8-.81-3.91-1.22-6.33-1.22-2.59,0-4.82.47-6.67,1.41-1.86.94-3.37,2.18-4.54,3.73-1.17,1.55-2.05,3.28-2.63,5.2-.59,1.92-.88,3.88-.88,5.89s.29,4.08.88,5.98c.58,1.9,1.49,3.59,2.73,5.08,1.23,1.48,2.81,2.66,4.73,3.54,1.92.88,4.22,1.32,6.89,1.32,1.79,0,3.39-.16,4.79-.47,1.4-.31,2.75-.82,4.04-1.53,1.29-.71,2.67-1.63,4.14-2.76l-3.88-5.26c-1.17,1.04-2.51,1.85-4.01,2.41-1.5.56-3.05.85-4.64.85-2.17,0-3.98-.56-5.42-1.69-1.2-.94-1.98-2.27-2.32-3.97-.11-.53.28-1.04.83-1.04h20.14c.08-.58.13-1.14.16-1.66.02-.52.03-.93.03-1.22,0-2.17-.3-4.22-.91-6.14-.61-1.92-1.49-3.6-2.66-5.04ZM510.75,24.48h-13.32c.13-1.04.45-2.05.97-3.03.52-.98,1.3-1.79,2.35-2.41,1.04-.63,2.34-.94,3.88-.94,1.05,0,1.97.16,2.79.47.82.31,1.51.76,2.1,1.35.59.59,1.04,1.26,1.38,2.04.26.6.42,1.22.47,1.88.03.35-.27.65-.62.65Z"/>
          <path class="cls-1" d="M442.89,13.08c-1.69-1-3.79-1.5-6.3-1.5-2.17,0-4.16.52-5.95,1.57-1.21.7-2.2,1.73-3.01,3.04v-3.98h-7.77v30.89h6.92c.47,0,.85-.38.85-.85v-17.84c0-1.92.56-3.42,1.67-4.48,1.12-1.06,2.72-1.59,4.81-1.59.03,0,.05,0,.08,0,.03,0,.05,0,.07,0,.44,0,.85.04,1.23.09,0,0,.01,0,.02,0,.35.05.67.13.97.22.21.06.41.14.61.22,0,0,.01,0,.02,0,.56.24,1.07.54,1.48.94,1,.99,1.51,2.46,1.51,4.41v18.85h6.93c.47,0,.85-.38.85-.85v-18.45c0-2.46-.41-4.62-1.22-6.45-.81-1.84-2.07-3.26-3.76-4.26Z"/>
          <path class="cls-1" d="M370.17,13.05v17.84c0,1.92-.56,3.42-1.67,4.48-1.12,1.06-2.72,1.59-4.81,1.59-.03,0-.05,0-.08,0-.03,0-.05,0-.07,0-.44,0-.85-.04-1.23-.09,0,0-.01,0-.02,0-.35-.05-.67-.13-.97-.22-.21-.06-.41-.14-.61-.22,0,0-.01,0-.02,0-.56-.24-1.07-.54-1.48-.94-1-.99-1.51-2.46-1.51-4.41V12.21h-6.93c-.47,0-.85.38-.85.85v18.45c0,2.46.41,4.62,1.22,6.45.81,1.84,2.07,3.26,3.76,4.26,1.69,1,3.79,1.5,6.3,1.5,2.17,0,4.16-.52,5.95-1.57.85-.49,1.59-1.15,2.24-1.95.26-.32.77-.15.77.26v2.63s7.77,0,7.77,0V12.21h-6.92c-.47,0-.85.38-.85.85Z"/>
          <path class="cls-1" d="M404.82,12.41c-.69-.23-1.43-.4-2.21-.53-.26-.04-.54-.07-.8-.1-.87-.11-1.78-.19-2.76-.19-2.63,0-5.08.39-7.36,1.16-2.05.7-4.05,1.79-6.01,3.28-.37.28-.44.81-.16,1.18l3.45,4.66c1.29-1.17,2.79-2.08,4.48-2.73,1.69-.65,3.35-.97,4.98-.97,1.32,0,2.44.22,3.38.63.28.12.55.26.8.41.16.1.34.19.48.3,1.15.9,1.72,2.27,1.72,4.1v.75h-8.9c-1.46,0-2.83.13-4.1.38-1.28.25-2.43.69-3.48,1.32-1.21.67-2.18,1.64-2.91,2.91-.73,1.27-1.1,2.81-1.1,4.6,0,2,.51,3.78,1.54,5.33,1.02,1.55,2.42,2.74,4.2,3.57,1.77.83,3.79,1.25,6.05,1.25,1.7,0,3.3-.36,4.81-1.08l.03-.04v-4.62c0-.29-.23-.52-.52-.52h-3.19c-1.46,0-2.64-.32-3.54-.95-1.08-.76-1.67-2.1-1.5-3.41.04-.36.14-.69.28-.99.21-.44.52-.8.94-1.09.46-.38,1.01-.62,1.66-.72.65-.1,1.31-.16,1.97-.16h6.65c.62,0,1.12.5,1.12,1.12v11.85h7.77v-19.49c0-3.76-1.19-6.7-3.57-8.84-1.17-1.05-2.57-1.83-4.2-2.37Z"/>
          <path class="cls-1" d="M317.47,46.33v-8.79c0-.66.32-1.29.86-1.68l11.74-8.52-11.74-8.52c-.54-.39-.86-1.02-.86-1.68v-8.79l17.42,12.64c4.34,3.15,4.34,9.55,0,12.7l-17.42,12.64Z"/>
        </g>
      </g>
    </g>
  </g>
</svg>