<?xml version="1.0" encoding="UTF-8"?>
<svg id="Capa_2" data-name="Capa 2" xmlns="http://www.w3.org/2000/svg" viewBox="0 0 523.72 46.05">
  <defs>
    <style>
      .cls-1 {
        fill: #ce0019;
      }

      .cls-2 {
        fill: #243746;
      }
    </style>
  </defs>
  <g id="Capa_1-2" data-name="Capa 1">
    <g id="innovacion_uandes">
      <path class="cls-2" d="M3.02,5.98c-.83,0-1.54-.29-2.13-.86-.59-.57-.89-1.29-.89-2.16S.29,1.33.86.8c.57-.53,1.29-.8,2.16-.8.79,0,1.48.27,2.07.8.59.53.89,1.25.89,2.16s-.29,1.59-.86,2.16c-.57.57-1.27.86-2.1.86ZM.95,42.85V13.02h4.14v29.83H.95Z"/>
      <path class="cls-2" d="M14.03,42.85V13.02h3.79l.24,5.33c.95-1.89,2.32-3.37,4.11-4.44,1.8-1.07,3.8-1.6,6.01-1.6s4.28.45,5.98,1.36c1.7.91,3.02,2.28,3.96,4.11.95,1.84,1.42,4.17,1.42,7.01v18.05h-4.14v-17.58c0-3.16-.69-5.5-2.07-7.04-1.38-1.54-3.33-2.31-5.86-2.31-1.78,0-3.36.42-4.76,1.27-1.4.85-2.51,2.08-3.31,3.7-.81,1.62-1.21,3.61-1.21,5.98v15.98h-4.14Z"/>
      <path class="cls-2" d="M47.34,42.85V13.02h3.79l.24,5.33c.95-1.89,2.32-3.37,4.11-4.44,1.8-1.07,3.8-1.6,6.01-1.6s4.28.45,5.98,1.36c1.7.91,3.02,2.28,3.96,4.11.95,1.84,1.42,4.17,1.42,7.01v18.05h-4.14v-17.58c0-3.16-.69-5.5-2.07-7.04-1.38-1.54-3.33-2.31-5.86-2.31-1.78,0-3.36.42-4.76,1.27-1.4.85-2.51,2.08-3.31,3.7-.81,1.62-1.21,3.61-1.21,5.98v15.98h-4.14Z"/>
      <path class="cls-2" d="M93.8,43.56c-2.72,0-5.18-.64-7.37-1.92-2.19-1.28-3.92-3.1-5.18-5.44-1.26-2.35-1.89-5.08-1.89-8.2s.64-6.02,1.92-8.34c1.28-2.33,3.03-4.13,5.24-5.42,2.21-1.28,4.68-1.92,7.4-1.92s5.35.64,7.52,1.92c2.17,1.28,3.88,3.09,5.15,5.42,1.26,2.33,1.89,5.11,1.89,8.34s-.64,5.85-1.92,8.2c-1.28,2.35-3.02,4.16-5.21,5.44-2.19,1.28-4.7,1.92-7.55,1.92ZM93.86,40.01c1.85,0,3.56-.45,5.12-1.36,1.56-.91,2.82-2.26,3.79-4.05.97-1.8,1.45-4.01,1.45-6.66s-.47-4.91-1.42-6.69c-.95-1.77-2.2-3.11-3.76-3.99-1.56-.89-3.27-1.33-5.12-1.33s-3.45.45-5.03,1.36c-1.58.91-2.85,2.24-3.82,4-.97,1.76-1.45,3.97-1.45,6.66s.47,4.86,1.42,6.66c.95,1.8,2.2,3.15,3.76,4.05s3.24,1.36,5.06,1.36Z"/>
      <path class="cls-2" d="M122.8,42.85l-11.36-29.83h4.32l9.47,25.8,9.47-25.8h4.26l-11.42,29.83h-4.73Z"/>
      <path class="cls-2" d="M152.8,43.56c-2.41,0-4.41-.44-6.01-1.3-1.6-.87-2.78-1.99-3.55-3.37-.77-1.38-1.15-2.9-1.15-4.56,0-2.05.52-3.79,1.57-5.21,1.05-1.42,2.53-2.49,4.44-3.2,1.91-.71,4.11-1.07,6.6-1.07h8.05c0-1.93-.3-3.57-.89-4.91-.59-1.34-1.45-2.36-2.57-3.05-1.12-.69-2.55-1.04-4.29-1.04-2.05,0-3.81.51-5.27,1.54-1.46,1.03-2.37,2.53-2.72,4.5h-4.32c.24-2.09.96-3.85,2.16-5.27,1.2-1.42,2.7-2.5,4.5-3.23,1.8-.73,3.68-1.09,5.65-1.09,2.72,0,4.96.52,6.72,1.57,1.76,1.05,3.06,2.47,3.91,4.29.85,1.82,1.27,3.91,1.27,6.27v18.41h-3.79l-.18-5.44c-.4.83-.9,1.62-1.51,2.37-.61.75-1.32,1.4-2.13,1.95-.81.55-1.75,1-2.81,1.33-1.07.33-2.29.5-3.67.5ZM153.28,39.89c1.5,0,2.82-.3,3.96-.89,1.14-.59,2.13-1.38,2.96-2.37.83-.99,1.46-2.11,1.89-3.37.43-1.26.65-2.54.65-3.85v-1.07h-7.75c-2.09,0-3.77.26-5.03.77-1.26.51-2.17,1.2-2.72,2.07-.55.87-.83,1.87-.83,3.02s.27,2.14.8,2.99c.53.85,1.31,1.51,2.34,1.98,1.02.47,2.27.71,3.73.71Z"/>
      <path class="cls-2" d="M187.84,43.56c-2.72,0-5.18-.65-7.37-1.95-2.19-1.3-3.92-3.13-5.18-5.48-1.26-2.35-1.89-5.06-1.89-8.14s.63-5.95,1.89-8.26c1.26-2.31,2.99-4.12,5.18-5.44,2.19-1.32,4.65-1.98,7.37-1.98,3.47,0,6.36.9,8.67,2.69,2.31,1.8,3.78,4.17,4.41,7.13h-4.14c-.44-1.97-1.47-3.5-3.11-4.59-1.64-1.08-3.58-1.63-5.83-1.63-1.82,0-3.49.44-5.03,1.33-1.54.89-2.78,2.22-3.73,3.99-.95,1.78-1.42,4.03-1.42,6.75,0,2.01.28,3.77.83,5.27s1.31,2.75,2.28,3.76c.97,1,2.05,1.77,3.26,2.28,1.2.51,2.47.77,3.82.77,1.46,0,2.81-.25,4.05-.74,1.24-.49,2.3-1.21,3.17-2.16s1.44-2.09,1.72-3.43h4.14c-.59,2.88-2.05,5.24-4.38,7.07-2.33,1.83-5.23,2.75-8.7,2.75Z"/>
      <path class="cls-2" d="M210.68,5.98c-.83,0-1.54-.29-2.13-.86-.59-.57-.89-1.29-.89-2.16s.29-1.63.86-2.16c.57-.53,1.29-.8,2.16-.8.79,0,1.48.27,2.07.8.59.53.89,1.25.89,2.16s-.29,1.59-.86,2.16c-.57.57-1.27.86-2.1.86ZM208.61,42.85V13.02h4.14v29.83h-4.14Z"/>
      <path class="cls-2" d="M234.83,43.56c-2.72,0-5.18-.64-7.37-1.92-2.19-1.28-3.92-3.1-5.18-5.44-1.26-2.35-1.89-5.08-1.89-8.2s.64-6.02,1.92-8.34c1.28-2.33,3.03-4.13,5.24-5.42,2.21-1.28,4.68-1.92,7.4-1.92s5.35.64,7.52,1.92c2.17,1.28,3.88,3.09,5.15,5.42,1.26,2.33,1.89,5.11,1.89,8.34s-.64,5.85-1.92,8.2c-1.28,2.35-3.02,4.16-5.21,5.44-2.19,1.28-4.7,1.92-7.55,1.92ZM234.89,40.01c1.85,0,3.56-.45,5.12-1.36,1.56-.91,2.82-2.26,3.79-4.05.97-1.8,1.45-4.01,1.45-6.66s-.47-4.91-1.42-6.69c-.95-1.77-2.2-3.11-3.76-3.99-1.56-.89-3.27-1.33-5.12-1.33s-3.45.45-5.03,1.36c-1.58.91-2.85,2.24-3.82,4-.97,1.76-1.45,3.97-1.45,6.66s.47,4.86,1.42,6.66c.95,1.8,2.2,3.15,3.76,4.05s3.24,1.36,5.06,1.36ZM229.32,10.48l-.41-2.96,11.6-7.52.53,3.61-11.72,6.87Z"/>
      <path class="cls-2" d="M256.6,42.85V13.02h3.79l.24,5.33c.95-1.89,2.32-3.37,4.11-4.44,1.8-1.07,3.8-1.6,6.01-1.6s4.28.45,5.98,1.36c1.7.91,3.02,2.28,3.96,4.11.95,1.84,1.42,4.17,1.42,7.01v18.05h-4.14v-17.58c0-3.16-.69-5.5-2.07-7.04-1.38-1.54-3.33-2.31-5.86-2.31-1.78,0-3.36.42-4.76,1.27-1.4.85-2.51,2.08-3.31,3.7-.81,1.62-1.21,3.61-1.21,5.98v15.98h-4.14Z"/>
      <path class="cls-2" d="M451.61,15.01c0,.45-.56.67-.86.33-1-1.13-2.26-2.28-3.34-2.8-1.43-.68-2.98-1.03-4.64-1.03-2.37,0-4.55.63-6.54,1.9-1.99,1.27-3.58,3.08-4.76,5.45-1.18,2.37-1.77,5.23-1.77,8.59,0,3.03.53,5.76,1.59,8.19,1.06,2.43,2.56,4.34,4.51,5.73,1.95,1.39,4.28,2.09,6.98,2.09,1.54,0,3.02-.3,4.45-.9,1.1-.46,2.46-1.71,3.52-2.91.3-.34.86-.13.86.32v2.86h7.66V2.09h-7.66v12.92ZM451.39,32.12c-.6,1.33-1.45,2.37-2.55,3.11-1.1.75-2.42,1.12-3.95,1.12s-2.8-.36-3.92-1.09c-1.12-.73-1.98-1.75-2.58-3.08-.6-1.33-.9-2.91-.9-4.73s.3-3.39.9-4.7c.6-1.31,1.46-2.33,2.58-3.05,1.12-.73,2.43-1.09,3.92-1.09s2.85.36,3.95,1.09c1.1.73,1.95,1.75,2.55,3.08.6,1.33.9,2.89.9,4.67s-.3,3.34-.9,4.67Z"/>
      <path class="cls-2" d="M519.86,25.9c-1.16-.71-2.41-1.27-3.74-1.68-1.33-.41-2.62-.77-3.86-1.06-1.33-.33-2.4-.63-3.21-.9-.81-.27-1.39-.59-1.74-.97-.35-.37-.53-.83-.53-1.37,0-.79.38-1.41,1.15-1.87.77-.46,1.75-.69,2.96-.69,1.37,0,2.67.3,3.89.9.96.48,1.78,1.14,2.45,1.98.31.39.89.43,1.27.12l4.03-3.19c-1.16-1.83-2.74-3.23-4.73-4.2-1.99-.97-4.21-1.46-6.66-1.46-4.08,0-7.22,1.15-9.42,3.45-1.47,1.53-2.18,3.59-2.16,5.72,0,1.59.33,2.91.96,3.98.64,1.08,1.48,1.96,2.52,2.65,1.04.69,2.18,1.24,3.42,1.65,1.25.41,2.45.79,3.61,1.12,1.12.29,2.14.59,3.05.9.91.31,1.64.71,2.18,1.18.54.48.81,1.09.81,1.84,0,.91-.43,1.67-1.28,2.27-.85.6-2.04.9-3.58.9-1.95,0-3.58-.49-4.89-1.46-1-.75-1.83-1.55-2.47-2.4-.32-.42-.93-.47-1.33-.12l-4.51,3.93c.7.91,1.65,1.87,2.83,2.86,1.18,1,2.62,1.83,4.33,2.49,1.7.66,3.7,1,5.98,1,2.53,0,4.73-.44,6.6-1.31,1.87-.87,3.32-2.09,4.36-3.64,1.04-1.56,1.56-3.35,1.56-5.39,0-1.78-.35-3.26-1.06-4.42-.71-1.16-1.64-2.1-2.8-2.8Z"/>
      <path class="cls-2" d="M490.78,16.09c-1.16-1.43-2.64-2.55-4.42-3.36-1.79-.81-3.88-1.21-6.29-1.21-2.58,0-4.79.47-6.63,1.4-1.85.93-3.35,2.17-4.51,3.71-1.16,1.54-2.03,3.26-2.62,5.17-.58,1.91-.87,3.86-.87,5.85s.29,4.06.87,5.95c.58,1.89,1.48,3.57,2.71,5.04,1.22,1.47,2.79,2.65,4.7,3.52,1.91.87,4.19,1.31,6.85,1.31,1.78,0,3.37-.16,4.76-.47,1.39-.31,2.73-.82,4.02-1.53,1.29-.71,2.66-1.62,4.11-2.74l-3.86-5.23c-1.16,1.04-2.49,1.84-3.99,2.4-1.5.56-3.03.84-4.61.84-2.16,0-3.95-.56-5.39-1.68-1.2-.94-1.97-2.25-2.31-3.94-.11-.53.28-1.04.82-1.04h20.01c.08-.58.13-1.13.16-1.65.02-.52.03-.92.03-1.21,0-2.16-.3-4.19-.9-6.1-.6-1.91-1.48-3.58-2.65-5.01ZM486.33,24.33h-13.24c.12-1.03.44-2.04.97-3.01.52-.97,1.3-1.77,2.33-2.4,1.04-.62,2.33-.93,3.86-.93,1.04,0,1.96.16,2.77.47.81.31,1.5.76,2.09,1.34.58.58,1.04,1.26,1.37,2.02.26.59.41,1.22.47,1.87.03.35-.27.65-.62.65Z"/>
      <path class="cls-2" d="M418.88,13c-1.68-1-3.77-1.5-6.26-1.5-2.16,0-4.13.52-5.92,1.56-1.2.7-2.18,1.72-2.99,3.02v-3.95h-7.72v30.7h6.88c.46,0,.84-.38.84-.84v-17.73c0-1.91.55-3.4,1.66-4.45,1.11-1.05,2.7-1.58,4.78-1.58.03,0,.05,0,.08,0,.03,0,.05,0,.07,0,.44,0,.84.04,1.23.09,0,0,.01,0,.02,0,.34.05.66.13.96.22.21.06.41.14.6.22,0,0,.01,0,.02,0,.56.24,1.06.53,1.47.93,1,.98,1.5,2.45,1.5,4.39v18.74h6.88c.46,0,.84-.38.84-.84v-18.34c0-2.45-.41-4.59-1.21-6.41-.81-1.83-2.06-3.24-3.74-4.24Z"/>
      <path class="cls-2" d="M346.61,12.97v17.73c0,1.91-.55,3.4-1.66,4.45-1.11,1.05-2.7,1.58-4.78,1.58-.03,0-.05,0-.08,0-.03,0-.05,0-.07,0-.44,0-.84-.04-1.23-.09,0,0-.01,0-.02,0-.34-.05-.66-.13-.96-.22-.21-.06-.41-.14-.6-.22,0,0-.01,0-.02,0-.56-.24-1.06-.53-1.47-.93-1-.98-1.5-2.45-1.5-4.39V12.13h-6.88c-.46,0-.84.38-.84.84v18.34c0,2.45.41,4.59,1.21,6.41.81,1.83,2.06,3.24,3.74,4.24,1.68,1,3.77,1.5,6.26,1.5,2.16,0,4.13-.52,5.92-1.56.84-.49,1.58-1.14,2.22-1.94.26-.32.77-.15.77.26v2.61s7.72,0,7.72,0V12.13h-6.88c-.46,0-.84.38-.84.84Z"/>
      <path class="cls-2" d="M381.05,12.33c-.69-.23-1.42-.4-2.19-.53-.26-.04-.53-.07-.8-.1-.87-.11-1.77-.19-2.74-.19-2.62,0-5.05.39-7.32,1.15-2.04.69-4.03,1.78-5.98,3.26-.37.28-.43.81-.16,1.18l3.43,4.63c1.29-1.16,2.77-2.07,4.45-2.71,1.68-.64,3.33-.96,4.95-.96,1.31,0,2.42.22,3.36.62.28.12.55.26.8.41.16.1.33.19.48.3,1.14.89,1.71,2.25,1.71,4.08v.75h-8.84c-1.46,0-2.81.13-4.08.37-1.27.25-2.42.68-3.46,1.31-1.2.66-2.17,1.63-2.9,2.9-.73,1.27-1.09,2.79-1.09,4.58,0,1.99.51,3.76,1.53,5.29,1.02,1.54,2.41,2.72,4.17,3.55,1.76.83,3.77,1.25,6.01,1.25,1.69,0,3.28-.36,4.78-1.07l.03-.04v-4.6c0-.29-.23-.52-.52-.52h-3.17c-1.45,0-2.63-.32-3.52-.95-1.07-.76-1.66-2.08-1.49-3.39.04-.35.14-.68.28-.99.21-.43.52-.8.93-1.09.46-.37,1.01-.61,1.65-.72.64-.1,1.3-.16,1.96-.16h6.61c.61,0,1.11.5,1.11,1.11v11.78h7.72v-19.37c0-3.74-1.18-6.66-3.55-8.78-1.16-1.04-2.56-1.82-4.17-2.35Z"/>
      <path class="cls-1" d="M294.23,46.05v-8.74c0-.66.32-1.28.86-1.67l11.67-8.47-11.67-8.47c-.54-.39-.86-1.02-.86-1.67v-8.73l17.31,12.56c4.31,3.13,4.31,9.49,0,12.62l-17.31,12.56Z"/>
    </g>
  </g>
</svg>