<?xml version="1.0" encoding="UTF-8"?>
<svg id="Capa_2" data-name="Capa 2" xmlns="http://www.w3.org/2000/svg" viewBox="0 0 580.51 46.05">
  <defs>
    <style>
      .cls-1 {
        fill: #243746;
      }
    </style>
  </defs>
  <g id="Capa_1-2" data-name="Capa 1">
    <g id="internacional_uandes">
      <g>
        <g>
          <path class="cls-1" d="M3.02,5.97c-.83,0-1.54-.29-2.13-.86-.59-.57-.89-1.29-.89-2.16S.29,1.33.86.8c.57-.53,1.29-.8,2.16-.8.79,0,1.48.27,2.07.8.59.53.89,1.25.89,2.16s-.29,1.59-.86,2.16-1.27.86-2.1.86ZM.95,42.83V13.02h4.14v29.81H.95Z"/>
          <path class="cls-1" d="M14.02,42.83V13.02h3.79l.24,5.32c.95-1.89,2.32-3.37,4.11-4.43,1.79-1.07,3.8-1.6,6-1.6s4.28.45,5.97,1.36c1.69.91,3.02,2.28,3.96,4.11s1.42,4.17,1.42,7.01v18.04h-4.14v-17.57c0-3.15-.69-5.5-2.07-7.04-1.38-1.54-3.33-2.31-5.86-2.31-1.77,0-3.36.42-4.76,1.27-1.4.85-2.51,2.08-3.31,3.7-.81,1.62-1.21,3.61-1.21,5.97v15.97h-4.14Z"/>
          <path class="cls-1" d="M58.62,42.83c-1.7,0-3.16-.27-4.38-.8-1.22-.53-2.16-1.42-2.81-2.66-.65-1.24-.98-2.95-.98-5.12v-17.69h-5.21v-3.55h5.21l.59-6.92h3.55v6.98h8.93v3.49h-8.93v17.69c0,1.97.39,3.3,1.18,3.99.79.69,2.19,1.04,4.2,1.04h3.08v3.55h-4.44Z"/>
          <path class="cls-1" d="M81.93,43.54c-2.76,0-5.2-.65-7.31-1.95-2.11-1.3-3.77-3.13-4.97-5.47-1.2-2.34-1.8-5.09-1.8-8.25s.59-5.9,1.77-8.22c1.18-2.32,2.85-4.13,5-5.41,2.15-1.28,4.62-1.92,7.42-1.92s5.32.65,7.33,1.95c2.01,1.3,3.54,3,4.58,5.09,1.04,2.09,1.57,4.38,1.57,6.86v1.21c0,.41-.02.9-.06,1.45h-24.49v-3.49h20.53c-.12-3.04-1.08-5.38-2.87-7.04-1.8-1.65-4.05-2.48-6.77-2.48-1.74,0-3.37.4-4.91,1.21-1.54.81-2.77,1.99-3.7,3.55-.93,1.56-1.39,3.52-1.39,5.89v1.54c0,2.68.48,4.91,1.45,6.68.97,1.78,2.22,3.1,3.76,3.97,1.54.87,3.15,1.3,4.85,1.3,2.25,0,4.1-.5,5.56-1.51,1.46-1.01,2.5-2.4,3.13-4.17h4.08c-.47,1.74-1.28,3.31-2.43,4.7-1.14,1.4-2.58,2.51-4.32,3.31-1.74.81-3.75,1.21-6.03,1.21Z"/>
          <path class="cls-1" d="M102.28,42.83V13.02h3.79l.3,5.74c.63-1.38,1.48-2.54,2.54-3.49,1.06-.94,2.35-1.68,3.85-2.19,1.5-.51,3.19-.77,5.09-.77v4.32h-1.6c-1.26,0-2.48.17-3.67.5-1.18.34-2.23.9-3.14,1.69s-1.64,1.85-2.19,3.19c-.55,1.34-.83,3.01-.83,5.03v15.79h-4.14Z"/>
          <path class="cls-1" d="M123.63,42.83V13.02h3.79l.24,5.32c.95-1.89,2.32-3.37,4.11-4.43,1.79-1.07,3.8-1.6,6-1.6s4.28.45,5.97,1.36c1.69.91,3.02,2.28,3.96,4.11.95,1.84,1.42,4.17,1.42,7.01v18.04h-4.14v-17.57c0-3.15-.69-5.5-2.07-7.04-1.38-1.54-3.33-2.31-5.86-2.31-1.77,0-3.36.42-4.76,1.27-1.4.85-2.51,2.08-3.31,3.7-.81,1.62-1.21,3.61-1.21,5.97v15.97h-4.14Z"/>
          <path class="cls-1" d="M166.46,43.54c-2.41,0-4.41-.43-6-1.3s-2.78-1.99-3.55-3.37c-.77-1.38-1.15-2.9-1.15-4.56,0-2.05.52-3.79,1.57-5.2,1.04-1.42,2.52-2.49,4.44-3.19,1.91-.71,4.11-1.07,6.6-1.07h8.05c0-1.93-.3-3.57-.89-4.91-.59-1.34-1.45-2.35-2.57-3.04s-2.55-1.04-4.29-1.04c-2.05,0-3.81.51-5.26,1.54-1.46,1.03-2.37,2.52-2.72,4.5h-4.32c.24-2.09.96-3.85,2.16-5.26,1.2-1.42,2.7-2.49,4.5-3.22,1.79-.73,3.68-1.09,5.65-1.09,2.72,0,4.96.52,6.71,1.57,1.75,1.05,3.06,2.47,3.9,4.29.85,1.81,1.27,3.9,1.27,6.27v18.4h-3.79l-.18-5.44c-.4.83-.9,1.62-1.51,2.37-.61.75-1.32,1.4-2.13,1.95-.81.55-1.74,1-2.81,1.33-1.07.34-2.29.5-3.67.5ZM166.93,39.87c1.5,0,2.82-.3,3.96-.89,1.14-.59,2.13-1.38,2.96-2.37.83-.99,1.46-2.11,1.89-3.37.43-1.26.65-2.54.65-3.84v-1.07h-7.75c-2.09,0-3.77.26-5.03.77-1.26.51-2.17,1.2-2.72,2.07s-.83,1.87-.83,3.02.27,2.14.8,2.99c.53.85,1.31,1.51,2.34,1.98,1.02.47,2.27.71,3.73.71Z"/>
          <path class="cls-1" d="M201.48,43.54c-2.72,0-5.18-.65-7.36-1.95-2.19-1.3-3.91-3.13-5.18-5.47-1.26-2.34-1.89-5.06-1.89-8.13s.63-5.95,1.89-8.25c1.26-2.3,2.99-4.12,5.18-5.44,2.19-1.32,4.64-1.98,7.36-1.98,3.47,0,6.36.9,8.67,2.69,2.31,1.79,3.78,4.17,4.41,7.13h-4.14c-.43-1.97-1.47-3.5-3.11-4.58-1.64-1.08-3.58-1.62-5.83-1.62-1.81,0-3.49.44-5.03,1.33-1.54.89-2.78,2.22-3.73,3.99-.95,1.78-1.42,4.02-1.42,6.75,0,2.01.28,3.77.83,5.26s1.31,2.75,2.28,3.76c.97,1,2.05,1.76,3.25,2.28,1.2.51,2.47.77,3.82.77,1.46,0,2.81-.24,4.05-.74,1.24-.49,2.3-1.21,3.16-2.16.87-.94,1.44-2.09,1.72-3.43h4.14c-.59,2.88-2.05,5.24-4.38,7.07-2.33,1.83-5.23,2.75-8.7,2.75Z"/>
          <path class="cls-1" d="M224.31,5.97c-.83,0-1.54-.29-2.13-.86-.59-.57-.89-1.29-.89-2.16s.29-1.62.86-2.16c.57-.53,1.29-.8,2.16-.8.79,0,1.48.27,2.07.8.59.53.89,1.25.89,2.16s-.29,1.59-.86,2.16-1.27.86-2.1.86ZM222.24,42.83V13.02h4.14v29.81h-4.14Z"/>
          <path class="cls-1" d="M248.45,43.54c-2.72,0-5.18-.64-7.36-1.92-2.19-1.28-3.91-3.1-5.18-5.44-1.26-2.34-1.89-5.08-1.89-8.19s.64-6.01,1.92-8.34c1.28-2.32,3.03-4.13,5.23-5.41,2.21-1.28,4.67-1.92,7.39-1.92s5.34.64,7.51,1.92c2.17,1.28,3.88,3.09,5.15,5.41,1.26,2.33,1.89,5.11,1.89,8.34s-.64,5.85-1.92,8.19c-1.28,2.34-3.02,4.16-5.21,5.44-2.19,1.28-4.7,1.92-7.54,1.92ZM248.51,39.99c1.85,0,3.56-.46,5.12-1.36,1.56-.91,2.82-2.26,3.79-4.05.97-1.79,1.45-4.01,1.45-6.66s-.47-4.91-1.42-6.68c-.95-1.77-2.2-3.11-3.76-3.99-1.56-.89-3.26-1.33-5.12-1.33s-3.45.45-5.03,1.36c-1.58.91-2.85,2.24-3.82,3.99-.97,1.76-1.45,3.97-1.45,6.65s.47,4.86,1.42,6.66,2.2,3.14,3.76,4.05c1.56.91,3.24,1.36,5.06,1.36Z"/>
          <path class="cls-1" d="M270.22,42.83V13.02h3.79l.24,5.32c.95-1.89,2.32-3.37,4.11-4.43,1.79-1.07,3.8-1.6,6-1.6s4.28.45,5.97,1.36c1.69.91,3.02,2.28,3.96,4.11.95,1.84,1.42,4.17,1.42,7.01v18.04h-4.14v-17.57c0-3.15-.69-5.5-2.07-7.04-1.38-1.54-3.33-2.31-5.86-2.31-1.77,0-3.36.42-4.76,1.27-1.4.85-2.51,2.08-3.31,3.7-.81,1.62-1.21,3.61-1.21,5.97v15.97h-4.14Z"/>
          <path class="cls-1" d="M313.05,43.54c-2.41,0-4.41-.43-6-1.3s-2.78-1.99-3.55-3.37c-.77-1.38-1.15-2.9-1.15-4.56,0-2.05.52-3.79,1.57-5.2,1.04-1.42,2.52-2.49,4.44-3.19,1.91-.71,4.11-1.07,6.6-1.07h8.05c0-1.93-.3-3.57-.89-4.91-.59-1.34-1.45-2.35-2.57-3.04s-2.55-1.04-4.29-1.04c-2.05,0-3.81.51-5.26,1.54-1.46,1.03-2.37,2.52-2.72,4.5h-4.32c.24-2.09.96-3.85,2.16-5.26,1.2-1.42,2.7-2.49,4.5-3.22,1.79-.73,3.68-1.09,5.65-1.09,2.72,0,4.96.52,6.71,1.57,1.75,1.05,3.06,2.47,3.9,4.29.85,1.81,1.27,3.9,1.27,6.27v18.4h-3.79l-.18-5.44c-.4.83-.9,1.62-1.51,2.37-.61.75-1.32,1.4-2.13,1.95-.81.55-1.74,1-2.81,1.33-1.07.34-2.29.5-3.67.5ZM313.52,39.87c1.5,0,2.82-.3,3.96-.89,1.14-.59,2.13-1.38,2.96-2.37.83-.99,1.46-2.11,1.89-3.37.43-1.26.65-2.54.65-3.84v-1.07h-7.75c-2.09,0-3.77.26-5.03.77-1.26.51-2.17,1.2-2.72,2.07s-.83,1.87-.83,3.02.27,2.14.8,2.99c.53.85,1.31,1.51,2.34,1.98,1.02.47,2.27.71,3.73.71Z"/>
          <path class="cls-1" d="M334.93,42.83V.23h4.14v42.59h-4.14Z"/>
        </g>
        <g>
          <path class="cls-1" d="M508.43,15.03c0,.45-.56.67-.86.33-1-1.13-2.26-2.28-3.34-2.8-1.43-.68-2.98-1.03-4.64-1.03-2.36,0-4.54.63-6.54,1.9-1.99,1.27-3.58,3.08-4.76,5.45-1.18,2.36-1.77,5.23-1.77,8.59,0,3.03.53,5.76,1.59,8.19,1.06,2.43,2.56,4.34,4.51,5.73,1.95,1.39,4.27,2.09,6.97,2.09,1.54,0,3.02-.3,4.45-.9,1.1-.46,2.46-1.71,3.52-2.91.3-.34.86-.13.86.32v2.86h7.66V2.11h-7.66v12.92ZM508.21,32.13c-.6,1.33-1.45,2.37-2.55,3.11-1.1.75-2.42,1.12-3.95,1.12s-2.8-.36-3.92-1.09c-1.12-.72-1.98-1.75-2.58-3.08-.6-1.33-.9-2.9-.9-4.73s.3-3.39.9-4.7c.6-1.31,1.46-2.32,2.58-3.05,1.12-.72,2.43-1.09,3.92-1.09s2.85.36,3.95,1.09c1.1.73,1.95,1.75,2.55,3.08.6,1.33.9,2.89.9,4.67s-.3,3.34-.9,4.67Z"/>
          <path class="cls-1" d="M576.65,25.91c-1.16-.71-2.41-1.27-3.73-1.68-1.33-.41-2.61-.77-3.86-1.06-1.33-.33-2.4-.63-3.21-.9-.81-.27-1.39-.59-1.74-.96-.35-.37-.53-.83-.53-1.37,0-.79.38-1.41,1.15-1.87.77-.46,1.75-.69,2.96-.69,1.37,0,2.67.3,3.89.9.96.47,1.78,1.14,2.45,1.98.31.39.88.43,1.27.12l4.03-3.19c-1.16-1.83-2.74-3.23-4.73-4.2-1.99-.97-4.21-1.46-6.66-1.46-4.07,0-7.21,1.15-9.42,3.44-1.47,1.53-2.17,3.59-2.16,5.72,0,1.59.33,2.91.96,3.98.64,1.08,1.48,1.96,2.52,2.65,1.04.69,2.18,1.24,3.42,1.65,1.25.41,2.45.79,3.61,1.12,1.12.29,2.14.59,3.05.9.91.31,1.64.71,2.18,1.18.54.48.81,1.09.81,1.84,0,.91-.43,1.67-1.28,2.27-.85.6-2.04.9-3.58.9-1.95,0-3.58-.49-4.89-1.46-1-.75-1.82-1.55-2.47-2.4-.32-.42-.93-.47-1.33-.12l-4.51,3.92c.7.91,1.65,1.87,2.83,2.86,1.18,1,2.62,1.83,4.33,2.49,1.7.66,3.69,1,5.98,1,2.53,0,4.73-.44,6.6-1.31,1.87-.87,3.32-2.09,4.36-3.64,1.04-1.56,1.56-3.35,1.56-5.39,0-1.78-.35-3.26-1.06-4.42-.71-1.16-1.64-2.09-2.8-2.8Z"/>
          <path class="cls-1" d="M547.58,16.1c-1.16-1.43-2.64-2.55-4.42-3.36-1.78-.81-3.88-1.21-6.29-1.21-2.58,0-4.78.47-6.63,1.4-1.85.93-3.35,2.17-4.51,3.7-1.16,1.54-2.03,3.26-2.61,5.17-.58,1.91-.87,3.86-.87,5.85s.29,4.06.87,5.94c.58,1.89,1.48,3.57,2.71,5.04,1.22,1.47,2.79,2.64,4.7,3.52,1.91.87,4.19,1.31,6.85,1.31,1.78,0,3.37-.16,4.76-.47,1.39-.31,2.73-.82,4.02-1.52,1.29-.71,2.66-1.62,4.11-2.74l-3.86-5.23c-1.16,1.04-2.49,1.84-3.98,2.4-1.49.56-3.03.84-4.61.84-2.16,0-3.95-.56-5.39-1.68-1.2-.94-1.97-2.25-2.31-3.94-.11-.53.28-1.04.82-1.04h20.01c.08-.58.13-1.13.16-1.65.02-.52.03-.92.03-1.21,0-2.16-.3-4.19-.9-6.1-.6-1.91-1.48-3.58-2.65-5.01ZM543.14,24.34h-13.23c.12-1.03.44-2.04.96-3.01.52-.97,1.3-1.77,2.33-2.4,1.04-.62,2.32-.93,3.86-.93,1.04,0,1.96.16,2.77.47.81.31,1.5.76,2.09,1.34.58.58,1.04,1.26,1.37,2.02.26.59.41,1.21.47,1.87.03.35-.27.65-.62.65Z"/>
          <path class="cls-1" d="M475.71,13.02c-1.68-1-3.77-1.49-6.26-1.49-2.16,0-4.13.52-5.91,1.56-1.2.7-2.18,1.72-2.99,3.02v-3.95h-7.72v30.69h6.88c.46,0,.84-.38.84-.84v-17.72c0-1.91.55-3.4,1.66-4.45,1.11-1.05,2.7-1.58,4.78-1.58.03,0,.05,0,.08,0,.03,0,.05,0,.07,0,.44,0,.84.04,1.22.09,0,0,.01,0,.02,0,.34.05.66.13.96.22.21.06.41.14.6.22,0,0,.01,0,.02,0,.56.24,1.06.53,1.47.93,1,.98,1.5,2.45,1.5,4.39v18.73h6.88c.46,0,.84-.38.84-.84v-18.33c0-2.45-.41-4.59-1.21-6.41-.81-1.83-2.05-3.24-3.73-4.23Z"/>
          <path class="cls-1" d="M403.47,12.99v17.72c0,1.91-.55,3.4-1.66,4.45-1.11,1.05-2.7,1.58-4.78,1.58-.03,0-.05,0-.08,0-.03,0-.05,0-.07,0-.44,0-.84-.04-1.22-.09,0,0-.01,0-.02,0-.34-.05-.66-.13-.96-.22-.21-.06-.41-.14-.6-.22,0,0-.01,0-.02,0-.56-.24-1.06-.53-1.47-.93-1-.98-1.5-2.45-1.5-4.39V12.15h-6.88c-.46,0-.84.38-.84.84v18.33c0,2.45.41,4.59,1.21,6.41.81,1.83,2.05,3.24,3.73,4.23,1.68,1,3.77,1.49,6.26,1.49,2.16,0,4.13-.52,5.91-1.56.84-.49,1.58-1.14,2.22-1.94.26-.32.77-.15.77.26v2.61s7.72,0,7.72,0V12.15h-6.88c-.46,0-.84.38-.84.84Z"/>
          <path class="cls-1" d="M437.9,12.35c-.69-.23-1.42-.4-2.19-.53-.26-.04-.53-.07-.8-.1-.87-.11-1.77-.19-2.74-.19-2.61,0-5.05.39-7.31,1.15-2.04.69-4.03,1.78-5.98,3.25-.37.28-.43.81-.16,1.18l3.43,4.63c1.29-1.16,2.77-2.06,4.45-2.71,1.68-.64,3.33-.96,4.95-.96,1.31,0,2.42.22,3.36.62.28.12.55.26.8.41.16.1.33.19.48.3,1.14.89,1.71,2.25,1.71,4.08v.75h-8.84c-1.45,0-2.81.13-4.08.37-1.27.25-2.42.68-3.46,1.31-1.2.66-2.17,1.63-2.89,2.89-.73,1.27-1.09,2.79-1.09,4.57,0,1.99.51,3.76,1.53,5.29,1.02,1.54,2.41,2.72,4.17,3.55,1.76.83,3.77,1.25,6.01,1.25,1.69,0,3.28-.36,4.78-1.07l.03-.04v-4.59c0-.29-.23-.52-.52-.52h-3.17c-1.45,0-2.63-.32-3.52-.95-1.07-.76-1.65-2.08-1.49-3.39.04-.35.14-.68.28-.99.21-.43.52-.8.93-1.09.46-.37,1.01-.61,1.65-.72.64-.1,1.3-.16,1.96-.16h6.61c.61,0,1.11.5,1.11,1.11v11.78h7.72v-19.36c0-3.73-1.18-6.66-3.55-8.78-1.16-1.04-2.55-1.82-4.17-2.35Z"/>
          <path class="cls-1" d="M351.23,46.05v-8.73c0-.66.32-1.28.86-1.67l11.66-8.46-11.66-8.46c-.54-.39-.86-1.02-.86-1.67v-8.73l17.31,12.56c4.31,3.13,4.31,9.48,0,12.61l-17.31,12.56Z"/>
        </g>
      </g>
    </g>
  </g>
</svg>