<?xml version="1.0" encoding="UTF-8"?>
<svg id="Capa_2" data-name="Capa 2" xmlns="http://www.w3.org/2000/svg" viewBox="0 0 587.42 56.69">
  <defs>
    <style>
      .cls-1 {
        fill: #ce0019;
      }

      .cls-2 {
        fill: #243746;
      }
    </style>
  </defs>
  <g id="Capa_1-2" data-name="Capa 1">
    <g id="investigacion_uandes">
      <g>
        <path class="cls-2" d="M3.02,5.99c-.83,0-1.54-.29-2.13-.86-.59-.57-.89-1.29-.89-2.16S.29,1.33.86.8c.57-.53,1.29-.8,2.16-.8.79,0,1.48.27,2.08.8.59.53.89,1.26.89,2.16s-.29,1.59-.86,2.16c-.57.57-1.27.86-2.11.86ZM.95,42.93V13.05h4.15v29.89H.95Z"/>
        <path class="cls-2" d="M14.05,42.93V13.05h3.8l.24,5.34c.95-1.9,2.32-3.38,4.12-4.45,1.8-1.07,3.8-1.6,6.02-1.6s4.29.45,5.99,1.36c1.7.91,3.02,2.28,3.97,4.12s1.42,4.18,1.42,7.03v18.09h-4.15v-17.61c0-3.16-.69-5.51-2.08-7.06-1.38-1.54-3.34-2.31-5.87-2.31-1.78,0-3.37.43-4.77,1.27-1.4.85-2.51,2.09-3.32,3.71-.81,1.62-1.22,3.62-1.22,5.99v16.01h-4.15Z"/>
        <path class="cls-2" d="M55.51,42.93l-11.39-29.89h4.33l9.49,25.86,9.49-25.86h4.27l-11.45,29.89h-4.74Z"/>
        <path class="cls-2" d="M88.72,43.65c-2.77,0-5.21-.65-7.32-1.96-2.12-1.31-3.78-3.13-4.98-5.49-1.21-2.35-1.81-5.11-1.81-8.27s.59-5.91,1.78-8.24c1.19-2.33,2.86-4.14,5.01-5.43,2.15-1.28,4.63-1.93,7.44-1.93s5.34.65,7.35,1.96c2.02,1.3,3.55,3.01,4.6,5.1,1.05,2.1,1.57,4.39,1.57,6.88v1.22c0,.42-.02.9-.06,1.45h-24.55v-3.5h20.58c-.12-3.04-1.08-5.4-2.88-7.06-1.8-1.66-4.06-2.49-6.79-2.49-1.74,0-3.38.41-4.92,1.22-1.54.81-2.78,2-3.71,3.56-.93,1.56-1.39,3.53-1.39,5.9v1.54c0,2.69.48,4.92,1.45,6.7.97,1.78,2.22,3.1,3.77,3.97,1.54.87,3.16,1.31,4.86,1.31,2.25,0,4.11-.5,5.57-1.51,1.46-1.01,2.51-2.4,3.14-4.18h4.09c-.47,1.74-1.29,3.31-2.43,4.71-1.15,1.4-2.59,2.51-4.33,3.32-1.74.81-3.76,1.22-6.05,1.22Z"/>
        <path class="cls-2" d="M120.09,43.65c-2.37,0-4.46-.4-6.26-1.19-1.8-.79-3.24-1.93-4.33-3.41-1.09-1.48-1.75-3.25-1.99-5.31h4.33c.2,1.15.64,2.19,1.33,3.14.69.95,1.63,1.7,2.82,2.25,1.19.55,2.59.83,4.21.83,1.5,0,2.74-.22,3.71-.65.97-.43,1.7-1.04,2.19-1.81.49-.77.74-1.63.74-2.58,0-1.31-.31-2.32-.92-3.05-.61-.73-1.49-1.27-2.64-1.63-1.15-.36-2.53-.69-4.15-1.01-1.34-.24-2.62-.55-3.83-.95-1.21-.39-2.29-.91-3.26-1.54-.97-.63-1.74-1.43-2.31-2.4-.57-.97-.86-2.11-.86-3.41,0-1.7.42-3.19,1.27-4.48.85-1.28,2.07-2.29,3.65-3.02,1.58-.73,3.44-1.1,5.57-1.1,3.04,0,5.53.76,7.47,2.28,1.94,1.52,3.06,3.75,3.38,6.67h-4.15c-.16-1.62-.83-2.91-2.02-3.85-1.19-.95-2.79-1.42-4.8-1.42s-3.49.41-4.54,1.22c-1.05.81-1.57,1.91-1.57,3.29,0,.87.28,1.62.83,2.25.55.63,1.37,1.18,2.46,1.63,1.09.45,2.42.84,4,1.16,1.9.36,3.65.82,5.25,1.39,1.6.57,2.91,1.44,3.91,2.61s1.51,2.82,1.51,4.95c.04,1.78-.4,3.36-1.3,4.74-.91,1.38-2.18,2.46-3.82,3.23-1.64.77-3.61,1.16-5.9,1.16Z"/>
        <path class="cls-2" d="M148.37,42.93c-1.7,0-3.16-.27-4.39-.8-1.23-.53-2.16-1.42-2.82-2.67-.65-1.25-.98-2.96-.98-5.13v-17.73h-5.22v-3.56h5.22l.59-6.94h3.56v7h8.95v3.5h-8.95v17.73c0,1.98.39,3.31,1.19,4,.79.69,2.19,1.04,4.21,1.04h3.08v3.56h-4.45Z"/>
        <path class="cls-2" d="M162.43,5.99c-.83,0-1.54-.29-2.13-.86-.59-.57-.89-1.29-.89-2.16s.29-1.63.86-2.16c.57-.53,1.29-.8,2.16-.8.79,0,1.48.27,2.08.8.59.53.89,1.26.89,2.16s-.29,1.59-.86,2.16c-.57.57-1.27.86-2.11.86ZM160.35,42.93V13.05h4.15v29.89h-4.15Z"/>
        <path class="cls-2" d="M185.02,56.69c-2.65,0-4.99-.36-7.03-1.07-2.04-.71-3.64-1.78-4.8-3.2-1.17-1.42-1.75-3.18-1.75-5.28,0-.83.15-1.73.44-2.7.3-.97.88-1.95,1.75-2.94.87-.99,2.1-1.88,3.68-2.67l3.38,1.48c-2.1.99-3.46,2.07-4.09,3.23-.63,1.17-.95,2.22-.95,3.17,0,1.42.4,2.61,1.22,3.56.81.95,1.92,1.66,3.32,2.13,1.4.47,3.01.71,4.83.71s3.39-.26,4.71-.77c1.32-.51,2.34-1.26,3.05-2.22.71-.97,1.07-2.09,1.07-3.35,0-1.46-.56-2.7-1.69-3.71-1.13-1.01-3.21-1.59-6.26-1.75-2.41-.16-4.4-.36-5.96-.62-1.56-.26-2.85-.57-3.85-.95-1.01-.38-1.84-.78-2.49-1.22-.65-.43-1.28-.91-1.87-1.42v-1.36l5.69-5.4,3.8,1.36-5.57,4.98.36-1.6c.47.32.91.61,1.3.89.39.28.94.5,1.63.68.69.18,1.66.36,2.91.53,1.24.18,2.94.35,5.07.5,2.73.2,4.9.67,6.52,1.42,1.62.75,2.81,1.76,3.56,3.02.75,1.27,1.13,2.75,1.13,4.45s-.47,3.31-1.39,4.83c-.93,1.52-2.35,2.78-4.27,3.77-1.92.99-4.4,1.48-7.44,1.48ZM184.96,33.45c-2.53,0-4.66-.47-6.38-1.42-1.72-.95-3.03-2.22-3.94-3.82-.91-1.6-1.36-3.37-1.36-5.31s.45-3.76,1.36-5.34c.91-1.58,2.23-2.85,3.97-3.8,1.74-.95,3.85-1.42,6.35-1.42s4.65.48,6.37,1.42c1.72.95,3.02,2.21,3.91,3.8.89,1.58,1.33,3.36,1.33,5.34s-.44,3.71-1.33,5.31c-.89,1.6-2.19,2.88-3.91,3.82-1.72.95-3.85,1.42-6.37,1.42ZM184.96,29.89c2.29,0,4.1-.6,5.43-1.81,1.32-1.21,1.99-2.94,1.99-5.19s-.66-4.03-1.99-5.22c-1.32-1.19-3.13-1.78-5.43-1.78s-4.12.59-5.49,1.78c-1.36,1.19-2.05,2.93-2.05,5.22s.67,3.98,2.02,5.19c1.34,1.21,3.18,1.81,5.52,1.81ZM189.83,16.78l-1.48-3.74h12.1v3.38l-10.61.36Z"/>
        <path class="cls-2" d="M215.74,43.65c-2.41,0-4.42-.43-6.02-1.3-1.6-.87-2.79-2-3.56-3.38s-1.16-2.91-1.16-4.57c0-2.06.52-3.8,1.57-5.22,1.05-1.42,2.53-2.49,4.45-3.2,1.92-.71,4.12-1.07,6.61-1.07h8.06c0-1.94-.3-3.58-.89-4.92-.59-1.34-1.45-2.36-2.58-3.05-1.13-.69-2.56-1.04-4.3-1.04-2.06,0-3.82.51-5.28,1.54-1.46,1.03-2.37,2.53-2.73,4.51h-4.33c.24-2.1.96-3.85,2.16-5.28,1.21-1.42,2.71-2.5,4.51-3.23,1.8-.73,3.69-1.1,5.66-1.1,2.73,0,4.97.53,6.73,1.57,1.76,1.05,3.06,2.48,3.91,4.3.85,1.82,1.28,3.91,1.28,6.29v18.44h-3.8l-.18-5.46c-.4.83-.9,1.62-1.51,2.37-.61.75-1.33,1.4-2.13,1.96-.81.55-1.75,1-2.82,1.33-1.07.34-2.29.5-3.68.5ZM216.21,39.97c1.5,0,2.83-.3,3.97-.89,1.15-.59,2.13-1.38,2.97-2.37.83-.99,1.46-2.11,1.9-3.38.43-1.27.65-2.55.65-3.85v-1.07h-7.77c-2.1,0-3.78.26-5.04.77-1.27.51-2.17,1.21-2.73,2.08-.55.87-.83,1.88-.83,3.02s.27,2.15.8,2.99c.53.85,1.31,1.51,2.34,1.99,1.03.47,2.27.71,3.74.71Z"/>
        <path class="cls-2" d="M250.85,43.65c-2.73,0-5.19-.65-7.38-1.96-2.19-1.31-3.92-3.13-5.19-5.49-1.27-2.35-1.9-5.07-1.9-8.15s.63-5.96,1.9-8.27c1.27-2.31,2.99-4.13,5.19-5.46,2.19-1.32,4.65-1.99,7.38-1.99,3.48,0,6.38.9,8.69,2.7,2.31,1.8,3.79,4.18,4.42,7.15h-4.15c-.44-1.98-1.47-3.51-3.11-4.6-1.64-1.09-3.59-1.63-5.84-1.63-1.82,0-3.5.44-5.04,1.33-1.54.89-2.79,2.22-3.74,4-.95,1.78-1.42,4.03-1.42,6.76,0,2.02.28,3.78.83,5.28.55,1.5,1.31,2.76,2.28,3.77.97,1.01,2.06,1.77,3.26,2.28,1.21.51,2.48.77,3.82.77,1.46,0,2.82-.25,4.06-.74,1.25-.49,2.3-1.22,3.17-2.16.87-.95,1.44-2.09,1.72-3.44h4.15c-.59,2.89-2.06,5.25-4.39,7.09-2.33,1.84-5.24,2.76-8.72,2.76Z"/>
        <path class="cls-2" d="M273.74,5.99c-.83,0-1.54-.29-2.13-.86-.59-.57-.89-1.29-.89-2.16s.29-1.63.86-2.16c.57-.53,1.29-.8,2.16-.8.79,0,1.48.27,2.08.8.59.53.89,1.26.89,2.16s-.29,1.59-.86,2.16c-.57.57-1.27.86-2.11.86ZM271.66,42.93V13.05h4.15v29.89h-4.15Z"/>
        <path class="cls-2" d="M297.93,43.65c-2.73,0-5.19-.64-7.38-1.93-2.19-1.28-3.92-3.1-5.19-5.46-1.27-2.35-1.9-5.09-1.9-8.21s.64-6.03,1.93-8.36c1.28-2.33,3.03-4.14,5.25-5.43,2.21-1.28,4.69-1.93,7.41-1.93s5.36.64,7.53,1.93c2.17,1.29,3.89,3.09,5.16,5.43,1.27,2.33,1.9,5.12,1.9,8.36s-.64,5.86-1.93,8.21c-1.29,2.35-3.02,4.17-5.22,5.46-2.19,1.28-4.71,1.93-7.56,1.93ZM297.99,40.09c1.86,0,3.57-.45,5.13-1.36,1.56-.91,2.83-2.26,3.8-4.06.97-1.8,1.45-4.02,1.45-6.67s-.47-4.92-1.42-6.7c-.95-1.78-2.2-3.11-3.77-4-1.56-.89-3.27-1.33-5.13-1.33s-3.46.45-5.04,1.36c-1.58.91-2.86,2.24-3.83,4-.97,1.76-1.45,3.98-1.45,6.67s.47,4.87,1.42,6.67,2.2,3.15,3.77,4.06c1.56.91,3.25,1.36,5.07,1.36ZM292.42,10.5l-.42-2.97,11.62-7.53.53,3.62-11.74,6.88Z"/>
        <path class="cls-2" d="M319.75,42.93V13.05h3.8l.24,5.34c.95-1.9,2.32-3.38,4.12-4.45,1.8-1.07,3.8-1.6,6.02-1.6s4.29.45,5.99,1.36c1.7.91,3.02,2.28,3.97,4.12.95,1.84,1.42,4.18,1.42,7.03v18.09h-4.15v-17.61c0-3.16-.69-5.51-2.08-7.06-1.38-1.54-3.34-2.31-5.87-2.31-1.78,0-3.37.43-4.77,1.27-1.4.85-2.51,2.09-3.32,3.71-.81,1.62-1.22,3.62-1.22,5.99v16.01h-4.15Z"/>
      </g>
      <g>
        <path class="cls-2" d="M515.15,15.04c0,.46-.56.67-.86.33-1-1.13-2.26-2.29-3.35-2.81-1.43-.69-2.98-1.03-4.65-1.03-2.37,0-4.55.64-6.55,1.9-2,1.27-3.59,3.09-4.77,5.46-1.19,2.37-1.78,5.24-1.78,8.61,0,3.04.53,5.77,1.59,8.21,1.06,2.43,2.57,4.35,4.52,5.74,1.95,1.39,4.28,2.09,6.99,2.09,1.54,0,3.03-.3,4.46-.9,1.1-.46,2.46-1.71,3.53-2.91.3-.34.87-.13.87.33v2.87h7.68V2.09h-7.68v12.95ZM514.94,32.19c-.6,1.33-1.46,2.37-2.56,3.12-1.1.75-2.42,1.12-3.96,1.12s-2.81-.36-3.93-1.09c-1.12-.73-1.99-1.76-2.59-3.09-.6-1.33-.9-2.91-.9-4.74s.3-3.4.9-4.71c.6-1.31,1.47-2.33,2.59-3.06,1.12-.73,2.43-1.09,3.93-1.09s2.86.37,3.96,1.09c1.1.73,1.95,1.76,2.56,3.09.6,1.33.9,2.89.9,4.68s-.3,3.35-.9,4.68Z"/>
        <path class="cls-2" d="M583.55,25.95c-1.16-.71-2.41-1.27-3.74-1.69-1.33-.41-2.62-.77-3.87-1.06-1.33-.33-2.4-.63-3.21-.9-.81-.27-1.39-.59-1.75-.97-.35-.37-.53-.83-.53-1.37,0-.79.38-1.41,1.15-1.87.77-.46,1.76-.69,2.96-.69,1.37,0,2.67.3,3.9.9.97.48,1.79,1.14,2.46,1.99.31.39.89.43,1.28.12l4.04-3.2c-1.17-1.83-2.75-3.23-4.74-4.21-2-.98-4.22-1.47-6.68-1.47-4.08,0-7.23,1.15-9.44,3.45-1.47,1.54-2.18,3.6-2.17,5.73,0,1.59.33,2.92.97,3.99.65,1.08,1.49,1.97,2.53,2.65,1.04.69,2.18,1.24,3.43,1.65,1.25.42,2.45.79,3.62,1.12,1.12.29,2.14.59,3.06.9.91.31,1.64.71,2.18,1.19.54.48.81,1.09.81,1.84,0,.92-.43,1.68-1.28,2.28-.85.6-2.05.9-3.59.9-1.96,0-3.59-.49-4.9-1.47-1-.75-1.83-1.55-2.48-2.41-.32-.42-.93-.47-1.33-.12l-4.52,3.93c.71.92,1.65,1.87,2.84,2.87,1.19,1,2.63,1.83,4.34,2.5,1.71.66,3.7,1,5.99,1,2.54,0,4.74-.44,6.61-1.31,1.87-.87,3.33-2.09,4.37-3.65,1.04-1.56,1.56-3.36,1.56-5.4,0-1.79-.35-3.27-1.06-4.43-.71-1.16-1.64-2.1-2.81-2.81Z"/>
        <path class="cls-2" d="M554.41,16.12c-1.17-1.44-2.64-2.56-4.43-3.37-1.79-.81-3.89-1.22-6.3-1.22-2.58,0-4.8.47-6.65,1.4-1.85.94-3.36,2.18-4.52,3.71-1.17,1.54-2.04,3.27-2.62,5.18-.58,1.91-.87,3.87-.87,5.87s.29,4.07.87,5.96c.58,1.89,1.49,3.58,2.71,5.06,1.23,1.48,2.8,2.65,4.71,3.53,1.91.87,4.2,1.31,6.86,1.31,1.79,0,3.38-.16,4.77-.47,1.39-.31,2.73-.82,4.03-1.53,1.29-.71,2.66-1.62,4.12-2.75l-3.87-5.24c-1.17,1.04-2.5,1.84-3.99,2.4-1.5.56-3.04.84-4.62.84-2.16,0-3.96-.56-5.4-1.69-1.2-.94-1.97-2.26-2.31-3.95-.11-.53.28-1.04.82-1.04h20.06c.08-.58.13-1.13.16-1.65.02-.52.03-.93.03-1.22,0-2.16-.3-4.2-.9-6.11-.6-1.91-1.49-3.59-2.65-5.02ZM549.95,24.38h-13.27c.13-1.03.45-2.04.97-3.02.52-.98,1.3-1.78,2.34-2.4,1.04-.62,2.33-.94,3.87-.94,1.04,0,1.97.16,2.78.47.81.31,1.51.76,2.09,1.34.58.58,1.04,1.26,1.37,2.03.26.59.41,1.22.47,1.87.03.35-.27.65-.62.65Z"/>
        <path class="cls-2" d="M482.36,13.03c-1.69-1-3.78-1.5-6.27-1.5-2.16,0-4.14.52-5.93,1.56-1.2.7-2.19,1.72-3,3.02v-3.96h-7.74v30.76h6.9c.47,0,.84-.38.84-.84v-17.77c0-1.92.56-3.4,1.67-4.46,1.11-1.06,2.71-1.58,4.79-1.58.03,0,.05,0,.08,0,.03,0,.05,0,.07,0,.44,0,.84.04,1.23.09,0,0,.01,0,.02,0,.34.05.66.13.96.22.21.06.41.14.6.22,0,0,.01,0,.02,0,.56.24,1.07.53,1.47.93,1,.99,1.5,2.45,1.5,4.4v18.77h6.9c.46,0,.84-.38.84-.84v-18.38c0-2.45-.41-4.6-1.22-6.43-.81-1.83-2.06-3.25-3.74-4.24Z"/>
        <path class="cls-2" d="M409.94,13v17.77c0,1.92-.56,3.4-1.67,4.46-1.11,1.06-2.71,1.58-4.79,1.58-.03,0-.05,0-.08,0-.03,0-.05,0-.07,0-.44,0-.84-.04-1.23-.09,0,0-.01,0-.02,0-.34-.05-.66-.13-.96-.22-.21-.06-.41-.14-.6-.22,0,0-.01,0-.02,0-.56-.24-1.07-.53-1.47-.93-1-.99-1.5-2.45-1.5-4.4V12.16h-6.9c-.47,0-.84.38-.84.84v18.38c0,2.45.41,4.6,1.22,6.43.81,1.83,2.06,3.25,3.74,4.24,1.69,1,3.78,1.5,6.27,1.5,2.16,0,4.14-.52,5.93-1.56.84-.49,1.58-1.14,2.23-1.94.26-.32.77-.15.77.26v2.62s7.74,0,7.74,0V12.16h-6.9c-.47,0-.84.38-.84.84Z"/>
        <path class="cls-2" d="M444.45,12.36c-.69-.23-1.43-.4-2.2-.53-.26-.04-.53-.07-.8-.1-.87-.11-1.77-.19-2.74-.19-2.62,0-5.06.39-7.33,1.15-2.04.69-4.04,1.78-5.99,3.26-.37.28-.44.81-.16,1.18l3.44,4.64c1.29-1.16,2.78-2.07,4.46-2.71,1.68-.65,3.34-.97,4.96-.97,1.31,0,2.43.22,3.37.63.28.12.55.26.8.41.16.1.33.19.48.3,1.14.9,1.72,2.26,1.72,4.09v.75h-8.86c-1.46,0-2.82.13-4.09.38-1.27.25-2.42.69-3.46,1.31-1.21.67-2.17,1.63-2.9,2.9-.73,1.27-1.09,2.8-1.09,4.59,0,2,.51,3.77,1.53,5.3,1.02,1.54,2.41,2.73,4.18,3.56,1.77.83,3.78,1.25,6.02,1.25,1.69,0,3.29-.36,4.79-1.07l.03-.04v-4.6c0-.29-.23-.52-.52-.52h-3.18c-1.46,0-2.63-.32-3.53-.95-1.08-.76-1.66-2.09-1.5-3.4.04-.35.14-.68.28-.99.21-.44.52-.8.94-1.09.46-.38,1.01-.61,1.65-.72.65-.1,1.3-.16,1.97-.16h6.63c.61,0,1.11.5,1.11,1.11v11.81h7.74v-19.41c0-3.74-1.19-6.68-3.56-8.8-1.17-1.04-2.56-1.83-4.18-2.36Z"/>
        <path class="cls-1" d="M357.46,46.14v-8.75c0-.66.32-1.28.86-1.67l11.69-8.48-11.69-8.48c-.54-.39-.86-1.02-.86-1.68v-8.75l17.35,12.59c4.32,3.14,4.32,9.51,0,12.65l-17.35,12.59Z"/>
      </g>
    </g>
  </g>
</svg>