<?xml version="1.0" encoding="UTF-8"?>
<svg id="Capa_2" data-name="Capa 2" xmlns="http://www.w3.org/2000/svg" viewBox="0 0 447.42 135.86">
  <defs>
    <style>
      .cls-1 {
        fill: #243746;
      }
    </style>
  </defs>
  <g id="Capa_1-2" data-name="Capa 1">
    <g id="pastoral_uandes_mono">
      <path class="cls-1" d="M66.04,99.12c4.36-8.04,7.08-16.92,7.94-26.07,5.6,19.18,21.09,34.14,40.58,38.99,9.03-11.1,14.45-25.25,14.45-40.68,0-35.62-28.88-64.5-64.5-64.5S0,35.74,0,71.36c0,15.41,5.41,29.56,14.42,40.65,22.28-5.72,42.03-25.36,42.03-45.28v-19.5h-16.67v-14.94h16.67v-11.67h14.97v11.67h16.67v14.94h-16.67v19.5c0,26.96-16.14,50.15-39.29,60.43,9.51,5.53,20.56,8.69,32.36,8.69s22.85-3.17,32.36-8.7c-13.04-5.8-23.86-15.69-30.82-28.05Z"/>
      <g>
        <g>
          <path class="cls-1" d="M150.84,78.69V18.08h5.36l.5,7.62c.89-1.51,2.06-2.92,3.52-4.23,1.45-1.31,3.19-2.37,5.23-3.18,2.04-.81,4.37-1.21,6.99-1.21,4.07,0,7.63.98,10.67,2.93,3.04,1.95,5.4,4.59,7.07,7.91,1.67,3.32,2.51,7.1,2.51,11.34s-.85,8.02-2.55,11.34c-1.7,3.32-4.06,5.93-7.07,7.83-3.01,1.9-6.59,2.85-10.71,2.85-3.57,0-6.71-.77-9.42-2.3-2.71-1.53-4.79-3.7-6.24-6.49v26.2h-5.86ZM171.94,56.17c2.9,0,5.47-.71,7.7-2.13,2.23-1.42,3.98-3.39,5.23-5.9,1.26-2.51,1.88-5.5,1.88-8.96s-.63-6.39-1.88-8.96c-1.26-2.57-3-4.55-5.23-5.94-2.23-1.39-4.8-2.09-7.7-2.09s-5.47.7-7.7,2.09c-2.23,1.4-3.99,3.36-5.27,5.9-1.28,2.54-1.93,5.54-1.93,9s.64,6.38,1.93,8.91c1.28,2.54,3.04,4.52,5.27,5.94,2.23,1.42,4.8,2.13,7.7,2.13Z"/>
          <path class="cls-1" d="M216.22,61.27c-3.4,0-6.24-.62-8.5-1.84-2.26-1.23-3.93-2.82-5.02-4.77-1.09-1.95-1.63-4.1-1.63-6.45,0-2.9.74-5.36,2.22-7.37,1.48-2.01,3.57-3.52,6.28-4.52,2.71-1,5.82-1.51,9.33-1.51h11.38c0-2.73-.42-5.05-1.26-6.95-.84-1.9-2.05-3.33-3.64-4.31-1.59-.98-3.61-1.46-6.07-1.46-2.9,0-5.39.73-7.45,2.18-2.07,1.45-3.35,3.57-3.85,6.36h-6.11c.34-2.96,1.35-5.44,3.06-7.45,1.7-2.01,3.82-3.53,6.36-4.56,2.54-1.03,5.2-1.55,7.99-1.55,3.85,0,7.02.74,9.5,2.22,2.48,1.48,4.32,3.5,5.52,6.07,1.2,2.57,1.8,5.52,1.8,8.87v26.03h-5.36l-.25-7.7c-.56,1.17-1.27,2.29-2.13,3.35-.87,1.06-1.87,1.98-3.01,2.76-1.14.78-2.47,1.41-3.98,1.88-1.51.47-3.24.71-5.19.71ZM216.89,56.08c2.12,0,3.99-.42,5.61-1.26,1.62-.84,3.01-1.95,4.19-3.35,1.17-1.39,2.06-2.98,2.68-4.77.61-1.79.92-3.6.92-5.44v-1.51h-10.97c-2.96,0-5.33.36-7.12,1.09-1.79.73-3.07,1.7-3.85,2.93-.78,1.23-1.17,2.65-1.17,4.27s.38,3.03,1.13,4.23c.75,1.2,1.85,2.14,3.31,2.8,1.45.67,3.21,1,5.27,1Z"/>
          <path class="cls-1" d="M262.68,61.27c-3.35,0-6.29-.56-8.83-1.67-2.54-1.12-4.58-2.72-6.11-4.81-1.54-2.09-2.47-4.59-2.8-7.49h6.11c.28,1.62.91,3.1,1.88,4.44.98,1.34,2.3,2.4,3.98,3.18,1.67.78,3.65,1.17,5.94,1.17,2.12,0,3.86-.31,5.23-.92,1.37-.61,2.4-1.46,3.1-2.55.7-1.09,1.05-2.3,1.05-3.64,0-1.84-.43-3.28-1.3-4.31-.87-1.03-2.11-1.8-3.73-2.3-1.62-.5-3.57-.98-5.86-1.42-1.9-.34-3.7-.78-5.4-1.34-1.7-.56-3.24-1.28-4.6-2.18-1.37-.89-2.46-2.02-3.26-3.39-.81-1.37-1.21-2.97-1.21-4.81,0-2.4.6-4.51,1.8-6.32,1.2-1.81,2.92-3.24,5.15-4.27,2.23-1.03,4.86-1.55,7.87-1.55,4.3,0,7.81,1.08,10.55,3.22,2.73,2.15,4.32,5.29,4.77,9.42h-5.86c-.22-2.29-1.17-4.1-2.85-5.44-1.67-1.34-3.93-2.01-6.78-2.01s-4.93.57-6.4,1.72c-1.48,1.14-2.22,2.69-2.22,4.65,0,1.23.39,2.29,1.17,3.18.78.89,1.94,1.66,3.47,2.3,1.53.64,3.42,1.19,5.65,1.63,2.68.5,5.15,1.16,7.41,1.97,2.26.81,4.1,2.04,5.52,3.68,1.42,1.65,2.13,3.98,2.13,6.99.06,2.51-.56,4.74-1.84,6.7-1.28,1.95-3.08,3.47-5.4,4.56-2.32,1.09-5.09,1.63-8.33,1.63Z"/>
          <path class="cls-1" d="M302.61,60.27c-2.4,0-4.47-.38-6.19-1.13-1.73-.75-3.06-2.01-3.98-3.77-.92-1.76-1.38-4.17-1.38-7.24v-25.03h-7.37v-5.02h7.37l.84-9.79h5.02v9.88h12.64v4.94h-12.64v25.03c0,2.79.56,4.67,1.67,5.65,1.12.98,3.1,1.46,5.94,1.46h4.35v5.02h-6.28Z"/>
          <path class="cls-1" d="M336.09,61.27c-3.85,0-7.32-.91-10.42-2.72-3.1-1.81-5.54-4.38-7.32-7.7-1.79-3.32-2.68-7.18-2.68-11.59s.91-8.51,2.72-11.8c1.81-3.29,4.28-5.85,7.41-7.66,3.12-1.81,6.61-2.72,10.46-2.72s7.56.91,10.63,2.72c3.07,1.81,5.5,4.37,7.28,7.66,1.79,3.29,2.68,7.23,2.68,11.8s-.91,8.27-2.72,11.59c-1.81,3.32-4.27,5.89-7.37,7.7-3.1,1.81-6.65,2.72-10.67,2.72ZM336.17,56.25c2.62,0,5.04-.64,7.24-1.93,2.2-1.28,3.99-3.19,5.36-5.73,1.37-2.54,2.05-5.68,2.05-9.42s-.67-6.95-2.01-9.46c-1.34-2.51-3.11-4.39-5.32-5.65-2.21-1.26-4.62-1.88-7.24-1.88s-4.88.64-7.12,1.93c-2.23,1.28-4.03,3.17-5.4,5.65-1.37,2.48-2.05,5.62-2.05,9.42s.67,6.88,2.01,9.42c1.34,2.54,3.11,4.45,5.32,5.73,2.2,1.28,4.59,1.93,7.16,1.93Z"/>
          <path class="cls-1" d="M366.89,60.27V18.08h5.36l.42,8.12c.89-1.95,2.09-3.6,3.6-4.94,1.51-1.34,3.32-2.37,5.44-3.1,2.12-.72,4.52-1.09,7.2-1.09v6.11h-2.26c-1.79,0-3.52.24-5.19.71-1.67.48-3.15,1.27-4.44,2.39-1.28,1.12-2.32,2.62-3.1,4.52-.78,1.9-1.17,4.27-1.17,7.11v22.35h-5.86Z"/>
          <path class="cls-1" d="M410.59,61.27c-3.4,0-6.24-.62-8.5-1.84-2.26-1.23-3.93-2.82-5.02-4.77-1.09-1.95-1.63-4.1-1.63-6.45,0-2.9.74-5.36,2.22-7.37,1.48-2.01,3.57-3.52,6.28-4.52,2.71-1,5.82-1.51,9.33-1.51h11.38c0-2.73-.42-5.05-1.26-6.95-.84-1.9-2.05-3.33-3.64-4.31-1.59-.98-3.61-1.46-6.07-1.46-2.9,0-5.39.73-7.45,2.18-2.07,1.45-3.35,3.57-3.85,6.36h-6.11c.34-2.96,1.35-5.44,3.06-7.45,1.7-2.01,3.82-3.53,6.36-4.56,2.54-1.03,5.2-1.55,7.99-1.55,3.85,0,7.02.74,9.5,2.22,2.48,1.48,4.32,3.5,5.52,6.07,1.2,2.57,1.8,5.52,1.8,8.87v26.03h-5.36l-.25-7.7c-.56,1.17-1.27,2.29-2.13,3.35-.87,1.06-1.87,1.98-3.01,2.76-1.14.78-2.47,1.41-3.98,1.88-1.51.47-3.24.71-5.19.71ZM411.26,56.08c2.12,0,3.99-.42,5.61-1.26,1.62-.84,3.01-1.95,4.19-3.35,1.17-1.39,2.06-2.98,2.68-4.77.61-1.79.92-3.6.92-5.44v-1.51h-10.97c-2.96,0-5.33.36-7.12,1.09-1.79.73-3.07,1.7-3.85,2.93-.78,1.23-1.17,2.65-1.17,4.27s.38,3.03,1.13,4.23c.75,1.2,1.85,2.14,3.31,2.8,1.45.67,3.21,1,5.27,1Z"/>
          <path class="cls-1" d="M441.56,60.27V0h5.86v60.27h-5.86Z"/>
        </g>
        <g>
          <path class="cls-1" d="M327.98,94.97c0,.64-.79.95-1.22.47-1.41-1.59-3.19-3.23-4.73-3.97-2.02-.97-4.21-1.45-6.56-1.45-3.35,0-6.43.9-9.25,2.69-2.82,1.79-5.06,4.36-6.74,7.71-1.67,3.35-2.51,7.4-2.51,12.16,0,4.29.75,8.15,2.25,11.58,1.5,3.43,3.63,6.14,6.39,8.1,2.76,1.97,6.05,2.95,9.87,2.95,2.17,0,4.27-.43,6.3-1.28,1.56-.66,3.48-2.41,4.99-4.11.43-.48,1.22-.19,1.22.46v4.05h10.83v-57.63h-10.83v18.28ZM327.67,119.17c-.85,1.88-2.06,3.35-3.61,4.4-1.56,1.06-3.42,1.59-5.59,1.59s-3.96-.51-5.55-1.54c-1.59-1.03-2.81-2.48-3.65-4.36-.85-1.88-1.28-4.11-1.28-6.69s.42-4.8,1.28-6.65c.85-1.85,2.07-3.29,3.65-4.32,1.59-1.03,3.43-1.54,5.55-1.54s4.04.52,5.59,1.54c1.56,1.03,2.76,2.48,3.61,4.36.85,1.88,1.28,4.08,1.28,6.61s-.43,4.73-1.28,6.61Z"/>
          <path class="cls-1" d="M424.52,110.36c-1.64-1-3.41-1.79-5.28-2.38-1.88-.58-3.7-1.09-5.46-1.5-1.88-.47-3.39-.89-4.54-1.28-1.14-.38-1.97-.84-2.47-1.37-.5-.53-.75-1.17-.75-1.94,0-1.12.54-2,1.63-2.64,1.09-.65,2.48-.97,4.18-.97,1.94,0,3.77.43,5.51,1.28,1.36.67,2.52,1.61,3.47,2.81.43.55,1.25.6,1.8.17l5.7-4.52c-1.65-2.59-3.88-4.57-6.7-5.95-2.82-1.38-5.96-2.07-9.42-2.07-5.76,0-10.21,1.63-13.32,4.87-2.08,2.17-3.08,5.08-3.06,8.09.01,2.24.47,4.12,1.36,5.63.91,1.53,2.1,2.77,3.57,3.74,1.47.97,3.08,1.75,4.84,2.34,1.76.59,3.46,1.12,5.11,1.58,1.59.41,3.02.84,4.32,1.28,1.29.44,2.32,1,3.08,1.67.76.68,1.15,1.54,1.15,2.6,0,1.29-.6,2.36-1.81,3.22-1.2.85-2.89,1.28-5.06,1.28-2.76,0-5.06-.69-6.92-2.07-1.42-1.06-2.58-2.19-3.5-3.4-.45-.6-1.32-.66-1.88-.17l-6.38,5.55c1,1.29,2.33,2.64,4.01,4.05,1.67,1.41,3.71,2.59,6.12,3.52,2.41.94,5.23,1.41,8.46,1.41,3.58,0,6.69-.62,9.34-1.85,2.64-1.23,4.7-2.95,6.17-5.15,1.47-2.2,2.2-4.74,2.2-7.62,0-2.52-.5-4.61-1.5-6.25-1-1.64-2.32-2.96-3.96-3.96Z"/>
          <path class="cls-1" d="M383.39,96.49c-1.65-2.03-3.73-3.61-6.26-4.76-2.53-1.14-5.49-1.72-8.9-1.72-3.64,0-6.77.66-9.38,1.98-2.61,1.32-4.74,3.07-6.39,5.24-1.65,2.17-2.88,4.61-3.7,7.31-.82,2.7-1.23,5.46-1.23,8.28s.41,5.74,1.23,8.41c.82,2.67,2.1,5.05,3.83,7.14,1.73,2.08,3.95,3.74,6.65,4.98,2.7,1.23,5.93,1.85,9.69,1.85,2.52,0,4.77-.22,6.74-.66,1.97-.44,3.86-1.16,5.68-2.16,1.82-1,3.76-2.29,5.81-3.88l-5.46-7.4c-1.65,1.47-3.52,2.6-5.64,3.39-2.12.79-4.29,1.19-6.52,1.19-3.06,0-5.59-.79-7.62-2.38-1.69-1.33-2.78-3.18-3.26-5.58-.15-.75.39-1.47,1.16-1.47h28.31c.12-.82.19-1.6.22-2.33.03-.73.04-1.31.04-1.72,0-3.05-.43-5.93-1.28-8.63-.85-2.7-2.1-5.07-3.74-7.09ZM377.1,108.15h-18.73c.18-1.46.63-2.88,1.37-4.26.73-1.38,1.83-2.51,3.3-3.39,1.47-.88,3.29-1.32,5.46-1.32,1.47,0,2.77.22,3.92.66,1.15.44,2.13,1.07,2.95,1.89.82.82,1.47,1.78,1.94,2.86.36.84.58,1.72.67,2.64.04.5-.38.91-.88.91Z"/>
          <path class="cls-1" d="M281.69,92.13c-2.38-1.41-5.33-2.12-8.85-2.12-3.05,0-5.84.74-8.37,2.2-1.7.98-3.09,2.43-4.23,4.27v-5.59h-10.92v43.43h9.73c.66,0,1.19-.53,1.19-1.19v-25.08c0-2.71.78-4.8,2.35-6.29,1.57-1.49,3.82-2.24,6.76-2.24.04,0,.08,0,.12,0,.04,0,.07,0,.1,0,.62,0,1.19.05,1.73.13.01,0,.02,0,.03,0,.49.07.94.18,1.36.31.3.09.58.2.85.31,0,0,.02,0,.03.01.79.33,1.51.75,2.08,1.31,1.41,1.39,2.12,3.46,2.12,6.21v26.5h9.74c.66,0,1.19-.53,1.19-1.19v-25.94c0-3.46-.57-6.49-1.72-9.07-1.14-2.59-2.91-4.58-5.28-5.99Z"/>
          <path class="cls-1" d="M179.47,92.08v25.08c0,2.71-.78,4.8-2.35,6.29-1.57,1.49-3.82,2.24-6.76,2.24-.04,0-.08,0-.12,0-.04,0-.07,0-.1,0-.62,0-1.19-.05-1.73-.13-.01,0-.02,0-.03,0-.49-.07-.94-.18-1.36-.31-.3-.09-.58-.2-.85-.31,0,0-.02,0-.03-.01-.79-.33-1.51-.75-2.08-1.31-1.41-1.39-2.12-3.46-2.12-6.21v-26.5h-9.74c-.66,0-1.19.53-1.19,1.19v25.94c0,3.46.57,6.49,1.72,9.07,1.14,2.59,2.91,4.58,5.28,5.99,2.38,1.41,5.33,2.12,8.85,2.12,3.05,0,5.84-.74,8.37-2.2,1.19-.69,2.24-1.61,3.15-2.74.36-.45,1.08-.21,1.08.37v3.69s10.92,0,10.92,0v-43.43h-9.73c-.66,0-1.19.53-1.19,1.19Z"/>
          <path class="cls-1" d="M228.18,91.18c-.97-.32-2.01-.56-3.1-.75-.36-.06-.75-.1-1.13-.15-1.23-.16-2.5-.27-3.87-.27-3.7,0-7.15.55-10.35,1.63-2.88.98-5.7,2.51-8.46,4.6-.52.39-.62,1.14-.23,1.66l4.85,6.55c1.82-1.64,3.92-2.92,6.3-3.83,2.38-.91,4.71-1.36,7-1.36,1.85,0,3.42.31,4.75.88.4.17.78.36,1.13.58.23.14.47.26.68.43,1.61,1.26,2.42,3.19,2.42,5.77v1.06h-12.51c-2.06,0-3.98.18-5.77.53-1.79.35-3.42.97-4.89,1.85-1.7.94-3.07,2.3-4.1,4.1-1.03,1.79-1.54,3.95-1.54,6.47,0,2.82.72,5.32,2.16,7.49,1.44,2.17,3.41,3.85,5.9,5.02,2.49,1.17,5.33,1.76,8.5,1.76,2.39,0,4.64-.51,6.76-1.51l.04-.06v-6.5c0-.41-.33-.73-.73-.73h-4.48c-2.05,0-3.72-.45-4.98-1.34-1.52-1.07-2.34-2.95-2.11-4.8.06-.5.2-.97.4-1.4.29-.61.73-1.13,1.32-1.54.65-.53,1.42-.87,2.33-1.02.91-.14,1.83-.22,2.77-.22h9.35c.87,0,1.57.7,1.57,1.57l.02,16.66h10.91v-27.39c0-5.29-1.67-9.42-5.02-12.42-1.65-1.47-3.62-2.58-5.9-3.33Z"/>
        </g>
      </g>
    </g>
  </g>
</svg>