<?xml version="1.0" encoding="UTF-8"?>
<svg id="Capa_2" data-name="Capa 2" xmlns="http://www.w3.org/2000/svg" viewBox="0 0 504.52 57.32">
  <defs>
    <style>
      .cls-1 {
        fill: #00c3ca;
      }

      .cls-2 {
        fill: #ffda38;
      }

      .cls-3 {
        fill: #243746;
      }
    </style>
  </defs>
  <g id="Capa_1-2" data-name="Capa 1">
    <g id="pastoral_uandes_horizontal_color">
      <g>
        <circle class="cls-2" cx="26.9" cy="28.66" r="26.9"/>
        <path class="cls-1" d="M27.54,40.24c1.82-3.35,2.95-7.06,3.31-10.87,2.34,8,8.79,14.23,16.92,16.26,3.77-4.63,6.02-10.53,6.02-16.96,0-14.85-12.04-26.9-26.9-26.9S0,13.81,0,28.66C0,35.09,2.25,40.99,6.01,45.61c9.29-2.38,17.53-10.58,17.53-18.88v-8.13h-6.95v-6.23h6.95v-4.86h6.24v4.86h6.95v6.23h-6.95v8.13c0,11.24-6.73,20.91-16.38,25.2,3.97,2.3,8.57,3.63,13.49,3.63s9.53-1.32,13.49-3.63c-5.44-2.42-9.95-6.54-12.85-11.69Z"/>
      </g>
      <g>
        <path class="cls-1" d="M69.46,57.32V13.17h3.9l.37,5.55c.65-1.1,1.5-2.12,2.56-3.08,1.06-.95,2.33-1.73,3.81-2.32,1.48-.59,3.18-.88,5.09-.88,2.97,0,5.56.71,7.77,2.13,2.22,1.42,3.93,3.34,5.15,5.76,1.22,2.42,1.83,5.17,1.83,8.26s-.62,5.84-1.86,8.26c-1.24,2.42-2.96,4.32-5.15,5.7s-4.8,2.07-7.81,2.07c-2.6,0-4.89-.56-6.86-1.68-1.97-1.12-3.49-2.69-4.54-4.73v19.09h-4.27ZM84.83,40.92c2.11,0,3.98-.52,5.61-1.55,1.63-1.04,2.9-2.47,3.81-4.3.91-1.83,1.37-4,1.37-6.52s-.46-4.65-1.37-6.52c-.91-1.87-2.19-3.31-3.81-4.33-1.63-1.02-3.5-1.52-5.61-1.52s-3.98.51-5.61,1.52c-1.63,1.02-2.91,2.45-3.84,4.3-.94,1.85-1.4,4.04-1.4,6.55s.47,4.64,1.4,6.49c.93,1.85,2.22,3.29,3.84,4.33,1.63,1.04,3.5,1.55,5.61,1.55Z"/>
        <path class="cls-1" d="M117.09,44.64c-2.48,0-4.54-.45-6.19-1.34-1.65-.89-2.87-2.05-3.66-3.48-.79-1.42-1.19-2.99-1.19-4.7,0-2.11.54-3.9,1.62-5.37,1.08-1.46,2.6-2.56,4.57-3.29,1.97-.73,4.24-1.1,6.8-1.1h8.29c0-1.99-.3-3.68-.91-5.06-.61-1.38-1.49-2.43-2.65-3.14-1.16-.71-2.63-1.07-4.42-1.07-2.11,0-3.92.53-5.43,1.59-1.5,1.06-2.44,2.6-2.81,4.63h-4.45c.24-2.15.99-3.96,2.23-5.43,1.24-1.46,2.78-2.57,4.63-3.32,1.85-.75,3.79-1.13,5.82-1.13,2.8,0,5.11.54,6.92,1.62,1.81,1.08,3.15,2.55,4.02,4.42.87,1.87,1.31,4.02,1.31,6.46v18.96h-3.9l-.18-5.61c-.41.85-.93,1.67-1.56,2.44-.63.77-1.36,1.44-2.2,2.01-.83.57-1.8,1.03-2.9,1.37-1.1.35-2.36.52-3.78.52ZM117.57,40.86c1.54,0,2.91-.3,4.09-.91,1.18-.61,2.2-1.42,3.05-2.44.85-1.02,1.5-2.17,1.95-3.48.45-1.3.67-2.62.67-3.96v-1.1h-7.99c-2.16,0-3.88.26-5.18.79-1.3.53-2.24,1.24-2.8,2.13-.57.9-.85,1.93-.85,3.11s.27,2.21.82,3.08c.55.88,1.35,1.56,2.41,2.04,1.06.49,2.34.73,3.84.73Z"/>
        <path class="cls-1" d="M150.93,44.64c-2.44,0-4.58-.41-6.43-1.22-1.85-.81-3.33-1.98-4.45-3.51-1.12-1.52-1.8-3.34-2.04-5.46h4.45c.2,1.18.66,2.26,1.37,3.23.71.98,1.68,1.75,2.9,2.32,1.22.57,2.66.85,4.33.85,1.54,0,2.81-.22,3.81-.67,1-.45,1.75-1.07,2.26-1.86.51-.79.76-1.68.76-2.65,0-1.34-.32-2.39-.95-3.14-.63-.75-1.53-1.31-2.71-1.68-1.18-.37-2.6-.71-4.27-1.04-1.38-.24-2.69-.57-3.93-.98-1.24-.41-2.36-.93-3.35-1.59-1-.65-1.79-1.47-2.38-2.47-.59-1-.88-2.16-.88-3.51,0-1.75.44-3.28,1.31-4.6.87-1.32,2.12-2.36,3.75-3.11,1.63-.75,3.54-1.13,5.73-1.13,3.13,0,5.69.78,7.68,2.35,1.99,1.57,3.15,3.85,3.48,6.86h-4.27c-.16-1.67-.85-2.99-2.07-3.96-1.22-.98-2.87-1.46-4.94-1.46s-3.59.42-4.66,1.25c-1.08.83-1.62,1.96-1.62,3.38,0,.89.28,1.67.85,2.32.57.65,1.41,1.21,2.53,1.68,1.12.47,2.49.86,4.12,1.19,1.95.37,3.75.84,5.4,1.43,1.65.59,2.99,1.48,4.02,2.68,1.04,1.2,1.55,2.9,1.55,5.09.04,1.83-.41,3.46-1.34,4.88-.94,1.42-2.25,2.53-3.93,3.32-1.69.79-3.71,1.19-6.07,1.19Z"/>
        <path class="cls-1" d="M180.02,43.9c-1.75,0-3.25-.27-4.51-.82-1.26-.55-2.23-1.46-2.9-2.74-.67-1.28-1.01-3.04-1.01-5.27v-18.23h-5.37v-3.66h5.37l.61-7.13h3.66v7.2h9.21v3.6h-9.21v18.23c0,2.03.41,3.41,1.22,4.12.81.71,2.26,1.07,4.33,1.07h3.17v3.66h-4.57Z"/>
        <path class="cls-1" d="M204.41,44.64c-2.8,0-5.34-.66-7.59-1.98-2.26-1.32-4.04-3.19-5.34-5.61-1.3-2.42-1.95-5.23-1.95-8.45s.66-6.2,1.98-8.6c1.32-2.4,3.12-4.26,5.4-5.58,2.28-1.32,4.82-1.98,7.62-1.98s5.51.66,7.74,1.98c2.24,1.32,4,3.18,5.31,5.58,1.3,2.4,1.95,5.26,1.95,8.6s-.66,6.03-1.98,8.45c-1.32,2.42-3.11,4.29-5.37,5.61-2.26,1.32-4.85,1.98-7.77,1.98ZM204.47,40.98c1.91,0,3.67-.47,5.27-1.4,1.61-.93,2.91-2.33,3.9-4.18,1-1.85,1.49-4.14,1.49-6.86s-.49-5.06-1.46-6.89c-.98-1.83-2.27-3.2-3.87-4.12-1.61-.91-3.36-1.37-5.27-1.37s-3.56.47-5.18,1.4c-1.63.94-2.94,2.31-3.93,4.12-1,1.81-1.49,4.1-1.49,6.86s.49,5.01,1.46,6.86c.98,1.85,2.27,3.24,3.87,4.18,1.61.94,3.34,1.4,5.21,1.4Z"/>
        <path class="cls-1" d="M226.85,43.9V13.17h3.9l.3,5.91c.65-1.42,1.52-2.62,2.62-3.6,1.1-.98,2.42-1.73,3.96-2.26,1.54-.53,3.29-.79,5.24-.79v4.45h-1.65c-1.3,0-2.56.17-3.78.52-1.22.35-2.3.93-3.23,1.74-.94.81-1.69,1.91-2.26,3.29-.57,1.38-.85,3.11-.85,5.18v16.28h-4.27Z"/>
        <path class="cls-1" d="M258.68,44.64c-2.48,0-4.54-.45-6.19-1.34-1.65-.89-2.87-2.05-3.66-3.48-.79-1.42-1.19-2.99-1.19-4.7,0-2.11.54-3.9,1.62-5.37,1.08-1.46,2.6-2.56,4.57-3.29,1.97-.73,4.24-1.1,6.8-1.1h8.29c0-1.99-.3-3.68-.91-5.06-.61-1.38-1.49-2.43-2.65-3.14-1.16-.71-2.63-1.07-4.42-1.07-2.11,0-3.92.53-5.43,1.59-1.5,1.06-2.44,2.6-2.81,4.63h-4.45c.24-2.15.99-3.96,2.23-5.43,1.24-1.46,2.78-2.57,4.63-3.32,1.85-.75,3.79-1.13,5.82-1.13,2.8,0,5.11.54,6.92,1.62,1.81,1.08,3.15,2.55,4.02,4.42.87,1.87,1.31,4.02,1.31,6.46v18.96h-3.9l-.18-5.61c-.41.85-.93,1.67-1.56,2.44-.63.77-1.36,1.44-2.2,2.01-.83.57-1.8,1.03-2.9,1.37-1.1.35-2.36.52-3.78.52ZM259.16,40.86c1.54,0,2.91-.3,4.09-.91,1.18-.61,2.2-1.42,3.05-2.44.85-1.02,1.5-2.17,1.95-3.48.45-1.3.67-2.62.67-3.96v-1.1h-7.99c-2.16,0-3.88.26-5.18.79-1.3.53-2.24,1.24-2.8,2.13-.57.9-.85,1.93-.85,3.11s.27,2.21.82,3.08c.55.88,1.35,1.56,2.41,2.04,1.06.49,2.34.73,3.84.73Z"/>
        <path class="cls-1" d="M281.24,43.9V0h4.27v43.9h-4.27Z"/>
      </g>
      <g>
        <path class="cls-3" d="M430.21,16.97c0,.47-.58.69-.89.34-1.03-1.16-2.33-2.35-3.45-2.89-1.48-.71-3.07-1.06-4.78-1.06-2.44,0-4.68.65-6.74,1.96-2.05,1.31-3.69,3.18-4.91,5.62-1.22,2.44-1.83,5.39-1.83,8.85,0,3.12.54,5.94,1.64,8.44,1.09,2.5,2.64,4.47,4.65,5.9,2.01,1.43,4.41,2.15,7.19,2.15,1.58,0,3.11-.31,4.59-.93,1.14-.48,2.53-1.76,3.63-2.99.31-.35.89-.14.89.33v2.95h7.89V3.66h-7.89v13.32ZM429.99,34.6c-.62,1.37-1.5,2.44-2.63,3.21-1.13.77-2.49,1.16-4.07,1.16s-2.89-.37-4.04-1.12c-1.16-.75-2.04-1.81-2.66-3.18-.62-1.37-.93-2.99-.93-4.88s.31-3.5.93-4.84c.62-1.35,1.51-2.4,2.66-3.14,1.16-.75,2.5-1.12,4.04-1.12s2.94.38,4.07,1.12c1.13.75,2.01,1.81,2.63,3.18.62,1.37.93,2.97.93,4.81s-.31,3.44-.93,4.81Z"/>
        <path class="cls-3" d="M500.54,28.19c-1.2-.73-2.48-1.3-3.85-1.73-1.37-.43-2.69-.79-3.98-1.09-1.37-.34-2.47-.65-3.31-.93-.83-.28-1.43-.61-1.8-.99-.36-.38-.54-.85-.54-1.41,0-.81.4-1.45,1.19-1.92.79-.47,1.81-.71,3.05-.71,1.41,0,2.75.31,4.01.93.99.49,1.84,1.17,2.52,2.04.32.4.91.44,1.31.12l4.15-3.29c-1.2-1.88-2.82-3.33-4.88-4.33-2.05-1-4.34-1.51-6.87-1.51-4.2,0-7.43,1.19-9.71,3.55-1.52,1.58-2.24,3.7-2.23,5.89,0,1.64.34,3,.99,4.1.66,1.11,1.53,2.02,2.6,2.73,1.07.71,2.24,1.27,3.53,1.7,1.28.43,2.52.81,3.72,1.15,1.16.3,2.2.61,3.14.93.94.32,1.69.73,2.25,1.22.56.49.83,1.12.83,1.89,0,.94-.44,1.72-1.32,2.34-.88.62-2.11.93-3.69.93-2.01,0-3.69-.5-5.04-1.51-1.03-.77-1.88-1.6-2.55-2.48-.33-.43-.96-.48-1.37-.13l-4.65,4.05c.73.94,1.7,1.92,2.92,2.95,1.22,1.03,2.7,1.88,4.46,2.57,1.75.68,3.81,1.03,6.16,1.03,2.61,0,4.88-.45,6.8-1.35,1.92-.9,3.42-2.15,4.49-3.75,1.07-1.61,1.6-3.45,1.6-5.55,0-1.84-.36-3.36-1.09-4.56-.73-1.2-1.69-2.16-2.89-2.89Z"/>
        <path class="cls-3" d="M470.57,18.08c-1.2-1.48-2.72-2.63-4.56-3.47-1.84-.83-4-1.25-6.48-1.25-2.65,0-4.93.48-6.84,1.44-1.9.96-3.45,2.24-4.65,3.82-1.2,1.58-2.1,3.36-2.69,5.33-.6,1.97-.9,3.98-.9,6.03s.3,4.18.9,6.13c.6,1.95,1.53,3.68,2.79,5.2,1.26,1.52,2.88,2.73,4.84,3.62,1.97.9,4.32,1.35,7.06,1.35,1.84,0,3.48-.16,4.91-.48,1.43-.32,2.81-.84,4.14-1.57,1.33-.73,2.74-1.67,4.24-2.82l-3.98-5.39c-1.2,1.07-2.57,1.89-4.11,2.47-1.54.58-3.12.87-4.75.87-2.23,0-4.07-.58-5.55-1.73-1.23-.97-2.03-2.32-2.38-4.06-.11-.55.29-1.07.85-1.07h20.62c.09-.6.14-1.17.16-1.7.02-.54.03-.95.03-1.25,0-2.22-.31-4.32-.93-6.29-.62-1.97-1.53-3.69-2.73-5.17ZM465.99,26.58h-13.64c.13-1.06.46-2.1.99-3.11.53-1,1.34-1.83,2.41-2.47,1.07-.64,2.4-.96,3.98-.96,1.07,0,2.02.16,2.86.48.84.32,1.55.78,2.15,1.38.6.6,1.07,1.3,1.41,2.09.26.61.43,1.25.49,1.93.03.36-.28.67-.64.67Z"/>
        <path class="cls-3" d="M396.49,14.91c-1.73-1.03-3.88-1.54-6.45-1.54-2.22,0-4.26.54-6.1,1.61-1.23.72-2.25,1.77-3.08,3.11v-4.07h-7.96v31.63h7.09c.48,0,.87-.39.87-.87v-18.27c0-1.97.57-3.5,1.71-4.58,1.14-1.09,2.78-1.63,4.93-1.63.03,0,.06,0,.09,0,.03,0,.05,0,.07,0,.45,0,.87.04,1.26.09,0,0,.01,0,.02,0,.35.05.68.13.99.23.22.06.42.15.62.23,0,0,.01,0,.02,0,.58.24,1.1.55,1.51.96,1.03,1.01,1.54,2.52,1.54,4.52v19.31h7.09c.48,0,.87-.39.87-.87v-18.9c0-2.52-.42-4.73-1.25-6.61-.83-1.88-2.12-3.34-3.85-4.36Z"/>
        <path class="cls-3" d="M322.03,14.87v18.27c0,1.97-.57,3.5-1.71,4.58-1.14,1.09-2.78,1.63-4.93,1.63-.03,0-.06,0-.09,0-.03,0-.05,0-.07,0-.45,0-.87-.04-1.26-.09,0,0-.01,0-.02,0-.35-.05-.68-.13-.99-.23-.22-.06-.42-.15-.62-.23,0,0-.01,0-.02,0-.58-.24-1.1-.55-1.51-.96-1.03-1.01-1.54-2.52-1.54-4.52V14.01h-7.09c-.48,0-.87.39-.87.87v18.9c0,2.52.42,4.73,1.25,6.61.83,1.88,2.12,3.34,3.85,4.36,1.73,1.03,3.88,1.54,6.45,1.54,2.22,0,4.26-.54,6.1-1.61.87-.5,1.63-1.18,2.29-2,.27-.33.79-.15.79.27v2.69s7.96,0,7.96,0V14.01h-7.09c-.48,0-.87.39-.87.87Z"/>
        <path class="cls-3" d="M357.51,14.21c-.71-.23-1.47-.41-2.26-.54-.27-.05-.55-.07-.82-.11-.9-.12-1.82-.2-2.82-.2-2.69,0-5.21.4-7.54,1.19-2.1.71-4.15,1.83-6.16,3.35-.38.29-.45.83-.17,1.21l3.53,4.77c1.33-1.2,2.86-2.13,4.59-2.79,1.73-.66,3.43-.99,5.1-.99,1.35,0,2.49.22,3.46.64.29.12.57.26.82.42.17.1.34.19.49.31,1.18.92,1.77,2.32,1.77,4.2v.77h-9.11c-1.5,0-2.9.13-4.2.39-1.31.26-2.49.71-3.56,1.35-1.24.68-2.23,1.68-2.98,2.98-.75,1.3-1.12,2.88-1.12,4.72,0,2.05.52,3.87,1.57,5.45,1.05,1.58,2.48,2.8,4.3,3.66,1.82.85,3.88,1.28,6.19,1.28,1.74,0,3.38-.37,4.93-1.1l.03-.05v-4.74c0-.3-.24-.53-.53-.53h-3.26c-1.5,0-2.71-.33-3.63-.98-1.11-.78-1.71-2.15-1.54-3.49.05-.36.14-.7.29-1.02.21-.45.54-.82.96-1.12.47-.39,1.04-.63,1.7-.74.66-.11,1.34-.16,2.02-.16h6.81c.63,0,1.14.51,1.14,1.14v12.14h7.96v-19.96c0-3.85-1.22-6.87-3.66-9.05-1.2-1.07-2.63-1.88-4.3-2.42Z"/>
      </g>
    </g>
  </g>
</svg>