<?xml version="1.0" encoding="UTF-8"?>
<svg id="Capa_2" data-name="Capa 2" xmlns="http://www.w3.org/2000/svg" viewBox="0 0 545.6 56.69">
  <defs>
    <style>
      .cls-1 {
        fill: #ce0019;
      }

      .cls-2 {
        fill: #243746;
      }
    </style>
  </defs>
  <g id="Capa_1-2" data-name="Capa 1">
    <g id="postgrados_uandes">
      <g>
        <path class="cls-2" d="M0,55.98V12.86h3.75l.36,5.36c.63-1.03,1.47-2.01,2.5-2.95,1.03-.93,2.26-1.69,3.69-2.26,1.43-.57,3.08-.86,4.94-.86,2.98,0,5.55.68,7.71,2.05,2.16,1.37,3.84,3.24,5.03,5.6,1.19,2.36,1.79,5.07,1.79,8.13s-.61,5.71-1.82,8.07c-1.21,2.36-2.9,4.22-5.06,5.57-2.16,1.35-4.73,2.03-7.71,2.03-2.5,0-4.71-.55-6.64-1.64-1.93-1.09-3.38-2.63-4.38-4.61v18.64H0ZM14.95,39.96c2.06,0,3.88-.51,5.45-1.52s2.81-2.41,3.72-4.2c.91-1.79,1.37-3.89,1.37-6.31s-.46-4.6-1.37-6.43c-.91-1.83-2.15-3.23-3.72-4.23-1.57-.99-3.38-1.49-5.45-1.49s-3.89.5-5.48,1.49c-1.59.99-2.83,2.4-3.72,4.23-.89,1.83-1.34,3.97-1.34,6.43s.45,4.53,1.34,6.31c.89,1.79,2.13,3.18,3.72,4.2,1.59,1.01,3.41,1.52,5.48,1.52Z"/>
        <path class="cls-2" d="M50.14,43.59c-2.78,0-5.27-.65-7.47-1.94s-3.94-3.12-5.21-5.48c-1.27-2.36-1.91-5.11-1.91-8.25s.64-6.05,1.94-8.4c1.29-2.34,3.05-4.16,5.27-5.45,2.22-1.29,4.72-1.93,7.5-1.93s5.31.64,7.47,1.93c2.16,1.29,3.89,3.1,5.18,5.42,1.29,2.32,1.94,5.11,1.94,8.37s-.66,5.95-1.97,8.31c-1.31,2.36-3.06,4.19-5.24,5.48-2.18,1.29-4.68,1.94-7.5,1.94ZM50.14,40.02c1.83,0,3.52-.46,5.09-1.37s2.85-2.27,3.84-4.08c.99-1.81,1.49-4.04,1.49-6.7s-.49-4.94-1.46-6.73c-.97-1.79-2.23-3.14-3.78-4.05-1.55-.91-3.24-1.37-5.06-1.37s-3.53.46-5.12,1.37c-1.59.91-2.87,2.26-3.84,4.05-.97,1.79-1.46,4.03-1.46,6.73s.48,4.89,1.43,6.7c.95,1.81,2.21,3.17,3.78,4.08s3.27,1.37,5.09,1.37Z"/>
        <path class="cls-2" d="M83.07,43.59c-2.42,0-4.53-.4-6.31-1.19-1.79-.79-3.24-1.93-4.35-3.42-1.11-1.49-1.79-3.27-2.02-5.33h4.35c.2,1.15.64,2.19,1.34,3.12.69.93,1.64,1.7,2.83,2.29,1.19.6,2.6.89,4.23.89,1.51,0,2.75-.23,3.72-.68.97-.46,1.71-1.08,2.2-1.88.5-.79.74-1.65.74-2.56,0-1.31-.3-2.32-.89-3.04-.6-.71-1.47-1.27-2.62-1.67-1.15-.4-2.58-.73-4.29-1.01-1.27-.24-2.53-.55-3.78-.92-1.25-.38-2.36-.89-3.33-1.55-.97-.66-1.74-1.47-2.29-2.44-.56-.97-.83-2.11-.83-3.42,0-1.71.42-3.21,1.25-4.5.83-1.29,2.05-2.3,3.66-3.04,1.61-.73,3.46-1.1,5.57-1.1,3.1,0,5.62.76,7.56,2.29,1.94,1.53,3.1,3.76,3.45,6.7h-4.23c-.16-1.63-.83-2.93-2.03-3.9s-2.8-1.46-4.82-1.46-3.5.42-4.56,1.25c-1.05.83-1.58,1.94-1.58,3.34,0,.83.28,1.58.83,2.23.56.66,1.37,1.22,2.44,1.7,1.07.48,2.42.86,4.05,1.13,1.87.36,3.61.82,5.24,1.4,1.63.58,2.95,1.45,3.96,2.62,1.01,1.17,1.52,2.83,1.52,4.97,0,1.79-.45,3.37-1.34,4.76-.89,1.39-2.17,2.47-3.84,3.25-1.67.77-3.61,1.16-5.84,1.16Z"/>
        <path class="cls-2" d="M111.42,42.88c-1.71,0-3.18-.27-4.41-.8-1.23-.54-2.17-1.44-2.83-2.71s-.98-2.98-.98-5.12v-17.81h-5.24v-3.57h5.24l.6-7.03h3.57v7.03h8.93v3.57h-8.93v17.81c0,1.99.41,3.33,1.22,4.02.81.69,2.21,1.04,4.2,1.04h3.1v3.57h-4.47Z"/>
        <path class="cls-2" d="M134.47,56.69c-2.66,0-5.01-.36-7.06-1.07-2.05-.71-3.65-1.79-4.82-3.22-1.17-1.43-1.76-3.2-1.76-5.3,0-.83.16-1.74.48-2.71.32-.97.9-1.96,1.76-2.95.85-.99,2.07-1.91,3.66-2.74l3.39,1.49c-2.1,1.03-3.47,2.13-4.11,3.31-.64,1.17-.95,2.23-.95,3.18,0,1.43.41,2.62,1.22,3.57.81.95,1.93,1.68,3.33,2.17,1.41.5,3.03.74,4.85.74s3.4-.27,4.73-.8c1.33-.54,2.36-1.29,3.1-2.26.73-.97,1.1-2.09,1.1-3.36,0-1.47-.58-2.71-1.73-3.72-1.15-1.01-3.28-1.6-6.37-1.76-2.34-.16-4.31-.37-5.9-.63-1.59-.26-2.89-.57-3.9-.95-1.01-.38-1.85-.79-2.5-1.25-.66-.45-1.28-.92-1.88-1.4v-1.43l5.72-5.36,3.81,1.37-5.6,4.94.36-1.55c.48.32.91.62,1.31.89.4.28.94.5,1.64.68.69.18,1.67.36,2.92.54,1.25.18,2.95.35,5.09.51,2.74.2,4.93.68,6.58,1.43,1.65.75,2.84,1.77,3.57,3.04.73,1.27,1.1,2.76,1.1,4.47s-.47,3.32-1.4,4.85c-.93,1.53-2.36,2.79-4.29,3.78-1.93.99-4.42,1.49-7.47,1.49ZM134.41,33.35c-2.5,0-4.63-.48-6.37-1.43-1.75-.95-3.08-2.23-3.99-3.84-.91-1.61-1.37-3.38-1.37-5.33s.47-3.77,1.4-5.36c.93-1.59,2.26-2.86,3.99-3.81,1.73-.95,3.84-1.43,6.34-1.43s4.63.48,6.37,1.43c1.75.95,3.06,2.22,3.93,3.81.87,1.59,1.31,3.37,1.31,5.36s-.44,3.72-1.31,5.33c-.87,1.61-2.18,2.89-3.93,3.84-1.75.95-3.87,1.43-6.37,1.43ZM134.41,29.78c2.34,0,4.17-.6,5.48-1.79,1.31-1.19,1.96-2.94,1.96-5.24s-.65-4.05-1.96-5.24c-1.31-1.19-3.14-1.79-5.48-1.79s-4.14.6-5.51,1.79c-1.37,1.19-2.06,2.94-2.06,5.24s.67,4.05,2.03,5.24c1.35,1.19,3.2,1.79,5.54,1.79ZM139.29,16.62l-1.43-3.75h12.09v3.39l-10.66.36Z"/>
        <path class="cls-2" d="M155.78,42.88V12.86h3.75l.3,5.78c.63-1.39,1.49-2.56,2.56-3.51,1.07-.95,2.36-1.69,3.87-2.2,1.51-.52,3.24-.77,5.18-.77v4.35h-1.67c-1.27,0-2.5.17-3.69.5-1.19.34-2.24.9-3.16,1.7s-1.64,1.87-2.17,3.22c-.54,1.35-.8,3.04-.8,5.06v15.9h-4.17Z"/>
        <path class="cls-2" d="M186.81,43.59c-2.42,0-4.44-.44-6.04-1.31-1.61-.87-2.81-2-3.6-3.4-.79-1.39-1.19-2.92-1.19-4.59,0-2.06.53-3.81,1.58-5.24,1.05-1.43,2.54-2.5,4.47-3.22,1.93-.71,4.16-1.07,6.7-1.07h8.1c0-1.94-.3-3.59-.89-4.94-.6-1.35-1.46-2.37-2.59-3.07-1.13-.69-2.59-1.04-4.38-1.04-2.06,0-3.82.52-5.27,1.55-1.45,1.03-2.35,2.56-2.71,4.59h-4.41c.28-2.14,1.02-3.93,2.23-5.36,1.21-1.43,2.72-2.51,4.53-3.25,1.81-.73,3.68-1.1,5.63-1.1,2.78,0,5.05.53,6.82,1.58,1.77,1.05,3.08,2.49,3.93,4.32.85,1.83,1.28,3.95,1.28,6.37v18.46h-3.81l-.18-5.48c-.4.83-.9,1.63-1.52,2.38-.62.75-1.33,1.41-2.14,1.96-.81.56-1.76,1-2.83,1.34-1.07.34-2.3.51-3.69.51ZM187.29,39.96c1.47,0,2.79-.3,3.96-.89,1.17-.6,2.16-1.41,2.98-2.44.81-1.03,1.45-2.16,1.91-3.39.46-1.23.69-2.52.69-3.87v-1.13h-7.8c-2.1,0-3.79.26-5.06.77-1.27.52-2.19,1.22-2.77,2.11s-.86,1.92-.86,3.07.27,2.15.8,3.01c.54.85,1.33,1.53,2.38,2.03,1.05.5,2.31.74,3.78.74Z"/>
        <path class="cls-2" d="M221.94,43.59c-2.94,0-5.48-.69-7.62-2.05-2.14-1.37-3.81-3.25-5-5.63-1.19-2.38-1.79-5.08-1.79-8.1s.6-5.71,1.79-8.07c1.19-2.36,2.87-4.22,5.03-5.57,2.16-1.35,4.71-2.03,7.65-2.03,2.54,0,4.77.55,6.7,1.64,1.93,1.09,3.38,2.63,4.38,4.62V0h4.17v42.88h-3.75l-.36-5.48c-.6,1.11-1.41,2.13-2.44,3.07-1.03.93-2.28,1.69-3.75,2.26-1.47.57-3.14.86-5,.86ZM222.3,39.96c2.1,0,3.94-.51,5.51-1.52,1.57-1.01,2.8-2.41,3.69-4.2.89-1.79,1.34-3.91,1.34-6.37s-.45-4.54-1.34-6.37c-.89-1.83-2.12-3.23-3.69-4.23-1.57-.99-3.4-1.49-5.51-1.49s-3.89.5-5.48,1.49c-1.59.99-2.83,2.4-3.72,4.23-.89,1.83-1.34,3.93-1.34,6.31,0,2.5.45,4.64,1.34,6.43s2.13,3.18,3.72,4.2c1.59,1.01,3.41,1.52,5.48,1.52Z"/>
        <path class="cls-2" d="M259.04,43.59c-2.78,0-5.27-.65-7.47-1.94s-3.94-3.12-5.21-5.48c-1.27-2.36-1.91-5.11-1.91-8.25s.64-6.05,1.94-8.4c1.29-2.34,3.05-4.16,5.27-5.45,2.22-1.29,4.72-1.93,7.5-1.93s5.31.64,7.47,1.93c2.16,1.29,3.89,3.1,5.18,5.42,1.29,2.32,1.94,5.11,1.94,8.37s-.66,5.95-1.97,8.31c-1.31,2.36-3.06,4.19-5.24,5.48-2.18,1.29-4.68,1.94-7.5,1.94ZM259.04,40.02c1.83,0,3.52-.46,5.09-1.37s2.85-2.27,3.84-4.08c.99-1.81,1.49-4.04,1.49-6.7s-.49-4.94-1.46-6.73c-.97-1.79-2.23-3.14-3.78-4.05-1.55-.91-3.24-1.37-5.06-1.37s-3.53.46-5.12,1.37c-1.59.91-2.87,2.26-3.84,4.05-.97,1.79-1.46,4.03-1.46,6.73s.48,4.89,1.43,6.7c.95,1.81,2.21,3.17,3.78,4.08s3.27,1.37,5.09,1.37Z"/>
        <path class="cls-2" d="M291.98,43.59c-2.42,0-4.53-.4-6.31-1.19-1.79-.79-3.24-1.93-4.35-3.42-1.11-1.49-1.79-3.27-2.02-5.33h4.35c.2,1.15.64,2.19,1.34,3.12.69.93,1.64,1.7,2.83,2.29,1.19.6,2.6.89,4.23.89,1.51,0,2.75-.23,3.72-.68.97-.46,1.71-1.08,2.2-1.88.5-.79.74-1.65.74-2.56,0-1.31-.3-2.32-.89-3.04-.6-.71-1.47-1.27-2.62-1.67-1.15-.4-2.58-.73-4.29-1.01-1.27-.24-2.53-.55-3.78-.92-1.25-.38-2.36-.89-3.33-1.55-.97-.66-1.74-1.47-2.29-2.44-.56-.97-.83-2.11-.83-3.42,0-1.71.42-3.21,1.25-4.5.83-1.29,2.05-2.3,3.66-3.04,1.61-.73,3.46-1.1,5.57-1.1,3.1,0,5.62.76,7.56,2.29,1.94,1.53,3.1,3.76,3.45,6.7h-4.23c-.16-1.63-.83-2.93-2.03-3.9s-2.8-1.46-4.82-1.46-3.5.42-4.56,1.25c-1.05.83-1.58,1.94-1.58,3.34,0,.83.28,1.58.83,2.23.56.66,1.37,1.22,2.44,1.7,1.07.48,2.42.86,4.05,1.13,1.87.36,3.61.82,5.24,1.4,1.63.58,2.95,1.45,3.96,2.62,1.01,1.17,1.52,2.83,1.52,4.97,0,1.79-.45,3.37-1.34,4.76-.89,1.39-2.17,2.47-3.84,3.25-1.67.77-3.61,1.16-5.84,1.16Z"/>
      </g>
      <g>
        <path class="cls-2" d="M473.04,14.9c0,.46-.56.67-.87.33-1-1.13-2.27-2.3-3.36-2.82-1.44-.69-3-1.03-4.67-1.03-2.38,0-4.57.64-6.58,1.91-2.01,1.28-3.6,3.1-4.79,5.48-1.19,2.38-1.79,5.26-1.79,8.65,0,3.05.53,5.8,1.6,8.24,1.07,2.44,2.58,4.37,4.54,5.77,1.96,1.4,4.3,2.1,7.02,2.1,1.55,0,3.04-.3,4.48-.91,1.11-.47,2.47-1.72,3.55-2.92.31-.34.87-.13.87.33v2.88h7.71V1.9h-7.71v13ZM472.82,32.12c-.61,1.34-1.46,2.38-2.57,3.13-1.11.75-2.43,1.13-3.98,1.13s-2.82-.37-3.95-1.1c-1.13-.73-2-1.76-2.6-3.1-.61-1.34-.91-2.92-.91-4.76s.3-3.41.91-4.73c.6-1.32,1.47-2.34,2.6-3.07,1.13-.73,2.44-1.1,3.95-1.1s2.87.37,3.98,1.1c1.11.73,1.96,1.77,2.57,3.1.61,1.34.91,2.9.91,4.7s-.3,3.36-.91,4.7Z"/>
        <path class="cls-2" d="M541.72,25.85c-1.17-.71-2.42-1.27-3.76-1.69-1.34-.42-2.63-.77-3.89-1.07-1.34-.33-2.41-.64-3.23-.91-.81-.27-1.4-.59-1.75-.97-.35-.38-.53-.83-.53-1.38,0-.79.39-1.42,1.16-1.88.77-.46,1.76-.69,2.98-.69,1.38,0,2.68.3,3.92.91.97.48,1.79,1.14,2.47,2,.31.39.89.43,1.28.12l4.06-3.21c-1.17-1.84-2.76-3.25-4.76-4.23-2.01-.98-4.24-1.47-6.71-1.47-4.1,0-7.26,1.16-9.48,3.47-1.48,1.54-2.19,3.62-2.18,5.75,0,1.6.33,2.93.97,4,.65,1.09,1.49,1.97,2.54,2.66,1.04.69,2.19,1.24,3.45,1.66,1.25.42,2.47.79,3.63,1.13,1.13.29,2.15.6,3.07.91.92.31,1.65.71,2.19,1.19.54.48.81,1.1.81,1.85,0,.92-.43,1.68-1.29,2.29-.86.61-2.06.91-3.6.91-1.96,0-3.6-.49-4.92-1.47-1.01-.75-1.84-1.56-2.49-2.42-.32-.42-.94-.47-1.34-.12l-4.54,3.95c.71.92,1.66,1.88,2.85,2.88,1.19,1,2.64,1.84,4.35,2.51,1.71.67,3.72,1,6.02,1,2.55,0,4.76-.44,6.64-1.32,1.88-.88,3.34-2.1,4.39-3.67,1.04-1.57,1.57-3.37,1.57-5.42,0-1.8-.35-3.28-1.07-4.45-.71-1.17-1.65-2.11-2.82-2.82Z"/>
        <path class="cls-2" d="M512.46,15.98c-1.17-1.44-2.65-2.57-4.45-3.38-1.8-.81-3.91-1.22-6.33-1.22-2.59,0-4.82.47-6.68,1.41-1.86.94-3.37,2.18-4.54,3.73-1.17,1.55-2.05,3.28-2.63,5.2-.59,1.92-.88,3.89-.88,5.89s.29,4.08.88,5.98c.58,1.9,1.49,3.59,2.73,5.08,1.23,1.48,2.81,2.66,4.73,3.54,1.92.88,4.22,1.32,6.89,1.32,1.8,0,3.39-.16,4.79-.47,1.4-.31,2.75-.82,4.04-1.53,1.29-.71,2.67-1.63,4.14-2.76l-3.89-5.26c-1.17,1.05-2.51,1.85-4.01,2.41-1.5.56-3.05.85-4.64.85-2.17,0-3.98-.56-5.42-1.69-1.2-.94-1.98-2.27-2.32-3.97-.11-.53.28-1.04.83-1.04h20.14c.08-.58.13-1.14.16-1.66.02-.52.03-.93.03-1.22,0-2.17-.3-4.22-.91-6.14-.61-1.92-1.49-3.6-2.66-5.04ZM507.98,24.28h-13.32c.13-1.04.45-2.05.97-3.03.52-.98,1.3-1.79,2.35-2.41,1.04-.63,2.34-.94,3.89-.94,1.05,0,1.97.16,2.79.47.82.31,1.51.76,2.1,1.35.59.59,1.04,1.26,1.38,2.04.26.6.42,1.22.47,1.88.03.35-.27.65-.62.65Z"/>
        <path class="cls-2" d="M440.11,12.88c-1.69-1-3.79-1.5-6.3-1.5-2.17,0-4.16.52-5.95,1.57-1.21.7-2.2,1.73-3.01,3.04v-3.98h-7.77v30.89h6.92c.47,0,.85-.38.85-.85v-17.84c0-1.93.56-3.42,1.67-4.48,1.12-1.06,2.72-1.59,4.81-1.59.03,0,.05,0,.08,0,.03,0,.05,0,.07,0,.44,0,.85.04,1.23.09,0,0,.01,0,.02,0,.35.05.67.13.97.22.21.06.41.14.61.22,0,0,.01,0,.02,0,.56.24,1.07.54,1.48.94,1,.99,1.51,2.46,1.51,4.41v18.85h6.93c.47,0,.85-.38.85-.85v-18.46c0-2.47-.41-4.62-1.22-6.45-.81-1.84-2.07-3.26-3.76-4.26Z"/>
        <path class="cls-2" d="M367.39,12.85v17.84c0,1.93-.56,3.42-1.67,4.48-1.12,1.06-2.72,1.59-4.81,1.59-.03,0-.05,0-.08,0-.03,0-.05,0-.07,0-.44,0-.85-.04-1.23-.09,0,0-.01,0-.02,0-.35-.05-.67-.13-.97-.22-.21-.06-.41-.14-.61-.22,0,0-.01,0-.02,0-.56-.24-1.07-.54-1.48-.94-1-.99-1.51-2.46-1.51-4.41V12h-6.93c-.47,0-.85.38-.85.85v18.46c0,2.47.41,4.62,1.22,6.45.81,1.84,2.07,3.26,3.76,4.26,1.69,1,3.79,1.5,6.3,1.5,2.17,0,4.16-.52,5.95-1.57.85-.49,1.59-1.15,2.24-1.95.26-.32.77-.15.77.26v2.63s7.77,0,7.77,0V12h-6.92c-.47,0-.85.38-.85.85Z"/>
        <path class="cls-2" d="M402.04,12.2c-.69-.23-1.43-.4-2.21-.53-.26-.04-.54-.07-.8-.1-.87-.11-1.78-.19-2.76-.19-2.63,0-5.09.39-7.36,1.16-2.05.7-4.05,1.79-6.02,3.28-.37.28-.44.81-.16,1.18l3.45,4.66c1.29-1.17,2.79-2.08,4.48-2.73,1.69-.65,3.35-.97,4.98-.97,1.32,0,2.44.22,3.38.63.28.12.55.26.8.41.16.1.34.19.48.3,1.15.9,1.72,2.27,1.72,4.11v.75h-8.9c-1.46,0-2.83.13-4.11.38-1.28.25-2.43.69-3.48,1.32-1.21.67-2.18,1.64-2.91,2.91-.73,1.27-1.1,2.81-1.1,4.6,0,2.01.51,3.78,1.54,5.33,1.02,1.55,2.42,2.74,4.2,3.57,1.77.83,3.79,1.25,6.05,1.25,1.7,0,3.3-.36,4.81-1.08l.03-.04v-4.62c0-.29-.23-.52-.52-.52h-3.19c-1.46,0-2.64-.32-3.54-.95-1.08-.76-1.67-2.1-1.5-3.41.04-.36.14-.69.28-.99.21-.44.52-.8.94-1.09.46-.38,1.01-.62,1.66-.72.65-.1,1.31-.16,1.97-.16h6.65c.62,0,1.12.5,1.12,1.12v11.86h7.77v-19.49c0-3.76-1.19-6.7-3.57-8.84-1.17-1.05-2.57-1.84-4.2-2.37Z"/>
      </g>
      <path class="cls-1" d="M314.68,46.13v-8.79c0-.66.32-1.29.86-1.68l11.74-8.52-11.74-8.52c-.54-.39-.86-1.02-.86-1.68v-8.79l17.42,12.64c4.34,3.15,4.34,9.55,0,12.7l-17.42,12.64Z"/>
    </g>
  </g>
</svg>