<?xml version="1.0" encoding="UTF-8"?>
<svg id="Capa_2" data-name="Capa 2" xmlns="http://www.w3.org/2000/svg" viewBox="0 0 336.77 39.14">
  <defs>
    <style>
      .cls-1 {
        fill: #243746;
      }
    </style>
  </defs>
  <g id="Capa_1-2" data-name="Capa 1">
    <g id="uandes_online">
      <g>
        <g>
          <path class="cls-1" d="M216.94,37.01c-2.31,0-4.4-.54-6.26-1.63-1.86-1.09-3.33-2.63-4.4-4.63-1.07-1.99-1.61-4.32-1.61-6.96s.54-5.11,1.63-7.09c1.09-1.98,2.57-3.51,4.45-4.6,1.88-1.09,3.97-1.63,6.29-1.63s4.54.54,6.39,1.63c1.84,1.09,3.3,2.62,4.37,4.6,1.07,1.98,1.61,4.34,1.61,7.09s-.55,4.97-1.63,6.96c-1.09,2-2.56,3.54-4.43,4.63-1.86,1.09-4,1.63-6.41,1.63ZM216.99,33.99c1.58,0,3.03-.38,4.35-1.16,1.32-.77,2.4-1.92,3.22-3.44.82-1.53,1.23-3.41,1.23-5.66s-.4-4.17-1.21-5.68c-.8-1.51-1.87-2.64-3.19-3.39-1.32-.75-2.77-1.13-4.35-1.13s-2.93.39-4.27,1.16c-1.34.77-2.42,1.9-3.24,3.39-.82,1.49-1.23,3.38-1.23,5.66s.4,4.13,1.21,5.66,1.87,2.67,3.19,3.44c1.32.77,2.76,1.16,4.3,1.16Z"/>
          <path class="cls-1" d="M235.45,36.41V11.06h3.22l.2,4.53c.8-1.61,1.97-2.87,3.49-3.77,1.53-.91,3.23-1.36,5.1-1.36s3.64.39,5.08,1.16c1.44.77,2.56,1.94,3.37,3.5.8,1.56,1.21,3.54,1.21,5.96v15.34h-3.52v-14.93c0-2.68-.59-4.68-1.76-5.98-1.17-1.31-2.83-1.96-4.98-1.96-1.51,0-2.86.36-4.05,1.08-1.19.72-2.13,1.77-2.82,3.14-.69,1.38-1.03,3.07-1.03,5.08v13.58h-3.52Z"/>
          <path class="cls-1" d="M263.76,36.41V.2h3.52v36.21h-3.52Z"/>
          <path class="cls-1" d="M276.68,5.08c-.7,0-1.31-.24-1.81-.73s-.75-1.1-.75-1.84.24-1.38.73-1.83c.49-.45,1.1-.68,1.84-.68.67,0,1.26.23,1.76.68.5.45.75,1.06.75,1.83s-.24,1.35-.73,1.84c-.49.49-1.08.73-1.79.73ZM274.92,36.41V11.06h3.52v25.34h-3.52Z"/>
          <path class="cls-1" d="M286.03,36.41V11.06h3.22l.2,4.53c.8-1.61,1.97-2.87,3.49-3.77,1.53-.91,3.23-1.36,5.1-1.36s3.64.39,5.08,1.16c1.44.77,2.56,1.94,3.37,3.5.8,1.56,1.21,3.54,1.21,5.96v15.34h-3.52v-14.93c0-2.68-.59-4.68-1.76-5.98-1.17-1.31-2.83-1.96-4.98-1.96-1.51,0-2.86.36-4.05,1.08-1.19.72-2.13,1.77-2.82,3.14-.69,1.38-1.03,3.07-1.03,5.08v13.58h-3.52Z"/>
          <path class="cls-1" d="M325.21,37.01c-2.35,0-4.42-.55-6.21-1.66-1.79-1.11-3.2-2.66-4.22-4.65-1.02-1.99-1.53-4.33-1.53-7.02s.5-5.01,1.51-6.99c1.01-1.98,2.42-3.51,4.25-4.6,1.83-1.09,3.93-1.63,6.31-1.63s4.53.55,6.24,1.66c1.71,1.11,3.01,2.55,3.9,4.33.89,1.78,1.33,3.72,1.33,5.83v1.03c0,.35-.02.76-.05,1.23h-20.82v-2.97h17.45c-.1-2.58-.91-4.58-2.44-5.98-1.53-1.41-3.44-2.11-5.76-2.11-1.48,0-2.87.34-4.17,1.03-1.31.69-2.36,1.69-3.14,3.02-.79,1.32-1.18,2.99-1.18,5v1.31c0,2.28.41,4.17,1.23,5.68.82,1.51,1.89,2.63,3.19,3.37,1.31.74,2.68,1.11,4.12,1.11,1.91,0,3.49-.43,4.73-1.28,1.24-.85,2.13-2.04,2.67-3.54h3.47c-.4,1.48-1.09,2.81-2.06,4-.97,1.19-2.2,2.13-3.67,2.82-1.48.69-3.19,1.03-5.13,1.03Z"/>
        </g>
        <path class="cls-1" d="M106.31,12.77c0,.39-.48.57-.73.28-.85-.96-1.92-1.94-2.84-2.38-1.22-.58-2.53-.87-3.94-.87-2.01,0-3.86.54-5.56,1.61-1.69,1.08-3.04,2.62-4.05,4.63-1.01,2.01-1.51,4.45-1.51,7.3,0,2.58.45,4.89,1.35,6.96.9,2.06,2.18,3.69,3.84,4.87,1.66,1.18,3.63,1.77,5.93,1.77,1.31,0,2.57-.26,3.78-.77.94-.39,2.09-1.45,3-2.47.26-.29.73-.11.73.28v2.43h6.51V1.79h-6.51v10.98ZM106.12,27.31c-.51,1.13-1.24,2.01-2.17,2.65-.94.63-2.06.95-3.36.95s-2.38-.31-3.33-.93c-.95-.62-1.69-1.49-2.2-2.62-.51-1.13-.77-2.47-.77-4.02s.25-2.88.77-3.99c.51-1.11,1.24-1.98,2.2-2.59.95-.62,2.06-.93,3.33-.93s2.42.31,3.36.93c.93.62,1.66,1.49,2.17,2.62.51,1.13.77,2.45.77,3.97s-.26,2.84-.77,3.97Z"/>
        <path class="cls-1" d="M164.23,22.02c-.99-.6-2.05-1.08-3.17-1.43-1.13-.35-2.22-.65-3.28-.9-1.13-.28-2.04-.54-2.73-.77-.69-.23-1.18-.5-1.48-.82-.3-.32-.45-.7-.45-1.16,0-.67.33-1.2.98-1.59.65-.39,1.49-.58,2.51-.58,1.16,0,2.27.26,3.31.77.82.4,1.51.97,2.08,1.69.26.33.75.36,1.08.1l3.43-2.71c-.99-1.55-2.33-2.74-4.02-3.57-1.69-.83-3.58-1.24-5.66-1.24-3.46,0-6.13.98-8,2.93-1.25,1.3-1.85,3.05-1.84,4.86,0,1.35.28,2.48.82,3.38.55.92,1.26,1.67,2.14,2.25.88.58,1.85,1.05,2.91,1.4,1.06.35,2.08.67,3.07.95.95.25,1.82.5,2.59.77.78.27,1.39.6,1.85,1.01.46.41.69.93.69,1.56,0,.78-.36,1.42-1.09,1.93-.72.51-1.74.77-3.04.77-1.66,0-3.04-.41-4.15-1.24-.85-.63-1.55-1.32-2.1-2.04-.27-.36-.79-.4-1.13-.1l-3.83,3.34c.6.78,1.4,1.59,2.41,2.43,1.01.85,2.23,1.55,3.68,2.12,1.45.56,3.14.85,5.08.85,2.15,0,4.02-.37,5.61-1.11,1.59-.74,2.82-1.77,3.7-3.1.88-1.32,1.32-2.85,1.32-4.58,0-1.52-.3-2.77-.9-3.76-.6-.99-1.39-1.78-2.38-2.38Z"/>
        <path class="cls-1" d="M139.59,13.69c-.99-1.22-2.24-2.17-3.76-2.86-1.52-.69-3.3-1.03-5.34-1.03-2.19,0-4.07.4-5.64,1.19s-2.85,1.84-3.84,3.15c-.99,1.31-1.73,2.77-2.22,4.39-.49,1.62-.74,3.28-.74,4.97s.25,3.45.74,5.05c.49,1.61,1.26,3.03,2.3,4.29,1.04,1.25,2.37,2.25,3.99,2.99,1.62.74,3.56,1.11,5.82,1.11,1.52,0,2.87-.13,4.05-.4,1.18-.26,2.32-.7,3.41-1.3,1.09-.6,2.26-1.38,3.49-2.33l-3.28-4.44c-.99.88-2.12,1.56-3.39,2.04-1.27.48-2.58.72-3.92.72-1.84,0-3.36-.48-4.58-1.43-1.02-.8-1.67-1.91-1.96-3.35-.09-.45.24-.88.7-.88h17.01c.07-.49.11-.96.13-1.4.02-.44.03-.78.03-1.03,0-1.83-.26-3.56-.77-5.18-.51-1.62-1.26-3.04-2.25-4.26ZM135.81,20.69h-11.25c.11-.88.38-1.73.82-2.56.44-.83,1.1-1.51,1.98-2.04.88-.53,1.98-.79,3.28-.79.88,0,1.67.13,2.35.4.69.27,1.28.64,1.77,1.14.49.49.88,1.07,1.16,1.72.22.5.35,1.03.4,1.59.03.3-.23.55-.53.55Z"/>
        <path class="cls-1" d="M78.5,11.07c-1.43-.85-3.2-1.27-5.32-1.27-1.83,0-3.51.44-5.03,1.32-1.02.59-1.85,1.46-2.54,2.56v-3.36h-6.56v26.09h5.85c.39,0,.71-.32.71-.71v-15.06c0-1.63.47-2.89,1.41-3.78.94-.9,2.3-1.34,4.06-1.34.03,0,.05,0,.07,0,.02,0,.04,0,.06,0,.37,0,.72.03,1.04.08,0,0,.01,0,.02,0,.29.04.56.11.82.19.18.05.35.12.51.19,0,0,.01,0,.02,0,.48.2.9.45,1.25.79.85.84,1.27,2.08,1.27,3.73v15.92h5.85c.39,0,.71-.32.71-.71v-15.58c0-2.08-.34-3.9-1.03-5.45-.69-1.55-1.75-2.75-3.17-3.6Z"/>
        <path class="cls-1" d="M17.09,11.04v15.06c0,1.63-.47,2.89-1.41,3.78-.94.9-2.3,1.34-4.06,1.34-.03,0-.05,0-.07,0-.02,0-.04,0-.06,0-.37,0-.72-.03-1.04-.08,0,0-.01,0-.02,0-.29-.04-.56-.11-.82-.19-.18-.05-.35-.12-.51-.19,0,0-.01,0-.02,0-.48-.2-.9-.45-1.25-.79-.85-.84-1.27-2.08-1.27-3.73v-15.92H.71c-.39,0-.71.32-.71.71v15.58c0,2.08.34,3.9,1.03,5.45.69,1.55,1.75,2.75,3.17,3.6,1.43.85,3.2,1.27,5.32,1.27,1.83,0,3.51-.44,5.03-1.32.72-.42,1.34-.97,1.89-1.65.22-.27.65-.13.65.22v2.22s6.56,0,6.56,0V10.33h-5.85c-.39,0-.71.32-.71.71Z"/>
        <path class="cls-1" d="M46.35,10.5c-.58-.19-1.21-.34-1.86-.45-.22-.04-.45-.06-.68-.09-.74-.1-1.5-.16-2.33-.16-2.22,0-4.29.33-6.22.98-1.73.59-3.42,1.51-5.08,2.77-.31.24-.37.69-.14,1l2.91,3.93c1.09-.99,2.35-1.75,3.78-2.3,1.43-.55,2.83-.82,4.21-.82,1.11,0,2.06.18,2.86.53.24.1.47.22.68.35.14.09.28.16.41.26.97.76,1.46,1.92,1.46,3.47v.63h-7.51c-1.24,0-2.39.11-3.47.32-1.08.21-2.06.58-2.94,1.11-1.02.56-1.84,1.38-2.46,2.46-.62,1.08-.93,2.37-.93,3.89,0,1.69.43,3.19,1.3,4.5.86,1.31,2.05,2.31,3.55,3.02,1.5.7,3.2,1.06,5.11,1.06,1.43,0,2.79-.3,4.06-.91l.02-.04v-3.9c0-.24-.2-.44-.44-.44h-2.69c-1.23,0-2.23-.27-2.99-.81-.91-.65-1.41-1.77-1.27-2.88.04-.3.12-.58.24-.84.18-.37.44-.68.79-.92.39-.32.85-.52,1.4-.61.55-.09,1.1-.13,1.67-.13h5.62c.52,0,.94.42.94.94v10.01h6.56v-16.46c0-3.17-1.01-5.66-3.02-7.46-.99-.88-2.17-1.55-3.54-2Z"/>
        <path class="cls-1" d="M177.36,39.14v-7.42c0-.56.27-1.09.73-1.42l9.91-7.19-9.91-7.19c-.45-.33-.73-.86-.73-1.42v-7.42l14.71,10.67c3.67,2.66,3.67,8.06,0,10.72l-14.71,10.67Z"/>
      </g>
    </g>
  </g>
</svg>