<?xml version="1.0" encoding="UTF-8"?>
<svg id="Capa_2" data-name="Capa 2" xmlns="http://www.w3.org/2000/svg" viewBox="0 0 628.8 58.46">
  <defs>
    <style>
      .cls-1 {
        opacity: .6;
      }

      .cls-2 {
        fill: #243746;
      }
    </style>
  </defs>
  <g id="Capa_1-2" data-name="Capa 1">
    <g id="vida_universitaria">
      <g>
        <g>
          <path class="cls-2" d="M567.9,23.52c0,.38-.47.57-.73.28-.84-.95-1.91-1.93-2.82-2.37-1.21-.58-2.52-.87-3.92-.87-2,0-3.84.54-5.52,1.6-1.68,1.07-3.02,2.6-4.02,4.6-1,2-1.5,4.42-1.5,7.26,0,2.56.45,4.86,1.34,6.92.89,2.05,2.16,3.66,3.81,4.84,1.65,1.17,3.61,1.76,5.89,1.76,1.3,0,2.55-.26,3.76-.76.93-.39,2.08-1.44,2.98-2.45.26-.29.73-.11.73.27v2.42h6.47V12.6h-6.47v10.91ZM567.72,37.97c-.51,1.12-1.23,2-2.16,2.63-.93.63-2.04.95-3.34.95s-2.37-.31-3.31-.92c-.95-.61-1.67-1.48-2.18-2.6-.51-1.12-.76-2.45-.76-4s.25-2.87.76-3.97c.51-1.1,1.24-1.96,2.18-2.58.95-.61,2.05-.92,3.31-.92s2.41.31,3.34.92c.93.61,1.65,1.48,2.16,2.6.51,1.12.76,2.44.76,3.94s-.25,2.82-.76,3.94Z"/>
          <path class="cls-2" d="M625.54,32.71c-.98-.6-2.03-1.07-3.15-1.42-1.12-.35-2.21-.65-3.26-.89-1.12-.28-2.02-.53-2.71-.76-.68-.23-1.17-.5-1.47-.81-.3-.31-.45-.7-.45-1.16,0-.67.32-1.19.97-1.58.65-.39,1.48-.58,2.5-.58,1.16,0,2.25.26,3.29.76.81.4,1.5.96,2.07,1.68.26.33.75.36,1.08.1l3.4-2.7c-.98-1.54-2.31-2.73-4-3.55-1.68-.82-3.56-1.24-5.63-1.24-3.44,0-6.09.97-7.95,2.91-1.24,1.29-1.84,3.03-1.83,4.83,0,1.34.28,2.46.81,3.36.54.91,1.25,1.66,2.13,2.23.88.58,1.84,1.04,2.89,1.39,1.05.35,2.07.67,3.05.95.95.25,1.81.5,2.58.76.77.26,1.39.6,1.84,1,.46.4.68.92.68,1.55,0,.77-.36,1.41-1.08,1.92-.72.51-1.73.76-3.02.76-1.65,0-3.02-.41-4.13-1.24-.85-.63-1.54-1.31-2.09-2.03-.27-.36-.79-.4-1.12-.1l-3.81,3.32c.6.77,1.39,1.58,2.39,2.42,1,.84,2.22,1.54,3.65,2.1,1.44.56,3.12.84,5.05.84,2.14,0,4-.37,5.57-1.1,1.58-.74,2.8-1.76,3.68-3.08.88-1.32,1.31-2.83,1.31-4.55,0-1.51-.3-2.75-.89-3.73-.6-.98-1.39-1.77-2.37-2.37Z"/>
          <path class="cls-2" d="M600.98,24.42c-.98-1.21-2.23-2.16-3.73-2.84-1.51-.68-3.28-1.03-5.31-1.03-2.18,0-4.04.4-5.6,1.18-1.56.79-2.83,1.83-3.81,3.13-.98,1.3-1.72,2.75-2.21,4.37-.49,1.61-.74,3.26-.74,4.94s.24,3.43.74,5.02c.49,1.6,1.25,3.02,2.29,4.26,1.03,1.24,2.36,2.23,3.97,2.97,1.61.74,3.54,1.1,5.78,1.1,1.51,0,2.85-.13,4.02-.4,1.17-.26,2.3-.69,3.39-1.29,1.09-.6,2.24-1.37,3.47-2.31l-3.26-4.42c-.98.88-2.1,1.55-3.37,2.02-1.26.47-2.56.71-3.89.71-1.82,0-3.34-.47-4.55-1.42-1.01-.79-1.66-1.9-1.95-3.33-.09-.45.24-.88.69-.88h16.9c.07-.49.11-.95.13-1.39.02-.44.03-.78.03-1.03,0-1.82-.26-3.54-.76-5.15-.51-1.61-1.25-3.02-2.23-4.23ZM597.22,31.39h-11.18c.11-.87.38-1.72.82-2.55.44-.82,1.09-1.5,1.97-2.02.88-.53,1.96-.79,3.26-.79.88,0,1.66.13,2.34.39.68.26,1.27.64,1.76,1.13.49.49.88,1.06,1.16,1.71.22.5.35,1.03.4,1.58.03.3-.23.55-.52.55Z"/>
          <path class="cls-2" d="M540.27,21.82c-1.42-.84-3.18-1.26-5.29-1.26-1.82,0-3.49.44-5,1.32-1.01.59-1.84,1.45-2.52,2.55v-3.34h-6.52v25.92h5.81c.39,0,.71-.32.71-.71v-14.97c0-1.62.47-2.87,1.4-3.76.94-.89,2.28-1.33,4.04-1.33.02,0,.05,0,.07,0,.02,0,.04,0,.06,0,.37,0,.71.03,1.03.08,0,0,.01,0,.02,0,.29.04.56.11.81.19.18.05.35.12.51.19,0,0,.01,0,.02,0,.47.2.9.45,1.24.78.84.83,1.26,2.07,1.26,3.7v15.82h5.81c.39,0,.71-.32.71-.71v-15.49c0-2.07-.34-3.87-1.03-5.42-.68-1.54-1.74-2.73-3.15-3.58Z"/>
          <path class="cls-2" d="M479.24,21.8v14.97c0,1.62-.47,2.87-1.4,3.76-.94.89-2.28,1.33-4.04,1.33-.02,0-.05,0-.07,0-.02,0-.04,0-.06,0-.37,0-.71-.03-1.03-.08,0,0-.01,0-.02,0-.29-.04-.56-.11-.81-.19-.18-.05-.35-.12-.51-.19,0,0-.01,0-.02,0-.47-.2-.9-.45-1.24-.78-.84-.83-1.26-2.07-1.26-3.7v-15.82h-5.81c-.39,0-.71.32-.71.71v15.49c0,2.07.34,3.87,1.03,5.42.68,1.54,1.74,2.73,3.15,3.58,1.42.84,3.18,1.26,5.29,1.26,1.82,0,3.49-.44,5-1.32.71-.41,1.33-.96,1.88-1.64.22-.27.65-.13.65.22v2.21s6.52,0,6.52,0v-25.92h-5.81c-.39,0-.71.32-.71.71Z"/>
          <path class="cls-2" d="M508.32,21.25c-.58-.19-1.2-.33-1.85-.45-.22-.04-.45-.06-.67-.09-.73-.1-1.49-.16-2.31-.16-2.21,0-4.27.33-6.18.97-1.72.58-3.4,1.5-5.05,2.75-.31.23-.37.68-.14.99l2.9,3.91c1.09-.98,2.34-1.74,3.76-2.29,1.42-.54,2.81-.81,4.18-.81,1.11,0,2.04.18,2.84.53.24.1.46.22.67.35.14.08.28.16.41.25.96.75,1.45,1.9,1.45,3.45v.63h-7.47c-1.23,0-2.38.11-3.44.32-1.07.21-2.04.58-2.92,1.1-1.02.56-1.83,1.38-2.45,2.45-.61,1.07-.92,2.36-.92,3.86,0,1.68.43,3.17,1.29,4.47.86,1.3,2.03,2.3,3.52,3,1.49.7,3.18,1.05,5.07,1.05,1.43,0,2.77-.3,4.04-.9l.02-.04v-3.88c0-.24-.2-.44-.44-.44h-2.68c-1.23,0-2.22-.27-2.97-.8-.91-.64-1.4-1.76-1.26-2.86.04-.3.12-.58.24-.83.18-.37.44-.67.79-.92.39-.32.85-.52,1.39-.61.54-.09,1.1-.13,1.66-.13h5.58c.52,0,.94.42.94.94v9.95h6.52v-16.35c0-3.16-1-5.63-3-7.41-.98-.88-2.16-1.54-3.52-1.99Z"/>
        </g>
        <g>
          <g>
            <path class="cls-2" d="M38.08,58.46h-6.92C6.56,58.46,0,38.98,0,27.47V4.95C0,2.22,2.22,0,4.95,0h14.63c2.73,0,4.95,2.22,4.95,4.95v18.49c0,.55.16,12.8,13.35,14.21V4.95c0-2.73,2.22-4.95,4.95-4.95h14.72c2.73,0,4.95,2.22,4.95,4.95v18.49c0,.59-.1,5.93-3.61,11.01-2.45,3.54-7.14,7.7-15.85,8.39v10.67c0,2.73-2.22,4.95-4.95,4.95ZM5.15,5.15v22.32c0,2.64.73,25.84,26.01,25.84h6.72v-10.47c-18.28-1.52-18.5-19.21-18.5-19.39V5.15H5.15ZM43.03,5.15v32.52c14.14-1.38,14.31-14.09,14.31-14.23V5.15h-14.31Z"/>
            <g class="cls-1">
              <path class="cls-2" d="M38.08,58.46h-6.92C6.56,58.46,0,38.98,0,27.47V4.95C0,2.22,2.22,0,4.95,0h14.63c2.73,0,4.95,2.22,4.95,4.95v18.49c0,.55.16,12.8,13.35,14.21V4.95c0-2.73,2.22-4.95,4.95-4.95h14.72c2.73,0,4.95,2.22,4.95,4.95v18.49c0,.59-.1,5.93-3.61,11.01-2.45,3.54-7.14,7.7-15.85,8.39v10.67c0,2.73-2.22,4.95-4.95,4.95ZM5.15,5.15v22.32c0,2.64.73,25.84,26.01,25.84h6.72v-10.47c-18.28-1.52-18.5-19.21-18.5-19.39V5.15H5.15ZM43.03,5.15v32.52c14.14-1.38,14.31-14.09,14.31-14.23V5.15h-14.31Z"/>
            </g>
          </g>
          <path class="cls-2" d="M85.11,47.02l-9.59-25.19h3.64l7.99,21.79,7.99-21.79h3.6l-9.64,25.19h-3.99Z"/>
          <path class="cls-2" d="M105.83,15.89c-.7,0-1.3-.24-1.8-.72-.5-.48-.75-1.09-.75-1.82s.24-1.37.72-1.82c.48-.45,1.09-.67,1.82-.67.67,0,1.25.23,1.75.67.5.45.75,1.06.75,1.82s-.24,1.34-.72,1.82c-.48.48-1.07.72-1.77.72ZM104.08,47.02v-25.19h3.49v25.19h-3.49Z"/>
          <path class="cls-2" d="M126.15,47.62c-2.46,0-4.6-.58-6.42-1.72-1.81-1.15-3.22-2.72-4.22-4.72-1-2-1.5-4.26-1.5-6.8s.5-4.79,1.5-6.77c1-1.98,2.41-3.54,4.24-4.67,1.83-1.13,3.98-1.7,6.44-1.7,2.1,0,3.95.46,5.57,1.37,1.61.92,2.85,2.21,3.72,3.87v-15.44h3.49v35.98h-3.2l-.3-4.55c-.5.87-1.18,1.7-2.05,2.5-.87.8-1.91,1.44-3.12,1.92-1.22.48-2.6.72-4.17.72ZM126.4,44.57c1.76,0,3.3-.42,4.62-1.27,1.31-.85,2.35-2.03,3.12-3.55.77-1.52,1.15-3.29,1.15-5.32s-.38-3.81-1.15-5.35c-.77-1.53-1.81-2.71-3.12-3.55-1.32-.83-2.85-1.25-4.62-1.25s-3.22.42-4.57,1.25c-1.35.83-2.4,2.01-3.14,3.52-.75,1.52-1.12,3.31-1.12,5.37s.38,3.86,1.15,5.37c.77,1.52,1.81,2.69,3.15,3.52,1.33.83,2.85,1.25,4.54,1.25Z"/>
          <path class="cls-2" d="M154.11,47.62c-2.03,0-3.72-.37-5.07-1.1s-2.35-1.68-3-2.85c-.65-1.17-.97-2.45-.97-3.85,0-1.73.44-3.2,1.32-4.4.88-1.2,2.13-2.1,3.74-2.7,1.61-.6,3.47-.9,5.57-.9h6.79c0-1.63-.25-3.01-.75-4.15-.5-1.13-1.22-1.99-2.17-2.57-.95-.58-2.16-.87-3.62-.87-1.73,0-3.21.43-4.44,1.3-1.23.87-2,2.13-2.3,3.8h-3.64c.2-1.77.81-3.25,1.82-4.45,1.02-1.2,2.28-2.11,3.79-2.72,1.51-.62,3.1-.92,4.77-.92,2.3,0,4.19.44,5.67,1.32,1.48.88,2.58,2.09,3.3,3.62.72,1.53,1.07,3.3,1.07,5.3v15.54h-3.2l-.15-4.6c-.33.7-.76,1.37-1.27,2-.52.63-1.12,1.18-1.8,1.65-.68.47-1.47.84-2.37,1.13-.9.28-1.93.42-3.1.42ZM154.51,44.52c1.26,0,2.38-.25,3.34-.75.97-.5,1.8-1.17,2.5-2,.7-.83,1.23-1.78,1.6-2.85.37-1.07.55-2.15.55-3.25v-.9h-6.54c-1.76,0-3.18.22-4.24.65-1.07.43-1.83,1.02-2.3,1.75-.47.73-.7,1.58-.7,2.55s.23,1.81.67,2.52c.45.72,1.11,1.27,1.97,1.67.86.4,1.91.6,3.15.6Z"/>
        </g>
        <path class="cls-2" d="M188.63,47.62c-1.9,0-3.57-.37-5.02-1.13-1.45-.75-2.57-1.91-3.37-3.47s-1.2-3.55-1.2-5.95v-15.24h3.49v14.84c0,2.67.59,4.65,1.77,5.95,1.18,1.3,2.82,1.95,4.92,1.95,1.5,0,2.84-.36,4.02-1.08,1.18-.71,2.11-1.76,2.8-3.12s1.02-3.05,1.02-5.05v-13.49h3.49v25.19h-3.2l-.2-4.5c-.8,1.6-1.96,2.85-3.47,3.75-1.52.9-3.2,1.35-5.07,1.35Z"/>
        <path class="cls-2" d="M207.65,47.02v-25.19h3.2l.2,4.5c.8-1.6,1.95-2.85,3.47-3.75,1.51-.9,3.2-1.35,5.07-1.35s3.61.38,5.04,1.15c1.43.77,2.55,1.92,3.34,3.47.8,1.55,1.2,3.52,1.2,5.92v15.24h-3.49v-14.84c0-2.67-.58-4.65-1.75-5.95-1.17-1.3-2.81-1.95-4.94-1.95-1.5,0-2.84.36-4.02,1.07-1.18.72-2.11,1.76-2.8,3.12-.68,1.37-1.02,3.05-1.02,5.05v13.49h-3.49Z"/>
        <path class="cls-2" d="M238.01,15.89c-.7,0-1.3-.24-1.8-.72-.5-.48-.75-1.09-.75-1.82s.24-1.37.72-1.82c.48-.45,1.09-.67,1.82-.67.67,0,1.25.23,1.75.67.5.45.75,1.06.75,1.82s-.24,1.34-.72,1.82c-.48.48-1.07.72-1.77.72ZM236.26,47.02v-25.19h3.49v25.19h-3.49Z"/>
        <path class="cls-2" d="M254.68,47.02l-9.59-25.19h3.64l7.99,21.79,7.99-21.79h3.6l-9.64,25.19h-3.99Z"/>
        <path class="cls-2" d="M282.64,47.62c-2.33,0-4.39-.55-6.17-1.65-1.78-1.1-3.18-2.64-4.19-4.62-1.02-1.98-1.52-4.3-1.52-6.97s.5-4.98,1.5-6.95c1-1.96,2.4-3.49,4.22-4.57,1.81-1.08,3.9-1.62,6.27-1.62s4.49.55,6.19,1.65c1.7,1.1,2.99,2.53,3.87,4.3.88,1.77,1.32,3.7,1.32,5.8v1.02c0,.35-.02.76-.05,1.22h-20.67v-2.95h17.33c-.1-2.56-.91-4.55-2.42-5.95-1.52-1.4-3.42-2.1-5.72-2.1-1.47,0-2.85.34-4.14,1.02-1.3.68-2.34,1.68-3.12,3-.78,1.32-1.17,2.97-1.17,4.97v1.3c0,2.27.41,4.15,1.22,5.65.82,1.5,1.87,2.62,3.17,3.35,1.3.73,2.66,1.1,4.09,1.1,1.9,0,3.46-.42,4.69-1.27,1.23-.85,2.11-2.02,2.65-3.52h3.45c-.4,1.47-1.08,2.79-2.05,3.97-.97,1.18-2.18,2.12-3.64,2.8-1.46.68-3.16,1.02-5.09,1.02Z"/>
        <path class="cls-2" d="M299.82,47.02v-25.19h3.2l.25,4.85c.53-1.17,1.25-2.15,2.15-2.95.9-.8,1.98-1.42,3.25-1.85,1.26-.43,2.7-.65,4.29-.65v3.65h-1.35c-1.07,0-2.1.14-3.1.42-1,.28-1.88.76-2.65,1.43s-1.38,1.57-1.85,2.7c-.47,1.13-.7,2.55-.7,4.25v13.34h-3.49Z"/>
        <path class="cls-2" d="M327.08,47.62c-2,0-3.75-.33-5.27-1-1.52-.67-2.73-1.62-3.65-2.87-.92-1.25-1.47-2.74-1.67-4.47h3.64c.17.97.54,1.85,1.12,2.65.58.8,1.37,1.43,2.37,1.9,1,.47,2.18.7,3.54.7,1.26,0,2.3-.18,3.12-.55.82-.37,1.43-.87,1.85-1.52.42-.65.62-1.37.62-2.17,0-1.1-.26-1.96-.77-2.57-.52-.62-1.26-1.08-2.22-1.38-.97-.3-2.13-.58-3.49-.85-1.13-.2-2.21-.47-3.22-.8-1.02-.33-1.93-.77-2.75-1.3-.82-.53-1.47-1.21-1.95-2.02-.48-.82-.72-1.77-.72-2.87,0-1.43.36-2.69,1.07-3.77s1.74-1.93,3.07-2.55c1.33-.62,2.9-.92,4.69-.92,2.56,0,4.66.64,6.29,1.92,1.63,1.28,2.58,3.16,2.85,5.62h-3.49c-.13-1.36-.7-2.45-1.7-3.25s-2.35-1.2-4.04-1.2-2.94.34-3.82,1.02c-.88.68-1.32,1.61-1.32,2.77,0,.73.23,1.37.7,1.9.47.53,1.16.99,2.07,1.37s2.04.71,3.37.97c1.6.3,3.07.69,4.42,1.17,1.35.48,2.45,1.22,3.3,2.2.85.98,1.27,2.37,1.27,4.17.03,1.5-.33,2.83-1.1,4-.77,1.17-1.84,2.07-3.22,2.72-1.38.65-3.04.97-4.97.97Z"/>
        <path class="cls-2" d="M344.8,15.89c-.7,0-1.3-.24-1.8-.72-.5-.48-.75-1.09-.75-1.82s.24-1.37.72-1.82c.48-.45,1.09-.67,1.82-.67.67,0,1.25.23,1.75.67.5.45.75,1.06.75,1.82s-.24,1.34-.72,1.82c-.48.48-1.07.72-1.77.72ZM343.05,47.02v-25.19h3.49v25.19h-3.49Z"/>
        <path class="cls-2" d="M363.62,47.02c-1.43,0-2.66-.23-3.69-.67-1.03-.45-1.82-1.2-2.37-2.25-.55-1.05-.82-2.49-.82-4.32v-14.94h-4.39v-3h4.39l.5-5.85h3v5.9h7.54v2.95h-7.54v14.94c0,1.67.33,2.79,1,3.37.67.58,1.85.87,3.54.87h2.6v3h-3.74Z"/>
        <path class="cls-2" d="M381.25,47.62c-2.03,0-3.72-.37-5.07-1.1s-2.35-1.68-3-2.85c-.65-1.17-.97-2.45-.97-3.85,0-1.73.44-3.2,1.32-4.4.88-1.2,2.13-2.1,3.74-2.7,1.61-.6,3.47-.9,5.57-.9h6.79c0-1.63-.25-3.01-.75-4.15-.5-1.13-1.22-1.99-2.17-2.57-.95-.58-2.16-.87-3.62-.87-1.73,0-3.21.43-4.44,1.3-1.23.87-2,2.13-2.3,3.8h-3.64c.2-1.77.81-3.25,1.82-4.45,1.02-1.2,2.28-2.11,3.79-2.72,1.51-.62,3.1-.92,4.77-.92,2.3,0,4.19.44,5.67,1.32,1.48.88,2.58,2.09,3.3,3.62.72,1.53,1.07,3.3,1.07,5.3v15.54h-3.2l-.15-4.6c-.33.7-.76,1.37-1.27,2-.52.63-1.12,1.18-1.8,1.65-.68.47-1.47.84-2.37,1.13-.9.28-1.93.42-3.1.42ZM381.65,44.52c1.26,0,2.38-.25,3.34-.75.97-.5,1.8-1.17,2.5-2,.7-.83,1.23-1.78,1.6-2.85.37-1.07.55-2.15.55-3.25v-.9h-6.54c-1.76,0-3.18.22-4.24.65-1.07.43-1.83,1.02-2.3,1.75-.47.73-.7,1.58-.7,2.55s.23,1.81.67,2.52c.45.72,1.11,1.27,1.97,1.67.86.4,1.91.6,3.15.6Z"/>
        <path class="cls-2" d="M399.72,47.02v-25.19h3.2l.25,4.85c.53-1.17,1.25-2.15,2.15-2.95.9-.8,1.98-1.42,3.25-1.85,1.26-.43,2.7-.65,4.29-.65v3.65h-1.35c-1.07,0-2.1.14-3.1.42-1,.28-1.88.76-2.65,1.43s-1.38,1.57-1.85,2.7c-.47,1.13-.7,2.55-.7,4.25v13.34h-3.49Z"/>
        <path class="cls-2" d="M419.99,15.89c-.7,0-1.3-.24-1.8-.72-.5-.48-.75-1.09-.75-1.82s.24-1.37.72-1.82c.48-.45,1.09-.67,1.82-.67.67,0,1.25.23,1.75.67.5.45.75,1.06.75,1.82s-.24,1.34-.72,1.82c-.48.48-1.07.72-1.77.72ZM418.24,47.02v-25.19h3.49v25.19h-3.49Z"/>
        <path class="cls-2" d="M437.31,47.62c-2.03,0-3.72-.37-5.07-1.1-1.35-.73-2.35-1.68-3-2.85-.65-1.17-.97-2.45-.97-3.85,0-1.73.44-3.2,1.32-4.4.88-1.2,2.13-2.1,3.74-2.7,1.61-.6,3.47-.9,5.57-.9h6.79c0-1.63-.25-3.01-.75-4.15-.5-1.13-1.22-1.99-2.17-2.57-.95-.58-2.16-.87-3.62-.87-1.73,0-3.21.43-4.44,1.3-1.23.87-2,2.13-2.3,3.8h-3.64c.2-1.77.81-3.25,1.82-4.45,1.02-1.2,2.28-2.11,3.79-2.72,1.51-.62,3.1-.92,4.77-.92,2.3,0,4.19.44,5.67,1.32,1.48.88,2.58,2.09,3.3,3.62.72,1.53,1.07,3.3,1.07,5.3v15.54h-3.2l-.15-4.6c-.33.7-.76,1.37-1.27,2-.52.63-1.12,1.18-1.8,1.65-.68.47-1.47.84-2.37,1.13-.9.28-1.93.42-3.1.42ZM437.71,44.52c1.26,0,2.38-.25,3.34-.75.97-.5,1.8-1.17,2.5-2,.7-.83,1.23-1.78,1.6-2.85.37-1.07.55-2.15.55-3.25v-.9h-6.54c-1.76,0-3.18.22-4.24.65-1.07.43-1.83,1.02-2.3,1.75-.47.73-.7,1.58-.7,2.55s.23,1.81.67,2.52c.45.72,1.11,1.27,1.97,1.67.86.4,1.91.6,3.15.6Z"/>
      </g>
    </g>
  </g>
</svg>