<?xml version="1.0" encoding="UTF-8"?>
<svg id="Capa_2" data-name="Capa 2" xmlns="http://www.w3.org/2000/svg" viewBox="0 0 424.72 58.68">
  <defs>
    <style>
      .cls-1 {
        fill: #243746;
      }
    </style>
  </defs>
  <g id="Capa_1-2" data-name="Capa 1">
    <g id="ads_flecha_mono">
      <g>
        <g>
          <path class="cls-1" d="M13.72,55.47c-3.08,0-5.65-.56-7.69-1.67s-3.56-2.55-4.55-4.32c-.98-1.77-1.48-3.71-1.48-5.83,0-2.62.67-4.85,2.01-6.67,1.34-1.82,3.23-3.18,5.68-4.09,2.45-.91,5.27-1.36,8.45-1.36h10.3c0-2.47-.38-4.57-1.14-6.29-.76-1.72-1.86-3.02-3.3-3.9-1.44-.88-3.27-1.33-5.49-1.33-2.63,0-4.87.66-6.74,1.97-1.87,1.31-3.03,3.23-3.49,5.76H.76c.3-2.68,1.22-4.93,2.77-6.74,1.54-1.82,3.46-3.19,5.76-4.13,2.3-.93,4.71-1.4,7.24-1.4,3.49,0,6.35.67,8.6,2.01,2.25,1.34,3.91,3.17,5,5.49,1.09,2.32,1.63,5,1.63,8.03v23.57h-4.85l-.23-6.97c-.51,1.06-1.15,2.07-1.93,3.03-.78.96-1.69,1.79-2.73,2.5-1.04.71-2.24,1.28-3.6,1.71-1.36.43-2.93.64-4.7.64ZM14.32,50.77c1.92,0,3.61-.38,5.08-1.14,1.46-.76,2.73-1.77,3.79-3.03,1.06-1.26,1.87-2.7,2.42-4.32.55-1.62.83-3.26.83-4.93v-1.36h-9.93c-2.68,0-4.82.33-6.44.99-1.62.66-2.78,1.54-3.49,2.65-.71,1.11-1.06,2.4-1.06,3.87s.34,2.74,1.02,3.83c.68,1.09,1.68,1.93,2.99,2.54,1.31.61,2.9.91,4.77.91Z"/>
          <path class="cls-1" d="M58.5,55.47c-3.74,0-6.98-.87-9.74-2.61-2.75-1.74-4.89-4.13-6.4-7.16-1.52-3.03-2.27-6.47-2.27-10.3s.76-7.26,2.27-10.27,3.66-5.37,6.44-7.08c2.78-1.72,6.03-2.58,9.77-2.58,3.18,0,6,.69,8.45,2.08,2.45,1.39,4.33,3.35,5.65,5.87V0h5.3v54.56h-4.85l-.45-6.89c-.76,1.31-1.79,2.57-3.11,3.79-1.31,1.21-2.89,2.19-4.74,2.92-1.84.73-3.95,1.1-6.33,1.1ZM58.87,50.84c2.68,0,5.01-.64,7.01-1.93,1.99-1.29,3.57-3.08,4.74-5.38,1.16-2.3,1.74-4.99,1.74-8.07s-.58-5.78-1.74-8.11c-1.16-2.32-2.74-4.12-4.74-5.38-2-1.26-4.33-1.89-7.01-1.89s-4.89.63-6.93,1.89c-2.05,1.26-3.64,3.04-4.77,5.34-1.14,2.3-1.71,5.01-1.71,8.14s.58,5.85,1.74,8.15c1.16,2.3,2.75,4.08,4.77,5.34,2.02,1.26,4.32,1.89,6.9,1.89Z"/>
          <path class="cls-1" d="M102.74,55.47c-3.03,0-5.7-.5-7.99-1.52-2.3-1.01-4.14-2.46-5.53-4.35-1.39-1.9-2.24-4.15-2.54-6.78h5.53c.25,1.46.82,2.8,1.71,4.02.88,1.21,2.08,2.17,3.6,2.88,1.52.71,3.31,1.06,5.38,1.06,1.92,0,3.5-.28,4.74-.83,1.24-.55,2.17-1.33,2.8-2.31.63-.98.95-2.08.95-3.29,0-1.67-.39-2.97-1.17-3.9-.78-.93-1.91-1.63-3.37-2.08-1.47-.45-3.23-.88-5.3-1.29-1.72-.3-3.35-.71-4.89-1.21-1.54-.5-2.93-1.16-4.17-1.97-1.24-.81-2.22-1.83-2.96-3.07-.73-1.24-1.1-2.69-1.1-4.36,0-2.17.54-4.08,1.63-5.72s2.64-2.93,4.66-3.87c2.02-.93,4.39-1.4,7.12-1.4,3.89,0,7.07.97,9.55,2.92,2.47,1.95,3.91,4.79,4.32,8.52h-5.3c-.2-2.07-1.06-3.71-2.58-4.93-1.52-1.21-3.56-1.82-6.14-1.82s-4.46.52-5.8,1.55c-1.34,1.04-2.01,2.44-2.01,4.21,0,1.11.35,2.07,1.06,2.88.71.81,1.75,1.5,3.14,2.08s3.09,1.07,5.12,1.48c2.42.45,4.66,1.05,6.71,1.78,2.05.73,3.71,1.85,5,3.33,1.29,1.49,1.93,3.6,1.93,6.33.05,2.27-.5,4.29-1.67,6.06-1.16,1.77-2.79,3.14-4.89,4.13-2.1.98-4.61,1.48-7.54,1.48Z"/>
        </g>
        <g>
          <path class="cls-1" d="M332.39,18.95c0,.58-.72.86-1.1.42-1.28-1.44-2.89-2.93-4.28-3.59-1.83-.88-3.81-1.32-5.94-1.32-3.03,0-5.82.81-8.37,2.43-2.55,1.62-4.58,3.95-6.1,6.98-1.52,3.03-2.27,6.7-2.27,11,0,3.88.68,7.38,2.03,10.49,1.36,3.11,3.28,5.55,5.78,7.34,2.5,1.78,5.47,2.67,8.93,2.67,1.97,0,3.87-.39,5.7-1.16,1.41-.59,3.15-2.18,4.51-3.72.39-.44,1.11-.17,1.11.42v3.66h9.81V2.4h-9.81v16.55ZM332.11,40.85c-.77,1.7-1.86,3.03-3.27,3.99-1.41.96-3.1,1.44-5.06,1.44s-3.59-.47-5.02-1.4c-1.44-.93-2.54-2.24-3.31-3.95-.77-1.7-1.16-3.72-1.16-6.06s.38-4.34,1.16-6.02c.77-1.68,1.87-2.98,3.31-3.91,1.44-.93,3.11-1.4,5.02-1.4s3.65.47,5.06,1.4c1.41.93,2.5,2.25,3.27,3.95.77,1.7,1.16,3.7,1.16,5.98s-.39,4.28-1.16,5.98Z"/>
          <path class="cls-1" d="M419.78,32.88c-1.49-.9-3.08-1.62-4.78-2.15-1.7-.53-3.35-.98-4.94-1.36-1.7-.42-3.07-.81-4.11-1.16-1.04-.34-1.78-.76-2.23-1.24-.45-.48-.68-1.06-.68-1.75,0-1.01.49-1.81,1.48-2.39.98-.59,2.24-.88,3.79-.88,1.76,0,3.42.39,4.98,1.16,1.23.61,2.28,1.45,3.14,2.54.39.5,1.13.55,1.63.15l5.16-4.09c-1.49-2.34-3.51-4.13-6.06-5.38-2.55-1.25-5.39-1.87-8.53-1.87-5.22,0-9.24,1.47-12.06,4.41-1.88,1.96-2.78,4.6-2.77,7.32.01,2.03.42,3.73,1.24,5.09.82,1.38,1.9,2.51,3.23,3.39,1.33.88,2.79,1.58,4.38,2.11,1.6.53,3.14,1.01,4.62,1.43,1.44.37,2.74.76,3.91,1.16,1.17.4,2.1.9,2.79,1.52.69.61,1.04,1.4,1.04,2.35,0,1.17-.55,2.14-1.64,2.91-1.09.77-2.62,1.16-4.58,1.16-2.5,0-4.58-.62-6.26-1.87-1.28-.96-2.34-1.98-3.17-3.08-.41-.54-1.19-.6-1.7-.16l-5.77,5.03c.9,1.17,2.11,2.39,3.63,3.67,1.52,1.28,3.36,2.34,5.54,3.19,2.18.85,4.73,1.28,7.65,1.28,3.24,0,6.06-.56,8.45-1.67,2.39-1.12,4.25-2.67,5.58-4.66,1.33-1.99,1.99-4.29,1.99-6.9,0-2.28-.45-4.17-1.36-5.66-.9-1.49-2.1-2.68-3.59-3.59Z"/>
          <path class="cls-1" d="M382.55,20.32c-1.49-1.84-3.38-3.27-5.66-4.31-2.29-1.04-4.97-1.56-8.05-1.56-3.3,0-6.13.6-8.49,1.79-2.37,1.2-4.29,2.78-5.78,4.74-1.49,1.97-2.61,4.17-3.35,6.62-.74,2.45-1.12,4.94-1.12,7.5s.37,5.2,1.12,7.61c.74,2.42,1.9,4.57,3.47,6.46,1.57,1.89,3.57,3.39,6.02,4.5,2.44,1.12,5.37,1.67,8.77,1.67,2.28,0,4.32-.2,6.1-.6,1.78-.4,3.49-1.05,5.14-1.95,1.65-.9,3.4-2.07,5.26-3.51l-4.94-6.7c-1.49,1.33-3.19,2.35-5.1,3.07-1.91.72-3.88,1.08-5.9,1.08-2.77,0-5.06-.72-6.9-2.15-1.53-1.2-2.52-2.88-2.96-5.05-.14-.68.36-1.33,1.05-1.33h25.63c.11-.74.17-1.45.2-2.11.03-.67.04-1.18.04-1.56,0-2.76-.39-5.37-1.16-7.81-.77-2.45-1.9-4.59-3.39-6.42ZM376.85,30.88h-16.95c.16-1.32.57-2.61,1.24-3.86.66-1.25,1.66-2.27,2.99-3.07,1.33-.8,2.98-1.2,4.94-1.2,1.33,0,2.51.2,3.55.6,1.04.4,1.93.97,2.67,1.72.74.74,1.33,1.61,1.75,2.59.33.76.53,1.56.6,2.39.04.45-.34.83-.8.83Z"/>
          <path class="cls-1" d="M290.49,16.37c-2.15-1.28-4.83-1.91-8.01-1.91-2.76,0-5.29.67-7.57,1.99-1.53.89-2.79,2.2-3.83,3.86v-5.06h-9.89v39.31h8.81c.59,0,1.08-.48,1.08-1.08v-22.7c0-2.45.71-4.35,2.13-5.7,1.42-1.35,3.46-2.02,6.12-2.02.04,0,.07,0,.11,0,.03,0,.06,0,.09,0,.56,0,1.08.05,1.57.12,0,0,.02,0,.03,0,.44.07.85.16,1.23.28.27.08.52.18.77.28,0,0,.02,0,.02.01.72.3,1.36.68,1.88,1.19,1.28,1.26,1.92,3.13,1.92,5.62v23.99h8.81c.59,0,1.08-.48,1.08-1.08v-23.48c0-3.14-.52-5.87-1.56-8.21-1.04-2.34-2.63-4.15-4.78-5.42Z"/>
          <path class="cls-1" d="M197.96,16.33v22.7c0,2.45-.71,4.35-2.13,5.7-1.42,1.35-3.46,2.02-6.12,2.02-.04,0-.07,0-.11,0-.03,0-.06,0-.09,0-.56,0-1.08-.05-1.57-.12,0,0-.02,0-.03,0-.44-.07-.85-.16-1.23-.28-.27-.08-.52-.18-.77-.28,0,0-.02,0-.02-.01-.72-.3-1.36-.68-1.88-1.19-1.28-1.26-1.92-3.13-1.92-5.62V15.26h-8.81c-.59,0-1.08.48-1.08,1.08v23.48c0,3.14.52,5.87,1.56,8.21,1.04,2.34,2.63,4.15,4.78,5.42,2.15,1.28,4.83,1.91,8.01,1.91,2.76,0,5.29-.67,7.57-1.99,1.08-.63,2.02-1.46,2.85-2.48.33-.41.98-.19.98.33v3.34s9.89,0,9.89,0V15.26h-8.81c-.59,0-1.08.48-1.08,1.08Z"/>
          <path class="cls-1" d="M242.06,15.51c-.88-.29-1.82-.51-2.81-.68-.33-.06-.68-.09-1.02-.13-1.11-.15-2.27-.25-3.51-.25-3.35,0-6.47.49-9.37,1.48-2.61.89-5.16,2.27-7.65,4.17-.47.36-.56,1.03-.21,1.51l4.39,5.93c1.65-1.49,3.55-2.64,5.7-3.47,2.15-.82,4.27-1.24,6.34-1.24,1.68,0,3.1.28,4.3.8.36.16.7.33,1.02.53.21.13.43.24.61.39,1.46,1.14,2.19,2.89,2.19,5.22v.96h-11.32c-1.86,0-3.6.16-5.22.48-1.62.32-3.1.88-4.43,1.68-1.54.85-2.78,2.09-3.71,3.71-.93,1.62-1.4,3.57-1.4,5.86,0,2.55.65,4.81,1.95,6.78,1.3,1.97,3.08,3.48,5.34,4.55,2.26,1.06,4.82,1.6,7.69,1.6,2.16,0,4.2-.46,6.12-1.37l.04-.06v-5.88c0-.37-.3-.66-.66-.66h-4.06c-1.86,0-3.36-.4-4.51-1.21-1.38-.97-2.12-2.67-1.91-4.34.06-.45.18-.87.36-1.26.27-.56.67-1.02,1.2-1.39.58-.48,1.29-.79,2.11-.92.82-.13,1.66-.2,2.51-.2h8.47c.78,0,1.42.64,1.42,1.42v15.08h9.89v-24.8c0-4.78-1.52-8.53-4.55-11.24-1.49-1.33-3.27-2.33-5.34-3.01Z"/>
          <path class="cls-1" d="M131.05,58.68v-11.19c0-.84.41-1.64,1.1-2.14l14.94-10.84-14.94-10.84c-.69-.5-1.1-1.3-1.1-2.14v-11.18l22.17,16.08c5.52,4.01,5.52,12.15,0,16.16l-22.17,16.08Z"/>
        </g>
      </g>
    </g>
  </g>
</svg>