<?xml version="1.0" encoding="UTF-8"?>
<svg id="Capa_2" data-name="Capa 2" xmlns="http://www.w3.org/2000/svg" viewBox="0 0 611.98 53.76">
  <defs>
    <style>
      .cls-1 {
        fill: #ce0019;
      }

      .cls-2 {
        fill: #243746;
      }
    </style>
  </defs>
  <g id="Capa_1-2" data-name="Capa 1">
    <g id="enfermeria_flecha_bicolor">
      <g>
        <path class="cls-2" d="M16.44,50.83c-3.22,0-6.07-.76-8.53-2.28-2.46-1.52-4.4-3.65-5.8-6.39-1.41-2.74-2.11-5.95-2.11-9.63s.69-6.88,2.07-9.6c1.38-2.72,3.33-4.82,5.84-6.32,2.51-1.5,5.4-2.24,8.67-2.24s6.22.76,8.56,2.28c2.35,1.52,4.13,3.5,5.35,5.94,1.22,2.44,1.83,5.11,1.83,8.01v1.41c0,.48-.02,1.05-.07,1.69H3.66v-4.07h23.97c-.14-3.54-1.26-6.28-3.35-8.22-2.1-1.93-4.73-2.9-7.91-2.9-2.03,0-3.94.47-5.73,1.42-1.8.94-3.24,2.32-4.32,4.14-1.08,1.82-1.62,4.11-1.62,6.87v1.8c0,3.13.56,5.73,1.69,7.8,1.13,2.07,2.59,3.62,4.39,4.63,1.8,1.01,3.68,1.52,5.66,1.52,2.62,0,4.79-.59,6.49-1.76,1.7-1.17,2.92-2.8,3.66-4.87h4.77c-.55,2.03-1.5,3.86-2.83,5.49-1.34,1.64-3.02,2.93-5.04,3.87-2.03.94-4.37,1.42-7.04,1.42Z"/>
        <path class="cls-2" d="M40.19,50V15.19h4.42l.28,6.21c1.1-2.21,2.7-3.94,4.8-5.18,2.09-1.24,4.43-1.86,7.01-1.86s4.99.53,6.98,1.59c1.98,1.06,3.52,2.66,4.63,4.8,1.1,2.14,1.66,4.87,1.66,8.18v21.06h-4.83v-20.51c0-3.68-.81-6.42-2.42-8.22-1.61-1.8-3.89-2.69-6.84-2.69-2.07,0-3.93.49-5.56,1.48-1.63.99-2.92,2.43-3.87,4.32-.94,1.89-1.42,4.21-1.42,6.98v18.65h-4.83Z"/>
        <path class="cls-2" d="M75.76,19.34v-4.14h19.27v4.14h-19.27ZM81.15,50V9.19c0-2.03.33-3.7,1-5.01.67-1.31,1.67-2.29,3-2.94s3.02-.97,5.04-.97h3.94v4.14h-3.11c-1.84,0-3.14.37-3.9,1.1-.76.74-1.14,2.03-1.14,3.87v40.61h-4.83Z"/>
        <path class="cls-2" d="M115.61,50.83c-3.22,0-6.07-.76-8.53-2.28-2.46-1.52-4.4-3.65-5.8-6.39-1.41-2.74-2.11-5.95-2.11-9.63s.69-6.88,2.07-9.6c1.38-2.72,3.33-4.82,5.84-6.32,2.51-1.5,5.4-2.24,8.67-2.24s6.22.76,8.56,2.28c2.35,1.52,4.13,3.5,5.35,5.94,1.22,2.44,1.83,5.11,1.83,8.01v1.41c0,.48-.02,1.05-.07,1.69h-28.59v-4.07h23.97c-.14-3.54-1.26-6.28-3.35-8.22-2.1-1.93-4.73-2.9-7.91-2.9-2.03,0-3.94.47-5.73,1.42-1.8.94-3.24,2.32-4.32,4.14-1.08,1.82-1.62,4.11-1.62,6.87v1.8c0,3.13.56,5.73,1.69,7.8,1.13,2.07,2.59,3.62,4.39,4.63,1.8,1.01,3.68,1.52,5.66,1.52,2.62,0,4.79-.59,6.49-1.76,1.7-1.17,2.92-2.8,3.66-4.87h4.77c-.55,2.03-1.5,3.86-2.83,5.49-1.34,1.64-3.02,2.93-5.04,3.87-2.03.94-4.37,1.42-7.04,1.42Z"/>
        <path class="cls-2" d="M139.37,50V15.19h4.42l.35,6.7c.74-1.61,1.73-2.97,2.97-4.07,1.24-1.1,2.74-1.96,4.49-2.55,1.75-.6,3.73-.9,5.94-.9v5.04h-1.86c-1.47,0-2.9.2-4.28.59-1.38.39-2.6,1.05-3.66,1.97s-1.91,2.16-2.55,3.73c-.65,1.57-.97,3.52-.97,5.87v18.44h-4.83Z"/>
        <path class="cls-2" d="M164.3,50V15.19h4.42l.35,5.25c1.06-1.93,2.53-3.43,4.42-4.49,1.89-1.06,3.98-1.59,6.28-1.59,1.75,0,3.36.25,4.84.76,1.47.51,2.76,1.27,3.87,2.28,1.1,1.01,2,2.32,2.69,3.94,1.1-2.16,2.7-3.87,4.8-5.11,2.09-1.24,4.34-1.86,6.73-1.86,2.67,0,5,.53,6.98,1.59,1.98,1.06,3.51,2.67,4.59,4.83,1.08,2.16,1.62,4.9,1.62,8.22v20.99h-4.83v-20.44c0-3.68-.75-6.43-2.24-8.25-1.5-1.82-3.63-2.73-6.39-2.73-1.84,0-3.52.49-5.04,1.48-1.52.99-2.71,2.42-3.56,4.28-.85,1.86-1.28,4.18-1.28,6.94v18.72h-4.83v-20.44c0-3.68-.76-6.43-2.28-8.25s-3.62-2.73-6.28-2.73c-1.93,0-3.65.49-5.15,1.48-1.5.99-2.68,2.44-3.56,4.35-.87,1.91-1.31,4.27-1.31,7.08v18.51h-4.83Z"/>
        <path class="cls-2" d="M239.92,50.83c-3.22,0-6.07-.76-8.53-2.28-2.46-1.52-4.4-3.65-5.8-6.39-1.41-2.74-2.11-5.95-2.11-9.63s.69-6.88,2.07-9.6c1.38-2.72,3.33-4.82,5.84-6.32,2.51-1.5,5.4-2.24,8.67-2.24s6.22.76,8.56,2.28c2.35,1.52,4.13,3.5,5.35,5.94,1.22,2.44,1.83,5.11,1.83,8.01v1.41c0,.48-.02,1.05-.07,1.69h-28.59v-4.07h23.97c-.14-3.54-1.26-6.28-3.35-8.22-2.1-1.93-4.73-2.9-7.91-2.9-2.03,0-3.94.47-5.73,1.42-1.8.94-3.24,2.32-4.32,4.14-1.08,1.82-1.62,4.11-1.62,6.87v1.8c0,3.13.56,5.73,1.69,7.8,1.13,2.07,2.59,3.62,4.39,4.63,1.8,1.01,3.68,1.52,5.66,1.52,2.62,0,4.79-.59,6.49-1.76,1.7-1.17,2.92-2.8,3.66-4.87h4.77c-.55,2.03-1.5,3.86-2.83,5.49-1.34,1.64-3.02,2.93-5.04,3.87-2.03.94-4.37,1.42-7.04,1.42Z"/>
        <path class="cls-2" d="M263.68,50V15.19h4.42l.35,6.7c.74-1.61,1.73-2.97,2.97-4.07,1.24-1.1,2.74-1.96,4.49-2.55,1.75-.6,3.73-.9,5.94-.9v5.04h-1.86c-1.47,0-2.9.2-4.28.59-1.38.39-2.6,1.05-3.66,1.97s-1.91,2.16-2.55,3.73c-.65,1.57-.97,3.52-.97,5.87v18.44h-4.83Z"/>
        <path class="cls-2" d="M284.39,12.23l-.48-3.45,13.54-8.77.62,4.21-13.67,8.01ZM288.61,50V15.19h4.83v34.81h-4.83Z"/>
        <path class="cls-2" d="M314.37,50.83c-2.81,0-5.15-.51-7.01-1.52s-3.25-2.32-4.14-3.94c-.9-1.61-1.35-3.38-1.35-5.32,0-2.39.61-4.42,1.83-6.08,1.22-1.66,2.95-2.9,5.18-3.73,2.23-.83,4.8-1.24,7.7-1.24h9.39c0-2.26-.35-4.17-1.04-5.73-.69-1.57-1.69-2.75-3-3.56-1.31-.81-2.98-1.21-5.01-1.21-2.39,0-4.44.6-6.15,1.8-1.7,1.2-2.76,2.95-3.18,5.25h-5.04c.28-2.44,1.12-4.49,2.52-6.15,1.4-1.66,3.15-2.91,5.25-3.76,2.09-.85,4.29-1.28,6.6-1.28,3.18,0,5.79.61,7.84,1.83,2.05,1.22,3.57,2.89,4.56,5.01.99,2.12,1.48,4.56,1.48,7.32v21.48h-4.42l-.21-6.35c-.46.97-1.05,1.89-1.76,2.76-.71.87-1.54,1.63-2.49,2.28-.94.65-2.04,1.16-3.28,1.56-1.24.39-2.67.59-4.28.59ZM314.92,46.55c1.75,0,3.29-.35,4.63-1.04,1.33-.69,2.49-1.61,3.45-2.76.97-1.15,1.7-2.46,2.21-3.94.51-1.47.76-2.97.76-4.49v-1.24h-9.05c-2.44,0-4.4.3-5.87.9-1.47.6-2.53,1.4-3.18,2.42-.64,1.01-.97,2.19-.97,3.52s.31,2.5.93,3.49c.62.99,1.53,1.76,2.73,2.31,1.2.55,2.65.83,4.35.83Z"/>
      </g>
      <g>
        <path class="cls-2" d="M527.82,17.54c0,.53-.65.78-1,.38-1.16-1.31-2.63-2.67-3.9-3.27-1.67-.8-3.48-1.2-5.41-1.2-2.76,0-5.3.74-7.63,2.22-2.33,1.48-4.18,3.6-5.56,6.36-1.38,2.76-2.07,6.11-2.07,10.03,0,3.54.62,6.72,1.85,9.56,1.24,2.83,2.99,5.06,5.27,6.69,2.28,1.62,4.99,2.43,8.14,2.43,1.79,0,3.53-.35,5.2-1.05,1.29-.54,2.87-1.99,4.11-3.39.35-.4,1.01-.16,1.01.38v3.34h8.94V2.46h-8.94v15.08ZM527.57,37.51c-.7,1.55-1.7,2.76-2.98,3.63-1.28.87-2.82,1.31-4.61,1.31s-3.27-.42-4.58-1.27c-1.31-.85-2.31-2.05-3.02-3.6-.7-1.55-1.05-3.39-1.05-5.52s.35-3.96,1.05-5.49c.7-1.53,1.71-2.71,3.02-3.56,1.31-.85,2.83-1.27,4.58-1.27s3.33.43,4.61,1.27c1.28.85,2.28,2.05,2.98,3.6.7,1.55,1.05,3.37,1.05,5.45s-.35,3.9-1.05,5.45Z"/>
        <path class="cls-2" d="M607.47,30.24c-1.36-.82-2.81-1.48-4.36-1.96-1.55-.48-3.05-.9-4.51-1.24-1.55-.39-2.8-.74-3.74-1.05-.94-.31-1.62-.69-2.03-1.13-.41-.44-.62-.97-.62-1.6,0-.92.45-1.65,1.35-2.18.9-.53,2.05-.8,3.45-.8,1.6,0,3.11.35,4.54,1.05,1.13.55,2.08,1.33,2.86,2.32.36.45,1.03.5,1.49.14l4.7-3.73c-1.36-2.13-3.2-3.77-5.52-4.91-2.33-1.14-4.92-1.71-7.78-1.71-4.76,0-8.42,1.34-10.99,4.02-1.72,1.79-2.54,4.19-2.52,6.67.01,1.85.39,3.4,1.13,4.64.75,1.26,1.73,2.29,2.94,3.09,1.21.8,2.54,1.44,4,1.93,1.45.48,2.86.92,4.21,1.31,1.31.34,2.49.69,3.56,1.05,1.06.36,1.91.82,2.54,1.38.63.56.94,1.27.94,2.14,0,1.07-.5,1.95-1.49,2.65-.99.7-2.39,1.05-4.18,1.05-2.28,0-4.18-.57-5.71-1.71-1.17-.87-2.13-1.81-2.89-2.81-.37-.49-1.09-.55-1.55-.14l-5.26,4.58c.82,1.07,1.93,2.18,3.31,3.34,1.38,1.16,3.06,2.13,5.05,2.91,1.99.77,4.31,1.16,6.98,1.16,2.96,0,5.52-.51,7.7-1.53,2.18-1.02,3.88-2.44,5.09-4.25,1.21-1.82,1.82-3.91,1.82-6.29,0-2.08-.41-3.8-1.24-5.16-.82-1.36-1.91-2.45-3.27-3.27Z"/>
        <path class="cls-2" d="M573.54,18.8c-1.36-1.67-3.08-2.98-5.16-3.93-2.08-.94-4.53-1.42-7.34-1.42-3.01,0-5.59.55-7.74,1.64-2.16,1.09-3.91,2.53-5.27,4.32-1.36,1.79-2.37,3.8-3.05,6.03-.68,2.23-1.02,4.51-1.02,6.83s.34,4.74,1.02,6.94c.68,2.21,1.73,4.17,3.16,5.89,1.43,1.72,3.26,3.09,5.49,4.11,2.23,1.02,4.89,1.53,7.99,1.53,2.08,0,3.94-.18,5.56-.55,1.62-.36,3.18-.96,4.69-1.78,1.5-.82,3.1-1.89,4.8-3.2l-4.51-6.1c-1.36,1.21-2.91,2.14-4.65,2.8-1.75.66-3.54.98-5.38.98-2.52,0-4.62-.66-6.29-1.96-1.4-1.09-2.3-2.63-2.69-4.6-.12-.62.33-1.21.96-1.21h23.36c.1-.68.16-1.32.18-1.93.02-.61.04-1.08.04-1.42,0-2.52-.35-4.89-1.05-7.12-.7-2.23-1.73-4.18-3.09-5.85ZM568.35,28.42h-15.45c.15-1.2.52-2.38,1.13-3.52.6-1.14,1.51-2.07,2.72-2.8,1.21-.73,2.71-1.09,4.51-1.09,1.21,0,2.29.18,3.23.54.95.36,1.76.88,2.44,1.56.68.68,1.21,1.47,1.6,2.36.3.69.48,1.42.55,2.18.04.41-.31.75-.72.75Z"/>
        <path class="cls-2" d="M489.64,15.2c-1.96-1.16-4.4-1.75-7.3-1.75-2.52,0-4.82.61-6.9,1.82-1.4.81-2.55,2.01-3.49,3.52v-4.61h-9.01v35.83h8.03c.54,0,.98-.44.98-.98v-20.69c0-2.23.65-3.96,1.94-5.19,1.29-1.23,3.15-1.84,5.58-1.84.03,0,.06,0,.1,0,.03,0,.05,0,.08,0,.51,0,.98.04,1.43.11,0,0,.02,0,.02,0,.4.06.77.15,1.12.26.25.07.48.16.7.26,0,0,.01,0,.02,0,.66.28,1.24.62,1.71,1.08,1.16,1.15,1.75,2.86,1.75,5.12v21.86h8.03c.54,0,.98-.44.98-.98v-21.4c0-2.86-.47-5.35-1.42-7.48-.94-2.13-2.4-3.78-4.36-4.94Z"/>
        <path class="cls-2" d="M405.3,15.16v20.69c0,2.23-.65,3.96-1.94,5.19-1.29,1.23-3.15,1.84-5.58,1.84-.03,0-.06,0-.1,0-.03,0-.05,0-.08,0-.51,0-.98-.04-1.43-.11,0,0-.02,0-.02,0-.4-.06-.77-.15-1.12-.26-.25-.07-.48-.16-.7-.26,0,0-.01,0-.02,0-.66-.28-1.24-.62-1.71-1.08-1.16-1.15-1.75-2.86-1.75-5.12V14.18h-8.03c-.54,0-.98.44-.98.98v21.4c0,2.86.47,5.35,1.42,7.48.94,2.13,2.4,3.78,4.36,4.94,1.96,1.16,4.4,1.75,7.3,1.75,2.52,0,4.82-.61,6.9-1.82.98-.57,1.84-1.33,2.6-2.26.3-.37.89-.17.89.3v3.05s9.01,0,9.01,0V14.18h-8.03c-.54,0-.98.44-.98.98Z"/>
        <path class="cls-2" d="M445.49,14.42c-.8-.26-1.66-.46-2.56-.62-.3-.05-.62-.08-.93-.12-1.01-.13-2.06-.23-3.2-.23-3.05,0-5.9.45-8.54,1.34-2.38.81-4.7,2.07-6.98,3.8-.43.32-.51.94-.19,1.37l4,5.4c1.5-1.36,3.23-2.41,5.2-3.16,1.96-.75,3.89-1.13,5.78-1.13,1.53,0,2.83.25,3.92.73.33.14.64.3.93.48.19.12.39.22.56.35,1.33,1.04,2,2.63,2,4.76v.87h-10.32c-1.7,0-3.28.15-4.76.44-1.48.29-2.82.8-4.03,1.53-1.4.78-2.53,1.9-3.38,3.38-.85,1.48-1.27,3.26-1.27,5.34,0,2.33.59,4.39,1.78,6.18,1.19,1.79,2.81,3.17,4.87,4.14,2.06.97,4.4,1.45,7.01,1.45,1.97,0,3.83-.42,5.58-1.25l.03-.05v-5.36c0-.33-.27-.61-.61-.61h-3.7c-1.7,0-3.07-.37-4.11-1.11-1.25-.89-1.93-2.43-1.74-3.96.05-.41.16-.8.33-1.15.24-.51.61-.93,1.09-1.27.53-.44,1.17-.72,1.93-.84.75-.12,1.51-.18,2.29-.18h7.72c.72,0,1.3.58,1.3,1.29v13.75h9.01v-22.6c0-4.36-1.38-7.78-4.14-10.25-1.36-1.21-2.98-2.13-4.87-2.75Z"/>
        <path class="cls-1" d="M344.31,53.76v-10.2c0-.77.38-1.49,1-1.95l13.61-9.88-13.61-9.88c-.62-.46-1-1.19-1-1.95v-10.19l20.21,14.66c5.03,3.65,5.03,11.07,0,14.73l-20.21,14.66Z"/>
      </g>
    </g>
  </g>
</svg>