<?xml version="1.0" encoding="UTF-8"?>
<svg id="Capa_2" data-name="Capa 2" xmlns="http://www.w3.org/2000/svg" viewBox="0 0 611.98 54.9">
  <defs>
    <style>
      .cls-1 {
        fill: #ce0019;
      }

      .cls-2 {
        fill: #243746;
      }
    </style>
  </defs>
  <g id="Capa_1-2" data-name="Capa 1">
    <g id="fonoadiologia_flecha_bicolor">
      <g>
        <path class="cls-2" d="M0,16.08v-3.45h16.02v3.45H0ZM4.48,41.58V7.64c0-1.68.28-3.07.83-4.16.56-1.09,1.39-1.9,2.5-2.44,1.11-.54,2.51-.8,4.19-.8h3.27v3.45h-2.58c-1.53,0-2.61.31-3.24.92-.63.61-.95,1.69-.95,3.22v33.77h-4.02Z"/>
        <path class="cls-2" d="M33.48,42.26c-2.64,0-5.02-.62-7.15-1.87-2.12-1.24-3.8-3.01-5.02-5.28-1.23-2.28-1.84-4.93-1.84-7.95s.62-5.84,1.87-8.1c1.24-2.26,2.94-4.01,5.08-5.25,2.14-1.24,4.54-1.87,7.18-1.87s5.19.62,7.29,1.87c2.1,1.25,3.77,3,5,5.25,1.22,2.26,1.84,4.96,1.84,8.1s-.62,5.68-1.87,7.95c-1.24,2.28-2.93,4.04-5.05,5.28-2.12,1.24-4.56,1.87-7.32,1.87ZM33.54,38.82c1.8,0,3.45-.44,4.97-1.32,1.51-.88,2.74-2.19,3.67-3.93.94-1.74,1.41-3.89,1.41-6.46s-.46-4.76-1.38-6.49c-.92-1.72-2.13-3.02-3.65-3.88-1.51-.86-3.17-1.29-4.97-1.29s-3.35.44-4.88,1.32c-1.53.88-2.77,2.17-3.7,3.88-.94,1.7-1.41,3.86-1.41,6.46s.46,4.72,1.38,6.46c.92,1.74,2.13,3.05,3.65,3.93s3.15,1.32,4.91,1.32Z"/>
        <path class="cls-2" d="M54.61,41.58V12.63h3.67l.23,5.17c.92-1.84,2.25-3.27,3.99-4.31,1.74-1.03,3.68-1.55,5.83-1.55s4.15.44,5.8,1.32c1.65.88,2.93,2.21,3.85,3.99.92,1.78,1.38,4.05,1.38,6.81v17.51h-4.02v-17.05c0-3.06-.67-5.34-2.01-6.83-1.34-1.49-3.24-2.24-5.69-2.24-1.72,0-3.26.41-4.62,1.23-1.36.82-2.43,2.02-3.22,3.59-.79,1.57-1.18,3.5-1.18,5.8v15.5h-4.02Z"/>
        <path class="cls-2" d="M99.69,42.26c-2.64,0-5.02-.62-7.15-1.87-2.12-1.24-3.8-3.01-5.02-5.28-1.23-2.28-1.84-4.93-1.84-7.95s.62-5.84,1.87-8.1c1.24-2.26,2.94-4.01,5.08-5.25,2.14-1.24,4.54-1.87,7.18-1.87s5.19.62,7.29,1.87c2.1,1.25,3.77,3,5,5.25,1.22,2.26,1.84,4.96,1.84,8.1s-.62,5.68-1.87,7.95c-1.24,2.28-2.93,4.04-5.05,5.28-2.12,1.24-4.56,1.87-7.32,1.87ZM99.74,38.82c1.8,0,3.45-.44,4.97-1.32,1.51-.88,2.74-2.19,3.67-3.93.94-1.74,1.41-3.89,1.41-6.46s-.46-4.76-1.38-6.49c-.92-1.72-2.13-3.02-3.65-3.88-1.51-.86-3.17-1.29-4.97-1.29s-3.35.44-4.88,1.32c-1.53.88-2.77,2.17-3.7,3.88-.94,1.7-1.41,3.86-1.41,6.46s.46,4.72,1.38,6.46c.92,1.74,2.13,3.05,3.65,3.93s3.15,1.32,4.91,1.32Z"/>
        <path class="cls-2" d="M130.06,42.26c-2.34,0-4.28-.42-5.83-1.26s-2.7-1.93-3.45-3.27c-.75-1.34-1.12-2.81-1.12-4.42,0-1.99.51-3.67,1.52-5.05,1.01-1.38,2.45-2.41,4.31-3.1,1.86-.69,3.99-1.03,6.4-1.03h7.81c0-1.88-.29-3.46-.86-4.77-.57-1.3-1.41-2.29-2.5-2.96-1.09-.67-2.48-1-4.16-1-1.99,0-3.69.5-5.11,1.49-1.42,1-2.3,2.45-2.64,4.36h-4.19c.23-2.03.93-3.73,2.1-5.11,1.17-1.38,2.62-2.42,4.36-3.13,1.74-.71,3.57-1.06,5.48-1.06,2.64,0,4.81.51,6.52,1.52,1.7,1.01,2.97,2.4,3.79,4.16.82,1.76,1.23,3.79,1.23,6.09v17.86h-3.67l-.17-5.28c-.38.8-.87,1.57-1.46,2.3-.59.73-1.28,1.36-2.07,1.89-.79.54-1.69.97-2.73,1.29-1.03.32-2.22.49-3.56.49ZM130.52,38.7c1.45,0,2.74-.29,3.85-.86,1.11-.57,2.07-1.34,2.87-2.3.8-.96,1.42-2.05,1.84-3.27.42-1.23.63-2.47.63-3.73v-1.03h-7.52c-2.03,0-3.66.25-4.88.75-1.23.5-2.11,1.17-2.64,2.01-.54.84-.8,1.82-.8,2.93s.26,2.08.78,2.9c.52.82,1.27,1.46,2.27,1.92.99.46,2.2.69,3.62.69Z"/>
        <path class="cls-2" d="M161.76,42.26c-2.18,0-4.11-.43-5.77-1.29-1.67-.86-2.96-2.19-3.88-3.99-.92-1.8-1.38-4.08-1.38-6.83V12.63h4.02v17.05c0,3.06.68,5.34,2.04,6.83,1.36,1.49,3.24,2.24,5.66,2.24,1.72,0,3.26-.41,4.62-1.24,1.36-.82,2.43-2.02,3.22-3.59s1.18-3.5,1.18-5.8v-15.5h4.02v28.94h-3.68l-.23-5.17c-.92,1.84-2.25,3.27-3.99,4.31-1.74,1.03-3.69,1.55-5.83,1.55Z"/>
        <path class="cls-2" d="M196.33,42.26c-2.83,0-5.29-.66-7.38-1.98-2.09-1.32-3.7-3.13-4.85-5.43-1.15-2.3-1.72-4.9-1.72-7.81s.57-5.5,1.72-7.78,2.78-4.07,4.88-5.37c2.1-1.3,4.57-1.95,7.41-1.95,2.41,0,4.55.53,6.4,1.58,1.86,1.05,3.28,2.54,4.28,4.45V.23h4.02v41.35h-3.67l-.34-5.23c-.57,1-1.36,1.95-2.35,2.87-1,.92-2.19,1.66-3.59,2.21-1.4.55-3,.83-4.79.83ZM196.62,38.76c2.03,0,3.8-.49,5.31-1.46,1.51-.98,2.71-2.33,3.59-4.08.88-1.74,1.32-3.78,1.32-6.12s-.44-4.38-1.32-6.14c-.88-1.76-2.08-3.12-3.59-4.08-1.51-.96-3.28-1.43-5.31-1.43s-3.7.48-5.25,1.43c-1.55.96-2.76,2.31-3.62,4.05-.86,1.74-1.29,3.8-1.29,6.17s.44,4.43,1.32,6.17c.88,1.74,2.09,3.09,3.62,4.05,1.53.96,3.27,1.43,5.23,1.43Z"/>
        <path class="cls-2" d="M221.82,5.8c-.8,0-1.49-.28-2.07-.83-.57-.55-.86-1.25-.86-2.1s.28-1.58.83-2.1c.55-.52,1.25-.78,2.1-.78.77,0,1.44.26,2.01.78.57.52.86,1.22.86,2.1s-.28,1.54-.83,2.1c-.56.56-1.23.83-2.04.83ZM219.82,41.58V12.63h4.02v28.94h-4.02Z"/>
        <path class="cls-2" d="M245.25,42.26c-2.64,0-5.02-.62-7.15-1.87-2.12-1.24-3.8-3.01-5.02-5.28-1.23-2.28-1.84-4.93-1.84-7.95s.62-5.84,1.87-8.1c1.24-2.26,2.94-4.01,5.08-5.25,2.14-1.24,4.54-1.87,7.18-1.87s5.19.62,7.29,1.87c2.1,1.25,3.77,3,5,5.25,1.22,2.26,1.84,4.96,1.84,8.1s-.62,5.68-1.87,7.95c-1.24,2.28-2.93,4.04-5.05,5.28-2.12,1.24-4.56,1.87-7.32,1.87ZM245.31,38.82c1.8,0,3.45-.44,4.97-1.32,1.51-.88,2.74-2.19,3.67-3.93.94-1.74,1.41-3.89,1.41-6.46s-.46-4.76-1.38-6.49c-.92-1.72-2.13-3.02-3.65-3.88-1.51-.86-3.17-1.29-4.97-1.29s-3.35.44-4.88,1.32c-1.53.88-2.77,2.17-3.7,3.88-.94,1.7-1.41,3.86-1.41,6.46s.46,4.72,1.38,6.46c.92,1.74,2.13,3.05,3.65,3.93s3.15,1.32,4.91,1.32Z"/>
        <path class="cls-2" d="M266.38,41.58V.23h4.02v41.35h-4.02Z"/>
        <path class="cls-2" d="M291.31,42.26c-2.64,0-5.02-.62-7.15-1.87-2.12-1.24-3.8-3.01-5.02-5.28-1.23-2.28-1.84-4.93-1.84-7.95s.62-5.84,1.87-8.1c1.24-2.26,2.94-4.01,5.08-5.25,2.14-1.24,4.54-1.87,7.18-1.87s5.19.62,7.29,1.87c2.1,1.25,3.77,3,5,5.25,1.22,2.26,1.84,4.96,1.84,8.1s-.62,5.68-1.87,7.95c-1.24,2.28-2.93,4.04-5.05,5.28-2.12,1.24-4.56,1.87-7.32,1.87ZM291.36,38.82c1.8,0,3.45-.44,4.97-1.32,1.51-.88,2.74-2.19,3.67-3.93.94-1.74,1.41-3.89,1.41-6.46s-.46-4.76-1.38-6.49c-.92-1.72-2.13-3.02-3.65-3.88-1.51-.86-3.17-1.29-4.97-1.29s-3.35.44-4.88,1.32c-1.53.88-2.77,2.17-3.7,3.88-.94,1.7-1.41,3.86-1.41,6.46s.46,4.72,1.38,6.46c.92,1.74,2.13,3.05,3.65,3.93s3.15,1.32,4.91,1.32Z"/>
        <path class="cls-2" d="M322.6,54.9c-2.56,0-4.83-.34-6.8-1.03-1.97-.69-3.52-1.72-4.65-3.1-1.13-1.38-1.69-3.08-1.69-5.11,0-.8.14-1.68.43-2.61.29-.94.85-1.89,1.69-2.84.84-.95,2.03-1.82,3.56-2.58l3.27,1.43c-2.03.96-3.35,2-3.96,3.13-.61,1.13-.92,2.15-.92,3.07,0,1.38.39,2.53,1.18,3.45.78.92,1.86,1.61,3.22,2.07,1.36.46,2.92.69,4.68.69s3.28-.25,4.57-.75c1.28-.5,2.27-1.22,2.96-2.15.69-.94,1.03-2.02,1.03-3.24,0-1.42-.55-2.61-1.64-3.59s-3.11-1.54-6.06-1.69c-2.34-.15-4.26-.35-5.77-.6-1.51-.25-2.76-.55-3.73-.92-.98-.36-1.78-.76-2.41-1.18-.63-.42-1.23-.88-1.81-1.38v-1.32l5.51-5.23,3.68,1.32-5.4,4.82.34-1.55c.46.31.88.59,1.26.86.38.27.91.49,1.58.66.67.17,1.61.34,2.81.52,1.21.17,2.84.34,4.91.49,2.64.19,4.75.65,6.32,1.38,1.57.73,2.72,1.7,3.45,2.93.73,1.23,1.09,2.66,1.09,4.31s-.45,3.2-1.35,4.68c-.9,1.47-2.28,2.69-4.13,3.65-1.86.96-4.26,1.43-7.21,1.43ZM322.54,32.39c-2.45,0-4.51-.46-6.17-1.38s-2.94-2.15-3.82-3.7c-.88-1.55-1.32-3.26-1.32-5.14s.44-3.64,1.32-5.17c.88-1.53,2.16-2.76,3.85-3.67,1.68-.92,3.73-1.38,6.14-1.38s4.51.46,6.17,1.38c1.67.92,2.93,2.14,3.79,3.67.86,1.53,1.29,3.25,1.29,5.17s-.43,3.59-1.29,5.14c-.86,1.55-2.13,2.79-3.79,3.7s-3.72,1.38-6.17,1.38ZM322.54,28.94c2.22,0,3.97-.58,5.25-1.75,1.28-1.17,1.92-2.84,1.92-5.03s-.64-3.9-1.92-5.05c-1.28-1.15-3.03-1.72-5.25-1.72s-3.99.57-5.31,1.72c-1.32,1.15-1.98,2.83-1.98,5.05s.65,3.86,1.95,5.03c1.3,1.17,3.08,1.75,5.34,1.75ZM327.25,16.25l-1.43-3.62h11.71v3.27l-10.28.34Z"/>
        <path class="cls-2" d="M339.6,10.16l-.4-2.87,11.26-7.29.52,3.5-11.37,6.66ZM343.1,41.58V12.63h4.02v28.94h-4.02Z"/>
        <path class="cls-2" d="M364.52,42.26c-2.34,0-4.28-.42-5.83-1.26s-2.7-1.93-3.45-3.27c-.75-1.34-1.12-2.81-1.12-4.42,0-1.99.51-3.67,1.52-5.05,1.01-1.38,2.45-2.41,4.31-3.1,1.86-.69,3.99-1.03,6.4-1.03h7.81c0-1.88-.29-3.46-.86-4.77-.57-1.3-1.41-2.29-2.5-2.96-1.09-.67-2.48-1-4.16-1-1.99,0-3.69.5-5.11,1.49-1.42,1-2.3,2.45-2.64,4.36h-4.19c.23-2.03.93-3.73,2.1-5.11,1.17-1.38,2.62-2.42,4.36-3.13,1.74-.71,3.57-1.06,5.48-1.06,2.64,0,4.81.51,6.52,1.52,1.7,1.01,2.97,2.4,3.79,4.16.82,1.76,1.23,3.79,1.23,6.09v17.86h-3.67l-.17-5.28c-.38.8-.87,1.57-1.46,2.3-.59.73-1.28,1.36-2.07,1.89-.79.54-1.69.97-2.73,1.29-1.03.32-2.22.49-3.56.49ZM364.98,38.7c1.45,0,2.74-.29,3.85-.86,1.11-.57,2.07-1.34,2.87-2.3.8-.96,1.42-2.05,1.84-3.27.42-1.23.63-2.47.63-3.73v-1.03h-7.52c-2.03,0-3.66.25-4.88.75-1.23.5-2.11,1.17-2.64,2.01-.54.84-.8,1.82-.8,2.93s.26,2.08.78,2.9c.52.82,1.27,1.46,2.27,1.92.99.46,2.2.69,3.62.69Z"/>
      </g>
      <g>
        <path class="cls-2" d="M542.01,14.59c0,.44-.54.65-.84.32-.97-1.09-2.19-2.22-3.24-2.72-1.39-.66-2.89-1-4.5-1-2.3,0-4.41.62-6.34,1.84-1.93,1.23-3.47,2.99-4.62,5.29-1.15,2.3-1.72,5.08-1.72,8.34,0,2.94.51,5.59,1.54,7.95,1.03,2.36,2.49,4.21,4.38,5.56,1.89,1.35,4.15,2.02,6.77,2.02,1.49,0,2.93-.29,4.32-.88,1.07-.45,2.38-1.66,3.42-2.82.3-.33.84-.13.84.31v2.78h7.43V2.05h-7.43v12.54ZM541.79,31.19c-.58,1.29-1.41,2.3-2.48,3.02-1.07.72-2.35,1.09-3.84,1.09s-2.72-.35-3.81-1.06c-1.09-.7-1.92-1.7-2.51-2.99-.59-1.29-.88-2.82-.88-4.59s.29-3.29.88-4.56c.58-1.27,1.42-2.26,2.51-2.96,1.09-.7,2.36-1.06,3.81-1.06s2.77.35,3.84,1.06c1.07.71,1.89,1.7,2.48,2.99.58,1.29.88,2.8.88,4.53s-.29,3.24-.88,4.53Z"/>
        <path class="cls-2" d="M608.23,25.15c-1.13-.69-2.34-1.23-3.63-1.63-1.29-.4-2.54-.74-3.75-1.03-1.29-.32-2.33-.61-3.11-.88-.79-.26-1.35-.57-1.69-.94-.34-.36-.51-.8-.51-1.33,0-.77.37-1.37,1.12-1.81.74-.44,1.7-.67,2.87-.67,1.33,0,2.59.29,3.78.88.94.46,1.73,1.1,2.38,1.93.3.38.86.41,1.24.12l3.91-3.1c-1.13-1.77-2.66-3.13-4.59-4.08-1.93-.95-4.09-1.42-6.47-1.42-3.95,0-7,1.12-9.14,3.34-1.43,1.49-2.11,3.49-2.1,5.55,0,1.54.32,2.83.94,3.86.63,1.05,1.44,1.9,2.45,2.57,1.01.67,2.11,1.2,3.32,1.6,1.21.4,2.38.77,3.5,1.09,1.09.28,2.07.58,2.96.88.89.3,1.59.69,2.12,1.15.52.46.79,1.06.79,1.78,0,.89-.41,1.62-1.24,2.21-.83.58-1.98.88-3.47.88-1.89,0-3.47-.47-4.74-1.42-.97-.72-1.77-1.5-2.4-2.33-.31-.41-.9-.45-1.29-.12l-4.38,3.81c.68.89,1.6,1.81,2.75,2.78,1.15.97,2.55,1.77,4.2,2.42,1.65.64,3.59.97,5.8.97,2.46,0,4.59-.42,6.4-1.27,1.81-.85,3.22-2.02,4.23-3.53,1.01-1.51,1.51-3.25,1.51-5.23,0-1.73-.34-3.16-1.03-4.29-.69-1.13-1.59-2.03-2.72-2.72Z"/>
        <path class="cls-2" d="M580.02,15.63c-1.13-1.39-2.56-2.48-4.29-3.26-1.73-.79-3.77-1.18-6.1-1.18-2.5,0-4.64.45-6.44,1.36-1.79.91-3.25,2.11-4.38,3.6-1.13,1.49-1.97,3.16-2.54,5.02-.56,1.85-.85,3.75-.85,5.68s.28,3.94.85,5.77c.56,1.83,1.44,3.47,2.63,4.89,1.19,1.43,2.71,2.57,4.56,3.41,1.85.85,4.07,1.27,6.65,1.27,1.73,0,3.27-.15,4.62-.45,1.35-.3,2.65-.79,3.9-1.48,1.25-.69,2.58-1.57,3.99-2.66l-3.75-5.07c-1.13,1.01-2.42,1.78-3.87,2.33-1.45.54-2.94.82-4.47.82-2.1,0-3.84-.54-5.23-1.63-1.16-.91-1.91-2.18-2.24-3.83-.1-.52.27-1.01.8-1.01h19.42c.08-.56.13-1.1.15-1.6.02-.5.03-.9.03-1.18,0-2.09-.29-4.07-.88-5.92-.58-1.85-1.44-3.48-2.57-4.86ZM575.7,23.63h-12.85c.12-1,.43-1.98.94-2.93.5-.95,1.26-1.72,2.26-2.33,1.01-.61,2.26-.91,3.75-.91,1.01,0,1.9.15,2.69.45.79.3,1.46.74,2.02,1.3.56.56,1.01,1.22,1.33,1.96.25.58.4,1.18.46,1.81.03.34-.26.63-.6.63Z"/>
        <path class="cls-2" d="M510.25,12.64c-1.63-.97-3.66-1.45-6.07-1.45-2.09,0-4.01.51-5.74,1.51-1.16.68-2.12,1.67-2.9,2.93v-3.83h-7.49v29.79h6.68c.45,0,.82-.37.82-.82v-17.2c0-1.86.54-3.3,1.61-4.32,1.08-1.02,2.62-1.53,4.64-1.53.03,0,.05,0,.08,0,.02,0,.05,0,.07,0,.43,0,.82.04,1.19.09,0,0,.01,0,.02,0,.33.05.64.12.93.21.21.06.4.14.58.22,0,0,.01,0,.02,0,.54.23,1.03.52,1.42.9.97.95,1.45,2.37,1.45,4.26v18.18h6.68c.45,0,.82-.37.82-.82v-17.8c0-2.38-.39-4.45-1.18-6.22-.79-1.77-1.99-3.14-3.63-4.11Z"/>
        <path class="cls-2" d="M440.13,12.61v17.2c0,1.86-.54,3.3-1.61,4.32-1.08,1.02-2.62,1.53-4.64,1.53-.03,0-.05,0-.08,0-.02,0-.05,0-.07,0-.43,0-.82-.04-1.19-.09,0,0-.01,0-.02,0-.33-.05-.64-.12-.93-.21-.21-.06-.4-.14-.58-.22,0,0-.01,0-.02,0-.54-.23-1.03-.52-1.42-.9-.97-.95-1.45-2.37-1.45-4.26V11.79h-6.68c-.45,0-.82.37-.82.82v17.8c0,2.38.39,4.45,1.18,6.22.79,1.77,1.99,3.14,3.63,4.11,1.63.97,3.66,1.45,6.07,1.45,2.09,0,4.01-.51,5.74-1.51.82-.48,1.53-1.11,2.16-1.88.25-.31.74-.15.74.25v2.53s7.49,0,7.49,0V11.79h-6.68c-.45,0-.82.37-.82.82Z"/>
        <path class="cls-2" d="M473.54,11.99c-.67-.22-1.38-.38-2.13-.51-.25-.04-.52-.07-.77-.1-.84-.11-1.72-.19-2.66-.19-2.54,0-4.9.37-7.1,1.12-1.98.67-3.91,1.72-5.8,3.16-.36.27-.42.78-.16,1.14l3.33,4.49c1.25-1.13,2.69-2,4.32-2.63,1.63-.63,3.23-.94,4.8-.94,1.27,0,2.35.21,3.26.61.27.12.53.25.77.4.16.1.32.18.47.29,1.11.87,1.66,2.19,1.66,3.96v.72h-8.58c-1.41,0-2.73.12-3.96.36-1.23.24-2.35.66-3.35,1.27-1.17.64-2.1,1.58-2.81,2.81-.7,1.23-1.06,2.71-1.06,4.44,0,1.93.49,3.65,1.48,5.14.99,1.49,2.34,2.64,4.05,3.44,1.71.8,3.66,1.21,5.83,1.21,1.64,0,3.18-.35,4.64-1.04l.03-.04v-4.46c0-.28-.23-.5-.5-.5h-3.07c-1.41,0-2.55-.31-3.42-.92-1.04-.74-1.61-2.02-1.45-3.29.04-.34.13-.66.27-.96.2-.42.5-.77.91-1.06.44-.36.98-.59,1.6-.7.62-.1,1.26-.15,1.9-.15h6.42c.59,0,1.08.48,1.08,1.08v11.43h7.49v-18.79c0-3.63-1.15-6.47-3.45-8.52-1.13-1.01-2.48-1.77-4.05-2.28Z"/>
        <path class="cls-1" d="M389.42,44.7v-8.48c0-.64.31-1.24.83-1.62l11.32-8.21-11.32-8.21c-.52-.38-.83-.99-.83-1.62v-8.48l16.8,12.19c4.19,3.04,4.19,9.21,0,12.24l-16.8,12.19Z"/>
      </g>
    </g>
  </g>
</svg>