<?xml version="1.0" encoding="UTF-8"?>
<svg id="Capa_2" data-name="Capa 2" xmlns="http://www.w3.org/2000/svg" viewBox="0 0 611.98 44.89">
  <defs>
    <style>
      .cls-1 {
        fill: #ce0019;
      }

      .cls-2 {
        fill: #243746;
      }
    </style>
  </defs>
  <g id="Capa_1-2" data-name="Capa 1">
    <g id="ingenieria_comercial_flecha_bicolor">
      <g>
        <path class="cls-2" d="M2.39,4.74c-.66,0-1.22-.23-1.69-.68-.47-.45-.7-1.03-.7-1.71S.23,1.06.68.63c.45-.42,1.03-.63,1.71-.63.63,0,1.17.21,1.64.63.47.42.7.99.7,1.71s-.23,1.26-.68,1.71c-.45.45-1.01.68-1.67.68ZM.75,34V10.33h3.29v23.67H.75Z"/>
        <path class="cls-2" d="M11.13,34V10.33h3.01l.19,4.23c.75-1.5,1.84-2.68,3.26-3.52,1.42-.85,3.01-1.27,4.77-1.27s3.4.36,4.74,1.08c1.35.72,2.39,1.81,3.15,3.26.75,1.46,1.13,3.31,1.13,5.57v14.32h-3.29v-13.95c0-2.5-.55-4.37-1.64-5.59-1.1-1.22-2.65-1.83-4.65-1.83-1.41,0-2.67.34-3.78,1.01-1.11.67-1.99,1.65-2.63,2.93-.64,1.28-.96,2.86-.96,4.74v12.68h-3.29Z"/>
        <path class="cls-2" d="M46.72,44.89c-2.1,0-3.95-.28-5.56-.84-1.61-.56-2.88-1.41-3.8-2.54-.92-1.13-1.39-2.52-1.39-4.18,0-.66.12-1.37.35-2.14.23-.77.7-1.54,1.39-2.33.69-.78,1.66-1.49,2.91-2.11l2.68,1.17c-1.66.78-2.74,1.64-3.24,2.56-.5.92-.75,1.76-.75,2.51,0,1.13.32,2.07.96,2.82.64.75,1.52,1.32,2.63,1.69,1.11.37,2.39.56,3.83.56s2.68-.2,3.73-.61c1.05-.41,1.85-.99,2.42-1.76.56-.77.85-1.65.85-2.65,0-1.16-.45-2.14-1.34-2.93s-2.54-1.26-4.95-1.39c-1.91-.13-3.48-.29-4.72-.49-1.24-.2-2.25-.45-3.05-.75-.8-.3-1.46-.62-1.97-.96-.52-.35-1.01-.72-1.48-1.13v-1.08l4.51-4.27,3.01,1.08-4.41,3.94.28-1.27c.38.25.72.49,1.03.71.31.22.74.4,1.29.54.55.14,1.32.28,2.3.42.99.14,2.32.28,4.01.4,2.16.16,3.88.53,5.17,1.13,1.28.59,2.22,1.39,2.82,2.39.59,1,.89,2.18.89,3.52s-.37,2.62-1.1,3.83c-.74,1.2-1.86,2.2-3.38,2.98-1.52.78-3.48,1.17-5.89,1.17ZM46.68,26.48c-2,0-3.69-.37-5.05-1.13s-2.4-1.76-3.12-3.03c-.72-1.27-1.08-2.67-1.08-4.2s.36-2.97,1.08-4.23c.72-1.25,1.77-2.25,3.15-3.01,1.38-.75,3.05-1.13,5.02-1.13s3.69.37,5.05,1.13c1.36.75,2.39,1.75,3.1,3.01.7,1.25,1.06,2.66,1.06,4.23s-.35,2.93-1.06,4.2c-.7,1.27-1.74,2.28-3.1,3.03s-3.04,1.13-5.05,1.13ZM46.68,23.67c1.82,0,3.25-.48,4.3-1.43,1.05-.95,1.57-2.33,1.57-4.11s-.52-3.19-1.57-4.13c-1.05-.94-2.48-1.41-4.3-1.41s-3.26.47-4.34,1.41c-1.08.94-1.62,2.32-1.62,4.13s.53,3.15,1.6,4.11c1.06.95,2.52,1.43,4.37,1.43ZM50.53,13.29l-1.17-2.96h9.58v2.68l-8.41.28Z"/>
        <path class="cls-2" d="M72.69,34.56c-2.19,0-4.12-.52-5.8-1.55-1.68-1.03-2.99-2.48-3.94-4.34-.96-1.86-1.43-4.04-1.43-6.55s.47-4.68,1.41-6.53c.94-1.85,2.26-3.28,3.97-4.3,1.71-1.02,3.67-1.53,5.89-1.53s4.23.52,5.82,1.55c1.6,1.03,2.81,2.38,3.64,4.04.83,1.66,1.24,3.47,1.24,5.45v.96c0,.33-.02.71-.05,1.15h-19.44v-2.77h16.3c-.09-2.41-.85-4.27-2.28-5.59-1.42-1.32-3.22-1.97-5.38-1.97-1.38,0-2.68.32-3.9.96-1.22.64-2.2,1.58-2.93,2.82-.74,1.24-1.1,2.79-1.1,4.67v1.22c0,2.13.38,3.9,1.15,5.31.77,1.41,1.76,2.46,2.98,3.15,1.22.69,2.5,1.03,3.85,1.03,1.78,0,3.26-.4,4.41-1.2,1.16-.8,1.99-1.9,2.49-3.31h3.24c-.38,1.38-1.02,2.62-1.93,3.73-.91,1.11-2.05,1.99-3.43,2.63-1.38.64-2.97.96-4.79.96Z"/>
        <path class="cls-2" d="M88.85,34V10.33h3.01l.19,4.23c.75-1.5,1.84-2.68,3.26-3.52,1.42-.85,3.01-1.27,4.77-1.27s3.4.36,4.74,1.08c1.35.72,2.39,1.81,3.15,3.26.75,1.46,1.13,3.31,1.13,5.57v14.32h-3.29v-13.95c0-2.5-.55-4.37-1.64-5.59-1.1-1.22-2.65-1.83-4.65-1.83-1.41,0-2.67.34-3.78,1.01-1.11.67-1.99,1.65-2.63,2.93-.64,1.28-.96,2.86-.96,4.74v12.68h-3.29Z"/>
        <path class="cls-2" d="M117.4,4.74c-.66,0-1.22-.23-1.69-.68-.47-.45-.7-1.03-.7-1.71s.23-1.29.68-1.71c.45-.42,1.03-.63,1.71-.63.63,0,1.17.21,1.64.63.47.42.7.99.7,1.71s-.23,1.26-.68,1.71c-.45.45-1.01.68-1.67.68ZM115.75,34V10.33h3.29v23.67h-3.29Z"/>
        <path class="cls-2" d="M136.27,34.56c-2.19,0-4.12-.52-5.8-1.55-1.68-1.03-2.99-2.48-3.94-4.34-.96-1.86-1.43-4.04-1.43-6.55s.47-4.68,1.41-6.53c.94-1.85,2.26-3.28,3.97-4.3,1.71-1.02,3.67-1.53,5.89-1.53s4.23.52,5.82,1.55c1.6,1.03,2.81,2.38,3.64,4.04.83,1.66,1.24,3.47,1.24,5.45v.96c0,.33-.02.71-.05,1.15h-19.44v-2.77h16.3c-.09-2.41-.85-4.27-2.28-5.59-1.42-1.32-3.22-1.97-5.38-1.97-1.38,0-2.68.32-3.9.96-1.22.64-2.2,1.58-2.93,2.82-.74,1.24-1.1,2.79-1.1,4.67v1.22c0,2.13.38,3.9,1.15,5.31.77,1.41,1.76,2.46,2.98,3.15,1.22.69,2.5,1.03,3.85,1.03,1.78,0,3.26-.4,4.41-1.2,1.16-.8,1.99-1.9,2.49-3.31h3.24c-.38,1.38-1.02,2.62-1.93,3.73-.91,1.11-2.05,1.99-3.43,2.63-1.38.64-2.97.96-4.79.96Z"/>
        <path class="cls-2" d="M152.43,34V10.33h3.01l.23,4.55c.5-1.1,1.17-2.02,2.02-2.77.85-.75,1.86-1.33,3.05-1.74,1.19-.41,2.54-.61,4.04-.61v3.43h-1.27c-1,0-1.97.13-2.91.4-.94.27-1.77.71-2.49,1.34s-1.3,1.47-1.74,2.54c-.44,1.06-.66,2.39-.66,3.99v12.54h-3.29Z"/>
        <path class="cls-2" d="M166.51,8.31l-.33-2.35,9.2-5.96.42,2.86-9.3,5.45ZM169.38,34V10.33h3.29v23.67h-3.29Z"/>
        <path class="cls-2" d="M186.89,34.56c-1.91,0-3.5-.35-4.77-1.03-1.27-.69-2.21-1.58-2.82-2.68-.61-1.1-.92-2.3-.92-3.62,0-1.63.41-3.01,1.24-4.13.83-1.13,2-1.97,3.52-2.54,1.52-.56,3.26-.85,5.24-.85h6.39c0-1.53-.23-2.83-.7-3.9-.47-1.06-1.15-1.87-2.04-2.42-.89-.55-2.03-.82-3.4-.82-1.63,0-3.02.41-4.18,1.22-1.16.81-1.88,2-2.16,3.57h-3.43c.19-1.66.76-3.05,1.71-4.18.95-1.13,2.14-1.98,3.57-2.56,1.42-.58,2.92-.87,4.48-.87,2.16,0,3.94.42,5.33,1.24,1.39.83,2.43,1.96,3.1,3.4.67,1.44,1.01,3.1,1.01,4.98v14.6h-3.01l-.14-4.32c-.31.66-.71,1.28-1.2,1.88-.49.59-1.05,1.11-1.69,1.55-.64.44-1.39.79-2.23,1.06-.85.27-1.82.4-2.91.4ZM187.27,31.65c1.19,0,2.24-.23,3.15-.7.91-.47,1.69-1.1,2.35-1.88.66-.78,1.16-1.67,1.5-2.68.34-1,.52-2.02.52-3.05v-.85h-6.15c-1.66,0-2.99.2-3.99.61-1,.41-1.72.95-2.16,1.64-.44.69-.66,1.49-.66,2.4s.21,1.7.63,2.37c.42.67,1.04,1.2,1.86,1.57.81.38,1.8.56,2.96.56Z"/>
        <path class="cls-2" d="M227.61,34.56c-2.16,0-4.11-.52-5.85-1.55-1.74-1.03-3.11-2.48-4.11-4.34-1-1.86-1.5-4.01-1.5-6.46s.5-4.72,1.5-6.55c1-1.83,2.37-3.27,4.11-4.32,1.74-1.05,3.69-1.57,5.85-1.57,2.75,0,5.05.71,6.88,2.14,1.83,1.43,3,3.31,3.5,5.66h-3.29c-.35-1.56-1.17-2.78-2.47-3.64-1.3-.86-2.84-1.29-4.63-1.29-1.44,0-2.77.35-3.99,1.06-1.22.7-2.21,1.76-2.96,3.17-.75,1.41-1.13,3.19-1.13,5.35,0,1.6.22,2.99.66,4.18s1.04,2.18,1.81,2.98c.77.8,1.63,1.4,2.58,1.81.95.41,1.96.61,3.03.61,1.16,0,2.23-.2,3.22-.59.99-.39,1.82-.96,2.51-1.71s1.14-1.66,1.36-2.72h3.29c-.47,2.29-1.63,4.16-3.48,5.61-1.85,1.46-4.15,2.18-6.9,2.18Z"/>
        <path class="cls-2" d="M254.04,34.56c-2.16,0-4.11-.51-5.85-1.53s-3.11-2.46-4.11-4.32c-1-1.86-1.5-4.03-1.5-6.5s.51-4.77,1.53-6.62c1.02-1.85,2.4-3.28,4.16-4.3,1.75-1.02,3.71-1.53,5.87-1.53s4.24.51,5.96,1.53c1.72,1.02,3.08,2.45,4.09,4.3,1,1.85,1.5,4.05,1.5,6.62s-.51,4.64-1.53,6.5c-1.02,1.86-2.39,3.3-4.13,4.32-1.74,1.02-3.73,1.53-5.99,1.53ZM254.09,31.74c1.47,0,2.83-.36,4.06-1.08,1.24-.72,2.24-1.79,3.01-3.22.77-1.42,1.15-3.18,1.15-5.28s-.38-3.9-1.13-5.31c-.75-1.41-1.75-2.47-2.98-3.17-1.24-.7-2.59-1.06-4.06-1.06s-2.74.36-3.99,1.08c-1.25.72-2.26,1.78-3.03,3.17-.77,1.39-1.15,3.15-1.15,5.28s.38,3.86,1.13,5.28c.75,1.43,1.74,2.5,2.98,3.22s2.57,1.08,4.02,1.08Z"/>
        <path class="cls-2" d="M271.32,34V10.33h3.01l.23,3.57c.72-1.32,1.72-2.33,3.01-3.05,1.28-.72,2.71-1.08,4.27-1.08,1.19,0,2.28.17,3.29.52,1,.35,1.88.86,2.63,1.55.75.69,1.36,1.58,1.83,2.68.75-1.47,1.84-2.63,3.26-3.47,1.42-.85,2.95-1.27,4.58-1.27,1.82,0,3.4.36,4.74,1.08,1.35.72,2.39,1.82,3.12,3.29.74,1.47,1.1,3.33,1.1,5.59v14.28h-3.29v-13.9c0-2.5-.51-4.37-1.53-5.61-1.02-1.24-2.47-1.85-4.34-1.85-1.25,0-2.39.34-3.43,1.01-1.03.67-1.84,1.64-2.42,2.91-.58,1.27-.87,2.84-.87,4.72v12.73h-3.29v-13.9c0-2.5-.52-4.37-1.55-5.61-1.03-1.24-2.46-1.85-4.27-1.85-1.32,0-2.48.34-3.5,1.01-1.02.67-1.82,1.66-2.42,2.96-.59,1.3-.89,2.9-.89,4.81v12.59h-3.29Z"/>
        <path class="cls-2" d="M322.74,34.56c-2.19,0-4.12-.52-5.8-1.55-1.68-1.03-2.99-2.48-3.94-4.34-.96-1.86-1.43-4.04-1.43-6.55s.47-4.68,1.41-6.53c.94-1.85,2.26-3.28,3.97-4.3,1.71-1.02,3.67-1.53,5.89-1.53s4.23.52,5.82,1.55c1.6,1.03,2.81,2.38,3.64,4.04.83,1.66,1.24,3.47,1.24,5.45v.96c0,.33-.02.71-.05,1.15h-19.44v-2.77h16.3c-.09-2.41-.85-4.27-2.28-5.59-1.42-1.32-3.22-1.97-5.38-1.97-1.38,0-2.68.32-3.9.96-1.22.64-2.2,1.58-2.93,2.82-.74,1.24-1.1,2.79-1.1,4.67v1.22c0,2.13.38,3.9,1.15,5.31.77,1.41,1.76,2.46,2.98,3.15,1.22.69,2.5,1.03,3.85,1.03,1.78,0,3.26-.4,4.41-1.2,1.16-.8,1.99-1.9,2.49-3.31h3.24c-.38,1.38-1.02,2.62-1.93,3.73-.91,1.11-2.05,1.99-3.43,2.63-1.38.64-2.97.96-4.79.96Z"/>
        <path class="cls-2" d="M338.9,34V10.33h3.01l.23,4.55c.5-1.1,1.17-2.02,2.02-2.77.85-.75,1.86-1.33,3.05-1.74,1.19-.41,2.54-.61,4.04-.61v3.43h-1.27c-1,0-1.97.13-2.91.4-.94.27-1.77.71-2.49,1.34s-1.3,1.47-1.74,2.54c-.44,1.06-.66,2.39-.66,3.99v12.54h-3.29Z"/>
        <path class="cls-2" d="M365.24,34.56c-2.16,0-4.11-.52-5.85-1.55-1.74-1.03-3.11-2.48-4.11-4.34-1-1.86-1.5-4.01-1.5-6.46s.5-4.72,1.5-6.55c1-1.83,2.37-3.27,4.11-4.32,1.74-1.05,3.69-1.57,5.85-1.57,2.75,0,5.05.71,6.88,2.14,1.83,1.43,3,3.31,3.5,5.66h-3.29c-.35-1.56-1.17-2.78-2.47-3.64-1.3-.86-2.84-1.29-4.63-1.29-1.44,0-2.77.35-3.99,1.06-1.22.7-2.21,1.76-2.96,3.17-.75,1.41-1.13,3.19-1.13,5.35,0,1.6.22,2.99.66,4.18s1.04,2.18,1.81,2.98c.77.8,1.63,1.4,2.58,1.81.95.41,1.96.61,3.03.61,1.16,0,2.23-.2,3.22-.59.99-.39,1.82-.96,2.51-1.71s1.14-1.66,1.36-2.72h3.29c-.47,2.29-1.63,4.16-3.48,5.61-1.85,1.46-4.15,2.18-6.9,2.18Z"/>
        <path class="cls-2" d="M383.37,4.74c-.66,0-1.22-.23-1.69-.68-.47-.45-.7-1.03-.7-1.71s.23-1.29.68-1.71c.45-.42,1.03-.63,1.71-.63.63,0,1.17.21,1.64.63.47.42.7.99.7,1.71s-.23,1.26-.68,1.71c-.45.45-1.01.68-1.67.68ZM381.72,34V10.33h3.29v23.67h-3.29Z"/>
        <path class="cls-2" d="M399.66,34.56c-1.91,0-3.5-.35-4.77-1.03-1.27-.69-2.21-1.58-2.82-2.68-.61-1.1-.92-2.3-.92-3.62,0-1.63.41-3.01,1.24-4.13.83-1.13,2-1.97,3.52-2.54,1.52-.56,3.26-.85,5.24-.85h6.39c0-1.53-.23-2.83-.7-3.9-.47-1.06-1.15-1.87-2.04-2.42-.89-.55-2.03-.82-3.4-.82-1.63,0-3.02.41-4.18,1.22-1.16.81-1.88,2-2.16,3.57h-3.43c.19-1.66.76-3.05,1.71-4.18.95-1.13,2.14-1.98,3.57-2.56,1.42-.58,2.92-.87,4.48-.87,2.16,0,3.94.42,5.33,1.24,1.39.83,2.43,1.96,3.1,3.4.67,1.44,1.01,3.1,1.01,4.98v14.6h-3.01l-.14-4.32c-.31.66-.71,1.28-1.2,1.88-.49.59-1.05,1.11-1.69,1.55-.64.44-1.39.79-2.23,1.06-.85.27-1.82.4-2.91.4ZM400.04,31.65c1.19,0,2.24-.23,3.15-.7.91-.47,1.69-1.1,2.35-1.88.66-.78,1.16-1.67,1.5-2.68.34-1,.52-2.02.52-3.05v-.85h-6.15c-1.66,0-2.99.2-3.99.61-1,.41-1.72.95-2.16,1.64-.44.69-.66,1.49-.66,2.4s.21,1.7.63,2.37c.42.67,1.04,1.2,1.86,1.57.81.38,1.8.56,2.96.56Z"/>
        <path class="cls-2" d="M417.04,34V.19h3.29v33.81h-3.29Z"/>
      </g>
      <g>
        <path class="cls-2" d="M554.76,11.93c0,.36-.44.53-.68.26-.79-.89-1.79-1.81-2.65-2.23-1.14-.54-2.36-.82-3.68-.82-1.88,0-3.61.5-5.19,1.51-1.58,1.01-2.84,2.45-3.78,4.32-.94,1.88-1.41,4.15-1.41,6.82,0,2.41.42,4.57,1.26,6.5.84,1.93,2.03,3.44,3.58,4.55,1.55,1.1,3.39,1.66,5.53,1.66,1.22,0,2.4-.24,3.53-.72.87-.37,1.95-1.35,2.8-2.31.24-.27.69-.11.69.26v2.27h6.08V1.67h-6.08v10.26ZM554.58,25.51c-.48,1.06-1.15,1.88-2.03,2.47-.87.59-1.92.89-3.14.89s-2.22-.29-3.11-.87c-.89-.58-1.57-1.39-2.05-2.45-.48-1.05-.72-2.31-.72-3.76s.24-2.69.72-3.73c.48-1.04,1.16-1.84,2.05-2.42.89-.58,1.93-.87,3.11-.87s2.26.29,3.14.87c.87.58,1.55,1.39,2.03,2.45.48,1.05.72,2.29.72,3.71s-.24,2.65-.72,3.71Z"/>
        <path class="cls-2" d="M608.92,20.56c-.92-.56-1.91-1-2.96-1.34-1.05-.33-2.08-.61-3.06-.84-1.05-.26-1.9-.5-2.55-.72-.64-.21-1.1-.47-1.38-.77-.28-.3-.42-.66-.42-1.09,0-.63.3-1.12.91-1.48.61-.36,1.39-.54,2.35-.54,1.09,0,2.12.24,3.09.72.77.38,1.41.9,1.94,1.57.24.31.7.34,1.01.1l3.2-2.53c-.92-1.45-2.18-2.56-3.76-3.34-1.58-.77-3.34-1.16-5.29-1.16-3.23,0-5.73.91-7.47,2.73-1.17,1.22-1.73,2.85-1.72,4.54,0,1.26.26,2.31.77,3.16.51.86,1.18,1.56,2,2.1.82.54,1.73.98,2.72,1.31.99.33,1.94.63,2.87.89.89.23,1.7.47,2.42.72.72.25,1.3.56,1.73.94.43.38.64.86.64,1.46,0,.73-.34,1.33-1.01,1.8-.68.48-1.62.72-2.84.72-1.55,0-2.84-.39-3.88-1.16-.79-.59-1.45-1.23-1.96-1.91-.25-.33-.74-.37-1.06-.1l-3.58,3.12c.56.73,1.31,1.48,2.25,2.27s2.08,1.45,3.43,1.98c1.35.53,2.93.79,4.74.79,2.01,0,3.76-.35,5.24-1.04,1.48-.69,2.64-1.66,3.46-2.89.82-1.24,1.23-2.66,1.23-4.28,0-1.42-.28-2.59-.84-3.51-.56-.92-1.3-1.66-2.22-2.22Z"/>
        <path class="cls-2" d="M585.84,12.78c-.92-1.14-2.09-2.03-3.51-2.67-1.42-.64-3.08-.96-4.99-.96-2.04,0-3.8.37-5.26,1.11-1.47.74-2.66,1.72-3.58,2.94-.92,1.22-1.61,2.59-2.07,4.1-.46,1.52-.69,3.06-.69,4.65s.23,3.22.69,4.72c.46,1.5,1.18,2.83,2.15,4,.97,1.17,2.21,2.1,3.73,2.79,1.51.69,3.33,1.04,5.44,1.04,1.42,0,2.68-.12,3.78-.37,1.1-.25,2.17-.65,3.19-1.21,1.02-.56,2.11-1.29,3.26-2.18l-3.06-4.15c-.92.82-1.98,1.46-3.16,1.9-1.19.45-2.41.67-3.66.67-1.71,0-3.14-.45-4.28-1.34-.95-.74-1.56-1.79-1.83-3.13-.08-.42.22-.82.65-.82h15.88c.07-.46.11-.9.12-1.31.02-.41.02-.73.02-.96,0-1.71-.24-3.33-.72-4.84-.48-1.52-1.18-2.84-2.1-3.98ZM582.31,19.32h-10.51c.1-.82.35-1.62.77-2.39.41-.77,1.03-1.41,1.85-1.9.82-.49,1.84-.74,3.06-.74.82,0,1.56.12,2.2.37.64.25,1.19.6,1.66,1.06.46.46.82,1,1.09,1.61.2.47.33.96.37,1.48.02.28-.21.51-.49.51Z"/>
        <path class="cls-2" d="M528.79,10.34c-1.34-.79-2.99-1.19-4.97-1.19-1.71,0-3.28.41-4.69,1.24-.95.55-1.73,1.36-2.37,2.39v-3.13h-6.13v24.36h5.46c.37,0,.67-.3.67-.67v-14.07c0-1.52.44-2.7,1.32-3.53.88-.84,2.14-1.25,3.79-1.25.02,0,.04,0,.07,0,.02,0,.04,0,.06,0,.35,0,.67.03.97.07,0,0,.01,0,.02,0,.27.04.53.1.76.18.17.05.32.11.48.18,0,0,0,0,.01,0,.45.19.84.42,1.16.74.79.78,1.19,1.94,1.19,3.48v14.87h5.46c.37,0,.67-.3.67-.67v-14.55c0-1.94-.32-3.64-.96-5.09-.64-1.45-1.63-2.57-2.96-3.36Z"/>
        <path class="cls-2" d="M471.45,10.31v14.07c0,1.52-.44,2.7-1.32,3.53-.88.84-2.14,1.25-3.79,1.25-.02,0-.04,0-.07,0-.02,0-.04,0-.06,0-.35,0-.67-.03-.97-.07,0,0-.01,0-.02,0-.27-.04-.53-.1-.76-.18-.17-.05-.32-.11-.48-.18,0,0,0,0-.01,0-.45-.19-.84-.42-1.16-.74-.79-.78-1.19-1.94-1.19-3.48v-14.87h-5.46c-.37,0-.67.3-.67.67v14.55c0,1.94.32,3.64.96,5.09.64,1.45,1.63,2.57,2.96,3.36,1.34.79,2.99,1.19,4.97,1.19,1.71,0,3.28-.41,4.69-1.24.67-.39,1.25-.91,1.76-1.54.2-.25.61-.12.61.21v2.07s6.13,0,6.13,0V9.64h-5.46c-.37,0-.67.3-.67.67Z"/>
        <path class="cls-2" d="M498.77,9.8c-.55-.18-1.13-.31-1.74-.42-.2-.04-.42-.05-.63-.08-.69-.09-1.4-.15-2.17-.15-2.08,0-4.01.31-5.81.91-1.62.55-3.2,1.41-4.74,2.58-.29.22-.35.64-.13.93l2.72,3.67c1.02-.92,2.2-1.64,3.53-2.15,1.33-.51,2.64-.77,3.93-.77,1.04,0,1.92.17,2.67.5.22.1.44.2.63.33.13.08.26.15.38.24.91.71,1.36,1.79,1.36,3.24v.59h-7.02c-1.15,0-2.23.1-3.24.3-1.01.2-1.92.54-2.74,1.04-.96.53-1.72,1.29-2.3,2.3-.58,1-.86,2.22-.86,3.63,0,1.58.4,2.98,1.21,4.2.81,1.22,1.91,2.16,3.31,2.82,1.4.66,2.99.99,4.77.99,1.34,0,2.6-.28,3.79-.85l.02-.04v-3.65c0-.23-.18-.41-.41-.41h-2.51c-1.15,0-2.09-.25-2.79-.75-.85-.6-1.31-1.65-1.18-2.69.03-.28.11-.54.22-.78.16-.34.41-.63.74-.86.36-.3.8-.49,1.31-.57.51-.08,1.03-.12,1.56-.12h5.25c.49,0,.88.39.88.88v9.35h6.13v-15.37c0-2.96-.94-5.29-2.82-6.97-.92-.83-2.03-1.45-3.31-1.87Z"/>
        <path class="cls-1" d="M429.98,36.55v-6.93c0-.52.26-1.02.68-1.32l9.26-6.72-9.26-6.72c-.42-.31-.68-.81-.68-1.33v-6.93l13.74,9.97c3.42,2.49,3.42,7.53,0,10.01l-13.74,9.97Z"/>
      </g>
    </g>
  </g>
</svg>