<?xml version="1.0" encoding="UTF-8"?>
<svg id="Capa_2" data-name="Capa 2" xmlns="http://www.w3.org/2000/svg" viewBox="0 0 620.09 59.47">
  <defs>
    <style>
      .cls-1 {
        fill: #243746;
      }
    </style>
  </defs>
  <g id="Capa_1-2" data-name="Capa 1">
    <g id="medicina_flecha_mono">
      <g>
        <g>
          <path class="cls-1" d="M0,55.31V16.81h4.89l.38,5.81c1.17-2.14,2.8-3.79,4.89-4.97,2.09-1.17,4.4-1.76,6.95-1.76,1.94,0,3.72.28,5.35.84,1.63.56,3.06,1.4,4.28,2.52,1.22,1.12,2.21,2.57,2.98,4.35,1.22-2.39,2.99-4.28,5.31-5.65,2.32-1.38,4.8-2.06,7.45-2.06,2.95,0,5.53.59,7.72,1.76,2.19,1.17,3.88,2.95,5.08,5.35,1.2,2.39,1.79,5.42,1.79,9.09v23.22h-5.35v-22.61c0-4.07-.83-7.12-2.48-9.13-1.66-2.01-4.01-3.02-7.07-3.02-2.04,0-3.9.55-5.58,1.64-1.68,1.1-2.99,2.67-3.93,4.74-.94,2.06-1.41,4.62-1.41,7.68v20.7h-5.35v-22.61c0-4.07-.84-7.12-2.52-9.13s-4-3.02-6.95-3.02c-2.14,0-4.04.55-5.69,1.64-1.66,1.1-2.97,2.7-3.93,4.81-.97,2.11-1.45,4.72-1.45,7.83v20.47H0Z"/>
          <path class="cls-1" d="M83.65,56.22c-3.56,0-6.71-.84-9.43-2.52-2.73-1.68-4.86-4.04-6.42-7.07-1.55-3.03-2.33-6.58-2.33-10.65s.76-7.61,2.29-10.62c1.53-3,3.68-5.33,6.46-6.99,2.77-1.65,5.97-2.48,9.59-2.48s6.88.84,9.47,2.52c2.6,1.68,4.57,3.87,5.92,6.57,1.35,2.7,2.03,5.65,2.03,8.86v1.56c0,.54-.03,1.16-.08,1.87h-31.63v-4.51h26.51c-.15-3.92-1.39-6.95-3.7-9.09-2.32-2.14-5.23-3.21-8.75-3.21-2.24,0-4.35.52-6.34,1.57-1.99,1.04-3.58,2.57-4.77,4.58-1.2,2.01-1.79,4.54-1.79,7.6v1.99c0,3.46.62,6.34,1.87,8.63,1.25,2.29,2.86,4,4.85,5.12,1.99,1.12,4.07,1.68,6.26,1.68,2.9,0,5.3-.65,7.18-1.95,1.88-1.3,3.23-3.09,4.05-5.39h5.27c-.61,2.24-1.66,4.27-3.13,6.07-1.48,1.81-3.34,3.24-5.58,4.28-2.24,1.04-4.84,1.57-7.79,1.57Z"/>
          <path class="cls-1" d="M126.81,56.22c-3.77,0-7.04-.88-9.82-2.64-2.78-1.76-4.93-4.16-6.46-7.22-1.53-3.06-2.29-6.52-2.29-10.39s.76-7.32,2.29-10.35,3.69-5.41,6.49-7.14c2.8-1.73,6.08-2.6,9.85-2.6,3.21,0,6.05.7,8.52,2.1,2.47,1.4,4.37,3.37,5.69,5.92V.3h5.35v55h-4.89l-.46-6.95c-.76,1.33-1.81,2.6-3.13,3.82-1.33,1.22-2.92,2.2-4.77,2.94-1.86.74-3.99,1.11-6.38,1.11ZM127.19,51.56c2.7,0,5.05-.65,7.07-1.95,2.01-1.3,3.6-3.1,4.77-5.42,1.17-2.32,1.76-5.03,1.76-8.14s-.59-5.83-1.76-8.17c-1.17-2.34-2.76-4.15-4.77-5.42-2.01-1.27-4.37-1.91-7.07-1.91s-4.93.64-6.99,1.91c-2.06,1.27-3.67,3.07-4.81,5.39-1.15,2.32-1.72,5.05-1.72,8.21s.58,5.9,1.76,8.21c1.17,2.32,2.78,4.11,4.81,5.39,2.04,1.27,4.35,1.91,6.95,1.91Z"/>
          <path class="cls-1" d="M160.73,7.72c-1.07,0-1.99-.37-2.75-1.11-.76-.74-1.15-1.67-1.15-2.79s.37-2.1,1.11-2.79c.74-.69,1.67-1.03,2.79-1.03,1.02,0,1.91.34,2.67,1.03.76.69,1.15,1.62,1.15,2.79s-.37,2.05-1.11,2.79c-.74.74-1.64,1.11-2.71,1.11ZM158.05,55.31V16.81h5.35v38.5h-5.35Z"/>
          <path class="cls-1" d="M191.89,56.22c-3.51,0-6.68-.84-9.51-2.52s-5.06-4.04-6.68-7.07c-1.63-3.03-2.44-6.53-2.44-10.5s.81-7.68,2.44-10.66c1.63-2.98,3.86-5.32,6.68-7.03,2.83-1.7,6-2.56,9.51-2.56,4.48,0,8.21,1.16,11.19,3.48,2.98,2.32,4.88,5.39,5.69,9.2h-5.35c-.56-2.55-1.9-4.52-4.01-5.92-2.11-1.4-4.62-2.1-7.52-2.1-2.34,0-4.51.57-6.49,1.72-1.99,1.15-3.59,2.87-4.81,5.16-1.22,2.29-1.83,5.2-1.83,8.71,0,2.6.36,4.86,1.07,6.8s1.69,3.55,2.94,4.85c1.25,1.3,2.65,2.28,4.2,2.94,1.55.66,3.19.99,4.93.99,1.88,0,3.63-.32,5.23-.96,1.6-.64,2.97-1.56,4.09-2.79,1.12-1.22,1.86-2.7,2.22-4.43h5.35c-.76,3.72-2.65,6.76-5.65,9.13-3.01,2.37-6.75,3.55-11.23,3.55Z"/>
          <path class="cls-1" d="M221.38,7.72c-1.07,0-1.99-.37-2.75-1.11-.76-.74-1.15-1.67-1.15-2.79s.37-2.1,1.11-2.79c.74-.69,1.67-1.03,2.79-1.03,1.02,0,1.91.34,2.67,1.03.76.69,1.15,1.62,1.15,2.79s-.37,2.05-1.11,2.79c-.74.74-1.64,1.11-2.71,1.11ZM218.71,55.31V16.81h5.35v38.5h-5.35Z"/>
          <path class="cls-1" d="M235.59,55.31V16.81h4.89l.31,6.87c1.22-2.44,2.99-4.35,5.31-5.73,2.32-1.38,4.9-2.06,7.75-2.06s5.52.59,7.72,1.76c2.19,1.17,3.9,2.94,5.12,5.31,1.22,2.37,1.83,5.39,1.83,9.05v23.3h-5.35v-22.69c0-4.07-.89-7.1-2.67-9.09-1.78-1.99-4.3-2.98-7.56-2.98-2.29,0-4.34.55-6.15,1.64-1.81,1.1-3.24,2.69-4.28,4.77-1.04,2.09-1.57,4.66-1.57,7.72v20.62h-5.35Z"/>
          <path class="cls-1" d="M290.89,56.22c-3.11,0-5.69-.56-7.75-1.68-2.06-1.12-3.59-2.57-4.58-4.36-.99-1.78-1.49-3.74-1.49-5.88,0-2.65.67-4.89,2.02-6.72,1.35-1.83,3.26-3.21,5.73-4.12,2.47-.92,5.31-1.38,8.52-1.38h10.39c0-2.49-.38-4.61-1.15-6.34-.76-1.73-1.87-3.04-3.32-3.93-1.45-.89-3.3-1.34-5.54-1.34-2.65,0-4.91.66-6.8,1.99-1.88,1.33-3.06,3.26-3.51,5.81h-5.58c.3-2.7,1.23-4.97,2.79-6.8,1.55-1.83,3.49-3.22,5.81-4.16,2.32-.94,4.75-1.41,7.3-1.41,3.51,0,6.4.68,8.67,2.03,2.27,1.35,3.95,3.19,5.04,5.54,1.09,2.34,1.64,5.04,1.64,8.1v23.76h-4.89l-.23-7.03c-.51,1.07-1.16,2.09-1.95,3.06-.79.97-1.71,1.81-2.75,2.52-1.04.72-2.25,1.29-3.63,1.72-1.38.43-2.95.65-4.74.65ZM291.51,51.49c1.93,0,3.64-.38,5.12-1.15,1.48-.76,2.75-1.78,3.82-3.06,1.07-1.27,1.88-2.72,2.44-4.35.56-1.63.84-3.28.84-4.97v-1.38h-10.01c-2.7,0-4.86.33-6.49.99-1.63.66-2.8,1.55-3.51,2.67-.71,1.12-1.07,2.42-1.07,3.9s.34,2.76,1.03,3.86c.69,1.09,1.69,1.95,3.02,2.56,1.32.61,2.93.92,4.81.92Z"/>
        </g>
        <g>
          <path class="cls-1" d="M527.01,19.4c0,.59-.72.86-1.11.43-1.29-1.45-2.91-2.95-4.32-3.62-1.85-.88-3.84-1.33-5.99-1.33-3.05,0-5.87.82-8.44,2.45-2.57,1.64-4.62,3.98-6.15,7.04-1.53,3.05-2.29,6.75-2.29,11.09,0,3.91.68,7.44,2.05,10.57,1.37,3.13,3.31,5.6,5.83,7.4,2.52,1.8,5.52,2.69,9,2.69,1.98,0,3.9-.39,5.75-1.17,1.42-.6,3.17-2.2,4.55-3.75.39-.44,1.12-.17,1.12.42v3.69h9.89V2.72h-9.89v16.68ZM526.72,41.49c-.78,1.72-1.88,3.06-3.3,4.02-1.42.96-3.12,1.45-5.1,1.45s-3.62-.47-5.06-1.41c-1.45-.94-2.56-2.26-3.34-3.98-.78-1.71-1.17-3.75-1.17-6.11s.39-4.38,1.17-6.07c.78-1.69,1.89-3,3.34-3.94,1.45-.94,3.13-1.41,5.06-1.41s3.68.47,5.1,1.41c1.42.94,2.52,2.26,3.3,3.98.78,1.72,1.17,3.73,1.17,6.03s-.39,4.31-1.17,6.03Z"/>
          <path class="cls-1" d="M615.11,33.45c-1.5-.91-3.11-1.63-4.82-2.17-1.72-.53-3.38-.99-4.98-1.37-1.72-.43-3.09-.82-4.14-1.17-1.04-.35-1.8-.76-2.25-1.25-.45-.48-.68-1.07-.68-1.77,0-1.02.5-1.82,1.49-2.41.99-.59,2.26-.89,3.82-.89,1.77,0,3.44.39,5.02,1.17,1.24.61,2.3,1.47,3.16,2.56.4.5,1.14.55,1.64.15l5.2-4.12c-1.5-2.36-3.54-4.17-6.11-5.43-2.57-1.26-5.44-1.89-8.6-1.89-5.26,0-9.31,1.48-12.16,4.45-1.9,1.98-2.81,4.64-2.79,7.38.01,2.05.43,3.76,1.25,5.13.83,1.4,1.92,2.53,3.26,3.42,1.34.89,2.81,1.6,4.42,2.13,1.61.54,3.16,1.02,4.66,1.44,1.45.38,2.76.76,3.94,1.17,1.18.4,2.12.91,2.81,1.53.7.62,1.04,1.41,1.04,2.37,0,1.18-.55,2.16-1.65,2.94-1.1.78-2.64,1.17-4.62,1.17-2.52,0-4.62-.63-6.31-1.89-1.29-.96-2.36-2-3.19-3.1-.41-.54-1.2-.6-1.72-.16l-5.82,5.07c.91,1.18,2.13,2.41,3.66,3.7,1.53,1.29,3.39,2.36,5.59,3.22,2.2.86,4.77,1.29,7.72,1.29,3.27,0,6.11-.56,8.52-1.69,2.41-1.13,4.29-2.69,5.63-4.7,1.34-2.01,2.01-4.33,2.01-6.95,0-2.3-.45-4.21-1.37-5.71-.91-1.5-2.12-2.71-3.62-3.62Z"/>
          <path class="cls-1" d="M577.57,20.79c-1.5-1.85-3.41-3.3-5.71-4.34-2.3-1.04-5.01-1.57-8.12-1.57-3.33,0-6.18.6-8.56,1.81-2.39,1.21-4.33,2.8-5.83,4.78-1.5,1.98-2.63,4.21-3.38,6.67-.75,2.47-1.13,4.98-1.13,7.56s.37,5.24,1.13,7.68c.75,2.44,1.91,4.61,3.5,6.51,1.58,1.9,3.6,3.42,6.07,4.54,2.46,1.13,5.41,1.69,8.84,1.69,2.3,0,4.35-.2,6.15-.6,1.8-.4,3.52-1.06,5.19-1.97,1.66-.91,3.43-2.09,5.31-3.54l-4.98-6.75c-1.5,1.34-3.22,2.37-5.14,3.09-1.93.72-3.91,1.09-5.95,1.09-2.79,0-5.1-.72-6.95-2.17-1.55-1.21-2.54-2.91-2.98-5.09-.14-.69.36-1.34,1.06-1.34h25.83c.11-.75.17-1.46.2-2.13.03-.67.04-1.19.04-1.57,0-2.79-.39-5.41-1.17-7.88-.78-2.47-1.92-4.62-3.42-6.47ZM571.83,31.43h-17.09c.16-1.33.57-2.63,1.25-3.89.67-1.26,1.67-2.29,3.01-3.09,1.34-.81,3-1.21,4.98-1.21,1.34,0,2.53.2,3.58.6,1.05.4,1.94.98,2.69,1.73.75.75,1.34,1.62,1.77,2.61.33.77.53,1.57.61,2.41.04.45-.35.83-.8.83Z"/>
          <path class="cls-1" d="M484.76,16.81c-2.17-1.29-4.87-1.93-8.08-1.93-2.79,0-5.33.67-7.64,2.01-1.55.9-2.82,2.22-3.86,3.89v-5.1h-9.97v39.63h8.88c.6,0,1.08-.49,1.08-1.08v-22.88c0-2.47.72-4.38,2.15-5.74,1.43-1.36,3.49-2.04,6.17-2.04.04,0,.07,0,.11,0,.03,0,.06,0,.09,0,.57,0,1.09.05,1.58.12,0,0,.02,0,.03,0,.44.07.86.16,1.24.29.27.08.53.18.78.29,0,0,.02,0,.02.01.72.31,1.37.69,1.89,1.2,1.29,1.27,1.93,3.16,1.93,5.66v24.19h8.89c.6,0,1.08-.49,1.08-1.08v-23.67c0-3.16-.52-5.92-1.57-8.28-1.04-2.36-2.65-4.18-4.82-5.47Z"/>
          <path class="cls-1" d="M391.48,16.77v22.88c0,2.47-.72,4.38-2.15,5.74-1.43,1.36-3.49,2.04-6.17,2.04-.04,0-.07,0-.11,0-.03,0-.06,0-.09,0-.57,0-1.09-.05-1.58-.12,0,0-.02,0-.03,0-.44-.07-.86-.16-1.24-.29-.27-.08-.53-.18-.78-.29,0,0-.02,0-.02-.01-.72-.31-1.37-.69-1.89-1.2-1.29-1.27-1.93-3.16-1.93-5.66V15.69h-8.89c-.6,0-1.08.49-1.08,1.08v23.67c0,3.16.52,5.92,1.57,8.28,1.04,2.36,2.65,4.18,4.82,5.47,2.17,1.29,4.87,1.93,8.08,1.93,2.79,0,5.33-.67,7.64-2.01,1.09-.63,2.04-1.47,2.87-2.5.33-.41.99-.19.99.33v3.37s9.97,0,9.97,0V15.69h-8.88c-.6,0-1.08.49-1.08,1.08Z"/>
          <path class="cls-1" d="M435.93,15.94c-.89-.29-1.84-.51-2.83-.68-.33-.06-.69-.09-1.03-.13-1.12-.15-2.28-.25-3.54-.25-3.38,0-6.52.5-9.44,1.49-2.63.89-5.2,2.29-7.72,4.2-.47.36-.56,1.04-.21,1.52l4.43,5.98c1.66-1.5,3.58-2.67,5.75-3.5,2.17-.83,4.3-1.25,6.39-1.25,1.69,0,3.13.28,4.34.81.36.16.71.33,1.03.53.21.13.43.24.62.39,1.47,1.15,2.21,2.91,2.21,5.27v.96h-11.42c-1.88,0-3.63.16-5.27.48-1.64.32-3.12.88-4.46,1.69-1.55.86-2.8,2.1-3.74,3.74-.94,1.63-1.41,3.6-1.41,5.91,0,2.57.66,4.85,1.97,6.83,1.31,1.98,3.11,3.51,5.39,4.58,2.28,1.07,4.86,1.61,7.76,1.61,2.18,0,4.23-.46,6.17-1.38l.04-.06v-5.93c0-.37-.3-.67-.67-.67h-4.09c-1.88,0-3.39-.41-4.55-1.22-1.39-.98-2.14-2.69-1.93-4.38.06-.46.18-.88.36-1.27.27-.56.67-1.03,1.21-1.4.59-.48,1.3-.79,2.13-.93.83-.13,1.67-.2,2.53-.2h8.54c.79,0,1.43.64,1.43,1.43v15.21h9.97v-25c0-4.82-1.53-8.6-4.58-11.33-1.5-1.34-3.3-2.35-5.38-3.04Z"/>
          <path class="cls-1" d="M324.01,59.47v-11.28c0-.85.42-1.65,1.11-2.15l15.06-10.93-15.06-10.93c-.69-.51-1.11-1.31-1.11-2.16v-11.27l22.35,16.22c5.57,4.04,5.57,12.25,0,16.29l-22.35,16.22Z"/>
        </g>
      </g>
    </g>
  </g>
</svg>