<?xml version="1.0" encoding="UTF-8"?>
<svg id="Capa_2" data-name="Capa 2" xmlns="http://www.w3.org/2000/svg" viewBox="0 0 611.98 59.53">
  <defs>
    <style>
      .cls-1 {
        fill: #243746;
      }
    </style>
  </defs>
  <g id="Capa_1-2" data-name="Capa 1">
    <g id="nutrición_flecha_mono">
      <g>
        <g>
          <path class="cls-1" d="M0,55.4V16.83h4.9l.31,6.89c1.22-2.45,3-4.36,5.32-5.74,2.32-1.38,4.91-2.07,7.77-2.07s5.53.59,7.73,1.76c2.19,1.17,3.9,2.94,5.13,5.32,1.22,2.37,1.84,5.4,1.84,9.07v23.34h-5.36v-22.72c0-4.08-.89-7.12-2.68-9.1-1.79-1.99-4.31-2.98-7.58-2.98-2.3,0-4.35.55-6.16,1.64-1.81,1.1-3.24,2.69-4.28,4.78-1.05,2.09-1.57,4.67-1.57,7.73v20.66H0Z"/>
          <path class="cls-1" d="M57,56.31c-2.91,0-5.47-.57-7.69-1.72-2.22-1.15-3.94-2.92-5.16-5.32s-1.84-5.43-1.84-9.1v-23.34h5.36v22.72c0,4.08.9,7.12,2.72,9.1,1.81,1.99,4.32,2.98,7.54,2.98,2.3,0,4.35-.55,6.16-1.65,1.81-1.09,3.24-2.69,4.28-4.78s1.57-4.67,1.57-7.73v-20.66h5.36v38.56h-4.9l-.31-6.89c-1.22,2.45-3,4.36-5.32,5.74-2.32,1.38-4.91,2.07-7.77,2.07Z"/>
          <path class="cls-1" d="M100.76,55.4c-2.19,0-4.08-.35-5.66-1.03-1.58-.69-2.79-1.84-3.63-3.44-.84-1.61-1.26-3.81-1.26-6.62v-22.88h-6.73v-4.59h6.73l.77-8.95h4.59v9.03h11.55v4.51h-11.55v22.88c0,2.55.51,4.27,1.53,5.16,1.02.89,2.83,1.34,5.43,1.34h3.98v4.59h-5.74Z"/>
          <path class="cls-1" d="M115.45,55.4V16.83h4.9l.38,7.42c.82-1.78,1.91-3.29,3.29-4.51,1.38-1.22,3.03-2.17,4.97-2.83,1.94-.66,4.13-1,6.58-1v5.59h-2.07c-1.63,0-3.21.22-4.74.65-1.53.44-2.88,1.16-4.06,2.18s-2.12,2.4-2.83,4.13c-.72,1.73-1.07,3.9-1.07,6.5v20.43h-5.36Z"/>
          <path class="cls-1" d="M146.52,7.73c-1.07,0-1.99-.37-2.75-1.11-.77-.74-1.15-1.67-1.15-2.79s.37-2.1,1.11-2.79c.74-.69,1.67-1.03,2.79-1.03,1.02,0,1.91.35,2.68,1.03.77.69,1.15,1.62,1.15,2.79s-.37,2.05-1.11,2.79c-.74.74-1.64,1.11-2.72,1.11ZM143.84,55.4V16.83h5.36v38.56h-5.36Z"/>
          <path class="cls-1" d="M177.73,56.31c-3.52,0-6.7-.84-9.53-2.53s-5.06-4.04-6.7-7.08c-1.63-3.03-2.45-6.54-2.45-10.52s.82-7.69,2.45-10.67c1.63-2.98,3.86-5.33,6.7-7.04,2.83-1.71,6.01-2.56,9.53-2.56,4.49,0,8.23,1.16,11.21,3.48,2.98,2.32,4.88,5.4,5.7,9.22h-5.36c-.56-2.55-1.9-4.52-4.02-5.93-2.12-1.4-4.63-2.1-7.54-2.1-2.35,0-4.51.57-6.5,1.72-1.99,1.15-3.6,2.87-4.82,5.16-1.22,2.3-1.84,5.2-1.84,8.72,0,2.6.36,4.87,1.07,6.81.71,1.94,1.7,3.56,2.95,4.86,1.25,1.3,2.65,2.28,4.21,2.94,1.55.66,3.2,1,4.93,1,1.89,0,3.63-.32,5.24-.96,1.61-.64,2.97-1.57,4.09-2.79,1.12-1.22,1.86-2.7,2.22-4.44h5.36c-.76,3.72-2.65,6.77-5.66,9.14-3.01,2.37-6.76,3.56-11.25,3.56Z"/>
          <path class="cls-1" d="M207.27,7.73c-1.07,0-1.99-.37-2.75-1.11-.77-.74-1.15-1.67-1.15-2.79s.37-2.1,1.11-2.79c.74-.69,1.67-1.03,2.79-1.03,1.02,0,1.91.35,2.68,1.03.77.69,1.15,1.62,1.15,2.79s-.37,2.05-1.11,2.79c-.74.74-1.64,1.11-2.72,1.11ZM204.59,55.4V16.83h5.36v38.56h-5.36Z"/>
          <path class="cls-1" d="M238.48,56.31c-3.52,0-6.7-.83-9.53-2.49-2.83-1.66-5.06-4-6.7-7.04-1.63-3.03-2.45-6.57-2.45-10.6s.83-7.78,2.49-10.79c1.66-3.01,3.91-5.34,6.77-7,2.86-1.66,6.04-2.49,9.56-2.49s6.91.83,9.72,2.49c2.8,1.66,5.02,3.99,6.66,7,1.63,3.01,2.45,6.61,2.45,10.79s-.83,7.56-2.49,10.6c-1.66,3.03-3.9,5.38-6.73,7.04-2.83,1.66-6.08,2.49-9.76,2.49ZM238.56,51.72c2.4,0,4.6-.59,6.62-1.76,2.01-1.17,3.65-2.92,4.9-5.24,1.25-2.32,1.87-5.19,1.87-8.61s-.61-6.35-1.84-8.65c-1.22-2.29-2.84-4.02-4.86-5.16-2.02-1.15-4.22-1.72-6.62-1.72s-4.46.59-6.5,1.76c-2.04,1.18-3.69,2.9-4.94,5.17-1.25,2.27-1.87,5.14-1.87,8.61s.61,6.29,1.84,8.61c1.22,2.32,2.84,4.07,4.86,5.24,2.02,1.17,4.2,1.76,6.54,1.76ZM231.37,13.54l-.54-3.83,15-9.72.69,4.67-15.15,8.88Z"/>
          <path class="cls-1" d="M266.64,55.4V16.83h4.9l.31,6.89c1.22-2.45,3-4.36,5.32-5.74,2.32-1.38,4.91-2.07,7.77-2.07s5.53.59,7.73,1.76c2.19,1.17,3.9,2.94,5.13,5.32,1.22,2.37,1.84,5.4,1.84,9.07v23.34h-5.36v-22.72c0-4.08-.89-7.12-2.68-9.1-1.79-1.99-4.31-2.98-7.58-2.98-2.3,0-4.35.55-6.16,1.64-1.81,1.1-3.24,2.69-4.28,4.78-1.05,2.09-1.57,4.67-1.57,7.73v20.66h-5.36Z"/>
        </g>
        <g>
          <path class="cls-1" d="M518.75,19.41c0,.59-.72.87-1.11.43-1.29-1.46-2.92-2.95-4.32-3.63-1.85-.89-3.85-1.33-6-1.33-3.06,0-5.88.82-8.45,2.46-2.58,1.64-4.63,3.99-6.16,7.05-1.53,3.06-2.29,6.76-2.29,11.11,0,3.92.68,7.45,2.05,10.59,1.37,3.14,3.31,5.61,5.84,7.41,2.52,1.8,5.53,2.7,9.02,2.7,1.99,0,3.91-.39,5.76-1.17,1.43-.6,3.18-2.21,4.56-3.76.39-.44,1.12-.17,1.12.42v3.7h9.9V2.7h-9.9v16.71ZM518.46,41.53c-.78,1.72-1.88,3.06-3.3,4.03-1.42.97-3.13,1.45-5.11,1.45s-3.62-.47-5.07-1.41c-1.45-.94-2.56-2.27-3.34-3.99-.78-1.72-1.17-3.76-1.17-6.12s.39-4.39,1.17-6.08c.78-1.69,1.89-3.01,3.34-3.95,1.45-.94,3.14-1.41,5.07-1.41s3.69.47,5.11,1.41c1.42.94,2.52,2.27,3.3,3.99.78,1.72,1.17,3.73,1.17,6.04s-.39,4.32-1.17,6.04Z"/>
          <path class="cls-1" d="M606.99,33.48c-1.5-.91-3.11-1.64-4.83-2.18-1.72-.53-3.38-.99-4.99-1.37-1.72-.43-3.1-.82-4.15-1.17-1.05-.35-1.8-.76-2.25-1.25-.46-.48-.68-1.07-.68-1.77,0-1.02.5-1.82,1.49-2.42.99-.59,2.27-.89,3.82-.89,1.77,0,3.45.39,5.03,1.17,1.25.61,2.3,1.47,3.17,2.57.4.5,1.14.55,1.65.16l5.21-4.13c-1.5-2.36-3.54-4.17-6.12-5.44-2.58-1.26-5.45-1.89-8.61-1.89-5.27,0-9.33,1.49-12.18,4.45-1.9,1.98-2.81,4.65-2.8,7.39.01,2.05.43,3.77,1.25,5.14.83,1.4,1.92,2.54,3.26,3.42,1.34.89,2.82,1.6,4.43,2.14,1.61.54,3.17,1.02,4.67,1.45,1.45.38,2.76.77,3.95,1.17,1.18.4,2.12.91,2.82,1.53.7.62,1.05,1.41,1.05,2.37,0,1.18-.55,2.16-1.65,2.94-1.1.78-2.64,1.17-4.63,1.17-2.52,0-4.63-.63-6.32-1.89-1.29-.97-2.36-2-3.2-3.11-.41-.54-1.2-.61-1.72-.16l-5.83,5.08c.91,1.18,2.13,2.42,3.66,3.7,1.53,1.29,3.39,2.36,5.59,3.22,2.2.86,4.78,1.29,7.73,1.29,3.27,0,6.12-.56,8.53-1.69,2.42-1.13,4.29-2.7,5.64-4.71,1.34-2.01,2.01-4.33,2.01-6.97,0-2.31-.46-4.21-1.37-5.72-.91-1.5-2.12-2.71-3.62-3.62Z"/>
          <path class="cls-1" d="M569.39,20.8c-1.5-1.85-3.41-3.3-5.72-4.35-2.31-1.05-5.02-1.57-8.13-1.57-3.33,0-6.19.6-8.58,1.81-2.39,1.21-4.33,2.81-5.84,4.79-1.5,1.99-2.63,4.22-3.38,6.68-.75,2.47-1.13,4.99-1.13,7.57s.38,5.25,1.13,7.69c.75,2.44,1.92,4.62,3.5,6.52,1.58,1.91,3.61,3.42,6.08,4.55,2.47,1.13,5.42,1.69,8.86,1.69,2.31,0,4.36-.2,6.16-.6,1.8-.4,3.53-1.06,5.19-1.97,1.66-.91,3.44-2.09,5.31-3.54l-4.99-6.76c-1.5,1.34-3.22,2.37-5.15,3.1-1.93.73-3.92,1.09-5.96,1.09-2.79,0-5.11-.73-6.97-2.18-1.55-1.21-2.54-2.91-2.98-5.1-.14-.69.36-1.34,1.06-1.34h25.88c.11-.75.17-1.46.2-2.13.03-.67.04-1.19.04-1.57,0-2.79-.39-5.42-1.17-7.89-.78-2.47-1.92-4.63-3.42-6.48ZM563.64,31.46h-17.12c.16-1.33.57-2.64,1.25-3.9.67-1.26,1.68-2.29,3.02-3.1,1.34-.81,3.01-1.21,4.99-1.21,1.34,0,2.54.2,3.58.6,1.05.4,1.95.98,2.7,1.73.75.75,1.34,1.62,1.77,2.62.33.77.53,1.57.61,2.42.04.45-.35.84-.8.84Z"/>
          <path class="cls-1" d="M476.44,16.81c-2.18-1.29-4.87-1.93-8.09-1.93-2.79,0-5.34.67-7.65,2.01-1.55.9-2.82,2.22-3.87,3.9v-5.11h-9.98v39.69h8.9c.6,0,1.09-.49,1.09-1.09v-22.92c0-2.47.72-4.39,2.15-5.75,1.43-1.36,3.49-2.04,6.18-2.04.04,0,.07,0,.11,0,.03,0,.06,0,.09,0,.57,0,1.09.05,1.58.12,0,0,.02,0,.03,0,.44.07.86.16,1.24.29.28.08.53.18.78.29,0,0,.02,0,.02.01.73.31,1.38.69,1.9,1.2,1.29,1.27,1.94,3.16,1.94,5.67v24.22h8.9c.6,0,1.09-.49,1.09-1.09v-23.71c0-3.17-.52-5.93-1.57-8.29-1.05-2.36-2.66-4.19-4.83-5.48Z"/>
          <path class="cls-1" d="M383,16.77v22.92c0,2.47-.72,4.39-2.15,5.75-1.43,1.36-3.49,2.04-6.18,2.04-.04,0-.07,0-.11,0-.03,0-.06,0-.09,0-.57,0-1.09-.05-1.58-.12,0,0-.02,0-.03,0-.44-.07-.86-.16-1.24-.29-.28-.08-.53-.18-.78-.29,0,0-.02,0-.02-.01-.73-.31-1.38-.69-1.9-1.2-1.29-1.27-1.94-3.16-1.94-5.67V15.69h-8.9c-.6,0-1.09.49-1.09,1.09v23.71c0,3.17.52,5.93,1.57,8.29,1.05,2.36,2.66,4.19,4.83,5.48,2.18,1.29,4.87,1.93,8.09,1.93,2.79,0,5.34-.67,7.65-2.01,1.09-.63,2.04-1.48,2.88-2.5.33-.41.99-.19.99.33v3.38s9.98,0,9.98,0V15.69h-8.9c-.6,0-1.09.49-1.09,1.09Z"/>
          <path class="cls-1" d="M427.53,15.95c-.89-.29-1.84-.51-2.84-.68-.33-.06-.69-.09-1.03-.13-1.12-.15-2.29-.25-3.54-.25-3.38,0-6.53.5-9.46,1.49-2.63.89-5.21,2.3-7.73,4.21-.47.36-.56,1.04-.21,1.52l4.44,5.99c1.66-1.5,3.58-2.67,5.76-3.5,2.17-.83,4.31-1.25,6.4-1.25,1.69,0,3.13.28,4.35.81.36.16.71.33,1.03.53.21.13.43.24.62.39,1.48,1.16,2.22,2.91,2.22,5.27v.96h-11.43c-1.88,0-3.64.16-5.27.48-1.64.32-3.13.89-4.47,1.69-1.56.86-2.8,2.11-3.74,3.74-.94,1.64-1.41,3.61-1.41,5.92,0,2.58.66,4.86,1.97,6.84,1.31,1.99,3.11,3.52,5.4,4.59,2.28,1.07,4.87,1.61,7.77,1.61,2.18,0,4.24-.46,6.18-1.38l.04-.06v-5.94c0-.37-.3-.67-.67-.67h-4.1c-1.88,0-3.4-.41-4.55-1.23-1.39-.98-2.14-2.69-1.93-4.38.06-.46.18-.88.37-1.28.27-.56.67-1.03,1.21-1.41.59-.48,1.3-.79,2.13-.93.83-.13,1.68-.2,2.54-.2h8.55c.79,0,1.43.64,1.44,1.43v15.23h9.98v-25.04c0-4.83-1.53-8.61-4.59-11.35-1.5-1.35-3.3-2.36-5.39-3.04Z"/>
          <path class="cls-1" d="M315.28,59.53v-11.3c0-.85.42-1.66,1.11-2.16l15.08-10.95-15.08-10.95c-.69-.51-1.11-1.31-1.11-2.16v-11.29l22.38,16.24c5.58,4.05,5.58,12.27,0,16.32l-22.38,16.24Z"/>
        </g>
      </g>
    </g>
  </g>
</svg>