<?xml version="1.0" encoding="UTF-8"?>
<svg id="Capa_2" data-name="Capa 2" xmlns="http://www.w3.org/2000/svg" viewBox="0 0 611.98 53.82">
  <defs>
    <style>
      .cls-1 {
        fill: #ce0019;
      }

      .cls-2 {
        fill: #243746;
      }
    </style>
  </defs>
  <g id="Capa_1-2" data-name="Capa 1">
    <g id="obstetricia_flecha_bicolor">
      <g>
        <path class="cls-2" d="M16.87,50.89c-3.18,0-6.05-.75-8.61-2.25-2.56-1.5-4.58-3.62-6.05-6.36-1.48-2.74-2.21-5.93-2.21-9.58s.75-7.03,2.25-9.75c1.5-2.72,3.54-4.83,6.12-6.33,2.58-1.5,5.46-2.24,8.64-2.24s6.25.75,8.78,2.24c2.53,1.5,4.54,3.61,6.02,6.33,1.47,2.72,2.21,5.97,2.21,9.75s-.75,6.84-2.25,9.58c-1.5,2.74-3.53,4.86-6.08,6.36-2.56,1.5-5.5,2.25-8.82,2.25ZM16.94,46.74c2.17,0,4.16-.53,5.98-1.59,1.82-1.06,3.29-2.64,4.42-4.73,1.13-2.1,1.69-4.69,1.69-7.78s-.55-5.74-1.66-7.81c-1.11-2.07-2.57-3.63-4.39-4.67-1.82-1.04-3.81-1.55-5.98-1.55s-4.03.53-5.88,1.59c-1.84,1.06-3.33,2.62-4.46,4.67-1.13,2.05-1.69,4.64-1.69,7.78s.55,5.68,1.66,7.78,2.57,3.67,4.39,4.73c1.82,1.06,3.79,1.59,5.91,1.59Z"/>
        <path class="cls-2" d="M60.08,50.89c-2.03,0-3.88-.31-5.57-.93-1.68-.62-3.15-1.47-4.39-2.56-1.24-1.08-2.24-2.32-2.97-3.7l-.42,6.36h-4.42V.27h4.84v21.23c1.15-1.98,2.81-3.67,4.98-5.05,2.17-1.38,4.82-2.07,7.95-2.07,3.41,0,6.38.79,8.92,2.38,2.53,1.59,4.48,3.76,5.84,6.5,1.36,2.74,2.04,5.87,2.04,9.37s-.69,6.64-2.07,9.41-3.33,4.93-5.84,6.5c-2.51,1.57-5.47,2.35-8.88,2.35ZM59.74,46.67c2.44,0,4.57-.59,6.4-1.76,1.82-1.18,3.25-2.81,4.29-4.91,1.04-2.1,1.56-4.55,1.56-7.36s-.52-5.33-1.56-7.43c-1.04-2.1-2.48-3.72-4.32-4.87-1.84-1.15-3.96-1.73-6.36-1.73s-4.53.58-6.4,1.73-3.32,2.79-4.36,4.91c-1.04,2.12-1.55,4.59-1.55,7.4s.52,5.34,1.55,7.44c1.04,2.1,2.49,3.72,4.36,4.87s4,1.73,6.4,1.73Z"/>
        <path class="cls-2" d="M97.97,50.89c-2.77,0-5.2-.46-7.29-1.38-2.1-.92-3.78-2.25-5.05-3.98s-2.04-3.79-2.32-6.19h5.05c.23,1.34.75,2.56,1.56,3.67.81,1.1,1.9,1.98,3.28,2.63,1.38.65,3.02.97,4.91.97,1.75,0,3.19-.25,4.32-.76,1.13-.5,1.98-1.21,2.56-2.11.58-.9.86-1.9.86-3.01,0-1.52-.36-2.7-1.07-3.56-.72-.85-1.74-1.49-3.08-1.9-1.34-.42-2.95-.81-4.84-1.18-1.57-.28-3.05-.64-4.46-1.11-1.41-.46-2.67-1.06-3.8-1.8-1.13-.74-2.03-1.67-2.7-2.8-.67-1.13-1-2.45-1-3.98,0-1.98.5-3.72,1.49-5.22s2.41-2.67,4.25-3.53c1.84-.85,4.01-1.28,6.5-1.28,3.55,0,6.45.89,8.71,2.66,2.26,1.78,3.57,4.37,3.94,7.78h-4.84c-.18-1.89-.97-3.39-2.35-4.49-1.38-1.11-3.25-1.66-5.6-1.66s-4.07.47-5.29,1.42-1.83,2.22-1.83,3.84c0,1.01.32,1.89.97,2.63.64.73,1.6,1.37,2.87,1.9,1.27.53,2.82.98,4.67,1.35,2.21.41,4.25.96,6.12,1.62s3.39,1.68,4.56,3.04c1.17,1.36,1.76,3.28,1.76,5.77.05,2.08-.46,3.92-1.52,5.53s-2.55,2.87-4.46,3.77c-1.91.9-4.21,1.35-6.88,1.35Z"/>
        <path class="cls-2" d="M130.95,50.06c-1.98,0-3.69-.31-5.12-.93-1.43-.62-2.52-1.66-3.28-3.11-.76-1.45-1.14-3.45-1.14-5.98v-20.67h-6.08v-4.15h6.08l.69-8.09h4.15v8.16h10.44v4.08h-10.44v20.67c0,2.31.46,3.86,1.38,4.67.92.81,2.56,1.21,4.91,1.21h3.6v4.15h-5.19Z"/>
        <path class="cls-2" d="M158.19,50.89c-3.23,0-6.07-.76-8.54-2.28-2.47-1.52-4.4-3.65-5.81-6.4-1.41-2.74-2.11-5.95-2.11-9.64s.69-6.89,2.07-9.61c1.38-2.72,3.33-4.83,5.84-6.33,2.51-1.5,5.4-2.24,8.68-2.24s6.22.76,8.57,2.28c2.35,1.52,4.14,3.5,5.36,5.95,1.22,2.45,1.83,5.12,1.83,8.02v1.41c0,.48-.02,1.05-.07,1.7h-28.62v-4.08h23.99c-.14-3.55-1.26-6.29-3.35-8.23-2.1-1.93-4.74-2.9-7.92-2.9-2.03,0-3.94.47-5.74,1.42-1.8.95-3.24,2.33-4.32,4.15-1.08,1.82-1.62,4.11-1.62,6.88v1.8c0,3.14.56,5.74,1.69,7.81,1.13,2.08,2.59,3.62,4.39,4.64,1.8,1.01,3.69,1.52,5.67,1.52,2.63,0,4.79-.59,6.5-1.76,1.7-1.18,2.93-2.8,3.66-4.88h4.77c-.55,2.03-1.5,3.86-2.83,5.5-1.34,1.64-3.02,2.93-5.05,3.87-2.03.95-4.38,1.42-7.05,1.42Z"/>
        <path class="cls-2" d="M193.8,50.06c-1.98,0-3.69-.31-5.12-.93-1.43-.62-2.52-1.66-3.28-3.11-.76-1.45-1.14-3.45-1.14-5.98v-20.67h-6.08v-4.15h6.08l.69-8.09h4.15v8.16h10.44v4.08h-10.44v20.67c0,2.31.46,3.86,1.38,4.67.92.81,2.56,1.21,4.91,1.21h3.6v4.15h-5.19Z"/>
        <path class="cls-2" d="M207.07,50.06V15.21h4.42l.35,6.7c.74-1.61,1.73-2.97,2.97-4.08,1.24-1.1,2.74-1.96,4.49-2.56,1.75-.6,3.73-.9,5.95-.9v5.05h-1.87c-1.48,0-2.9.19-4.29.58-1.38.39-2.6,1.05-3.66,1.97-1.06.92-1.91,2.16-2.56,3.73-.65,1.56-.97,3.52-.97,5.87v18.46h-4.84Z"/>
        <path class="cls-2" d="M235.14,6.98c-.97,0-1.8-.33-2.49-1-.69-.67-1.04-1.51-1.04-2.53s.33-1.9,1-2.52c.67-.62,1.51-.93,2.52-.93.92,0,1.73.31,2.42.93.69.62,1.04,1.46,1.04,2.52s-.33,1.86-1,2.53-1.49,1-2.45,1ZM232.72,50.06V15.21h4.84v34.84h-4.84Z"/>
        <path class="cls-2" d="M263.35,50.89c-3.18,0-6.05-.76-8.61-2.28s-4.58-3.65-6.05-6.4c-1.48-2.74-2.21-5.91-2.21-9.5s.74-6.95,2.21-9.65c1.47-2.69,3.49-4.81,6.05-6.36s5.43-2.32,8.61-2.32c4.06,0,7.43,1.05,10.13,3.15,2.7,2.1,4.41,4.87,5.15,8.33h-4.84c-.51-2.3-1.72-4.09-3.63-5.36-1.91-1.27-4.18-1.9-6.81-1.9-2.12,0-4.08.52-5.88,1.55-1.8,1.04-3.25,2.59-4.36,4.67-1.11,2.08-1.66,4.7-1.66,7.88,0,2.35.32,4.4.97,6.15s1.53,3.22,2.66,4.39c1.13,1.17,2.4,2.06,3.8,2.66,1.41.6,2.89.9,4.46.9,1.7,0,3.28-.29,4.74-.87,1.45-.58,2.68-1.41,3.7-2.52,1.01-1.1,1.68-2.44,2.01-4.01h4.84c-.69,3.37-2.4,6.12-5.12,8.27-2.72,2.14-6.11,3.21-10.16,3.21Z"/>
        <path class="cls-2" d="M290.04,6.98c-.97,0-1.8-.33-2.49-1-.69-.67-1.04-1.51-1.04-2.53s.33-1.9,1-2.52c.67-.62,1.51-.93,2.52-.93.92,0,1.73.31,2.42.93.69.62,1.04,1.46,1.04,2.52s-.33,1.86-1,2.53-1.49,1-2.45,1ZM287.62,50.06V15.21h4.84v34.84h-4.84Z"/>
        <path class="cls-2" d="M314.03,50.89c-2.81,0-5.15-.51-7.02-1.52-1.87-1.01-3.25-2.33-4.15-3.94s-1.35-3.39-1.35-5.33c0-2.39.61-4.42,1.83-6.08,1.22-1.66,2.95-2.91,5.19-3.73,2.24-.83,4.8-1.25,7.71-1.25h9.4c0-2.26-.35-4.17-1.04-5.74-.69-1.56-1.69-2.75-3.01-3.56-1.31-.81-2.98-1.21-5.01-1.21-2.4,0-4.45.6-6.15,1.8-1.71,1.2-2.77,2.95-3.18,5.25h-5.05c.28-2.44,1.12-4.5,2.52-6.15,1.41-1.66,3.16-2.92,5.25-3.77,2.1-.85,4.3-1.28,6.6-1.28,3.18,0,5.8.61,7.85,1.83,2.05,1.22,3.57,2.89,4.56,5.01.99,2.12,1.49,4.56,1.49,7.33v21.5h-4.42l-.21-6.36c-.46.97-1.05,1.89-1.76,2.76-.71.88-1.55,1.64-2.49,2.28-.95.65-2.04,1.17-3.28,1.56-1.25.39-2.67.59-4.29.59ZM314.58,46.6c1.75,0,3.29-.35,4.63-1.04,1.34-.69,2.49-1.61,3.46-2.77.97-1.15,1.7-2.46,2.21-3.94.51-1.47.76-2.97.76-4.49v-1.25h-9.06c-2.44,0-4.4.3-5.88.9-1.48.6-2.53,1.41-3.18,2.42s-.97,2.19-.97,3.53.31,2.5.93,3.49c.62.99,1.53,1.76,2.73,2.32,1.2.55,2.65.83,4.36.83Z"/>
      </g>
      <g>
        <path class="cls-2" d="M527.73,17.56c0,.53-.65.78-1.01.38-1.17-1.32-2.64-2.67-3.91-3.28-1.67-.8-3.48-1.2-5.42-1.2-2.76,0-5.31.74-7.64,2.22-2.33,1.48-4.18,3.6-5.57,6.37-1.38,2.76-2.07,6.11-2.07,10.04,0,3.54.62,6.73,1.85,9.57,1.24,2.84,3,5.07,5.27,6.69,2.28,1.63,5,2.44,8.15,2.44,1.79,0,3.53-.35,5.2-1.05,1.29-.54,2.87-1.99,4.12-3.4.36-.4,1.01-.16,1.01.38v3.34h8.95V2.46h-8.95v15.1ZM527.47,37.55c-.7,1.55-1.7,2.77-2.98,3.64-1.29.87-2.83,1.31-4.62,1.31s-3.27-.42-4.58-1.27c-1.31-.85-2.32-2.05-3.02-3.6-.7-1.55-1.05-3.39-1.05-5.53s.35-3.96,1.05-5.49c.7-1.53,1.71-2.72,3.02-3.57,1.31-.85,2.84-1.27,4.58-1.27s3.33.43,4.62,1.27c1.28.85,2.28,2.05,2.98,3.6.7,1.55,1.05,3.37,1.05,5.46s-.35,3.9-1.05,5.46Z"/>
        <path class="cls-2" d="M607.47,30.28c-1.36-.83-2.81-1.48-4.37-1.97-1.55-.48-3.06-.9-4.51-1.24-1.55-.39-2.8-.74-3.75-1.05-.95-.31-1.62-.69-2.04-1.13-.41-.44-.62-.97-.62-1.6,0-.92.45-1.65,1.35-2.18.9-.53,2.05-.8,3.45-.8,1.6,0,3.12.35,4.55,1.05,1.13.56,2.08,1.33,2.86,2.32.36.45,1.03.5,1.49.14l4.71-3.73c-1.36-2.14-3.2-3.77-5.53-4.91-2.33-1.14-4.92-1.71-7.78-1.71-4.76,0-8.43,1.34-11.01,4.03-1.72,1.79-2.54,4.2-2.53,6.68.01,1.85.39,3.4,1.13,4.65.75,1.26,1.73,2.29,2.95,3.09,1.21.8,2.55,1.44,4,1.93,1.46.48,2.86.92,4.22,1.31,1.31.34,2.5.69,3.57,1.05,1.07.36,1.92.83,2.55,1.38.63.56.95,1.27.95,2.15,0,1.07-.5,1.95-1.49,2.66-.99.7-2.39,1.05-4.18,1.05-2.28,0-4.18-.57-5.71-1.71-1.17-.87-2.13-1.81-2.89-2.81-.37-.49-1.09-.55-1.55-.14l-5.27,4.59c.82,1.07,1.93,2.18,3.31,3.35,1.38,1.16,3.07,2.14,5.06,2.91,1.99.77,4.32,1.16,6.98,1.16,2.96,0,5.53-.51,7.71-1.53,2.18-1.02,3.88-2.44,5.09-4.26,1.21-1.82,1.82-3.92,1.82-6.29,0-2.08-.41-3.81-1.24-5.16-.83-1.36-1.92-2.45-3.27-3.27Z"/>
        <path class="cls-2" d="M573.49,18.82c-1.36-1.67-3.08-2.98-5.17-3.93-2.09-.95-4.54-1.42-7.35-1.42-3.01,0-5.59.55-7.75,1.64-2.16,1.09-3.92,2.54-5.27,4.33-1.36,1.79-2.38,3.81-3.06,6.04-.68,2.23-1.02,4.51-1.02,6.84s.34,4.74,1.02,6.95c.68,2.21,1.73,4.17,3.16,5.89,1.43,1.72,3.26,3.09,5.49,4.11,2.23,1.02,4.9,1.53,8,1.53,2.08,0,3.94-.18,5.57-.55,1.62-.36,3.19-.96,4.69-1.78,1.5-.83,3.1-1.89,4.8-3.2l-4.51-6.11c-1.36,1.21-2.91,2.15-4.66,2.8-1.75.66-3.54.98-5.38.98-2.52,0-4.62-.66-6.29-1.97-1.4-1.1-2.3-2.63-2.7-4.61-.12-.62.33-1.21.96-1.21h23.38c.1-.68.16-1.32.18-1.93.02-.61.04-1.08.04-1.42,0-2.52-.35-4.9-1.05-7.13-.7-2.23-1.73-4.18-3.09-5.86ZM568.3,28.45h-15.47c.15-1.2.52-2.38,1.13-3.52.6-1.14,1.51-2.07,2.73-2.8,1.21-.73,2.72-1.09,4.51-1.09,1.21,0,2.29.18,3.24.54.95.36,1.76.89,2.44,1.56.68.68,1.21,1.47,1.6,2.36.3.69.48,1.42.55,2.18.04.41-.31.76-.73.76Z"/>
        <path class="cls-2" d="M489.5,15.22c-1.97-1.16-4.4-1.75-7.31-1.75-2.52,0-4.83.61-6.91,1.82-1.4.81-2.55,2.01-3.49,3.52v-4.62h-9.02v35.87h8.04c.54,0,.98-.44.98-.98v-20.71c0-2.24.65-3.97,1.94-5.2,1.3-1.23,3.16-1.85,5.59-1.85.03,0,.06,0,.1,0,.03,0,.05,0,.08,0,.51,0,.98.04,1.43.11,0,0,.02,0,.02,0,.4.06.77.15,1.12.26.25.07.48.16.7.26,0,0,.01,0,.02,0,.66.28,1.24.62,1.71,1.09,1.17,1.15,1.75,2.86,1.75,5.13v21.89h8.04c.54,0,.98-.44.98-.98v-21.43c0-2.86-.47-5.36-1.42-7.49-.95-2.14-2.4-3.78-4.37-4.95Z"/>
        <path class="cls-2" d="M405.06,15.18v20.71c0,2.24-.65,3.97-1.94,5.2-1.3,1.23-3.16,1.85-5.59,1.85-.03,0-.06,0-.1,0-.03,0-.05,0-.08,0-.51,0-.98-.04-1.43-.11,0,0-.02,0-.02,0-.4-.06-.77-.15-1.12-.26-.25-.07-.48-.16-.7-.26,0,0-.01,0-.02,0-.66-.28-1.24-.62-1.71-1.09-1.17-1.15-1.75-2.86-1.75-5.13V14.2h-8.04c-.54,0-.98.44-.98.98v21.43c0,2.86.47,5.36,1.42,7.49.95,2.14,2.4,3.78,4.37,4.95,1.97,1.16,4.4,1.75,7.31,1.75,2.52,0,4.83-.61,6.91-1.82.98-.57,1.85-1.33,2.6-2.26.3-.37.89-.17.89.3v3.05s9.02,0,9.02,0V14.2h-8.04c-.54,0-.98.44-.98.98Z"/>
        <path class="cls-2" d="M445.3,14.43c-.8-.26-1.66-.46-2.56-.62-.3-.05-.62-.08-.93-.12-1.02-.13-2.07-.23-3.2-.23-3.06,0-5.9.45-8.55,1.35-2.38.81-4.71,2.07-6.98,3.8-.43.32-.51.94-.19,1.37l4.01,5.41c1.5-1.36,3.24-2.41,5.2-3.16,1.96-.75,3.89-1.13,5.78-1.13,1.53,0,2.83.25,3.93.73.33.14.64.3.93.48.19.12.39.22.56.35,1.33,1.04,2,2.63,2,4.77v.87h-10.33c-1.7,0-3.29.15-4.77.44-1.48.29-2.83.8-4.04,1.53-1.41.78-2.53,1.9-3.38,3.38-.85,1.48-1.27,3.26-1.27,5.35,0,2.33.59,4.39,1.78,6.18,1.19,1.8,2.81,3.18,4.88,4.15,2.06.97,4.4,1.46,7.02,1.46,1.97,0,3.83-.42,5.58-1.25l.03-.05v-5.37c0-.33-.27-.61-.61-.61h-3.7c-1.7,0-3.07-.37-4.11-1.11-1.26-.89-1.93-2.43-1.74-3.96.05-.41.16-.8.33-1.15.24-.51.61-.93,1.09-1.27.53-.44,1.17-.72,1.93-.84.75-.12,1.52-.18,2.29-.18h7.73c.72,0,1.3.58,1.3,1.3v13.76h9.02v-22.63c0-4.37-1.38-7.78-4.15-10.26-1.36-1.22-2.99-2.13-4.87-2.75Z"/>
        <path class="cls-1" d="M344.01,53.82v-10.21c0-.77.38-1.5,1-1.95l13.63-9.89-13.63-9.89c-.63-.46-1-1.19-1-1.95v-10.2l20.23,14.68c5.04,3.66,5.04,11.08,0,14.74l-20.23,14.68Z"/>
      </g>
    </g>
  </g>
</svg>