<?xml version="1.0" encoding="UTF-8"?>
<svg id="Capa_2" data-name="Capa 2" xmlns="http://www.w3.org/2000/svg" viewBox="0 0 611.98 44.41">
  <defs>
    <style>
      .cls-1 {
        fill: #ce0019;
      }

      .cls-2 {
        fill: #243746;
      }
    </style>
  </defs>
  <g id="Capa_1-2" data-name="Capa 1">
    <g id="terapia_ocupacional_flecha_bicolor">
      <g>
        <path class="cls-2" d="M10.63,34.06c-1.35,0-2.51-.21-3.48-.64-.97-.42-1.72-1.13-2.23-2.12s-.78-2.34-.78-4.07v-14.07H0v-2.82h4.14l.47-5.5h2.82v5.55h7.1v2.78h-7.1v14.07c0,1.57.31,2.63.94,3.18.63.55,1.74.82,3.34.82h2.45v2.82h-3.53Z"/>
        <path class="cls-2" d="M29.17,34.62c-2.19,0-4.13-.52-5.81-1.55-1.68-1.03-3-2.48-3.95-4.35-.96-1.86-1.43-4.05-1.43-6.56s.47-4.69,1.41-6.54c.94-1.85,2.27-3.28,3.98-4.3,1.71-1.02,3.68-1.53,5.9-1.53s4.23.52,5.83,1.55c1.6,1.03,2.81,2.38,3.65,4.05.83,1.66,1.25,3.48,1.25,5.46v.96c0,.33-.02.71-.05,1.15h-19.48v-2.78h16.32c-.09-2.41-.86-4.28-2.28-5.6-1.43-1.32-3.22-1.98-5.39-1.98-1.38,0-2.68.32-3.9.96-1.22.64-2.2,1.58-2.94,2.82-.74,1.24-1.11,2.8-1.11,4.68v1.22c0,2.13.38,3.9,1.15,5.32.77,1.41,1.76,2.46,2.99,3.15,1.22.69,2.51,1.03,3.86,1.03,1.79,0,3.26-.4,4.42-1.2,1.16-.8,1.99-1.91,2.49-3.32h3.25c-.38,1.38-1.02,2.63-1.93,3.74-.91,1.11-2.05,1.99-3.43,2.63-1.38.64-2.98.96-4.8.96Z"/>
        <path class="cls-2" d="M45.35,34.06V10.35h3.01l.24,4.56c.5-1.1,1.18-2.02,2.02-2.78.85-.75,1.87-1.33,3.06-1.74,1.19-.41,2.54-.61,4.05-.61v3.43h-1.27c-1,0-1.98.13-2.92.4-.94.27-1.77.71-2.49,1.34s-1.3,1.47-1.74,2.54c-.44,1.07-.66,2.4-.66,4v12.56h-3.29Z"/>
        <path class="cls-2" d="M69.9,34.62c-1.91,0-3.5-.35-4.77-1.03s-2.21-1.58-2.82-2.68c-.61-1.1-.92-2.31-.92-3.62,0-1.63.42-3.01,1.25-4.14.83-1.13,2.01-1.98,3.53-2.54,1.52-.56,3.27-.85,5.25-.85h6.4c0-1.54-.24-2.84-.71-3.9-.47-1.07-1.15-1.87-2.05-2.42-.89-.55-2.03-.82-3.41-.82-1.63,0-3.03.41-4.19,1.22-1.16.82-1.88,2.01-2.16,3.58h-3.43c.19-1.66.76-3.06,1.72-4.19.96-1.13,2.15-1.98,3.58-2.56,1.43-.58,2.92-.87,4.49-.87,2.16,0,3.94.42,5.34,1.25,1.4.83,2.43,1.97,3.1,3.41.67,1.44,1.01,3.1,1.01,4.99v14.63h-3.01l-.14-4.33c-.31.66-.71,1.29-1.2,1.88-.49.6-1.05,1.11-1.69,1.55-.64.44-1.39.79-2.23,1.06-.85.27-1.82.4-2.92.4ZM70.28,31.71c1.19,0,2.24-.24,3.15-.71.91-.47,1.69-1.1,2.35-1.88.66-.78,1.16-1.68,1.51-2.68.34-1,.52-2.02.52-3.06v-.85h-6.16c-1.66,0-3,.2-4,.61-1,.41-1.72.96-2.16,1.65-.44.69-.66,1.49-.66,2.4s.21,1.7.64,2.38c.42.67,1.04,1.2,1.86,1.58.81.38,1.8.56,2.96.56Z"/>
        <path class="cls-2" d="M87.31,44.41V10.35h3.01l.28,4.28c.5-.85,1.16-1.64,1.98-2.38.81-.74,1.8-1.33,2.94-1.79,1.14-.45,2.45-.68,3.93-.68,2.29,0,4.29.55,6,1.65,1.71,1.1,3.03,2.58,3.98,4.45s1.41,3.99,1.41,6.37-.48,4.51-1.43,6.37-2.28,3.33-3.98,4.4c-1.69,1.07-3.7,1.6-6.02,1.6-2.01,0-3.77-.43-5.29-1.29-1.52-.86-2.69-2.08-3.5-3.65v14.72h-3.29ZM99.16,31.75c1.63,0,3.07-.4,4.33-1.2,1.25-.8,2.23-1.91,2.94-3.32s1.06-3.09,1.06-5.03-.35-3.59-1.06-5.03c-.71-1.44-1.69-2.56-2.94-3.34-1.25-.78-2.7-1.18-4.33-1.18s-3.07.39-4.33,1.18c-1.25.79-2.24,1.89-2.96,3.32s-1.08,3.11-1.08,5.06.36,3.58,1.08,5.01c.72,1.43,1.71,2.54,2.96,3.34,1.25.8,2.7,1.2,4.33,1.2Z"/>
        <path class="cls-2" d="M118.59,4.75c-.66,0-1.22-.23-1.69-.68-.47-.45-.71-1.03-.71-1.72s.23-1.29.68-1.72c.45-.42,1.03-.64,1.72-.64.63,0,1.18.21,1.65.64.47.42.71,1,.71,1.72s-.23,1.26-.68,1.72c-.45.46-1.01.68-1.67.68ZM116.94,34.06V10.35h3.29v23.71h-3.29Z"/>
        <path class="cls-2" d="M134.91,34.62c-1.91,0-3.5-.35-4.77-1.03s-2.21-1.58-2.82-2.68c-.61-1.1-.92-2.31-.92-3.62,0-1.63.42-3.01,1.25-4.14.83-1.13,2.01-1.98,3.53-2.54,1.52-.56,3.27-.85,5.25-.85h6.4c0-1.54-.24-2.84-.71-3.9-.47-1.07-1.15-1.87-2.05-2.42-.89-.55-2.03-.82-3.41-.82-1.63,0-3.03.41-4.19,1.22-1.16.82-1.88,2.01-2.16,3.58h-3.43c.19-1.66.76-3.06,1.72-4.19.96-1.13,2.15-1.98,3.58-2.56,1.43-.58,2.92-.87,4.49-.87,2.16,0,3.94.42,5.34,1.25,1.4.83,2.43,1.97,3.1,3.41.67,1.44,1.01,3.1,1.01,4.99v14.63h-3.01l-.14-4.33c-.31.66-.71,1.29-1.2,1.88-.49.6-1.05,1.11-1.69,1.55-.64.44-1.39.79-2.23,1.06-.85.27-1.82.4-2.92.4ZM135.29,31.71c1.19,0,2.24-.24,3.15-.71.91-.47,1.69-1.1,2.35-1.88.66-.78,1.16-1.68,1.51-2.68.34-1,.52-2.02.52-3.06v-.85h-6.16c-1.66,0-3,.2-4,.61-1,.41-1.72.96-2.16,1.65-.44.69-.66,1.49-.66,2.4s.21,1.7.64,2.38c.42.67,1.04,1.2,1.86,1.58.81.38,1.8.56,2.96.56Z"/>
        <path class="cls-2" d="M175.7,34.62c-2.16,0-4.12-.51-5.86-1.53-1.74-1.02-3.11-2.46-4.12-4.33-1-1.86-1.51-4.04-1.51-6.52s.51-4.78,1.53-6.63c1.02-1.85,2.41-3.28,4.16-4.3,1.76-1.02,3.72-1.53,5.88-1.53s4.25.51,5.97,1.53c1.72,1.02,3.09,2.46,4.09,4.3,1,1.85,1.51,4.06,1.51,6.63s-.51,4.65-1.53,6.52c-1.02,1.87-2.4,3.31-4.14,4.33-1.74,1.02-3.74,1.53-6,1.53ZM175.75,31.8c1.47,0,2.83-.36,4.07-1.08,1.24-.72,2.24-1.79,3.01-3.22.77-1.43,1.15-3.19,1.15-5.29s-.38-3.9-1.13-5.32c-.75-1.41-1.75-2.47-2.99-3.18-1.24-.71-2.6-1.06-4.07-1.06s-2.74.36-4,1.08c-1.25.72-2.27,1.78-3.03,3.18-.77,1.4-1.15,3.16-1.15,5.29s.38,3.87,1.13,5.29c.75,1.43,1.75,2.5,2.99,3.22s2.58,1.08,4.02,1.08Z"/>
        <path class="cls-2" d="M203.45,34.62c-2.16,0-4.12-.52-5.86-1.55-1.74-1.03-3.11-2.48-4.12-4.35-1-1.86-1.51-4.02-1.51-6.47s.5-4.73,1.51-6.56c1-1.83,2.38-3.28,4.12-4.33,1.74-1.05,3.69-1.58,5.86-1.58,2.76,0,5.06.71,6.89,2.14,1.83,1.43,3,3.32,3.5,5.67h-3.29c-.35-1.57-1.17-2.78-2.47-3.65-1.3-.86-2.85-1.29-4.63-1.29-1.44,0-2.78.35-4,1.06-1.22.71-2.21,1.76-2.96,3.18-.75,1.41-1.13,3.2-1.13,5.36,0,1.6.22,3,.66,4.19s1.04,2.19,1.81,2.99c.77.8,1.63,1.4,2.59,1.81.96.41,1.97.61,3.03.61,1.16,0,2.23-.2,3.22-.59.99-.39,1.83-.96,2.52-1.72s1.14-1.66,1.36-2.73h3.29c-.47,2.29-1.63,4.16-3.48,5.62-1.85,1.46-4.16,2.19-6.92,2.19Z"/>
        <path class="cls-2" d="M228.06,34.62c-1.79,0-3.36-.35-4.73-1.06-1.36-.71-2.42-1.79-3.18-3.27s-1.13-3.34-1.13-5.6v-14.35h3.29v13.97c0,2.51.56,4.38,1.67,5.6,1.11,1.22,2.66,1.83,4.63,1.83,1.41,0,2.67-.34,3.79-1.01,1.11-.67,1.99-1.65,2.63-2.94s.96-2.87.96-4.75v-12.7h3.29v23.71h-3.01l-.19-4.23c-.75,1.51-1.84,2.68-3.27,3.53-1.43.85-3.02,1.27-4.77,1.27Z"/>
        <path class="cls-2" d="M245.98,44.41V10.35h3.01l.28,4.28c.5-.85,1.16-1.64,1.98-2.38.81-.74,1.8-1.33,2.94-1.79,1.14-.45,2.45-.68,3.93-.68,2.29,0,4.29.55,6,1.65,1.71,1.1,3.03,2.58,3.98,4.45s1.41,3.99,1.41,6.37-.48,4.51-1.43,6.37-2.28,3.33-3.98,4.4c-1.69,1.07-3.7,1.6-6.02,1.6-2.01,0-3.77-.43-5.29-1.29-1.52-.86-2.69-2.08-3.5-3.65v14.72h-3.29ZM257.83,31.75c1.63,0,3.07-.4,4.33-1.2,1.25-.8,2.23-1.91,2.94-3.32s1.06-3.09,1.06-5.03-.35-3.59-1.06-5.03c-.71-1.44-1.69-2.56-2.94-3.34-1.25-.78-2.7-1.18-4.33-1.18s-3.07.39-4.33,1.18c-1.25.79-2.24,1.89-2.96,3.32s-1.08,3.11-1.08,5.06.36,3.58,1.08,5.01c.72,1.43,1.71,2.54,2.96,3.34,1.25.8,2.7,1.2,4.33,1.2Z"/>
        <path class="cls-2" d="M282.72,34.62c-1.91,0-3.5-.35-4.77-1.03s-2.21-1.58-2.82-2.68c-.61-1.1-.92-2.31-.92-3.62,0-1.63.42-3.01,1.25-4.14.83-1.13,2.01-1.98,3.53-2.54,1.52-.56,3.27-.85,5.25-.85h6.4c0-1.54-.24-2.84-.71-3.9-.47-1.07-1.15-1.87-2.05-2.42-.89-.55-2.03-.82-3.41-.82-1.63,0-3.03.41-4.19,1.22-1.16.82-1.88,2.01-2.16,3.58h-3.43c.19-1.66.76-3.06,1.72-4.19.96-1.13,2.15-1.98,3.58-2.56,1.43-.58,2.92-.87,4.49-.87,2.16,0,3.94.42,5.34,1.25,1.4.83,2.43,1.97,3.1,3.41.67,1.44,1.01,3.1,1.01,4.99v14.63h-3.01l-.14-4.33c-.31.66-.71,1.29-1.2,1.88-.49.6-1.05,1.11-1.69,1.55-.64.44-1.39.79-2.23,1.06-.85.27-1.82.4-2.92.4ZM283.1,31.71c1.19,0,2.24-.24,3.15-.71.91-.47,1.69-1.1,2.35-1.88.66-.78,1.16-1.68,1.51-2.68.34-1,.52-2.02.52-3.06v-.85h-6.16c-1.66,0-3,.2-4,.61-1,.41-1.72.96-2.16,1.65-.44.69-.66,1.49-.66,2.4s.21,1.7.64,2.38c.42.67,1.04,1.2,1.86,1.58.81.38,1.8.56,2.96.56Z"/>
        <path class="cls-2" d="M310.57,34.62c-2.16,0-4.12-.52-5.86-1.55-1.74-1.03-3.11-2.48-4.12-4.35-1-1.86-1.51-4.02-1.51-6.47s.5-4.73,1.51-6.56c1-1.83,2.38-3.28,4.12-4.33,1.74-1.05,3.69-1.58,5.86-1.58,2.76,0,5.06.71,6.89,2.14,1.83,1.43,3,3.32,3.5,5.67h-3.29c-.35-1.57-1.17-2.78-2.47-3.65-1.3-.86-2.85-1.29-4.63-1.29-1.44,0-2.78.35-4,1.06-1.22.71-2.21,1.76-2.96,3.18-.75,1.41-1.13,3.2-1.13,5.36,0,1.6.22,3,.66,4.19s1.04,2.19,1.81,2.99c.77.8,1.63,1.4,2.59,1.81.96.41,1.97.61,3.03.61,1.16,0,2.23-.2,3.22-.59.99-.39,1.83-.96,2.52-1.72s1.14-1.66,1.36-2.73h3.29c-.47,2.29-1.63,4.16-3.48,5.62-1.85,1.46-4.16,2.19-6.92,2.19Z"/>
        <path class="cls-2" d="M328.72,4.75c-.66,0-1.22-.23-1.69-.68-.47-.45-.71-1.03-.71-1.72s.23-1.29.68-1.72c.45-.42,1.03-.64,1.72-.64.63,0,1.18.21,1.65.64.47.42.71,1,.71,1.72s-.23,1.26-.68,1.72c-.45.46-1.01.68-1.67.68ZM327.08,34.06V10.35h3.29v23.71h-3.29Z"/>
        <path class="cls-2" d="M347.92,34.62c-2.16,0-4.12-.51-5.86-1.53-1.74-1.02-3.11-2.46-4.12-4.33-1-1.86-1.51-4.04-1.51-6.52s.51-4.78,1.53-6.63c1.02-1.85,2.41-3.28,4.16-4.3,1.76-1.02,3.72-1.53,5.88-1.53s4.25.51,5.97,1.53c1.72,1.02,3.09,2.46,4.09,4.3,1,1.85,1.51,4.06,1.51,6.63s-.51,4.65-1.53,6.52c-1.02,1.87-2.4,3.31-4.14,4.33-1.74,1.02-3.74,1.53-6,1.53ZM347.96,31.8c1.47,0,2.83-.36,4.07-1.08,1.24-.72,2.24-1.79,3.01-3.22.77-1.43,1.15-3.19,1.15-5.29s-.38-3.9-1.13-5.32c-.75-1.41-1.75-2.47-2.99-3.18-1.24-.71-2.6-1.06-4.07-1.06s-2.74.36-4,1.08c-1.25.72-2.27,1.78-3.03,3.18-.77,1.4-1.15,3.16-1.15,5.29s.38,3.87,1.13,5.29c.75,1.43,1.75,2.5,2.99,3.22s2.58,1.08,4.02,1.08Z"/>
        <path class="cls-2" d="M365.23,34.06V10.35h3.01l.19,4.23c.75-1.51,1.84-2.68,3.27-3.53,1.43-.85,3.02-1.27,4.77-1.27s3.4.36,4.75,1.08c1.35.72,2.4,1.81,3.15,3.27.75,1.46,1.13,3.32,1.13,5.57v14.35h-3.29v-13.97c0-2.51-.55-4.38-1.65-5.6-1.1-1.22-2.65-1.83-4.66-1.83-1.41,0-2.67.34-3.79,1.01-1.11.68-1.99,1.66-2.63,2.94-.64,1.29-.96,2.87-.96,4.75v12.7h-3.29Z"/>
        <path class="cls-2" d="M399.29,34.62c-1.91,0-3.5-.35-4.77-1.03s-2.21-1.58-2.82-2.68c-.61-1.1-.92-2.31-.92-3.62,0-1.63.42-3.01,1.25-4.14.83-1.13,2.01-1.98,3.53-2.54,1.52-.56,3.27-.85,5.25-.85h6.4c0-1.54-.24-2.84-.71-3.9-.47-1.07-1.15-1.87-2.05-2.42-.89-.55-2.03-.82-3.41-.82-1.63,0-3.03.41-4.19,1.22-1.16.82-1.88,2.01-2.16,3.58h-3.43c.19-1.66.76-3.06,1.72-4.19.96-1.13,2.15-1.98,3.58-2.56,1.43-.58,2.92-.87,4.49-.87,2.16,0,3.94.42,5.34,1.25,1.4.83,2.43,1.97,3.1,3.41.67,1.44,1.01,3.1,1.01,4.99v14.63h-3.01l-.14-4.33c-.31.66-.71,1.29-1.2,1.88-.49.6-1.05,1.11-1.69,1.55-.64.44-1.39.79-2.23,1.06-.85.27-1.82.4-2.92.4ZM399.66,31.71c1.19,0,2.24-.24,3.15-.71.91-.47,1.69-1.1,2.35-1.88.66-.78,1.16-1.68,1.51-2.68.34-1,.52-2.02.52-3.06v-.85h-6.16c-1.66,0-3,.2-4,.61-1,.41-1.72.96-2.16,1.65-.44.69-.66,1.49-.66,2.4s.21,1.7.64,2.38c.42.67,1.04,1.2,1.86,1.58.81.38,1.8.56,2.96.56Z"/>
        <path class="cls-2" d="M416.69,34.06V.19h3.29v33.87h-3.29Z"/>
      </g>
      <g>
        <path class="cls-2" d="M554.66,11.95c0,.36-.44.53-.68.26-.79-.9-1.79-1.82-2.66-2.23-1.14-.54-2.37-.82-3.69-.82-1.88,0-3.61.5-5.2,1.51-1.58,1.01-2.85,2.45-3.79,4.33-.94,1.88-1.41,4.16-1.41,6.83,0,2.41.42,4.58,1.26,6.51.84,1.93,2.04,3.45,3.59,4.55,1.55,1.11,3.4,1.66,5.54,1.66,1.22,0,2.4-.24,3.54-.72.88-.37,1.95-1.36,2.8-2.31.24-.27.69-.11.69.26v2.27h6.09V1.68h-6.09v10.27ZM554.48,25.55c-.48,1.06-1.16,1.88-2.03,2.48-.87.59-1.92.89-3.14.89s-2.23-.29-3.12-.87c-.89-.58-1.58-1.39-2.05-2.45-.48-1.06-.72-2.31-.72-3.76s.24-2.7.72-3.74c.48-1.04,1.16-1.85,2.05-2.43.89-.58,1.93-.87,3.12-.87s2.27.29,3.14.87c.87.58,1.55,1.39,2.03,2.45.48,1.06.72,2.29.72,3.71s-.24,2.66-.72,3.71Z"/>
        <path class="cls-2" d="M608.91,20.6c-.92-.56-1.91-1.01-2.97-1.34-1.06-.33-2.08-.61-3.07-.84-1.06-.26-1.91-.5-2.55-.72-.64-.21-1.11-.47-1.39-.77-.28-.3-.42-.66-.42-1.09,0-.63.31-1.12.92-1.48.61-.36,1.39-.55,2.35-.55,1.09,0,2.12.24,3.09.72.77.38,1.42.9,1.95,1.58.24.31.7.34,1.01.1l3.2-2.54c-.92-1.45-2.18-2.57-3.76-3.34-1.58-.77-3.35-1.16-5.3-1.16-3.24,0-5.74.91-7.49,2.74-1.17,1.22-1.73,2.86-1.72,4.55,0,1.26.26,2.32.77,3.16.51.86,1.18,1.56,2.01,2.1.82.55,1.73.98,2.72,1.31.99.33,1.95.63,2.87.89.89.23,1.7.47,2.43.72.73.25,1.3.56,1.73.94.43.38.64.87.64,1.46,0,.73-.34,1.33-1.02,1.81-.68.48-1.63.72-2.85.72-1.55,0-2.85-.39-3.89-1.16-.8-.59-1.45-1.23-1.97-1.91-.25-.33-.74-.37-1.06-.1l-3.58,3.12c.56.73,1.31,1.48,2.25,2.28.94.79,2.09,1.45,3.44,1.98,1.35.53,2.94.79,4.75.79,2.01,0,3.76-.35,5.25-1.04,1.48-.69,2.64-1.66,3.47-2.9.82-1.24,1.24-2.67,1.24-4.28,0-1.42-.28-2.59-.84-3.51-.56-.92-1.3-1.67-2.23-2.23Z"/>
        <path class="cls-2" d="M585.79,12.8c-.92-1.14-2.1-2.03-3.52-2.67-1.42-.64-3.09-.97-5-.97-2.05,0-3.8.37-5.27,1.11-1.47.74-2.67,1.73-3.59,2.95-.92,1.22-1.62,2.59-2.08,4.11-.46,1.52-.69,3.07-.69,4.65s.23,3.23.69,4.73c.46,1.5,1.18,2.84,2.15,4.01.97,1.17,2.22,2.1,3.74,2.8,1.52.69,3.33,1.04,5.45,1.04,1.42,0,2.68-.12,3.79-.37,1.11-.25,2.17-.65,3.19-1.21,1.02-.56,2.11-1.29,3.27-2.18l-3.07-4.16c-.92.83-1.98,1.46-3.17,1.91-1.19.45-2.41.67-3.66.67-1.72,0-3.14-.45-4.28-1.34-.95-.75-1.56-1.79-1.83-3.14-.08-.42.22-.83.65-.83h15.91c.07-.46.11-.9.12-1.31.02-.41.02-.73.02-.97,0-1.72-.24-3.33-.72-4.85-.48-1.52-1.18-2.85-2.1-3.99ZM582.26,19.36h-10.52c.1-.82.35-1.62.77-2.4.41-.77,1.03-1.41,1.86-1.91.82-.5,1.85-.74,3.07-.74.83,0,1.56.12,2.2.37.64.25,1.2.6,1.66,1.06.46.46.83,1,1.09,1.61.2.47.33.97.37,1.49.02.28-.21.51-.49.51Z"/>
        <path class="cls-2" d="M528.64,10.35c-1.34-.79-3-1.19-4.98-1.19-1.72,0-3.28.41-4.7,1.24-.95.55-1.74,1.37-2.38,2.4v-3.14h-6.14v24.4h5.47c.37,0,.67-.3.67-.67v-14.09c0-1.52.44-2.7,1.32-3.54.88-.84,2.15-1.26,3.8-1.26.02,0,.04,0,.07,0,.02,0,.04,0,.06,0,.35,0,.67.03.97.07,0,0,.01,0,.02,0,.27.04.53.1.76.18.17.05.32.11.48.18,0,0,0,0,.01,0,.45.19.85.42,1.17.74.79.78,1.19,1.94,1.19,3.49v14.89h5.47c.37,0,.67-.3.67-.67v-14.58c0-1.95-.32-3.65-.97-5.1-.64-1.45-1.63-2.57-2.97-3.37Z"/>
        <path class="cls-2" d="M471.2,10.33v14.09c0,1.52-.44,2.7-1.32,3.54-.88.84-2.15,1.26-3.8,1.26-.02,0-.04,0-.07,0-.02,0-.04,0-.06,0-.35,0-.67-.03-.97-.07,0,0-.01,0-.02,0-.27-.04-.53-.1-.76-.18-.17-.05-.32-.11-.48-.18,0,0,0,0-.01,0-.45-.19-.85-.42-1.17-.74-.79-.78-1.19-1.94-1.19-3.49v-14.89h-5.47c-.37,0-.67.3-.67.67v14.58c0,1.95.32,3.65.97,5.1.64,1.45,1.63,2.57,2.97,3.37,1.34.79,3,1.19,4.98,1.19,1.72,0,3.28-.41,4.7-1.24.67-.39,1.26-.91,1.77-1.54.2-.25.61-.12.61.21v2.08s6.14,0,6.14,0V9.66h-5.47c-.37,0-.67.3-.67.67Z"/>
        <path class="cls-2" d="M498.57,9.82c-.55-.18-1.13-.31-1.74-.42-.2-.04-.42-.05-.63-.08-.69-.09-1.41-.15-2.18-.15-2.08,0-4.02.31-5.82.92-1.62.55-3.2,1.41-4.75,2.59-.29.22-.35.64-.13.94l2.73,3.68c1.02-.92,2.2-1.64,3.54-2.15,1.34-.51,2.65-.77,3.94-.77,1.04,0,1.92.17,2.67.5.22.1.44.2.63.33.13.08.26.15.38.24.91.71,1.36,1.79,1.36,3.24v.59h-7.03c-1.16,0-2.24.1-3.24.3-1.01.2-1.92.54-2.75,1.04-.96.53-1.72,1.3-2.3,2.3-.58,1.01-.87,2.22-.87,3.64,0,1.58.4,2.99,1.21,4.21.81,1.22,1.91,2.16,3.32,2.82,1.4.66,2.99.99,4.78.99,1.34,0,2.61-.28,3.8-.85l.02-.04v-3.65c0-.23-.18-.41-.41-.41h-2.52c-1.15,0-2.09-.25-2.8-.75-.85-.6-1.32-1.66-1.19-2.69.03-.28.11-.54.22-.79.17-.35.41-.63.74-.86.36-.3.8-.49,1.31-.57.51-.08,1.03-.12,1.56-.12h5.26c.49,0,.88.39.88.88v9.37h6.14v-15.39c0-2.97-.94-5.3-2.82-6.98-.92-.83-2.03-1.45-3.32-1.87Z"/>
        <path class="cls-1" d="M429.65,36.62v-6.94c0-.52.26-1.02.68-1.33l9.27-6.73-9.27-6.73c-.43-.31-.68-.81-.68-1.33v-6.94l13.76,9.99c3.43,2.49,3.43,7.54,0,10.03l-13.76,9.99Z"/>
      </g>
    </g>
  </g>
</svg>