<?xml version="1.0" encoding="UTF-8"?>
<svg id="Capa_2" data-name="Capa 2" xmlns="http://www.w3.org/2000/svg" viewBox="0 0 170.42 186.83">
  <defs>
    <style>
      .cls-1 {
        fill: #243746;
      }
    </style>
  </defs>
  <g id="Capa_1-2" data-name="Capa 1">
    <g id="f_de_derecho_institucional_lineal_vertical">
      <g>
        <path class="cls-1" d="M84.65,0c-19.28,0-34.91,21.15-34.91,47.24s15.63,47.24,34.91,47.24,34.91-21.15,34.91-47.24S103.92,0,84.65,0ZM84.65,93.33c-18.65,0-33.82-20.68-33.82-46.09S66,1.15,84.65,1.15s33.82,20.68,33.82,46.09-15.17,46.09-33.82,46.09Z"/>
        <path class="cls-1" d="M88.96,62.46v-8.02h.95v7.29h.39c.25,0,.47-.05.66-.15.61-.31,1.33-.48,2.09-.48s1.5.17,2.11.49c.17.09.35.14.52.14h.12c.17,0,.35-.05.52-.14.61-.32,1.34-.49,2.11-.49s1.48.17,2.09.48c.19.1.41.15.66.15h.39v-8.17l-.2-.13c-.8-.53-1.84-.82-2.94-.82-.49,0-.98.06-1.44.17h-.04s0,.05,0,.05c.05.27.12.54.2.8v.04s.05-.01.05-.01c.39-.1.8-.15,1.22-.15.82,0,1.62.19,2.24.55v6.6c-1.35-.58-3.13-.58-4.48,0v-7.09l-.2-.13c-.8-.53-1.84-.82-2.94-.82s-2.14.29-2.94.82l-.17.11h-1.87v9.84s13.5,0,13.5,0v-.92h-12.6ZM90.81,54.06c.62-.35,1.42-.55,2.24-.55s1.62.19,2.24.55v6.6c-.67-.29-1.46-.44-2.24-.44s-1.56.15-2.24.44v-6.6Z"/>
        <g>
          <path class="cls-1" d="M94.69,39.67s.04,0,.07,0c2.04.2,3.87-1.26,4.11-3.3.12-1-.16-1.98-.78-2.77-.62-.79-1.52-1.29-2.51-1.41-2.05-.23-3.94,1.23-4.18,3.29-.12,1,.16,1.98.78,2.77s1.52,1.29,2.51,1.41ZM92.31,35.6c.18-1.54,1.57-2.64,3.11-2.49.02,0,.03,0,.05,0,.75.09,1.43.47,1.9,1.06.47.6.68,1.34.59,2.09-.18,1.54-1.57,2.65-3.11,2.49-.02,0-.03,0-.05,0-.75-.09-1.43-.47-1.9-1.06-.47-.6-.68-1.34-.59-2.09Z"/>
          <path class="cls-1" d="M95.46,31.43c.36-.55.73-1.2.99-1.84.11.48.17,1.15.05,2.04.31.1.6.22.87.38.27-1.64.01-2.72-.27-3.36-.35-.09-.72-.17-1.09-.21-.06,0-.12-.01-.17-.02-.18,1.01-.97,2.26-1.54,3.07.37-.07.76-.09,1.16-.06Z"/>
          <path class="cls-1" d="M99.65,36.14c.57.33,1.23.67,1.89.9-.48.14-1.15.23-2.06.14-.09.31-.21.61-.36.89,0,0,.02,0,.02,0,1.65.2,2.72-.11,3.34-.42.06-.27.11-.55.15-.83.02-.15.03-.3.04-.45-1-.12-2.28-.84-3.12-1.37.08.37.11.75.09,1.14Z"/>
          <path class="cls-1" d="M93.79,42.28c-.1-.48-.14-1.15,0-2.02-.3-.09-.6-.22-.87-.37-.3,1.62-.07,2.7.19,3.33.37.1.74.18,1.13.22.04,0,.08,0,.12.01.21-1.03,1.07-2.29,1.67-3.08-.39.08-.79.11-1.2.08-.37.54-.77,1.19-1.05,1.83Z"/>
          <path class="cls-1" d="M90.66,36.69c-.06-.37-.08-.75-.04-1.13-.56-.35-1.21-.7-1.87-.95.49-.12,1.17-.2,2.08-.09.1-.31.24-.6.4-.88-1.66-.25-2.75.02-3.39.31-.1.35-.17.72-.21,1.1,0,.06-.01.12-.02.19.99.16,2.23.9,3.06,1.45Z"/>
          <path class="cls-1" d="M98.62,33.05c.35-.08.72-.19,1.06-.34-.16.24-.35.59-.64.93.16.27.29.56.4.87,1.06-1.11,1.47-2.37,1.56-2.81-.17-.23-.35-.45-.54-.66l-.23.24c-.51.53-1.38.87-2.41,1.01.3.22.57.48.81.76Z"/>
          <path class="cls-1" d="M98.81,38.58c-.21.3-.46.56-.74.8.1.37.23.76.4,1.11-.26-.16-.66-.35-1.03-.66-.28.16-.57.3-.88.4,1.09,1,2.32,1.39,2.86,1.51.25-.18.48-.38.7-.59l-.2-.17c-.56-.49-.94-1.35-1.12-2.39Z"/>
          <path class="cls-1" d="M91.65,38.83c-.36.09-.74.21-1.07.37.16-.25.35-.62.64-.98-.16-.28-.3-.57-.4-.88-1.01,1.09-1.41,2.32-1.52,2.83.18.24.37.47.57.69l.19-.21c.49-.54,1.34-.9,2.37-1.08-.29-.22-.56-.47-.79-.75Z"/>
          <path class="cls-1" d="M91.54,33.17c.22-.28.47-.54.75-.76-.09-.35-.2-.73-.37-1.06.25.16.62.35.98.64.28-.16.58-.29.89-.38-1.12-1.04-2.38-1.45-2.87-1.54-.24.17-.46.36-.68.56l.24.22c.53.49.89,1.32,1.06,2.33Z"/>
        </g>
        <path class="cls-1" d="M77.3,55.94l-.6.61,2.2,3.05c.23.32.25.75.06,1.1-.19.35-.42.67-.67.96-.16.19-.36.16-.43.15-.17-.04-.3-.16-.35-.33l-1.43-4.5-.78.34,1.46,4.77c.13.43-.06.9-.44,1.08-.28.13-.58.24-.88.32-.25.07-.48.03-.65-.11-.17-.14-.27-.37-.27-.65l-.03-5.22h-.83s-.03,5.23-.03,5.23c0,.24-.1.47-.29.62-.18.15-.41.2-.63.14-.3-.08-.6-.18-.88-.31-.38-.17-.57-.65-.44-1.08l1.46-4.76-.75-.33-1.47,4.5c-.07.24-.27.31-.35.33-.1.02-.29.03-.43-.15-.25-.3-.48-.62-.67-.97-.19-.35-.17-.78.06-1.1l2.21-3.04-.58-.59-2.14,2.81c-.04.06-.1.06-.15.05-.05-.01-.08-.04-.09-.1,0-.02-.03-.2.04-.92.02-.24.13-.46.29-.63l3.17-3.19s-.22-.3-.27-.38c-.06-.11-.08-.24-.04-.35.03-.09.1-.17.2-.2.04-.02.1-.02.13-.02.45,0,.85,0,1.21,0,.07,0,.11-.02.15-.08.07-.09.13-.17.2-.23.15-.14.39-.21.63-.18.24.03.44.16.55.34.07.11.14.15.26.15,0,0,.94,0,1.13,0,.13,0,.24.05.3.14.07.09.08.22.03.36-.02.07-.07.14-.1.19-.03.04-.15.19-.15.19l3.1,3.27h0l1.22,1.29c0-.18-.02-.42-.05-.76-.04-.45-.24-.88-.55-1.2,0,0-2.3-2.35-2.45-2.5-.12-.12-.15-.22-.11-.38.08-.37,0-.76-.22-1.06-.21-.28-.51-.46-.85-.49-.23-.02-.85-.01-.93-.01h0c-.07,0-.11-.03-.16-.07-.09-.07-.2-.15-.31-.23-.5-.31-1.39-.29-1.93.22-.05.05-.11.07-.18.07,0,0-.64,0-.81,0h0c-.19,0-.37.05-.55.14-.52.28-.79.89-.64,1.5.02.08,0,.13-.05.18-.09.09-2.54,2.62-2.54,2.62-.31.32-.51.75-.55,1.21-.07.75-.05,1.03-.03,1.16.06.34.28.63.59.78h.03s0,.04,0,.04c-.13.5-.06,1.02.19,1.47.22.4.48.78.77,1.12.32.38.8.54,1.27.44h.03s0,.03,0,.03c.12.57.48,1.04.97,1.26.33.15.68.27,1.02.36.49.13.99.01,1.39-.31.03-.03.06-.06.09-.09l.07-.08.06.07s.08.09.13.13c.38.32.9.42,1.42.28.35-.09.69-.21,1.02-.36.5-.23,1.02-1.29,1.02-1.29.47.1.95-.07,1.26-.44.29-.34.55-.72.77-1.12,0,0,0,0,0-.01.33-.61.24-1.37-.15-1.94l-2.29-3.27Z"/>
        <path class="cls-1" d="M69.34,80.12c-.42,0-.77.34-.77.77s.34.77.77.77.77-.34.77-.77-.34-.77-.77-.77Z"/>
        <path class="cls-1" d="M100.45,80.12c-.42,0-.77.34-.77.77s.34.77.77.77.77-.34.77-.77-.34-.77-.77-.77Z"/>
        <path class="cls-1" d="M84.65,11.74c-12.86,0-23.29,15.9-23.29,35.5s10.43,35.5,23.29,35.5,23.29-15.89,23.29-35.5-10.43-35.5-23.29-35.5ZM106.79,46.65h-21.57V12.9c11.82.47,21.37,15.37,21.57,33.75ZM84.08,12.9v33.75h-21.57c.2-18.38,9.75-33.29,21.57-33.75ZM62.51,47.79h21.57v33.8c-11.83-.47-21.39-15.39-21.57-33.8ZM85.22,81.58v-33.8h21.57c-.19,18.4-9.74,33.33-21.57,33.8Z"/>
        <path class="cls-1" d="M61.47,74.27c-.19.04-.36.07-.5.08-.16.02-.24.01-.28,0h-.06l-.15.1.53.76.09.1.14-.11v-.03s.03-.02.05-.03c.08-.06.17-.1.28-.13.12-.03.23-.06.32-.08l3.8-.8-2.02,3.38c-.08.13-.15.23-.21.29-.06.07-.12.12-.18.16-.01,0-.03.02-.07.04l-.16.11.69.97.09.1.14-.1v-.04s.03-.05.05-.11c.02-.06.06-.13.1-.22.04-.09.09-.18.14-.28.05-.1.11-.2.17-.3l2.7-4.53-.28-.39-5.39,1.05Z"/>
        <path class="cls-1" d="M61.09,72.17l2.27-1.1c.2-.1.37-.18.52-.24.15-.07.28-.12.39-.16.11-.04.2-.07.27-.09.07-.02.14-.04.19-.04l.16-.07-.36-.74-.07-.11-.12.06-.03.02s-.09.07-.15.12c-.06.04-.15.1-.24.16-.1.06-.22.13-.37.2-.14.08-.31.16-.51.26l-2.09,1.01,1.98-5.19-.14-.29-3.82,1.85c-.2.1-.37.18-.52.24-.15.07-.28.12-.39.16-.11.04-.2.07-.28.1-.07.02-.13.04-.19.05l-.16.07.36.74.07.11.12-.06.03-.02s.09-.07.15-.12c.06-.05.15-.1.24-.16.1-.06.22-.13.37-.2.14-.08.31-.16.51-.26l2.16-1.05-1.98,5.19.13.27.07.11.12-.06.03-.02s.09-.08.15-.12c.06-.05.14-.1.24-.16.1-.06.22-.13.37-.2.14-.08.31-.16.51-.26Z"/>
        <path class="cls-1" d="M58.19,65.65l2.38-.85c.21-.07.39-.13.54-.18.15-.05.29-.09.4-.12.11-.03.21-.05.28-.07.07-.01.14-.02.19-.03l.17-.06-.35-.99-.06-.12-.12.04-.03.02s-.1.06-.16.1c-.07.04-.15.08-.26.13-.11.05-.24.1-.39.16-.15.06-.33.13-.53.2l-2.38.85c-.21.07-.39.13-.54.18-.16.05-.29.09-.41.12-.11.03-.2.05-.28.06-.07.01-.14.02-.19.02l-.17.06.35.99.06.12.12-.04.03-.02s.1-.06.16-.1c.07-.04.16-.08.26-.13.11-.05.24-.1.39-.16.15-.06.33-.13.54-.2Z"/>
        <path class="cls-1" d="M56.69,62.99l4.15-3.25-.12-.46-5.41-.96c-.2-.03-.36-.07-.5-.1-.16-.04-.23-.07-.27-.09l-.06-.02-.18.04.23.9.05.12.17-.05.02-.02s.02,0,.05-.02c.1-.02.2-.03.3-.02.12.01.23.03.33.04l3.84.62-3.1,2.43c-.12.09-.22.16-.3.2-.08.04-.16.07-.22.09-.02,0-.04,0-.08.01h-.02s-.17.04-.17.04l.29,1.16.05.12.17-.04.03-.04s.04-.04.08-.08c.04-.05.1-.1.17-.17.07-.06.15-.14.23-.21.09-.07.17-.15.27-.22Z"/>
        <path class="cls-1" d="M54.73,56.48c.12-.03.25-.05.41-.08.16-.03.35-.06.56-.09l2.5-.36c.22-.03.4-.06.57-.07.16-.02.3-.03.42-.04.11,0,.21,0,.29,0,.08,0,.14,0,.19.01l.18-.02-.25-1.78-.07-.56c-.01-.08-.02-.16-.03-.24l-.02-.21c0-.06,0-.1-.01-.13v-.12s-.97-.03-.97-.03l.08.19c.07.17.14.36.21.57.06.18.12.4.18.64.05.21.1.44.14.69l-2.15.31c-.02-.13-.03-.26-.04-.4-.01-.19-.02-.36-.03-.52,0-.19-.01-.37-.01-.55v-.12s-.88-.06-.88-.06l.06.18c.04.13.08.28.12.44.03.15.07.32.12.53.04.17.07.37.1.58l-1.84.26-.03-.16c-.02-.08-.03-.16-.05-.24-.02-.08-.03-.16-.04-.21-.03-.18-.04-.34-.05-.47,0-.14,0-.26,0-.35,0-.11,0-.21.02-.29v-.12s-.86-.19-.86-.19l.07.22s.04.14.08.36c.03.18.07.41.11.67.04.26.09.55.13.87.05.32.09.63.14.95l.03.13.13-.02h.04s.11-.05.18-.08c.07-.02.17-.05.28-.08Z"/>
        <path class="cls-1" d="M53.62,51.43s.11-.03.19-.05c.08-.02.17-.03.29-.05.12-.01.26-.03.42-.04.16-.01.35-.03.57-.04l2.52-.12c.22-.01.41-.02.57-.02.16,0,.3,0,.42,0,.11,0,.21.01.29.02.08,0,.14.02.19.03h.03s.15,0,.15,0l-.05-1.06-.02-.13h-.13s-.04.01-.04.01c-.05.02-.11.03-.19.05-.08.02-.17.03-.28.05-.12.01-.26.03-.42.04-.16.01-.35.03-.57.04l-.72.03s0-.06,0-.08c0-.08,0-.15,0-.23,0-.07,0-.13-.01-.19,0-.04,0-.07-.01-.11l1.81-1.41c.07-.06.15-.11.22-.15.09-.05.13-.07.15-.07l.11-.02-.06-1.23-.02-.13h-.22s-.03.1-.03.1c-.01.04-.03.08-.06.13-.03.04-.06.09-.1.14-.05.05-.1.11-.16.16-.06.06-.14.12-.23.19l-1.73,1.35c-.06-.1-.13-.2-.21-.29-.11-.13-.24-.23-.39-.32-.14-.09-.3-.15-.48-.2-.17-.04-.36-.06-.56-.05-.25.01-.49.07-.68.17-.2.1-.37.24-.5.42-.13.17-.23.38-.29.61-.06.23-.08.47-.07.73.01.27.04.5.07.67.03.16.05.29.05.39,0,.06,0,.12,0,.18,0,.06,0,.11,0,.16v.16s0,.14,0,.14h.14s.04-.01.04-.01ZM53.84,49.8c0-.16.01-.29.06-.41.05-.12.11-.21.21-.29.09-.08.21-.14.35-.19.14-.05.31-.08.49-.08.04,0,.08,0,.11,0,.17,0,.33.02.47.06.16.05.3.12.41.21.11.09.19.21.25.35.06.14.09.31.1.48,0,.06,0,.13,0,.2,0,.03,0,.06,0,.1l-2.36.11s-.02-.08-.03-.13c-.02-.1-.04-.23-.04-.4Z"/>
        <path class="cls-1" d="M53.59,45.04c.12.15.27.27.45.36.18.09.38.15.6.16.21.01.4-.02.58-.07.17-.06.34-.13.49-.23.15-.09.3-.2.43-.33.13-.12.26-.24.38-.37.12-.12.24-.24.37-.36.12-.11.24-.21.36-.3.12-.08.25-.15.37-.2.12-.05.26-.07.4-.06.1,0,.19.03.27.06.08.04.15.09.2.15.06.07.1.14.13.23.03.09.04.19.04.31,0,.13-.03.24-.08.35-.05.11-.11.2-.19.28-.08.08-.17.15-.27.2-.1.05-.21.09-.32.11l-.1.02v.32s1.03.16,1.03.16l.05-.06c.04-.06.09-.13.15-.23.05-.09.1-.2.15-.31.05-.12.09-.24.12-.38.03-.14.06-.29.06-.44.01-.28-.02-.53-.1-.74-.08-.21-.19-.39-.34-.53-.14-.14-.3-.25-.49-.32-.18-.07-.36-.11-.54-.12-.25-.01-.48.04-.7.14-.21.1-.41.23-.6.38-.19.15-.37.32-.55.5-.17.17-.34.33-.51.48-.16.14-.33.26-.5.36-.15.08-.31.12-.47.12-.1,0-.19-.02-.27-.06-.08-.03-.14-.07-.2-.13-.05-.05-.09-.12-.12-.21-.03-.08-.04-.18-.04-.29,0-.12.03-.23.07-.32.04-.09.09-.16.15-.22.06-.06.12-.11.19-.15.07-.04.13-.06.18-.08l.09-.03v-.3s-.92-.08-.92-.08l-.11.24c-.03.07-.07.14-.1.23-.03.09-.06.19-.09.3-.03.11-.04.24-.05.38,0,.19.02.38.08.56.06.18.15.35.27.5Z"/>
        <path class="cls-1" d="M53.76,40.57h.02c.05-.01.11-.02.19-.02.08,0,.18,0,.29,0,.12,0,.26.01.42.02.16.01.35.03.57.06l2.51.29c.22.02.41.05.57.07.16.02.3.05.41.07.11.02.21.04.28.07.07.02.13.04.18.06l.18.02.12-1.05v-.13s-.15-.01-.15-.01h-.02c-.05.01-.12.02-.19.02-.08,0-.17,0-.29,0-.12,0-.26-.01-.42-.02-.16-.01-.35-.03-.57-.05l-2.51-.29c-.22-.02-.4-.05-.57-.07-.16-.02-.3-.05-.42-.07-.11-.02-.21-.04-.28-.07-.07-.02-.13-.04-.18-.06l-.18-.02-.12,1.05v.13s.15.01.15.01Z"/>
        <path class="cls-1" d="M54.77,37.74c-.01-.16-.02-.35-.02-.55,0-.18.02-.39.04-.63.02-.21.05-.43.09-.68l3.5.69c.21.04.4.08.56.12.16.04.29.07.4.1.11.03.2.06.28.09.07.03.13.05.18.07l.18.04.21-1.04v-.13s-.13-.03-.13-.03h-.02c-.05,0-.12,0-.19,0-.08,0-.17,0-.29-.02-.12-.01-.26-.03-.42-.06-.16-.03-.35-.06-.56-.1l-3.5-.69c.05-.24.11-.47.17-.66.07-.23.14-.43.21-.6.08-.19.16-.37.23-.51l.09-.18-.96-.02v.12s-.02.07-.03.13l-.03.2c-.01.07-.03.15-.04.23l-.08.43c0,.06-.02.1-.02.12l-.43,2.17s-.01.06-.03.12l-.09.43c-.02.08-.03.16-.06.26l-.04.18c-.01.06-.03.1-.03.13l-.03.11.9.35-.02-.21Z"/>
        <path class="cls-1" d="M60.17,33.61c.11.12.16.18.18.22l.04.05.17.05.28-.88.02-.13-.16-.05h-.04s-.02,0-.05,0c-.09-.03-.18-.08-.27-.15-.09-.08-.18-.15-.26-.21l-.78-.68c.04-.13.08-.26.12-.41l.41-1.31c.06-.19.11-.34.15-.47l1.06-.12c.15-.01.27-.02.36-.01.09,0,.17.02.24.04.02,0,.03.01.07.03l.18.07.36-1.14.02-.13-.17-.05-.04.02s-.05.02-.11.03c-.06.02-.14.03-.23.05-.09.02-.19.04-.31.06-.11.02-.23.03-.35.05l-5.23.58-.14.46,4.09,3.66c.15.13.28.25.37.35ZM57.15,29.97l2.19-.24c-.02.06-.03.11-.05.18l-.26.86c-.05.15-.09.3-.14.44l-.07.21-1.66-1.44Z"/>
        <path class="cls-1" d="M58.14,25.42c.13.15.3.28.5.37.19.09.38.14.57.15.18.01.36,0,.54-.03.17-.03.35-.08.52-.14.17-.06.33-.13.49-.2.16-.07.32-.14.47-.2.15-.06.3-.11.45-.15.14-.03.28-.04.42-.05.13,0,.27.03.4.09.09.04.17.09.23.16.06.06.1.14.13.22.03.08.04.17.03.26,0,.1-.03.2-.08.3-.05.12-.12.21-.2.29-.09.08-.18.14-.28.19-.1.05-.21.07-.32.09-.11.01-.23,0-.33-.01l-.1-.02-.13.29.91.53.07-.04c.06-.04.14-.09.22-.16.08-.07.17-.14.26-.23.09-.09.17-.19.26-.31.08-.12.16-.25.22-.39.12-.25.17-.5.18-.72,0-.23-.04-.43-.12-.62-.08-.18-.19-.34-.33-.48-.14-.13-.3-.24-.46-.31-.22-.1-.46-.15-.7-.13-.23.02-.47.06-.7.13-.23.07-.46.16-.69.26-.22.1-.44.18-.65.26-.21.07-.41.12-.59.15-.17.02-.33,0-.48-.07-.09-.04-.17-.09-.23-.15-.06-.06-.1-.12-.13-.19-.03-.07-.04-.15-.04-.24,0-.09.03-.18.07-.28.05-.11.11-.2.18-.27.07-.07.15-.12.22-.15.08-.03.16-.06.23-.07.08,0,.14-.01.2,0h.09s.12-.27.12-.27l-.76-.38-.09-.03-.18.17c-.06.05-.12.11-.18.18-.07.07-.13.15-.2.25-.07.1-.13.21-.19.33-.08.17-.12.36-.14.55-.01.19,0,.38.07.56.06.18.15.35.28.5Z"/>
        <path class="cls-1" d="M62.17,17.86c.1.18.24.33.42.46.17.12.35.21.53.26.17.05.36.08.54.08.18,0,.36,0,.54-.04.17-.03.35-.06.52-.1.17-.04.34-.07.5-.1.16-.03.32-.05.47-.05.15,0,.29,0,.42.04.13.03.25.09.37.17.08.06.14.13.19.2.05.07.08.15.09.24.01.09,0,.17-.02.27-.02.09-.07.19-.14.28-.07.1-.16.18-.26.24-.1.06-.2.1-.31.13-.11.02-.22.03-.33.02-.11-.01-.22-.04-.33-.08l-.09-.04-.18.26.79.7.07-.03c.07-.03.15-.06.25-.11.09-.05.19-.11.3-.18.1-.07.21-.16.31-.25.11-.1.21-.21.3-.34.16-.23.27-.45.32-.68s.05-.43,0-.63c-.04-.19-.12-.37-.23-.53-.11-.16-.24-.29-.39-.4-.2-.14-.42-.23-.66-.26-.23-.03-.47-.03-.71,0-.24.02-.48.06-.73.12-.24.05-.47.09-.69.12-.22.03-.42.04-.61.03-.18-.01-.33-.06-.46-.16-.08-.06-.15-.12-.2-.19-.05-.07-.08-.14-.09-.22-.01-.07-.01-.16.01-.24s.07-.17.13-.26c.07-.1.15-.18.23-.23.08-.05.17-.09.25-.1.08-.02.16-.02.24-.02.08,0,.14.02.19.03l.09.03.18-.24-.74-.58-.22.13c-.06.04-.14.08-.21.14-.08.06-.16.12-.24.2-.09.08-.17.18-.25.29-.11.15-.19.33-.24.51-.05.18-.07.37-.05.56.02.19.08.38.17.55Z"/>
        <path class="cls-1" d="M64.96,14.25c.08-.15.18-.3.29-.47.1-.15.23-.32.38-.51.13-.16.28-.34.45-.51l2.54,2.51c.16.15.29.29.4.41.11.12.21.22.28.31.07.09.14.16.18.23.04.06.08.11.1.16l.13.13.74-.75.08-.1-.09-.09-.03-.02s-.1-.06-.16-.1c-.06-.04-.14-.1-.23-.18-.09-.08-.19-.17-.31-.28-.12-.11-.26-.24-.41-.39l-2.54-2.51c.18-.17.35-.33.51-.46.19-.15.36-.28.5-.38.17-.12.33-.22.47-.3l.18-.1-.79-.54-.08.09s-.05.06-.09.1l-.14.15c-.05.06-.11.11-.16.17l-.3.32s-.07.07-.08.09l-1.55,1.57-.4.39c-.06.06-.12.11-.17.17l-.15.14s-.08.07-.1.09l-.09.08.56.79.1-.18Z"/>
        <path class="cls-1" d="M68.91,9.49s.05.02.1.04c.06.03.13.06.21.11.08.04.18.1.27.15.1.06.2.12.3.18l4.41,2.88.4-.26-.83-5.43c-.03-.2-.05-.37-.06-.51-.01-.16,0-.24,0-.28v-.07s-.1-.15-.1-.15l-.77.5-.1.08.1.15.03.02s.02.02.03.04c.05.08.09.18.11.28.02.12.05.23.07.33l.65,3.83-3.3-2.15c-.12-.08-.22-.16-.28-.22-.06-.06-.12-.12-.15-.18,0-.01-.02-.03-.04-.07l-.1-.17-1,.65-.1.08.1.15h.05Z"/>
        <path class="cls-1" d="M75.72,5.43s.06.1.09.17c.04.07.07.16.12.27.04.11.09.24.14.4.05.16.11.34.17.55l.71,2.42c.06.21.11.39.15.55.04.16.07.29.1.41.02.11.04.21.05.29,0,.08.01.14.01.19l.05.17.12-.04c.07-.02.16-.05.31-.08l.82-.2c.14-.04.27-.07.37-.1.28-.08.55-.19.81-.31.25-.13.49-.27.7-.44.21-.17.39-.37.54-.58.15-.22.27-.46.35-.72.08-.26.11-.55.11-.86,0-.31-.06-.64-.17-1-.15-.5-.35-.9-.6-1.2-.25-.3-.54-.52-.87-.66-.32-.14-.67-.21-1.04-.2-.36,0-.73.06-1.1.17-.14.04-.28.08-.43.13l-.44.14c-.14.05-.26.09-.37.13-.11.04-.18.06-.23.07l-.11.03s-.09.02-.13.03l-.29.09.04.13v.03ZM76.89,5.52s.04-.02.07-.03c.07-.03.14-.05.23-.08l.25-.09c.08-.03.16-.05.22-.07.32-.09.62-.13.9-.1.27.03.52.11.74.25.22.14.42.34.59.59.17.26.31.57.42.94.1.33.15.63.16.89,0,.26-.01.49-.07.68-.06.2-.14.37-.24.51-.11.15-.24.27-.38.38-.14.11-.3.2-.46.27-.17.07-.34.14-.51.19-.04.01-.09.03-.15.04l-.19.05c-.06.01-.12.03-.18.04-.01,0-.02,0-.04,0-.05-.13-.1-.28-.16-.46-.07-.23-.15-.46-.23-.71-.08-.25-.15-.49-.22-.72-.07-.23-.13-.43-.18-.6-.02-.08-.05-.17-.08-.27l-.19-.67c-.03-.12-.06-.23-.09-.34l-.19-.7Z"/>
        <path class="cls-1" d="M83.02,3.86s.03.11.05.18c.02.08.03.17.05.29.02.12.03.26.04.42.01.16.02.35.03.57l.11,2.52c0,.22.02.41.02.57,0,.16,0,.3,0,.42,0,.12-.01.21-.02.29,0,.07-.02.14-.03.19v.03s0,.15,0,.15l1.05-.05.13-.02v-.13s-.01-.04-.01-.04c-.02-.05-.03-.11-.05-.18-.02-.08-.03-.17-.05-.28-.01-.12-.03-.26-.04-.42s-.03-.35-.04-.57l-.11-2.52c0-.22-.01-.41-.02-.57,0-.16,0-.3,0-.42,0-.12.01-.21.02-.29,0-.08.02-.14.03-.19v-.03s0-.15,0-.15l-1.06.05-.13.02v.13s.01.03.01.03Z"/>
        <path class="cls-1" d="M86.52,8.71c.21.32.5.59.84.81.34.22.73.38,1.17.48.22.05.44.07.65.07.06,0,.13,0,.19,0,.27-.02.53-.07.77-.16.24-.09.46-.21.67-.35.2-.15.39-.32.55-.51.16-.19.3-.4.41-.63.11-.23.19-.47.25-.72.1-.44.11-.86.03-1.25-.07-.4-.22-.76-.43-1.08-.21-.32-.49-.59-.83-.82-.34-.22-.73-.39-1.17-.48-.29-.06-.58-.09-.85-.07s-.53.07-.77.16c-.24.09-.46.21-.67.36-.2.15-.39.32-.54.51-.16.19-.3.41-.41.63-.11.23-.19.47-.25.72-.1.44-.11.86-.04,1.26.07.39.22.76.43,1.07ZM87.13,7.43c-.01-.34.02-.7.1-1.08.07-.34.18-.63.33-.87.14-.24.32-.43.51-.57.19-.14.41-.23.64-.28.1-.02.21-.03.32-.03.14,0,.28.02.43.05.33.07.6.2.82.38.22.18.38.41.5.67.12.27.18.57.2.91.02.34-.02.7-.1,1.08-.07.34-.18.63-.33.87-.14.24-.32.43-.51.58-.19.14-.41.24-.64.29-.24.05-.49.04-.75-.02-.33-.07-.61-.2-.82-.38-.22-.18-.39-.41-.5-.68-.12-.27-.18-.57-.2-.91Z"/>
        <path class="cls-1" d="M93.21,11.58l.06-.11v-.03c.03-.05.05-.11.07-.18.03-.07.06-.16.11-.27.05-.11.11-.23.19-.38s.17-.31.27-.5l.36-.63s.05.03.07.05c.06.04.13.08.19.12.06.03.11.06.17.09.03.02.06.03.1.05l.23,2.29c0,.09.01.18,0,.27,0,.1-.02.15-.02.17l-.04.1,1.07.61.12.05.11-.19-.06-.07s-.05-.07-.08-.11c-.02-.05-.04-.1-.06-.16-.02-.07-.04-.14-.05-.22-.02-.09-.03-.19-.04-.3l-.22-2.18c.12,0,.24,0,.35-.03.17-.03.33-.08.48-.16.15-.07.29-.17.42-.3.13-.12.24-.27.34-.44.13-.22.2-.45.22-.67.02-.22-.01-.44-.09-.65-.08-.2-.2-.39-.36-.57-.16-.17-.35-.32-.58-.45-.24-.14-.44-.23-.61-.3-.16-.06-.28-.12-.36-.16-.06-.03-.11-.06-.16-.09-.05-.03-.09-.06-.13-.09l-.13-.09-.13-.07-.07.13v.03c-.03.05-.04.11-.07.19-.03.07-.06.16-.11.27-.05.11-.11.23-.19.38-.07.14-.17.31-.27.5l-1.24,2.19c-.11.19-.21.36-.29.49-.09.14-.16.25-.23.35-.06.1-.12.17-.17.23-.05.06-.09.11-.13.14l-.09.16.92.52.12.05ZM95.25,9.32c-.15-.03-.31-.08-.46-.17-.06-.03-.11-.07-.17-.11-.03-.02-.05-.04-.08-.06l1.17-2.05s.08.02.13.04c.09.03.21.09.36.18.14.08.24.17.32.27.07.1.12.21.14.33.02.12,0,.25-.03.39-.04.15-.1.3-.19.46-.11.19-.23.35-.36.46-.13.11-.26.19-.4.23-.14.04-.28.05-.43.03Z"/>
        <path class="cls-1" d="M103.27,13.18c.18-.08.34-.14.47-.19.16-.05.24-.07.27-.07h.06s.12-.15.12-.15l-.68-.62-.11-.07-.12.13v.03s-.02.02-.04.04c-.07.07-.15.13-.24.18-.11.05-.21.1-.3.15l-3.55,1.59,1.25-3.73c.05-.14.1-.25.14-.33.04-.08.09-.14.14-.2.01-.01.02-.02.06-.05l.14-.14-.88-.8-.11-.08-.12.13v.05s0,.06-.02.11c-.01.06-.03.14-.05.23-.02.09-.05.19-.08.3-.03.11-.06.22-.1.33l-1.67,5,.35.32,5.04-2.17Z"/>
        <path class="cls-1" d="M103.1,16.13c-.24.12-.47.23-.69.34l-1.2.58c-.1.05-.2.08-.27.09-.08.01-.13.02-.18.02h-.05s-.14.1-.14.1l.6.88.11-.11s.06-.06.1-.09c.03-.03.08-.07.13-.11.05-.04.11-.08.18-.13.06-.04.14-.09.27-.16.13-.07.28-.15.44-.24.17-.09.35-.18.55-.28l.6-.3c.37-.19.76-.38,1.18-.59l-2.11,4.04.2.38,4.53-.5-2.49,2.23s-.06.05-.08.07c-.02.02-.05.04-.08.06-.07.05-.13.08-.18.11-.07.03-.1.04-.11.04l-.17.1.62.91.08.1.14-.09.02-.03s.03-.06.06-.1c.03-.04.06-.09.11-.14.05-.06.11-.12.18-.19.07-.07.16-.16.27-.25l3.53-3.19-.31-.46-4.96.55,2.32-4.43-.39-.57-.39.21c-.13.07-.28.14-.45.23-.17.09-.37.18-.58.29l-.66.33c-.23.11-.46.23-.69.34Z"/>
        <path class="cls-1" d="M106.96,27.14c-.16-.03-.24-.05-.27-.07l-.06-.02-.17.06.31.87.06.12.16-.06.02-.03s.02-.01.05-.02c.09-.03.19-.05.3-.04.12,0,.23,0,.33.01l1.03.08c.05.12.1.26.15.4l.45,1.29c.07.18.12.34.16.47l-.78.73c-.11.1-.21.18-.28.22-.08.05-.15.08-.21.11-.02,0-.04.01-.08.02h-.02s-.16.06-.16.06l.39,1.12.06.12.17-.06.02-.04s.03-.04.07-.09c.04-.05.09-.11.15-.18.06-.07.13-.15.21-.23s.16-.17.25-.25l3.83-3.61-.16-.45-5.47-.47c-.2-.01-.37-.03-.51-.06ZM111.56,28.24l-1.6,1.51c-.02-.05-.04-.11-.06-.17l-.46-1.28-.07-.21,2.2.16Z"/>
        <path class="cls-1" d="M110.22,33.24c-.21.04-.4.08-.56.11-.16.03-.3.05-.41.06-.11.01-.21.02-.29.02-.08,0-.14,0-.19,0l-.18.03.17.8.04.12.13-.03h.03s.1-.06.17-.09c.07-.03.17-.06.28-.09.11-.03.25-.07.4-.11.16-.04.34-.08.56-.12l2.28-.47-3.19,4.55.07.31,4.16-.86c.21-.04.4-.08.56-.11.16-.03.3-.05.41-.06.12-.01.21-.02.29-.03.07,0,.14,0,.19,0l.18-.03-.17-.8-.04-.12-.13.03h-.03s-.11.06-.18.09c-.07.03-.16.06-.28.09-.11.03-.25.07-.41.11-.16.04-.34.08-.56.12l-2.35.49,3.19-4.55-.06-.3-.04-.12-.13.03h-.03s-.11.06-.18.09c-.07.03-.16.06-.28.09-.11.03-.25.07-.41.11-.16.04-.34.08-.56.12l-2.47.51Z"/>
        <path class="cls-1" d="M114.98,39.61c-.12.02-.26.04-.42.06-.16.02-.36.04-.57.05l-2.51.2c-.22.02-.41.03-.57.04-.16,0-.3.01-.42.01-.12,0-.21,0-.29-.01-.08,0-.14-.02-.19-.03h-.03s-.15,0-.15,0v.13c.02.07.02.17.02.3v.42c.02.15.02.3.03.44,0,.15.01.27.02.38.02.29.07.58.14.85.07.27.17.53.29.77.12.24.28.46.46.65.18.19.39.36.64.49.24.13.52.22.82.28.2.04.42.06.64.06.12,0,.24,0,.37-.01.52-.04.95-.16,1.3-.34.35-.19.62-.43.83-.71.2-.29.34-.61.41-.98.07-.35.09-.73.06-1.11-.01-.14-.03-.29-.04-.45l-.1-.85c-.01-.11-.02-.19-.03-.24,0-.03,0-.06,0-.11,0-.04,0-.09,0-.13l-.03-.3h-.14s-.03.02-.03.02c-.05.02-.11.04-.19.06-.08.02-.17.04-.29.06ZM114.05,40.69c.12,0,.24-.02.35-.02l.72-.04s0,.05.01.07c.01.07.02.15.03.24l.03.26c.01.09.02.16.02.23.03.33,0,.64-.08.9-.08.26-.21.49-.4.67-.18.19-.42.34-.7.45-.29.11-.62.19-1,.22-.34.03-.65.02-.9-.02-.25-.04-.47-.11-.65-.21-.18-.09-.33-.21-.45-.34-.12-.14-.22-.29-.3-.45-.08-.16-.13-.33-.17-.51-.04-.18-.06-.36-.08-.54,0-.04,0-.09,0-.16,0-.06,0-.13,0-.2,0-.07,0-.13,0-.19,0-.01,0-.02,0-.04.14-.02.29-.04.48-.06.24-.03.48-.05.74-.08l.75-.07c.24-.02.45-.04.62-.05.08,0,.18-.01.28-.02l.69-.05Z"/>
        <path class="cls-1" d="M116,46.52h-.17c-.05.02-.11.03-.19.04-.08.01-.17.02-.29.03-.12,0-.26.01-.42.02-.16,0-.35,0-.57,0l-2.52-.03c-.22,0-.41,0-.57-.01-.16,0-.3-.02-.42-.03-.11-.01-.21-.02-.29-.04-.07-.01-.14-.03-.19-.04h-.18s-.01,1.05-.01,1.05v.13s.16,0,.16,0h.02c.05-.02.11-.03.19-.04.08-.01.17-.02.29-.03.12,0,.26-.01.42-.02.16,0,.35,0,.57,0l2.52.03c.22,0,.41,0,.57.02.16,0,.3.02.42.03.11,0,.21.02.29.04.07.01.14.03.19.04h.18s.01-1.05.01-1.05v-.13Z"/>
        <path class="cls-1" d="M115.82,49.83h-.02c-.05.01-.12.02-.19.03-.08,0-.18,0-.29,0-.12,0-.26,0-.42-.02-.16-.01-.35-.03-.57-.05l-2.51-.24c-.22-.02-.41-.04-.57-.06-.16-.02-.3-.04-.41-.06-.11-.02-.21-.04-.28-.06-.07-.02-.13-.04-.18-.06l-.18-.02-.08.82v.13s.15.01.15.01h.02c.05-.01.11-.02.19-.02.08,0,.17,0,.29,0,.12,0,.26,0,.42.02.16.01.35.03.57.05l2.31.22-4.34,3.37-.04.03-.03.32,4.23.4c.22.02.41.04.57.06.16.02.3.04.42.06.11.02.21.04.29.06.07.02.13.04.18.06l.18.02.08-.82v-.13s-.15-.01-.15-.01h-.02c-.05.01-.12.02-.19.03-.08,0-.17,0-.29,0-.12,0-.26,0-.42-.02-.16-.01-.35-.03-.57-.05l-2.39-.23,4.35-3.37.04-.03.03-.3v-.13s-.15-.01-.15-.01Z"/>
        <path class="cls-1" d="M114.95,57.04c-.05,0-.12,0-.19,0-.08,0-.17-.01-.29-.02-.12-.01-.26-.04-.42-.06-.16-.03-.35-.06-.56-.11l-2.47-.51c-.21-.04-.4-.08-.56-.12-.16-.04-.29-.07-.4-.11-.11-.03-.2-.06-.27-.09-.07-.03-.13-.05-.18-.08l-.18-.04-.36,1.77s-.01.06-.03.12l-.1.43c-.02.08-.04.16-.05.23l-.05.2c-.01.06-.03.1-.03.13l-.03.11.89.36v-.2c-.02-.18-.02-.39-.01-.61,0-.19.02-.41.05-.67.02-.21.06-.45.1-.69l2.12.44c-.03.13-.06.26-.1.39-.05.18-.1.35-.15.5-.06.18-.12.35-.17.52l-.04.11.81.35v-.19c.02-.13.03-.29.05-.46.02-.15.04-.33.07-.54.03-.18.06-.37.1-.58l1.82.38-.02.16c-.01.08-.02.16-.04.24-.01.08-.03.15-.04.21-.04.17-.07.33-.12.46-.04.13-.08.24-.11.33-.04.1-.08.19-.12.27l-.05.11.76.47v-.23s.01-.14.05-.36c.03-.19.07-.41.12-.67.05-.26.11-.55.17-.86h0c.06-.31.13-.63.19-.94v-.13s-.13-.03-.13-.03h-.02Z"/>
        <path class="cls-1" d="M113.82,62.18c-.05,0-.12,0-.19-.02-.08-.01-.17-.03-.29-.06-.12-.03-.25-.06-.41-.11-.16-.05-.34-.1-.54-.17l-2.39-.79c-.21-.07-.39-.13-.54-.19-.15-.06-.28-.11-.39-.15-.11-.05-.19-.09-.26-.12-.07-.04-.12-.07-.17-.1l-.17-.06-.26.78-.03.13.13.04h.03c.05,0,.12.01.19.03.08.01.17.03.29.06.11.03.25.06.4.11.16.05.34.1.54.17l2.21.73-5.04,2.34-.1.3,4.03,1.33c.21.07.39.13.54.19.15.06.28.11.39.15.11.05.2.09.27.12.07.04.12.07.17.1l.17.06.26-.78.03-.13-.13-.04h-.03c-.05,0-.12-.01-.19-.03-.08-.01-.17-.03-.29-.06-.12-.03-.25-.06-.41-.11-.16-.05-.34-.1-.54-.17l-2.28-.75,4.99-2.32.05-.02.1-.29.03-.13-.12-.04h-.04Z"/>
        <path class="cls-1" d="M110.79,68.85c-.13-.16-.29-.28-.49-.38-.19-.09-.38-.14-.56-.16-.18-.02-.36-.01-.54.02-.17.03-.35.07-.52.13-.17.06-.33.12-.5.19-.16.07-.32.13-.48.19-.15.06-.3.1-.45.14-.14.03-.28.04-.42.04-.13,0-.27-.04-.4-.1-.09-.04-.16-.1-.22-.16-.06-.06-.1-.14-.13-.22-.03-.08-.04-.17-.03-.26,0-.1.04-.2.09-.3.05-.11.13-.21.21-.29.09-.08.18-.14.28-.18.1-.04.21-.07.33-.08.12,0,.23,0,.33.02l.1.02.14-.29-.9-.55-.07.04c-.06.04-.14.09-.22.15-.09.06-.17.14-.26.23-.09.09-.18.19-.26.3-.09.12-.16.24-.23.38-.12.25-.18.5-.19.72,0,.23.03.43.1.62.08.18.18.35.32.48.14.13.29.24.45.32.22.11.46.15.7.14.23-.01.47-.05.7-.12.23-.07.47-.15.7-.25.23-.09.45-.18.66-.25.21-.07.41-.11.6-.13.18-.02.33,0,.48.08.09.04.17.1.23.16.06.06.1.12.13.2.03.07.04.15.03.24,0,.09-.03.18-.08.28-.05.11-.12.2-.19.27-.07.07-.15.12-.23.15-.08.03-.16.05-.23.06-.08,0-.14,0-.2,0h-.09s-.13.26-.13.26l.83.43.2-.17c.06-.05.12-.11.18-.18.07-.07.13-.15.2-.25.07-.1.13-.21.19-.33.08-.17.13-.36.15-.55.02-.19,0-.38-.06-.56-.05-.18-.14-.35-.27-.51Z"/>
        <path class="cls-1" d="M109.07,73.48c-.05-.01-.11-.03-.18-.06-.07-.03-.16-.07-.27-.12-.11-.05-.23-.12-.37-.19-.14-.08-.31-.17-.5-.29l-2.17-1.29c-.19-.11-.35-.21-.49-.3-.14-.09-.25-.16-.35-.23-.09-.07-.17-.13-.23-.18-.06-.05-.1-.09-.14-.13l-.15-.1-.54.91-.05.12.11.07h.03c.05.03.11.05.18.07.07.03.16.07.26.12.11.05.23.12.37.19.14.08.31.17.5.28l2.17,1.29c.19.11.35.21.49.3.14.09.25.17.35.24.09.07.17.13.23.18.06.05.1.09.14.13l.15.1.54-.91.05-.12-.11-.07h-.03Z"/>
        <path class="cls-1" d="M106.37,75.6c-.17-.12-.34-.21-.52-.27-.17-.05-.35-.08-.54-.09-.18,0-.36,0-.54.03-.18.02-.35.05-.52.09-.17.03-.34.06-.5.09-.16.03-.32.04-.47.05-.15,0-.29-.01-.42-.04-.13-.03-.25-.09-.37-.18-.08-.06-.14-.13-.19-.2-.05-.07-.07-.15-.08-.24-.01-.09,0-.17.02-.26.03-.09.07-.19.14-.28.08-.1.16-.18.26-.24.1-.06.21-.1.32-.12.11-.02.22-.03.33-.02.11.01.22.04.32.09l.09.04.19-.25-.78-.71-.07.03c-.07.02-.15.06-.25.1-.1.05-.2.11-.3.17-.1.07-.21.15-.31.25-.11.1-.21.21-.3.33-.17.23-.28.45-.33.67-.05.22-.06.43-.02.63.04.19.11.37.22.54.11.16.24.29.38.4.2.15.42.24.66.27.23.03.47.04.71.02.24-.02.49-.06.73-.1.24-.05.47-.09.69-.11.22-.03.42-.03.61-.02.18.01.32.07.46.17.08.06.15.13.19.2.05.07.08.14.09.22.01.08,0,.16-.01.24-.02.09-.07.17-.13.26-.07.1-.15.18-.24.22-.08.05-.17.08-.25.1-.08.02-.16.02-.24.01-.08,0-.14-.02-.19-.04l-.09-.03-.18.24.73.59.23-.13c.06-.04.14-.08.21-.14s.16-.12.25-.2c.09-.08.17-.18.25-.29.11-.15.2-.32.25-.51.05-.18.07-.37.06-.56-.02-.19-.07-.38-.16-.55-.09-.18-.23-.34-.41-.47Z"/>
        <path class="cls-1" d="M77.48,83.24c-.3-.14-.6-.23-.89-.28-.29-.05-.58-.06-.85-.03-.27.03-.54.09-.78.18-.25.09-.48.22-.68.37-.21.15-.39.33-.56.53-.16.2-.3.42-.4.65-.19.41-.28.82-.28,1.23s.08.8.24,1.16c.16.36.4.7.72,1,.31.3.7.55,1.14.75.22.1.45.18.69.24.24.06.47.1.68.11h.06s.73-.7.73-.7l-.15-.22-.1.04c-.13.06-.26.1-.39.13-.13.03-.27.04-.4.04-.14,0-.29-.02-.43-.05-.14-.03-.27-.07-.4-.13-.35-.16-.64-.36-.84-.61-.21-.24-.35-.51-.43-.8-.08-.29-.09-.61-.05-.95.05-.34.15-.69.31-1.03.14-.31.32-.57.52-.77.2-.2.42-.34.66-.43.24-.09.5-.13.77-.11.27.02.55.09.83.22.29.13.54.3.74.51.2.2.35.43.45.67l.03.08h.24s.07-.94.07-.94l-.04-.04c-.33-.32-.74-.6-1.21-.81Z"/>
        <path class="cls-1" d="M83.9,84.81v.15s-.01.02-.01.02c0,.05.02.12.02.19,0,.08,0,.17,0,.29,0,.12-.01.26-.02.42-.01.16-.03.35-.05.57l-.09.83c-.08,0-.18-.01-.28-.02-.16-.01-.32-.03-.5-.04-.18-.01-.36-.03-.55-.05-.19-.02-.38-.04-.56-.06-.18-.02-.36-.04-.53-.06-.12-.01-.23-.03-.33-.04l.09-.86c.02-.22.05-.41.07-.57.02-.16.05-.3.07-.42.02-.11.04-.21.06-.28.02-.07.04-.13.06-.18l.02-.18-1.05-.12h-.13s-.02.15-.02.15v.02c.01.05.02.12.02.19,0,.08,0,.18,0,.29,0,.12-.01.26-.02.42-.01.16-.03.35-.05.57l-.28,2.51c-.02.22-.05.41-.07.57-.02.16-.05.3-.07.41-.02.11-.04.21-.07.28-.02.07-.04.13-.06.18l-.03.18,1.05.12h.13s.01-.15.01-.15v-.02c-.01-.05-.02-.12-.02-.19,0-.08,0-.17,0-.29,0-.12.01-.26.02-.42.01-.16.03-.35.05-.57l.11-1.02c.1,0,.2.02.32.03.17.02.35.03.55.06l.55.06c.2.02.38.05.56.07.18.02.35.04.5.06.1.01.18.02.26.03l-.11,1.01c-.02.22-.05.41-.07.57-.02.16-.05.3-.07.41-.02.11-.04.21-.06.28-.02.07-.04.13-.06.18l-.02.18,1.05.12h.13s.02-.15.02-.15v-.02c-.01-.05-.02-.12-.02-.19,0-.08,0-.17,0-.29,0-.12.01-.26.02-.42.01-.16.03-.35.05-.57l.28-2.51c.02-.22.05-.41.07-.57.02-.16.05-.3.07-.41.02-.11.04-.21.07-.28.02-.07.04-.13.06-.18l.03-.18-1.05-.12h-.13Z"/>
        <path class="cls-1" d="M88.07,90.16s-.04-.11-.06-.18c-.02-.07-.04-.17-.07-.28-.02-.12-.05-.25-.07-.41-.03-.16-.05-.35-.08-.57l-.3-2.5c-.03-.22-.04-.41-.06-.57-.01-.16-.02-.3-.03-.42,0-.12,0-.21,0-.29,0-.08.01-.14.02-.19v-.03s-.02-.15-.02-.15l-1.05.12-.13.03.02.13v.03s.05.11.07.18c.02.08.04.17.07.28.02.12.05.25.07.41.02.16.05.35.07.57l.3,2.5c.03.22.05.41.06.57.01.16.02.3.03.42,0,.12,0,.21,0,.29,0,.07,0,.14-.02.19v.03s.02.15.02.15l1.05-.12.13-.03-.02-.13v-.03Z"/>
        <path class="cls-1" d="M92.54,88.42c-.16.09-.34.19-.54.28-.17.08-.38.17-.61.26-.2.08-.42.15-.66.22l-.96-3.44c-.06-.21-.11-.39-.14-.55-.04-.16-.07-.3-.09-.41-.02-.11-.04-.21-.04-.29,0-.08-.01-.14-.01-.19l-.04-.18-1.02.28-.12.05.04.13v.03s.07.1.1.17c.03.07.07.16.11.27.04.11.09.24.13.4.05.16.1.34.16.55l.68,2.43c.06.21.11.39.15.55.04.16.07.29.09.41.02.11.04.21.04.29,0,.08.01.14.01.19l.04.18,1.74-.49s.05-.01.12-.03l.42-.11c.08-.02.16-.04.23-.06l.2-.05c.06-.01.1-.02.13-.03l.12-.02-.09-.96-.18.1Z"/>
        <path class="cls-1" d="M96.86,86.41c-.14.12-.3.25-.48.38-.15.11-.34.24-.55.38-.18.12-.39.23-.61.35l-.98-1.94c.12-.06.24-.11.37-.16.17-.07.34-.13.48-.19.17-.07.35-.13.52-.19l.11-.04-.22-.85-.15.11c-.11.08-.24.16-.38.25-.13.08-.28.17-.47.28-.15.09-.32.18-.51.28l-.84-1.66.14-.08c.07-.04.14-.08.21-.12.07-.04.14-.08.19-.1.16-.08.31-.15.43-.19.13-.05.24-.09.33-.12.1-.03.2-.06.28-.08l.12-.02-.1-.89-.18.14s-.15.1-.31.19c-.16.09-.36.2-.6.32-.24.12-.5.26-.78.4h0c-.28.15-.57.29-.86.44l-.11.07.06.12.02.03s.08.09.12.15c.05.06.1.14.16.24.06.1.13.22.21.36.08.14.17.31.26.51l1.14,2.25c.1.19.18.37.25.51.07.15.12.27.17.38.04.11.08.2.1.27.02.07.04.14.05.19l.08.16,1.61-.81s.06-.03.11-.05l.4-.19c.07-.04.15-.07.22-.1l.19-.09c.06-.02.1-.04.12-.05l.11-.04-.27-.92-.15.14Z"/>
        <path class="cls-1" d="M78.36,30.87c-.44-.6-1.35-.59-1.78.02l-1.61,2.33h0s-.77-1.1-.77-1.1c-.39-.57-1.2-.64-1.69-.16l-3.72,3.81c-.1.1-.18.23-.21.38l-.25,1.02c-.02.1-.08.19-.16.28l-3.16,3.41.95.29,2.41-2.59h0c.08-.01.16-.03.22-.04.43-.12.91-.45,1.23-.45.15,0,.26.07.32.27.17.63-.76,1.56.04,1.63.05,0,.1,0,.15,0,.72,0,1.47-.46,3.13-1.47.39-.24.72-.32,1-.32.36,0,.64.14.88.27,0,0,.52.33.99.09l-.54-.84h0s0,0,0,0c-.3-.17-.73-.4-1.33-.4-.48,0-.97.15-1.46.45,0,0-1.54.94-2,1.15.05-.25.07-.51-.01-.79-.15-.57-.6-.93-1.17-.93-.1,0-.21.02-.31.04h0s-.03,0-.04,0c-.12,0-.22-.1-.22-.22,0-.02,0-.04,0-.06h0s.12-.39.12-.39c.04-.11.1-.22.18-.31l3.42-3.52c.18-.18.48-.15.62.06l5.82,8.34.9-.27-3.97-5.66s.08-.03.14-.03c.53,0,1.66.98,2.11.98,0,0,.01,0,.02,0,.49-.04.38-.21.31-.6-.12-.55-.03-.7.13-.7.18,0,.45.18.65.23.09.02.23.04.38.04.09,0,.18,0,.27-.01l.98,1.33.92-.28-3.88-5.3ZM76.35,35.22h0,0s0,0,0,0ZM79.06,33.99c-.32,0-.62.14-.81.38-.14.17-.21.36-.24.55,0,0-.32-.24-.82-.44-.05-.02-.1-.04-.16-.06-.04-.02-.09-.03-.14-.04-.03,0-.06-.02-.09-.03h0c-.34-.09-.72-.15-1.15-.12l-.14-.21.75-1.08.91-1.31c.14-.21.45-.21.6,0l1.16,1.58.67.91c-.16-.07-.34-.12-.55-.12Z"/>
      </g>
      <path class="cls-1" d="M44.59,109.68v-8.6h-2.11c-.23,0-.41.18-.41.41v8.01c0,.69-.08,1.27-.23,1.75-.16.48-.43.83-.83,1.07-.4.24-.95.36-1.65.36s-1.25-.12-1.65-.36c-.4-.24-.67-.6-.82-1.07-.15-.48-.22-1.06-.22-1.77v-8.4h-2.11c-.23,0-.41.18-.41.41v8.29c0,1.75.44,3.05,1.32,3.93.88.87,2.18,1.31,3.9,1.31s3.02-.45,3.91-1.34c.89-.89,1.33-2.22,1.33-4Z"/>
      <path class="cls-1" d="M60.4,114.7v-9.63h-2.15c-.15,0-.27.12-.27.27v9.36h2.42Z"/>
      <path class="cls-1" d="M66.81,111.53l-2.18-6.23c-.05-.14-.18-.24-.34-.24h-2.41l3.95,9.63h1.72c.17,0,.31-.1.38-.25l3.81-9.38h-2.62l-2.31,6.47Z"/>
      <path class="cls-1" d="M87.93,107.29c.22,0,.44.03.66.1.22.07.4.14.55.21l1.17-2.19c-.31-.2-.62-.34-.91-.42-.29-.08-.6-.13-.93-.13-.46,0-.9.12-1.34.36s-.8.58-1.1,1.01c-.05.07-.09.15-.14.23v-1.4h-2.44v9.63h2.17c.15,0,.27-.12.27-.27v-3.87c0-.53.02-.94.05-1.22.03-.28.07-.51.13-.69.12-.33.27-.59.46-.78.19-.2.4-.34.64-.43.24-.09.49-.14.75-.14Z"/>
      <path class="cls-1" d="M122.9,114.7h2.23v-6.08c0-1.17-.37-2.09-1.11-2.76-.74-.66-1.78-1-3.11-1-.82,0-1.59.12-2.3.36-.71.24-1.4.63-2.08,1.18l1.23,1.66c.4-.36.87-.65,1.4-.85.53-.2,1.05-.3,1.55-.3.61,0,1.1.14,1.46.42.36.28.54.71.54,1.28v.23h-2.77c-.46,0-.88.04-1.28.12-.4.08-.76.22-1.08.41-.38.21-.68.51-.91.91-.23.4-.34.88-.34,1.44,0,.63.16,1.18.48,1.66s.76.85,1.31,1.11c.55.26,1.18.39,1.89.39.49,0,.96-.1,1.41-.29s.84-.5,1.18-.93c.05-.07.1-.14.15-.22l.17,1.24ZM122.39,111.87c-.21.33-.5.59-.86.78s-.75.28-1.18.28c-.48,0-.87-.11-1.15-.33-.29-.22-.43-.51-.43-.88,0-.17.03-.32.1-.46s.16-.25.29-.34c.14-.12.32-.19.52-.22.2-.03.41-.05.62-.05h2.42v.08c0,.43-.11.81-.32,1.14Z"/>
      <circle class="cls-1" cx="59.19" cy="102.33" r="1.31"/>
      <circle class="cls-1" cx="101.93" cy="102.33" r="1.31"/>
      <path class="cls-1" d="M111.94,106.4c-.05-.08-.1-.17-.16-.24-.33-.43-.71-.75-1.16-.97-.45-.21-.93-.32-1.46-.32-.74,0-1.43.2-2.05.6-.63.4-1.12.97-1.5,1.71-.37.74-.56,1.64-.56,2.7,0,.95.17,1.81.5,2.57.33.76.8,1.36,1.42,1.8s1.34.65,2.19.65c.48,0,.95-.09,1.4-.28.45-.19.85-.51,1.19-.96.07-.09.13-.18.19-.28l.18,1.33h2.23v-12.79h-2.11c-.16,0-.29.13-.29.29v4.2ZM111.07,112.31c-.35.23-.76.35-1.24.35s-.88-.11-1.23-.34c-.35-.23-.62-.55-.81-.97-.19-.42-.28-.91-.28-1.49s.09-1.06.28-1.48c.19-.41.46-.73.81-.96.35-.23.76-.34,1.23-.34s.9.11,1.24.34c.35.23.61.55.8.97.19.42.28.91.28,1.47s-.09,1.05-.28,1.47c-.19.42-.46.74-.8.98Z"/>
      <path class="cls-1" d="M133.82,106.4c-.05-.08-.1-.17-.16-.24-.33-.43-.71-.75-1.16-.97-.45-.21-.93-.32-1.46-.32-.74,0-1.43.2-2.05.6-.63.4-1.12.97-1.5,1.71-.37.74-.56,1.64-.56,2.7,0,.95.17,1.81.5,2.57.33.76.8,1.36,1.42,1.8.61.44,1.34.65,2.19.65.48,0,.95-.09,1.4-.28.45-.19.85-.51,1.19-.96.07-.09.13-.18.19-.28l.18,1.33h2.23v-12.79h-2.11c-.16,0-.29.13-.29.29v4.2ZM132.96,112.31c-.35.23-.76.35-1.24.35s-.88-.11-1.23-.34c-.35-.23-.62-.55-.81-.97-.19-.42-.28-.91-.28-1.49s.09-1.06.28-1.48c.19-.41.46-.73.81-.96.35-.23.76-.34,1.23-.34s.9.11,1.24.34c.35.23.61.55.8.97s.28.91.28,1.47-.09,1.05-.28,1.47c-.19.42-.46.74-.8.98Z"/>
      <path class="cls-1" d="M52.23,104.87c-.46,0-.9.08-1.33.24-.43.16-.81.42-1.13.77-.13.14-.25.31-.35.49v-1.31h-2.44v9.64h2.17c.15,0,.27-.12.27-.27v-4.34c0-.73.08-1.32.23-1.78.16-.46.39-.79.69-1.01.31-.21.69-.32,1.16-.32.61,0,1.06.19,1.35.56.29.37.43.96.43,1.77v5.39h2.17c.15,0,.27-.12.27-.27v-6.02c0-1.12-.31-1.99-.93-2.61s-1.48-.93-2.57-.93Z"/>
      <path class="cls-1" d="M80.39,106.3c-.37-.45-.83-.8-1.39-1.06-.56-.25-1.22-.38-1.97-.38-.81,0-1.5.15-2.08.44s-1.05.68-1.42,1.16c-.37.48-.64,1.02-.82,1.62-.18.6-.27,1.21-.27,1.84s.09,1.27.27,1.87c.18.59.47,1.12.85,1.58.38.46.88.83,1.48,1.1.6.27,1.32.41,2.15.41.56,0,1.06-.05,1.5-.15s.86-.26,1.26-.48c.4-.22.83-.51,1.29-.86l-1.21-1.64c-.37.33-.78.58-1.25.75-.47.18-.95.26-1.45.26-.68,0-1.24-.18-1.69-.53-.38-.29-.62-.71-.72-1.24-.03-.17.09-.33.26-.33h6.28c.03-.18.04-.35.05-.52,0-.16,0-.29,0-.38,0-.68-.09-1.32-.28-1.92-.19-.6-.47-1.12-.83-1.57ZM74.84,108.89c.04-.33.14-.64.3-.95.16-.31.41-.56.73-.75.33-.2.73-.29,1.21-.29.33,0,.62.05.87.15.25.1.47.24.65.42s.33.39.43.64c.08.19.13.38.15.59,0,.11-.08.2-.19.2h-4.16Z"/>
      <path class="cls-1" d="M97.56,109.39c-.36-.22-.76-.4-1.17-.53-.42-.13-.82-.24-1.21-.33-.42-.1-.75-.2-1.01-.28-.25-.08-.44-.19-.55-.3-.11-.12-.17-.26-.17-.43,0-.25.12-.44.36-.59.24-.14.55-.22.93-.22.43,0,.84.09,1.22.28.3.15.56.36.77.62.1.12.28.13.4.04l1.27-1c-.37-.57-.86-1.01-1.49-1.32-.63-.31-1.32-.46-2.09-.46-1.28,0-2.26.36-2.96,1.08-.46.48-.68,1.13-.68,1.79,0,.5.1.91.3,1.25.2.34.47.62.79.83.33.22.68.39,1.07.52s.77.25,1.13.35c.35.09.67.19.96.28.29.1.51.22.68.37.17.15.25.34.25.58,0,.29-.13.52-.4.71s-.64.28-1.12.28c-.61,0-1.12-.15-1.53-.46-.31-.23-.57-.49-.78-.75-.1-.13-.29-.15-.42-.04l-1.42,1.23c.22.29.52.59.89.9s.82.57,1.36.78c.53.21,1.16.31,1.88.31.79,0,1.49-.14,2.07-.41s1.04-.65,1.37-1.14c.33-.49.49-1.05.49-1.69,0-.56-.11-1.02-.33-1.39s-.51-.66-.88-.88Z"/>
      <path class="cls-1" d="M103.14,114.7v-9.63h-2.15c-.15,0-.27.12-.27.27v9.36h2.42Z"/>
      <path class="cls-1" d="M69.37,125.07c-.72-.43-1.55-.64-2.49-.64s-1.75.21-2.49.64c-.74.43-1.31,1.02-1.73,1.77-.42.75-.63,1.61-.63,2.59s.21,1.83.63,2.59c.42.76,1,1.36,1.73,1.79s1.56.64,2.48.64,1.77-.22,2.5-.65c.73-.44,1.3-1.03,1.72-1.79s.63-1.61.63-2.58-.21-1.84-.63-2.59c-.42-.75-1-1.34-1.72-1.77ZM69,130.97c-.19.43-.46.76-.82,1-.36.23-.78.35-1.28.35s-.94-.12-1.31-.35c-.36-.23-.64-.57-.84-1-.2-.43-.29-.94-.29-1.54s.1-1.13.29-1.55c.2-.42.47-.75.84-.98s.8-.34,1.31-.34.92.11,1.28.34.63.55.82.98c.19.42.28.94.28,1.55s-.09,1.11-.28,1.54Z"/>
      <path class="cls-1" d="M92.14,120.63l-5.47,13.61h2.75l.89-2.39c.06-.16.21-.27.39-.27h5.07l.88,2.4c.06.16.21.26.37.26h2.48l-5.47-13.61h-1.89ZM91.26,129.32l1.85-4.96,1.82,4.96h-3.68Z"/>
      <path class="cls-1" d="M58.53,121.46h1.93v12.78h-2.4v-12.31c0-.26.21-.47.47-.47Z"/>
      <path class="cls-1" d="M118.31,125.95c-.05-.08-.1-.17-.16-.24-.33-.43-.71-.75-1.16-.97-.45-.21-.93-.32-1.46-.32-.74,0-1.43.2-2.05.6-.63.4-1.12.97-1.49,1.71-.37.74-.56,1.64-.56,2.7,0,.95.17,1.81.5,2.57.33.76.8,1.36,1.42,1.8s1.34.65,2.19.65c.48,0,.95-.09,1.4-.28.45-.19.85-.51,1.19-.96.07-.09.13-.18.19-.28l.18,1.33h2.23v-12.78h-2.11c-.16,0-.29.13-.29.29v4.2ZM117.44,131.86c-.35.23-.76.35-1.24.35s-.88-.11-1.23-.34c-.35-.23-.62-.55-.81-.97-.19-.42-.28-.91-.28-1.48s.09-1.06.28-1.47c.19-.41.46-.73.81-.96.35-.23.76-.34,1.23-.34s.9.11,1.24.34c.34.23.61.55.8.97s.28.91.28,1.46-.09,1.05-.28,1.46c-.19.42-.46.74-.8.98Z"/>
      <path class="cls-1" d="M106.12,124.42c-.46,0-.9.08-1.33.24-.43.16-.81.42-1.13.77-.13.14-.25.31-.35.49v-1.31h-2.44v9.63h2.17c.15,0,.27-.12.27-.27v-4.34c0-.73.08-1.32.23-1.78.16-.46.39-.79.69-1.01.31-.21.69-.32,1.16-.32.61,0,1.06.19,1.35.56.29.37.43.96.43,1.77v5.39h2.17c.15,0,.27-.12.27-.27v-6.02c0-1.12-.31-1.99-.93-2.61s-1.47-.93-2.57-.93Z"/>
      <path class="cls-1" d="M130.59,125.86c-.36-.45-.83-.8-1.39-1.06-.56-.25-1.22-.38-1.97-.38-.81,0-1.5.15-2.08.44s-1.05.68-1.42,1.16c-.36.48-.64,1.02-.82,1.62-.18.6-.27,1.21-.27,1.84s.09,1.27.27,1.87c.18.59.47,1.12.85,1.58.38.46.88.83,1.47,1.1.6.27,1.32.41,2.15.41.56,0,1.06-.05,1.49-.15s.86-.26,1.26-.48c.4-.22.83-.51,1.29-.86l-1.21-1.64c-.36.33-.78.58-1.25.75-.47.18-.95.26-1.45.26-.68,0-1.24-.18-1.69-.53-.38-.29-.62-.71-.72-1.24-.03-.17.09-.33.26-.33h6.28c.03-.18.04-.35.05-.52,0-.16,0-.29,0-.38,0-.68-.09-1.32-.28-1.91-.19-.6-.47-1.12-.83-1.57ZM125.04,128.44c.04-.33.14-.64.3-.95.16-.31.41-.56.73-.75.33-.2.73-.29,1.21-.29.33,0,.62.05.87.15.25.1.47.24.65.42s.33.39.43.63c.08.19.13.38.15.59,0,.11-.08.2-.19.2h-4.15Z"/>
      <path class="cls-1" d="M139.71,128.93c-.36-.22-.76-.4-1.17-.53-.42-.13-.82-.24-1.21-.33-.42-.1-.75-.2-1.01-.28-.25-.08-.44-.19-.55-.3-.11-.12-.17-.26-.17-.43,0-.25.12-.44.36-.59.24-.14.55-.22.93-.22.43,0,.84.09,1.22.28.3.15.56.36.77.62.1.12.28.13.4.04l1.26-1c-.36-.57-.86-1.01-1.49-1.32-.63-.31-1.32-.46-2.09-.46-1.28,0-2.26.36-2.95,1.08-.46.48-.68,1.13-.68,1.79,0,.5.1.91.3,1.25.2.34.47.62.79.83.33.22.68.39,1.07.52.39.13.77.25,1.13.35.35.09.67.19.96.28.29.1.51.22.68.37.17.15.25.34.25.58,0,.29-.13.52-.4.71s-.64.28-1.12.28c-.61,0-1.12-.15-1.53-.46-.31-.23-.57-.49-.78-.75-.1-.13-.29-.15-.42-.04l-1.41,1.23c.22.29.52.59.89.9s.82.57,1.36.78c.53.21,1.16.31,1.88.31.79,0,1.48-.14,2.07-.41.59-.27,1.04-.65,1.37-1.14.33-.49.49-1.05.49-1.69,0-.56-.11-1.02-.33-1.39s-.51-.66-.88-.88Z"/>
      <path class="cls-1" d="M79.71,128.93c-.36-.22-.76-.4-1.17-.53-.42-.13-.82-.24-1.21-.33-.42-.1-.75-.2-1.01-.28-.25-.08-.44-.19-.55-.3-.11-.12-.17-.26-.17-.43,0-.25.12-.44.36-.59.24-.14.55-.22.93-.22.43,0,.84.09,1.22.28.3.15.56.36.77.62.1.12.28.13.4.04l1.26-1c-.36-.57-.86-1.01-1.49-1.32-.63-.31-1.32-.46-2.09-.46-1.28,0-2.26.36-2.95,1.08-.46.48-.68,1.13-.68,1.79,0,.5.1.91.3,1.25.2.34.47.62.79.83.33.22.68.39,1.07.52.39.13.77.25,1.13.35.35.09.67.19.96.28.29.1.51.22.68.37.17.15.25.34.25.58,0,.29-.13.52-.4.71s-.64.28-1.12.28c-.61,0-1.12-.15-1.53-.46-.31-.23-.57-.49-.78-.75-.1-.13-.29-.15-.42-.04l-1.41,1.23c.22.29.52.59.89.9s.82.57,1.36.78c.53.21,1.16.31,1.88.31.79,0,1.48-.14,2.07-.41.59-.27,1.04-.65,1.37-1.14.33-.49.49-1.05.49-1.69,0-.56-.11-1.02-.33-1.39s-.51-.66-.88-.88Z"/>
      <path class="cls-1" d="M36.38,125.95c-.05-.08-.1-.17-.16-.24-.33-.43-.71-.75-1.16-.97-.45-.21-.93-.32-1.46-.32-.74,0-1.43.2-2.05.6-.63.4-1.12.97-1.49,1.71-.37.74-.56,1.64-.56,2.7,0,.95.17,1.81.5,2.57.33.76.8,1.36,1.42,1.8.61.44,1.34.65,2.19.65.48,0,.95-.09,1.4-.28.45-.19.85-.51,1.19-.96.07-.09.13-.18.19-.28l.18,1.33h2.23v-12.78h-2.11c-.16,0-.29.13-.29.29v4.2ZM35.51,131.86c-.35.23-.76.35-1.24.35s-.88-.11-1.23-.34c-.35-.23-.62-.55-.81-.97-.19-.42-.28-.91-.28-1.48s.09-1.06.28-1.47c.19-.41.46-.73.81-.96.35-.23.76-.34,1.23-.34s.9.11,1.24.34c.34.23.61.55.8.97s.28.91.28,1.46-.09,1.05-.28,1.46c-.19.42-.46.74-.8.98Z"/>
      <path class="cls-1" d="M48.66,125.86c-.36-.45-.83-.8-1.39-1.06-.56-.25-1.22-.38-1.97-.38-.81,0-1.5.15-2.08.44s-1.05.68-1.42,1.16c-.36.48-.64,1.02-.82,1.62-.18.6-.27,1.21-.27,1.84s.09,1.27.27,1.87c.18.59.47,1.12.85,1.58.38.46.88.83,1.47,1.1.6.27,1.32.41,2.15.41.56,0,1.06-.05,1.49-.15s.86-.26,1.26-.48c.4-.22.83-.51,1.29-.86l-1.21-1.64c-.36.33-.78.58-1.25.75-.47.18-.95.26-1.45.26-.68,0-1.24-.18-1.69-.53-.38-.29-.62-.71-.72-1.24-.03-.17.09-.33.26-.33h6.28c.03-.18.04-.35.05-.52,0-.16,0-.29,0-.38,0-.68-.09-1.32-.28-1.91-.19-.6-.47-1.12-.83-1.57ZM43.11,128.44c.04-.33.14-.64.3-.95.16-.31.41-.56.73-.75.33-.2.73-.29,1.21-.29.33,0,.62.05.87.15.25.1.47.24.65.42s.33.39.43.63c.08.19.13.38.15.59,0,.11-.08.2-.19.2h-4.15Z"/>
      <rect class="cls-1" y="153.9" width="170.42" height="1.5"/>
      <g>
        <path class="cls-1" d="M8.02,186.64v-11.2h6.96v1.31h-5.36v3.63h4.48v1.28h-4.48v4.98h-1.6Z"/>
        <path class="cls-1" d="M18.69,186.83c-.66,0-1.21-.11-1.65-.34-.44-.22-.76-.53-.98-.9-.21-.38-.32-.79-.32-1.22,0-.53.14-.99.42-1.37.28-.38.67-.67,1.18-.87.51-.2,1.12-.3,1.84-.3h2.1c0-.47-.07-.86-.21-1.17-.14-.31-.34-.54-.62-.7-.27-.16-.62-.23-1.03-.23-.48,0-.89.12-1.23.34-.34.23-.55.57-.64,1.02h-1.6c.06-.57.26-1.05.58-1.45s.74-.71,1.26-.93c.51-.22,1.06-.33,1.63-.33.76,0,1.39.13,1.9.4.51.27.9.64,1.16,1.13.26.49.39,1.06.39,1.74v4.99h-1.39l-.13-1.36c-.12.21-.26.42-.42.61-.16.19-.35.36-.57.5-.22.14-.47.25-.75.33s-.59.12-.94.12ZM18.99,185.54c.34,0,.65-.07.93-.21.28-.14.51-.33.71-.57.2-.24.35-.51.45-.82.1-.3.16-.62.17-.94v-.05h-1.9c-.46,0-.83.06-1.11.17-.28.11-.49.26-.62.46-.13.19-.19.42-.19.67s.06.49.18.68c.12.19.3.33.54.44.23.11.52.16.85.16Z"/>
        <path class="cls-1" d="M28.66,186.83c-.78,0-1.47-.18-2.08-.54-.61-.36-1.09-.85-1.43-1.48-.35-.63-.52-1.36-.52-2.19s.17-1.58.52-2.22c.35-.63.82-1.13,1.43-1.49.61-.36,1.3-.54,2.08-.54.98,0,1.8.26,2.46.77.66.51,1.08,1.21,1.26,2.08h-1.66c-.11-.47-.35-.83-.73-1.09s-.83-.38-1.35-.38c-.43,0-.82.11-1.18.33-.36.22-.65.54-.87.96-.22.42-.33.94-.33,1.56,0,.46.06.87.19,1.22s.3.66.52.9c.22.25.47.43.76.55.29.12.59.18.91.18.35,0,.67-.06.95-.17s.52-.28.72-.5c.2-.22.33-.49.41-.8h1.66c-.18.85-.6,1.54-1.26,2.06-.66.52-1.48.78-2.46.78Z"/>
        <path class="cls-1" d="M37.22,186.83c-.63,0-1.18-.13-1.64-.38-.46-.26-.82-.64-1.07-1.15-.25-.51-.38-1.16-.38-1.94v-4.78h1.6v4.61c0,.76.17,1.33.5,1.71.33.38.81.58,1.42.58.42,0,.79-.1,1.13-.3.34-.2.6-.5.79-.88.19-.38.29-.85.29-1.41v-4.3h1.6v8.06h-1.42l-.11-1.38c-.25.49-.6.88-1.07,1.15-.47.28-1.01.42-1.63.42Z"/>
        <path class="cls-1" d="M43.65,186.64v-11.52h1.6v11.52h-1.6Z"/>
        <path class="cls-1" d="M50.75,186.64c-.5,0-.94-.08-1.31-.24s-.66-.43-.86-.8c-.2-.37-.3-.88-.3-1.52v-4.14h-1.39v-1.36h1.39l.19-2.02h1.41v2.02h2.29v1.36h-2.29v4.16c0,.46.1.77.29.94.19.17.52.25.99.25h.93v1.36h-1.33Z"/>
        <path class="cls-1" d="M56.59,186.83c-.66,0-1.21-.11-1.65-.34-.44-.22-.76-.53-.98-.9-.21-.38-.32-.79-.32-1.22,0-.53.14-.99.42-1.37.28-.38.67-.67,1.18-.87.51-.2,1.12-.3,1.84-.3h2.1c0-.47-.07-.86-.21-1.17-.14-.31-.34-.54-.62-.7-.27-.16-.62-.23-1.03-.23-.48,0-.89.12-1.23.34-.34.23-.55.57-.64,1.02h-1.6c.06-.57.26-1.05.58-1.45s.74-.71,1.26-.93c.51-.22,1.06-.33,1.63-.33.76,0,1.39.13,1.9.4.51.27.9.64,1.16,1.13.26.49.39,1.06.39,1.74v4.99h-1.39l-.13-1.36c-.12.21-.26.42-.42.61-.16.19-.35.36-.57.5-.22.14-.47.25-.75.33s-.59.12-.94.12ZM56.9,185.54c.34,0,.65-.07.93-.21.28-.14.51-.33.71-.57.2-.24.35-.51.45-.82.1-.3.16-.62.17-.94v-.05h-1.9c-.46,0-.83.06-1.11.17-.28.11-.49.26-.62.46-.13.19-.19.42-.19.67s.06.49.18.68c.12.19.3.33.54.44.23.11.52.16.85.16Z"/>
        <path class="cls-1" d="M66.42,186.83c-.77,0-1.45-.18-2.03-.55-.59-.37-1.04-.87-1.37-1.5-.33-.63-.49-1.36-.49-2.17s.16-1.55.49-2.18c.33-.63.78-1.13,1.38-1.5.59-.37,1.27-.55,2.04-.55.63,0,1.18.12,1.66.38s.85.61,1.12,1.06v-4.7h1.6v11.52h-1.42l-.18-1.25c-.16.25-.37.48-.62.7-.26.22-.57.4-.93.54-.36.14-.78.21-1.25.21ZM66.67,185.44c.5,0,.94-.12,1.33-.35.38-.23.68-.57.89-.99s.31-.92.31-1.49-.1-1.06-.31-1.48c-.21-.42-.5-.75-.89-.99-.38-.24-.83-.36-1.33-.36s-.91.12-1.3.36c-.38.24-.68.57-.9.99-.21.42-.32.91-.32,1.48s.11,1.06.32,1.49.51.76.9.99c.38.23.82.35,1.3.35Z"/>
        <path class="cls-1" d="M80.69,186.83c-.77,0-1.45-.18-2.03-.55-.59-.37-1.04-.87-1.37-1.5-.33-.63-.49-1.36-.49-2.17s.16-1.55.49-2.18c.33-.63.78-1.13,1.38-1.5.59-.37,1.27-.55,2.04-.55.63,0,1.18.12,1.66.38s.85.61,1.12,1.06v-4.7h1.6v11.52h-1.42l-.18-1.25c-.16.25-.37.48-.62.7-.26.22-.57.4-.93.54-.36.14-.78.21-1.25.21ZM80.94,185.44c.5,0,.94-.12,1.33-.35.38-.23.68-.57.89-.99s.31-.92.31-1.49-.1-1.06-.31-1.48c-.21-.42-.5-.75-.89-.99-.38-.24-.83-.36-1.33-.36s-.91.12-1.3.36c-.38.24-.68.57-.9.99-.21.42-.32.91-.32,1.48s.11,1.06.32,1.49.51.76.9.99c.38.23.82.35,1.3.35Z"/>
        <path class="cls-1" d="M90.93,186.83c-.77,0-1.45-.18-2.05-.53-.6-.35-1.06-.84-1.4-1.47-.34-.63-.5-1.36-.5-2.19s.17-1.6.5-2.23c.34-.63.8-1.13,1.4-1.49.6-.36,1.29-.54,2.08-.54s1.47.18,2.03.53c.57.35,1,.82,1.31,1.4.31.58.46,1.22.46,1.93,0,.11,0,.22,0,.34,0,.12-.01.26-.02.41h-6.59v-1.14h5.02c-.03-.67-.26-1.2-.67-1.58-.42-.38-.93-.57-1.55-.57-.44,0-.84.1-1.2.3s-.65.49-.87.86c-.22.38-.33.86-.33,1.43v.45c0,.6.11,1.1.33,1.51.22.41.51.72.87.93s.76.31,1.18.31c.51,0,.93-.11,1.26-.34.33-.22.58-.53.74-.91h1.6c-.14.49-.37.93-.7,1.32-.33.39-.74.7-1.22.92-.49.22-1.04.34-1.67.34Z"/>
        <path class="cls-1" d="M100.72,186.64v-11.2h3.44c1.3,0,2.38.23,3.23.69.85.46,1.49,1.11,1.9,1.94.41.84.62,1.83.62,2.98s-.21,2.14-.62,2.98c-.41.83-1.04,1.48-1.89,1.93-.85.45-1.93.68-3.24.68h-3.44ZM102.32,185.3h1.78c1.03,0,1.86-.17,2.46-.51.61-.34,1.04-.83,1.3-1.46.26-.63.39-1.39.39-2.26s-.13-1.65-.39-2.29c-.26-.64-.7-1.13-1.3-1.47-.61-.34-1.43-.51-2.46-.51h-1.78v8.51Z"/>
        <path class="cls-1" d="M115.39,186.83c-.77,0-1.45-.18-2.05-.53-.6-.35-1.06-.84-1.4-1.47-.34-.63-.5-1.36-.5-2.19s.17-1.6.5-2.23c.34-.63.8-1.13,1.4-1.49.6-.36,1.29-.54,2.08-.54s1.47.18,2.03.53c.57.35,1,.82,1.31,1.4.31.58.46,1.22.46,1.93,0,.11,0,.22,0,.34,0,.12-.01.26-.02.41h-6.59v-1.14h5.02c-.03-.67-.26-1.2-.67-1.58-.42-.38-.93-.57-1.55-.57-.44,0-.84.1-1.2.3s-.65.49-.87.86c-.22.38-.33.86-.33,1.43v.45c0,.6.11,1.1.33,1.51.22.41.51.72.87.93s.76.31,1.18.31c.51,0,.93-.11,1.26-.34.33-.22.58-.53.74-.91h1.6c-.14.49-.37.93-.7,1.32-.33.39-.74.7-1.22.92-.49.22-1.04.34-1.67.34Z"/>
        <path class="cls-1" d="M121.01,186.64v-8.06h1.44l.14,1.52c.18-.36.42-.67.7-.92s.63-.45,1.02-.58c.39-.14.83-.21,1.34-.21v1.7h-.58c-.33,0-.65.04-.94.12-.3.08-.56.22-.79.41-.23.19-.41.45-.54.78-.13.33-.19.74-.19,1.23v4.02h-1.6Z"/>
        <path class="cls-1" d="M130.51,186.83c-.77,0-1.45-.18-2.05-.53-.6-.35-1.06-.84-1.4-1.47-.34-.63-.5-1.36-.5-2.19s.17-1.6.5-2.23c.34-.63.8-1.13,1.4-1.49.6-.36,1.29-.54,2.08-.54s1.47.18,2.03.53c.57.35,1,.82,1.31,1.4.31.58.46,1.22.46,1.93,0,.11,0,.22,0,.34,0,.12-.01.26-.02.41h-6.59v-1.14h5.02c-.03-.67-.26-1.2-.67-1.58-.42-.38-.93-.57-1.55-.57-.44,0-.84.1-1.2.3s-.65.49-.87.86c-.22.38-.33.86-.33,1.43v.45c0,.6.11,1.1.33,1.51.22.41.51.72.87.93s.76.31,1.18.31c.51,0,.93-.11,1.26-.34.33-.22.58-.53.74-.91h1.6c-.14.49-.37.93-.7,1.32-.33.39-.74.7-1.22.92-.49.22-1.04.34-1.67.34Z"/>
        <path class="cls-1" d="M139.86,186.83c-.78,0-1.47-.18-2.08-.54-.61-.36-1.09-.85-1.43-1.48-.35-.63-.52-1.36-.52-2.19s.17-1.58.52-2.22c.35-.63.82-1.13,1.43-1.49.61-.36,1.3-.54,2.08-.54.98,0,1.8.26,2.46.77.66.51,1.08,1.21,1.26,2.08h-1.66c-.11-.47-.35-.83-.73-1.09-.38-.26-.83-.38-1.35-.38-.43,0-.82.11-1.18.33-.36.22-.65.54-.87.96-.22.42-.33.94-.33,1.56,0,.46.06.87.19,1.22s.3.66.52.9c.22.25.47.43.76.55.29.12.59.18.91.18.35,0,.67-.06.95-.17s.52-.28.72-.5c.2-.22.33-.49.41-.8h1.66c-.18.85-.6,1.54-1.26,2.06-.66.52-1.48.78-2.46.78Z"/>
        <path class="cls-1" d="M145.46,186.64v-11.52h1.6v4.77c.27-.47.64-.84,1.11-1.1.47-.27,1-.4,1.58-.4.64,0,1.19.13,1.65.39.46.26.81.65,1.06,1.17.25.52.37,1.17.37,1.94v4.75h-1.58v-4.58c0-.76-.16-1.33-.48-1.72-.32-.39-.79-.58-1.42-.58-.43,0-.81.1-1.15.3-.34.2-.61.5-.82.89-.2.39-.3.86-.3,1.42v4.27h-1.6Z"/>
        <path class="cls-1" d="M158.54,186.83c-.76,0-1.44-.18-2.04-.53-.6-.35-1.08-.85-1.42-1.48-.35-.63-.52-1.37-.52-2.2s.18-1.6.53-2.23c.35-.63.83-1.13,1.44-1.48.61-.35,1.29-.53,2.05-.53s1.45.18,2.05.53c.6.35,1.07.84,1.42,1.47s.52,1.37.52,2.22-.17,1.59-.52,2.22c-.35.63-.82,1.12-1.43,1.47-.61.35-1.3.53-2.06.53ZM158.54,185.46c.44,0,.83-.11,1.19-.32.36-.21.65-.53.86-.95.22-.42.33-.95.33-1.58s-.11-1.15-.32-1.58c-.21-.42-.5-.74-.86-.95-.36-.21-.75-.32-1.18-.32s-.82.11-1.18.32c-.36.21-.65.53-.87.95-.22.42-.33.95-.33,1.58s.11,1.16.33,1.58c.22.42.51.74.86.95.36.21.74.32,1.16.32Z"/>
      </g>
    </g>
  </g>
</svg>