<?xml version="1.0" encoding="UTF-8"?>
<svg id="Capa_2" data-name="Capa 2" xmlns="http://www.w3.org/2000/svg" viewBox="0 0 354.2 68.74">
  <defs>
    <style>
      .cls-1 {
        fill: #fff;
      }
    </style>
  </defs>
  <g id="Capa_1-2" data-name="Capa 1">
    <g>
      <path class="cls-1" d="M242.49,46.38c-.93,2.06-2.25,3.66-3.94,4.81-1.7,1.15-3.74,1.73-6.11,1.73s-4.33-.56-6.06-1.68c-1.73-1.12-3.06-2.71-3.99-4.76-.93-2.05-1.39-4.49-1.39-7.31s.46-5.24,1.39-7.26c.93-2.02,2.26-3.59,3.99-4.71,1.73-1.12,3.75-1.68,6.06-1.68s4.41.56,6.11,1.68c1.7,1.12,3.01,2.71,3.94,4.76.93,2.05,1.39,4.46,1.39,7.21s-.47,5.16-1.39,7.21M242.83,19.96c0,.7-.86,1.03-1.33.51-1.54-1.74-3.49-3.53-5.16-4.33-2.21-1.06-4.6-1.59-7.17-1.59-3.65,0-7.02.98-10.1,2.93-3.08,1.96-5.53,4.76-7.36,8.42-1.83,3.65-2.74,8.08-2.74,13.27,0,4.68.82,8.9,2.45,12.65,1.64,3.75,3.96,6.7,6.97,8.85,3.01,2.15,6.6,3.22,10.77,3.22,2.37,0,4.67-.47,6.88-1.39,1.7-.72,3.8-2.64,5.44-4.49.47-.53,1.34-.21,1.34.5v4.42h11.83V0h-11.83v19.96Z"/>
      <path class="cls-1" d="M348.23,36.77c-1.79-1.09-3.72-1.96-5.77-2.6-2.05-.64-4.04-1.19-5.96-1.64-2.05-.51-3.7-.97-4.95-1.39-1.25-.41-2.15-.91-2.69-1.49-.54-.58-.82-1.28-.82-2.11,0-1.22.59-2.18,1.78-2.88,1.18-.71,2.71-1.06,4.57-1.06,2.12,0,4.12.47,6.01,1.39,1.49.73,2.75,1.75,3.78,3.06.47.6,1.37.66,1.97.19l6.23-4.93c-1.8-2.82-4.23-4.99-7.31-6.49-3.08-1.51-6.51-2.26-10.29-2.26-6.29,0-11.14,1.78-14.55,5.32-2.27,2.36-3.36,5.55-3.34,8.83.02,2.45.51,4.5,1.49,6.14.99,1.67,2.29,3.03,3.9,4.09,1.6,1.06,3.36,1.91,5.29,2.55,1.92.64,3.78,1.22,5.58,1.73,1.73.45,3.3.91,4.71,1.39,1.41.48,2.53,1.09,3.37,1.83.83.74,1.25,1.68,1.25,2.84,0,1.41-.66,2.58-1.97,3.51-1.32.93-3.16,1.39-5.53,1.39-3.02,0-5.53-.75-7.55-2.26-1.55-1.15-2.82-2.39-3.82-3.71-.49-.65-1.44-.72-2.05-.19l-6.96,6.06c1.09,1.41,2.55,2.88,4.38,4.42,1.83,1.54,4.05,2.82,6.68,3.85,2.63,1.02,5.71,1.54,9.23,1.54,3.91,0,7.31-.67,10.19-2.02,2.89-1.35,5.13-3.22,6.73-5.63,1.6-2.41,2.4-5.18,2.4-8.32,0-2.76-.54-5.03-1.63-6.83-1.09-1.79-2.53-3.24-4.33-4.33"/>
      <path class="cls-1" d="M296.45,34.35h-20.45c.19-1.59.69-3.15,1.49-4.66.8-1.5,2-2.74,3.6-3.7,1.6-.96,3.59-1.44,5.96-1.44,1.6,0,3.03.24,4.28.72,1.25.48,2.32,1.17,3.22,2.07.9.9,1.6,1.94,2.12,3.13.39.92.64,1.88.73,2.89.05.54-.41,1-.96,1M303.32,21.62c-1.8-2.21-4.07-3.94-6.83-5.19-2.76-1.25-6-1.88-9.71-1.88-3.98,0-7.39.72-10.24,2.16-2.85,1.44-5.18,3.35-6.97,5.72-1.8,2.37-3.14,5.03-4.04,7.98-.9,2.95-1.35,5.96-1.35,9.04s.45,6.27,1.35,9.18c.9,2.92,2.29,5.52,4.18,7.79,1.89,2.28,4.31,4.09,7.26,5.43,2.95,1.35,6.48,2.02,10.58,2.02,2.75,0,5.21-.24,7.36-.72,2.15-.48,4.21-1.26,6.2-2.36,1.99-1.09,4.1-2.5,6.35-4.23l-5.96-8.08c-1.8,1.6-3.85,2.84-6.15,3.7-2.31.87-4.68,1.3-7.12,1.3-3.33,0-6.11-.87-8.32-2.6-1.85-1.45-3.04-3.48-3.56-6.09-.17-.82.43-1.6,1.27-1.6h30.91c.13-.9.21-1.75.24-2.55.03-.8.05-1.43.05-1.88,0-3.33-.47-6.48-1.4-9.42-.93-2.95-2.29-5.53-4.09-7.74"/>
      <path class="cls-1" d="M192.29,16.86c-2.6-1.54-5.82-2.31-9.67-2.31-3.33,0-6.38.8-9.14,2.41-1.85,1.08-3.37,2.66-4.62,4.66v-6.1h-11.92v47.41h10.63c.72,0,1.3-.58,1.3-1.3v-27.38c0-2.96.86-5.25,2.57-6.87,1.71-1.63,4.17-2.44,7.39-2.44.05,0,.08,0,.13,0,.04,0,.07,0,.11,0,.68,0,1.3.06,1.89.14.01,0,.02,0,.03,0,.53.08,1.02.19,1.49.34.33.1.63.22.93.34,0,0,.02,0,.03.01.87.37,1.64.82,2.26,1.44,1.54,1.52,2.31,3.78,2.31,6.77v28.94h10.63c.72,0,1.3-.58,1.3-1.3v-28.32c0-3.78-.63-7.08-1.88-9.9-1.25-2.82-3.17-5-5.77-6.54"/>
      <path class="cls-1" d="M80.68,16.81v27.38c0,2.95-.86,5.25-2.57,6.87-1.71,1.63-4.17,2.44-7.39,2.44-.04,0-.08,0-.13,0-.04,0-.07,0-.11,0-.68,0-1.3-.06-1.89-.14-.01,0-.02,0-.03,0-.53-.08-1.02-.19-1.48-.34-.33-.1-.63-.22-.93-.34,0,0-.02,0-.03-.01-.87-.36-1.64-.82-2.27-1.44-1.54-1.52-2.31-3.78-2.31-6.77V15.51h-10.63c-.72,0-1.3.58-1.3,1.3v28.32c0,3.78.63,7.09,1.88,9.91,1.25,2.82,3.17,5,5.77,6.54,2.6,1.54,5.82,2.31,9.67,2.31,3.33,0,6.38-.81,9.14-2.41,1.3-.76,2.44-1.76,3.44-2.99.4-.49,1.18-.23,1.18.4v4.03h11.92V15.51h-10.63c-.72,0-1.3.58-1.3,1.3"/>
      <path class="cls-1" d="M133.87,15.82c-1.06-.35-2.2-.61-3.39-.81-.4-.07-.82-.1-1.23-.16-1.34-.17-2.73-.3-4.23-.3-4.04,0-7.81.6-11.3,1.78-3.15,1.07-6.22,2.74-9.23,5.03-.57.43-.67,1.25-.25,1.82l5.3,7.15c1.99-1.79,4.28-3.19,6.87-4.18,2.6-.99,5.15-1.49,7.65-1.49,2.02,0,3.74.33,5.19.96.43.19.85.4,1.23.64.25.15.51.29.74.46,1.76,1.38,2.65,3.48,2.65,6.3v1.15h-13.66c-2.25,0-4.34.19-6.3.58-1.96.39-3.74,1.06-5.34,2.02-1.86,1.03-3.35,2.52-4.47,4.47-1.12,1.95-1.68,4.31-1.68,7.07,0,3.08.79,5.8,2.36,8.17,1.57,2.38,3.72,4.2,6.44,5.48,2.72,1.28,5.82,1.92,9.28,1.92,2.61,0,5.07-.55,7.38-1.65.02-.03.03-.04.04-.07v-7.1c0-.44-.36-.8-.8-.8h-4.89c-2.24,0-4.06-.49-5.44-1.46-1.66-1.17-2.56-3.22-2.31-5.24.07-.55.21-1.05.44-1.52.32-.67.8-1.23,1.44-1.68.7-.58,1.55-.95,2.55-1.11.99-.16,2-.24,3.03-.24h10.21c.95,0,1.71.77,1.72,1.71l.02,18.19h11.91v-29.91c0-5.77-1.83-10.29-5.48-13.56-1.8-1.61-3.95-2.82-6.44-3.63"/>
      <path class="cls-1" d="M0,68.74v-13.69c0-1.03.5-2.01,1.33-2.62l18.01-13.26L1.32,25.91C.5,25.29,0,24.32,0,23.29v-13.69l26.73,19.68c6.66,4.91,6.66,14.87,0,19.77L0,68.74Z"/>
    </g>
  </g>
</svg>