<?xml version="1.0" encoding="UTF-8"?>
<svg id="Capa_2" data-name="Capa 2" xmlns="http://www.w3.org/2000/svg" viewBox="0 0 247.38 334.79">
  <defs>
    <style>
      .cls-1 {
        fill: #243746;
      }
    </style>
  </defs>
  <g id="Capa_1-2" data-name="Capa 1">
    <g>
      <path class="cls-1" d="M123.69,0C55.38,0,0,74.95,0,167.4s55.38,167.4,123.69,167.4,123.69-74.95,123.69-167.4S192,0,123.69,0ZM123.69,330.73c-66.09,0-119.85-73.27-119.85-163.33S57.6,4.06,123.69,4.06s119.85,73.27,119.85,163.33-53.76,163.33-119.85,163.33Z"/>
      <circle class="cls-1" cx="69.45" cy="286.64" r="2.73"/>
      <circle class="cls-1" cx="179.7" cy="286.64" r="2.73"/>
      <path class="cls-1" d="M123.71,41.59c-45.58,0-82.52,56.32-82.52,125.8s36.95,125.8,82.52,125.8,82.52-56.32,82.52-125.8-36.95-125.8-82.52-125.8ZM202.16,165.3h-76.44V45.7c41.9,1.65,75.73,54.46,76.44,119.6ZM121.69,45.7v119.6H45.25c.71-65.13,34.54-117.95,76.44-119.6ZM45.24,169.33h76.45v119.76c-41.93-1.65-75.79-54.55-76.45-119.76ZM125.72,289.09v-119.76h76.45c-.66,65.21-34.51,118.1-76.45,119.76Z"/>
      <path class="cls-1" d="M41.58,263.16c-.68.14-1.28.24-1.78.29-.58.06-.86.05-1,.03h-.23l-.53.37,1.89,2.68.31.34.51-.38.05-.1s.06-.06.13-.11c.29-.21.62-.36.98-.45.42-.1.8-.2,1.15-.28l13.48-2.85-7.14,11.99c-.28.45-.53.8-.74,1.04-.21.23-.42.42-.62.57-.05.03-.11.07-.24.14l-.58.38,2.43,3.44.31.35.51-.37.04-.16c.02-.06.06-.19.14-.38.09-.21.2-.47.35-.77.15-.3.31-.63.5-.99.19-.36.39-.72.61-1.08l9.55-16.04-.98-1.38-19.1,3.73Z"/>
      <path class="cls-1" d="M40.21,255.72l8.04-3.9c.7-.34,1.31-.62,1.84-.86.52-.23.98-.42,1.37-.57.38-.15.7-.26.97-.33.26-.07.48-.13.67-.16l.58-.26-1.27-2.61-.25-.39-.41.2-.11.07c-.14.12-.32.26-.54.42-.23.16-.52.34-.87.55-.36.21-.79.45-1.29.72-.51.27-1.12.57-1.81.91l-7.41,3.59,7.01-18.39-.5-1.02-13.53,6.57c-.7.34-1.31.62-1.84.86-.52.23-.98.43-1.37.58-.39.15-.71.26-.98.34-.26.08-.47.13-.66.16l-.58.26,1.27,2.61.25.39.41-.2.11-.07c.14-.13.32-.27.54-.42.23-.16.51-.35.87-.56.36-.21.79-.45,1.3-.72.51-.27,1.12-.57,1.81-.91l7.66-3.72-7.03,18.4.47.97.25.39.41-.2.11-.07c.14-.12.32-.27.54-.43.22-.16.51-.35.87-.56.36-.22.79-.46,1.3-.72.51-.27,1.12-.57,1.81-.91Z"/>
      <path class="cls-1" d="M29.95,232.65l8.42-3c.73-.26,1.37-.48,1.92-.65.54-.18,1.02-.31,1.42-.42.4-.1.73-.18,1.01-.23.26-.05.49-.08.67-.09l.61-.2-1.25-3.52-.21-.41-.43.15-.12.06c-.15.11-.35.23-.58.36-.24.14-.55.29-.92.45-.38.17-.84.36-1.37.57-.53.21-1.17.45-1.89.71l-8.42,3c-.73.26-1.36.47-1.92.65-.55.17-1.03.31-1.44.42-.39.11-.73.18-1,.23-.27.04-.49.07-.68.09l-.61.2,1.25,3.52.21.41.43-.15.12-.06c.15-.11.34-.22.57-.35.25-.13.56-.29.93-.46.38-.17.84-.37,1.37-.57.54-.21,1.17-.44,1.9-.7Z"/>
      <path class="cls-1" d="M24.63,223.21l14.69-11.52-.41-1.64-19.16-3.41c-.69-.12-1.29-.24-1.77-.37-.56-.14-.82-.26-.94-.33l-.21-.08-.63.15.8,3.18.16.43.62-.17.09-.08s.07-.03.16-.06c.34-.09.7-.11,1.08-.06.42.05.82.1,1.17.15l13.6,2.2-10.98,8.61c-.42.32-.78.56-1.06.7-.28.14-.55.25-.78.31-.06.01-.13.03-.28.05h-.09s-.59.13-.59.13l1.03,4.1.16.43.61-.15.1-.14c.04-.05.13-.15.27-.3.16-.17.36-.36.6-.59.24-.23.52-.48.82-.75.3-.26.62-.53.95-.79Z"/>
      <path class="cls-1" d="M17.69,200.12c.41-.09.9-.19,1.46-.29.57-.1,1.24-.21,2-.31l8.85-1.27c.76-.11,1.43-.2,2.01-.26.57-.06,1.06-.11,1.48-.13.41-.02.75-.03,1.02-.02.27.01.5.03.68.05l.63-.09-.9-6.31-.25-1.98c-.04-.29-.07-.57-.1-.84l-.08-.73c-.02-.21-.03-.37-.04-.47l-.02-.42-3.4-.12.28.66c.26.61.51,1.29.74,2.03.21.64.42,1.4.64,2.27.18.74.35,1.55.48,2.43l-7.61,1.09c-.06-.46-.1-.93-.13-1.43-.04-.66-.08-1.27-.09-1.84-.02-.66-.04-1.31-.04-1.94v-.42s-3.12-.21-3.12-.21l.19.64c.14.45.28.98.42,1.57.12.51.26,1.14.41,1.88.13.62.25,1.29.37,2.04l-6.53.93-.11-.56c-.06-.27-.11-.56-.17-.86-.05-.29-.1-.55-.13-.76-.09-.63-.15-1.19-.17-1.67-.02-.49-.03-.91-.02-1.25,0-.39.03-.73.06-1.03l.05-.42-3.11-.66.26.77c.05.14.14.48.28,1.27.12.66.26,1.45.4,2.37.15.93.3,1.96.47,3.07.17,1.12.33,2.24.5,3.37l.12.44.45-.06.13-.04c.17-.08.38-.16.64-.24.26-.09.6-.18,1-.27Z"/>
      <path class="cls-1" d="M13.74,182.23c.18-.06.4-.12.66-.18.27-.06.61-.12,1.02-.16.41-.05.91-.1,1.48-.15.57-.05,1.25-.09,2.02-.13l8.93-.42c.78-.04,1.46-.06,2.03-.06.57,0,1.07,0,1.48.01.4.01.74.04,1.02.07.27.03.49.07.67.12h.11s.53,0,.53,0l-.17-3.76-.08-.45-.45.02-.13.02c-.18.06-.4.12-.66.18-.27.06-.6.12-1.01.16-.41.05-.91.1-1.48.15-.57.05-1.25.09-2.02.13l-2.56.12c0-.1.01-.2.01-.3,0-.27,0-.54,0-.81-.01-.23-.03-.46-.05-.67-.01-.13-.03-.25-.04-.38l6.41-5.01c.26-.2.52-.38.78-.53.31-.18.47-.23.54-.25l.38-.08-.2-4.35-.08-.46-.78.05-.09.3c-.05.15-.11.3-.2.44-.09.16-.22.32-.37.5-.16.18-.35.38-.57.58-.23.21-.5.44-.82.68l-6.12,4.8c-.22-.37-.47-.71-.75-1.01-.4-.44-.86-.82-1.37-1.13-.51-.31-1.08-.54-1.69-.7-.61-.15-1.28-.21-1.98-.18-.9.04-1.72.25-2.43.62-.7.37-1.3.87-1.77,1.49-.46.61-.81,1.33-1.03,2.15-.21.8-.3,1.67-.26,2.59.04.96.13,1.76.25,2.38.11.58.17,1.04.19,1.38.01.23.02.44.02.66,0,.2,0,.38,0,.55l-.03.58.03.49.5-.02.13-.02ZM14.52,176.48c-.03-.55.05-1.04.21-1.45.17-.41.4-.75.73-1.03.33-.28.74-.51,1.23-.67.51-.17,1.09-.27,1.73-.3.14,0,.27,0,.4,0,.62,0,1.18.07,1.66.22.57.17,1.06.43,1.45.76.38.33.68.74.88,1.23.21.51.33,1.08.36,1.71.01.22.01.46,0,.7,0,.12-.01.23-.03.34l-8.36.39c-.04-.13-.08-.29-.12-.47-.08-.34-.13-.82-.15-1.43Z"/>
      <path class="cls-1" d="M13.65,159.61c.43.53.96.96,1.58,1.29.62.34,1.34.52,2.13.56.74.04,1.43-.05,2.06-.25.62-.2,1.2-.47,1.75-.81.53-.34,1.05-.72,1.52-1.15.47-.42.92-.85,1.36-1.3.43-.44.87-.86,1.29-1.28.41-.4.84-.76,1.27-1.07.42-.3.87-.54,1.33-.71.44-.17.92-.23,1.43-.22.35.02.67.09.96.22.28.13.52.31.72.53.2.23.35.51.46.82.11.32.15.69.13,1.1-.02.45-.12.86-.29,1.23-.18.37-.4.71-.68.99-.28.29-.6.53-.95.71-.36.19-.73.32-1.12.39l-.36.07-.05,1.12,3.7.55.16-.22c.15-.21.33-.47.52-.8.19-.32.37-.7.53-1.11.17-.41.31-.86.43-1.35.12-.5.2-1.03.22-1.57.04-.99-.08-1.87-.37-2.62-.29-.75-.69-1.38-1.19-1.87-.5-.49-1.08-.87-1.72-1.12-.64-.25-1.28-.39-1.92-.42-.87-.04-1.7.13-2.47.5-.73.35-1.45.81-2.13,1.36-.66.54-1.32,1.13-1.94,1.77-.6.61-1.21,1.18-1.81,1.71-.58.51-1.17.93-1.76,1.26-.54.3-1.1.44-1.67.42-.36-.02-.68-.08-.97-.2-.28-.11-.5-.26-.7-.46-.19-.19-.33-.44-.43-.73-.1-.3-.15-.64-.13-1.03.02-.44.1-.82.25-1.12.15-.31.33-.58.54-.8.21-.22.44-.39.67-.52.24-.13.46-.23.64-.28l.31-.09.05-1.07-3.31-.27-.41.83c-.12.23-.24.51-.36.83-.12.32-.23.68-.32,1.08-.1.41-.16.86-.18,1.34-.03.67.06,1.34.27,1.99.21.64.53,1.24.96,1.76Z"/>
      <path class="cls-1" d="M14.25,143.75h.06c.18-.04.41-.06.67-.08.28-.01.62-.01,1.04,0,.42.01.92.04,1.48.09.58.05,1.25.11,2.01.2l8.88,1.01c.77.09,1.44.17,2.01.26.57.08,1.05.16,1.46.25.4.08.74.16,1,.23.26.07.47.14.64.21l.64.08.42-3.71v-.47s-.53-.05-.53-.05h-.06c-.18.04-.41.07-.68.08-.27.01-.62.02-1.02,0-.42-.01-.91-.04-1.49-.09-.57-.04-1.25-.11-2.01-.19l-8.88-1.01c-.77-.09-1.43-.17-2-.26-.57-.09-1.06-.17-1.47-.25-.4-.08-.74-.15-1-.23-.26-.08-.47-.15-.65-.22l-.63-.08-.42,3.71v.47s.52.05.52.05Z"/>
      <path class="cls-1" d="M17.83,133.74c-.05-.58-.07-1.25-.06-1.96.01-.64.06-1.38.13-2.24.06-.73.17-1.53.33-2.39l12.41,2.46c.76.15,1.42.29,1.98.42.56.13,1.03.25,1.43.36.39.12.72.22.98.32.25.09.46.18.63.27l.62.14.73-3.67.03-.46-.51-.1h-.06c-.19.02-.42.02-.69.02-.27,0-.61-.03-1.02-.08-.41-.05-.91-.12-1.47-.21-.57-.09-1.23-.21-1.99-.36l-12.41-2.46c.18-.86.39-1.65.61-2.34.26-.82.5-1.53.73-2.12.28-.69.55-1.3.81-1.81l.33-.65-3.41-.06-.04.42c-.01.1-.03.26-.07.47l-.12.72c-.04.26-.09.54-.14.83l-.28,1.53c-.03.2-.06.34-.08.43l-1.52,7.69c-.02.09-.05.23-.09.42l-.33,1.52c-.06.29-.12.56-.2.91l-.15.63c-.05.21-.09.36-.12.46l-.11.4,3.18,1.25-.06-.73Z"/>
      <path class="cls-1" d="M36.97,119.1c.4.42.56.66.63.77l.14.18.61.19.99-3.11.09-.45-.58-.19-.13.04s-.08,0-.18-.04c-.34-.11-.66-.28-.95-.51-.34-.27-.64-.52-.91-.74l-2.76-2.41c.13-.44.27-.93.44-1.45l1.46-4.63c.21-.66.39-1.21.55-1.66l3.77-.42c.53-.05.95-.06,1.27-.04.32.03.6.08.83.15.06.02.12.04.27.11l.64.23,1.28-4.02.09-.46-.6-.18-.15.06c-.06.02-.19.06-.38.11-.22.06-.5.12-.82.19-.32.07-.69.13-1.09.2-.4.07-.81.12-1.23.17l-18.55,2.07-.51,1.61,14.49,12.97c.54.47.98.89,1.31,1.25ZM26.26,106.21l7.75-.86c-.06.2-.12.41-.19.62l-.94,3.04c-.16.53-.33,1.05-.49,1.56l-.24.75-5.9-5.12Z"/>
      <path class="cls-1" d="M29.76,90.09c.46.54,1.05.99,1.77,1.31.68.31,1.35.48,2.01.53.65.05,1.29.01,1.92-.1.61-.11,1.23-.28,1.84-.51.59-.22,1.17-.45,1.74-.7.56-.24,1.12-.48,1.67-.7.53-.22,1.06-.39,1.58-.52.5-.12,1-.16,1.49-.17.47.01.94.12,1.41.33.32.15.59.33.81.56.21.23.37.48.47.76.1.29.14.6.12.93-.02.34-.12.7-.28,1.07-.18.41-.43.75-.72,1.03-.3.28-.63.5-1,.67-.36.16-.75.27-1.15.31-.4.05-.8.03-1.18-.05l-.36-.07-.46,1.02,3.23,1.88.23-.14c.22-.14.48-.32.77-.55.3-.23.6-.51.91-.83.31-.32.61-.69.91-1.09.3-.41.56-.88.79-1.38.41-.9.62-1.77.63-2.57,0-.8-.13-1.53-.41-2.18-.28-.64-.68-1.21-1.18-1.68-.5-.47-1.05-.84-1.63-1.1-.79-.36-1.63-.52-2.48-.45-.82.05-1.65.21-2.49.47-.82.25-1.65.56-2.46.92-.8.35-1.57.66-2.32.92-.73.26-1.44.43-2.1.52-.62.08-1.18,0-1.7-.24-.33-.14-.6-.33-.82-.54-.21-.2-.37-.43-.48-.68-.1-.25-.15-.53-.13-.84.01-.31.1-.65.26-1.01.18-.4.4-.72.65-.95.25-.24.52-.42.79-.54.28-.12.55-.2.81-.23.27-.03.51-.04.7-.02l.32.03.44-.98-2.7-1.34-.31-.11-.65.59c-.2.18-.41.39-.64.64-.23.25-.46.55-.7.88-.24.34-.47.74-.66,1.18-.28.62-.44,1.27-.49,1.95-.04.68.03,1.35.24,1.99.2.65.53,1.25.99,1.78Z"/>
      <path class="cls-1" d="M44.05,63.3c.34.63.84,1.18,1.48,1.64.6.43,1.23.74,1.86.92.62.17,1.26.27,1.9.28.63.02,1.27-.03,1.9-.13.62-.1,1.24-.21,1.85-.34.6-.13,1.2-.25,1.78-.36.57-.11,1.12-.17,1.65-.19.51-.01,1.02.02,1.5.13.46.1.9.3,1.31.6.28.21.51.44.68.71.16.26.27.54.31.84.04.31.02.61-.07.94-.09.33-.25.66-.49.99-.26.36-.57.66-.91.87-.35.22-.72.37-1.11.46-.39.09-.78.11-1.18.08-.4-.04-.79-.13-1.15-.28l-.34-.14-.65.91,2.79,2.49.26-.1c.24-.09.53-.22.87-.39.34-.17.69-.38,1.06-.63.37-.26.74-.56,1.1-.89.37-.34.73-.75,1.05-1.19.58-.81.96-1.61,1.13-2.39.17-.78.18-1.53.03-2.22-.15-.69-.42-1.32-.83-1.89-.39-.55-.86-1.03-1.38-1.4-.71-.51-1.5-.82-2.34-.94-.81-.11-1.66-.12-2.53-.03-.85.08-1.72.22-2.59.41-.85.18-1.67.33-2.45.44-.77.11-1.49.14-2.16.09-.62-.04-1.15-.23-1.62-.57-.29-.21-.52-.44-.7-.69-.17-.24-.28-.5-.33-.77-.05-.27-.04-.55.04-.85.08-.3.23-.62.46-.94.26-.36.53-.63.82-.8.3-.18.6-.31.89-.37.3-.07.58-.09.84-.07.28.02.51.06.69.12l.31.09.63-.87-2.62-2.05-.79.47c-.23.13-.48.3-.75.5-.28.2-.56.44-.86.73-.3.29-.6.64-.88,1.03-.39.55-.68,1.16-.86,1.81-.18.66-.23,1.33-.16,2,.07.67.28,1.33.61,1.94Z"/>
      <path class="cls-1" d="M53.95,50.5c.28-.52.63-1.08,1.03-1.68.36-.52.81-1.12,1.34-1.8.46-.58,1-1.19,1.6-1.82l9,8.89c.55.54,1.02,1.02,1.42,1.44.39.41.73.78,1,1.1.26.31.48.58.64.8.16.21.28.4.37.56l.44.46,2.63-2.66.28-.36-.31-.32-.11-.08c-.16-.09-.36-.21-.58-.36-.23-.16-.5-.37-.8-.63-.32-.27-.69-.6-1.12-.99-.43-.39-.91-.85-1.46-1.4l-9-8.89c.62-.61,1.22-1.16,1.8-1.62.67-.55,1.26-1,1.78-1.36.6-.41,1.16-.77,1.68-1.07l.64-.36-2.81-1.93-.27.32c-.07.08-.17.2-.32.36l-.49.54c-.18.2-.37.4-.58.61l-1.07,1.13c-.14.14-.24.25-.3.31l-5.51,5.58-1.42,1.39c-.21.21-.41.4-.61.59l-.53.5c-.15.14-.27.25-.35.32l-.32.27,1.97,2.79.35-.64Z"/>
      <path class="cls-1" d="M67.92,33.63c.06.02.18.07.36.16.21.1.46.23.75.38.3.16.62.34.97.54.35.2.7.42,1.05.65l15.64,10.2,1.42-.92-2.94-19.23c-.11-.69-.18-1.3-.22-1.8-.04-.58-.02-.86.01-1v-.23s-.35-.54-.35-.54l-2.74,1.78-.35.29.36.53.1.05s.05.06.11.14c.19.3.33.63.41,1,.09.42.16.81.23,1.16l2.29,13.58-11.68-7.63c-.44-.29-.78-.56-1.01-.78-.23-.22-.41-.44-.54-.64-.03-.05-.07-.11-.14-.25l-.35-.59-3.54,2.29-.36.3.35.53.16.05Z"/>
      <path class="cls-1" d="M92.05,19.23c.1.16.21.36.33.61.13.26.26.58.41.96.15.39.32.86.5,1.42.18.56.38,1.21.6,1.95l2.52,8.58c.22.74.4,1.39.55,1.95.14.55.26,1.03.34,1.44.08.4.14.74.17,1.01.03.27.05.49.05.68l.17.62.43-.13c.24-.07.58-.16,1.08-.28l2.9-.7c.51-.13.94-.24,1.3-.35,1-.29,1.97-.67,2.86-1.1.9-.44,1.73-.97,2.47-1.57.74-.61,1.39-1.3,1.92-2.06.54-.77.96-1.63,1.23-2.56.28-.93.41-1.95.39-3.05-.02-1.09-.22-2.28-.59-3.53-.52-1.76-1.23-3.19-2.12-4.25-.9-1.07-1.93-1.86-3.07-2.35-1.14-.49-2.37-.75-3.68-.7-1.27.02-2.59.23-3.9.61-.48.14-.99.3-1.53.48l-1.55.51c-.5.17-.94.31-1.33.45-.38.13-.65.22-.81.27l-.37.1c-.15.04-.3.08-.46.11l-1.03.31.14.46.05.11ZM96.22,19.56c.08-.03.15-.06.24-.09.25-.1.51-.19.8-.29l.88-.3c.29-.1.55-.18.78-.25,1.14-.34,2.21-.46,3.19-.36.96.09,1.84.39,2.61.88.78.5,1.48,1.21,2.08,2.1.61.91,1.1,2.03,1.48,3.32.34,1.17.53,2.23.57,3.14.03.91-.05,1.72-.25,2.42-.2.69-.49,1.3-.87,1.81-.39.52-.83.97-1.33,1.35-.5.38-1.05.7-1.64.96-.6.26-1.2.49-1.8.66-.15.04-.33.09-.54.14l-.67.16c-.23.05-.44.1-.65.14-.04,0-.09.01-.13.02-.16-.46-.35-.99-.55-1.62-.26-.8-.53-1.64-.8-2.5-.27-.88-.53-1.73-.79-2.56-.25-.83-.47-1.54-.64-2.13-.08-.28-.17-.6-.28-.96l-.67-2.37c-.12-.41-.23-.82-.34-1.21l-.68-2.47Z"/>
      <path class="cls-1" d="M117.93,13.66c.06.17.11.39.17.65.06.27.11.62.16,1.03.05.42.1.91.15,1.48.04.57.08,1.25.12,2.02l.4,8.93c.03.77.05,1.45.06,2.03,0,.57,0,1.06-.01,1.48-.02.41-.04.75-.07,1.03-.03.26-.07.49-.11.66v.12s.01.52.01.52l3.73-.17.45-.08v-.45s-.04-.13-.04-.13c-.06-.18-.12-.4-.18-.66-.06-.27-.11-.61-.16-1.01-.05-.42-.1-.91-.15-1.48-.05-.57-.09-1.25-.12-2.02l-.4-8.93c-.03-.77-.05-1.44-.06-2.02,0-.57,0-1.07.02-1.5.01-.41.04-.75.07-1.02.03-.27.07-.49.12-.67v-.12s0-.53,0-.53l-3.74.17-.46.08.02.46.02.12Z"/>
      <path class="cls-1" d="M130.32,30.85c.76,1.12,1.76,2.09,2.96,2.88,1.2.78,2.59,1.35,4.13,1.69.79.17,1.57.26,2.32.26.23,0,.45,0,.68-.02.95-.07,1.86-.26,2.71-.57.85-.31,1.64-.73,2.36-1.25.72-.52,1.37-1.13,1.93-1.8.56-.68,1.05-1.43,1.44-2.24.39-.81.69-1.67.88-2.54.34-1.55.38-3.04.12-4.44-.26-1.4-.77-2.69-1.53-3.82-.76-1.13-1.75-2.1-2.96-2.9-1.2-.79-2.59-1.37-4.13-1.7-1.03-.23-2.04-.31-3-.24-.96.07-1.87.26-2.72.58-.85.31-1.64.74-2.36,1.26-.72.52-1.37,1.14-1.93,1.82-.56.68-1.05,1.44-1.44,2.25-.39.81-.69,1.67-.88,2.55-.34,1.56-.38,3.05-.12,4.45.26,1.4.78,2.68,1.54,3.8ZM132.5,26.33c-.05-1.21.07-2.49.36-3.81.26-1.19.66-2.22,1.17-3.08.51-.84,1.12-1.53,1.81-2.03.68-.49,1.45-.83,2.28-.99.37-.07.75-.11,1.13-.11.49,0,1,.06,1.52.17,1.16.25,2.14.71,2.91,1.35.77.64,1.36,1.44,1.77,2.37.41.95.65,2.03.71,3.21.06,1.2-.06,2.48-.35,3.81-.26,1.19-.66,2.23-1.17,3.09-.51.85-1.12,1.54-1.81,2.05-.69.51-1.46.85-2.28,1.01-.84.17-1.73.14-2.65-.06-1.16-.25-2.14-.71-2.91-1.36-.77-.66-1.37-1.46-1.77-2.39-.41-.95-.65-2.03-.7-3.22Z"/>
      <path class="cls-1" d="M154.03,41.02l.23-.4.05-.12c.04-.18.11-.4.2-.65.09-.26.23-.57.4-.94.18-.38.4-.82.66-1.33.26-.51.59-1.1.97-1.78l1.27-2.23c.08.06.16.12.25.17.23.15.46.29.69.42.2.11.4.22.6.31.11.05.23.11.34.16l.82,8.1c.03.32.04.64.03.94-.01.36-.05.52-.08.59l-.14.37,3.79,2.15.42.18.39-.68-.22-.25c-.1-.12-.19-.25-.27-.4-.08-.16-.16-.35-.22-.57-.07-.23-.13-.5-.19-.8-.05-.31-.1-.66-.14-1.06l-.8-7.73c.43.02.85-.03,1.26-.09.59-.1,1.16-.29,1.69-.55.53-.26,1.03-.62,1.49-1.06.45-.43.86-.96,1.21-1.57.45-.79.71-1.59.77-2.38.07-.79-.04-1.57-.31-2.3-.27-.72-.7-1.4-1.27-2.02-.56-.61-1.25-1.14-2.05-1.6-.85-.48-1.56-.83-2.15-1.06-.56-.22-.98-.41-1.27-.57-.19-.11-.38-.22-.56-.33-.17-.1-.33-.2-.46-.3l-.47-.33-.44-.24-.25.44-.04.12c-.04.18-.11.4-.2.66-.09.26-.23.58-.4.94-.18.38-.4.82-.66,1.33-.26.51-.59,1.1-.97,1.77l-4.41,7.78c-.39.68-.73,1.26-1.03,1.75-.3.49-.57.9-.8,1.25-.23.34-.43.61-.6.82-.17.21-.32.38-.46.51l-.33.55,3.26,1.85.42.18ZM158.77,31.85l4.13-7.28c.13.04.28.09.46.15.33.12.76.33,1.29.63.48.27.86.6,1.12.96.26.36.42.75.48,1.16.06.43.03.9-.09,1.4-.13.52-.36,1.07-.67,1.62-.39.69-.82,1.24-1.28,1.64-.45.39-.93.67-1.41.82-.48.15-.99.18-1.51.09-.54-.09-1.09-.29-1.64-.61-.2-.11-.39-.23-.59-.37-.09-.07-.18-.13-.27-.2Z"/>
      <path class="cls-1" d="M189.69,46.69c.65-.28,1.22-.51,1.68-.67.55-.18.83-.23.97-.24l.23-.05.44-.48-2.42-2.21-.37-.27-.42.47-.03.11s-.05.07-.11.14c-.24.26-.53.48-.86.64-.38.19-.74.36-1.06.52l-12.56,5.65,4.43-13.23c.17-.49.34-.89.5-1.17.16-.28.32-.51.49-.7.04-.04.09-.09.2-.19l.48-.48-3.11-2.85-.38-.27-.42.46v.16c-.01.07-.03.2-.07.41-.04.23-.1.5-.18.82-.08.33-.17.69-.28,1.08-.11.39-.23.78-.36,1.18l-5.93,17.71,1.25,1.14,17.87-7.7Z"/>
      <path class="cls-1" d="M189.07,57.14c-.83.41-1.65.8-2.45,1.19l-4.27,2.04c-.37.17-.69.28-.96.33-.27.05-.49.09-.65.08l-.19.03-.5.34,2.12,3.11.39-.4c.1-.1.22-.21.35-.33.12-.11.27-.23.46-.38.18-.14.39-.3.64-.47.2-.13.51-.32.95-.57.45-.25.97-.53,1.58-.85.6-.32,1.25-.65,1.96-1.01l2.11-1.08c1.3-.66,2.69-1.35,4.18-2.08l-7.49,14.32.7,1.33,16.05-1.77-8.82,7.89c-.1.09-.2.17-.29.25-.09.07-.18.14-.27.2-.24.16-.45.29-.64.37-.25.11-.34.13-.37.14l-.61.36,2.21,3.24.3.34.49-.31.06-.12c.05-.1.11-.21.2-.34.1-.14.22-.31.38-.5.17-.2.38-.43.63-.68.25-.26.57-.56.95-.89l12.51-11.32-1.12-1.64-17.59,1.95,8.21-15.71-1.37-2.01-1.38.73c-.45.23-.99.51-1.6.82-.62.31-1.3.65-2.05,1.03l-2.33,1.16c-.81.4-1.63.8-2.46,1.21Z"/>
      <path class="cls-1" d="M202.76,96.17c-.58-.1-.85-.19-.97-.24l-.21-.05-.61.2,1.08,3.09.2.42.58-.2.08-.1s.07-.04.17-.08c.34-.12.69-.15,1.07-.16.43.01.82.03,1.17.05l3.65.27c.16.43.34.9.52,1.42l1.6,4.58c.23.66.42,1.21.56,1.65l-2.76,2.6c-.39.36-.73.63-1,.8-.27.17-.52.29-.75.38-.06.02-.13.04-.28.08h-.09s-.57.2-.57.2l1.4,3.98.2.41.59-.21.09-.14c.03-.05.11-.16.24-.32.14-.18.32-.39.54-.64.22-.25.47-.52.75-.81.28-.29.58-.59.89-.88l13.59-12.79-.56-1.6-19.37-1.68c-.7-.05-1.31-.12-1.8-.21ZM219.06,100.06l-5.69,5.34c-.07-.19-.15-.4-.22-.61l-1.62-4.53-.26-.74,7.79.55Z"/>
      <path class="cls-1" d="M214.3,117.78c-.76.16-1.42.29-1.99.38-.56.1-1.05.17-1.46.22-.4.05-.74.08-1.02.09-.27,0-.5,0-.68,0l-.63.11.59,2.84.15.44.45-.09.12-.04c.16-.09.37-.17.62-.27.26-.1.59-.21.98-.33.4-.12.88-.25,1.43-.38.56-.14,1.22-.28,1.98-.44l8.06-1.68-11.29,16.12.23,1.11,14.73-3.06c.76-.16,1.42-.29,1.99-.38.56-.1,1.05-.17,1.47-.22.41-.05.76-.08,1.04-.09.27-.01.49-.01.67,0l.63-.11-.59-2.84-.15-.44-.45.09-.12.04c-.17.09-.38.18-.62.28-.26.1-.58.21-.98.33-.4.12-.88.25-1.44.38-.56.14-1.22.28-1.98.44l-8.33,1.73,11.3-16.13-.22-1.05-.15-.44-.45.09-.12.04c-.17.09-.38.18-.62.28-.26.1-.58.21-.98.33-.4.12-.88.25-1.44.38-.56.14-1.22.28-1.98.44l-8.75,1.82Z"/>
      <path class="cls-1" d="M231.17,140.36c-.41.07-.91.14-1.49.2-.58.07-1.26.13-2.03.19l-8.91.72c-.77.06-1.44.11-2.02.14-.57.03-1.06.05-1.48.04-.41,0-.75-.02-1.02-.04-.27-.03-.5-.06-.68-.09h-.11s-.52.03-.52.03l.04.46c.02.25.04.6.05,1.05l.04,1.48c.01.53.03,1.05.05,1.56.02.53.04.97.07,1.34.08,1.04.25,2.06.5,3.03.25.97.6,1.9,1.04,2.74.44.85.99,1.62,1.62,2.31.64.68,1.4,1.27,2.26,1.73.85.46,1.83.79,2.91,1,.71.13,1.47.2,2.29.2.42,0,.85-.02,1.29-.05,1.83-.15,3.37-.56,4.59-1.21,1.23-.66,2.21-1.51,2.93-2.53.71-1.01,1.19-2.18,1.44-3.46.24-1.26.3-2.58.19-3.94-.04-.5-.09-1.03-.16-1.59l-.35-3.01c-.05-.4-.08-.68-.1-.85,0-.1-.02-.23-.02-.39,0-.16-.01-.31-.02-.47l-.09-1.07-.49.05-.11.03c-.18.07-.4.13-.67.2-.28.07-.62.14-1.03.21ZM227.88,144.19c.43-.03.85-.06,1.26-.08l2.56-.16c.01.08.03.16.04.25.04.26.08.54.12.84l.12.92c.04.3.07.57.09.81.1,1.18,0,2.26-.29,3.19-.29.92-.76,1.72-1.4,2.38-.65.66-1.48,1.2-2.48,1.6-1.02.41-2.21.67-3.55.78-1.22.1-2.29.07-3.19-.09-.9-.15-1.68-.4-2.32-.74-.64-.33-1.17-.74-1.59-1.22-.43-.48-.78-1.01-1.05-1.58-.27-.57-.48-1.18-.61-1.8-.14-.64-.23-1.28-.28-1.9-.01-.15-.02-.34-.03-.56,0-.23-.02-.46-.02-.69,0-.23,0-.45,0-.66,0-.04,0-.09,0-.13.48-.07,1.04-.14,1.7-.21.83-.1,1.71-.19,2.61-.27l2.66-.25c.86-.08,1.6-.14,2.21-.19.29-.02.62-.05,1-.08l2.46-.17Z"/>
      <path class="cls-1" d="M234.78,164.83h-.46l-.12.02c-.18.05-.4.09-.66.13-.28.04-.62.08-1.03.11-.42.03-.92.05-1.49.07-.58.01-1.25.01-2.03,0l-8.94-.1c-.77,0-1.45-.03-2.03-.05-.57-.02-1.06-.06-1.48-.1-.41-.04-.75-.08-1.02-.13-.26-.05-.48-.09-.66-.15l-.64-.02-.04,3.74.05.45.52.02.07-.02c.18-.05.4-.1.67-.14.27-.05.61-.08,1.01-.11.42-.03.91-.05,1.49-.07.58-.01,1.25-.02,2.02-.01l8.94.1c.77,0,1.44.03,2.02.06.57.03,1.07.06,1.49.1.41.03.75.08,1.02.13.26.05.48.1.66.16l.64.02.04-3.74-.05-.47Z"/>
      <path class="cls-1" d="M234.15,176.59h-.06c-.18.05-.41.08-.68.1-.28.02-.62.03-1.03.03-.42,0-.92-.02-1.49-.06-.58-.04-1.25-.09-2.02-.16l-8.9-.84c-.77-.07-1.44-.15-2.01-.22-.57-.07-1.06-.14-1.46-.22-.4-.08-.73-.15-1-.22-.26-.07-.48-.14-.65-.21l-.64-.08-.27,2.89v.46s.53.05.53.05h.06c.18-.05.41-.07.67-.09.28-.02.62-.02,1.03-.02.41,0,.91.02,1.48.06.58.04,1.25.09,2.02.16l8.2.78-15.39,11.95-.16.12-.11,1.13,14.98,1.42c.77.07,1.44.15,2.01.22.57.07,1.06.14,1.47.22.41.07.74.14,1.02.22.26.07.47.13.65.2l.63.08.27-2.89v-.46s-.53-.05-.53-.05h-.06c-.18.05-.41.08-.68.1-.28.02-.62.04-1.03.03-.42,0-.92-.03-1.49-.06-.58-.04-1.25-.09-2.02-.16l-8.47-.8,15.4-11.95.16-.12.1-1.07v-.46s-.53-.05-.53-.05Z"/>
      <path class="cls-1" d="M231.06,202.14c-.19.01-.41.02-.69.01-.28,0-.62-.04-1.03-.08-.42-.05-.91-.12-1.47-.22-.57-.1-1.23-.23-1.99-.38l-8.76-1.8c-.76-.16-1.42-.3-1.98-.44-.56-.13-1.03-.26-1.43-.38-.39-.12-.71-.23-.97-.33-.25-.1-.46-.19-.63-.28l-.62-.14-1.29,6.26c-.02.09-.05.23-.09.42l-.34,1.52c-.06.29-.13.56-.19.82l-.17.71c-.05.21-.09.36-.12.46l-.12.4,3.16,1.26-.04-.72c-.04-.65-.04-1.38,0-2.16.02-.67.08-1.46.17-2.36.08-.76.2-1.58.37-2.45l7.53,1.55c-.1.45-.22.91-.36,1.39-.18.64-.36,1.23-.54,1.77-.2.63-.41,1.24-.62,1.84l-.14.4,2.86,1.25.03-.66c.02-.47.07-1.01.14-1.62.06-.53.15-1.16.26-1.91.09-.62.2-1.3.34-2.04l6.46,1.33-.09.57c-.04.28-.08.57-.13.87-.05.29-.09.55-.14.76-.13.62-.26,1.16-.41,1.63-.15.47-.28.87-.4,1.19-.14.37-.27.68-.41.95l-.19.38,2.7,1.68v-.81c.01-.15.04-.5.17-1.29.11-.66.25-1.45.42-2.37.18-.93.37-1.94.59-3.05h0c.22-1.11.44-2.22.67-3.34l.04-.46-.51-.1h-.06Z"/>
      <path class="cls-1" d="M227.06,220.35c-.19,0-.41-.03-.68-.07-.27-.04-.61-.11-1.01-.2-.41-.1-.89-.23-1.44-.39-.55-.16-1.2-.37-1.93-.61l-8.49-2.81c-.73-.24-1.37-.46-1.91-.66-.54-.2-1-.38-1.38-.54-.37-.16-.68-.31-.93-.44-.24-.13-.43-.25-.59-.35l-.6-.23-.91,2.76-.09.46.44.14.12.02c.19,0,.41.03.67.08.27.04.61.11,1.01.21.4.1.88.22,1.43.39.55.16,1.2.37,1.93.61l7.82,2.59-17.85,8.3-.36,1.08,14.28,4.72c.73.24,1.37.46,1.91.66.54.2,1,.38,1.39.54.38.16.69.31.94.44.24.12.43.24.59.34l.6.23.91-2.76.09-.46-.44-.14-.12-.02c-.19,0-.41-.03-.68-.07-.27-.04-.61-.11-1.01-.2-.41-.1-.89-.23-1.44-.39-.55-.16-1.2-.37-1.93-.61l-8.08-2.67,17.68-8.22.18-.08.34-1.02.09-.45-.43-.15-.14-.03Z"/>
      <path class="cls-1" d="M216.34,243.97c-.45-.55-1.04-1.01-1.75-1.34-.67-.32-1.34-.51-1.99-.57-.64-.06-1.29-.04-1.92.06-.62.1-1.24.25-1.85.47-.59.21-1.18.43-1.76.67-.57.23-1.13.46-1.69.67-.53.21-1.07.37-1.59.49-.5.11-1,.15-1.5.14-.47-.02-.94-.14-1.4-.36-.32-.15-.58-.34-.8-.58-.21-.23-.36-.49-.45-.77-.09-.29-.13-.6-.1-.94.03-.34.13-.7.3-1.07.19-.4.44-.75.74-1.02.31-.28.65-.49,1.01-.65.36-.15.75-.25,1.15-.29.41-.04.81-.01,1.18.07l.36.08.48-1.02-3.19-1.94-.24.14c-.22.13-.49.31-.79.53-.3.23-.61.5-.92.81-.31.31-.62.67-.92,1.07-.31.41-.58.87-.82,1.36-.43.9-.65,1.76-.68,2.56-.02.8.1,1.54.37,2.19.27.65.66,1.22,1.15,1.71.49.48,1.03.86,1.61,1.14.79.38,1.62.53,2.47.5.81-.04,1.65-.18,2.49-.42.83-.24,1.66-.53,2.48-.87.8-.33,1.58-.62,2.33-.87.74-.24,1.45-.4,2.11-.47.62-.07,1.18.02,1.7.27.32.15.59.34.81.55.21.21.36.44.46.7.1.25.14.53.12.84-.02.31-.12.65-.28,1-.19.4-.41.71-.67.94-.26.23-.53.41-.81.52-.28.12-.55.19-.81.22-.28.03-.51.03-.7,0l-.33-.04-.46.97,2.95,1.54.7-.61c.2-.17.42-.38.65-.63.23-.25.47-.53.72-.87.25-.34.48-.73.69-1.17.29-.61.47-1.26.52-1.94.06-.68,0-1.35-.2-1.99-.19-.65-.51-1.26-.95-1.8Z"/>
      <path class="cls-1" d="M210.25,260.38c-.18-.05-.39-.12-.64-.22-.26-.1-.57-.24-.95-.42-.38-.18-.82-.42-1.32-.69-.51-.28-1.09-.62-1.75-1.01l-7.68-4.57c-.66-.4-1.24-.75-1.72-1.06-.48-.31-.89-.58-1.23-.82-.33-.24-.61-.45-.82-.63-.21-.17-.37-.32-.5-.46l-.54-.34-1.91,3.21-.19.42.4.23.11.05c.18.05.4.12.65.21.26.1.57.24.93.42.37.18.81.42,1.32.69.51.28,1.09.61,1.75,1.01l7.68,4.57c.66.39,1.23.75,1.72,1.06.48.31.9.59,1.24.83.34.23.61.44.82.62.2.18.37.33.5.47l.53.35,1.92-3.23.19-.42-.4-.23-.12-.05Z"/>
      <path class="cls-1" d="M200.67,267.9c-.59-.44-1.21-.76-1.85-.95-.62-.18-1.26-.29-1.9-.31-.62-.02-1.27,0-1.91.1-.62.09-1.24.19-1.85.31-.6.12-1.2.23-1.79.33-.57.1-1.12.16-1.65.17-.52.01-1.02-.04-1.5-.16-.45-.11-.89-.32-1.3-.62-.28-.21-.51-.45-.67-.72-.16-.27-.26-.54-.29-.84-.04-.3,0-.62.08-.94.09-.33.26-.66.51-.99.27-.36.58-.65.93-.86.36-.21.73-.36,1.12-.44.39-.08.79-.1,1.19-.06.4.04.79.15,1.15.3l.33.14.67-.9-2.75-2.53-.26.09c-.24.08-.53.21-.88.37-.35.17-.7.38-1.06.62-.37.24-.74.54-1.12.87-.38.34-.74.74-1.07,1.18-.59.8-.99,1.6-1.16,2.38-.18.78-.2,1.53-.06,2.22.14.69.4,1.32.8,1.9.38.56.84,1.04,1.36,1.43.7.52,1.48.84,2.33.97.81.12,1.66.14,2.53.07.86-.07,1.73-.2,2.6-.37.85-.17,1.68-.31,2.46-.4.77-.1,1.49-.11,2.16-.05.62.05,1.15.25,1.61.59.29.21.52.45.69.7.16.24.27.5.32.77.05.27.03.55-.05.85-.08.3-.24.61-.47.93-.26.36-.54.62-.84.79-.3.18-.6.3-.89.36-.29.06-.57.08-.84.05-.27-.03-.5-.07-.69-.13l-.31-.1-.64.86,2.59,2.08.8-.46c.23-.13.48-.29.76-.49.28-.2.57-.43.87-.71s.61-.62.9-1.01c.4-.54.7-1.15.89-1.8.19-.65.25-1.32.19-1.99-.06-.68-.26-1.33-.58-1.95-.33-.63-.82-1.19-1.45-1.66Z"/>
      <path class="cls-1" d="M98.31,294.98c-1.06-.48-2.12-.81-3.16-.99-1.03-.17-2.04-.21-3.01-.12-.97.1-1.9.31-2.77.64-.87.33-1.69.77-2.42,1.31-.73.53-1.4,1.16-1.97,1.86-.57.7-1.06,1.48-1.43,2.3-.66,1.45-1,2.92-1.01,4.36,0,1.44.28,2.82.86,4.11.57,1.29,1.43,2.47,2.55,3.54,1.11,1.06,2.47,1.96,4.06,2.68.78.36,1.6.65,2.44.87.84.22,1.66.35,2.41.4h.2s2.57-2.49,2.57-2.49l-.52-.79-.36.16c-.45.2-.92.35-1.39.45-.47.1-.95.14-1.42.14-.52-.02-1.02-.05-1.52-.17-.48-.11-.95-.26-1.4-.47-1.25-.57-2.25-1.29-2.98-2.14-.73-.85-1.24-1.81-1.51-2.85-.27-1.04-.33-2.18-.18-3.37.16-1.2.53-2.44,1.08-3.67.5-1.1,1.12-2.02,1.84-2.73.71-.7,1.5-1.22,2.35-1.53.85-.31,1.76-.44,2.72-.38.97.06,1.96.32,2.95.77,1.04.47,1.92,1.08,2.62,1.81.71.73,1.24,1.52,1.6,2.36l.12.27h.87s.25-3.33.25-3.33l-.15-.15c-1.19-1.15-2.62-2.11-4.27-2.86Z"/>
      <path class="cls-1" d="M121.04,300.53l-.05.52v.06c.04.18.06.41.08.68.02.27.02.62,0,1.02-.01.42-.04.92-.08,1.49-.04.57-.1,1.25-.19,2.01l-.32,2.94c-.3-.02-.63-.05-.99-.07-.55-.04-1.14-.09-1.78-.15-.63-.05-1.29-.11-1.97-.18-.68-.06-1.34-.13-2-.2-.65-.07-1.28-.14-1.88-.21-.42-.05-.8-.1-1.16-.14l.34-3.05c.08-.77.17-1.44.25-2,.08-.57.17-1.06.24-1.48.08-.4.15-.73.23-1,.08-.26.15-.47.22-.65l.08-.64-3.73-.41h-.46s-.06.52-.06.52v.06c.04.18.07.41.08.68.02.28.02.62.01,1.03-.01.42-.04.92-.08,1.49-.04.57-.11,1.25-.19,2.02l-.98,8.89c-.08.77-.17,1.44-.25,2.01-.08.57-.16,1.05-.24,1.46-.08.4-.16.73-.24,1-.08.26-.15.47-.22.65l-.09.63,3.74.41h.47s.05-.53.05-.53v-.06c-.04-.18-.06-.41-.08-.68-.02-.27-.02-.61,0-1.02.01-.42.04-.91.08-1.49.04-.57.1-1.25.19-2.01l.4-3.61c.34.03.71.06,1.12.1.6.06,1.23.12,1.96.21l1.96.23c.69.08,1.36.16,2,.24.64.08,1.23.15,1.78.22.34.04.64.08.91.11l-.39,3.58c-.08.77-.17,1.44-.26,2-.08.57-.17,1.06-.24,1.47-.07.4-.15.73-.23.99-.08.26-.15.47-.22.65l-.08.64,3.73.41h.46s.06-.52.06-.52v-.07c-.04-.18-.07-.41-.08-.68-.02-.28-.02-.62-.01-1.03,0-.41.04-.91.08-1.48.04-.57.11-1.25.19-2.02l.98-8.89c.08-.77.17-1.44.25-2.01.08-.57.16-1.06.24-1.47.08-.4.16-.74.24-1,.08-.26.15-.48.22-.65l.09-.63-3.74-.41h-.47Z"/>
      <path class="cls-1" d="M135.82,319.5c-.07-.17-.15-.39-.23-.65-.08-.26-.16-.59-.24-.99-.08-.41-.17-.9-.26-1.46-.09-.57-.18-1.24-.27-2l-1.06-8.87c-.09-.77-.16-1.44-.21-2.01-.05-.57-.08-1.07-.1-1.49-.02-.41-.02-.75,0-1.03.02-.27.04-.5.07-.68v-.12s-.06-.52-.06-.52l-3.72.44-.45.11.05.46.03.12c.07.17.14.38.22.64.08.27.16.6.24,1.01.09.41.17.9.26,1.47.09.57.17,1.24.27,2.01l1.06,8.87c.09.77.16,1.44.21,2.02.05.57.08,1.06.09,1.48.01.41.01.75,0,1.03-.01.27-.03.49-.06.67v.12s.06.52.06.52l3.72-.44.45-.11-.05-.46-.03-.12Z"/>
      <path class="cls-1" d="M151.65,313.33c-.56.33-1.21.67-1.92,1-.62.29-1.35.61-2.17.93-.71.28-1.5.54-2.35.79l-3.39-12.18c-.21-.74-.38-1.4-.51-1.96-.13-.56-.24-1.05-.32-1.46-.08-.4-.13-.74-.16-1.01-.03-.27-.04-.49-.04-.68l-.15-.62-3.62,1.01-.43.18.13.44.05.11c.1.16.2.36.32.6.12.25.25.57.4.95.15.4.31.87.48,1.41.17.55.36,1.2.57,1.94l2.4,8.61c.21.74.38,1.4.52,1.96.14.55.24,1.04.32,1.44.08.4.12.74.15,1.01.03.27.04.5.04.68l.15.62,6.16-1.72c.07-.02.19-.05.42-.11l1.51-.39c.28-.08.55-.14.82-.21l.71-.17c.21-.05.36-.08.46-.1l.41-.08-.32-3.39-.62.37Z"/>
      <path class="cls-1" d="M166.98,306.2c-.5.44-1.06.9-1.69,1.35-.54.4-1.19.85-1.95,1.33-.65.41-1.37.83-2.15,1.23l-3.46-6.86c.42-.2.85-.39,1.31-.58.61-.25,1.19-.48,1.72-.68.62-.23,1.23-.45,1.83-.66l.4-.14-.79-3.02-.54.39c-.38.27-.84.57-1.36.9-.45.28-1,.61-1.66.99-.54.32-1.15.65-1.81,1l-2.97-5.89.5-.29c.24-.14.49-.29.76-.44.26-.14.49-.27.68-.36.57-.28,1.08-.52,1.53-.69.46-.18.85-.32,1.18-.42.37-.12.7-.21.99-.27l.41-.08-.36-3.16-.64.5c-.17.13-.54.36-1.11.67-.58.32-1.29.7-2.12,1.14-.83.44-1.75.91-2.76,1.43h0c-1,.52-2.02,1.03-3.04,1.55l-.39.26.21.41.07.1c.13.14.27.32.43.53.16.22.36.51.57.86.22.36.47.79.74,1.29.28.51.59,1.11.94,1.8l4.02,7.98c.35.69.64,1.3.89,1.82.24.52.44.97.59,1.36.15.38.27.7.35.96.08.26.13.48.17.66l.27.58,5.71-2.88c.08-.04.21-.1.39-.19l1.4-.68c.27-.13.52-.25.76-.36l.66-.3c.19-.09.34-.15.44-.19l.38-.16-.97-3.26-.54.48Z"/>
      <g>
        <g>
          <path class="cls-1" d="M139.02,192.87h3.34v25.83h1.39c.87,0,1.65-.17,2.32-.52,2.16-1.11,4.72-1.7,7.4-1.7,2.43,0,4.75.48,6.77,1.39.64.29,1.18-.1,1.18-.8v-29.04c-2.38-1.06-5.09-1.67-7.94-1.67h0c-3.88,0-7.58,1.04-10.41,2.92l-.61.41h-6.63v34.86s47.84,0,47.84,0v-3.26h-44.66v-28.41Z"/>
          <path class="cls-1" d="M183.57,189.69l-.61-.41c-2.83-1.88-6.53-2.92-10.41-2.92,0,0,0,0-.01,0s0,0-.01,0c-.93,0-1.85.07-2.75.19-.19.03-.38.07-.57.11-.6.09-1.91.39-1.91.39-.95.25-1.83.59-2.69.97v29.05c0,.7.54,1.09,1.18.8,2.01-.91,4.33-1.38,6.75-1.39,2.68,0,5.24.59,7.39,1.7.67.34,1.45.52,2.32.52h1.41v-29.01h-.1Z"/>
        </g>
        <path class="cls-1" d="M109.05,204.42c-.15-1.6-.85-3.12-1.96-4.26,0,0-8.14-8.33-8.67-8.86-.43-.43-.53-.77-.4-1.36.29-1.32,0-2.69-.78-3.76-.74-1.01-1.81-1.62-3.02-1.73-.83-.08-1.67-.06-2.48-.05-.27,0-.54,0-.82.01h0c-.24,0-.4-.09-.58-.23-.32-.25-.7-.55-1.11-.8-1.77-1.09-4.94-1.04-6.83.77-.19.18-.38.26-.63.26-.02,0-.04,0-.05,0-.33-.01-.67-.01-.99,0-.61,0-1.22,0-1.82,0h-.01c-.67,0-1.32.16-1.93.49-1.86.98-2.79,3.17-2.27,5.33.07.29.03.45-.17.65-.3.31-9,9.28-9,9.28-1.12,1.14-1.81,2.67-1.96,4.29-.26,2.72-.18,3.67-.1,4.15.13.77.48,1.44,1,1.96h0c.19.2.46.33.75.33.35,0,.64-.18.83-.45h.02s8.71-12.07,8.71-12.07l1.9,1.94-10.3,14.27v.05c-.23.3-.38.65-.38,1.05,0,.34.12.64.29.92v.07c.78,1.41,1.7,2.75,2.74,3.96.59.7,1.34,1.18,2.16,1.43.96.29,1.97-.26,2.27-1.22l5.78-18.79,2.47,1.08-6.43,20.9c-.21.67-.02,1.42.51,1.88.4.35.84.64,1.32.85,1.17.53,2.39.97,3.63,1.29,1.03.27,2.08.22,3.07-.12.71-.24,1.17-.95,1.17-1.71v-22.39h2.67v22.47c0,.78.49,1.51,1.23,1.72.95.27,1.99.29,3.03.01,1.23-.32,2.45-.75,3.62-1.29.46-.21.93-.56,1.37-1.01.49-.5.64-1.24.43-1.91l-6.38-20.72,2.47-1.08,5.77,18.77c.29.96,1.31,1.51,2.27,1.22.81-.25,1.55-.72,2.14-1.42,1.03-1.21,1.95-2.54,2.73-3.95v-.06c.16-.27.28-.57.28-.91,0-.39-.15-.74-.37-1.04v-.06s-10.32-14.29-10.32-14.29l1.9-1.94,8.72,12.09h.02c.19.25.48.43.82.43.29,0,.55-.12.74-.31h0c.54-.52.9-1.21,1.03-1.99.08-.48.16-1.43-.1-4.17Z"/>
        <path class="cls-1" d="M108.88,119.46h0s-.02-.02-.02-.02l-7.39-10.09c-1.57-2.14-4.78-2.1-6.29.08l-4.11,5.94c-.31.45-1.6,2.31-1.6,2.31h0s-2.72-3.9-2.72-3.9c-1.39-2.01-4.27-2.28-6-.55l-13.2,13.51c-.37.37-.63.83-.76,1.34l-.87,3.62c-.09.36-.27.67-.57.98l-11.18,12.1,3.37,1.02,8.54-9.15c.28-.06.55-.12.78-.18,2.22-.62,4.87-2.84,5.46-.62.62,2.22-2.68,5.54.13,5.77,2.73.25,5.33-1.35,11.64-5.19,3.92-2.38,6.05-.45,7.64.37,1.45.71,7.18,4.32,9.91,3.84l3.6,5.15,3.19-.97-14.12-20.03c1.52-.92,6.37,3.46,8.06,3.33,1.75-.14,1.36-.76,1.1-2.12-.87-4.07,1.38-2.01,2.76-1.66.49.13,1.41.16,2.28.08l3.37,4.59.08.11,3.25-.98-6.36-8.68ZM83.56,116.63c-.5,1.6-1.22,3.36-1.99,4.82-.85,1.59-1.04,1.87-1.51,3.48-.17,1.28-1.47,4.47-2.76,3.73-3.48-1.98-4.3.04-5.91-.04-.45-.02-.67-.59-.35-.91,2.36-2.39,11.12-11.37,11.27-11.58.52-.73,1.54-.32,1.25.5ZM98.76,112.21s-1.45,4.99-2.44,5.93c-1,.96-4.16.69-2.83-.67l3.11-4.48s.72-1.42,1.56-1.35c.78.07.6.57.6.57Z"/>
        <g>
          <path class="cls-1" d="M161.88,116.57c-.06,0-.12-.01-.19-.02-5.59-.56-10.64,3.47-11.3,9.06-.33,2.74.44,5.44,2.15,7.61,1.71,2.17,4.17,3.54,6.91,3.86.06,0,.12.01.19.02,5.59.56,10.64-3.47,11.3-9.06.33-2.74-.44-5.44-2.15-7.61-1.71-2.17-4.17-3.54-6.91-3.86Z"/>
          <path class="cls-1" d="M176.09,123.54s-.46-1.72-.46-1.7c3.04-3.19,4.55-6.72,5.16-8.71.2-.65.05-1.35-.37-1.88-.39-.49-.8-.97-1.23-1.44l-.8.83c-1.77,1.83-4.78,3-8.37,3.5.02.02-.98-.67-1.54-.99.83-5.01-.67-8.93-1.78-11.14-.26-.52-.74-.89-1.31-1-.75-.14-1.08-.19-2.19-.31h-.02c-.61,3.5-3.35,7.85-5.36,10.67.05-.01-1.83.44-1.75.42-3.24-3.03-6.84-4.51-8.92-5.1-.62-.18-1.3-.07-1.81.33-.54.43-1.07.87-1.58,1.34l.82.75c1.85,1.69,3.08,4.6,3.68,8.1.06-.07-1.1,1.65-1.08,1.62-5-.76-9,.9-11.21,1.99-.58.29-.98.83-1.1,1.46-.12.64-.16,1.05-.28,2.08,3.43.54,7.76,3.11,10.63,5.04,0-.04.32,1.54.59,2.35,0-.02-.02-.05-.03-.07-2.94,3.19-4.4,6.71-5.01,8.8-.18.62-.07,1.29.33,1.8.44.56.91,1.1,1.4,1.63l.67-.73c1.71-1.88,4.67-3.14,8.23-3.74-.02-.02,1.68,1.08,1.67,1.08-.93,4.96.35,8.66,1.48,10.99.27.55.78.94,1.38,1.06.64.12,1.07.19,2.14.32h0c.73-3.56,3.71-7.96,5.8-10.7,0,0-.01,0-.02,0,.7-.14,1.85-.48,1.85-.48,3.21,2.92,6.74,4.36,8.9,4.97.63.18,1.31.07,1.82-.34.57-.46,1.13-.95,1.66-1.46l-.68-.6c-1.93-1.7-3.25-4.69-3.9-8.31,0,0,1.1-1.79,1.09-1.77,0,0,0,0,0,0,4.78.58,9.13-1.22,11.08-2.25.56-.3.94-.83,1.04-1.46.02-.13.05-.31.09-.61.07-.52.1-1.04.13-1.56-3.48-.43-7.9-2.91-10.82-4.77ZM173.67,128.36c-.84,7.08-7.23,12.18-14.3,11.47-.08,0-.16-.02-.23-.02-3.47-.41-6.58-2.15-8.74-4.89-2.17-2.74-3.13-6.16-2.72-9.63.85-7.16,7.39-12.25,14.54-11.44,3.47.41,6.58,2.15,8.74,4.89,2.17,2.74,3.13,6.16,2.72,9.63Z"/>
        </g>
      </g>
    </g>
  </g>
</svg>