<?xml version="1.0" encoding="UTF-8"?>
<svg id="Capa_2" data-name="Capa 2" xmlns="http://www.w3.org/2000/svg" viewBox="0 0 324.85 57.76">
  <defs>
    <style>
      .cls-1 {
        fill: #fff;
      }
    </style>
  </defs>
  <g id="Capa_1-2" data-name="Capa 1">
    <g>
      <path class="cls-1" d="M0,50.96v-9.58c0-.72.35-1.4.93-1.83l12.61-9.29L.93,20.98C.35,20.55,0,19.87,0,19.15v-9.58l18.71,13.78c4.66,3.43,4.66,10.41,0,13.84L0,50.96Z"/>
      <g>
        <rect class="cls-1" x="34.41" y="0" width="8.94" height="8.6" rx="4.3" ry="4.3"/>
        <path class="cls-1" d="M34.71,46.85h7.35c.55,0,.99-.44.99-.99V13.71h-8.33v33.14Z"/>
        <path class="cls-1" d="M68.5,13.04c-1.57,0-3.1.41-4.6,1.24-1.5.83-2.77,1.98-3.8,3.46-.18.25-.32.52-.47.79v-4.82h-8.4v33.14h7.4c.55,0,1-.45,1-1v-13.25c0-1.84.06-3.24.17-4.2.11-.96.26-1.76.44-2.39.4-1.12.93-2.02,1.58-2.69.65-.67,1.39-1.17,2.22-1.48.83-.31,1.69-.47,2.59-.47.76,0,1.52.11,2.29.34.76.23,1.39.47,1.88.74l4.03-7.53c-1.08-.67-2.12-1.15-3.13-1.45-1.01-.29-2.07-.44-3.19-.44Z"/>
        <path class="cls-1" d="M152.61,15.26c-2.49-1.48-5.34-2.22-8.57-2.22s-6.04.74-8.57,2.22c-2.53,1.48-4.51,3.51-5.95,6.08-1.43,2.58-2.15,5.54-2.15,8.91s.73,6.29,2.18,8.91c1.46,2.62,3.44,4.67,5.95,6.15,2.51,1.48,5.35,2.22,8.54,2.22s6.09-.75,8.6-2.25c2.51-1.5,4.48-3.55,5.91-6.15,1.43-2.6,2.15-5.56,2.15-8.87s-.73-6.33-2.18-8.91c-1.46-2.58-3.43-4.6-5.92-6.08ZM151.33,35.56c-.65,1.48-1.59,2.62-2.82,3.43-1.23.81-2.7,1.21-4.4,1.21s-3.25-.4-4.5-1.21c-1.26-.81-2.22-1.95-2.89-3.43-.67-1.48-1.01-3.25-1.01-5.31s.34-3.89,1.01-5.34c.67-1.46,1.63-2.58,2.89-3.36,1.25-.78,2.76-1.18,4.5-1.18s3.17.39,4.4,1.18c1.23.78,2.17,1.9,2.82,3.36.65,1.46.97,3.24.97,5.34s-.33,3.83-.97,5.31Z"/>
        <path class="cls-1" d="M184.63,13.04c-1.57,0-3.1.41-4.6,1.24-1.5.83-2.77,1.98-3.8,3.46-.18.25-.32.52-.47.79v-4.82h-8.4v33.14h7.41c.55,0,.99-.44.99-.99v-13.26c0-1.84.06-3.24.17-4.2.11-.96.26-1.76.44-2.39.4-1.12.93-2.02,1.58-2.69.65-.67,1.39-1.17,2.22-1.48.83-.31,1.69-.47,2.59-.47.76,0,1.52.11,2.29.34.76.23,1.39.47,1.88.74l4.03-7.53c-1.08-.67-2.12-1.15-3.13-1.45-1.01-.29-2.07-.44-3.19-.44Z"/>
        <path class="cls-1" d="M250.16,14.92c-1.75-1.25-4.03-1.88-6.86-1.88-1.88,0-3.66.39-5.34,1.18-1.65.77-3.1,2.05-4.36,3.84-.15-.24-.28-.49-.45-.71-1.17-1.57-2.53-2.68-4.1-3.33-1.57-.65-3.23-.97-4.97-.97-1.12,0-2.25.17-3.39.5-1.14.34-2.24.9-3.29,1.68-.96.72-1.8,1.7-2.52,2.93v-4.44h-8.4v33.14h7.4c.55,0,1-.45,1-1v-15.74c0-2.24.25-4.08.74-5.51.49-1.43,1.22-2.51,2.18-3.23.96-.72,2.14-1.08,3.53-1.08,1.75,0,3.08.63,4,1.88.92,1.25,1.38,3.14,1.38,5.65v19.02h7.34c.55,0,.99-.44.99-.99v-15.75c0-2.24.24-4.08.71-5.51.47-1.43,1.18-2.51,2.12-3.23.94-.72,2.08-1.08,3.43-1.08s2.35.29,3.16.87c.81.58,1.42,1.45,1.85,2.59.43,1.14.64,2.54.64,4.2v18.89h7.34c.55,0,.99-.44.99-.99v-19.91c0-2.19-.42-4.27-1.24-6.22-.83-1.95-2.12-3.55-3.87-4.81Z"/>
        <polygon class="cls-1" points="290.89 0 281.95 0 274.42 9.55 280.54 9.55 290.89 0"/>
        <path class="cls-1" d="M283.69,46.85h8.33v-20.9c0-4.03-1.28-7.19-3.83-9.48-2.55-2.29-6.12-3.43-10.69-3.43-2.82,0-5.46.41-7.9,1.24-2.19.75-4.34,1.91-6.44,3.5-.4.31-.48.89-.18,1.29l3.69,4.98c1.39-1.25,2.99-2.23,4.81-2.92,1.81-.69,3.6-1.04,5.34-1.04,2.11,0,3.77.48,5.01,1.45,1.23.96,1.85,2.43,1.85,4.4v.81h-9.54c-1.57,0-3.04.13-4.4.4-1.37.27-2.61.74-3.73,1.41-1.3.72-2.34,1.76-3.13,3.13-.78,1.37-1.18,3.01-1.18,4.94,0,2.15.55,4.06,1.65,5.71,1.1,1.66,2.6,2.94,4.5,3.83,1.9.89,4.07,1.34,6.49,1.34,1.7,0,3.32-.34,4.84-1.01,1.19-.52,2.54-1.74,3.64-2.94.31-.33.86-.11.86.34v2.94ZM282.59,37.14c-.74,1.14-1.73,2.04-2.96,2.69-1.23.65-2.59.97-4.07.97-1.76,0-3.14-.43-4.14-1.29-.85-.73-1.33-1.85-1.3-2.98.01-.54.12-1.04.34-1.48.22-.47.56-.86,1.01-1.18.49-.4,1.09-.66,1.78-.77.69-.11,1.4-.17,2.12-.17h8.33v.27c0,1.48-.37,2.79-1.11,3.93Z"/>
        <path class="cls-1" d="M98.82,25.29c.65-1.44,1.57-2.56,2.76-3.37,1.19-.81,2.61-1.21,4.27-1.21s3.03.39,4.24,1.18c1.21.78,2.14,1.89,2.79,3.33.65,1.44.98,3.14.98,5.12s-.32,3.67-.98,5.08c-.65,1.41-1.58,2.51-2.79,3.3-1.21.78-2.62,1.18-4.24,1.18s-3.08-.39-4.27-1.18c-1.19-.79-2.11-1.9-2.76-3.33-.65-1.44-.98-3.12-.98-5.05s.33-3.61.98-5.05M98.59,43.79c0-.49.6-.72.93-.36,1.08,1.22,2.44,2.47,3.61,3.03,1.55.74,3.22,1.11,5.02,1.11,2.56,0,4.91-.69,7.07-2.05,2.15-1.37,3.87-3.33,5.15-5.89,1.28-2.56,1.92-5.66,1.92-9.29,0-3.28-.57-6.23-1.72-8.85-1.14-2.62-2.77-4.69-4.88-6.19-2.11-1.5-4.62-2.26-7.54-2.26-1.66,0-3.27.33-4.81.98-1.19.5-2.66,1.85-3.81,3.14-.33.37-.93.14-.93-.35v-3.09h-8.28v44.05h8.28v-13.97Z"/>
        <path class="cls-1" d="M320.68,28.56c-1.26-.76-2.6-1.37-4.04-1.82-1.44-.45-2.83-.83-4.17-1.14-1.44-.36-2.59-.68-3.47-.98-.88-.29-1.5-.64-1.88-1.04-.38-.4-.57-.9-.57-1.48,0-.85.41-1.53,1.25-2.02.83-.49,1.89-.74,3.2-.74,1.48,0,2.89.33,4.21.98,1.04.51,1.93,1.23,2.65,2.14.33.42.96.46,1.38.13l4.36-3.45c-1.26-1.98-2.96-3.49-5.12-4.54-2.15-1.05-4.55-1.58-7.2-1.58-4.41,0-7.8,1.24-10.18,3.72-1.59,1.66-2.35,3.89-2.34,6.18.01,1.72.36,3.15,1.04,4.3.7,1.17,1.61,2.12,2.73,2.86,1.12.74,2.36,1.34,3.7,1.79,1.35.45,2.65.85,3.9,1.21,1.21.31,2.31.64,3.3.98.99.34,1.77.77,2.36,1.28.58.52.88,1.18.88,1.99,0,.99-.46,1.81-1.38,2.46-.92.65-2.21.98-3.87.98-2.11,0-3.87-.53-5.29-1.58-1.08-.81-1.97-1.67-2.67-2.6-.34-.46-1.01-.51-1.44-.13l-4.87,4.24c.76.99,1.78,2.02,3.06,3.1,1.28,1.08,2.84,1.98,4.68,2.69,1.84.72,3.99,1.08,6.46,1.08,2.74,0,5.12-.47,7.14-1.41,2.02-.94,3.59-2.26,4.71-3.94,1.12-1.68,1.68-3.62,1.68-5.82,0-1.93-.38-3.52-1.14-4.78-.76-1.26-1.77-2.27-3.03-3.03"/>
      </g>
    </g>
  </g>
</svg>