<?xml version="1.0" encoding="UTF-8"?>
<svg id="Capa_2" data-name="Capa 2" xmlns="http://www.w3.org/2000/svg" viewBox="0 0 247.38 334.79">
  <defs>
    <style>
      .cls-1 {
        fill: #243746;
      }
    </style>
  </defs>
  <g id="Capa_1-2" data-name="Capa 1">
    <g>
      <path class="cls-1" d="M123.69,330.73c-66.08,0-119.85-73.27-119.85-163.33S57.6,4.06,123.69,4.06s119.85,73.27,119.85,163.33-53.77,163.33-119.85,163.33M123.69,0C55.38,0,0,74.95,0,167.4s55.38,167.4,123.69,167.4,123.69-74.94,123.69-167.4S192,0,123.69,0"/>
      <path class="cls-1" d="M203.74,251.32c-1.51,0-2.73,1.22-2.73,2.73s1.22,2.73,2.73,2.73,2.73-1.22,2.73-2.73-1.22-2.73-2.73-2.73"/>
      <path class="cls-1" d="M43.67,251.32c-1.51,0-2.73,1.22-2.73,2.73s1.22,2.73,2.73,2.73,2.73-1.22,2.73-2.73-1.22-2.73-2.73-2.73"/>
      <path class="cls-1" d="M125.72,289.09v-119.76h76.45c-.66,65.21-34.51,118.1-76.45,119.76M45.24,169.33h76.45v119.76c-41.94-1.65-75.78-54.55-76.45-119.76M121.69,45.7v119.6H45.25c.71-65.13,34.54-117.95,76.44-119.6M202.16,165.3h-76.44V45.7c41.9,1.65,75.73,54.46,76.44,119.6M123.71,41.59c-45.58,0-82.53,56.32-82.53,125.8s36.95,125.8,82.53,125.8,82.52-56.32,82.52-125.8-36.95-125.8-82.52-125.8"/>
      <path class="cls-1" d="M34.37,187.25c-.42-.94-.99-1.75-1.72-2.37-.72-.63-1.61-1.08-2.64-1.35-1.02-.26-2.22-.31-3.57-.13l-7.35.97c-.77.1-1.43.18-2.01.23-.57.05-1.07.09-1.5.11-.4.03-.74.03-1.02.02-.27-.01-.49-.03-.68-.06h-.12s-.52.07-.52.07l.38,2.88.11.45.46-.06.12-.03c.17-.07.38-.15.63-.23.27-.08.6-.16,1.01-.25.41-.09.9-.18,1.46-.28.57-.1,1.24-.19,2-.29l7.64-1.01c1.01-.13,1.87-.1,2.55.11.67.2,1.23.52,1.66.93.44.43.77.92.99,1.51.24.61.4,1.25.49,1.91.09.66.1,1.33.03,1.98-.07.63-.26,1.21-.57,1.73-.3.51-.76.97-1.36,1.34-.6.38-1.41.64-2.43.77l-7.64,1.01c-.77.1-1.44.18-2.01.24-.57.06-1.07.09-1.48.12-.41.02-.75.02-1.04,0-.27-.01-.49-.03-.68-.06h-.12s-.52.07-.52.07l.49,3.72.12.45.45-.06.13-.03c.17-.07.38-.15.64-.23.27-.08.6-.17,1-.26.41-.09.9-.18,1.46-.28.57-.09,1.24-.19,2.01-.29l7.49-.99c1.36-.18,2.5-.55,3.4-1.1.91-.55,1.63-1.26,2.14-2.1.51-.83.83-1.78.97-2.82.13-1.02.12-2.11-.03-3.24-.15-1.14-.43-2.18-.84-3.11"/>
      <path class="cls-1" d="M13.31,176.9c.18-.05.4-.11.66-.16.27-.05.62-.1,1.02-.14.42-.04.92-.07,1.49-.1.58-.03,1.25-.04,2.02-.05l8.94-.1c.77-.01,1.44,0,2.02,0,.57.01,1.07.03,1.48.07.41.03.75.07,1.02.11.27.04.49.09.67.14l.64.02-.03-2.91-.06-.45h-.45l-.13.02c-.18.05-.4.1-.67.15-.27.05-.61.09-1.02.13-.41.04-.9.07-1.47.1-.58.02-1.25.04-2.02.05l-8.23.09,14.04-13.51.14-.14v-1.14s-15.06.17-15.06.17c-.77,0-1.45,0-2.02,0-.57-.01-1.07-.03-1.49-.06-.41-.03-.76-.07-1.03-.11-.27-.04-.49-.09-.67-.13l-.64-.02.03,2.91.06.45h.45l.13-.02c.18-.05.4-.11.67-.16.27-.05.61-.1,1.02-.14.42-.04.92-.07,1.49-.1.58-.03,1.25-.04,2.02-.05l8.51-.1-14.2,13.65v1.08s.07.45.07.45h.52l.07-.02Z"/>
      <path class="cls-1" d="M13.6,151.28h.06c.18-.05.4-.08.67-.1.28-.03.62-.04,1.03-.04.42,0,.92.01,1.49.04.58.03,1.25.07,2.02.13l8.91.69c.77.06,1.44.12,2.02.18.57.06,1.06.13,1.47.19.41.07.74.14,1.01.2.26.06.48.13.65.19l.64.06.29-3.72-.02-.46-.52-.03h-.06c-.18.05-.41.08-.67.11-.56.05-1.38.05-2.51,0-.58-.02-1.25-.06-2.02-.12l-8.91-.68c-.77-.06-1.44-.12-2.02-.19-.57-.06-1.06-.13-1.48-.2-.4-.06-.74-.12-1.01-.2-.26-.06-.48-.13-.65-.2l-.64-.06-.29,3.73.02.47.52.03Z"/>
      <path class="cls-1" d="M18.48,122.45c-.47-.37-.66-.59-.73-.68l-.16-.16-.64-.13-.53,3.25-.02.47.64.07.09-.03c.06,0,.12,0,.19.01.35.06.69.18,1.01.37l12.61,8.04-13.5,3.52c-.5.13-.93.2-1.25.22-.32.02-.61,0-.87-.03-.05-.01-.11-.02-.26-.06l-.67-.16-.68,4.18-.02.45.6.12.15-.09c.05-.03.18-.09.36-.17.21-.09.47-.19.79-.3.32-.11.67-.23,1.06-.36.38-.12.78-.24,1.19-.34l18.07-4.72.27-1.67-16.22-10.75c-.6-.39-1.09-.74-1.48-1.05"/>
      <path class="cls-1" d="M41.24,111.33l-3.06-1.46v.72c-.01.66-.06,1.39-.14,2.16-.06.68-.17,1.47-.32,2.34-.13.75-.31,1.57-.53,2.42l-7.41-2.04c.13-.44.28-.9.45-1.36.22-.63.44-1.2.65-1.73.25-.61.49-1.21.74-1.8l.16-.39-2.77-1.44-.08.66c-.05.47-.14,1.01-.25,1.61-.1.52-.22,1.15-.38,1.89-.13.62-.29,1.29-.48,2.02l-6.36-1.76.12-.56c.06-.28.12-.56.19-.86.06-.29.13-.54.18-.75.16-.6.34-1.13.52-1.6.18-.46.34-.84.48-1.16.16-.35.32-.66.47-.91l.22-.36-2.59-1.86-.06.81c-.01.15-.06.49-.25,1.27-.15.65-.34,1.43-.58,2.34-.24.91-.5,1.91-.79,3-.29,1.09-.59,2.19-.89,3.29l-.07.46.44.12.12.02c.19,0,.41.01.69.04.28.02.61.07,1.02.15.41.08.9.18,1.45.31.56.14,1.22.31,1.96.51l8.62,2.38c.75.21,1.39.39,1.94.56.55.17,1.02.33,1.4.47.39.15.7.28.95.39.24.12.44.22.6.32l.62.19,1.7-6.16.56-1.91c.08-.28.16-.55.25-.81l.22-.7c.06-.2.12-.35.15-.45l.14-.39Z"/>
      <path class="cls-1" d="M26.79,95.49c.02-.13.05-.29.09-.47.07-.35.22-.81.45-1.37.2-.51.47-.93.79-1.24.32-.3.67-.51,1.09-.64.41-.12.88-.16,1.4-.11.54.06,1.11.21,1.7.45.73.29,1.34.64,1.79,1.04.45.39.79.83,1,1.29.22.47.31.95.3,1.49-.02.55-.14,1.11-.37,1.71-.08.21-.18.42-.29.64-.05.1-.11.2-.16.3l-7.78-3.09ZM24.25,98.56c.19.02.41.06.67.11.28.06.61.15.99.27.4.13.87.28,1.41.47.54.19,1.17.43,1.89.72l8.31,3.3c.73.29,1.35.55,1.87.78.52.23.97.44,1.34.62.36.18.66.34.89.48.23.14.42.27.57.39l.58.27,1.39-3.5.11-.44-.41-.18-.14-.03c-.19-.02-.41-.06-.67-.11-.27-.06-.6-.15-.98-.26-.4-.13-.87-.28-1.41-.47-.54-.19-1.17-.43-1.89-.72l-2.38-.95c.04-.09.09-.18.13-.27.12-.25.23-.49.32-.74.08-.21.16-.43.23-.63.04-.12.08-.24.12-.36l7.91-1.92c.32-.08.63-.13.94-.16.35-.04.52-.02.59,0l.38.09,1.61-4.05.11-.44-.72-.31-.22.25c-.1.12-.22.22-.37.33-.15.1-.33.2-.54.3-.22.1-.47.2-.76.29-.3.1-.64.19-1.03.28l-7.55,1.85c-.05-.42-.14-.84-.27-1.23-.18-.57-.44-1.11-.78-1.6-.33-.49-.76-.94-1.25-1.33s-1.08-.72-1.73-.98c-.84-.33-1.66-.48-2.46-.44-.8.04-1.55.26-2.23.63-.68.37-1.29.88-1.82,1.53-.52.64-.96,1.4-1.3,2.25-.36.91-.61,1.65-.76,2.27-.14.57-.27,1.02-.39,1.33-.08.21-.16.41-.25.61-.08.18-.15.35-.23.5l-.27.52-.17.46.45.19.14.03Z"/>
      <path class="cls-1" d="M34.61,79.55c.42.58.98,1.06,1.67,1.43.64.35,1.3.58,1.96.67.64.09,1.29.1,1.92.03.62-.06,1.25-.19,1.88-.37.6-.18,1.2-.37,1.79-.58.58-.2,1.16-.4,1.72-.58.58-.18,1.1-.32,1.61-.4.51-.08,1.01-.11,1.5-.06.47.04.93.19,1.38.43.3.16.56.37.76.61.2.25.34.51.41.8.08.29.1.61.05.94-.04.33-.16.69-.36,1.05-.21.4-.48.73-.79.98-.32.26-.67.46-1.04.59-.37.13-.77.21-1.17.23-.4,0-.8-.03-1.18-.14l-.35-.09-.53.98,3.08,2.11.24-.12c.23-.12.5-.28.82-.49.33-.22.65-.48.96-.76.32-.29.65-.63.98-1.02.33-.39.63-.84.89-1.32.48-.89.74-1.71.81-2.52.07-.8-.02-1.54-.25-2.2-.23-.66-.59-1.25-1.06-1.77-.47-.51-.99-.92-1.55-1.22-.77-.41-1.59-.63-2.44-.63-.83,0-1.67.1-2.51.29-.83.19-1.68.44-2.52.74-.81.29-1.61.54-2.38.75-.74.2-1.45.32-2.13.37-.61.03-1.18-.08-1.68-.36-.32-.18-.58-.37-.79-.6-.2-.21-.34-.45-.42-.72-.09-.26-.11-.54-.07-.84.04-.32.15-.64.34-.99.21-.39.45-.69.71-.9.27-.22.55-.38.83-.48.3-.11.57-.16.82-.18.3,0,.53,0,.7.03l.32.05.51-.94-2.86-1.69-.73.57c-.21.16-.43.36-.68.59-.25.23-.5.51-.76.83-.26.33-.51.71-.74,1.13-.32.59-.53,1.23-.62,1.91-.09.67-.06,1.34.09,2,.16.66.44,1.28.85,1.85"/>
      <path class="cls-1" d="M41.55,63.51c.18.06.38.14.63.26.25.12.56.28.92.48.37.2.79.46,1.28.77.49.31,1.05.68,1.69,1.11l7.41,5.01c.64.43,1.2.82,1.66,1.15.46.34.86.63,1.18.89.32.26.58.48.79.68.19.18.35.34.47.48l.52.37,2.09-3.09.2-.4-.36-.26-.13-.06c-.18-.06-.39-.14-.64-.25-.25-.11-.55-.27-.91-.47-.36-.21-.79-.46-1.28-.76s-1.05-.67-1.69-1.1l-7.41-5c-.64-.43-1.19-.82-1.65-1.16-.46-.34-.86-.64-1.19-.9-.32-.26-.58-.48-.78-.67-.19-.19-.35-.35-.47-.5l-.52-.37-2.09,3.09-.2.4.36.26.13.06Z"/>
      <path class="cls-1" d="M52.38,51.2c.05-.06.1-.13.15-.2.16-.21.34-.43.53-.66l.59-.71c.19-.23.37-.44.54-.62.8-.88,1.65-1.55,2.53-1.98.86-.42,1.75-.61,2.69-.61.93.02,1.89.26,2.87.71.99.46,2,1.16,3,2.06.91.82,1.62,1.62,2.13,2.38.5.75.85,1.49,1.05,2.2.19.69.26,1.37.2,2-.06.64-.2,1.27-.43,1.85-.23.59-.53,1.15-.9,1.68-.37.54-.78,1.05-1.19,1.5-.1.11-.22.25-.38.4-.16.16-.32.33-.49.49-.16.16-.32.31-.48.45-.03.03-.06.06-.1.09-.37-.3-.81-.67-1.31-1.09-.64-.54-1.31-1.12-1.99-1.72-.69-.6-1.35-1.19-2.01-1.77-.65-.57-1.2-1.07-1.65-1.47l-2.55-2.36c-.31-.29-.62-.58-.92-.86l-1.86-1.75ZM48.66,53.09c.17.08.37.2.6.34.24.16.53.36.86.6.33.26.72.57,1.17.95.45.38.96.83,1.53,1.35l6.63,6c.57.52,1.07.98,1.48,1.38.41.39.76.75,1.04,1.05.28.3.5.56.67.78.16.21.3.4.4.56l.46.44.31-.34c.17-.19.41-.44.73-.76l1.04-1.04c.37-.37.74-.74,1.1-1.11.37-.37.68-.7.93-.98.7-.77,1.33-1.59,1.86-2.44.54-.85.97-1.74,1.29-2.63.32-.9.51-1.83.57-2.76.06-.94-.03-1.89-.29-2.83-.25-.94-.67-1.88-1.26-2.8-.59-.92-1.37-1.83-2.34-2.71-1.36-1.23-2.72-2.08-4.03-2.51-1.32-.45-2.62-.58-3.85-.41-1.23.18-2.4.62-3.5,1.32-1.08.68-2.09,1.54-3.01,2.56-.33.37-.69.77-1.05,1.2l-1.05,1.24c-.34.4-.64.76-.9,1.08-.25.3-.44.52-.56.66-.06.07-.14.15-.26.27l-1.05,1.14.35.32.11.07Z"/>
      <path class="cls-1" d="M81.3,38.23c-.17.12-.34.25-.52.38l-2.58,1.87c-.45.33-.89.64-1.32.95l-.64.46-1.64-7.63,6.71,3.97ZM75.41,51c.07.58.06.86.04,1v.23s.38.52.38.52l2.65-1.89.34-.31-.35-.5-.13-.05s-.05-.04-.12-.14c-.21-.29-.36-.62-.45-.98-.11-.42-.2-.8-.28-1.14l-.76-3.58c.37-.28.78-.58,1.22-.9l3.95-2.82c.57-.4,1.04-.74,1.43-1l3.27,1.92c.45.27.8.52,1.04.74.24.22.43.42.58.63.03.05.07.1.14.24l.37.57,3.43-2.45.34-.31-.37-.51-.16-.04c-.06-.02-.19-.06-.38-.14-.21-.08-.47-.2-.76-.34-.3-.14-.63-.31-.99-.5-.36-.19-.72-.39-1.08-.6l-15.82-9.33-.26-.15-1.38.98,3.79,19.08c.14.69.25,1.29.3,1.79"/>
      <path class="cls-1" d="M91.89,21.22c.07-.03.15-.07.23-.1.24-.11.5-.22.79-.33l.86-.35c.28-.12.54-.21.76-.29,1.12-.39,2.18-.57,3.16-.53.96.04,1.86.29,2.66.74.81.45,1.54,1.12,2.19,1.98.66.88,1.22,1.97,1.66,3.24.41,1.15.66,2.19.74,3.1.08.9.04,1.72-.12,2.43-.16.7-.42,1.32-.77,1.86-.36.54-.78,1.02-1.26,1.42-.48.41-1.01.76-1.58,1.05-.62.31-1.19.56-1.76.76-.14.05-.32.11-.54.17-.21.07-.43.13-.66.2-.23.06-.44.12-.64.17-.04.01-.08.02-.12.03-.19-.45-.4-.98-.64-1.59-.31-.78-.62-1.6-.94-2.46-.32-.86-.63-1.69-.93-2.51s-.55-1.51-.76-2.09l-1.12-3.29c-.14-.4-.27-.8-.4-1.19l-.81-2.43ZM87.72,21.13c.11.15.23.35.36.58.14.25.29.57.47.94.17.38.37.85.58,1.39.21.55.45,1.19.71,1.91l2.99,8.43c.26.73.47,1.37.65,1.92.17.54.31,1.02.42,1.42.1.39.17.72.22,1,.04.26.07.49.09.68l.2.6.43-.15c.24-.09.57-.19,1.01-.32l1.41-.42c.5-.15,1-.3,1.5-.45.5-.16.93-.29,1.28-.42.99-.35,1.93-.78,2.79-1.26.87-.49,1.67-1.06,2.38-1.71.7-.64,1.31-1.37,1.81-2.16.5-.8.87-1.68,1.09-2.62.22-.94.3-1.98.22-3.07-.08-1.09-.34-2.26-.78-3.5-.61-1.72-1.4-3.11-2.35-4.13-.95-1.02-2.03-1.75-3.2-2.18-1.16-.43-2.41-.59-3.71-.5-1.27.09-2.57.37-3.86.82-.47.17-.97.36-1.5.56-.52.2-1.03.4-1.52.6-.49.19-.92.36-1.3.52-.37.15-.63.26-.79.31l-.37.12c-.15.05-.3.1-.44.14l-1,.35.15.45.06.12Z"/>
      <path class="cls-1" d="M129.21,31.51c.05-.48.11-1.05.19-1.7.1-.83.22-1.7.35-2.61l.38-2.64c.13-.86.23-1.59.33-2.2.04-.29.1-.62.16-.99l.41-2.43c.07-.42.14-.84.22-1.24l.44-2.52c.08,0,.16.01.26.02.26.02.54.04.92.09l.85.1c.3.03.57.07.81.11,1.18.18,2.2.53,3.03,1.03.83.49,1.49,1.14,1.98,1.92.49.78.82,1.72.98,2.79.16,1.08.13,2.3-.08,3.64-.19,1.2-.47,2.24-.83,3.08-.35.83-.78,1.53-1.26,2.08-.48.54-1,.97-1.56,1.27-.57.3-1.17.52-1.78.65-.63.13-1.26.19-1.9.17-.64-.02-1.28-.08-1.91-.18-.15-.02-.33-.06-.54-.1-.22-.04-.45-.09-.68-.14-.23-.05-.44-.1-.64-.15l-.13-.04ZM126.44,33.16l2.98.62c.51.1.96.18,1.32.25.95.15,1.9.22,2.81.22.08,0,.17,0,.25,0,1-.01,1.98-.14,2.91-.36.93-.23,1.81-.58,2.62-1.04.81-.45,1.55-1.05,2.21-1.79.65-.72,1.2-1.6,1.65-2.6.45-.99.78-2.15.98-3.44.28-1.81.25-3.41-.1-4.75-.35-1.35-.95-2.51-1.77-3.44-.82-.92-1.83-1.67-3.02-2.21-1.16-.52-2.44-.9-3.79-1.11-.49-.08-1.02-.15-1.59-.22l-3.01-.36c-.4-.04-.68-.08-.83-.1l-.39-.07c-.16-.03-.31-.06-.46-.09l-1.06-.16-.09.53v.07c.03.19.04.42.05.7,0,.29,0,.63-.04,1.04-.03.42-.08.91-.15,1.49-.07.58-.17,1.25-.29,2.02l-1.39,8.83c-.12.76-.23,1.43-.34,2-.11.56-.21,1.04-.31,1.45-.1.39-.19.73-.28.99-.09.25-.17.47-.25.63l-.11.63.45.07c.25.04.59.11,1.04.2"/>
      <path class="cls-1" d="M151.94,40.07c.19.09.4.2.64.31l.76.37c.27.13.52.25.76.37l.66.33c.18.09.32.17.42.22l.36.21,1.94-2.79-.71-.12c-.66-.11-1.36-.27-2.11-.48-.65-.17-1.41-.4-2.26-.69-.71-.24-1.49-.55-2.3-.91l3.2-6.98c.41.2.84.42,1.27.66.58.32,1.11.63,1.6.92.57.34,1.12.68,1.66,1.01l.36.22,1.87-2.5-.64-.18c-.46-.13-.97-.3-1.55-.5-.5-.18-1.1-.41-1.8-.68-.59-.23-1.22-.49-1.91-.8l2.75-6,1.35.53c.28.11.51.21.71.3.57.26,1.07.52,1.5.77.42.25.78.47,1.07.66.32.21.6.42.83.61l.32.27,2.24-2.25-.79-.19c-.13-.03-.45-.13-1.22-.45-.61-.25-1.35-.57-2.21-.94-.86-.38-1.81-.8-2.84-1.27h0c-1.03-.46-2.06-.93-3.1-1.41l-.45-.15-.19.43-.03.12c-.03.18-.08.41-.15.67-.07.27-.17.6-.31.98-.14.4-.32.86-.54,1.39-.22.53-.5,1.15-.82,1.85l-3.73,8.13c-.32.7-.61,1.31-.87,1.83-.25.51-.48.95-.69,1.31-.2.36-.38.65-.54.87-.15.22-.29.4-.41.54l-.28.58,5.81,2.66.39.18Z"/>
      <path class="cls-1" d="M173.56,55.44c.15.15.32.31.51.5l.61.59c.21.2.41.4.6.59l.52.52c.15.15.26.26.32.34l.28.32,2.73-2.05-.64-.34c-.57-.3-1.19-.68-1.85-1.12-.57-.37-1.22-.83-1.92-1.37-.62-.48-1.26-1.01-1.9-1.59l8.62-9.24c.53-.56.99-1.05,1.4-1.45.41-.4.77-.75,1.08-1.04.3-.28.56-.5.78-.66.21-.16.4-.29.56-.39l.45-.46-2.75-2.56-.36-.26-.31.31-.09.12c-.08.17-.2.36-.35.59-.15.24-.35.51-.61.83-.26.33-.58.71-.95,1.14-.38.44-.83.94-1.36,1.5l-6.1,6.54c-.53.56-1,1.05-1.4,1.46-.4.41-.76.75-1.06,1.03-.3.27-.57.49-.79.66-.22.16-.4.29-.57.39l-.45.46,4.67,4.36.31.3Z"/>
      <path class="cls-1" d="M185.85,62.32c.32-.98.86-1.96,1.6-2.89.76-.94,1.7-1.83,2.79-2.63.98-.72,1.96-1.24,2.91-1.54.75-.24,1.48-.36,2.18-.36.17,0,.35,0,.52.02.84.08,1.64.33,2.37.76.73.43,1.39,1.04,1.95,1.8.71.96,1.14,1.94,1.3,2.93.15.99.07,1.98-.23,2.95-.31.98-.85,1.95-1.58,2.88-.75.94-1.68,1.82-2.78,2.63-.98.72-1.96,1.24-2.92,1.55-.94.3-1.86.42-2.72.35-.84-.07-1.65-.32-2.38-.75-.74-.43-1.4-1.03-1.96-1.79-.71-.96-1.14-1.95-1.29-2.95-.15-1-.07-2,.24-2.97M184.19,57.52c-.73,1.23-1.18,2.53-1.35,3.87-.17,1.35-.06,2.73.33,4.12.39,1.38,1.06,2.72,1.99,3.99.62.85,1.33,1.57,2.09,2.15.76.58,1.57,1.03,2.41,1.36.83.33,1.71.53,2.6.62.34.03.67.05,1.01.05.55,0,1.1-.04,1.64-.13.87-.14,1.73-.38,2.56-.74.83-.35,1.62-.8,2.34-1.33,1.28-.94,2.29-2.04,3.02-3.26.73-1.23,1.19-2.53,1.36-3.88.17-1.35.07-2.74-.31-4.13-.38-1.38-1.04-2.73-1.98-4.01h0c-.63-.85-1.33-1.58-2.1-2.16-.76-.58-1.58-1.04-2.42-1.36-.85-.33-1.72-.53-2.6-.61-.89-.08-1.78-.05-2.65.1-.87.14-1.73.39-2.57.74-.82.35-1.61.79-2.34,1.33-1.29.95-2.31,2.05-3.03,3.26"/>
      <path class="cls-1" d="M203.38,80.44c-.16.59-.32,1.18-.48,1.75-.16.55-.35,1.08-.57,1.56-.21.47-.48.9-.79,1.28-.3.36-.68.67-1.13.9-.31.16-.63.26-.94.29-.3.03-.6,0-.89-.1-.29-.11-.56-.26-.81-.49-.26-.23-.48-.53-.67-.89-.21-.4-.33-.8-.37-1.2-.04-.41,0-.81.09-1.19.1-.39.26-.76.47-1.09.21-.34.47-.64.77-.9l.28-.24-.52-.99-3.48,1.37-.03.27c-.03.26-.05.57-.05.95s.03.79.09,1.23c.06.44.16.9.3,1.39.14.48.34.98.59,1.47.46.88,1.01,1.58,1.63,2.08.62.5,1.28.85,1.97,1.02.43.11.86.17,1.3.17.25,0,.5-.02.75-.05.68-.1,1.31-.31,1.88-.6.77-.4,1.41-.96,1.89-1.67.46-.67.85-1.43,1.17-2.25.31-.8.57-1.64.8-2.5.21-.84.46-1.64.71-2.39.25-.73.55-1.39.9-1.97.32-.53.72-.92,1.23-1.19.32-.16.64-.27.94-.31.29-.04.57-.02.83.05.26.07.51.21.74.41.24.2.45.49.63.83.21.4.32.76.35,1.1.03.35,0,.67-.07.96-.07.3-.18.55-.32.78-.14.23-.28.42-.41.56l-.23.24.5.95,3-1.42-.06-.93c-.02-.26-.05-.56-.11-.89-.06-.34-.14-.7-.26-1.1-.12-.41-.3-.83-.52-1.25-.31-.6-.73-1.14-1.23-1.59-.51-.45-1.08-.8-1.71-1.04-.63-.24-1.3-.36-2.01-.33-.71.02-1.42.22-2.12.59-.65.34-1.21.76-1.66,1.25-.44.48-.81,1.01-1.11,1.57-.29.55-.54,1.14-.74,1.76-.19.6-.37,1.2-.53,1.8"/>
      <path class="cls-1" d="M214.82,110.09c-.16-.53-.32-1.05-.47-1.56l-.22-.75,7.76.94-5.95,5.04c-.06-.2-.13-.41-.19-.62l-.93-3.05ZM210.56,123.21c.04-.05.12-.15.26-.31.15-.18.34-.38.57-.61.23-.23.5-.49.79-.78.3-.28.61-.56.93-.83l14.22-12.09-.48-1.62-19.26-2.66c-.69-.09-1.3-.19-1.78-.3-.57-.13-.84-.23-.96-.29l-.21-.06-.62.17.93,3.14.19.44.59-.19.08-.1s.07-.04.18-.07c.34-.1.7-.13,1.07-.1.43.03.82.07,1.17.1l3.64.45c.14.44.29.92.45,1.45l1.37,4.66c.2.67.35,1.23.48,1.68l-2.89,2.46c-.41.34-.76.59-1.04.74-.28.16-.54.27-.76.34-.06.02-.14.03-.3.06h-.08s-.58.15-.58.15l1.2,4.06.18.42.6-.17.09-.14Z"/>
      <path class="cls-1" d="M213.21,129.38c.4-.1.88-.2,1.45-.31.57-.11,1.23-.22,1.99-.35l8.13-1.3-12.02,15.59.18,1.12,14.85-2.38c.76-.12,1.43-.22,2.01-.29.57-.07,1.06-.13,1.48-.16.8-.06,1.33-.06,1.71-.01l.63-.1-.53-3.32-.47.1-.16.04c-.17.08-.38.16-.64.25-.26.09-.59.19-.99.29-.41.1-.89.21-1.45.32-.57.11-1.23.22-2,.35l-8.4,1.35,12.04-15.59-.17-1.06-.13-.43-.44.06-.13.04c-.17.08-.38.16-.63.25-.26.09-.6.18-.99.29-.41.1-.89.2-1.45.31-.57.11-1.24.22-2,.35l-8.83,1.41c-.76.12-1.43.22-2,.29-.57.07-1.06.12-1.48.15-.41.03-.75.04-1.02.04-.27,0-.49-.02-.68-.04l-.64.1.53,3.32.47-.1.16-.04c.17-.08.38-.16.63-.24.26-.09.59-.18.99-.28"/>
      <path class="cls-1" d="M228.65,153.21c.42-.01.82-.02,1.23-.03l2.56-.05c0,.08.02.16.03.25.03.27.06.55.08.85l.07.92c.02.3.04.58.05.82.04,1.19-.1,2.26-.44,3.18-.33.92-.82,1.67-1.5,2.31-.68.64-1.54,1.14-2.55,1.49-1.04.36-2.24.57-3.59.62-1.21.04-2.28-.03-3.19-.22-.89-.19-1.66-.48-2.28-.84-.62-.37-1.14-.8-1.54-1.29-.42-.52-.74-1.05-.98-1.63-.25-.58-.42-1.2-.53-1.83-.11-.65-.17-1.29-.2-1.91,0-.15,0-.34,0-.56,0-.23,0-.46.01-.7,0-.23.01-.45.03-.66,0-.05,0-.09.01-.13.48-.05,1.05-.09,1.71-.13.84-.06,1.71-.11,2.62-.16l2.67-.13c.87-.04,1.61-.07,2.22-.1.29-.01.62-.02,1-.03l2.5-.06ZM232.07,149.52c-.42.05-.92.1-1.5.14-.59.04-1.27.07-2.04.1l-8.93.33c-.77.03-1.45.04-2.03.04-.57,0-1.07,0-1.48-.03-.41-.02-.75-.05-1.02-.09-.27-.04-.49-.08-.67-.12h-.12s-.51.02-.51.02v.45c.02.25.03.6.02,1.05l-.04,3.04c0,.52,0,.97.02,1.34.04,1.04.16,2.07.37,3.05.2.98.51,1.91.92,2.78.41.87.92,1.67,1.52,2.37.61.72,1.34,1.33,2.18,1.83.83.5,1.79.88,2.86,1.13.89.21,1.89.31,2.97.31.2,0,.4,0,.6-.01,1.83-.07,3.39-.41,4.64-1.01,1.26-.6,2.28-1.41,3.04-2.4.76-.98,1.29-2.12,1.59-3.39.3-1.24.42-2.56.37-3.93-.02-.5-.05-1.03-.09-1.6l-.11-1.62c-.04-.52-.07-.99-.11-1.4-.03-.4-.05-.68-.06-.85,0-.1,0-.22,0-.38,0-.16,0-.31,0-.47v-.59s-.05-.46-.05-.46h-.46l-.14.02c-.18.06-.4.12-.67.17-.28.06-.63.11-1.04.16"/>
      <path class="cls-1" d="M234.14,174.04h-.06c-.18.05-.41.09-.68.12-.28.03-.62.05-1.02.06-.42,0-.92,0-1.49-.01-.58-.02-1.25-.05-2.02-.11l-8.92-.58c-.77-.05-1.44-.11-2.02-.16-.57-.05-1.06-.12-1.47-.18-.41-.06-.74-.13-1.01-.19-.26-.07-.48-.13-.66-.19l-.64-.06-.41,6.38-.16,1.99c-.02.29-.05.57-.07.84l-.07.73c-.02.21-.04.37-.06.47l-.06.41,3.3.82-.14-.71c-.13-.65-.23-1.36-.3-2.14-.07-.66-.13-1.45-.16-2.36-.03-.76-.02-1.59.03-2.48l7.67.5c-.04.46-.09.93-.16,1.42-.09.66-.19,1.26-.29,1.82-.12.65-.24,1.28-.36,1.91l-.08.41,3.01.85-.06-.66c-.04-.47-.07-1.01-.08-1.63-.01-.53-.01-1.17-.01-1.93,0-.63.02-1.32.06-2.07l6.58.43v.58c0,.28,0,.57-.01.88,0,.3-.02.56-.03.77-.04.62-.1,1.18-.18,1.67-.08.48-.16.89-.23,1.23-.09.38-.18.71-.27,1l-.14.4,2.91,1.29-.1-.81c-.02-.15-.04-.49-.02-1.29.02-.67.05-1.47.1-2.4.05-.94.11-1.98.17-3.1.06-1.13.13-2.26.21-3.4l-.02-.46-.52-.03Z"/>
      <path class="cls-1" d="M231.94,193.66c-.37-.57-.85-1.06-1.43-1.46-.59-.4-1.28-.66-2.06-.79-.74-.11-1.43-.1-2.07.03-.63.13-1.24.34-1.82.62-.56.27-1.11.6-1.64.98-.51.37-1,.75-1.49,1.15-.48.39-.95.76-1.42,1.13-.46.36-.93.67-1.38.92-.45.25-.92.45-1.39.57-.45.12-.93.14-1.44.06-.34-.05-.66-.16-.93-.33-.26-.15-.48-.36-.65-.61-.17-.25-.3-.54-.37-.87-.07-.33-.08-.7-.02-1.11.07-.45.21-.84.42-1.19.21-.35.48-.66.78-.91.3-.25.64-.45,1.02-.61.38-.15.76-.24,1.15-.27l.37-.03.17-1.11-3.62-.94-.19.2c-.18.19-.37.43-.6.74-.22.31-.45.66-.65,1.05-.21.39-.4.83-.58,1.3-.18.48-.31,1-.39,1.54-.15.98-.12,1.87.09,2.65.21.77.54,1.44.98,1.99.44.54.98.98,1.6,1.3.61.32,1.24.53,1.87.62.86.13,1.71.06,2.51-.23.77-.28,1.54-.66,2.26-1.13.72-.46,1.44-.98,2.12-1.55.67-.54,1.33-1.05,1.98-1.5.63-.44,1.27-.8,1.88-1.06.58-.24,1.13-.32,1.7-.23.36.05.67.15.94.29.27.14.48.32.65.53.17.22.28.47.35.77.07.3.07.65.02,1.04-.07.43-.19.8-.37,1.09-.18.3-.39.54-.62.73-.23.19-.47.34-.72.44-.24.1-.46.17-.67.21l-.32.06-.16,1.05,3.26.62.5-.79c.14-.22.29-.48.44-.78.15-.31.3-.65.44-1.04s.25-.83.32-1.31c.1-.67.08-1.34-.06-2-.14-.67-.4-1.29-.76-1.85"/>
      <path class="cls-1" d="M98.31,294.98c-1.07-.49-2.13-.82-3.16-.99-1.03-.17-2.04-.21-3.01-.12-.97.1-1.9.31-2.77.64-.87.33-1.68.77-2.42,1.31-.74.54-1.4,1.16-1.97,1.86-.57.7-1.06,1.47-1.43,2.3-.66,1.45-1,2.92-1,4.36,0,1.44.28,2.82.85,4.11.57,1.28,1.43,2.47,2.55,3.54,1.11,1.06,2.47,1.96,4.06,2.68.79.36,1.62.65,2.44.87.84.22,1.66.35,2.41.4h.2s2.57-2.49,2.57-2.49l-.52-.79-.36.16c-.46.2-.93.35-1.39.44-.47.1-.95.14-1.42.14-.5.02-1.02-.05-1.52-.17-.47-.1-.94-.26-1.4-.46-1.25-.57-2.25-1.29-2.99-2.14-.73-.85-1.24-1.81-1.51-2.85-.27-1.04-.33-2.18-.17-3.37.16-1.21.52-2.44,1.08-3.67.5-1.1,1.12-2.02,1.84-2.73.71-.7,1.5-1.22,2.35-1.53.85-.32,1.76-.45,2.72-.38.97.07,1.96.33,2.95.78,1.04.47,1.92,1.08,2.62,1.8.71.73,1.24,1.52,1.6,2.36l.12.27.87.02.25-3.35-.16-.15c-1.18-1.15-2.62-2.11-4.27-2.86"/>
      <path class="cls-1" d="M121.04,300.53l-.05.52v.06c.04.18.07.41.08.68.02.27.02.61,0,1.02-.01.42-.04.92-.08,1.5-.04.57-.1,1.24-.19,2.01l-.32,2.93c-.3-.02-.63-.04-.99-.07-.55-.04-1.14-.09-1.77-.15-.63-.05-1.29-.12-1.97-.18-.52-.05-1.03-.1-1.54-.15l-.46-.05c-.65-.07-1.28-.14-1.88-.21-.42-.05-.8-.1-1.16-.15l.34-3.05c.08-.77.17-1.44.25-2.01.08-.57.17-1.06.24-1.48.07-.4.15-.73.23-1,.07-.26.15-.47.22-.65l.08-.63-3.73-.41h-.46s-.06.52-.06.52v.06c.04.19.07.41.08.68.02.28.02.62.01,1.03,0,.42-.04.92-.08,1.49-.04.57-.11,1.25-.19,2.02l-.98,8.89c-.08.77-.17,1.44-.25,2.01-.08.57-.16,1.05-.24,1.46-.08.4-.16.73-.23,1-.08.26-.15.48-.22.65l-.09.63,3.73.41h.47s.05-.53.05-.53v-.06c-.04-.18-.06-.41-.08-.68-.02-.27-.02-.61,0-1.02.01-.42.04-.91.08-1.48.04-.58.1-1.25.19-2.01l.4-3.61c.34.03.71.06,1.12.1.6.06,1.23.12,1.89.2l2.04.24c.69.08,1.36.16,2,.24l1.78.22c.34.04.64.07.91.11l-.39,3.58c-.08.77-.17,1.43-.26,2-.08.57-.17,1.06-.24,1.47-.07.4-.15.73-.23.99-.07.26-.15.47-.22.65l-.08.63,3.73.41h.46s.06-.52.06-.52v-.06c-.04-.19-.07-.41-.08-.68-.02-.27-.02-.62-.01-1.02,0-.41.04-.91.08-1.48.04-.57.11-1.25.19-2.02l.98-8.88c.08-.77.17-1.44.25-2.01.08-.57.16-1.06.24-1.47.08-.4.16-.74.24-1,.08-.26.15-.48.22-.65l.09-.63-3.74-.41h-.47Z"/>
      <path class="cls-1" d="M135.82,319.5c-.07-.18-.15-.39-.23-.65-.08-.26-.16-.6-.24-.99-.08-.41-.17-.9-.26-1.46-.09-.57-.18-1.24-.27-2l-1.06-8.87c-.09-.77-.16-1.43-.2-2.01-.05-.57-.08-1.07-.1-1.49-.02-.41-.02-.75,0-1.03.02-.27.04-.49.07-.68v-.12s-.06-.52-.06-.52l-3.71.44-.45.11.06.46.03.12c.07.17.14.39.22.64.08.27.16.61.24,1.01.08.41.17.9.25,1.46.09.57.18,1.24.27,2.01l1.06,8.87c.09.77.16,1.44.21,2.02.05.57.08,1.06.1,1.48.01.41.01.76,0,1.03-.01.26-.03.49-.06.67v.12s.06.52.06.52l3.72-.44.45-.11-.06-.46-.03-.12Z"/>
      <path class="cls-1" d="M151.65,313.33c-.55.33-1.18.65-1.92,1-.62.3-1.35.61-2.17.93-.71.28-1.5.54-2.35.79l-3.4-12.17c-.21-.75-.38-1.4-.51-1.96-.13-.56-.24-1.05-.32-1.46-.08-.4-.13-.74-.16-1.01-.03-.27-.04-.49-.04-.68l-.16-.62-3.61,1.01-.43.18.13.44.05.12c.1.16.2.36.32.6.12.25.25.57.4.95.15.4.31.86.48,1.41.17.55.36,1.19.57,1.94l2.4,8.61c.21.74.38,1.4.52,1.96.14.55.24,1.04.32,1.45.07.4.12.74.15,1.01.03.27.04.5.04.69l.16.62,6.16-1.72c.07-.02.19-.05.34-.09l1.58-.41c.29-.07.55-.14.82-.21l.71-.17c.2-.05.35-.08.45-.1l.42-.07-.32-3.4-.62.37Z"/>
      <path class="cls-1" d="M166.98,306.21c-.51.45-1.07.9-1.69,1.35-.54.4-1.19.85-1.95,1.33-.66.42-1.38.83-2.15,1.23l-3.46-6.86c.42-.2.85-.39,1.31-.58.61-.25,1.18-.48,1.72-.67.62-.23,1.23-.45,1.82-.66l.4-.14-.79-3.02-.54.38c-.38.27-.84.58-1.36.9-.45.28-1,.61-1.66.99-.54.32-1.15.65-1.81,1l-2.97-5.89.5-.29c.24-.14.5-.29.76-.44.26-.15.49-.27.68-.37.59-.3,1.1-.52,1.53-.69.46-.18.85-.32,1.18-.42.37-.12.7-.21.99-.27l.41-.08-.36-3.15-.64.49c-.12.09-.42.29-1.11.67-.58.32-1.29.7-2.13,1.14-.83.43-1.75.91-2.75,1.42h0c-1,.52-2.02,1.03-3.04,1.55l-.39.26.21.41.07.1c.13.14.27.32.43.53.16.22.36.51.57.86.22.36.47.79.74,1.29.28.51.59,1.11.94,1.8l4.02,7.98c.35.69.65,1.3.89,1.82.24.52.44.97.59,1.36.15.38.27.7.35.96.08.26.13.48.17.67l.28.57,5.7-2.87,1.8-.87c.26-.13.52-.25.76-.36l1.49-.66-.97-3.24-.54.48Z"/>
      <path class="cls-1" d="M138.73,192.06h3.38v25.83h1.41c.88,0,1.67-.17,2.35-.52,2.18-1.11,4.77-1.7,7.48-1.7,2.45,0,4.8.48,6.84,1.39.65.29,1.2-.1,1.2-.8v-29.04c-2.4-1.06-5.14-1.67-8.03-1.67h0c-3.92,0-7.66,1.03-10.52,2.92l-.62.41h-6.7v34.86s48.36,0,48.36,0v-3.26h-45.14v-28.41Z"/>
      <path class="cls-1" d="M183.77,188.87l-.62-.41c-2.86-1.88-6.6-2.92-10.52-2.92h-.03c-.94,0-1.87.07-2.78.19-.2.02-.38.07-.57.11-.6.09-1.93.39-1.93.39-.96.25-1.85.59-2.71.97v29.05c0,.7.55,1.09,1.2.8,2.03-.91,4.38-1.39,6.82-1.39,2.71,0,5.29.59,7.47,1.7.68.34,1.46.52,2.35.52h1.43v-29.01h-.1Z"/>
      <path class="cls-1" d="M108.89,203.65c-.15-1.6-.86-3.12-1.98-4.26,0,0-8.23-8.33-8.76-8.86-.43-.43-.53-.77-.4-1.36.29-1.32,0-2.69-.79-3.76-.75-1-1.83-1.62-3.05-1.73-.84-.08-1.68-.06-2.51-.05-.27,0-.55,0-.82.01h0c-.24,0-.41-.09-.58-.23-.32-.25-.71-.55-1.12-.8-1.79-1.09-4.99-1.04-6.9.77-.19.18-.39.26-.64.26-.02,0-.04,0-.05,0-.34-.01-.68-.01-1,0-.61,0-1.23,0-1.84,0h-.01c-.67,0-1.33.17-1.95.49-1.88.98-2.82,3.17-2.3,5.33.07.29.03.45-.17.65-.31.31-9.1,9.28-9.1,9.28-1.13,1.14-1.83,2.67-1.98,4.29-.26,2.72-.18,3.67-.1,4.15.13.77.49,1.44,1.02,1.96h0c.19.2.46.33.76.33.35,0,.65-.18.84-.45h.02s8.8-12.07,8.8-12.07l1.92,1.94-10.41,14.27v.05c-.23.3-.39.65-.39,1.05,0,.34.12.64.29.92v.07c.79,1.41,1.72,2.75,2.77,3.96.6.7,1.35,1.18,2.18,1.43.97.29,1.99-.26,2.29-1.22l5.84-18.79,2.5,1.08-6.5,20.9c-.21.67-.02,1.43.52,1.89.4.35.85.64,1.34.85,1.18.53,2.42.97,3.67,1.29,1.04.27,2.11.22,3.1-.12.72-.24,1.18-.95,1.18-1.71v-22.39h2.7v22.47c0,.78.49,1.51,1.25,1.72.96.27,2.01.29,3.06.01,1.24-.32,2.48-.75,3.66-1.29.46-.21.94-.56,1.39-1.01.5-.5.65-1.24.44-1.91l-6.45-20.72,2.5-1.08,5.83,18.77c.3.96,1.32,1.51,2.29,1.22.82-.25,1.57-.72,2.16-1.42,1.04-1.21,1.97-2.54,2.76-3.95v-.06c.16-.27.28-.57.28-.91,0-.39-.15-.74-.37-1.04v-.06s-10.43-14.29-10.43-14.29l1.92-1.94,8.82,12.09h.02c.19.25.48.43.83.43.29,0,.56-.12.75-.31h0c.54-.52.91-1.21,1.04-1.99.08-.48.16-1.43-.1-4.17"/>
      <path class="cls-1" d="M98.49,111.85s-1.47,4.99-2.46,5.93c-1.01.96-4.21.69-2.86-.67l3.14-4.48s.73-1.42,1.58-1.35c.79.07.6.57.6.57M83.12,116.27c-.5,1.59-1.23,3.36-2.02,4.82-.86,1.59-1.05,1.87-1.53,3.48-.17,1.28-1.48,4.47-2.78,3.73-3.51-1.98-4.35.04-5.97-.04-.45-.02-.68-.59-.36-.91,2.38-2.39,11.24-11.37,11.4-11.58.53-.73,1.56-.32,1.26.5M108.72,119.09h0s-.02-.02-.02-.02l-7.46-10.09c-1.59-2.14-4.83-2.1-6.36.08l-4.16,5.94c-.31.45-1.62,2.31-1.62,2.31h.01s-2.75-3.9-2.75-3.9c-1.41-2.01-4.31-2.27-6.07-.55l-13.34,13.51c-.38.37-.64.83-.76,1.34l-.88,3.62c-.09.36-.27.67-.58.98l-11.3,12.1,3.4,1.02,8.63-9.15c.28-.06.55-.12.79-.18,2.24-.62,4.92-2.84,5.52-.62.63,2.22-2.71,5.54.13,5.77,2.76.25,5.38-1.35,11.77-5.19,3.96-2.38,6.12-.45,7.73.37,1.47.71,7.26,4.32,10.01,3.84l3.64,5.15,3.22-.97-14.27-20.03c1.54-.92,6.44,3.46,8.15,3.33,1.77-.14,1.37-.76,1.11-2.12-.87-4.07,1.4-2.01,2.79-1.66.5.13,1.43.16,2.31.08l3.41,4.59.09.11,3.28-.98-6.43-8.68Z"/>
      <path class="cls-1" d="M161.81,116.26c-.06,0-.13-.01-.19-.02-5.65-.56-10.75,3.47-11.43,9.06-.33,2.74.45,5.44,2.17,7.61,1.73,2.17,4.21,3.54,6.99,3.86.06,0,.12.01.19.02,5.65.56,10.76-3.47,11.43-9.06.33-2.74-.44-5.44-2.17-7.61-1.73-2.17-4.21-3.54-6.99-3.86"/>
      <path class="cls-1" d="M173.72,128.05c-.85,7.08-7.31,12.18-14.46,11.47-.08,0-.16-.02-.23-.02-3.51-.41-6.65-2.15-8.84-4.89-2.19-2.74-3.17-6.16-2.75-9.63.86-7.16,7.47-12.25,14.69-11.44,3.51.41,6.65,2.15,8.84,4.89,2.19,2.74,3.17,6.16,2.75,9.63M176.17,123.22s-.47-1.72-.46-1.7c3.07-3.19,4.6-6.72,5.21-8.71.2-.65.05-1.35-.38-1.88-.39-.49-.81-.97-1.24-1.44l-.81.83c-1.79,1.83-4.83,3-8.46,3.5.02.01-.99-.67-1.55-.99.84-5-.68-8.93-1.8-11.14-.26-.52-.75-.89-1.33-1-.75-.15-1.1-.19-2.22-.31,0,0-.01,0-.02.01-.62,3.49-3.39,7.84-5.42,10.65.05-.01-1.85.44-1.77.42-3.28-3.03-6.92-4.51-9.02-5.1-.63-.18-1.32-.07-1.83.33-.55.43-1.08.87-1.6,1.34l.82.75c1.87,1.69,3.11,4.6,3.72,8.1.06-.07-1.11,1.65-1.09,1.62-5.05-.76-9.1.9-11.34,1.99-.58.29-.99.83-1.11,1.46-.12.64-.17,1.05-.29,2.08,3.46.54,7.84,3.11,10.74,5.04,0-.04.32,1.54.6,2.35,0-.02-.02-.05-.03-.07-2.97,3.19-4.45,6.71-5.07,8.8-.18.62-.07,1.29.33,1.8.45.56.92,1.1,1.42,1.63l.67-.73c1.73-1.88,4.72-3.14,8.32-3.74-.02-.02,1.7,1.08,1.69,1.07-.94,4.96.36,8.66,1.49,10.99.27.55.79.94,1.4,1.06.65.13,1.09.19,2.16.32,0,0,0,0,0,0,.74-3.56,3.75-7.95,5.86-10.7,0,0-.01,0-.02,0,.71-.14,1.87-.48,1.87-.48,3.24,2.92,6.81,4.36,8.99,4.97.64.18,1.32.07,1.84-.34.58-.46,1.14-.95,1.68-1.46l-.69-.6c-1.95-1.7-3.28-4.69-3.94-8.31,0,0,1.11-1.79,1.1-1.77h0c4.83.58,9.23-1.22,11.2-2.25.56-.3.95-.83,1.05-1.46.02-.13.05-.31.09-.61.07-.52.11-1.04.14-1.56-3.51-.43-7.99-2.91-10.93-4.77"/>
    </g>
  </g>
</svg>