<?xml version="1.0" encoding="UTF-8"?>
<svg id="Capa_2" data-name="Capa 2" xmlns="http://www.w3.org/2000/svg" viewBox="0 0 255.12 475.62">
  <defs>
    <style>
      .cls-1 {
        fill: #131e29;
      }
    </style>
  </defs>
  <g id="Capa_1-2" data-name="Capa 1">
    <path class="cls-1" d="M2.53,4.97l210.92,155.37c24.89,18.33,39.16,46.57,39.16,77.48,0,30.91-14.27,59.15-39.16,77.48L2.51,470.65v-105.11c0-7.48,3.6-14.59,9.63-19.01l144.82-106.69,2.75-2.02-2.75-2.02L12.13,129.11c-6.02-4.44-9.62-11.56-9.62-19.04V4.97M.01,0v110.08c0,8.27,3.97,16.15,10.63,21.06l144.83,106.68L10.65,344.5c-6.67,4.89-10.65,12.76-10.65,21.04v110.08l214.93-158.3c53.58-39.46,53.58-119.54,0-159.01L.01,0H.01Z"/>
  </g>
</svg>