<?xml version="1.0" encoding="UTF-8"?>
<svg id="Capa_2" data-name="Capa 2" xmlns="http://www.w3.org/2000/svg" viewBox="0 0 408.32 185.99">
  <defs>
    <style>
      .cls-1 {
        fill: #243746;
      }
    </style>
  </defs>
  <g id="Capa_1-2" data-name="Capa 1">
    <g>
      <g>
        <g>
          <path class="cls-1" d="M250.12,108.41c-1.6-.95-3.43-1.42-5.51-1.42s-3.88.47-5.5,1.42c-1.63.95-2.9,2.25-3.82,3.91-.92,1.66-1.38,3.56-1.38,5.72s.47,4.04,1.4,5.72c.93,1.68,2.21,3,3.82,3.95s3.44,1.42,5.48,1.42,3.92-.48,5.53-1.45c1.61-.96,2.88-2.28,3.8-3.95.92-1.67,1.38-3.57,1.38-5.7s-.47-4.07-1.4-5.72c-.93-1.65-2.2-2.96-3.8-3.91ZM249.3,121.45c-.42.95-1.02,1.68-1.81,2.2-.79.52-1.73.78-2.83.78s-2.09-.26-2.89-.78c-.81-.52-1.42-1.25-1.86-2.2-.43-.95-.65-2.09-.65-3.41s.22-2.5.65-3.43c.43-.93,1.05-1.65,1.86-2.16s1.77-.76,2.89-.76,2.04.25,2.83.76,1.4,1.22,1.81,2.16c.42.94.63,2.08.63,3.43s-.21,2.46-.63,3.41Z"/>
          <path class="cls-1" d="M300.46,98.61l-12.09,30.09h6.09l1.97-5.28c.13-.36.47-.59.85-.59h11.21l1.95,5.3c.13.35.46.58.83.58h5.47l-12.09-30.09h-4.19ZM298.53,117.82l4.1-10.97,4.03,10.97h-8.13Z"/>
          <path class="cls-1" d="M225.57,100.44h4.84v28.26h-5.31v-27.79c0-.26.21-.47.47-.47Z"/>
          <path class="cls-1" d="M358.32,110.36c-.11-.18-.22-.37-.35-.53-.72-.95-1.58-1.66-2.57-2.14-.99-.47-2.07-.71-3.22-.71-1.64,0-3.15.44-4.53,1.32-1.38.88-2.48,2.14-3.3,3.78-.82,1.64-1.23,3.63-1.23,5.96,0,2.1.37,4,1.1,5.68.73,1.68,1.78,3.01,3.13,3.97,1.35.96,2.97,1.45,4.84,1.45,1.07,0,2.09-.21,3.09-.63.99-.42,1.87-1.12,2.63-2.12.15-.19.28-.41.41-.62l.39,2.93h4.92v-28.26h-4.67c-.35,0-.64.29-.64.64v9.28ZM356.4,123.43c-.76.52-1.68.78-2.74.78s-1.94-.25-2.72-.76c-.78-.5-1.38-1.22-1.79-2.14-.42-.92-.63-2.01-.63-3.28s.21-2.35.63-3.26c.42-.91,1.01-1.61,1.79-2.12.78-.5,1.68-.76,2.72-.76s1.98.25,2.74.76c.76.5,1.35,1.22,1.77,2.14.42.92.63,2,.63,3.24s-.21,2.32-.63,3.24c-.42.92-1.01,1.64-1.77,2.16Z"/>
          <path class="cls-1" d="M177.2,110.36c-.11-.18-.22-.37-.35-.53-.72-.95-1.58-1.66-2.57-2.14-.99-.47-2.07-.71-3.22-.71-1.64,0-3.15.44-4.53,1.32-1.38.88-2.48,2.14-3.3,3.78-.82,1.64-1.23,3.63-1.23,5.96,0,2.1.37,4,1.1,5.68.73,1.68,1.78,3.01,3.13,3.97,1.35.96,2.97,1.45,4.84,1.45,1.07,0,2.09-.21,3.09-.63.99-.42,1.87-1.12,2.63-2.12.15-.19.28-.41.41-.62l.39,2.93h4.92v-28.26h-4.67c-.35,0-.64.29-.64.64v9.28ZM175.28,123.43c-.76.52-1.68.78-2.74.78s-1.94-.25-2.72-.76c-.78-.5-1.38-1.22-1.79-2.14-.42-.92-.63-2.01-.63-3.28s.21-2.35.63-3.26c.42-.91,1.01-1.61,1.79-2.12.78-.5,1.68-.76,2.72-.76s1.98.25,2.74.76c.76.5,1.35,1.22,1.77,2.14.42.92.63,2,.63,3.24s-.21,2.32-.63,3.24c-.42.92-1.01,1.64-1.77,2.16Z"/>
          <path class="cls-1" d="M331.38,106.98c-1.01,0-1.99.18-2.94.54-.95.36-1.79.93-2.5,1.71-.29.31-.54.68-.78,1.08v-2.89h-5.4v21.29h4.8c.33,0,.6-.27.6-.6v-9.59c0-1.61.17-2.92.52-3.93.35-1.01.86-1.75,1.53-2.22.68-.47,1.53-.71,2.57-.71,1.35,0,2.35.41,2.98,1.23.63.82.95,2.12.95,3.91v11.92h4.8c.33,0,.6-.27.6-.6v-13.3c0-2.48-.68-4.4-2.05-5.77-1.37-1.37-3.26-2.05-5.68-2.05Z"/>
          <path class="cls-1" d="M385.48,110.15c-.81-.99-1.83-1.77-3.07-2.33-1.24-.56-2.69-.84-4.36-.84-1.79,0-3.32.32-4.6.97-1.28.65-2.33,1.51-3.13,2.57-.81,1.07-1.41,2.26-1.81,3.59-.4,1.32-.6,2.68-.6,4.06s.2,2.82.6,4.12c.4,1.31,1.03,2.48,1.88,3.5.85,1.02,1.94,1.84,3.26,2.44,1.32.6,2.91.91,4.75.91,1.24,0,2.34-.11,3.3-.32.96-.22,1.89-.57,2.79-1.06.89-.49,1.84-1.12,2.85-1.9l-2.68-3.63c-.81.72-1.73,1.27-2.76,1.66-1.04.39-2.1.58-3.2.58-1.5,0-2.74-.39-3.74-1.17-.83-.65-1.36-1.56-1.6-2.74-.07-.37.19-.72.57-.72h13.88c.06-.4.09-.78.11-1.14.01-.36.02-.64.02-.84,0-1.5-.21-2.91-.63-4.23-.42-1.32-1.03-2.48-1.84-3.48ZM373.21,115.88c.09-.72.31-1.42.67-2.09.36-.68.9-1.23,1.62-1.66.72-.43,1.61-.65,2.68-.65.72,0,1.36.11,1.92.32.56.22,1.04.53,1.45.93s.72.87.95,1.4c.18.41.29.84.33,1.3.02.24-.19.45-.43.45h-9.18Z"/>
          <path class="cls-1" d="M405.64,116.96c-.81-.49-1.67-.88-2.59-1.17-.92-.29-1.81-.53-2.68-.73-.92-.23-1.66-.44-2.22-.63-.56-.19-.96-.41-1.21-.67-.24-.26-.37-.58-.37-.95,0-.55.27-.98.8-1.3.53-.32,1.22-.48,2.05-.48.95,0,1.85.21,2.7.63.67.33,1.24.79,1.7,1.38.21.27.61.3.88.08l2.8-2.21c-.81-1.27-1.9-2.24-3.28-2.92-1.38-.68-2.92-1.02-4.62-1.02-2.83,0-5,.8-6.53,2.39-1.02,1.06-1.51,2.49-1.5,3.97,0,1.1.23,2.02.67,2.76.45.75,1.03,1.36,1.75,1.84.72.48,1.51.86,2.37,1.15s1.7.55,2.5.78c.78.2,1.48.41,2.12.63.63.22,1.14.49,1.51.82.37.33.56.76.56,1.27,0,.63-.3,1.16-.89,1.58-.59.42-1.42.63-2.48.63-1.35,0-2.48-.34-3.39-1.01-.69-.52-1.27-1.07-1.72-1.67-.22-.29-.65-.32-.92-.08l-3.13,2.72c.49.63,1.14,1.3,1.97,1.99.82.69,1.82,1.27,3,1.73,1.18.46,2.56.69,4.15.69,1.76,0,3.28-.3,4.58-.91,1.3-.6,2.3-1.45,3.02-2.53.72-1.08,1.08-2.33,1.08-3.74,0-1.24-.24-2.26-.73-3.07-.49-.81-1.14-1.45-1.94-1.94Z"/>
          <path class="cls-1" d="M272.98,116.96c-.81-.49-1.67-.88-2.59-1.17-.92-.29-1.81-.53-2.68-.73-.92-.23-1.66-.44-2.22-.63-.56-.19-.96-.41-1.21-.67-.24-.26-.37-.58-.37-.95,0-.55.27-.98.8-1.3.53-.32,1.22-.48,2.05-.48.95,0,1.85.21,2.7.63.67.33,1.24.79,1.7,1.38.21.27.61.3.88.08l2.8-2.21c-.81-1.27-1.9-2.24-3.28-2.92-1.38-.68-2.92-1.02-4.62-1.02-2.83,0-5,.8-6.53,2.39-1.02,1.06-1.51,2.49-1.5,3.97,0,1.1.23,2.02.67,2.76.45.75,1.03,1.36,1.75,1.84.72.48,1.51.86,2.37,1.15s1.7.55,2.5.78c.78.2,1.48.41,2.12.63.63.22,1.14.49,1.51.82.37.33.56.76.56,1.27,0,.63-.3,1.16-.89,1.58-.59.42-1.42.63-2.48.63-1.35,0-2.48-.34-3.39-1.01-.69-.52-1.27-1.07-1.72-1.67-.22-.29-.65-.32-.92-.08l-3.13,2.72c.49.63,1.14,1.3,1.97,1.99s1.82,1.27,3,1.73c1.18.46,2.56.69,4.15.69,1.76,0,3.28-.3,4.58-.91,1.3-.6,2.3-1.45,3.02-2.53.72-1.08,1.08-2.33,1.08-3.74,0-1.24-.24-2.26-.73-3.07-.49-.81-1.14-1.45-1.94-1.94Z"/>
          <path class="cls-1" d="M204.35,110.15c-.81-.99-1.83-1.77-3.07-2.33-1.24-.56-2.69-.84-4.36-.84-1.79,0-3.32.32-4.6.97-1.28.65-2.33,1.51-3.13,2.57-.81,1.07-1.41,2.26-1.81,3.59-.4,1.32-.6,2.68-.6,4.06s.2,2.82.6,4.12c.4,1.31,1.03,2.48,1.88,3.5.85,1.02,1.94,1.84,3.26,2.44,1.32.6,2.91.91,4.75.91,1.24,0,2.34-.11,3.3-.32.96-.22,1.89-.57,2.79-1.06.89-.49,1.84-1.12,2.85-1.9l-2.68-3.63c-.81.72-1.73,1.27-2.76,1.66-1.04.39-2.1.58-3.2.58-1.5,0-2.74-.39-3.74-1.17-.83-.65-1.36-1.56-1.6-2.74-.07-.37.19-.72.57-.72h13.88c.06-.4.09-.78.11-1.14.01-.36.02-.64.02-.84,0-1.5-.21-2.91-.63-4.23-.42-1.32-1.03-2.48-1.84-3.48ZM192.09,115.88c.09-.72.31-1.42.67-2.09.36-.68.9-1.23,1.62-1.66.72-.43,1.61-.65,2.68-.65.72,0,1.36.11,1.92.32.56.22,1.04.53,1.45.93s.72.87.95,1.4c.18.41.29.84.33,1.3.02.24-.19.45-.43.45h-9.18Z"/>
        </g>
        <g>
          <path class="cls-1" d="M185.1,73.65v-19h-4.67c-.5,0-.91.41-.91.91v17.7c0,1.53-.17,2.81-.52,3.86-.35,1.05-.96,1.84-1.84,2.37-.88.53-2.09.8-3.65.8s-2.77-.27-3.65-.8c-.88-.53-1.48-1.32-1.81-2.37-.33-1.05-.5-2.35-.5-3.91v-18.57h-4.66c-.5,0-.91.41-.91.91v18.31c0,3.86.97,6.75,2.91,8.68,1.94,1.93,4.81,2.89,8.61,2.89s6.68-.99,8.64-2.96c1.96-1.97,2.94-4.91,2.94-8.83Z"/>
          <path class="cls-1" d="M220.02,84.75v-21.29h-4.76c-.33,0-.6.27-.6.6v20.69h5.35Z"/>
          <path class="cls-1" d="M234.19,77.75l-4.82-13.77c-.11-.32-.41-.53-.74-.53h-5.31l8.72,21.29h3.8c.36,0,.69-.22.83-.56l8.41-20.73h-5.79l-5.1,14.29Z"/>
          <path class="cls-1" d="M280.86,68.38c.49,0,.98.07,1.47.22.49.14.89.3,1.21.47l2.59-4.84c-.69-.43-1.36-.74-2.01-.93-.65-.19-1.33-.28-2.05-.28-1.01,0-1.99.27-2.96.8s-1.78,1.27-2.44,2.22c-.11.16-.21.33-.3.51v-3.1h-5.4v21.29h4.79c.33,0,.6-.27.6-.6v-8.55c0-1.18.04-2.08.11-2.7.07-.62.16-1.13.28-1.53.26-.72.6-1.3,1.02-1.73.42-.43.89-.75,1.42-.95.53-.2,1.09-.3,1.66-.3Z"/>
          <path class="cls-1" d="M358.15,84.75h4.92v-13.43c0-2.59-.82-4.62-2.46-6.09-1.64-1.47-3.93-2.2-6.87-2.2-1.81,0-3.5.27-5.07.8-1.57.53-3.1,1.4-4.6,2.61l2.72,3.67c.89-.81,1.92-1.43,3.09-1.88,1.17-.45,2.31-.67,3.43-.67,1.35,0,2.43.31,3.22.93.79.62,1.19,1.56,1.19,2.83v.52h-6.13c-1.01,0-1.95.09-2.83.26-.88.17-1.68.48-2.4.91-.83.46-1.5,1.13-2.01,2.01-.5.88-.76,1.94-.76,3.17,0,1.38.35,2.61,1.06,3.67.71,1.06,1.67,1.89,2.89,2.46,1.22.58,2.61.86,4.17.86,1.09,0,2.13-.22,3.11-.65.98-.43,1.85-1.12,2.61-2.05.12-.15.23-.32.34-.48l.37,2.75ZM357,78.51c-.47.73-1.11,1.31-1.9,1.73-.79.42-1.66.63-2.61.63-1.07,0-1.91-.24-2.55-.73-.63-.49-.95-1.14-.95-1.94,0-.37.07-.71.22-1.01.14-.3.36-.55.65-.76.32-.26.7-.42,1.14-.5.45-.07.9-.11,1.36-.11h5.35v.17c0,.95-.24,1.79-.71,2.53Z"/>
          <circle class="cls-1" cx="217.35" cy="57.42" r="2.89"/>
          <circle class="cls-1" cx="311.8" cy="57.42" r="2.89"/>
          <path class="cls-1" d="M333.92,66.4c-.11-.18-.22-.37-.35-.53-.72-.95-1.58-1.66-2.57-2.14-.99-.47-2.07-.71-3.22-.71-1.64,0-3.15.44-4.53,1.32-1.38.88-2.48,2.14-3.3,3.78-.82,1.64-1.23,3.63-1.23,5.96,0,2.1.37,4,1.1,5.68.73,1.68,1.78,3.01,3.13,3.97s2.97,1.45,4.84,1.45c1.07,0,2.09-.21,3.09-.63.99-.42,1.87-1.12,2.63-2.12.15-.19.28-.41.41-.62l.39,2.93h4.92v-28.26h-4.67c-.35,0-.64.29-.64.64v9.28ZM332,79.48c-.76.52-1.68.78-2.74.78s-1.94-.25-2.72-.76c-.78-.5-1.38-1.22-1.79-2.14-.42-.92-.63-2.01-.63-3.28s.21-2.35.63-3.26c.42-.91,1.01-1.61,1.79-2.12.78-.5,1.68-.76,2.72-.76s1.98.25,2.74.76c.76.5,1.35,1.22,1.77,2.14.42.92.63,2,.63,3.24s-.21,2.32-.63,3.24c-.42.92-1.01,1.64-1.77,2.16Z"/>
          <path class="cls-1" d="M382.28,66.4c-.11-.18-.22-.37-.35-.53-.72-.95-1.58-1.66-2.57-2.14-.99-.47-2.07-.71-3.22-.71-1.64,0-3.15.44-4.53,1.32-1.38.88-2.48,2.14-3.3,3.78-.82,1.64-1.23,3.63-1.23,5.96,0,2.1.37,4,1.1,5.68.73,1.68,1.78,3.01,3.13,3.97,1.35.96,2.97,1.45,4.84,1.45,1.07,0,2.09-.21,3.09-.63.99-.42,1.87-1.12,2.63-2.12.15-.19.28-.41.41-.62l.39,2.93h4.92v-28.26h-4.67c-.35,0-.64.29-.64.64v9.28ZM380.36,79.48c-.76.52-1.68.78-2.74.78s-1.94-.25-2.72-.76c-.78-.5-1.38-1.22-1.79-2.14-.42-.92-.63-2.01-.63-3.28s.21-2.35.63-3.26c.42-.91,1.01-1.61,1.79-2.12.78-.5,1.68-.76,2.72-.76s1.98.25,2.74.76c.76.5,1.35,1.22,1.77,2.14.42.92.63,2,.63,3.24s-.21,2.32-.63,3.24c-.42.92-1.01,1.64-1.77,2.16Z"/>
          <path class="cls-1" d="M201.98,63.02c-1.01,0-1.99.18-2.94.54-.95.36-1.79.93-2.5,1.71-.29.31-.54.68-.78,1.08v-2.89h-5.4v21.29h4.8c.33,0,.6-.27.6-.6v-9.59c0-1.61.17-2.92.52-3.93.35-1.01.86-1.75,1.53-2.22.68-.47,1.53-.71,2.57-.71,1.35,0,2.35.41,2.98,1.23.63.82.95,2.12.95,3.91v11.92h4.8c.33,0,.6-.27.6-.6v-13.3c0-2.48-.68-4.4-2.05-5.77-1.37-1.37-3.26-2.05-5.68-2.05Z"/>
          <path class="cls-1" d="M264.2,66.2c-.81-.99-1.83-1.77-3.07-2.33-1.24-.56-2.69-.84-4.36-.84-1.79,0-3.32.32-4.6.97-1.28.65-2.33,1.51-3.13,2.57-.81,1.07-1.41,2.26-1.81,3.59-.4,1.32-.6,2.68-.6,4.06s.2,2.82.6,4.12c.4,1.31,1.03,2.48,1.88,3.5.85,1.02,1.94,1.84,3.26,2.44,1.32.6,2.91.91,4.75.91,1.24,0,2.34-.11,3.3-.32.96-.22,1.89-.57,2.79-1.06.89-.49,1.84-1.12,2.85-1.9l-2.68-3.63c-.81.72-1.73,1.27-2.76,1.66-1.04.39-2.1.58-3.2.58-1.5,0-2.74-.39-3.74-1.17-.83-.65-1.36-1.56-1.6-2.74-.07-.37.19-.72.57-.72h13.88c.06-.4.09-.78.11-1.14.01-.36.02-.64.02-.84,0-1.5-.21-2.91-.63-4.23-.42-1.32-1.03-2.48-1.84-3.48ZM251.93,71.92c.09-.72.31-1.42.67-2.09.36-.68.9-1.23,1.62-1.66.72-.43,1.61-.65,2.68-.65.72,0,1.36.11,1.92.32.56.22,1.04.53,1.45.93s.72.87.95,1.4c.18.41.29.84.33,1.3.02.24-.19.45-.43.45h-9.18Z"/>
          <path class="cls-1" d="M302.15,73.01c-.81-.49-1.67-.88-2.59-1.17-.92-.29-1.81-.53-2.68-.73-.92-.23-1.66-.44-2.22-.63-.56-.19-.96-.41-1.21-.67-.24-.26-.37-.58-.37-.95,0-.55.27-.98.8-1.3.53-.32,1.22-.48,2.05-.48.95,0,1.85.21,2.7.63.67.33,1.24.79,1.7,1.38.21.27.61.3.88.08l2.8-2.21c-.81-1.27-1.9-2.24-3.28-2.92-1.38-.68-2.92-1.02-4.62-1.02-2.83,0-5,.8-6.53,2.39-1.02,1.06-1.51,2.49-1.5,3.97,0,1.1.23,2.02.67,2.76.45.75,1.03,1.36,1.75,1.84.72.48,1.51.86,2.37,1.15.86.29,1.7.55,2.5.78.78.2,1.48.41,2.12.63.63.22,1.14.49,1.51.82.37.33.56.76.56,1.27,0,.63-.3,1.16-.89,1.58-.59.42-1.42.63-2.48.63-1.35,0-2.48-.34-3.39-1.01-.69-.52-1.27-1.07-1.72-1.67-.22-.29-.65-.32-.92-.08l-3.13,2.72c.49.63,1.14,1.3,1.97,1.99s1.82,1.27,3,1.73c1.18.46,2.56.69,4.15.69,1.76,0,3.28-.3,4.58-.91,1.3-.6,2.3-1.45,3.02-2.53.72-1.08,1.08-2.33,1.08-3.74,0-1.24-.24-2.26-.73-3.07s-1.14-1.45-1.94-1.94Z"/>
          <path class="cls-1" d="M314.47,84.75v-21.29h-4.76c-.33,0-.6.27-.6.6v20.69h5.35Z"/>
        </g>
      </g>
      <g>
        <path class="cls-1" d="M68.72,0C30.77,0,0,41.64,0,93s30.77,93,68.72,93,68.72-41.64,68.72-93S106.67,0,68.72,0ZM68.72,183.74c-36.71,0-66.58-40.71-66.58-90.74S32,2.26,68.72,2.26s66.58,40.71,66.58,90.74-29.87,90.74-66.58,90.74Z"/>
        <path class="cls-1" d="M77.21,122.97v-15.78h1.86v14.35h.77c.49,0,.92-.1,1.29-.29,1.2-.62,2.62-.94,4.12-.94s2.94.33,4.15.96c.34.18.69.27,1.03.27h.23c.34,0,.68-.09,1.03-.27,1.21-.63,2.64-.96,4.15-.96s2.92.33,4.12.94c.37.19.81.29,1.29.29h.77v-16.08l-.39-.26c-1.57-1.05-3.63-1.62-5.78-1.62-.97,0-1.93.12-2.83.34h-.08s.01.09.01.09c.09.53.23,1.06.4,1.58l.02.08.08-.03c.77-.19,1.58-.29,2.4-.29,1.62,0,3.18.38,4.41,1.08v12.99c-2.65-1.15-6.16-1.15-8.81,0v-13.96l-.39-.26c-1.57-1.05-3.63-1.62-5.78-1.62s-4.21.58-5.78,1.62l-.34.23h-3.68v19.37s26.58,0,26.58,0v-1.81h-24.81ZM80.84,106.42c1.23-.7,2.79-1.08,4.41-1.08s3.18.38,4.41,1.08v12.99c-1.33-.57-2.87-.86-4.41-.86s-3.08.29-4.41.86v-12.99Z"/>
        <g>
          <path class="cls-1" d="M88.49,78.1s.09,0,.13.01c4.01.4,7.63-2.49,8.1-6.49.23-1.96-.32-3.9-1.54-5.45-1.23-1.55-2.98-2.54-4.95-2.77-4.04-.46-7.75,2.43-8.23,6.48-.23,1.96.32,3.9,1.54,5.45s2.98,2.54,4.95,2.77ZM83.8,70.09c.36-3.03,3.09-5.21,6.12-4.9.03,0,.07,0,.1.01,1.49.18,2.81.92,3.74,2.09.93,1.17,1.34,2.63,1.16,4.12-.36,3.03-3.09,5.21-6.12,4.9-.03,0-.07,0-.1-.01-1.49-.18-2.81-.92-3.74-2.09-.93-1.17-1.34-2.63-1.16-4.12Z"/>
          <path class="cls-1" d="M90,61.87c.7-1.08,1.43-2.36,1.95-3.63.22.95.33,2.27.09,4.02.6.19,1.18.44,1.72.75.54-3.23.03-5.36-.52-6.61-.7-.19-1.41-.32-2.14-.41-.12-.01-.23-.02-.34-.03-.35,1.98-1.9,4.45-3.04,6.04.74-.14,1.5-.18,2.28-.13Z"/>
          <path class="cls-1" d="M98.26,71.14c1.12.65,2.42,1.32,3.72,1.77-.94.27-2.27.45-4.06.29-.18.61-.42,1.2-.71,1.75.02,0,.03,0,.05,0,3.25.38,5.35-.21,6.58-.82.12-.53.22-1.08.29-1.64.03-.3.06-.59.08-.88-1.97-.24-4.48-1.65-6.13-2.71.15.73.22,1.48.18,2.23Z"/>
          <path class="cls-1" d="M86.72,83.23c-.19-.95-.27-2.26,0-3.98-.6-.18-1.17-.43-1.71-.73-.6,3.19-.14,5.31.38,6.55.72.2,1.46.34,2.22.43.08,0,.16.02.24.03.41-2.02,2.11-4.51,3.29-6.07-.76.15-1.55.21-2.35.16-.74,1.07-1.51,2.34-2.07,3.61Z"/>
          <path class="cls-1" d="M80.56,72.22c-.12-.73-.15-1.47-.09-2.23-1.1-.68-2.39-1.38-3.67-1.87.96-.24,2.3-.39,4.09-.17.2-.61.47-1.18.79-1.72-3.27-.5-5.42.04-6.68.61-.19.7-.33,1.42-.42,2.16-.01.12-.02.25-.03.37,1.94.31,4.4,1.76,6.02,2.86Z"/>
          <path class="cls-1" d="M96.22,65.07c.69-.15,1.43-.36,2.08-.66-.32.47-.69,1.16-1.26,1.82.32.54.58,1.11.78,1.71,2.08-2.19,2.9-4.66,3.08-5.53-.33-.45-.68-.89-1.06-1.3l-.46.47c-1,1.04-2.71,1.7-4.75,1.98.59.43,1.12.94,1.59,1.5Z"/>
          <path class="cls-1" d="M96.6,75.94c-.42.58-.91,1.11-1.45,1.57.19.73.45,1.51.8,2.19-.52-.32-1.3-.69-2.04-1.3-.54.32-1.12.59-1.73.79,2.15,1.96,4.56,2.74,5.64,2.96.49-.36.95-.75,1.39-1.17l-.39-.34c-1.1-.96-1.84-2.66-2.21-4.71Z"/>
          <path class="cls-1" d="M82.5,76.44c-.71.18-1.45.41-2.11.74.32-.49.68-1.23,1.27-1.94-.32-.54-.58-1.12-.78-1.73-1.98,2.15-2.78,4.56-2.99,5.57.35.48.73.93,1.13,1.36l.38-.42c.97-1.07,2.65-1.78,4.67-2.12-.58-.43-1.1-.92-1.56-1.47Z"/>
          <path class="cls-1" d="M82.29,65.31c.43-.56.93-1.06,1.48-1.5-.17-.7-.4-1.43-.72-2.08.49.32,1.22.68,1.92,1.27.55-.31,1.14-.57,1.76-.75-2.2-2.05-4.68-2.85-5.65-3.04-.47.34-.91.7-1.34,1.09l.46.42c1.05.96,1.75,2.61,2.09,4.59Z"/>
        </g>
        <path class="cls-1" d="M54.25,110.12l-1.17,1.2,4.34,6c.45.63.5,1.48.11,2.16-.38.68-.82,1.32-1.31,1.9-.31.37-.7.32-.85.29-.33-.07-.59-.32-.69-.65l-2.81-8.87-1.53.67,2.88,9.39c.26.85-.12,1.78-.86,2.12-.56.26-1.14.46-1.74.62-.5.13-.95.05-1.29-.23-.34-.28-.53-.74-.53-1.29l-.05-10.28h-1.62s-.07,10.3-.07,10.3c0,.48-.21.93-.57,1.22-.36.29-.81.39-1.24.28-.59-.15-1.18-.36-1.74-.62-.75-.34-1.13-1.28-.86-2.13l2.88-9.38-1.47-.64-2.89,8.85c-.15.48-.53.61-.68.64-.19.04-.56.05-.85-.29-.49-.58-.94-1.22-1.32-1.9-.38-.69-.34-1.54.11-2.17l4.34-5.99-1.14-1.16-4.22,5.53c-.08.11-.2.13-.29.1-.1-.02-.16-.09-.17-.19,0-.04-.06-.4.07-1.8.04-.47.25-.91.57-1.24l6.24-6.29s-.44-.59-.53-.76c-.13-.22-.15-.48-.08-.69.07-.19.2-.33.39-.4.09-.03.19-.04.26-.04.89,0,1.67-.01,2.38-.01.13,0,.22-.05.3-.16.13-.18.26-.33.39-.44.3-.28.76-.42,1.23-.35.47.06.86.31,1.09.68.13.21.28.29.52.29,0,0,1.85,0,2.23,0,.26,0,.47.1.59.27.13.19.15.44.05.71-.05.14-.13.27-.2.38-.05.08-.29.38-.29.38l6.1,6.44h0l2.4,2.54c0-.35-.03-.82-.1-1.49-.08-.89-.47-1.73-1.09-2.37,0,0-4.53-4.63-4.82-4.92-.24-.24-.29-.43-.22-.76.16-.73,0-1.5-.44-2.09-.41-.56-1.01-.9-1.68-.96-.46-.04-1.68-.02-1.83-.02h0c-.13,0-.22-.05-.32-.13-.18-.14-.39-.3-.62-.44-.98-.61-2.74-.58-3.79.43-.11.1-.21.15-.35.15-.01,0-1.26,0-1.59,0h0c-.37,0-.73.09-1.07.27-1.03.54-1.55,1.76-1.26,2.96.04.16.01.25-.1.36-.17.17-5,5.16-5,5.16-.62.64-1.01,1.48-1.09,2.39-.14,1.48-.1,2.02-.06,2.29.11.67.55,1.24,1.17,1.53l.05.02v.06c-.26.99-.13,2.01.36,2.89.44.79.95,1.53,1.52,2.2.63.75,1.57,1.07,2.5.87h.06s.01.05.01.05c.24,1.12.95,2.05,1.91,2.49.65.3,1.33.54,2.02.72.96.25,1.95.03,2.73-.62.07-.06.12-.12.18-.19l.14-.15.12.13c.08.09.16.18.25.26.76.62,1.77.83,2.79.56.68-.18,1.36-.42,2.01-.72.99-.45,2-2.55,2-2.55.93.19,1.86-.13,2.49-.87.57-.67,1.08-1.41,1.52-2.2,0,0,0-.02.01-.03.65-1.2.48-2.69-.29-3.82l-4.51-6.44Z"/>
        <path class="cls-1" d="M38.58,157.73c-.84,0-1.52.68-1.52,1.52s.68,1.52,1.52,1.52,1.52-.68,1.52-1.52-.68-1.52-1.52-1.52Z"/>
        <path class="cls-1" d="M99.84,157.73c-.84,0-1.52.68-1.52,1.52s.68,1.52,1.52,1.52,1.52-.68,1.52-1.52-.68-1.52-1.52-1.52Z"/>
        <path class="cls-1" d="M68.73,23.11c-25.32,0-45.85,31.29-45.85,69.89s20.53,69.89,45.85,69.89,45.85-31.29,45.85-69.89S94.05,23.11,68.73,23.11ZM112.31,91.83h-42.47V25.39c23.28.92,42.07,30.26,42.47,66.44ZM67.6,25.39v66.44H25.14c.4-36.19,19.19-65.53,42.47-66.44ZM25.13,94.07h42.47v66.53c-23.3-.92-42.1-30.31-42.47-66.53ZM69.84,160.6v-66.53h42.47c-.37,36.23-19.17,65.61-42.47,66.53Z"/>
        <path class="cls-1" d="M23.1,146.2c-.38.08-.71.13-.99.16-.32.04-.48.03-.56.02h-.13l-.3.21,1.05,1.49.17.19.29-.21.03-.05s.03-.03.07-.06c.16-.11.34-.2.54-.25.23-.06.45-.11.64-.16l7.49-1.58-3.97,6.66c-.15.25-.29.44-.41.58-.12.13-.23.24-.35.32-.03.02-.06.04-.13.08l-.32.21,1.35,1.91.17.19.28-.21.02-.09s.04-.1.08-.21c.05-.12.11-.26.19-.43.08-.17.17-.35.28-.55.1-.2.22-.4.34-.6l5.31-8.91-.54-.77-10.61,2.07Z"/>
        <path class="cls-1" d="M22.34,142.07l4.47-2.17c.39-.19.73-.35,1.02-.48.29-.13.54-.24.76-.32.21-.08.39-.14.54-.18.14-.04.27-.07.37-.09l.32-.15-.7-1.45-.14-.22-.23.11-.06.04c-.08.07-.17.15-.3.23-.13.09-.29.19-.48.31-.2.12-.44.25-.72.4-.28.15-.62.32-1.01.51l-4.12,2,3.9-10.22-.28-.57-7.52,3.65c-.39.19-.73.35-1.02.48-.29.13-.54.24-.76.32-.21.08-.4.15-.54.19-.14.04-.26.07-.37.09l-.32.15.7,1.45.14.22.23-.11.06-.04c.08-.07.18-.15.3-.24.13-.09.29-.19.48-.31.2-.12.44-.25.72-.4.28-.15.62-.32,1.01-.51l4.25-2.06-3.9,10.22.26.54.14.21.23-.11.06-.04c.08-.07.18-.15.3-.24.12-.09.28-.19.48-.31.2-.12.44-.25.72-.4.28-.15.62-.32,1.01-.5Z"/>
        <path class="cls-1" d="M16.64,129.25l4.68-1.67c.4-.14.76-.26,1.07-.36.3-.1.57-.17.79-.23.22-.06.41-.1.56-.13.14-.03.27-.04.37-.05l.34-.11-.7-1.96-.11-.23-.24.08-.06.03c-.08.06-.19.13-.32.2-.13.08-.3.16-.51.25-.21.09-.47.2-.76.32-.3.12-.65.25-1.05.39l-4.68,1.67c-.4.14-.76.26-1.06.36-.31.09-.57.17-.8.24-.22.06-.4.1-.55.13-.15.02-.27.04-.38.05l-.34.11.7,1.96.11.23.24-.08.06-.03c.08-.06.19-.12.32-.2.14-.07.31-.16.52-.26.21-.1.47-.2.76-.32.3-.12.65-.25,1.05-.39Z"/>
        <path class="cls-1" d="M13.69,124.01l8.16-6.4-.23-.91-10.64-1.89c-.38-.07-.72-.14-.98-.21-.31-.08-.46-.14-.52-.18l-.12-.05-.35.09.45,1.77.09.24.34-.09.05-.04s.04-.02.09-.03c.19-.05.39-.06.6-.03.24.03.45.06.65.08l7.56,1.22-6.1,4.78c-.23.18-.43.31-.59.39-.16.08-.31.14-.43.17-.03,0-.07.02-.16.03h-.05s-.33.07-.33.07l.57,2.28.09.24.34-.08.05-.08s.07-.08.15-.17c.09-.09.2-.2.33-.33.14-.13.29-.27.46-.42.17-.15.34-.29.53-.44Z"/>
        <path class="cls-1" d="M9.83,111.18c.23-.05.5-.11.81-.16.32-.06.69-.11,1.11-.17l4.92-.7c.42-.06.8-.11,1.11-.14.32-.03.59-.06.82-.07.23-.01.42-.02.57-.01.15,0,.28.02.38.03l.35-.05-.5-3.51-.14-1.1c-.02-.16-.04-.32-.06-.46l-.04-.4c-.01-.12-.02-.2-.02-.26v-.23s-1.9-.07-1.9-.07l.16.37c.14.34.28.72.41,1.13.12.35.24.78.36,1.26.1.41.19.86.27,1.35l-4.23.61c-.03-.25-.06-.52-.07-.79-.02-.37-.04-.71-.05-1.02-.01-.37-.02-.73-.02-1.08v-.23s-1.74-.12-1.74-.12l.11.35c.08.25.15.54.23.87.07.29.14.64.23,1.05.07.34.14.72.2,1.13l-3.63.52-.06-.31c-.03-.15-.06-.31-.09-.48-.03-.16-.05-.31-.07-.42-.05-.35-.08-.66-.09-.93-.01-.27-.02-.51-.01-.7,0-.22.01-.41.04-.57l.03-.23-1.73-.37.15.43c.03.08.08.27.16.7.07.36.14.8.22,1.32.08.52.17,1.09.26,1.71.09.62.19,1.25.28,1.87l.07.25.25-.03.07-.02c.1-.04.21-.09.36-.13.15-.05.33-.1.55-.15Z"/>
        <path class="cls-1" d="M7.63,101.24c.1-.03.22-.07.37-.1.15-.03.34-.06.56-.09.23-.03.51-.06.82-.08.32-.03.69-.05,1.12-.07l4.96-.23c.43-.02.81-.03,1.13-.03.32,0,.59,0,.82,0,.23,0,.41.02.57.04.15.02.27.04.37.07h.06s.29,0,.29,0l-.1-2.09-.04-.25h-.25s-.07.02-.07.02c-.1.03-.22.07-.37.1-.15.03-.34.06-.56.09-.23.03-.5.06-.82.08-.32.03-.69.05-1.12.07l-1.42.07c0-.05,0-.11,0-.17,0-.15,0-.3,0-.45,0-.13-.02-.25-.03-.37,0-.07-.02-.14-.02-.21l3.56-2.79c.14-.11.29-.21.43-.3.17-.1.26-.13.3-.14l.21-.04-.11-2.42-.04-.26-.44.03-.05.17c-.03.08-.06.17-.11.25-.05.09-.12.18-.2.28-.09.1-.2.21-.32.32-.13.12-.28.24-.46.38l-3.4,2.67c-.12-.2-.26-.39-.42-.56-.22-.25-.48-.46-.76-.63-.28-.17-.6-.3-.94-.39-.34-.08-.71-.12-1.1-.1-.5.02-.96.14-1.35.34-.39.2-.72.48-.99.83-.26.34-.45.74-.57,1.19-.12.44-.17.93-.14,1.44.03.53.07.98.14,1.32.06.32.1.58.11.76,0,.13.01.25.01.36,0,.11,0,.21,0,.31l-.02.32.02.27h.28s.07-.02.07-.02ZM8.07,98.05c-.01-.31.03-.58.12-.81.09-.23.22-.41.4-.57.18-.16.41-.28.68-.37.28-.09.61-.15.96-.16.08,0,.15,0,.22,0,.34,0,.65.04.92.12.32.09.59.24.8.42.21.18.38.41.49.68.12.28.18.6.2.95,0,.12,0,.25,0,.39,0,.06,0,.13-.01.19l-4.64.22c-.02-.07-.04-.16-.07-.26-.04-.19-.07-.46-.09-.79Z"/>
        <path class="cls-1" d="M7.58,88.67c.24.29.53.53.88.72.35.19.74.29,1.19.31.41.02.8-.03,1.14-.14.34-.11.67-.26.97-.45.3-.19.58-.4.85-.64.26-.23.51-.47.75-.72.24-.24.48-.48.72-.71.23-.22.47-.42.71-.59.24-.17.48-.3.74-.4.24-.09.51-.13.79-.12.19,0,.37.05.53.12.15.07.29.17.4.3.11.13.2.28.26.46.06.18.08.38.07.61-.01.25-.06.48-.16.68-.1.21-.22.39-.38.55-.15.16-.33.29-.53.4-.2.1-.41.18-.62.22l-.2.04-.03.62,2.06.31.09-.12c.09-.11.18-.26.29-.44.1-.18.2-.39.3-.62.09-.23.17-.48.24-.75.07-.28.11-.57.12-.87.02-.55-.04-1.04-.21-1.45-.16-.41-.38-.76-.66-1.04-.28-.27-.6-.48-.96-.62-.35-.14-.71-.22-1.07-.23-.49-.02-.95.07-1.37.28-.41.19-.81.45-1.19.76-.37.3-.73.63-1.08.98-.33.34-.67.66-1.01.95-.32.28-.65.52-.98.7-.3.17-.61.24-.93.23-.2,0-.38-.05-.54-.11-.15-.06-.28-.14-.39-.26-.1-.11-.19-.24-.24-.4-.06-.16-.08-.36-.07-.57.01-.25.06-.45.14-.62.08-.17.18-.32.3-.44.12-.12.24-.22.37-.29.14-.07.25-.13.36-.16l.17-.05.02-.59-1.84-.15-.23.46c-.06.13-.13.28-.2.46-.07.18-.13.38-.18.6-.05.23-.09.48-.1.75-.02.37.03.75.15,1.1.12.36.3.69.53.98Z"/>
        <path class="cls-1" d="M7.91,79.86h.03c.1-.02.23-.03.37-.04.15,0,.35,0,.58,0,.23,0,.51.02.82.05.32.03.69.06,1.12.11l4.94.56c.43.05.8.1,1.12.14.31.05.58.09.81.14.22.04.41.09.56.13.14.04.26.08.36.12l.35.05.23-2.06v-.26s-.29-.03-.29-.03h-.03c-.1.02-.23.04-.38.05-.15,0-.34.01-.57,0-.23,0-.51-.02-.83-.05-.32-.02-.69-.06-1.12-.11l-4.93-.56c-.43-.05-.8-.1-1.11-.15-.32-.05-.59-.09-.82-.14-.22-.04-.41-.09-.55-.13-.14-.04-.26-.08-.36-.12l-.35-.05-.23,2.06v.26s.29.03.29.03Z"/>
        <path class="cls-1" d="M9.91,74.3c-.03-.32-.04-.69-.03-1.09,0-.35.03-.77.07-1.25.03-.4.1-.85.19-1.33l6.9,1.37c.42.08.79.16,1.1.23.31.07.58.14.8.2.22.06.4.12.55.18.14.05.26.1.35.15l.34.08.4-2.04.02-.26-.28-.06h-.04c-.1.01-.23.01-.38.01-.15,0-.34-.02-.56-.05-.23-.03-.5-.07-.82-.11-.32-.05-.69-.12-1.11-.2l-6.9-1.37c.1-.48.21-.92.34-1.3.14-.46.28-.85.4-1.18.15-.38.31-.72.45-1.01l.18-.36-1.9-.04-.02.23c0,.06-.02.15-.04.26l-.06.4c-.02.15-.05.3-.08.46l-.15.85c-.02.11-.03.19-.04.24l-.85,4.27s-.03.13-.05.24l-.18.85c-.03.16-.07.31-.11.5l-.08.35c-.03.11-.05.2-.07.26l-.06.22,1.76.69-.03-.41Z"/>
        <path class="cls-1" d="M20.54,66.17c.22.24.31.36.35.43l.08.1.34.11.55-1.73.05-.25-.32-.11-.07.02s-.04,0-.1-.02c-.19-.06-.36-.16-.53-.29-.19-.15-.36-.29-.51-.41l-1.53-1.34c.07-.25.15-.51.24-.81l.81-2.57c.12-.37.22-.67.3-.92l2.1-.23c.29-.03.53-.03.71-.02.18.02.33.04.46.09.03.01.07.02.15.06l.36.13.71-2.23.05-.25-.33-.1-.09.04s-.1.03-.21.06c-.12.03-.28.07-.45.1-.18.04-.38.07-.61.11-.22.04-.45.07-.69.09l-10.3,1.15-.28.9,8.05,7.21c.3.26.55.5.73.69ZM14.59,59l4.3-.48c-.03.11-.07.23-.11.35l-.52,1.69c-.09.29-.18.58-.27.86l-.13.42-3.28-2.84Z"/>
        <path class="cls-1" d="M16.53,50.05c.25.3.59.55.99.73.38.17.75.27,1.11.29.36.03.72,0,1.07-.06.34-.06.68-.16,1.02-.28.33-.12.65-.25.97-.39.31-.14.62-.27.93-.39.29-.12.59-.22.88-.29.28-.07.56-.09.83-.09.26,0,.52.07.78.18.18.08.33.18.45.31.12.13.21.27.26.42.06.16.08.33.07.52-.01.19-.06.39-.16.6-.1.23-.24.42-.4.57-.17.16-.35.28-.55.37-.2.09-.42.15-.64.17-.22.02-.44.02-.66-.03l-.2-.04-.26.57,1.79,1.05.13-.08c.12-.08.27-.18.43-.31.16-.13.33-.28.5-.46.17-.18.34-.38.5-.61.17-.23.31-.49.44-.77.23-.5.34-.98.35-1.43,0-.44-.07-.85-.23-1.21-.16-.36-.38-.67-.66-.94-.28-.26-.58-.47-.91-.61-.44-.2-.91-.29-1.38-.25-.45.03-.92.12-1.38.26-.46.14-.91.31-1.37.51-.44.19-.87.36-1.29.51-.41.14-.8.24-1.17.29-.34.04-.65,0-.95-.13-.18-.08-.34-.18-.46-.3-.12-.11-.21-.24-.26-.38-.06-.14-.08-.3-.07-.46,0-.17.06-.36.15-.56.1-.22.22-.4.36-.53.14-.13.29-.23.44-.3.16-.07.31-.11.45-.13.15-.02.28-.02.39-.01l.18.02.24-.54-1.5-.74-.17-.06-.36.33c-.11.1-.23.22-.35.36-.13.14-.26.3-.39.49-.13.19-.26.41-.37.66-.15.34-.24.7-.27,1.08-.02.38.02.75.13,1.11.11.36.3.69.55.99Z"/>
        <path class="cls-1" d="M24.47,35.17c.19.35.47.65.82.91.33.24.68.41,1.03.51.34.1.7.15,1.06.16.35,0,.71-.02,1.06-.07.34-.05.69-.12,1.03-.19.33-.07.66-.14.99-.2.32-.06.62-.1.92-.11.29,0,.57.01.83.07.25.06.5.17.73.33.16.11.28.25.38.4.09.15.15.3.17.47.02.17.01.34-.04.52-.05.18-.14.37-.27.55-.15.2-.32.36-.51.48-.19.12-.4.21-.62.25-.21.05-.44.06-.66.04-.22-.02-.44-.07-.64-.16l-.19-.08-.36.51,1.55,1.38.14-.05c.13-.05.3-.12.48-.21.19-.09.38-.21.59-.35.21-.14.41-.31.61-.5.21-.19.4-.41.58-.66.32-.45.53-.9.63-1.33s.1-.85.02-1.23c-.08-.38-.24-.73-.46-1.05-.22-.31-.48-.57-.77-.78-.39-.28-.83-.46-1.3-.52-.45-.06-.92-.07-1.41-.02-.47.05-.95.12-1.44.23-.47.1-.93.18-1.36.24-.43.06-.83.08-1.2.05-.35-.02-.64-.13-.9-.32-.16-.11-.29-.24-.39-.38-.09-.13-.15-.28-.18-.43-.03-.15-.02-.31.02-.47s.13-.34.25-.52c.14-.2.3-.35.46-.45.17-.1.33-.17.49-.21.17-.04.32-.05.47-.04.16.01.28.03.38.06l.17.05.35-.48-1.46-1.14-.44.26c-.13.07-.27.17-.42.28-.15.11-.31.25-.48.4-.17.16-.33.35-.49.57-.22.3-.38.64-.48,1.01-.1.36-.13.74-.09,1.11.04.37.15.74.34,1.08Z"/>
        <path class="cls-1" d="M29.97,28.06c.16-.29.35-.6.57-.93.2-.29.45-.62.75-1,.25-.32.55-.66.89-1.01l5,4.94c.31.3.57.57.79.8.22.23.4.43.55.61.15.17.27.32.36.45.09.12.16.22.21.31l.25.26,1.46-1.48.15-.2-.17-.18-.06-.05c-.09-.05-.2-.12-.32-.2-.13-.09-.27-.2-.45-.35-.18-.15-.38-.33-.62-.55-.24-.22-.51-.47-.81-.78l-5-4.94c.34-.34.68-.64,1-.9.37-.3.7-.56.99-.76.33-.23.64-.43.93-.59l.35-.2-1.56-1.07-.15.18s-.1.11-.17.2l-.27.3c-.1.11-.21.22-.32.34l-.6.63c-.08.08-.13.14-.17.17l-3.06,3.1-.79.77c-.12.11-.23.22-.34.33l-.29.28c-.09.08-.15.14-.2.18l-.18.15,1.09,1.55.2-.36Z"/>
        <path class="cls-1" d="M37.73,18.68s.1.04.2.09c.12.05.26.13.42.21.16.09.34.19.54.3.19.11.39.23.59.36l8.69,5.67.79-.51-1.63-10.68c-.06-.38-.1-.72-.12-1-.02-.32,0-.48,0-.56v-.13s-.19-.3-.19-.3l-1.52.99-.2.16.2.29.05.03s.03.03.06.08c.11.16.18.35.22.55.05.23.09.45.13.64l1.27,7.55-6.49-4.24c-.24-.16-.43-.31-.56-.43-.13-.12-.23-.24-.3-.36-.02-.03-.04-.06-.08-.14l-.19-.33-1.97,1.27-.2.16.19.29.09.03Z"/>
        <path class="cls-1" d="M51.14,10.68c.06.09.12.2.19.34.07.14.15.32.23.54.09.22.18.48.28.79.1.31.21.67.33,1.08l1.4,4.76c.12.41.22.77.3,1.08.08.31.14.57.19.8.04.22.08.41.09.56.02.15.03.27.03.38l.09.34.24-.07c.13-.04.32-.09.6-.16l1.61-.39c.28-.07.52-.13.72-.19.56-.16,1.09-.37,1.59-.61.5-.25.96-.54,1.37-.87.41-.34.77-.72,1.07-1.14.3-.43.53-.9.69-1.42.15-.51.22-1.09.21-1.7-.01-.61-.12-1.27-.32-1.96-.29-.98-.68-1.77-1.18-2.36-.5-.59-1.07-1.03-1.71-1.31-.63-.27-1.32-.42-2.04-.39-.71.01-1.44.13-2.16.34-.27.08-.55.17-.85.27l-.86.28c-.28.09-.52.17-.74.25-.21.07-.36.12-.45.15l-.21.06c-.09.02-.17.04-.25.06l-.57.17.08.26.03.06ZM53.45,10.87s.09-.03.13-.05c.14-.05.28-.11.44-.16l.49-.17c.16-.05.31-.1.43-.14.63-.19,1.23-.25,1.77-.2.53.05,1.02.22,1.45.49.43.28.82.67,1.15,1.17.34.51.61,1.13.82,1.85.19.65.3,1.24.32,1.75.02.5-.03.96-.14,1.34-.11.38-.27.72-.48,1.01-.22.29-.46.54-.74.75-.28.21-.59.39-.91.54-.33.15-.67.27-1,.37-.08.02-.18.05-.3.08l-.37.09c-.13.03-.25.05-.36.08-.02,0-.05,0-.07.01-.09-.25-.19-.55-.31-.9-.15-.44-.29-.91-.44-1.39-.15-.49-.3-.96-.44-1.42-.14-.46-.26-.85-.36-1.18-.05-.15-.1-.33-.15-.54l-.37-1.32c-.06-.23-.13-.45-.19-.67l-.38-1.37Z"/>
        <path class="cls-1" d="M65.52,7.59c.03.1.06.22.09.36.03.15.06.34.09.57.03.23.06.51.08.82.02.32.05.69.07,1.12l.22,4.96c.02.43.03.8.04,1.13,0,.32,0,.59,0,.82-.01.23-.02.42-.04.57-.02.15-.04.27-.06.37v.07s0,.29,0,.29l2.07-.09.25-.04v-.25s-.02-.07-.02-.07c-.03-.1-.07-.22-.1-.36-.03-.15-.06-.34-.09-.56-.03-.23-.06-.51-.08-.82s-.05-.69-.07-1.12l-.22-4.96c-.02-.43-.03-.8-.03-1.12,0-.32,0-.6,0-.83,0-.23.02-.42.04-.57.02-.15.04-.27.07-.37v-.06s0-.29,0-.29l-2.08.09-.25.04v.26s.03.07.03.07Z"/>
        <path class="cls-1" d="M72.4,17.14c.42.62.98,1.16,1.65,1.6.67.44,1.44.75,2.3.94.44.1.87.14,1.29.14.13,0,.25,0,.38-.01.53-.04,1.04-.15,1.51-.32.47-.17.91-.41,1.31-.7.4-.29.76-.63,1.07-1,.31-.38.58-.79.8-1.24.22-.45.38-.93.49-1.41.19-.86.21-1.69.07-2.47-.14-.78-.43-1.49-.85-2.12-.42-.63-.97-1.17-1.64-1.61-.67-.44-1.44-.76-2.3-.95-.57-.13-1.13-.17-1.67-.13s-1.04.15-1.51.32c-.47.17-.91.41-1.31.7-.4.29-.76.63-1.07,1.01-.31.38-.58.8-.8,1.25-.22.45-.38.93-.49,1.41-.19.86-.21,1.7-.07,2.47.14.78.43,1.49.85,2.11ZM73.61,14.63c-.03-.67.04-1.38.2-2.12.14-.66.36-1.24.65-1.71.28-.47.62-.85,1-1.13.38-.27.8-.46,1.27-.55.2-.04.41-.06.63-.06.27,0,.56.03.84.1.65.14,1.19.39,1.62.75.43.36.76.8.98,1.32.23.53.36,1.13.39,1.78.03.67-.03,1.38-.2,2.12-.14.66-.36,1.24-.65,1.72-.28.47-.62.86-1.01,1.14-.38.28-.81.47-1.27.56-.46.09-.96.08-1.47-.03-.65-.14-1.19-.4-1.62-.76-.43-.36-.76-.81-.99-1.33-.23-.53-.36-1.13-.39-1.79Z"/>
        <path class="cls-1" d="M85.57,22.79l.13-.22.03-.07c.02-.1.06-.22.11-.36.05-.14.12-.32.22-.52.1-.21.22-.46.37-.74s.33-.61.54-.99l.7-1.24s.09.06.14.09c.13.08.25.16.38.23.11.06.22.12.33.17.06.03.13.06.19.09l.46,4.5c.02.18.02.36.02.52,0,.2-.03.29-.04.33l-.08.2,2.11,1.19.23.1.22-.38-.12-.14c-.06-.07-.11-.14-.15-.22-.05-.09-.09-.2-.12-.32-.04-.13-.07-.28-.1-.44-.03-.17-.06-.37-.08-.59l-.44-4.3c.23,0,.47-.01.7-.05.33-.06.64-.16.94-.31.29-.15.57-.34.83-.59.25-.24.48-.54.67-.87.25-.44.39-.88.43-1.32.04-.44-.02-.87-.17-1.28-.15-.4-.39-.78-.7-1.12-.31-.34-.7-.64-1.14-.89-.47-.27-.86-.46-1.19-.59-.31-.12-.55-.23-.7-.32-.11-.06-.21-.12-.31-.18-.1-.06-.18-.11-.26-.17l-.26-.19-.25-.14-.14.25-.02.06c-.02.1-.06.22-.11.37-.05.15-.13.32-.22.52-.1.21-.22.46-.37.74-.15.28-.33.61-.54.99l-2.45,4.32c-.21.38-.4.7-.57.97-.17.27-.32.5-.45.69-.13.19-.24.34-.33.46-.1.11-.18.21-.25.28l-.18.31,1.81,1.03.23.1ZM89.6,18.35c-.3-.05-.61-.16-.91-.34-.11-.06-.22-.13-.33-.21-.05-.04-.1-.07-.15-.11l2.29-4.04c.07.02.16.05.25.08.18.07.42.18.72.35.27.15.48.33.62.53.14.2.23.42.27.65.04.24.02.5-.05.78-.07.29-.2.59-.37.9-.22.38-.45.69-.71.91-.25.22-.51.37-.79.45-.27.08-.55.1-.84.05Z"/>
        <path class="cls-1" d="M105.39,25.94c.36-.16.68-.28.93-.37.31-.1.46-.13.54-.13l.13-.03.24-.27-1.34-1.23-.21-.15-.23.26-.02.06s-.03.04-.06.08c-.13.15-.29.27-.48.36-.21.11-.41.2-.59.29l-6.98,3.14,2.46-7.35c.09-.27.19-.49.28-.65.09-.15.18-.28.28-.39.02-.02.05-.05.11-.11l.27-.27-1.73-1.58-.21-.15-.23.26v.09s-.02.11-.04.23c-.02.13-.05.28-.1.46-.04.18-.09.38-.15.6-.06.22-.13.44-.2.66l-3.29,9.84.69.63,9.93-4.28Z"/>
        <path class="cls-1" d="M105.04,31.75c-.46.23-.92.45-1.36.66l-2.37,1.13c-.21.09-.39.16-.53.18-.15.03-.26.03-.36.04l-.11.02-.28.19,1.18,1.73.22-.22c.06-.06.12-.12.19-.18.07-.06.15-.13.25-.21.1-.08.22-.16.35-.26.11-.07.29-.18.53-.32.25-.14.54-.3.88-.47.33-.18.7-.36,1.09-.56l1.17-.6c.72-.37,1.49-.75,2.32-1.16l-4.16,7.95.39.74,8.92-.98-4.9,4.39c-.06.05-.11.1-.16.14-.05.04-.1.08-.15.11-.13.09-.25.16-.36.21-.14.06-.19.07-.21.08l-.34.2,1.23,1.8.16.19.27-.17.03-.07c.03-.05.06-.12.11-.19.05-.08.12-.17.21-.28.09-.11.21-.24.35-.38.14-.14.32-.31.53-.5l6.95-6.29-.62-.91-9.77,1.08,4.56-8.73-.76-1.12-.77.41c-.25.13-.55.28-.89.45-.34.17-.72.36-1.14.57l-1.3.64c-.45.22-.9.45-1.37.67Z"/>
        <path class="cls-1" d="M112.64,53.43c-.32-.06-.47-.1-.54-.14l-.12-.03-.34.11.6,1.72.11.23.32-.11.04-.06s.04-.02.1-.04c.19-.07.38-.09.59-.09.24,0,.46.02.65.03l2.03.15c.09.24.19.5.29.79l.89,2.55c.13.36.23.67.31.92l-1.53,1.44c-.22.2-.4.35-.55.44-.15.09-.29.16-.42.21-.03.01-.07.02-.16.04h-.05s-.31.11-.31.11l.78,2.21.11.23.33-.11.05-.08s.06-.09.13-.18c.08-.1.18-.22.3-.36.12-.14.26-.29.42-.45s.32-.33.49-.49l7.55-7.11-.31-.89-10.76-.93c-.39-.03-.73-.07-1-.11ZM121.7,55.59l-3.16,2.96c-.04-.11-.08-.22-.12-.34l-.9-2.52-.14-.41,4.33.31Z"/>
        <path class="cls-1" d="M119.05,65.43c-.42.09-.79.16-1.1.21-.31.05-.58.1-.81.12-.22.03-.41.04-.57.05-.15,0-.28,0-.38,0l-.35.06.33,1.58.08.24.25-.05.07-.02c.09-.05.21-.1.34-.15.14-.05.33-.11.54-.18.22-.07.49-.14.8-.21.31-.08.68-.16,1.1-.24l4.48-.93-6.27,8.96.13.62,8.18-1.7c.42-.09.79-.16,1.1-.21.31-.05.58-.1.82-.12.23-.03.42-.04.58-.05.15,0,.27,0,.37,0l.35-.06-.33-1.58-.08-.24-.25.05-.07.02c-.09.05-.21.1-.35.16-.14.06-.32.12-.54.18-.22.07-.49.14-.8.21-.31.08-.68.16-1.1.25l-4.63.96,6.28-8.96-.12-.59-.08-.24-.25.05-.07.02c-.09.05-.21.1-.35.16-.14.06-.32.12-.54.18-.22.07-.49.14-.8.21-.31.08-.68.16-1.1.24l-4.86,1.01Z"/>
        <path class="cls-1" d="M128.43,77.98c-.23.04-.51.08-.83.11-.32.04-.7.07-1.13.11l-4.95.4c-.43.03-.8.06-1.12.08-.32.02-.6.02-.82.02-.23,0-.42-.01-.57-.02-.15-.01-.28-.03-.38-.05h-.06s-.29.02-.29.02l.02.26c.01.14.02.33.03.59l.02.82c0,.29.02.58.03.87.01.29.02.54.04.75.05.58.14,1.15.28,1.68.14.54.33,1.05.58,1.52.24.47.55.9.9,1.28.35.38.78.7,1.25.96.47.25,1.02.44,1.62.56.39.07.82.11,1.27.11.23,0,.47-.01.72-.03,1.02-.08,1.87-.31,2.55-.67.68-.37,1.23-.84,1.63-1.4.39-.56.66-1.21.8-1.92.13-.7.17-1.43.11-2.19-.02-.28-.05-.57-.09-.88l-.2-1.67c-.03-.22-.05-.38-.05-.47,0-.05,0-.13-.01-.21,0-.09,0-.17,0-.26l-.05-.6-.27.03h-.06c-.1.05-.22.09-.37.13-.15.04-.34.08-.57.12ZM126.6,80.11c.24-.02.47-.03.7-.04l1.42-.09s.01.09.02.14c.02.15.05.3.07.47l.06.51c.02.17.04.32.05.45.05.66,0,1.26-.16,1.77-.16.51-.42.96-.78,1.32-.36.37-.82.67-1.38.89-.56.23-1.23.37-1.97.43-.68.06-1.27.04-1.77-.05-.5-.09-.93-.22-1.29-.41-.35-.19-.65-.41-.89-.68-.24-.27-.43-.56-.58-.88-.15-.32-.26-.65-.34-1-.08-.36-.13-.71-.16-1.05,0-.08-.01-.19-.02-.31,0-.13,0-.25-.01-.39,0-.13,0-.25,0-.37,0-.02,0-.05,0-.07.27-.04.58-.08.94-.12.46-.05.95-.1,1.45-.15l1.48-.14c.48-.04.89-.08,1.23-.11.16-.01.35-.03.56-.04l1.37-.1Z"/>
        <path class="cls-1" d="M130.43,91.57h-.33c-.1.04-.22.06-.37.08-.15.02-.34.04-.57.06-.23.02-.51.03-.83.04-.32,0-.7,0-1.13,0l-4.97-.06c-.43,0-.8-.01-1.13-.03-.32-.01-.59-.03-.82-.05-.23-.02-.42-.05-.57-.07-.15-.03-.27-.05-.37-.08h-.35s-.02,2.06-.02,2.06l.03.25h.29s.04,0,.04,0c.1-.03.22-.05.37-.08.15-.03.34-.04.56-.06.23-.02.51-.03.83-.04.32,0,.69,0,1.12,0l4.97.06c.43,0,.8.02,1.12.03.32.02.6.03.83.05.23.02.42.04.57.07.15.03.27.06.37.09h.36s.02-2.06.02-2.06l-.03-.26Z"/>
        <path class="cls-1" d="M130.08,98.1h-.04c-.1.03-.23.04-.38.05-.15.01-.35.02-.57.02-.23,0-.51-.01-.83-.03-.32-.02-.69-.05-1.12-.09l-4.94-.47c-.43-.04-.8-.08-1.12-.12-.32-.04-.59-.08-.81-.12-.22-.04-.41-.08-.56-.12-.14-.04-.26-.08-.36-.12l-.35-.04-.15,1.61v.26s.3.03.3.03h.04c.1-.03.22-.04.37-.05.15-.01.34-.02.57-.01.23,0,.51.01.82.03.32.02.69.05,1.12.09l4.56.43-8.55,6.64-.09.07-.06.63,8.32.79c.43.04.8.08,1.12.12.31.04.59.08.82.12.23.04.41.08.56.12.14.04.26.07.36.11l.35.04.15-1.61v-.26s-.29-.03-.29-.03h-.04c-.1.03-.23.04-.38.05-.15.01-.34.02-.57.02-.23,0-.51-.01-.83-.03-.32-.02-.69-.05-1.12-.09l-4.71-.45,8.56-6.64.09-.07.06-.6v-.25s-.3-.03-.3-.03Z"/>
        <path class="cls-1" d="M128.36,112.3c-.1,0-.23,0-.38,0-.15,0-.34-.02-.57-.05-.23-.03-.5-.07-.82-.12-.32-.05-.68-.13-1.1-.21l-4.86-1c-.42-.09-.79-.17-1.1-.24-.31-.07-.57-.14-.79-.21-.22-.07-.4-.13-.54-.18-.14-.06-.25-.11-.35-.16l-.35-.08-.72,3.48s-.03.13-.05.24l-.19.84c-.04.16-.07.31-.11.46l-.1.4c-.03.11-.05.2-.07.25l-.07.22,1.75.7-.02-.4c-.02-.36-.02-.76,0-1.2.01-.37.04-.81.09-1.31.04-.42.11-.88.21-1.36l4.18.86c-.06.25-.12.51-.2.77-.1.36-.2.68-.3.98-.11.35-.23.69-.34,1.02l-.08.22,1.59.7.02-.37c.01-.26.04-.56.08-.9.03-.29.08-.65.14-1.06.05-.35.11-.72.19-1.13l3.59.74-.05.32c-.02.16-.05.32-.07.48-.03.16-.05.3-.08.42-.07.34-.15.65-.23.9-.08.26-.16.48-.22.66-.08.2-.15.38-.23.53l-.1.21,1.5.93v-.45c0-.09.02-.28.1-.72.06-.37.14-.8.24-1.32.1-.51.21-1.08.33-1.69h0c.12-.62.25-1.23.37-1.86l.02-.26-.28-.06h-.03Z"/>
        <path class="cls-1" d="M126.15,122.42c-.1,0-.23-.02-.38-.04-.15-.02-.34-.06-.56-.11-.23-.05-.49-.13-.8-.22-.31-.09-.67-.2-1.07-.34l-4.71-1.56c-.41-.14-.76-.26-1.06-.37-.3-.11-.55-.21-.77-.3-.21-.09-.38-.17-.51-.24-.13-.07-.24-.14-.33-.2l-.33-.13-.51,1.54-.05.25.25.08h.07c.1.02.23.03.37.05.15.02.34.06.56.12.22.05.49.12.79.21.31.09.67.2,1.07.34l4.34,1.44-9.92,4.61-.2.6,7.93,2.62c.41.13.76.26,1.06.37.3.11.55.21.77.3.21.09.39.17.52.24.13.07.24.13.33.19l.33.13.51-1.54.05-.25-.25-.08h-.07c-.1-.02-.23-.03-.38-.05-.15-.02-.34-.06-.56-.11-.23-.05-.49-.13-.8-.22-.31-.09-.66-.2-1.07-.34l-4.49-1.48,9.82-4.56.1-.05.19-.57.05-.25-.24-.08h-.07Z"/>
        <path class="cls-1" d="M120.19,135.54c-.25-.31-.58-.56-.97-.75-.37-.18-.74-.28-1.11-.32-.36-.03-.72-.02-1.07.04-.34.05-.69.14-1.03.26-.33.11-.65.24-.98.37-.32.13-.63.25-.94.37-.3.11-.59.21-.88.27-.28.06-.56.09-.83.08-.26-.01-.52-.08-.78-.2-.18-.09-.32-.19-.44-.32-.12-.13-.2-.27-.25-.43-.05-.16-.07-.33-.06-.52.02-.19.07-.39.17-.59.11-.22.25-.42.41-.57.17-.15.36-.27.56-.36.2-.09.42-.14.64-.16.23-.02.45,0,.66.04l.2.04.27-.56-1.77-1.08-.13.08c-.12.07-.27.17-.44.3-.17.13-.34.28-.51.45-.17.17-.35.37-.51.6-.17.23-.32.48-.45.76-.24.5-.36.98-.38,1.42-.01.45.06.85.2,1.22.15.36.36.68.64.95.27.26.57.48.89.63.44.21.9.3,1.37.28.45-.02.92-.1,1.39-.23.46-.13.92-.3,1.38-.48.44-.18.88-.35,1.3-.48.41-.13.8-.22,1.17-.26.35-.04.65.01.94.15.18.08.33.19.45.31.11.11.2.24.26.39.06.14.08.29.06.46-.01.17-.06.36-.16.56-.1.22-.23.4-.37.52-.14.13-.29.23-.45.29-.15.07-.31.1-.45.12-.15.01-.28.02-.39,0l-.18-.02-.26.54,1.64.86.39-.34c.11-.1.23-.21.36-.35.13-.14.26-.3.4-.48.14-.19.26-.41.38-.65.16-.34.26-.7.29-1.08.03-.38,0-.75-.11-1.11-.11-.36-.28-.7-.53-1Z"/>
        <path class="cls-1" d="M116.81,144.65c-.1-.03-.22-.07-.36-.12-.14-.06-.32-.14-.53-.23-.21-.1-.45-.23-.73-.38-.28-.16-.61-.34-.97-.56l-4.27-2.54c-.37-.22-.69-.42-.96-.59-.27-.17-.5-.32-.68-.46-.18-.13-.34-.25-.45-.35-.11-.1-.21-.18-.28-.25l-.3-.19-1.06,1.78-.1.23.22.13.06.03c.1.03.22.07.36.12.14.05.32.13.52.23.21.1.45.23.73.38.28.15.61.34.97.56l4.27,2.54c.37.22.69.42.96.59.27.17.5.33.69.46.19.13.34.25.45.35.11.1.21.19.28.26l.3.2,1.07-1.79.1-.23-.22-.13-.06-.03Z"/>
        <path class="cls-1" d="M111.48,148.83c-.33-.24-.67-.42-1.03-.53-.34-.1-.7-.16-1.05-.17-.34-.02-.7,0-1.06.05-.34.05-.69.11-1.03.17-.34.07-.67.13-.99.18-.32.05-.62.09-.92.09-.29,0-.57-.02-.83-.09-.25-.06-.5-.18-.72-.35-.16-.12-.28-.25-.37-.4-.09-.15-.14-.3-.16-.47-.02-.17,0-.34.05-.52.05-.18.15-.37.28-.55.15-.2.32-.36.51-.48.2-.12.41-.2.62-.24.21-.04.44-.05.66-.03.22.02.44.08.64.17l.18.08.37-.5-1.53-1.41-.14.05c-.13.05-.3.11-.49.21-.19.09-.39.21-.59.34-.2.14-.41.3-.62.48-.21.19-.41.41-.59.65-.33.44-.55.89-.65,1.32-.1.43-.11.85-.03,1.23.08.38.22.74.44,1.05.21.31.47.58.75.79.39.29.82.47,1.29.54.45.07.92.08,1.41.04.48-.04.96-.11,1.44-.21.47-.09.93-.17,1.37-.22.43-.05.83-.06,1.2-.03.35.03.64.14.9.33.16.12.29.25.38.39.09.13.15.28.18.43.03.15.02.31-.03.47-.05.17-.13.34-.26.51-.15.2-.3.34-.46.44-.17.1-.33.17-.5.2-.16.03-.32.04-.47.03-.15-.01-.28-.04-.38-.07l-.17-.05-.36.48,1.44,1.16.45-.25c.13-.07.27-.16.42-.27s.32-.24.49-.4c.17-.16.34-.34.5-.56.22-.3.39-.64.49-1,.1-.36.14-.73.11-1.11-.03-.38-.14-.74-.32-1.09-.18-.35-.46-.66-.81-.92Z"/>
        <path class="cls-1" d="M54.62,163.88c-.59-.27-1.18-.45-1.75-.55-.57-.09-1.13-.12-1.67-.06-.54.05-1.05.17-1.54.36-.49.18-.94.43-1.35.73-.41.3-.78.64-1.1,1.03-.32.39-.59.82-.79,1.28-.37.81-.55,1.62-.56,2.42s.16,1.57.48,2.28c.32.71.79,1.37,1.41,1.96.62.59,1.37,1.09,2.25,1.49.43.2.89.36,1.36.48.47.12.92.2,1.34.22h.11s1.43-1.38,1.43-1.38l-.29-.44-.2.09c-.25.11-.51.2-.77.25-.26.05-.53.08-.79.08-.28,0-.57-.03-.85-.09-.27-.06-.53-.15-.78-.26-.69-.32-1.25-.72-1.66-1.19-.4-.47-.69-1.01-.84-1.58-.15-.58-.19-1.21-.1-1.87.09-.67.29-1.35.6-2.04.28-.61.62-1.12,1.02-1.51.4-.39.84-.68,1.31-.85.47-.17.98-.25,1.51-.21.54.04,1.09.18,1.64.43.58.26,1.07.6,1.46,1,.39.4.69.84.89,1.31l.07.15h.48s.14-1.85.14-1.85l-.09-.08c-.66-.64-1.46-1.17-2.37-1.59Z"/>
        <path class="cls-1" d="M67.24,166.96l-.03.29v.03c.02.1.04.23.05.38.01.15.01.34,0,.57,0,.23-.02.51-.05.83-.02.32-.06.69-.1,1.12l-.18,1.63c-.17-.01-.35-.03-.55-.04-.31-.02-.63-.05-.99-.08-.35-.03-.72-.06-1.09-.1-.38-.04-.75-.07-1.11-.11-.36-.04-.71-.08-1.04-.11-.23-.03-.45-.05-.64-.08l.19-1.7c.05-.43.09-.8.14-1.11.05-.32.09-.59.14-.82.04-.22.08-.41.13-.56.04-.14.08-.26.12-.36l.05-.35-2.07-.23h-.26s-.03.29-.03.29v.04c.02.1.04.23.05.38.01.15.01.34,0,.57,0,.23-.02.51-.05.83-.02.32-.06.69-.11,1.12l-.54,4.94c-.05.43-.09.8-.14,1.12-.04.32-.09.58-.13.81-.04.22-.09.41-.13.55-.04.14-.08.26-.12.36l-.05.35,2.08.23h.26s.03-.29.03-.29v-.03c-.02-.1-.04-.23-.05-.38-.01-.15-.01-.34,0-.57,0-.23.02-.51.05-.83.02-.32.06-.69.1-1.12l.22-2.01c.19.01.4.03.62.05.33.03.68.07,1.09.12l1.09.13c.39.04.76.09,1.11.13.36.04.69.08.99.12.19.02.36.04.51.06l-.22,1.99c-.05.43-.09.8-.14,1.11-.05.32-.09.59-.14.82-.04.22-.08.4-.13.55-.04.14-.08.26-.12.36l-.05.35,2.07.23h.26s.03-.29.03-.29v-.04c-.02-.1-.04-.23-.05-.38-.01-.15-.01-.34,0-.57,0-.23.02-.5.05-.82.02-.32.06-.69.11-1.12l.54-4.94c.05-.43.09-.8.14-1.12.04-.31.09-.59.14-.82.04-.22.09-.41.13-.56.04-.14.08-.26.12-.36l.05-.35-2.08-.23h-.26Z"/>
        <path class="cls-1" d="M75.46,177.5c-.04-.1-.08-.22-.13-.36-.04-.15-.09-.33-.13-.55-.05-.23-.09-.5-.14-.81-.05-.32-.1-.69-.15-1.11l-.59-4.93c-.05-.43-.09-.8-.11-1.12-.02-.32-.04-.6-.05-.83-.01-.23-.01-.42,0-.57,0-.15.02-.28.04-.38v-.07s-.03-.29-.03-.29l-2.06.25-.25.06.03.25.02.07c.04.1.08.21.12.36.04.15.09.34.13.56.05.23.09.5.14.81.05.32.1.69.15,1.12l.59,4.93c.05.43.09.8.12,1.12.03.32.05.59.05.82,0,.23,0,.42,0,.57,0,.15-.02.27-.03.37v.07s.03.29.03.29l2.06-.25.25-.06-.03-.25-.02-.07Z"/>
        <path class="cls-1" d="M84.25,174.07c-.31.19-.67.37-1.07.55-.34.16-.75.34-1.21.52-.4.15-.83.3-1.31.44l-1.89-6.76c-.11-.41-.21-.78-.28-1.09-.07-.31-.13-.58-.18-.81-.04-.22-.07-.41-.09-.56-.02-.15-.02-.27-.02-.38l-.09-.34-2.01.56-.24.1.07.25.03.06c.05.09.11.2.18.34.07.14.14.32.22.53.08.22.17.48.26.78.1.31.2.67.32,1.08l1.33,4.78c.12.41.21.78.29,1.09.08.31.13.58.18.8.04.22.07.41.09.56.01.15.02.28.02.38l.09.34,3.42-.96s.1-.03.23-.06l.84-.22c.16-.04.31-.08.45-.11l.39-.09c.11-.03.2-.05.26-.06l.23-.04-.18-1.88-.35.2Z"/>
        <path class="cls-1" d="M92.77,170.11c-.27.25-.59.5-.94.75-.3.22-.66.47-1.08.74-.36.23-.76.46-1.19.68l-1.92-3.81c.23-.11.47-.22.73-.32.34-.14.66-.27.95-.38.34-.13.68-.25,1.01-.37l.22-.08-.44-1.68-.3.21c-.21.15-.47.32-.75.5-.25.15-.56.34-.92.55-.3.18-.64.36-1.01.55l-1.65-3.27.28-.16c.13-.08.27-.16.42-.24.14-.08.27-.15.38-.2.31-.16.6-.29.85-.38.26-.1.47-.18.66-.23.21-.07.39-.12.55-.15l.23-.05-.2-1.75-.36.28c-.1.07-.3.2-.62.37-.32.18-.72.39-1.18.63-.46.24-.97.51-1.53.79h0c-.56.29-1.12.57-1.69.86l-.22.14.12.23.04.05c.07.08.15.18.24.3.09.12.2.28.32.48.12.2.26.44.41.72.15.28.33.61.52,1l2.24,4.44c.19.38.36.72.49,1.01.13.29.24.54.33.75.08.21.15.39.19.54.04.14.07.27.09.37l.15.32,3.17-1.6s.11-.06.21-.11l.78-.38c.15-.07.29-.14.42-.2l.37-.17c.11-.05.19-.08.25-.11l.21-.09-.54-1.81-.3.27Z"/>
        <path class="cls-1" d="M56.35,60.77c-.87-1.19-2.66-1.17-3.5.05l-3.17,4.58h0s-1.51-2.17-1.51-2.17c-.77-1.12-2.37-1.26-3.34-.31l-7.33,7.51c-.21.2-.35.46-.42.74l-.49,2.01c-.05.2-.15.37-.32.55l-6.21,6.72,1.87.57,4.75-5.1h0c.16-.02.31-.05.43-.08.84-.23,1.79-.88,2.41-.88.29,0,.52.14.62.54.34,1.23-1.49,3.08.07,3.21.1,0,.2.01.3.01,1.42,0,2.89-.91,6.17-2.9.77-.47,1.42-.64,1.98-.64.71,0,1.26.27,1.72.54,0,0,1.02.64,1.95.17l-1.06-1.65h0s-.01-.01-.02-.02c-.6-.34-1.45-.78-2.61-.78-.94,0-1.91.3-2.88.89,0,0-3.03,1.84-3.94,2.26.1-.48.13-1.01-.02-1.55-.3-1.12-1.18-1.82-2.29-1.82-.19,0-.4.04-.62.09h0s-.06,0-.09,0c-.23,0-.42-.19-.42-.42,0-.04,0-.09.02-.13h0s.23-.76.23-.76c.07-.23.19-.43.36-.6l6.74-6.92c.35-.35.94-.3,1.22.12l11.47,16.42,1.77-.54-7.82-11.14c.08-.04.16-.07.27-.07,1.04,0,3.27,1.92,4.15,1.92.01,0,.03,0,.04,0,.97-.08.75-.42.61-1.18-.23-1.08-.06-1.38.25-1.38.35,0,.88.36,1.28.46.17.05.45.07.75.07.17,0,.35,0,.52-.02l1.92,2.61,1.8-.55-7.64-10.44ZM52.38,69.33h0,0s0,0,0,0ZM57.72,66.9c-.63,0-1.21.27-1.6.75-.27.33-.41.7-.47,1.08,0,0-.62-.47-1.61-.86-.1-.04-.2-.08-.31-.12-.09-.03-.18-.06-.27-.08-.06-.02-.12-.04-.17-.05h0c-.67-.18-1.43-.3-2.27-.24l-.27-.41,1.47-2.12,1.79-2.58c.29-.41.89-.42,1.19-.02l2.28,3.11,1.32,1.79c-.32-.13-.67-.24-1.08-.24Z"/>
      </g>
    </g>
  </g>
</svg>