<?xml version="1.0" encoding="UTF-8"?>
<svg id="Capa_2" data-name="Capa 2" xmlns="http://www.w3.org/2000/svg" viewBox="0 0 579.71 122.2">
  <defs>
    <style>
      .cls-1 {
        fill: #243746;
      }
    </style>
  </defs>
  <g id="Capa_1-2" data-name="Capa 1">
    <g id="i_de_ciencias_de_la_familia">
      <rect class="cls-1" x="303.71" y="36.08" width="2.1" height="49.16"/>
      <g>
        <g>
          <path class="cls-1" d="M162.88,71.56c-1.05-.63-2.27-.94-3.63-.94s-2.56.31-3.63.94c-1.07.63-1.91,1.49-2.52,2.58-.61,1.09-.91,2.35-.91,3.78s.31,2.66.93,3.78c.62,1.11,1.46,1.98,2.52,2.61,1.06.63,2.27.94,3.62.94s2.58-.32,3.65-.95c1.06-.64,1.9-1.51,2.51-2.61.61-1.1.91-2.36.91-3.76s-.31-2.68-.93-3.78c-.62-1.09-1.45-1.95-2.51-2.58ZM162.34,80.17c-.28.63-.67,1.11-1.2,1.45-.52.34-1.15.51-1.87.51s-1.38-.17-1.91-.51c-.53-.34-.94-.83-1.23-1.45-.28-.63-.43-1.38-.43-2.25s.14-1.65.43-2.27c.28-.62.69-1.09,1.23-1.42s1.17-.5,1.91-.5,1.34.17,1.87.5c.52.33.92.81,1.2,1.42.27.62.41,1.37.41,2.27s-.14,1.62-.41,2.25Z"/>
          <path class="cls-1" d="M196.11,65.09l-7.98,19.86h4.02l1.3-3.49c.09-.24.31-.39.56-.39h7.4l1.28,3.5c.08.23.3.38.54.38h3.61l-7.98-19.86h-2.76ZM194.83,77.77l2.7-7.24,2.66,7.24h-5.37Z"/>
          <path class="cls-1" d="M147.03,66.3h2.84v18.65h-3.51v-17.99c0-.37.3-.66.66-.66Z"/>
          <path class="cls-1" d="M234.3,72.85c-.07-.12-.14-.24-.23-.35-.48-.63-1.04-1.1-1.7-1.41-.66-.31-1.36-.47-2.12-.47-1.08,0-2.08.29-2.99.87-.91.58-1.64,1.41-2.18,2.49-.54,1.08-.81,2.4-.81,3.93,0,1.39.24,2.64.73,3.75.48,1.11,1.17,1.99,2.07,2.62.89.64,1.96.96,3.19.96.7,0,1.38-.14,2.04-.41.66-.28,1.24-.74,1.74-1.4.1-.13.18-.27.27-.41l.26,1.94h3.25v-18.65h-3.08c-.23,0-.42.19-.42.42v6.12ZM233.03,81.48c-.5.34-1.11.51-1.81.51s-1.28-.17-1.8-.5c-.51-.33-.91-.8-1.18-1.41-.28-.61-.41-1.33-.41-2.17s.14-1.55.41-2.15c.27-.6.67-1.06,1.18-1.4.51-.33,1.11-.5,1.8-.5s1.31.17,1.81.5c.5.33.89.8,1.17,1.41.28.61.41,1.32.41,2.14s-.14,1.53-.41,2.14c-.28.61-.67,1.08-1.17,1.43Z"/>
          <path class="cls-1" d="M114.75,72.85c-.07-.12-.14-.24-.23-.35-.48-.63-1.04-1.1-1.7-1.41-.66-.31-1.36-.47-2.12-.47-1.08,0-2.08.29-2.99.87-.91.58-1.64,1.41-2.18,2.49-.54,1.08-.81,2.4-.81,3.93,0,1.39.24,2.64.73,3.75.48,1.11,1.17,1.99,2.07,2.62.89.64,1.96.96,3.19.96.7,0,1.38-.14,2.04-.41.66-.28,1.24-.74,1.74-1.4.1-.13.18-.27.27-.41l.26,1.94h3.25v-18.65h-3.08c-.23,0-.42.19-.42.42v6.12ZM113.48,81.48c-.5.34-1.11.51-1.81.51s-1.28-.17-1.8-.5c-.51-.33-.91-.8-1.18-1.41-.28-.61-.41-1.33-.41-2.17s.14-1.55.41-2.15c.27-.6.67-1.06,1.18-1.4.51-.33,1.11-.5,1.8-.5s1.31.17,1.81.5c.5.33.89.8,1.17,1.41s.41,1.32.41,2.14-.14,1.53-.41,2.14c-.28.61-.67,1.08-1.17,1.43Z"/>
          <path class="cls-1" d="M216.52,70.61c-.67,0-1.31.12-1.94.36-.63.24-1.18.61-1.65,1.13-.19.21-.36.45-.51.71v-1.91h-3.56v14.05h3.17c.22,0,.4-.18.4-.4v-6.33c0-1.06.11-1.93.34-2.59.23-.66.57-1.15,1.01-1.47.45-.31,1.01-.47,1.7-.47.89,0,1.55.27,1.97.81.42.54.63,1.4.63,2.58v7.87h3.17c.22,0,.4-.18.4-.4v-8.78c0-1.63-.45-2.9-1.35-3.81s-2.15-1.35-3.75-1.35Z"/>
          <path class="cls-1" d="M252.23,72.71c-.53-.66-1.21-1.17-2.02-1.54-.82-.37-1.78-.56-2.88-.56-1.18,0-2.19.21-3.04.64-.85.43-1.53.99-2.07,1.7-.53.7-.93,1.49-1.2,2.37-.27.87-.4,1.77-.4,2.68s.13,1.86.4,2.72c.27.87.68,1.63,1.24,2.31.56.67,1.28,1.21,2.15,1.61.87.4,1.92.6,3.14.6.82,0,1.54-.07,2.18-.21s1.25-.37,1.84-.7c.59-.32,1.22-.74,1.88-1.25l-1.77-2.39c-.53.48-1.14.84-1.82,1.1-.68.26-1.39.39-2.11.39-.99,0-1.81-.26-2.47-.77-.55-.43-.9-1.03-1.06-1.81-.05-.24.13-.48.38-.48h9.16c.04-.27.06-.52.07-.76,0-.24.01-.42.01-.56,0-.99-.14-1.92-.41-2.79-.28-.87-.68-1.64-1.21-2.3ZM244.13,76.49c.06-.47.2-.94.44-1.38.24-.45.59-.81,1.07-1.1.47-.29,1.06-.43,1.77-.43.48,0,.9.07,1.27.21.37.14.69.35.96.61.27.27.48.58.63.93.12.27.19.56.22.86.01.16-.12.3-.28.3h-6.06Z"/>
          <path class="cls-1" d="M265.54,77.2c-.53-.32-1.1-.58-1.71-.77-.61-.19-1.2-.35-1.77-.48-.61-.15-1.1-.29-1.47-.41-.37-.12-.64-.27-.8-.44-.16-.17-.24-.38-.24-.63,0-.36.18-.65.53-.86.35-.21.8-.31,1.35-.31.63,0,1.22.14,1.78.41.44.22.82.52,1.12.91.14.18.41.2.58.06l1.85-1.46c-.53-.84-1.25-1.48-2.17-1.92-.91-.45-1.93-.67-3.05-.67-1.87,0-3.3.53-4.31,1.58-.67.7-1,1.65-.99,2.62,0,.73.15,1.33.44,1.82.29.49.68.9,1.16,1.21.47.31,1,.57,1.57.76s1.12.36,1.65.51c.51.13.98.27,1.4.41.42.14.75.32,1,.54.25.22.37.5.37.84,0,.42-.19.77-.58,1.04-.39.28-.94.41-1.64.41-.89,0-1.64-.22-2.24-.67-.46-.34-.84-.71-1.13-1.1-.15-.19-.43-.21-.61-.06l-2.06,1.8c.32.42.76.86,1.3,1.31s1.2.84,1.98,1.14c.78.3,1.69.46,2.74.46,1.16,0,2.17-.2,3.02-.6.86-.4,1.52-.96,2-1.67.47-.71.71-1.53.71-2.47,0-.82-.16-1.49-.48-2.02-.32-.53-.75-.96-1.28-1.28Z"/>
          <path class="cls-1" d="M177.97,77.2c-.53-.32-1.1-.58-1.71-.77-.61-.19-1.2-.35-1.77-.48-.61-.15-1.1-.29-1.47-.41-.37-.12-.64-.27-.8-.44-.16-.17-.24-.38-.24-.63,0-.36.18-.65.53-.86.35-.21.8-.31,1.35-.31.63,0,1.22.14,1.78.41.44.22.82.52,1.12.91.14.18.41.2.58.06l1.85-1.46c-.53-.84-1.25-1.48-2.17-1.92-.91-.45-1.93-.67-3.05-.67-1.87,0-3.3.53-4.31,1.58-.67.7-1,1.65-.99,2.62,0,.73.15,1.33.44,1.82.29.49.68.9,1.16,1.21.47.31,1,.57,1.57.76s1.12.36,1.65.51c.51.13.98.27,1.4.41.42.14.75.32,1,.54.25.22.37.5.37.84,0,.42-.19.77-.58,1.04s-.94.41-1.64.41c-.89,0-1.64-.22-2.24-.67-.46-.34-.84-.71-1.13-1.1-.15-.19-.43-.21-.61-.06l-2.06,1.8c.32.42.76.86,1.3,1.31.54.46,1.2.84,1.98,1.14.78.3,1.69.46,2.74.46,1.16,0,2.17-.2,3.02-.6.86-.4,1.52-.96,2-1.67.47-.71.71-1.53.71-2.47,0-.82-.16-1.49-.48-2.02-.32-.53-.75-.96-1.28-1.28Z"/>
          <path class="cls-1" d="M132.67,72.71c-.53-.66-1.21-1.17-2.02-1.54-.82-.37-1.78-.56-2.88-.56-1.18,0-2.19.21-3.04.64-.85.43-1.53.99-2.07,1.7-.53.7-.93,1.49-1.2,2.37-.27.87-.4,1.77-.4,2.68s.13,1.86.4,2.72c.27.87.68,1.63,1.24,2.31.56.67,1.28,1.21,2.15,1.61.87.4,1.92.6,3.14.6.82,0,1.54-.07,2.18-.21s1.25-.37,1.84-.7c.59-.32,1.22-.74,1.88-1.25l-1.77-2.39c-.53.48-1.14.84-1.82,1.1-.68.26-1.39.39-2.11.39-.99,0-1.81-.26-2.47-.77-.55-.43-.9-1.03-1.06-1.81-.05-.24.13-.48.38-.48h9.16c.04-.27.06-.52.07-.76,0-.24.01-.42.01-.56,0-.99-.14-1.92-.41-2.79-.28-.87-.68-1.64-1.21-2.3ZM124.58,76.49c.06-.47.2-.94.44-1.38.24-.45.59-.81,1.07-1.1.47-.29,1.06-.43,1.77-.43.48,0,.9.07,1.27.21.37.14.69.35.96.61s.48.58.63.93c.12.27.19.56.22.86.01.16-.12.3-.28.3h-6.06Z"/>
        </g>
        <g>
          <path class="cls-1" d="M119.96,48.62v-12.54h-3.08c-.33,0-.6.27-.6.6v11.69c0,1.01-.11,1.86-.34,2.55-.23.69-.63,1.22-1.21,1.57-.58.35-1.38.53-2.41.53s-1.83-.18-2.41-.53c-.58-.35-.98-.87-1.2-1.57-.22-.69-.33-1.55-.33-2.58v-12.26h-3.08c-.33,0-.6.27-.6.6v12.08c0,2.55.64,4.46,1.92,5.73,1.28,1.27,3.18,1.91,5.69,1.91s4.41-.65,5.7-1.95c1.29-1.3,1.94-3.24,1.94-5.83Z"/>
          <path class="cls-1" d="M143.02,55.94v-14.05h-3.14c-.22,0-.39.18-.39.39v13.66h3.53Z"/>
          <path class="cls-1" d="M152.37,51.32l-3.18-9.09c-.07-.21-.27-.35-.49-.35h-3.51l5.76,14.05h2.51c.24,0,.46-.15.55-.37l5.55-13.68h-3.82l-3.36,9.43Z"/>
          <path class="cls-1" d="M183.17,45.14c.32,0,.65.05.97.14.32.1.59.2.8.31l1.71-3.19c-.46-.28-.9-.49-1.33-.61-.43-.12-.88-.19-1.35-.19-.67,0-1.32.18-1.95.53s-1.17.84-1.61,1.47c-.07.11-.14.22-.2.33v-2.04h-3.56v14.05h3.16c.22,0,.4-.18.4-.4v-5.64c0-.78.02-1.37.07-1.78.05-.41.11-.75.18-1.01.17-.47.39-.85.67-1.14.27-.28.59-.49.94-.63.35-.13.72-.2,1.1-.2Z"/>
          <path class="cls-1" d="M234.19,55.94h3.25v-8.86c0-1.71-.54-3.05-1.62-4.02-1.08-.97-2.59-1.45-4.53-1.45-1.2,0-2.31.18-3.35.53-1.04.35-2.05.93-3.04,1.72l1.8,2.42c.59-.53,1.27-.95,2.04-1.24.77-.29,1.53-.44,2.27-.44.89,0,1.6.2,2.12.61.52.41.78,1.03.78,1.87v.34h-4.05c-.67,0-1.29.06-1.87.17-.58.11-1.11.31-1.58.6-.55.3-.99.75-1.32,1.33-.33.58-.5,1.28-.5,2.09,0,.91.23,1.72.7,2.42s1.1,1.24,1.91,1.62c.81.38,1.72.57,2.75.57.72,0,1.41-.14,2.05-.43s1.22-.74,1.72-1.35c.08-.1.15-.21.23-.32l.25,1.81ZM233.43,51.82c-.31.48-.73.87-1.25,1.14s-1.1.41-1.72.41c-.7,0-1.26-.16-1.68-.48-.42-.32-.63-.75-.63-1.28,0-.25.05-.47.14-.67s.24-.37.43-.5c.21-.17.46-.28.76-.33.29-.05.59-.07.9-.07h3.53v.11c0,.63-.16,1.18-.47,1.67Z"/>
          <circle class="cls-1" cx="141.25" cy="37.9" r="1.91"/>
          <circle class="cls-1" cx="203.59" cy="37.9" r="1.91"/>
          <path class="cls-1" d="M218.2,43.83c-.07-.12-.14-.24-.23-.35-.48-.63-1.04-1.1-1.7-1.41-.66-.31-1.36-.47-2.12-.47-1.08,0-2.08.29-2.99.87-.91.58-1.64,1.41-2.18,2.49-.54,1.08-.81,2.4-.81,3.93,0,1.39.24,2.64.73,3.75.48,1.11,1.17,1.99,2.07,2.62.89.64,1.96.96,3.19.96.7,0,1.38-.14,2.04-.41.66-.28,1.24-.74,1.74-1.4.1-.13.18-.27.27-.41l.26,1.94h3.25v-18.65h-3.08c-.23,0-.42.19-.42.42v6.12ZM216.93,52.46c-.5.34-1.11.51-1.81.51s-1.28-.17-1.8-.5c-.51-.33-.91-.8-1.18-1.41-.28-.61-.41-1.33-.41-2.17s.14-1.55.41-2.15c.27-.6.67-1.06,1.18-1.4.51-.33,1.11-.5,1.8-.5s1.31.17,1.81.5c.5.33.89.8,1.17,1.41.28.61.41,1.32.41,2.14s-.14,1.53-.41,2.14c-.28.61-.67,1.08-1.17,1.43Z"/>
          <path class="cls-1" d="M250.12,43.83c-.07-.12-.14-.24-.23-.35-.48-.63-1.04-1.1-1.7-1.41-.66-.31-1.36-.47-2.12-.47-1.08,0-2.08.29-2.99.87-.91.58-1.64,1.41-2.18,2.49-.54,1.08-.81,2.4-.81,3.93,0,1.39.24,2.64.73,3.75.48,1.11,1.17,1.99,2.07,2.62.89.64,1.96.96,3.19.96.7,0,1.38-.14,2.04-.41.66-.28,1.24-.74,1.74-1.4.1-.13.18-.27.27-.41l.26,1.94h3.25v-18.65h-3.08c-.23,0-.42.19-.42.42v6.12ZM248.85,52.46c-.5.34-1.11.51-1.81.51s-1.28-.17-1.8-.5c-.51-.33-.91-.8-1.18-1.41-.28-.61-.41-1.33-.41-2.17s.14-1.55.41-2.15c.27-.6.67-1.06,1.18-1.4.51-.33,1.11-.5,1.8-.5s1.31.17,1.81.5c.5.33.89.8,1.17,1.41s.41,1.32.41,2.14-.14,1.53-.41,2.14c-.28.61-.67,1.08-1.17,1.43Z"/>
          <path class="cls-1" d="M131.11,41.6c-.67,0-1.31.12-1.94.36-.63.24-1.18.61-1.65,1.13-.19.21-.36.45-.51.71v-1.91h-3.56v14.05h3.17c.22,0,.4-.18.4-.4v-6.33c0-1.06.11-1.93.34-2.59.23-.66.57-1.15,1.01-1.47.45-.31,1.01-.47,1.7-.47.89,0,1.55.27,1.97.81.42.54.63,1.4.63,2.58v7.87h3.17c.22,0,.4-.18.4-.4v-8.78c0-1.63-.45-2.9-1.35-3.81-.9-.9-2.15-1.35-3.75-1.35Z"/>
          <path class="cls-1" d="M172.18,43.69c-.53-.66-1.21-1.17-2.02-1.54-.82-.37-1.78-.56-2.88-.56-1.18,0-2.19.21-3.04.64-.85.43-1.53.99-2.07,1.7-.53.7-.93,1.49-1.2,2.37-.27.87-.4,1.77-.4,2.68s.13,1.86.4,2.72c.27.87.68,1.63,1.24,2.31.56.67,1.28,1.21,2.15,1.61.87.4,1.92.6,3.14.6.82,0,1.54-.07,2.18-.21.64-.14,1.25-.37,1.84-.7.59-.32,1.22-.74,1.88-1.25l-1.77-2.39c-.53.48-1.14.84-1.82,1.1-.68.26-1.39.39-2.11.39-.99,0-1.81-.26-2.47-.77-.55-.43-.9-1.03-1.06-1.81-.05-.24.13-.48.38-.48h9.16c.04-.27.06-.52.07-.76,0-.24.01-.42.01-.56,0-.99-.14-1.92-.41-2.79-.28-.87-.68-1.64-1.21-2.3ZM164.08,47.47c.06-.47.2-.94.44-1.38.24-.45.59-.81,1.07-1.1.47-.29,1.06-.43,1.77-.43.48,0,.9.07,1.27.21.37.14.69.35.96.61s.48.58.63.93c.12.27.19.56.22.86.01.16-.12.3-.28.3h-6.06Z"/>
          <path class="cls-1" d="M197.23,48.19c-.53-.32-1.1-.58-1.71-.77-.61-.19-1.2-.35-1.77-.48-.61-.15-1.1-.29-1.47-.41-.37-.12-.64-.27-.8-.44-.16-.17-.24-.38-.24-.63,0-.36.18-.65.53-.86.35-.21.8-.31,1.35-.31.63,0,1.22.14,1.78.41.44.22.82.52,1.12.91.14.18.41.2.58.06l1.85-1.46c-.53-.84-1.25-1.48-2.17-1.92-.91-.45-1.93-.67-3.05-.67-1.87,0-3.3.53-4.31,1.58-.67.7-1,1.65-.99,2.62,0,.73.15,1.33.44,1.82.29.49.68.9,1.16,1.21.47.31,1,.57,1.57.76.57.19,1.12.36,1.65.51.51.13.98.27,1.4.41.42.14.75.32,1,.54.25.22.37.5.37.84,0,.42-.19.77-.58,1.04s-.94.41-1.64.41c-.89,0-1.64-.22-2.24-.67-.46-.34-.84-.71-1.13-1.1-.15-.19-.43-.21-.61-.06l-2.06,1.8c.32.42.76.86,1.3,1.31s1.2.84,1.98,1.14c.78.3,1.69.46,2.74.46,1.16,0,2.17-.2,3.02-.6.86-.4,1.52-.96,2-1.67.47-.71.71-1.53.71-2.47,0-.82-.16-1.49-.48-2.02s-.75-.96-1.28-1.28Z"/>
          <path class="cls-1" d="M205.36,55.94v-14.05h-3.14c-.22,0-.39.18-.39.39v13.66h3.53Z"/>
        </g>
      </g>
      <g>
        <path class="cls-1" d="M45.15,0C20.21,0,0,27.35,0,61.1s20.21,61.1,45.15,61.1,45.15-27.35,45.15-61.1S70.08,0,45.15,0ZM45.15,120.71C21.03,120.71,1.4,93.97,1.4,61.1S21.03,1.48,45.15,1.48s43.75,26.74,43.75,59.62-19.62,59.62-43.75,59.62Z"/>
        <circle class="cls-1" cx="25.35" cy="104.62" r="1"/>
        <circle class="cls-1" cx="65.59" cy="104.62" r="1"/>
        <path class="cls-1" d="M45.15,15.18c-16.64,0-30.12,20.56-30.12,45.92s13.49,45.92,30.12,45.92,30.12-20.56,30.12-45.92S61.79,15.18,45.15,15.18ZM73.79,60.33h-27.9V16.68c15.29.6,27.64,19.88,27.9,43.65ZM44.42,16.68v43.65h-27.9c.26-23.77,12.61-43.05,27.9-43.65ZM16.51,61.81h27.9v43.71c-15.31-.6-27.66-19.91-27.9-43.71ZM45.89,105.52v-43.71h27.9c-.24,23.8-12.6,43.11-27.9,43.71Z"/>
        <path class="cls-1" d="M15.18,96.05c-.25.05-.47.09-.65.11-.21.02-.31.02-.37.01h-.08l-.19.13.69.98.11.12.19-.14.02-.03s.02-.02.05-.04c.11-.07.23-.13.36-.16.15-.04.29-.07.42-.1l4.92-1.04-2.61,4.38c-.1.16-.19.29-.27.38-.08.08-.15.16-.23.21-.02.01-.04.03-.09.05l-.21.14.89,1.26.11.13.18-.14.02-.06s.02-.07.05-.14c.03-.08.07-.17.13-.28.05-.11.11-.23.18-.36.07-.13.14-.26.22-.39l3.49-5.86-.36-.5-6.97,1.36Z"/>
        <path class="cls-1" d="M14.68,93.34l2.94-1.42c.25-.12.48-.23.67-.31.19-.09.36-.16.5-.21.14-.05.26-.09.35-.12.09-.03.18-.05.24-.06l.21-.1-.46-.95-.09-.14-.15.07-.04.03c-.05.05-.12.1-.2.15-.08.06-.19.13-.32.2-.13.08-.29.17-.47.26-.19.1-.41.21-.66.33l-2.7,1.31,2.56-6.71-.18-.37-4.94,2.4c-.25.12-.48.23-.67.31-.19.09-.36.16-.5.21-.14.05-.26.1-.36.12-.09.03-.17.05-.24.06l-.21.1.46.95.09.14.15-.07.04-.03c.05-.05.12-.1.2-.16.08-.06.19-.13.32-.2.13-.08.29-.17.48-.26.19-.1.41-.21.66-.33l2.79-1.36-2.56,6.72.17.35.09.14.15-.07.04-.03c.05-.05.12-.1.2-.16.08-.06.19-.13.32-.2.13-.08.29-.17.47-.26.19-.1.41-.21.66-.33Z"/>
        <path class="cls-1" d="M10.93,84.92l3.07-1.09c.27-.09.5-.17.7-.24.2-.06.37-.11.52-.15.15-.04.27-.07.37-.08.1-.02.18-.03.24-.03l.22-.07-.46-1.29-.07-.15-.16.06-.04.02c-.06.04-.13.08-.21.13-.09.05-.2.1-.33.16-.14.06-.31.13-.5.21-.2.08-.43.16-.69.26l-3.07,1.09c-.26.09-.5.17-.7.24-.2.06-.37.11-.52.16-.14.04-.26.07-.36.08-.1.02-.18.03-.25.03l-.22.07.46,1.29.07.15.16-.06.04-.02c.06-.04.13-.08.21-.13.09-.05.2-.1.34-.17.14-.06.31-.13.5-.21.2-.08.43-.16.69-.26Z"/>
        <path class="cls-1" d="M8.99,81.47l5.36-4.21-.15-.6-6.99-1.24c-.25-.04-.47-.09-.65-.14-.2-.05-.3-.09-.34-.12l-.08-.03-.23.06.29,1.16.06.16.23-.06.03-.03s.03-.01.06-.02c.12-.03.26-.04.39-.02.16.02.3.04.43.05l4.96.8-4.01,3.14c-.15.12-.28.2-.39.26-.1.05-.2.09-.28.11-.02,0-.05.01-.1.02h-.03s-.22.05-.22.05l.38,1.5.06.16.22-.05.04-.05s.05-.05.1-.11c.06-.06.13-.13.22-.22.09-.08.19-.18.3-.27.11-.1.23-.19.35-.29Z"/>
        <path class="cls-1" d="M6.46,73.04c.15-.03.33-.07.53-.11.21-.04.45-.07.73-.11l3.23-.46c.28-.04.52-.07.73-.09.21-.02.39-.04.54-.05.15,0,.27,0,.37,0,.1,0,.18.01.25.02l.23-.03-.33-2.3-.09-.72c-.01-.11-.03-.21-.04-.31l-.03-.27c0-.08-.01-.13-.01-.17v-.15s-1.25-.04-1.25-.04l.1.24c.09.22.19.47.27.74.08.23.15.51.23.83.07.27.13.57.18.89l-2.78.4c-.02-.17-.04-.34-.05-.52-.02-.24-.03-.47-.03-.67,0-.24-.01-.48-.02-.71v-.15s-1.14-.08-1.14-.08l.07.23c.05.17.1.36.15.57.04.19.09.42.15.69.05.22.09.47.13.74l-2.38.34-.04-.21c-.02-.1-.04-.2-.06-.31-.02-.11-.04-.2-.05-.28-.03-.23-.05-.43-.06-.61,0-.18-.01-.33,0-.46,0-.14,0-.27.02-.38l.02-.15-1.13-.24.1.28c.02.05.05.18.1.46.04.24.09.53.15.87.05.34.11.71.17,1.12s.12.82.18,1.23l.04.16.16-.02h.05c.06-.04.14-.07.23-.1.1-.03.22-.06.36-.1Z"/>
        <path class="cls-1" d="M5.02,66.51c.06-.02.15-.04.24-.06.1-.02.22-.04.37-.06.15-.02.33-.04.54-.05.21-.02.46-.03.74-.05l3.26-.15c.28-.01.53-.02.74-.02.21,0,.39,0,.54,0,.15,0,.27.01.37.03.1.01.18.03.25.04h.04s.19,0,.19,0l-.06-1.37-.03-.16h-.17s-.05.01-.05.01c-.06.02-.14.04-.24.06-.1.02-.22.04-.37.06-.15.02-.33.04-.54.05-.21.02-.46.03-.74.05l-.93.04s0-.07,0-.11c0-.1,0-.2,0-.29,0-.08-.01-.17-.02-.25,0-.05-.01-.09-.02-.14l2.34-1.83c.09-.07.19-.14.29-.19.11-.07.17-.08.2-.09l.14-.03-.07-1.59-.03-.17-.29.02-.03.11c-.02.05-.04.11-.07.16-.03.06-.08.12-.13.18-.06.07-.13.14-.21.21-.08.08-.18.16-.3.25l-2.23,1.75c-.08-.13-.17-.26-.27-.37-.15-.16-.31-.3-.5-.41-.19-.11-.39-.2-.62-.25-.22-.06-.47-.08-.72-.07-.33.01-.63.09-.89.22-.26.13-.48.32-.65.54-.17.22-.3.49-.38.78-.08.29-.11.61-.09.95.02.35.05.64.09.87.04.21.06.38.07.5,0,.08,0,.16,0,.24,0,.07,0,.14,0,.2v.21s0,.18,0,.18h.18s.05-.01.05-.01ZM5.3,64.42c0-.2.02-.38.08-.53.06-.15.15-.27.27-.37.12-.1.27-.19.45-.24.19-.06.4-.1.63-.11.05,0,.1,0,.15,0,.23,0,.43.03.61.08.21.06.39.16.53.28.14.12.25.27.32.45.08.19.12.39.13.62,0,.08,0,.17,0,.26,0,.04,0,.08,0,.12l-3.05.14s-.03-.1-.04-.17c-.03-.12-.05-.3-.06-.52Z"/>
        <path class="cls-1" d="M4.98,58.26c.16.19.35.35.58.47.23.12.49.19.78.2.27.01.52-.02.75-.09.22-.07.44-.17.64-.29.2-.12.38-.26.56-.42.17-.15.33-.31.5-.47.16-.16.32-.31.47-.47.15-.15.31-.28.46-.39.15-.11.32-.2.48-.26.16-.06.34-.08.52-.08.13,0,.24.03.35.08.1.05.19.11.26.19.07.08.13.19.17.3.04.12.06.25.05.4,0,.16-.04.31-.1.45-.06.14-.15.26-.25.36-.1.1-.22.19-.35.26-.13.07-.27.12-.41.14l-.13.02-.02.41,1.35.2.06-.08c.06-.08.12-.17.19-.29.07-.12.13-.25.2-.4.06-.15.11-.32.16-.49.05-.18.07-.37.08-.57.02-.36-.03-.68-.13-.96-.11-.27-.25-.5-.44-.68-.18-.18-.39-.32-.63-.41-.23-.09-.47-.14-.7-.15-.32-.01-.62.05-.9.18-.27.13-.53.29-.78.5-.24.2-.48.41-.71.64-.22.22-.44.43-.66.62-.21.19-.43.34-.64.46-.2.11-.4.16-.61.15-.13,0-.25-.03-.35-.07-.1-.04-.18-.09-.25-.17-.07-.07-.12-.16-.16-.27-.04-.11-.05-.24-.05-.38,0-.16.04-.3.09-.41.05-.11.12-.21.2-.29.08-.08.16-.14.24-.19.09-.05.17-.08.23-.1l.11-.03.02-.39-1.21-.1-.15.3c-.04.09-.09.19-.13.3-.04.12-.08.25-.12.39-.04.15-.06.31-.06.49-.01.25.02.49.1.73.08.24.19.45.35.64Z"/>
        <path class="cls-1" d="M5.2,52.47h.02c.07-.02.15-.02.25-.03.1,0,.23,0,.38,0,.15,0,.33.01.54.03.21.02.46.04.74.07l3.24.37c.28.03.52.06.73.09.21.03.38.06.53.09.15.03.27.06.37.08.09.03.17.05.23.08l.23.03.15-1.35v-.17s-.19-.02-.19-.02h-.02c-.07.02-.15.02-.25.03-.1,0-.22,0-.37,0-.15,0-.33-.02-.54-.03-.21-.02-.45-.04-.73-.07l-3.24-.37c-.28-.03-.52-.06-.73-.1-.21-.03-.39-.06-.54-.09-.15-.03-.27-.06-.36-.08-.09-.03-.17-.05-.24-.08l-.23-.03-.15,1.35v.17s.19.02.19.02Z"/>
        <path class="cls-1" d="M6.51,48.82c-.02-.21-.03-.45-.02-.72,0-.23.02-.5.05-.82.02-.27.06-.56.12-.87l4.53.9c.28.05.52.11.72.15.2.05.38.09.52.13.14.04.26.08.36.12.09.03.17.07.23.1l.23.05.27-1.34v-.17s-.17-.04-.17-.04h-.02c-.07,0-.15,0-.25,0-.1,0-.22-.01-.37-.03-.15-.02-.33-.04-.54-.08-.21-.03-.45-.08-.73-.13l-4.53-.9c.07-.31.14-.6.22-.86.09-.3.18-.56.27-.77.1-.25.2-.47.3-.66l.12-.24-1.25-.02-.02.15s-.01.1-.02.17l-.04.26c-.02.1-.03.2-.05.3l-.1.56c-.01.07-.02.12-.03.16l-.56,2.81s-.02.08-.03.16l-.12.56c-.02.1-.04.2-.07.33l-.05.23c-.02.07-.03.13-.04.17l-.04.15,1.16.45-.02-.27Z"/>
        <path class="cls-1" d="M13.49,43.47c.15.16.21.24.23.28l.05.07.22.07.36-1.13.03-.17-.21-.07h-.05s-.03.01-.07,0c-.12-.04-.24-.1-.35-.19-.12-.1-.23-.19-.33-.27l-1.01-.88c.05-.16.1-.34.16-.53l.53-1.69c.08-.24.14-.44.2-.6l1.38-.15c.19-.02.35-.02.46-.01.12.01.22.03.3.06.02,0,.04.02.1.04l.23.09.47-1.47.03-.17-.22-.07-.06.02s-.07.02-.14.04c-.08.02-.18.04-.3.07-.12.02-.25.05-.4.07-.15.02-.3.04-.45.06l-6.77.76-.19.59,5.29,4.73c.2.17.36.33.48.46ZM9.59,38.77l2.83-.31c-.02.07-.04.15-.07.23l-.34,1.11c-.06.19-.12.38-.18.57l-.09.27-2.15-1.87Z"/>
        <path class="cls-1" d="M10.86,32.88c.17.2.38.36.65.48.25.11.49.18.73.19.24.02.47,0,.7-.04.22-.04.45-.1.67-.18.21-.08.43-.17.64-.26.21-.09.41-.18.61-.26.19-.08.39-.14.58-.19.18-.04.37-.06.55-.06.17,0,.34.04.51.12.12.05.22.12.29.2.08.08.13.18.17.28.04.11.05.22.04.34,0,.12-.04.26-.1.39-.07.15-.16.28-.26.38-.11.1-.23.18-.36.24-.13.06-.27.1-.42.11-.15.02-.29.01-.43-.02l-.13-.03-.17.37,1.18.69.09-.05c.08-.05.17-.12.28-.2.11-.08.22-.19.33-.3.11-.12.22-.25.33-.4.11-.15.21-.32.29-.5.15-.33.23-.64.23-.94,0-.29-.05-.56-.15-.8-.1-.23-.25-.44-.43-.61-.18-.17-.38-.31-.6-.4-.29-.13-.59-.19-.91-.17-.3.02-.6.08-.91.17-.3.09-.6.21-.9.33-.29.13-.57.24-.85.33-.27.09-.52.16-.77.19-.23.03-.43,0-.62-.09-.12-.05-.22-.12-.3-.2-.08-.07-.14-.16-.17-.25-.04-.09-.05-.19-.05-.31,0-.11.04-.24.1-.37.07-.15.15-.26.24-.35.09-.09.19-.15.29-.2.1-.04.2-.07.3-.08.1-.01.19-.01.26,0h.12s.16-.35.16-.35l-.98-.49-.11-.04-.24.22c-.07.06-.15.14-.23.23s-.17.2-.26.32c-.09.13-.17.27-.24.43-.1.22-.16.46-.18.71-.02.25.01.49.09.73.07.24.19.46.36.65Z"/>
        <path class="cls-1" d="M16.08,23.1c.12.23.31.43.54.6.22.16.45.27.68.33.23.06.46.1.69.1.23,0,.46-.01.7-.05.23-.04.45-.08.67-.12.22-.05.44-.09.65-.13.21-.04.41-.06.6-.07.19,0,.37,0,.55.05.17.04.33.11.48.22.1.07.19.16.25.26.06.1.1.2.11.31.02.11,0,.22-.02.34-.03.12-.09.24-.18.36-.1.13-.21.24-.33.32-.13.08-.26.13-.4.17-.14.03-.29.04-.43.03-.15-.01-.29-.05-.42-.1l-.12-.05-.24.33,1.02.91.09-.03c.09-.03.19-.08.32-.14.12-.06.25-.14.39-.23.14-.09.27-.2.4-.33.14-.13.27-.27.38-.44.21-.29.35-.59.41-.87.06-.29.06-.56.01-.81-.05-.25-.16-.48-.3-.69-.14-.2-.31-.37-.5-.51-.26-.19-.55-.3-.86-.34-.29-.04-.6-.04-.92-.01-.31.03-.63.08-.95.15-.31.07-.61.12-.89.16-.28.04-.55.05-.79.03-.23-.02-.42-.08-.59-.21-.11-.08-.19-.16-.26-.25-.06-.09-.1-.18-.12-.28-.02-.1-.01-.2.01-.31.03-.11.08-.23.17-.34.09-.13.19-.23.3-.29.11-.07.22-.11.32-.14.11-.02.21-.03.31-.02.1,0,.19.02.25.04l.11.03.23-.32-.96-.75-.29.17c-.08.05-.17.11-.28.18-.1.07-.21.16-.32.26-.11.11-.22.23-.32.37-.14.2-.25.42-.31.66-.06.24-.08.48-.06.73.03.25.1.49.22.71Z"/>
        <path class="cls-1" d="M19.69,18.43c.1-.19.23-.39.38-.61.13-.19.3-.41.49-.66.17-.21.36-.43.58-.66l3.29,3.24c.2.2.37.37.52.53.14.15.26.28.36.4.1.11.18.21.24.29.06.08.1.15.14.21l.16.17.96-.97.1-.13-.11-.12-.04-.03c-.06-.03-.13-.08-.21-.13-.08-.06-.18-.13-.29-.23-.12-.1-.25-.22-.41-.36s-.33-.31-.53-.51l-3.29-3.24c.23-.22.45-.42.66-.59.24-.2.46-.37.65-.5.22-.15.42-.28.61-.39l.23-.13-1.03-.7-.1.12s-.06.07-.12.13l-.18.2c-.07.07-.14.15-.21.22l-.39.41c-.05.05-.09.09-.11.11l-2.01,2.04-.52.51c-.08.08-.15.15-.22.21l-.19.18c-.06.05-.1.09-.13.12l-.12.1.72,1.02.13-.23Z"/>
        <path class="cls-1" d="M24.79,12.27s.07.03.13.06c.08.04.17.08.27.14.11.06.23.12.35.2.13.07.26.15.38.24l5.71,3.72.52-.34-1.07-7.02c-.04-.25-.07-.47-.08-.66-.02-.21,0-.32,0-.36v-.08s-.13-.2-.13-.2l-1,.65-.13.11.13.19.04.02s.02.02.04.05c.07.11.12.23.15.36.03.15.06.29.08.42l.84,4.96-4.26-2.78c-.16-.11-.28-.2-.37-.29-.08-.08-.15-.16-.2-.23-.01-.02-.02-.04-.05-.09l-.13-.22-1.29.84-.13.11.13.19.06.02Z"/>
        <path class="cls-1" d="M33.6,7.02c.04.06.08.13.12.22.05.09.1.21.15.35.06.14.12.32.18.52.07.2.14.44.22.71l.92,3.13c.08.27.15.51.2.71.05.2.09.38.12.53.03.15.05.27.06.37.01.1.02.18.02.25l.06.22.16-.05c.09-.03.21-.06.4-.1l1.06-.25c.19-.05.34-.09.47-.13.37-.11.72-.24,1.04-.4.33-.16.63-.35.9-.57.27-.22.51-.47.7-.75.2-.28.35-.59.45-.93.1-.34.15-.71.14-1.11,0-.4-.08-.83-.21-1.29-.19-.64-.45-1.16-.77-1.55-.33-.39-.7-.68-1.12-.86-.41-.18-.87-.27-1.34-.26-.47,0-.94.08-1.42.22-.17.05-.36.11-.56.17l-.57.19c-.18.06-.34.11-.48.16-.14.05-.24.08-.29.1l-.14.04c-.06.01-.11.03-.17.04l-.37.11.05.17.02.04ZM35.12,7.14s.06-.02.09-.03c.09-.03.19-.07.29-.11l.32-.11c.11-.04.2-.07.28-.09.42-.12.81-.17,1.16-.13.35.03.67.14.95.32.29.18.54.44.76.77.22.33.4.74.54,1.21.13.43.2.81.21,1.15.01.33-.02.63-.09.88-.07.25-.18.48-.32.66-.14.19-.3.36-.49.49-.18.14-.38.26-.6.35-.22.1-.44.18-.66.24-.05.02-.12.03-.2.05l-.25.06c-.08.02-.16.04-.24.05-.02,0-.03,0-.05,0-.06-.17-.13-.36-.2-.59-.1-.29-.19-.6-.29-.91-.1-.32-.19-.63-.29-.93-.09-.3-.17-.56-.23-.78-.03-.1-.06-.22-.1-.35l-.24-.87c-.04-.15-.08-.3-.12-.44l-.25-.9Z"/>
        <path class="cls-1" d="M43.04,4.99c.02.06.04.14.06.24.02.1.04.22.06.37.02.15.04.33.05.54.02.21.03.46.04.74l.15,3.26c.01.28.02.53.02.74,0,.21,0,.39,0,.54,0,.15-.02.27-.03.38-.01.1-.02.18-.04.24v.04s0,.19,0,.19l1.36-.06.16-.03v-.17s-.01-.05-.01-.05c-.02-.06-.04-.14-.06-.24-.02-.1-.04-.22-.06-.37-.02-.15-.04-.33-.05-.54-.02-.21-.03-.46-.05-.74l-.15-3.26c-.01-.28-.02-.53-.02-.74,0-.21,0-.39,0-.55,0-.15.01-.27.03-.37.01-.1.03-.18.04-.25v-.04s0-.19,0-.19l-1.37.06-.17.03v.17s.02.04.02.04Z"/>
        <path class="cls-1" d="M47.57,11.26c.28.41.64.76,1.08,1.05.44.29.95.49,1.51.62.29.06.57.09.85.09.08,0,.17,0,.25,0,.35-.03.68-.1.99-.21.31-.11.6-.27.86-.46.26-.19.5-.41.71-.66.21-.25.38-.52.52-.82.14-.3.25-.61.32-.93.12-.56.14-1.11.05-1.62-.09-.51-.28-.98-.56-1.39-.28-.41-.64-.77-1.08-1.06-.44-.29-.95-.5-1.51-.62-.38-.08-.75-.11-1.09-.09-.35.03-.68.1-.99.21-.31.11-.6.27-.86.46-.26.19-.5.42-.7.66-.21.25-.38.52-.53.82-.14.3-.25.61-.32.93-.12.57-.14,1.11-.05,1.62.09.51.28.98.56,1.39ZM48.36,9.61c-.02-.44.03-.91.13-1.39.1-.43.24-.81.43-1.12.19-.31.41-.56.66-.74.25-.18.53-.3.83-.36.13-.03.27-.04.41-.04.18,0,.37.02.56.06.42.09.78.26,1.06.49.28.23.5.53.65.86.15.35.24.74.26,1.17.02.44-.02.91-.13,1.39-.1.43-.24.81-.43,1.13-.19.31-.41.56-.66.75-.25.19-.53.31-.83.37-.31.06-.63.05-.97-.02-.42-.09-.78-.26-1.06-.5-.28-.24-.5-.53-.65-.87-.15-.35-.24-.74-.25-1.18Z"/>
        <path class="cls-1" d="M56.22,14.97l.08-.14.02-.04c.02-.07.04-.15.07-.24.03-.09.08-.21.15-.34.06-.14.15-.3.24-.49.1-.19.21-.4.35-.65l.46-.81s.06.04.09.06c.08.05.17.11.25.15.07.04.15.08.22.11.04.02.08.04.12.06l.3,2.96c.01.12.02.23.01.34,0,.13-.02.19-.03.22l-.05.13,1.38.78.15.06.14-.25-.08-.09s-.07-.09-.1-.15c-.03-.06-.06-.13-.08-.21-.03-.09-.05-.18-.07-.29-.02-.11-.04-.24-.05-.39l-.29-2.82c.16,0,.31,0,.46-.03.22-.04.42-.11.62-.2.19-.1.38-.23.54-.39.17-.16.31-.35.44-.57.16-.29.26-.58.28-.87.02-.29-.01-.57-.11-.84-.1-.26-.25-.51-.46-.74-.2-.22-.46-.42-.75-.58-.31-.18-.57-.3-.78-.39-.2-.08-.36-.15-.46-.21-.07-.04-.14-.08-.21-.12-.06-.04-.12-.07-.17-.11l-.17-.12-.16-.09-.09.16-.02.04c-.02.07-.04.15-.07.24-.03.1-.08.21-.15.34-.07.14-.15.3-.24.49-.1.19-.21.4-.35.65l-1.61,2.84c-.14.25-.27.46-.38.64-.11.18-.21.33-.29.46-.08.12-.16.22-.22.3-.06.08-.12.14-.17.19l-.12.2,1.19.68.15.06ZM57.95,11.63l1.51-2.66s.1.03.17.05c.12.04.28.12.47.23.18.1.31.22.41.35.09.13.15.27.18.42.02.16.01.33-.03.51-.05.19-.13.39-.25.59-.14.25-.3.45-.47.6-.16.14-.34.24-.52.3-.18.05-.36.06-.55.03-.2-.03-.4-.11-.6-.22-.07-.04-.14-.09-.22-.14-.03-.02-.07-.05-.1-.07Z"/>
        <path class="cls-1" d="M69.24,17.04c.24-.1.45-.19.61-.24.2-.07.3-.08.35-.09l.08-.02.16-.18-.88-.81-.14-.1-.15.17v.04s-.03.03-.05.05c-.09.1-.19.17-.32.24-.14.07-.27.13-.39.19l-4.59,2.06,1.62-4.83c.06-.18.12-.32.18-.43.06-.1.12-.19.18-.25.01-.02.03-.03.07-.07l.18-.18-1.14-1.04-.14-.1-.15.17v.06s-.01.07-.02.15c-.01.08-.04.18-.06.3-.03.12-.06.25-.1.39-.04.14-.08.29-.13.43l-2.16,6.46.46.42,6.52-2.81Z"/>
        <path class="cls-1" d="M69.01,20.86c-.3.15-.6.29-.9.43l-1.56.74c-.13.06-.25.1-.35.12-.1.02-.18.03-.24.03h-.07s-.18.13-.18.13l.77,1.13.14-.14s.08-.08.13-.12c.04-.04.1-.08.17-.14.07-.05.14-.11.23-.17.07-.05.19-.12.35-.21.16-.09.36-.2.58-.31.22-.12.46-.24.71-.37l.77-.39c.47-.24.98-.49,1.53-.76l-2.73,5.23.26.49,5.86-.64-3.22,2.88s-.07.06-.11.09c-.03.03-.06.05-.1.07-.09.06-.17.11-.23.14-.09.04-.13.05-.14.05l-.22.13.81,1.18.11.12.18-.11.02-.04s.04-.08.07-.12c.03-.05.08-.11.14-.18.06-.07.14-.16.23-.25.09-.09.21-.2.35-.33l4.57-4.13-.41-.6-6.42.71,3-5.73-.5-.73-.5.27c-.17.09-.36.19-.59.3-.23.11-.47.24-.75.37l-.85.42c-.29.15-.59.29-.9.44Z"/>
        <path class="cls-1" d="M74.01,35.1c-.21-.04-.31-.07-.36-.09l-.08-.02-.22.07.39,1.13.07.15.21-.07.03-.04s.02-.01.06-.03c.12-.04.25-.06.39-.06.16,0,.3.01.43.02l1.33.1c.06.16.12.33.19.52l.59,1.67c.08.24.15.44.2.6l-1.01.95c-.14.13-.27.23-.36.29-.1.06-.19.11-.28.14-.02,0-.05.01-.1.03h-.03s-.21.07-.21.07l.51,1.45.07.15.22-.08.03-.05s.04-.06.09-.12c.05-.07.12-.14.2-.23.08-.09.17-.19.27-.3.1-.11.21-.21.32-.32l4.96-4.67-.2-.58-7.07-.61c-.26-.02-.48-.04-.66-.08ZM79.96,36.52l-2.08,1.95c-.03-.07-.05-.15-.08-.22l-.59-1.65-.09-.27,2.84.2Z"/>
        <path class="cls-1" d="M78.22,42.99c-.28.06-.52.1-.73.14-.21.04-.38.06-.53.08-.15.02-.27.03-.37.03-.1,0-.18,0-.25,0l-.23.04.22,1.04.05.16.16-.03.04-.02c.06-.03.13-.06.23-.1.09-.04.21-.08.36-.12.15-.04.32-.09.52-.14.21-.05.45-.1.72-.16l2.94-.61-4.12,5.89.08.41,5.38-1.12c.28-.06.52-.1.73-.14.21-.04.38-.06.54-.08.15-.02.28-.03.38-.03.1,0,.18,0,.25,0l.23-.04-.22-1.04-.05-.16-.16.03-.04.02c-.06.03-.14.07-.23.1-.09.04-.21.08-.36.12-.15.04-.32.09-.52.14-.21.05-.45.1-.72.16l-3.04.63,4.13-5.89-.08-.38-.05-.16-.16.03-.04.02c-.06.03-.14.07-.23.1-.09.04-.21.08-.36.12-.15.04-.32.09-.52.14-.2.05-.45.1-.72.16l-3.19.66Z"/>
        <path class="cls-1" d="M84.38,51.23c-.15.03-.33.05-.54.07-.21.02-.46.05-.74.07l-3.25.26c-.28.02-.53.04-.74.05-.21.01-.39.02-.54.01-.15,0-.27,0-.37-.02-.1,0-.18-.02-.25-.03h-.04s-.19.01-.19.01v.17c.02.09.03.22.03.38l.02.54c0,.19.01.38.02.57,0,.19.02.36.03.49.03.38.09.75.18,1.1.09.36.22.69.38,1,.16.31.36.59.59.84.23.25.51.46.82.63.31.17.67.29,1.06.36.26.05.54.07.83.07.15,0,.31,0,.47-.02.67-.05,1.23-.2,1.68-.44.45-.24.81-.55,1.07-.92.26-.37.44-.79.52-1.26.09-.46.11-.94.07-1.44-.01-.18-.03-.38-.06-.58l-.13-1.1c-.02-.14-.03-.25-.04-.31,0-.04,0-.08,0-.14,0-.06,0-.11,0-.17l-.03-.39-.18.02h-.04c-.06.03-.15.06-.24.08-.1.03-.23.05-.37.08ZM83.18,52.63c.16-.01.31-.02.46-.03l.93-.06s0,.06.02.09c.02.1.03.2.04.31l.04.34c.01.11.02.21.03.3.04.43,0,.82-.11,1.16-.1.34-.28.63-.51.87-.24.24-.54.44-.91.58-.37.15-.81.24-1.3.28-.45.04-.84.02-1.17-.03-.33-.06-.61-.15-.85-.27-.23-.12-.43-.27-.58-.44-.16-.18-.29-.37-.38-.58-.1-.21-.17-.43-.22-.66-.05-.23-.08-.47-.1-.69,0-.05,0-.12-.01-.2,0-.08,0-.17,0-.25,0-.08,0-.16,0-.24,0-.02,0-.03,0-.05.17-.02.38-.05.62-.08.3-.03.62-.07.95-.1l.97-.09c.32-.03.58-.05.81-.07.11,0,.23-.02.37-.03l.9-.06Z"/>
        <path class="cls-1" d="M85.7,60.16h-.21c-.07.02-.15.04-.24.05-.1.01-.23.03-.38.04-.15.01-.33.02-.54.02-.21,0-.46,0-.74,0l-3.26-.04c-.28,0-.53,0-.74-.02-.21,0-.39-.02-.54-.04-.15-.01-.27-.03-.37-.05-.1-.02-.18-.03-.24-.05h-.23s-.02,1.36-.02,1.36l.02.16h.19s.02,0,.02,0c.07-.02.15-.03.24-.05.1-.02.22-.03.37-.04.15-.01.33-.02.54-.02.21,0,.46,0,.74,0l3.26.04c.28,0,.53.01.74.02.21.01.39.02.54.04.15.01.27.03.37.05.1.02.18.04.24.06h.23s.02-1.36.02-1.36l-.02-.17Z"/>
        <path class="cls-1" d="M85.46,64.45h-.02c-.07.02-.15.03-.25.04-.1,0-.23,0-.38.01-.15,0-.33,0-.54-.02-.21-.01-.46-.03-.74-.06l-3.25-.31c-.28-.03-.53-.05-.73-.08-.21-.03-.39-.05-.53-.08-.15-.03-.27-.05-.37-.08-.09-.03-.17-.05-.24-.08l-.23-.03-.1,1.06v.17s.19.02.19.02h.02c.07-.02.15-.03.25-.03.1,0,.23,0,.38,0,.15,0,.33,0,.54.02.21.01.46.03.74.06l2.99.28-5.62,4.36-.06.04-.04.41,5.47.52c.28.03.53.05.73.08.21.03.39.05.54.08.15.03.27.05.37.08.09.02.17.05.24.07l.23.03.1-1.06v-.17s-.19-.02-.19-.02h-.02c-.07.02-.15.03-.25.03-.1,0-.23.01-.38.01-.15,0-.34,0-.54-.02-.21-.01-.46-.03-.74-.06l-3.09-.29,5.62-4.36.06-.04.04-.39v-.17s-.19-.02-.19-.02Z"/>
        <path class="cls-1" d="M84.33,73.78c-.07,0-.15,0-.25,0-.1,0-.23-.01-.37-.03-.15-.02-.33-.05-.54-.08-.21-.04-.45-.08-.73-.14l-3.2-.66c-.28-.06-.52-.11-.72-.16-.2-.05-.38-.09-.52-.14-.14-.04-.26-.08-.35-.12-.09-.04-.17-.07-.23-.1l-.23-.05-.47,2.28s-.02.08-.03.16l-.12.55c-.02.1-.05.21-.07.3l-.06.26c-.02.07-.03.13-.04.17l-.04.15,1.15.46-.02-.26c-.01-.24-.02-.5,0-.79,0-.25.03-.53.06-.86.03-.28.07-.58.13-.89l2.75.57c-.04.16-.08.33-.13.51-.07.23-.13.45-.2.64-.07.23-.15.45-.22.67l-.05.15,1.04.46v-.24c.02-.17.04-.37.06-.59.02-.19.05-.43.09-.7.03-.23.07-.48.12-.75l2.36.49-.03.21c-.01.1-.03.21-.05.32-.02.11-.03.2-.05.28-.05.23-.1.43-.15.59-.05.17-.1.32-.15.43-.05.13-.1.25-.15.35l-.07.14.98.61v-.3c0-.06.02-.18.06-.47.04-.24.09-.53.16-.86.06-.34.14-.71.22-1.11h0c.08-.4.16-.81.25-1.22v-.17s-.17-.04-.17-.04h-.02Z"/>
        <path class="cls-1" d="M82.88,80.43c-.07,0-.15-.01-.25-.03-.1-.01-.22-.04-.37-.07-.15-.04-.32-.08-.52-.14-.2-.06-.44-.13-.7-.22l-3.1-1.02c-.27-.09-.5-.17-.7-.24-.2-.07-.36-.14-.5-.2-.14-.06-.25-.11-.34-.16-.09-.05-.16-.09-.22-.13l-.22-.08-.33,1.01-.03.17.16.05h.04c.07.01.15.02.25.03.1.02.22.04.37.08.15.03.32.08.52.14.2.06.44.13.7.22l2.85.94-6.51,3.03-.13.39,5.21,1.72c.27.09.5.17.7.24.2.07.36.14.51.2.14.06.25.11.34.16.09.05.16.09.21.12l.22.08.33-1.01.03-.17-.16-.05h-.04c-.07-.01-.15-.02-.25-.03-.1-.01-.22-.04-.37-.07-.15-.04-.32-.08-.52-.14-.2-.06-.44-.13-.7-.22l-2.95-.98,6.45-3,.07-.03.12-.37.03-.16-.16-.05h-.05Z"/>
        <path class="cls-1" d="M78.96,89.05c-.16-.2-.38-.37-.64-.49-.24-.12-.49-.19-.73-.21-.23-.02-.47-.01-.7.02-.23.04-.45.09-.68.17-.22.08-.43.16-.64.24-.21.09-.41.17-.62.25-.19.08-.39.13-.58.18-.18.04-.37.06-.55.05-.17,0-.34-.05-.51-.13-.12-.06-.21-.12-.29-.21-.08-.08-.13-.18-.17-.28-.03-.1-.05-.22-.04-.34,0-.12.05-.26.11-.39.07-.15.16-.27.27-.37.11-.1.24-.18.37-.24.13-.06.27-.09.42-.1.15-.01.29,0,.43.03l.13.03.18-.37-1.16-.71-.09.05c-.08.05-.18.11-.29.2-.11.08-.22.18-.34.3-.11.11-.23.25-.34.39-.11.15-.21.32-.3.5-.16.33-.24.64-.25.93,0,.29.04.56.13.8.1.24.24.45.42.62.18.17.38.31.59.41.29.14.59.19.9.18.3-.01.6-.07.91-.15.3-.09.61-.19.9-.32.29-.12.58-.23.85-.32.27-.09.53-.15.77-.17.23-.02.43,0,.62.1.12.05.22.12.3.2.08.07.13.16.17.25.04.09.05.19.04.31,0,.11-.04.24-.1.37-.07.15-.15.26-.24.34-.09.08-.19.15-.29.19-.1.04-.2.07-.3.08-.1,0-.19.01-.25,0h-.12s-.17.34-.17.34l1.08.56.26-.22c.07-.06.15-.14.24-.23.09-.09.17-.2.26-.32.09-.12.17-.27.25-.43.11-.22.17-.46.19-.71.02-.25,0-.49-.07-.73-.07-.24-.19-.46-.35-.66Z"/>
        <path class="cls-1" d="M76.74,95.04c-.07-.02-.14-.04-.23-.08-.09-.04-.21-.09-.35-.15-.14-.07-.3-.15-.48-.25-.18-.1-.4-.23-.64-.37l-2.8-1.67c-.24-.14-.45-.27-.63-.39-.18-.11-.33-.21-.45-.3-.12-.09-.22-.16-.3-.23-.07-.06-.14-.12-.18-.17l-.2-.12-.7,1.17-.07.15.15.09.04.02c.07.02.15.04.24.08.09.04.21.09.34.15.14.07.3.15.48.25.19.1.4.22.64.37l2.8,1.67c.24.14.45.27.63.39.18.11.33.22.45.3.12.09.22.16.3.23.07.06.13.12.18.17l.19.13.7-1.18.07-.15-.15-.09-.04-.02Z"/>
        <path class="cls-1" d="M73.24,97.78c-.22-.16-.44-.28-.67-.35-.23-.07-.46-.1-.69-.11-.23,0-.46,0-.7.04-.23.03-.45.07-.68.11-.22.04-.44.08-.65.12-.21.04-.41.06-.6.06-.19,0-.37-.01-.55-.06-.17-.04-.33-.12-.48-.23-.1-.08-.18-.16-.24-.26-.06-.1-.09-.2-.11-.31-.01-.11,0-.23.03-.34.03-.12.1-.24.18-.36.1-.13.21-.24.34-.31.13-.08.27-.13.41-.16.14-.03.29-.04.43-.02.15.02.29.05.42.11l.12.05.24-.33-1.01-.92-.09.03c-.09.03-.2.08-.32.14-.13.06-.26.14-.39.23-.13.09-.27.2-.41.32-.14.12-.27.27-.39.43-.22.29-.36.58-.42.87-.07.29-.07.56-.02.81.05.25.15.48.29.69.14.2.31.38.5.52.25.19.54.31.85.35.29.04.6.05.92.03.31-.03.63-.07.95-.14.31-.06.61-.11.9-.15.28-.03.55-.04.79-.02.23.02.42.09.59.22.11.08.19.16.25.26.06.09.1.18.12.28.02.1.01.2-.02.31-.03.11-.09.22-.17.34-.1.13-.2.23-.31.29-.11.07-.22.11-.33.13-.11.02-.21.03-.31.02-.1,0-.18-.03-.25-.05l-.11-.04-.23.31.95.76.29-.17c.08-.05.18-.11.28-.18.1-.07.21-.16.32-.26s.22-.23.33-.37c.15-.2.26-.42.33-.66.07-.24.09-.48.07-.73-.02-.25-.09-.49-.21-.71-.12-.23-.3-.43-.53-.61Z"/>
        <path class="cls-1" d="M35.88,107.67c-.39-.18-.78-.3-1.15-.36-.38-.06-.74-.08-1.1-.04-.35.03-.69.11-1.01.23-.32.12-.62.28-.88.48-.27.19-.51.42-.72.68s-.39.54-.52.84c-.24.53-.36,1.07-.37,1.59s.1,1.03.31,1.5c.21.47.52.9.93,1.29.4.39.9.71,1.48.98.29.13.59.24.89.32.31.08.6.13.88.14h.07s.94-.91.94-.91l-.19-.29-.13.06c-.16.07-.33.13-.51.16-.17.03-.35.05-.52.05-.19,0-.37-.02-.56-.06-.18-.04-.35-.1-.51-.17-.46-.21-.82-.47-1.09-.78-.27-.31-.45-.66-.55-1.04-.1-.38-.12-.79-.06-1.23.06-.44.19-.89.4-1.34.18-.4.41-.74.67-1,.26-.26.55-.44.86-.56.31-.11.64-.16.99-.14.35.02.72.12,1.08.28.38.17.7.39.96.66.26.26.45.55.58.86l.04.1h.32s.09-1.22.09-1.22l-.06-.05c-.43-.42-.96-.77-1.56-1.04Z"/>
        <path class="cls-1" d="M44.18,109.69l-.02.19v.02c.02.07.02.15.03.25,0,.1,0,.22,0,.37,0,.15-.02.34-.03.55-.01.21-.04.46-.07.74l-.12,1.07c-.11,0-.23-.02-.36-.03-.2-.02-.42-.03-.65-.05-.23-.02-.47-.04-.72-.07-.25-.02-.49-.05-.73-.07-.24-.02-.47-.05-.68-.08-.15-.02-.29-.04-.42-.05l.12-1.11c.03-.28.06-.52.09-.73.03-.21.06-.39.09-.54.03-.15.05-.27.08-.36.03-.09.05-.17.08-.24l.03-.23-1.36-.15h-.17s-.02.19-.02.19v.02c.02.07.02.15.03.25,0,.1,0,.23,0,.38,0,.15-.01.33-.03.54-.02.21-.04.46-.07.74l-.36,3.24c-.03.28-.06.52-.09.73-.03.21-.06.38-.09.53-.03.15-.06.27-.09.36-.03.09-.05.17-.08.24l-.03.23,1.36.15h.17s.02-.19.02-.19v-.02c-.02-.07-.02-.15-.03-.25,0-.1,0-.22,0-.37,0-.15.01-.33.03-.54.01-.21.04-.45.07-.73l.14-1.32c.12,0,.26.02.41.04.22.02.45.04.72.08l.72.08c.25.03.5.06.73.09.23.03.45.06.65.08.12.01.23.03.33.04l-.14,1.31c-.03.28-.06.52-.09.73-.03.21-.06.39-.09.54-.03.15-.05.27-.08.36-.03.09-.05.17-.08.24l-.03.23,1.36.15h.17s.02-.19.02-.19v-.02c-.02-.07-.02-.15-.03-.25,0-.1,0-.23,0-.37,0-.15.01-.33.03-.54.02-.21.04-.46.07-.74l.36-3.24c.03-.28.06-.52.09-.73.03-.21.06-.39.09-.54.03-.15.06-.27.09-.37.03-.09.05-.17.08-.24l.03-.23-1.36-.15h-.17Z"/>
        <path class="cls-1" d="M49.58,116.62c-.03-.06-.05-.14-.08-.24-.03-.1-.06-.22-.09-.36-.03-.15-.06-.33-.09-.53-.03-.21-.07-.45-.1-.73l-.39-3.24c-.03-.28-.06-.52-.07-.73-.02-.21-.03-.39-.04-.55,0-.15,0-.27,0-.37,0-.1.01-.18.02-.25v-.04s-.02-.19-.02-.19l-1.36.16-.16.04.02.17v.04c.04.06.06.14.09.23.03.1.06.22.09.37.03.15.06.33.09.54.03.21.06.45.1.73l.39,3.24c.03.28.06.53.08.74.02.21.03.39.03.54,0,.15,0,.28,0,.38,0,.1-.01.18-.02.25v.04s.02.19.02.19l1.36-.16.16-.04-.02-.17v-.04Z"/>
        <path class="cls-1" d="M55.35,114.36c-.21.12-.44.24-.7.36-.22.11-.49.22-.79.34-.26.1-.55.2-.86.29l-1.24-4.44c-.08-.27-.14-.51-.19-.71-.05-.2-.09-.38-.12-.53-.03-.15-.05-.27-.06-.37,0-.1-.01-.18-.01-.25l-.06-.23-1.32.37-.16.06.05.16.02.04c.04.06.07.13.12.22.04.09.09.21.14.35.05.14.11.32.17.52.06.2.13.44.21.71l.88,3.14c.08.27.14.51.19.72.05.2.09.38.12.53.03.15.05.27.06.37,0,.1.01.18.01.25l.06.23,2.25-.63s.07-.02.15-.04l.55-.14c.1-.03.2-.05.3-.08l.26-.06c.07-.02.13-.03.17-.04l.15-.03-.12-1.24-.23.13Z"/>
        <path class="cls-1" d="M60.95,111.76c-.18.16-.39.33-.62.49-.2.15-.44.31-.71.49-.24.15-.5.3-.79.45l-1.26-2.5c.15-.07.31-.14.48-.21.22-.09.43-.17.63-.25.23-.08.45-.16.67-.24l.15-.05-.29-1.1-.2.14c-.14.1-.31.21-.5.33-.16.1-.37.22-.61.36-.2.12-.42.24-.66.36l-1.08-2.15.18-.1c.09-.05.18-.1.28-.16.1-.05.18-.1.25-.13.21-.1.39-.19.56-.25.17-.06.31-.12.43-.15.13-.04.26-.08.36-.1l.15-.03-.13-1.15-.23.18c-.06.05-.2.13-.4.25-.21.12-.47.26-.77.42-.3.16-.64.33-1.01.52h0c-.37.19-.74.38-1.11.56l-.14.09.08.15.03.04c.05.05.1.12.16.19.06.08.13.19.21.31.08.13.17.29.27.47.1.19.21.4.34.66l1.47,2.91c.13.25.23.47.32.66.09.19.16.35.22.5.06.14.1.26.13.35.03.09.05.18.06.24l.1.21,2.09-1.05s.08-.04.14-.07l.51-.25c.1-.05.19-.09.28-.13l.24-.11c.07-.03.12-.06.16-.07l.14-.06-.35-1.19-.2.18Z"/>
        <g>
          <g>
            <path class="cls-1" d="M50.74,70.4h1.22v9.43h.51c.32,0,.6-.06.85-.19.79-.4,1.72-.62,2.7-.62.89,0,1.73.17,2.47.51.23.11.43-.04.43-.29v-10.6c-.87-.39-1.86-.61-2.9-.61h0c-1.42,0-2.77.38-3.8,1.06l-.22.15h-2.42v12.72s17.46,0,17.46,0v-1.19h-16.3v-10.37Z"/>
            <path class="cls-1" d="M67,69.24l-.22-.15c-1.03-.69-2.38-1.06-3.8-1.06,0,0,0,0,0,0s0,0,0,0c-.34,0-.67.02-1,.07-.07,0-.14.03-.21.04-.22.03-.7.14-.7.14-.35.09-.67.22-.98.36v10.6c0,.26.2.4.43.29.73-.33,1.58-.51,2.46-.51.98,0,1.91.21,2.7.62.24.13.53.19.85.19h.52v-10.59h-.04Z"/>
          </g>
          <path class="cls-1" d="M39.8,74.61c-.06-.59-.31-1.14-.72-1.55,0,0-2.97-3.04-3.16-3.23-.16-.16-.19-.28-.15-.5.1-.48,0-.98-.29-1.37-.27-.37-.66-.59-1.1-.63-.3-.03-.61-.02-.91-.02-.1,0-.2,0-.3,0h0c-.09,0-.15-.03-.21-.08-.12-.09-.26-.2-.4-.29-.65-.4-1.8-.38-2.49.28-.07.07-.14.1-.23.1,0,0-.01,0-.02,0-.12,0-.24,0-.36,0-.22,0-.44,0-.67,0h0c-.24,0-.48.06-.71.18-.68.36-1.02,1.16-.83,1.94.03.1,0,.17-.06.24-.11.11-3.28,3.39-3.28,3.39-.41.42-.66.97-.72,1.57-.09.99-.06,1.34-.03,1.51.05.28.18.53.37.72h0c.07.07.17.12.28.12.13,0,.24-.07.3-.16h0s3.18-4.4,3.18-4.4l.69.71-3.76,5.21v.02c-.08.11-.14.24-.14.38,0,.13.04.24.11.33v.03c.29.52.62,1,1,1.45.22.26.49.43.79.52.35.11.72-.1.83-.44l2.11-6.86.9.39-2.35,7.63c-.08.25,0,.52.19.69.15.13.31.23.48.31.43.19.87.35,1.32.47.38.1.76.08,1.12-.04.26-.09.43-.35.43-.62v-8.17h.98v8.2c0,.28.18.55.45.63.35.1.72.1,1.11,0,.45-.12.89-.28,1.32-.47.17-.08.34-.2.5-.37.18-.18.23-.45.16-.7l-2.33-7.56.9-.39,2.11,6.85c.11.35.48.55.83.44.3-.09.57-.26.78-.52.38-.44.71-.93,1-1.44v-.02c.06-.1.1-.21.1-.33,0-.14-.06-.27-.13-.38v-.02s-3.77-5.22-3.77-5.22l.69-.71,3.18,4.41h0c.07.09.18.16.3.16.11,0,.2-.04.27-.11h0c.2-.19.33-.44.38-.73.03-.17.06-.52-.04-1.52Z"/>
          <path class="cls-1" d="M39.74,43.6h0s0,0,0,0l-2.7-3.68c-.57-.78-1.74-.77-2.3.03l-1.5,2.17c-.11.16-.58.84-.58.84h0s-.99-1.43-.99-1.43c-.51-.73-1.56-.83-2.19-.2l-4.82,4.93c-.14.13-.23.3-.28.49l-.32,1.32c-.03.13-.1.24-.21.36l-4.08,4.42,1.23.37,3.12-3.34c.1-.02.2-.04.28-.06.81-.23,1.78-1.04,1.99-.23.23.81-.98,2.02.05,2.11,1,.09,1.94-.49,4.25-1.89,1.43-.87,2.21-.16,2.79.13.53.26,2.62,1.58,3.62,1.4l1.31,1.88,1.16-.36-5.15-7.31c.55-.34,2.33,1.26,2.94,1.21.64-.05.5-.28.4-.77-.32-1.48.5-.73,1.01-.61.18.05.52.06.83.03l1.23,1.67.03.04,1.19-.36-2.32-3.17ZM30.5,42.57c-.18.58-.44,1.22-.73,1.76-.31.58-.38.68-.55,1.27-.06.47-.54,1.63-1.01,1.36-1.27-.72-1.57.01-2.16-.02-.16,0-.24-.22-.13-.33.86-.87,4.06-4.15,4.11-4.23.19-.27.56-.12.46.18ZM36.05,40.96s-.53,1.82-.89,2.17c-.37.35-1.52.25-1.03-.24l1.14-1.64s.26-.52.57-.49c.28.03.22.21.22.21Z"/>
          <g>
            <path class="cls-1" d="M59.09,42.55s-.05,0-.07,0c-2.04-.2-3.88,1.26-4.13,3.31-.12,1,.16,1.99.78,2.78.62.79,1.52,1.29,2.52,1.41.02,0,.04,0,.07,0,2.04.21,3.89-1.27,4.13-3.31.12-1-.16-1.99-.78-2.78-.62-.79-1.52-1.29-2.52-1.41Z"/>
            <path class="cls-1" d="M64.27,45.09s-.17-.63-.17-.62c1.11-1.16,1.66-2.45,1.88-3.18.07-.24.02-.49-.14-.69-.14-.18-.29-.36-.45-.53l-.29.3c-.65.67-1.74,1.1-3.06,1.28,0,0-.36-.25-.56-.36.3-1.83-.25-3.26-.65-4.07-.09-.19-.27-.32-.48-.36-.27-.05-.4-.07-.8-.11h0c-.22,1.28-1.22,2.87-1.96,3.89.02,0-.67.16-.64.15-1.18-1.11-2.5-1.64-3.26-1.86-.23-.07-.48-.03-.66.12-.2.16-.39.32-.58.49l.3.27c.67.62,1.12,1.68,1.34,2.96.02-.03-.4.6-.39.59-1.82-.28-3.28.33-4.09.73-.21.1-.36.3-.4.53s-.06.38-.1.76c1.25.2,2.83,1.13,3.88,1.84,0-.01.12.56.22.86,0,0,0-.02-.01-.03-1.07,1.16-1.61,2.45-1.83,3.21-.07.23-.03.47.12.66.16.2.33.4.51.59l.24-.27c.62-.69,1.7-1.14,3-1.37,0,0,.61.39.61.39-.34,1.81.13,3.16.54,4.01.1.2.29.34.51.39.23.05.39.07.78.12h0c.27-1.3,1.36-2.9,2.12-3.9,0,0,0,0,0,0,.25-.05.68-.18.68-.18,1.17,1.07,2.46,1.59,3.25,1.81.23.06.48.02.66-.13.21-.17.41-.35.61-.53l-.25-.22c-.71-.62-1.19-1.71-1.42-3.03,0,0,.4-.65.4-.64,0,0,0,0,0,0,1.75.21,3.33-.45,4.04-.82.2-.11.34-.3.38-.53,0-.05.02-.11.03-.22.03-.19.04-.38.05-.57-1.27-.16-2.88-1.06-3.95-1.74ZM63.39,46.85c-.31,2.58-2.64,4.45-5.22,4.19-.03,0-.06,0-.08,0-1.27-.15-2.4-.78-3.19-1.78-.79-1-1.14-2.25-.99-3.52.31-2.61,2.7-4.47,5.31-4.18,1.27.15,2.4.78,3.19,1.78.79,1,1.14,2.25.99,3.52Z"/>
          </g>
        </g>
      </g>
      <g>
        <path class="cls-1" d="M343.46,55.94v-16.62h2.38v16.62h-2.38Z"/>
        <path class="cls-1" d="M349.18,55.94v-11.97h2.14l.14,2.04c.38-.71.92-1.28,1.62-1.7.7-.42,1.5-.63,2.4-.63.95,0,1.77.19,2.45.57.68.38,1.21.95,1.59,1.72.38.77.57,1.73.57,2.89v7.08h-2.38v-6.84c0-1.11-.25-1.95-.74-2.52-.49-.57-1.2-.85-2.14-.85-.62,0-1.17.15-1.66.44-.49.29-.88.72-1.17,1.29-.29.57-.44,1.27-.44,2.09v6.39h-2.38Z"/>
        <path class="cls-1" d="M367.75,56.22c-1.01,0-1.9-.17-2.66-.5-.76-.33-1.36-.8-1.8-1.4-.44-.6-.71-1.31-.81-2.11h2.42c.08.38.23.73.46,1.05.23.32.55.57.95.76.4.19.88.29,1.44.29.52,0,.95-.08,1.29-.23.34-.15.59-.36.75-.62s.24-.54.24-.84c0-.44-.11-.78-.32-1.01-.21-.23-.53-.41-.95-.55-.42-.13-.92-.26-1.51-.37-.56-.1-1.09-.23-1.6-.39-.52-.17-.97-.38-1.38-.63s-.72-.57-.96-.96-.36-.87-.36-1.44c0-.68.18-1.29.55-1.84s.88-.97,1.56-1.28c.67-.31,1.47-.46,2.39-.46,1.33,0,2.4.32,3.21.95s1.28,1.53,1.43,2.68h-2.3c-.06-.54-.3-.95-.71-1.25-.41-.29-.96-.44-1.64-.44s-1.2.13-1.57.4c-.36.27-.55.63-.55,1.07,0,.29.1.54.31.76.2.22.51.41.91.56s.9.29,1.48.42c.84.16,1.59.36,2.26.59.66.24,1.2.59,1.59,1.05.4.46.59,1.12.59,1.97.02.74-.17,1.4-.56,1.97-.39.57-.93,1.01-1.64,1.33-.71.32-1.54.48-2.51.48Z"/>
        <path class="cls-1" d="M379.7,55.94c-.74,0-1.39-.12-1.95-.36-.56-.24-.98-.63-1.28-1.19-.3-.55-.45-1.31-.45-2.26v-6.15h-2.07v-2.02h2.07l.29-2.99h2.09v2.99h3.4v2.02h-3.4v6.17c0,.68.14,1.14.43,1.39s.78.37,1.47.37h1.38v2.02h-1.97Z"/>
        <path class="cls-1" d="M385.78,41.71c-.46,0-.83-.14-1.13-.43-.29-.29-.44-.65-.44-1.09s.15-.78.44-1.06c.29-.28.67-.42,1.13-.42s.82.14,1.12.42c.3.28.45.63.45,1.06s-.15.81-.45,1.09c-.3.28-.67.43-1.12.43ZM384.57,55.94v-11.97h2.37v11.97h-2.37Z"/>
        <path class="cls-1" d="M395.25,55.94c-.74,0-1.39-.12-1.95-.36-.56-.24-.98-.63-1.28-1.19-.3-.55-.45-1.31-.45-2.26v-6.15h-2.07v-2.02h2.07l.29-2.99h2.09v2.99h3.4v2.02h-3.4v6.17c0,.68.14,1.14.43,1.39s.78.37,1.47.37h1.38v2.02h-1.97Z"/>
        <path class="cls-1" d="M404.35,56.22c-.93,0-1.74-.19-2.43-.57s-1.22-.95-1.59-1.71c-.37-.76-.56-1.72-.56-2.87v-7.1h2.38v6.84c0,1.12.25,1.97.74,2.54s1.2.85,2.11.85c.62,0,1.18-.15,1.68-.45.5-.3.89-.74,1.17-1.31s.43-1.27.43-2.09v-6.39h2.37v11.97h-2.11l-.17-2.04c-.36.73-.89,1.3-1.59,1.71-.7.41-1.5.62-2.42.62Z"/>
        <path class="cls-1" d="M418.81,55.94c-.74,0-1.39-.12-1.95-.36-.56-.24-.98-.63-1.28-1.19-.3-.55-.45-1.31-.45-2.26v-6.15h-2.07v-2.02h2.07l.29-2.99h2.09v2.99h3.4v2.02h-3.4v6.17c0,.68.14,1.14.43,1.39s.78.37,1.47.37h1.38v2.02h-1.97Z"/>
        <path class="cls-1" d="M428.65,56.22c-1.13,0-2.13-.26-3.03-.78s-1.6-1.25-2.11-2.2c-.52-.94-.77-2.03-.77-3.27s.26-2.37.78-3.31c.52-.94,1.24-1.67,2.14-2.2.9-.52,1.92-.78,3.04-.78s2.15.26,3.04.78c.89.52,1.59,1.25,2.1,2.18.51.93.77,2.03.77,3.3s-.26,2.37-.77,3.3c-.51.93-1.22,1.66-2.13,2.18-.9.52-1.92.78-3.06.78ZM428.65,54.18c.65,0,1.24-.16,1.77-.48.53-.32.96-.79,1.28-1.41.32-.63.49-1.41.49-2.34s-.16-1.71-.47-2.34-.74-1.1-1.27-1.41c-.53-.32-1.11-.47-1.75-.47s-1.22.16-1.76.47c-.54.32-.97.79-1.29,1.41s-.49,1.41-.49,2.34.16,1.71.49,2.34.75,1.1,1.28,1.41c.53.32,1.1.48,1.72.48Z"/>
        <path class="cls-1" d="M448.81,56.22c-1.14,0-2.15-.27-3.02-.82-.87-.55-1.55-1.29-2.03-2.23s-.72-2.01-.72-3.22.24-2.3.72-3.23c.48-.93,1.16-1.67,2.04-2.22s1.89-.82,3.03-.82c.93,0,1.76.19,2.47.56.71.37,1.27.9,1.66,1.58v-6.98h2.37v17.1h-2.11l-.26-1.85c-.24.36-.55.71-.93,1.03-.38.32-.84.59-1.38.8-.54.21-1.16.31-1.85.31ZM449.19,54.16c.74,0,1.4-.17,1.97-.52.57-.35,1.01-.84,1.32-1.47.31-.63.46-1.37.46-2.21s-.15-1.57-.46-2.2c-.31-.63-.75-1.12-1.32-1.47-.57-.36-1.23-.53-1.97-.53s-1.35.18-1.92.53c-.57.36-1.01.85-1.33,1.47-.32.63-.47,1.36-.47,2.2s.16,1.58.47,2.21c.32.63.76,1.12,1.33,1.47.57.35,1.21.52,1.92.52Z"/>
        <path class="cls-1" d="M464.01,56.22c-1.14,0-2.15-.26-3.04-.78-.89-.52-1.58-1.25-2.08-2.18-.5-.93-.75-2.02-.75-3.25s.25-2.37.75-3.31c.5-.94,1.19-1.68,2.08-2.21.89-.53,1.92-.8,3.09-.8s2.18.26,3.02.78,1.49,1.21,1.95,2.08c.46.86.69,1.82.69,2.86,0,.16,0,.33-.01.51,0,.18-.02.38-.04.61h-9.78v-1.69h7.46c-.05-1-.38-1.78-1-2.34-.62-.56-1.39-.84-2.3-.84-.65,0-1.24.15-1.78.44-.54.29-.97.72-1.29,1.28s-.49,1.27-.49,2.13v.67c0,.89.16,1.64.49,2.24.32.61.76,1.07,1.29,1.38.54.31,1.12.46,1.76.46.76,0,1.38-.17,1.88-.5s.86-.78,1.09-1.35h2.38c-.21.73-.56,1.38-1.05,1.96-.49.58-1.1,1.03-1.82,1.37-.72.33-1.55.5-2.48.5Z"/>
        <path class="cls-1" d="M350.75,81.37c-1.63,0-3.04-.36-4.22-1.08s-2.09-1.73-2.73-3.02c-.64-1.29-.96-2.79-.96-4.5s.32-3.19.96-4.49c.64-1.3,1.55-2.31,2.73-3.03,1.18-.72,2.59-1.08,4.22-1.08,1.95,0,3.53.47,4.74,1.4,1.21.93,1.98,2.25,2.32,3.94h-2.61c-.24-.98-.72-1.77-1.46-2.35-.74-.59-1.73-.88-2.98-.88-1.12,0-2.1.26-2.92.78-.82.52-1.46,1.27-1.9,2.23-.44.97-.66,2.12-.66,3.47s.22,2.51.66,3.48c.44.97,1.08,1.72,1.9,2.23.82.51,1.8.77,2.92.77,1.25,0,2.24-.28,2.98-.84.74-.56,1.22-1.33,1.46-2.29h2.61c-.33,1.65-1.1,2.93-2.32,3.86s-2.79,1.39-4.74,1.39Z"/>
        <path class="cls-1" d="M361.91,66.86c-.46,0-.83-.14-1.13-.43-.29-.29-.44-.65-.44-1.09s.15-.78.44-1.06c.29-.28.67-.42,1.13-.42s.82.14,1.12.42c.3.28.45.63.45,1.06s-.15.81-.45,1.09c-.3.28-.67.43-1.12.43ZM360.7,81.09v-11.97h2.37v11.97h-2.37Z"/>
        <path class="cls-1" d="M371.89,81.37c-1.14,0-2.15-.26-3.04-.78-.89-.52-1.58-1.25-2.08-2.18-.5-.93-.75-2.02-.75-3.25s.25-2.37.75-3.31c.5-.94,1.19-1.68,2.08-2.21.89-.53,1.92-.8,3.09-.8s2.18.26,3.02.78,1.49,1.21,1.95,2.08c.46.86.69,1.82.69,2.86,0,.16,0,.33-.01.51,0,.18-.02.38-.04.61h-9.78v-1.69h7.46c-.05-1-.38-1.78-1-2.34-.62-.56-1.39-.84-2.3-.84-.65,0-1.24.15-1.78.44-.54.29-.97.72-1.29,1.28s-.49,1.27-.49,2.13v.67c0,.89.16,1.64.49,2.24.32.61.76,1.07,1.29,1.38.54.31,1.12.46,1.76.46.76,0,1.38-.17,1.88-.5s.86-.78,1.09-1.35h2.38c-.21.73-.56,1.38-1.05,1.96-.49.58-1.1,1.03-1.82,1.37-.72.33-1.55.5-2.48.5Z"/>
        <path class="cls-1" d="M380.22,81.09v-11.97h2.14l.14,2.04c.38-.71.92-1.28,1.62-1.7.7-.42,1.5-.63,2.4-.63.95,0,1.77.19,2.45.57.68.38,1.21.95,1.59,1.72.38.77.57,1.73.57,2.89v7.08h-2.38v-6.84c0-1.11-.25-1.95-.74-2.52-.49-.57-1.2-.85-2.14-.85-.62,0-1.17.15-1.66.44-.49.29-.88.72-1.17,1.29-.29.57-.44,1.27-.44,2.09v6.39h-2.38Z"/>
        <path class="cls-1" d="M399.7,81.37c-1.16,0-2.19-.27-3.09-.8-.9-.53-1.61-1.26-2.13-2.2-.52-.93-.77-2.02-.77-3.25s.26-2.35.77-3.29c.51-.94,1.22-1.68,2.13-2.21.9-.53,1.93-.8,3.09-.8,1.46,0,2.68.38,3.66,1.14.98.76,1.61,1.79,1.88,3.09h-2.47c-.16-.7-.52-1.23-1.08-1.61s-1.23-.57-2.01-.57c-.63,0-1.22.16-1.76.49-.54.32-.97.8-1.29,1.42s-.49,1.4-.49,2.32c0,.68.09,1.29.29,1.82.19.53.45.98.77,1.34s.7.64,1.13.82.88.27,1.35.27c.52,0,.99-.08,1.41-.25.42-.17.78-.42,1.07-.75.29-.33.49-.73.6-1.19h2.47c-.27,1.27-.89,2.28-1.88,3.05-.98.77-2.2,1.15-3.66,1.15Z"/>
        <path class="cls-1" d="M409.38,66.86c-.46,0-.83-.14-1.13-.43-.29-.29-.44-.65-.44-1.09s.15-.78.44-1.06c.29-.28.67-.42,1.13-.42s.82.14,1.12.42c.3.28.45.63.45,1.06s-.15.81-.45,1.09c-.3.28-.67.43-1.12.43ZM408.17,81.09v-11.97h2.37v11.97h-2.37Z"/>
        <path class="cls-1" d="M417.91,81.37c-.98,0-1.8-.17-2.45-.5-.65-.33-1.13-.78-1.45-1.34s-.47-1.17-.47-1.82c0-.79.2-1.47.62-2.03.41-.56,1-.99,1.76-1.29s1.67-.45,2.73-.45h3.11c0-.7-.1-1.27-.31-1.73-.21-.46-.51-.8-.92-1.03-.4-.23-.91-.34-1.53-.34-.71,0-1.32.17-1.83.51-.51.34-.82.84-.95,1.51h-2.38c.1-.84.38-1.56.87-2.15.48-.59,1.1-1.05,1.86-1.38s1.57-.49,2.42-.49c1.12,0,2.07.2,2.83.59.76.4,1.33.95,1.72,1.67.39.72.58,1.58.58,2.58v7.41h-2.07l-.19-2.02c-.17.32-.38.62-.62.9-.24.28-.52.53-.84.74-.32.21-.7.37-1.12.49-.42.12-.88.18-1.39.18ZM418.36,79.45c.51,0,.96-.1,1.38-.31.41-.21.76-.49,1.06-.84s.51-.76.66-1.21c.15-.45.23-.91.25-1.39v-.07h-2.83c-.68,0-1.23.08-1.65.25-.42.17-.72.39-.91.68-.19.29-.29.62-.29,1s.09.73.27,1.01c.18.28.45.5.8.65s.77.24,1.26.24Z"/>
        <path class="cls-1" d="M431.8,81.37c-1.01,0-1.9-.17-2.66-.5-.76-.33-1.36-.8-1.8-1.4-.44-.6-.71-1.31-.81-2.11h2.42c.08.38.23.73.46,1.05.23.32.55.57.95.76.4.19.88.29,1.44.29.52,0,.95-.08,1.29-.23.34-.15.59-.36.75-.62s.24-.54.24-.84c0-.44-.11-.78-.32-1.01-.21-.23-.53-.41-.95-.55-.42-.13-.92-.26-1.51-.37-.56-.1-1.09-.23-1.6-.39-.52-.17-.97-.38-1.38-.63s-.72-.57-.96-.96-.36-.87-.36-1.44c0-.68.18-1.29.55-1.84s.88-.97,1.56-1.28c.67-.31,1.47-.46,2.39-.46,1.33,0,2.4.32,3.21.95s1.28,1.53,1.43,2.68h-2.3c-.06-.54-.3-.95-.71-1.25-.41-.29-.96-.44-1.64-.44s-1.2.13-1.57.4c-.36.27-.55.63-.55,1.07,0,.29.1.54.31.76.2.22.51.41.91.56s.9.29,1.48.42c.84.16,1.59.36,2.26.59.66.24,1.2.59,1.59,1.05.4.46.59,1.12.59,1.97.02.74-.17,1.4-.56,1.97-.39.57-.93,1.01-1.64,1.33-.71.32-1.54.48-2.51.48Z"/>
        <path class="cls-1" d="M450.71,81.37c-1.14,0-2.15-.27-3.02-.82-.87-.55-1.55-1.29-2.03-2.23s-.72-2.01-.72-3.22.24-2.3.72-3.23c.48-.93,1.16-1.67,2.04-2.22s1.89-.82,3.03-.82c.93,0,1.76.19,2.47.56.71.37,1.27.9,1.66,1.58v-6.98h2.37v17.1h-2.11l-.26-1.85c-.24.36-.55.71-.93,1.03-.38.32-.84.59-1.38.8-.54.21-1.16.31-1.85.31ZM451.09,79.3c.74,0,1.4-.17,1.97-.52.57-.35,1.01-.84,1.32-1.47.31-.63.46-1.37.46-2.21s-.15-1.57-.46-2.2c-.31-.63-.75-1.12-1.32-1.47-.57-.36-1.23-.53-1.97-.53s-1.35.18-1.92.53c-.57.36-1.01.85-1.33,1.47-.32.63-.47,1.36-.47,2.2s.16,1.58.47,2.21c.32.63.76,1.12,1.33,1.47.57.35,1.21.52,1.92.52Z"/>
        <path class="cls-1" d="M465.91,81.37c-1.14,0-2.15-.26-3.04-.78-.89-.52-1.58-1.25-2.08-2.18-.5-.93-.75-2.02-.75-3.25s.25-2.37.75-3.31c.5-.94,1.19-1.68,2.08-2.21.89-.53,1.92-.8,3.09-.8s2.18.26,3.02.78,1.49,1.21,1.95,2.08c.46.86.69,1.82.69,2.86,0,.16,0,.33-.01.51,0,.18-.02.38-.04.61h-9.78v-1.69h7.46c-.05-1-.38-1.78-1-2.34-.62-.56-1.39-.84-2.3-.84-.65,0-1.24.15-1.78.44-.54.29-.97.72-1.29,1.28s-.49,1.27-.49,2.13v.67c0,.89.16,1.64.49,2.24.32.61.76,1.07,1.29,1.38.54.31,1.12.46,1.76.46.76,0,1.38-.17,1.88-.5s.86-.78,1.09-1.35h2.38c-.21.73-.56,1.38-1.05,1.96-.49.58-1.1,1.03-1.82,1.37-.72.33-1.55.5-2.48.5Z"/>
        <path class="cls-1" d="M480.32,81.09v-17.1h2.38v17.1h-2.38Z"/>
        <path class="cls-1" d="M489.92,81.37c-.98,0-1.8-.17-2.45-.5-.65-.33-1.13-.78-1.45-1.34s-.47-1.17-.47-1.82c0-.79.2-1.47.62-2.03.41-.56,1-.99,1.76-1.29s1.67-.45,2.73-.45h3.11c0-.7-.1-1.27-.31-1.73-.21-.46-.51-.8-.92-1.03-.4-.23-.91-.34-1.53-.34-.71,0-1.32.17-1.83.51-.51.34-.82.84-.95,1.51h-2.38c.1-.84.38-1.56.87-2.15.48-.59,1.1-1.05,1.86-1.38s1.57-.49,2.42-.49c1.12,0,2.07.2,2.83.59.76.4,1.33.95,1.72,1.67.39.72.58,1.58.58,2.58v7.41h-2.07l-.19-2.02c-.17.32-.38.62-.62.9-.24.28-.52.53-.84.74-.32.21-.7.37-1.12.49-.42.12-.88.18-1.39.18ZM490.37,79.45c.51,0,.96-.1,1.38-.31.41-.21.76-.49,1.06-.84s.51-.76.66-1.21c.15-.45.23-.91.25-1.39v-.07h-2.83c-.68,0-1.23.08-1.65.25-.42.17-.72.39-.91.68-.19.29-.29.62-.29,1s.09.73.27,1.01c.18.28.45.5.8.65s.77.24,1.26.24Z"/>
        <path class="cls-1" d="M505.38,81.09v-16.62h10.33v1.95h-7.95v5.39h6.65v1.9h-6.65v7.39h-2.38Z"/>
        <path class="cls-1" d="M521.22,81.37c-.98,0-1.8-.17-2.45-.5-.65-.33-1.13-.78-1.45-1.34s-.47-1.17-.47-1.82c0-.79.2-1.47.62-2.03.41-.56,1-.99,1.76-1.29s1.67-.45,2.73-.45h3.11c0-.7-.1-1.27-.31-1.73-.21-.46-.51-.8-.92-1.03-.4-.23-.91-.34-1.53-.34-.71,0-1.32.17-1.83.51-.51.34-.82.84-.95,1.51h-2.38c.1-.84.38-1.56.87-2.15.48-.59,1.1-1.05,1.86-1.38s1.57-.49,2.42-.49c1.12,0,2.07.2,2.83.59.76.4,1.33.95,1.72,1.67.39.72.58,1.58.58,2.58v7.41h-2.07l-.19-2.02c-.17.32-.38.62-.62.9-.24.28-.52.53-.84.74-.32.21-.7.37-1.12.49-.42.12-.88.18-1.39.18ZM521.67,79.45c.51,0,.96-.1,1.38-.31.41-.21.76-.49,1.06-.84s.51-.76.66-1.21c.15-.45.23-.91.25-1.39v-.07h-2.83c-.68,0-1.23.08-1.65.25-.42.17-.72.39-.91.68-.19.29-.29.62-.29,1s.09.73.27,1.01c.18.28.45.5.8.65s.77.24,1.26.24Z"/>
        <path class="cls-1" d="M530.48,81.09v-11.97h2.14l.17,1.69c.38-.62.89-1.1,1.52-1.45.63-.35,1.35-.52,2.14-.52.6,0,1.15.08,1.64.25.49.17.93.42,1.31.75.38.33.69.74.93,1.24.43-.7,1-1.24,1.72-1.64.72-.4,1.48-.59,2.29-.59.96,0,1.8.19,2.49.58.7.39,1.23.97,1.59,1.73s.55,1.72.55,2.86v7.08h-2.35v-6.84c0-1.11-.23-1.95-.68-2.52-.45-.57-1.11-.85-1.98-.85-.59,0-1.11.15-1.57.45s-.82.74-1.08,1.31c-.26.57-.39,1.27-.39,2.09v6.36h-2.38v-6.84c0-1.11-.23-1.95-.68-2.52-.45-.57-1.11-.85-1.98-.85-.55,0-1.06.15-1.52.45-.46.3-.82.74-1.09,1.31-.27.57-.4,1.27-.4,2.09v6.36h-2.38Z"/>
        <path class="cls-1" d="M553.4,66.86c-.46,0-.83-.14-1.13-.43-.29-.29-.44-.65-.44-1.09s.15-.78.44-1.06c.29-.28.67-.42,1.13-.42s.82.14,1.12.42c.3.28.45.63.45,1.06s-.15.81-.45,1.09c-.3.28-.67.43-1.12.43ZM552.19,81.09v-11.97h2.37v11.97h-2.37Z"/>
        <path class="cls-1" d="M557.96,81.09v-17.1h2.38v17.1h-2.38Z"/>
        <path class="cls-1" d="M564.96,66.86c-.46,0-.83-.14-1.13-.43-.29-.29-.44-.65-.44-1.09s.15-.78.44-1.06c.29-.28.67-.42,1.13-.42s.82.14,1.12.42c.3.28.45.63.45,1.06s-.15.81-.45,1.09c-.3.28-.67.43-1.12.43ZM563.75,81.09v-11.97h2.37v11.97h-2.37Z"/>
        <path class="cls-1" d="M573.49,81.37c-.98,0-1.8-.17-2.45-.5-.65-.33-1.13-.78-1.45-1.34s-.47-1.17-.47-1.82c0-.79.2-1.47.62-2.03.41-.56,1-.99,1.76-1.29s1.67-.45,2.73-.45h3.11c0-.7-.1-1.27-.31-1.73-.21-.46-.51-.8-.92-1.03-.4-.23-.91-.34-1.53-.34-.71,0-1.32.17-1.83.51-.51.34-.82.84-.95,1.51h-2.38c.1-.84.38-1.56.87-2.15.48-.59,1.1-1.05,1.86-1.38s1.57-.49,2.42-.49c1.12,0,2.07.2,2.83.59.76.4,1.33.95,1.72,1.67.39.72.58,1.58.58,2.58v7.41h-2.07l-.19-2.02c-.17.32-.38.62-.62.9-.24.28-.52.53-.84.74-.32.21-.7.37-1.12.49-.42.12-.88.18-1.39.18ZM573.94,79.45c.51,0,.96-.1,1.38-.31.41-.21.76-.49,1.06-.84s.51-.76.66-1.21c.15-.45.23-.91.25-1.39v-.07h-2.83c-.68,0-1.23.08-1.65.25-.42.17-.72.39-.91.68-.19.29-.29.62-.29,1s.09.73.27,1.01c.18.28.45.5.8.65s.77.24,1.26.24Z"/>
      </g>
    </g>
  </g>
</svg>