<?xml version="1.0" encoding="UTF-8"?>
<svg id="Capa_2" data-name="Capa 2" xmlns="http://www.w3.org/2000/svg" viewBox="0 0 238.08 261.01">
  <defs>
    <style>
      .cls-1 {
        fill: #243746;
      }
    </style>
  </defs>
  <g id="Capa_1-2" data-name="Capa 1">
    <g id="i_de_literatura">
      <g>
        <path class="cls-1" d="M118.25,0c-26.93,0-48.76,29.55-48.76,65.99s21.83,65.99,48.76,65.99,48.76-29.55,48.76-65.99S145.18,0,118.25,0ZM118.25,130.39c-26.05,0-47.25-28.89-47.25-64.39S92.2,1.6,118.25,1.6s47.25,28.89,47.25,64.39-21.2,64.39-47.25,64.39Z"/>
        <path class="cls-1" d="M124.28,87.26v-11.2h1.32v10.18h.55c.34,0,.65-.07.92-.2.85-.44,1.86-.67,2.92-.67s2.09.24,2.94.68c.24.13.49.19.73.19h.16c.24,0,.48-.06.73-.19.86-.45,1.87-.68,2.95-.68s2.07.23,2.92.67c.26.14.57.2.92.2h.55v-11.41l-.28-.19c-1.12-.74-2.57-1.15-4.1-1.15-.69,0-1.37.08-2.01.24h-.06s.01.07.01.07c.07.38.16.75.28,1.12v.06s.07-.02.07-.02c.54-.14,1.12-.21,1.71-.21,1.15,0,2.26.27,3.13.77v9.22c-1.88-.81-4.37-.81-6.25,0v-9.91l-.28-.19c-1.12-.74-2.57-1.15-4.1-1.15s-2.99.41-4.1,1.15l-.24.16h-2.61v13.74s18.86,0,18.86,0v-1.29h-17.61ZM126.86,75.52c.87-.5,1.98-.77,3.13-.77s2.26.27,3.13.77v9.22c-.94-.41-2.04-.61-3.13-.61s-2.19.2-3.13.61v-9.22Z"/>
        <g>
          <path class="cls-1" d="M132.28,55.42s.06,0,.09.01c2.84.29,5.41-1.76,5.75-4.61.16-1.39-.22-2.77-1.09-3.87-.87-1.1-2.12-1.8-3.51-1.96-2.87-.33-5.5,1.72-5.84,4.6-.16,1.39.22,2.77,1.09,3.87s2.12,1.8,3.51,1.96ZM128.95,49.74c.26-2.15,2.19-3.69,4.34-3.48.02,0,.05,0,.07,0,1.05.12,2,.65,2.65,1.48.66.83.95,1.87.83,2.92-.25,2.15-2.19,3.7-4.34,3.48-.02,0-.05,0-.07,0-1.05-.12-2-.65-2.65-1.48-.66-.83-.95-1.87-.83-2.92Z"/>
          <path class="cls-1" d="M133.35,43.91c.5-.77,1.02-1.67,1.38-2.58.16.67.24,1.61.07,2.85.43.13.84.31,1.22.53.38-2.3.02-3.81-.37-4.69-.49-.13-1-.23-1.52-.29-.08,0-.16-.01-.24-.02-.25,1.4-1.35,3.16-2.16,4.29.52-.1,1.07-.13,1.62-.09Z"/>
          <path class="cls-1" d="M139.22,50.48c.79.46,1.72.94,2.64,1.26-.67.19-1.61.32-2.88.2-.12.44-.29.85-.5,1.24.01,0,.02,0,.03,0,2.3.27,3.8-.15,4.67-.58.09-.38.16-.77.21-1.16.02-.21.04-.42.05-.63-1.4-.17-3.18-1.17-4.35-1.92.11.52.15,1.05.13,1.59Z"/>
          <path class="cls-1" d="M131.02,59.06c-.14-.67-.19-1.6,0-2.83-.42-.13-.83-.3-1.22-.52-.42,2.26-.1,3.76.27,4.65.51.14,1.04.24,1.58.31.06,0,.11.01.17.02.29-1.43,1.49-3.2,2.33-4.3-.54.11-1.1.15-1.67.11-.52.76-1.07,1.66-1.47,2.56Z"/>
          <path class="cls-1" d="M126.66,51.25c-.09-.52-.11-1.05-.06-1.58-.78-.48-1.7-.98-2.61-1.33.68-.17,1.63-.27,2.9-.12.14-.43.33-.84.56-1.22-2.32-.35-3.84.03-4.74.44-.13.5-.24,1.01-.3,1.53-.01.09-.02.17-.02.26,1.38.22,3.12,1.25,4.27,2.03Z"/>
          <path class="cls-1" d="M137.77,46.18c.49-.11,1.01-.26,1.47-.47-.23.33-.49.82-.89,1.29.23.38.41.79.55,1.21,1.48-1.55,2.06-3.31,2.18-3.92-.23-.32-.48-.63-.75-.92l-.32.33c-.71.74-1.92,1.21-3.37,1.41.42.31.8.67,1.13,1.06Z"/>
          <path class="cls-1" d="M138.04,53.89c-.3.41-.64.79-1.03,1.12.13.52.32,1.07.57,1.55-.37-.23-.92-.49-1.45-.92-.39.23-.8.42-1.23.56,1.53,1.39,3.24,1.95,4,2.1.35-.25.67-.53.98-.83l-.27-.24c-.78-.68-1.31-1.89-1.57-3.34Z"/>
          <path class="cls-1" d="M128.04,54.25c-.5.12-1.03.29-1.5.52.23-.35.48-.87.9-1.37-.23-.39-.41-.8-.55-1.23-1.41,1.53-1.97,3.24-2.12,3.95.25.34.51.66.8.97l.27-.3c.69-.76,1.88-1.26,3.31-1.51-.41-.3-.78-.65-1.11-1.04Z"/>
          <path class="cls-1" d="M127.88,46.34c.31-.4.66-.76,1.05-1.07-.12-.49-.29-1.01-.51-1.47.35.23.86.48,1.36.9.39-.22.81-.4,1.25-.54-1.56-1.46-3.32-2.02-4.01-2.16-.33.24-.65.5-.95.78l.33.3c.74.68,1.24,1.85,1.48,3.26Z"/>
        </g>
        <path class="cls-1" d="M107.99,78.15l-.83.85,3.08,4.26c.32.44.35,1.05.08,1.54-.27.48-.58.94-.93,1.35-.22.26-.5.23-.6.21-.23-.05-.42-.23-.49-.46l-2-6.29-1.09.48,2.04,6.66c.19.6-.08,1.26-.61,1.5-.39.18-.81.33-1.23.44-.35.09-.68.04-.91-.16-.24-.2-.37-.52-.37-.91l-.04-7.3h-1.15s-.05,7.31-.05,7.31c0,.34-.15.66-.4.87-.25.21-.57.28-.88.2-.42-.11-.84-.26-1.24-.44-.53-.24-.8-.91-.61-1.51l2.04-6.66-1.04-.46-2.05,6.28c-.1.34-.37.43-.48.46-.14.03-.4.04-.61-.21-.35-.41-.67-.87-.93-1.35-.27-.49-.24-1.09.08-1.54l3.08-4.25-.81-.83-2.99,3.92c-.06.08-.15.09-.2.07-.07-.02-.11-.06-.12-.13,0-.03-.04-.28.05-1.28.03-.33.18-.65.4-.88l4.43-4.46s-.31-.42-.38-.54c-.09-.16-.11-.34-.05-.49.05-.13.14-.23.27-.28.06-.02.14-.03.19-.03.63,0,1.18,0,1.69,0,.09,0,.15-.03.21-.11.09-.13.18-.23.28-.32.22-.2.54-.3.87-.25.33.04.61.22.77.48.09.15.2.21.37.21,0,0,1.31,0,1.58,0,.18,0,.33.07.42.19.09.13.11.31.04.51-.03.1-.09.19-.14.27-.04.06-.21.27-.21.27l4.33,4.57h0l1.71,1.8c0-.25-.02-.58-.07-1.06-.06-.63-.33-1.23-.77-1.68,0,0-3.21-3.28-3.42-3.49-.17-.17-.21-.31-.16-.54.11-.52,0-1.06-.31-1.48-.29-.4-.71-.64-1.19-.68-.33-.03-1.19-.02-1.3-.01h0c-.09,0-.16-.04-.23-.09-.13-.1-.28-.22-.44-.32-.7-.43-1.95-.41-2.69.3-.08.07-.15.1-.25.1,0,0-.89,0-1.13,0h0c-.26,0-.52.06-.76.19-.73.38-1.1,1.25-.9,2.1.03.11.01.18-.07.26-.12.12-3.55,3.66-3.55,3.66-.44.45-.71,1.05-.77,1.69-.1,1.05-.07,1.43-.04,1.63.08.48.39.88.83,1.08l.04.02v.04c-.19.7-.09,1.43.25,2.05.31.56.67,1.08,1.08,1.56.45.53,1.11.76,1.77.62h.05s.01.04.01.04c.17.8.68,1.46,1.36,1.77.46.21.94.38,1.43.51.68.18,1.39.02,1.94-.44.05-.04.09-.08.13-.13l.1-.11.08.09c.06.07.11.13.18.18.54.44,1.26.59,1.98.4.49-.13.97-.3,1.43-.51.7-.32,1.42-1.81,1.42-1.81.66.14,1.32-.09,1.76-.62.41-.48.77-1,1.08-1.56,0,0,0-.01.01-.02.46-.85.34-1.91-.21-2.71l-3.2-4.57Z"/>
        <path class="cls-1" d="M96.87,111.93c-.59,0-1.08.48-1.08,1.08s.48,1.08,1.08,1.08,1.08-.48,1.08-1.08-.48-1.08-1.08-1.08Z"/>
        <path class="cls-1" d="M140.33,111.93c-.59,0-1.08.48-1.08,1.08s.48,1.08,1.08,1.08,1.08-.48,1.08-1.08-.48-1.08-1.08-1.08Z"/>
        <path class="cls-1" d="M118.26,16.4c-17.97,0-32.54,22.21-32.54,49.6s14.57,49.6,32.54,49.6,32.53-22.21,32.53-49.6-14.57-49.6-32.53-49.6ZM149.19,65.17h-30.14V18.02c16.52.65,29.86,21.47,30.14,47.15ZM117.46,18.02v47.15h-30.14c.28-25.68,13.62-46.5,30.14-47.15ZM87.32,66.76h30.14v47.21c-16.53-.65-29.88-21.51-30.14-47.21ZM119.05,113.97v-47.21h30.14c-.26,25.71-13.61,46.56-30.14,47.21Z"/>
        <path class="cls-1" d="M85.88,103.75c-.27.05-.5.09-.7.12-.23.03-.34.02-.39.01h-.09l-.21.15.75,1.06.12.13.2-.15.02-.04s.02-.02.05-.04c.11-.08.24-.14.39-.18.16-.04.32-.08.45-.11l5.31-1.12-2.82,4.73c-.11.18-.21.32-.29.41-.08.09-.17.17-.25.23-.02.01-.04.03-.09.06l-.23.15.96,1.36.12.14.2-.15.02-.06s.03-.07.06-.15c.03-.08.08-.19.14-.3.06-.12.12-.25.2-.39.07-.14.15-.28.24-.43l3.77-6.33-.39-.54-7.53,1.47Z"/>
        <path class="cls-1" d="M85.34,100.82l3.17-1.54c.27-.13.52-.25.72-.34.21-.09.39-.17.54-.23.15-.06.28-.1.38-.13.1-.03.19-.05.26-.06l.23-.1-.5-1.03-.1-.15-.16.08-.04.03c-.05.05-.12.1-.21.16-.09.06-.2.14-.34.22-.14.08-.31.18-.51.28-.2.11-.44.23-.71.36l-2.92,1.42,2.77-7.25-.2-.4-5.34,2.59c-.27.13-.52.25-.72.34-.21.09-.39.17-.54.23-.15.06-.28.1-.39.13-.1.03-.19.05-.26.06l-.23.1.5,1.03.1.15.16-.08.04-.03c.06-.05.13-.1.21-.17.09-.06.2-.14.34-.22.14-.08.31-.18.51-.28.2-.11.44-.23.71-.36l3.02-1.46-2.77,7.25.19.38.1.15.16-.08.04-.03c.06-.05.13-.11.21-.17.09-.06.2-.14.34-.22.14-.09.31-.18.51-.28.2-.11.44-.23.71-.36Z"/>
        <path class="cls-1" d="M81.29,91.72l3.32-1.18c.29-.1.54-.19.76-.26.22-.07.4-.12.56-.17.16-.04.29-.07.4-.09.1-.02.19-.03.26-.04l.24-.08-.49-1.39-.08-.16-.17.06-.05.02c-.06.04-.14.09-.23.14-.09.05-.22.11-.36.18-.15.07-.33.14-.54.23-.21.08-.46.18-.75.28l-3.32,1.18c-.29.1-.54.19-.76.25-.22.07-.41.12-.57.17-.16.04-.29.07-.39.09-.1.02-.19.03-.27.03l-.24.08.49,1.39.08.16.17-.06.05-.02c.06-.04.13-.09.23-.14.1-.05.22-.11.37-.18.15-.07.33-.14.54-.23.21-.08.46-.18.75-.28Z"/>
        <path class="cls-1" d="M79.2,88l5.79-4.54-.16-.65-7.55-1.34c-.27-.05-.51-.1-.7-.15-.22-.06-.32-.1-.37-.13l-.08-.03-.25.06.32,1.25.06.17.24-.07.03-.03s.03-.01.06-.02c.13-.03.28-.04.42-.02.17.02.32.04.46.06l5.36.87-4.33,3.39c-.17.13-.31.22-.42.28-.11.06-.22.1-.31.12-.02,0-.05.01-.11.02h-.03s-.23.05-.23.05l.41,1.62.06.17.24-.06.04-.05s.05-.06.11-.12c.06-.07.14-.14.24-.23.1-.09.21-.19.33-.29.12-.1.24-.21.38-.31Z"/>
        <path class="cls-1" d="M76.46,78.9c.16-.04.35-.08.58-.11.22-.04.49-.08.79-.12l3.49-.5c.3-.04.57-.08.79-.1.22-.02.42-.04.58-.05.16,0,.29-.01.4,0,.11,0,.2.01.27.02l.25-.03-.36-2.49-.1-.78c-.01-.11-.03-.23-.04-.33l-.03-.29c0-.08-.01-.15-.02-.19v-.16s-1.35-.05-1.35-.05l.11.26c.1.24.2.51.29.8.08.25.17.55.25.9.07.29.14.61.19.96l-3,.43c-.02-.18-.04-.37-.05-.56-.02-.26-.03-.5-.04-.73,0-.26-.01-.52-.02-.77v-.17s-1.23-.08-1.23-.08l.08.25c.05.18.11.39.16.62.05.2.1.45.16.74.05.24.1.51.14.8l-2.57.37-.04-.22c-.02-.11-.05-.22-.07-.34-.02-.12-.04-.22-.05-.3-.04-.25-.06-.47-.07-.66,0-.19-.01-.36,0-.49,0-.15.01-.29.03-.41l.02-.16-1.23-.26.1.3c.02.06.05.19.11.5.05.26.1.57.16.93.06.37.12.77.19,1.21.07.44.13.88.2,1.33l.05.17.18-.02h.05c.07-.04.15-.08.25-.11.1-.03.23-.07.39-.11Z"/>
        <path class="cls-1" d="M74.9,71.84c.07-.02.16-.05.26-.07.11-.02.24-.05.4-.06.16-.02.36-.04.58-.06.23-.02.49-.04.8-.05l3.52-.16c.31-.01.57-.02.8-.02.23,0,.42,0,.58,0,.16,0,.29.01.4.03.11.01.19.03.27.05h.04s.21,0,.21,0l-.07-1.48-.03-.18h-.18s-.05.02-.05.02c-.07.02-.16.05-.26.07-.11.02-.24.05-.4.06-.16.02-.36.04-.58.06-.23.02-.49.04-.8.05l-1.01.05s0-.08,0-.12c0-.11,0-.21,0-.32,0-.09-.01-.18-.02-.27,0-.05-.01-.1-.02-.15l2.53-1.98c.1-.08.2-.15.31-.21.12-.07.19-.09.21-.1l.15-.03-.08-1.72-.03-.18-.31.02-.04.12c-.02.06-.04.12-.08.17-.04.06-.09.13-.14.2-.06.07-.14.15-.23.23-.09.08-.2.17-.32.27l-2.41,1.89c-.09-.15-.19-.28-.3-.4-.16-.17-.34-.32-.54-.45-.2-.12-.42-.21-.67-.27-.24-.06-.5-.08-.78-.07-.36.02-.68.1-.96.24-.28.14-.51.34-.7.59-.18.24-.32.53-.41.85-.08.32-.12.66-.1,1.02.02.38.05.69.1.94.04.23.07.41.07.54,0,.09,0,.17,0,.26,0,.08,0,.15,0,.22v.23s0,.19,0,.19h.2s.05-.02.05-.02ZM75.21,69.58c-.01-.22.02-.41.08-.57.07-.16.16-.29.29-.4.13-.11.29-.2.49-.26.2-.07.43-.11.68-.12.05,0,.11,0,.16,0,.24,0,.46.03.66.09.23.07.42.17.57.3.15.13.27.29.35.49.08.2.13.43.14.67,0,.09,0,.18,0,.28,0,.05,0,.09,0,.13l-3.3.15c-.02-.05-.03-.11-.05-.18-.03-.13-.05-.32-.06-.56Z"/>
        <path class="cls-1" d="M74.87,62.92c.17.21.38.38.62.51.25.13.53.21.84.22.29.02.56-.02.81-.1.24-.08.47-.18.69-.32.21-.13.41-.29.6-.45.18-.17.36-.34.54-.51.17-.17.34-.34.51-.5.16-.16.33-.3.5-.42.17-.12.34-.21.52-.28.17-.07.36-.09.56-.09.14,0,.26.04.38.09.11.05.2.12.28.21.08.09.14.2.18.32.04.13.06.27.05.43,0,.18-.05.34-.11.48-.07.15-.16.28-.27.39-.11.11-.24.21-.38.28-.14.07-.29.13-.44.16l-.14.03-.02.44,1.46.22.06-.09c.06-.08.13-.19.2-.31.07-.13.15-.27.21-.44.07-.16.12-.34.17-.53.05-.2.08-.4.09-.62.02-.39-.03-.74-.15-1.03-.11-.29-.27-.54-.47-.74-.2-.19-.42-.34-.68-.44-.25-.1-.51-.15-.76-.17-.34-.02-.67.05-.97.2-.29.14-.57.32-.84.54-.26.21-.52.45-.77.7-.24.24-.48.47-.71.67-.23.2-.46.37-.69.5-.21.12-.43.17-.66.16-.14,0-.27-.03-.38-.08-.11-.04-.2-.1-.27-.18-.07-.08-.13-.17-.17-.29-.04-.12-.06-.25-.05-.41,0-.17.04-.32.1-.44.06-.12.13-.23.21-.31.08-.09.17-.15.26-.2.1-.05.18-.09.25-.11l.12-.04.02-.42-1.31-.11-.16.33c-.05.09-.09.2-.14.33-.05.13-.09.27-.13.43-.04.16-.06.34-.07.53-.01.27.02.53.11.78.08.25.21.49.38.69Z"/>
        <path class="cls-1" d="M75.1,56.67h.02c.07-.02.16-.02.26-.03.11,0,.25,0,.41,0,.17,0,.36.02.59.03.23.02.49.04.79.08l3.5.4c.3.03.57.07.79.1.22.03.41.06.58.1.16.03.29.06.4.09.1.03.18.06.25.08l.25.03.17-1.46v-.18s-.21-.02-.21-.02h-.02c-.07.02-.16.03-.27.03-.11,0-.24,0-.4,0-.16,0-.36-.02-.59-.03-.23-.02-.49-.04-.79-.08l-3.5-.4c-.3-.03-.57-.07-.79-.1-.22-.03-.42-.07-.58-.1-.16-.03-.29-.06-.39-.09-.1-.03-.19-.06-.26-.09l-.25-.03-.17,1.46v.18s.21.02.21.02Z"/>
        <path class="cls-1" d="M76.52,52.73c-.02-.23-.03-.49-.02-.77,0-.25.02-.54.05-.88.02-.29.07-.6.13-.94l4.89.97c.3.06.56.11.78.17.22.05.41.1.56.14.16.05.28.09.39.13.1.04.18.07.25.1l.24.06.29-1.45v-.18s-.19-.04-.19-.04h-.03c-.07,0-.16,0-.27,0-.11,0-.24-.01-.4-.03-.16-.02-.36-.05-.58-.08-.22-.04-.49-.08-.78-.14l-4.89-.97c.07-.34.15-.65.24-.92.1-.32.2-.6.29-.83.11-.27.22-.51.32-.71l.13-.26-1.34-.03-.02.16s-.01.1-.03.19l-.05.29c-.02.1-.04.21-.06.33l-.11.6c-.01.08-.02.13-.03.17l-.6,3.03s-.02.09-.04.17l-.13.6c-.02.11-.05.22-.08.36l-.06.25c-.02.08-.04.14-.05.18l-.04.16,1.25.49-.02-.29Z"/>
        <path class="cls-1" d="M84.06,46.96c.16.17.22.26.25.31l.06.07.24.08.39-1.22.03-.18-.23-.08-.05.02s-.03,0-.07-.02c-.13-.04-.26-.11-.37-.2-.13-.11-.25-.2-.36-.29l-1.09-.95c.05-.17.11-.37.17-.57l.58-1.82c.08-.26.15-.48.21-.65l1.49-.17c.21-.02.38-.02.5-.01.13.01.24.03.33.06.02,0,.05.02.1.04l.25.09.5-1.59.03-.18-.24-.07-.06.03s-.07.02-.15.04c-.09.02-.2.05-.32.07-.13.03-.27.05-.43.08-.16.03-.32.05-.49.07l-7.31.82-.2.64,5.71,5.11c.21.19.39.35.52.49ZM79.84,41.87l3.05-.34c-.02.08-.05.16-.07.25l-.37,1.2c-.06.21-.13.41-.19.61l-.09.3-2.33-2.02Z"/>
        <path class="cls-1" d="M81.22,35.52c.18.21.42.39.7.52.27.12.53.19.79.21.25.02.51,0,.76-.04.24-.04.48-.11.73-.2.23-.09.46-.18.69-.28.22-.1.44-.19.66-.28.21-.09.42-.15.62-.2.2-.05.4-.06.59-.07.19,0,.37.05.56.13.13.06.23.13.32.22.08.09.15.19.18.3.04.11.06.24.05.37,0,.13-.05.28-.11.42-.07.16-.17.3-.28.41-.12.11-.25.2-.39.26-.14.06-.3.1-.45.12-.16.02-.31.01-.47-.02l-.14-.03-.18.4,1.27.74.09-.06c.09-.05.19-.13.31-.22.12-.09.24-.2.36-.33.12-.13.24-.27.36-.43.12-.16.22-.35.31-.54.16-.36.24-.7.25-1.01,0-.32-.05-.6-.16-.86-.11-.25-.27-.48-.47-.66-.2-.19-.41-.33-.64-.43-.31-.14-.64-.21-.98-.18-.32.02-.65.08-.98.19-.32.1-.65.22-.97.36-.31.14-.62.26-.91.36-.29.1-.57.17-.83.2-.24.03-.46,0-.67-.09-.13-.06-.24-.13-.32-.21-.08-.08-.15-.17-.19-.27-.04-.1-.06-.21-.05-.33,0-.12.04-.26.1-.4.07-.16.16-.28.25-.38.1-.09.21-.17.31-.21.11-.05.22-.08.32-.09.11-.01.2-.02.28,0h.13s.17-.37.17-.37l-1.06-.53-.12-.04-.26.23c-.08.07-.16.15-.25.25-.09.1-.18.22-.28.35-.09.14-.18.29-.26.47-.11.24-.17.5-.19.77-.02.27.01.53.09.78.08.25.21.49.39.7Z"/>
        <path class="cls-1" d="M86.85,24.96c.13.25.33.46.58.64.24.17.48.29.73.36.24.07.5.11.75.11.25,0,.5-.01.75-.05.24-.04.49-.08.73-.13.24-.05.47-.1.7-.14.22-.04.44-.07.65-.08.2,0,.4,0,.59.05.18.04.36.12.52.24.11.08.2.18.27.28.06.1.11.21.12.33.02.12,0,.24-.03.37-.03.13-.1.26-.19.39-.1.14-.22.26-.36.34-.14.09-.28.15-.44.18-.15.03-.31.04-.47.03-.16-.02-.31-.05-.45-.11l-.13-.06-.26.36,1.1.98.1-.04c.1-.04.21-.09.34-.15.13-.07.27-.15.42-.25.15-.1.29-.22.43-.35.15-.14.29-.29.41-.47.23-.32.38-.64.44-.94s.07-.6.01-.87c-.06-.27-.17-.52-.33-.74-.15-.22-.34-.4-.54-.55-.28-.2-.59-.32-.92-.37-.32-.04-.65-.05-1-.01-.33.03-.68.09-1.02.16-.33.07-.66.13-.97.17-.3.04-.59.05-.85.04-.25-.02-.45-.09-.64-.22-.11-.08-.21-.17-.28-.27-.07-.09-.11-.2-.13-.3-.02-.1-.02-.22.01-.33s.09-.24.18-.37c.1-.14.21-.25.32-.32.12-.07.23-.12.35-.15.12-.03.23-.03.33-.03.11,0,.2.02.27.05l.12.04.25-.34-1.03-.81-.31.19c-.09.05-.19.12-.3.2-.11.08-.22.17-.34.29-.12.11-.24.25-.35.4-.16.22-.27.46-.34.71-.07.26-.09.52-.06.79.03.27.11.52.24.77Z"/>
        <path class="cls-1" d="M90.75,19.91c.11-.2.25-.43.41-.66.14-.2.32-.44.53-.71.18-.23.39-.47.63-.72l3.55,3.5c.22.21.4.4.56.57.16.16.29.31.39.43.1.12.19.23.25.32.06.08.11.16.15.22l.18.18,1.04-1.05.11-.14-.12-.13-.04-.03c-.06-.04-.14-.08-.23-.14-.09-.06-.19-.15-.32-.25-.13-.11-.27-.24-.44-.39-.17-.15-.36-.34-.58-.55l-3.55-3.5c.24-.24.48-.46.71-.64.26-.22.5-.39.7-.54.23-.16.46-.3.66-.42l.25-.14-1.11-.76-.11.13s-.07.08-.12.14l-.19.21c-.07.08-.15.16-.23.24l-.42.44c-.05.06-.09.1-.12.12l-2.17,2.2-.56.55c-.08.08-.16.16-.24.23l-.21.2c-.06.06-.11.1-.14.13l-.13.11.78,1.1.14-.25Z"/>
        <path class="cls-1" d="M96.26,13.26s.07.03.14.06c.08.04.18.09.3.15.12.06.24.13.38.21.14.08.28.16.42.26l6.17,4.02.56-.36-1.16-7.58c-.04-.27-.07-.51-.09-.71-.02-.23,0-.34,0-.39v-.09s-.14-.21-.14-.21l-1.08.7-.14.12.14.21.04.02s.02.02.04.05c.08.12.13.25.16.39.03.17.07.32.09.46l.9,5.35-4.61-3.01c-.17-.12-.31-.22-.4-.31-.09-.09-.16-.17-.21-.25-.01-.02-.03-.04-.05-.1l-.14-.23-1.4.9-.14.12.14.21.06.02Z"/>
        <path class="cls-1" d="M105.78,7.58c.04.06.08.14.13.24.05.1.1.23.16.38.06.15.13.34.2.56.07.22.15.48.24.77l.99,3.38c.09.29.16.55.21.77.06.22.1.41.13.57.03.16.05.29.07.4.01.11.02.19.02.27l.07.24.17-.05c.09-.03.23-.06.43-.11l1.14-.28c.2-.05.37-.1.51-.14.39-.12.77-.26,1.13-.44.36-.17.68-.38.97-.62.29-.24.55-.51.76-.81.21-.3.38-.64.49-1.01.11-.37.16-.77.15-1.2,0-.43-.09-.9-.23-1.39-.2-.69-.49-1.26-.84-1.67-.35-.42-.76-.73-1.21-.93-.45-.19-.94-.3-1.45-.28-.5,0-1.02.09-1.54.24-.19.05-.39.12-.6.19l-.61.2c-.2.07-.37.12-.52.18-.15.05-.26.09-.32.1l-.15.04c-.06.02-.12.03-.18.04l-.41.12.06.18.02.04ZM107.42,7.71s.06-.02.09-.04c.1-.04.2-.08.31-.11l.35-.12c.11-.04.22-.07.31-.1.45-.13.87-.18,1.26-.14.38.04.72.15,1.03.35.31.2.58.48.82.83.24.36.44.8.59,1.31.14.46.21.88.22,1.24.01.36-.02.68-.1.95-.08.27-.19.51-.34.71-.15.21-.33.38-.53.53-.2.15-.42.28-.65.38-.24.1-.47.19-.71.26-.06.02-.13.04-.21.06l-.27.06c-.09.02-.17.04-.26.05-.02,0-.03,0-.05,0-.06-.18-.14-.39-.22-.64-.1-.31-.21-.64-.32-.99-.11-.35-.21-.68-.31-1.01-.1-.33-.18-.61-.25-.84-.03-.11-.07-.24-.11-.38l-.26-.93c-.05-.16-.09-.32-.13-.48l-.27-.97Z"/>
        <path class="cls-1" d="M115.98,5.39c.02.07.05.15.07.26.02.11.04.24.06.4.02.16.04.36.06.58.02.23.03.49.05.8l.16,3.52c.01.3.02.57.02.8,0,.23,0,.42,0,.58,0,.16-.02.3-.03.41-.01.1-.03.19-.04.26v.05s0,.21,0,.21l1.47-.07.18-.03v-.18s-.02-.05-.02-.05c-.02-.07-.05-.16-.07-.26-.02-.11-.05-.24-.06-.4-.02-.16-.04-.36-.06-.58s-.04-.49-.05-.8l-.16-3.52c-.01-.3-.02-.57-.02-.8,0-.23,0-.42,0-.59,0-.16.01-.3.03-.4.01-.11.03-.19.05-.27v-.05s0-.21,0-.21l-1.48.07-.18.03v.18s.02.05.02.05Z"/>
        <path class="cls-1" d="M120.86,12.16c.3.44.69.83,1.17,1.14.47.31,1.02.53,1.63.67.31.07.62.1.91.1.09,0,.18,0,.27,0,.38-.03.73-.1,1.07-.23.33-.12.65-.29.93-.49.28-.21.54-.44.76-.71.22-.27.41-.56.57-.88.15-.32.27-.66.35-1,.13-.61.15-1.2.05-1.75-.1-.55-.31-1.06-.6-1.51-.3-.44-.69-.83-1.17-1.14-.47-.31-1.02-.54-1.63-.67-.41-.09-.8-.12-1.18-.09s-.74.1-1.07.23c-.34.12-.65.29-.93.5-.28.21-.54.45-.76.72-.22.27-.41.57-.57.89-.15.32-.27.66-.35,1-.13.61-.15,1.2-.05,1.75.1.55.31,1.06.61,1.5ZM121.72,10.38c-.02-.48.03-.98.14-1.5.1-.47.26-.88.46-1.21.2-.33.44-.6.71-.8.27-.19.57-.33.9-.39.15-.03.29-.04.45-.04.19,0,.39.02.6.07.46.1.84.28,1.15.53.3.25.54.57.7.93.16.37.26.8.28,1.26.02.47-.02.98-.14,1.5-.1.47-.26.88-.46,1.22-.2.34-.44.61-.72.81-.27.2-.57.33-.9.4-.33.06-.68.06-1.05-.02-.46-.1-.85-.28-1.15-.54-.3-.26-.54-.58-.7-.94-.16-.37-.25-.8-.27-1.27Z"/>
        <path class="cls-1" d="M130.21,16.17l.09-.16.02-.05c.02-.07.04-.16.08-.26.04-.1.09-.23.16-.37.07-.15.16-.32.26-.53s.23-.44.38-.7l.5-.88s.06.05.1.07c.09.06.18.11.27.17.08.04.16.09.24.12.04.02.09.04.14.06l.32,3.19c.01.13.02.25.01.37,0,.14-.02.21-.03.23l-.05.14,1.49.85.17.07.15-.27-.09-.1s-.08-.1-.11-.16c-.03-.06-.06-.14-.09-.23-.03-.09-.05-.2-.07-.31-.02-.12-.04-.26-.06-.42l-.31-3.05c.17,0,.33-.01.5-.04.23-.04.46-.11.67-.22.21-.1.41-.24.59-.42.18-.17.34-.38.48-.62.18-.31.28-.63.3-.94.03-.31-.02-.62-.12-.91-.11-.28-.27-.55-.5-.8-.22-.24-.49-.45-.81-.63-.34-.19-.61-.33-.85-.42-.22-.09-.39-.16-.5-.23-.08-.04-.15-.09-.22-.13-.07-.04-.13-.08-.18-.12l-.19-.13-.18-.1-.1.18-.02.05c-.02.07-.04.16-.08.26-.04.1-.09.23-.16.37-.07.15-.16.32-.26.53-.1.2-.23.44-.38.7l-1.74,3.07c-.15.27-.29.5-.41.69-.12.19-.22.36-.32.49-.09.13-.17.24-.24.32-.07.08-.13.15-.18.2l-.13.22,1.29.73.17.07ZM133.07,13.02c-.21-.04-.43-.12-.65-.24-.08-.04-.15-.09-.23-.15-.04-.03-.07-.05-.11-.08l1.63-2.87c.05.01.11.03.18.06.13.05.3.13.51.25.19.11.34.23.44.38.1.14.16.29.19.46.03.17.01.35-.04.55-.05.21-.14.42-.27.64-.15.27-.32.49-.5.64-.18.16-.37.26-.56.32-.19.06-.39.07-.6.04Z"/>
        <path class="cls-1" d="M144.27,18.41c.26-.11.48-.2.66-.26.22-.07.33-.09.38-.09l.09-.02.17-.19-.95-.87-.15-.1-.16.19v.04s-.03.03-.05.06c-.09.1-.21.19-.34.25-.15.08-.29.14-.42.2l-4.95,2.23,1.75-5.22c.07-.19.13-.35.2-.46.06-.11.13-.2.2-.27.02-.02.03-.03.08-.08l.19-.19-1.23-1.12-.15-.11-.17.18v.06s-.01.08-.03.16c-.02.09-.04.2-.07.32-.03.13-.07.27-.11.42-.04.15-.09.31-.14.47l-2.34,6.98.49.45,7.04-3.04Z"/>
        <path class="cls-1" d="M144.03,22.53c-.33.16-.65.32-.97.47l-1.68.8c-.15.07-.27.11-.38.13-.11.02-.19.02-.26.03h-.07s-.2.15-.2.15l.84,1.23.15-.16s.09-.08.14-.13c.05-.04.11-.09.18-.15.07-.06.15-.12.25-.18.08-.05.2-.13.38-.22.18-.1.38-.21.62-.34.24-.12.49-.26.77-.4l.83-.42c.51-.26,1.06-.53,1.65-.82l-2.95,5.64.28.53,6.33-.7-3.48,3.11s-.08.07-.12.1c-.03.03-.07.05-.11.08-.09.06-.18.11-.25.15-.1.04-.14.05-.15.05l-.24.14.87,1.28.12.13.19-.12.02-.05s.04-.08.08-.13c.04-.06.09-.12.15-.2.07-.08.15-.17.25-.27.1-.1.22-.22.38-.35l4.93-4.46-.44-.65-6.93.77,3.24-6.19-.54-.79-.54.29c-.18.09-.39.2-.63.32-.24.12-.51.26-.81.4l-.92.46c-.32.16-.64.32-.97.48Z"/>
        <path class="cls-1" d="M149.42,37.92c-.23-.04-.33-.07-.38-.1l-.08-.02-.24.08.43,1.22.08.16.23-.08.03-.04s.03-.02.07-.03c.13-.05.27-.06.42-.06.17,0,.33.01.46.02l1.44.11c.06.17.13.36.2.56l.63,1.81c.09.26.16.48.22.65l-1.09,1.03c-.15.14-.29.25-.39.31-.11.07-.21.12-.3.15-.02,0-.05.02-.11.03h-.03s-.22.08-.22.08l.55,1.57.08.16.23-.08.03-.06s.05-.06.1-.13c.06-.07.13-.16.21-.25.09-.1.18-.21.3-.32s.23-.23.35-.35l5.36-5.04-.22-.63-7.64-.66c-.28-.02-.52-.05-.71-.08ZM155.85,39.45l-2.24,2.1c-.03-.08-.06-.16-.09-.24l-.64-1.79-.1-.29,3.07.22Z"/>
        <path class="cls-1" d="M153.97,46.43c-.3.06-.56.11-.78.15-.22.04-.41.07-.58.09-.16.02-.29.03-.4.03-.11,0-.2,0-.27,0l-.25.04.23,1.12.06.17.18-.04.05-.02c.06-.03.15-.07.24-.11.1-.04.23-.08.39-.13.16-.05.35-.1.56-.15.22-.05.48-.11.78-.17l3.18-.66-4.45,6.36.09.44,5.81-1.21c.3-.06.56-.11.78-.15.22-.04.42-.07.58-.09.16-.02.3-.03.41-.04.1,0,.19,0,.26,0l.25-.04-.23-1.12-.06-.17-.18.04-.05.02c-.07.03-.15.07-.25.11-.1.04-.23.08-.39.13-.16.05-.35.1-.57.15-.22.05-.48.11-.78.17l-3.28.68,4.46-6.36-.09-.42-.06-.17-.18.04-.05.02c-.07.03-.15.07-.25.11-.1.04-.23.08-.39.13-.16.05-.35.1-.57.15-.22.05-.48.11-.78.17l-3.45.72Z"/>
        <path class="cls-1" d="M160.62,55.33c-.16.03-.36.05-.59.08-.23.03-.5.05-.8.08l-3.51.28c-.3.02-.57.04-.8.05-.23.01-.42.02-.58.02-.16,0-.3,0-.4-.02-.11-.01-.2-.02-.27-.04h-.05s-.21.01-.21.01v.18c.02.1.03.24.03.42l.02.58c0,.21.01.41.02.62,0,.21.02.38.03.53.03.41.1.81.2,1.19.1.38.24.75.41,1.08.17.33.39.64.64.91.25.27.55.5.89.68.33.18.72.31,1.15.39.28.05.58.08.9.08.17,0,.34,0,.51-.02.72-.06,1.33-.22,1.81-.48.48-.26.87-.59,1.15-1,.28-.4.47-.86.57-1.36.09-.5.12-1.02.08-1.55-.02-.2-.04-.41-.06-.63l-.14-1.19c-.02-.16-.03-.27-.04-.33,0-.04,0-.09,0-.15,0-.06,0-.12,0-.19l-.04-.42-.19.02h-.04c-.07.04-.16.06-.26.09-.11.03-.24.06-.4.08ZM159.33,56.85c.17-.01.33-.02.5-.03l1.01-.06s.01.06.02.1c.02.1.03.21.05.33l.05.36c.01.12.03.23.03.32.04.47,0,.89-.12,1.26-.11.36-.3.68-.55.94-.25.26-.58.47-.98.63-.4.16-.87.26-1.4.31-.48.04-.9.03-1.26-.03-.35-.06-.66-.16-.91-.29-.25-.13-.46-.29-.63-.48-.17-.19-.31-.4-.41-.62-.11-.23-.19-.46-.24-.71-.05-.25-.09-.5-.11-.75,0-.06,0-.13-.01-.22,0-.09,0-.18,0-.27,0-.09,0-.18,0-.26,0-.02,0-.03,0-.05.19-.03.41-.05.67-.08.33-.04.67-.07,1.03-.11l1.05-.1c.34-.03.63-.06.87-.08.11,0,.25-.02.39-.03l.97-.07Z"/>
        <path class="cls-1" d="M162.05,64.98h-.23c-.07.03-.16.04-.26.06-.11.02-.24.03-.41.04-.17.01-.36.02-.59.03-.23,0-.49,0-.8,0l-3.52-.04c-.3,0-.57-.01-.8-.02-.22,0-.42-.02-.58-.04-.16-.02-.29-.03-.4-.05-.1-.02-.19-.04-.26-.06h-.25s-.02,1.46-.02,1.46l.02.18h.2s.03,0,.03,0c.07-.02.16-.04.26-.05.11-.02.24-.03.4-.04.16-.01.36-.02.59-.03.23,0,.49,0,.8,0l3.52.04c.3,0,.57.01.8.02.23.01.42.02.59.04.16.01.29.03.4.05.1.02.19.04.26.06h.25s.02-1.47.02-1.47l-.02-.18Z"/>
        <path class="cls-1" d="M161.8,69.62h-.03c-.07.02-.16.03-.27.04-.11,0-.25.01-.41.01-.17,0-.36,0-.59-.02-.23-.01-.49-.04-.8-.06l-3.51-.33c-.3-.03-.57-.06-.79-.09-.22-.03-.42-.06-.58-.09-.16-.03-.29-.06-.39-.09-.1-.03-.19-.06-.26-.08l-.25-.03-.11,1.14v.18s.21.02.21.02h.03c.07-.02.16-.03.27-.03.11,0,.24-.01.41,0,.16,0,.36,0,.58.02.23.01.49.04.8.06l3.23.31-6.07,4.71-.06.05-.04.45,5.9.56c.3.03.57.06.79.09.22.03.42.06.58.09.16.03.29.06.4.09.1.03.19.05.25.08l.25.03.11-1.14v-.18s-.21-.02-.21-.02h-.03c-.07.02-.16.03-.27.04-.11,0-.24.01-.41.01-.17,0-.36-.01-.59-.02-.23-.01-.49-.04-.8-.06l-3.34-.32,6.07-4.71.06-.05.04-.42v-.18s-.21-.02-.21-.02Z"/>
        <path class="cls-1" d="M160.58,79.69c-.07,0-.16,0-.27,0-.11,0-.24-.01-.4-.03-.16-.02-.36-.05-.58-.09-.22-.04-.49-.09-.78-.15l-3.45-.71c-.3-.06-.56-.12-.78-.17-.22-.05-.41-.1-.56-.15-.15-.05-.28-.09-.38-.13-.1-.04-.18-.08-.25-.11l-.25-.06-.51,2.47s-.02.09-.04.17l-.13.6c-.03.11-.05.22-.08.32l-.07.28c-.02.08-.04.14-.05.18l-.05.16,1.24.5-.02-.28c-.02-.26-.02-.54,0-.85,0-.26.03-.58.07-.93.03-.3.08-.62.15-.97l2.97.61c-.04.18-.09.36-.14.55-.07.25-.14.48-.21.7-.08.25-.16.49-.24.73l-.05.16,1.13.49v-.26c.02-.19.04-.4.07-.64.02-.21.06-.46.1-.75.04-.25.08-.51.13-.8l2.55.52-.03.22c-.02.11-.03.22-.05.34-.02.12-.04.22-.05.3-.05.24-.1.46-.16.64-.06.18-.11.34-.16.47-.05.14-.11.27-.16.37l-.07.15,1.06.66v-.32c0-.06.02-.2.07-.51.04-.26.1-.57.17-.93.07-.37.15-.77.23-1.2h0c.09-.44.17-.88.27-1.32l.02-.18-.2-.04h-.02Z"/>
        <path class="cls-1" d="M159.01,86.87c-.07,0-.16-.01-.27-.03-.11-.02-.24-.04-.4-.08-.16-.04-.35-.09-.57-.15-.22-.06-.47-.15-.76-.24l-3.35-1.11c-.29-.1-.54-.18-.75-.26-.21-.08-.39-.15-.54-.21-.15-.06-.27-.12-.36-.17-.09-.05-.17-.1-.23-.14l-.24-.09-.36,1.09-.04.18.17.06h.05c.07.01.16.02.27.04.11.02.24.04.4.08.16.04.35.09.56.15.22.06.47.15.76.24l3.08,1.02-7.04,3.27-.14.43,5.63,1.86c.29.1.54.18.75.26.21.08.39.15.55.21.15.06.27.12.37.17.09.05.17.09.23.13l.24.09.36-1.09.04-.18-.17-.06h-.05c-.07-.01-.16-.02-.27-.04-.11-.02-.24-.04-.4-.08-.16-.04-.35-.09-.57-.15-.22-.06-.47-.15-.76-.24l-3.19-1.05,6.97-3.24.07-.03.13-.4.04-.18-.17-.06h-.05Z"/>
        <path class="cls-1" d="M154.78,96.18c-.18-.22-.41-.4-.69-.53-.26-.13-.53-.2-.79-.22-.25-.02-.51-.02-.76.03-.24.04-.49.1-.73.18-.23.08-.46.17-.69.26-.23.09-.45.18-.67.26-.21.08-.42.15-.63.19-.2.04-.39.06-.59.06-.18,0-.37-.05-.55-.14-.13-.06-.23-.13-.31-.23-.08-.09-.14-.19-.18-.3-.04-.11-.05-.24-.04-.37.01-.13.05-.28.12-.42.08-.16.17-.3.29-.4.12-.11.26-.19.4-.25.14-.06.3-.1.45-.11.16-.01.32,0,.47.03l.14.03.19-.4-1.26-.77-.09.05c-.09.05-.19.12-.31.21-.12.09-.24.2-.36.32-.12.12-.25.27-.37.42-.12.16-.23.34-.32.54-.17.35-.26.69-.27,1.01,0,.32.04.61.15.86.11.26.26.48.45.67.19.19.41.34.63.45.31.15.64.21.98.2.32-.02.65-.07.98-.17.33-.09.66-.21.98-.34.32-.13.62-.25.92-.34.29-.1.57-.16.83-.19.25-.03.46,0,.67.11.13.06.23.13.32.22.08.08.14.17.18.27.04.1.05.21.05.33,0,.12-.05.26-.11.39-.07.16-.16.28-.26.37-.1.09-.21.16-.32.21-.11.05-.22.07-.32.09-.11.01-.2.01-.28,0h-.13s-.18.37-.18.37l1.16.61.28-.24c.08-.07.16-.15.26-.25.09-.1.19-.21.28-.34.1-.13.19-.29.27-.46.11-.24.18-.5.21-.76.02-.27,0-.53-.08-.79-.08-.26-.2-.5-.38-.71Z"/>
        <path class="cls-1" d="M152.38,102.65c-.07-.02-.15-.05-.25-.09-.1-.04-.23-.1-.37-.17-.15-.07-.32-.16-.52-.27-.2-.11-.43-.24-.69-.4l-3.03-1.8c-.26-.16-.49-.3-.68-.42-.19-.12-.35-.23-.48-.32-.13-.09-.24-.18-.32-.25-.08-.07-.15-.13-.2-.18l-.21-.13-.75,1.27-.07.17.16.09.05.02c.07.02.16.05.26.08.1.04.22.09.37.17.15.07.32.16.52.27.2.11.43.24.69.4l3.03,1.8c.26.16.49.29.68.42.19.12.35.23.49.33.13.09.24.17.32.25.08.07.15.13.2.18l.21.14.76-1.27.07-.17-.16-.09-.05-.02Z"/>
        <path class="cls-1" d="M148.6,105.62c-.23-.17-.48-.3-.73-.37-.24-.07-.5-.11-.75-.12-.24-.01-.5,0-.75.04-.24.03-.49.08-.73.12-.24.05-.47.09-.7.13-.22.04-.44.06-.65.07-.21,0-.4-.02-.59-.06-.18-.04-.35-.12-.51-.25-.11-.08-.2-.18-.26-.28-.06-.1-.1-.21-.12-.33-.01-.12,0-.24.03-.37.04-.13.1-.26.2-.39.11-.14.23-.26.36-.34.14-.08.29-.14.44-.17.15-.03.31-.04.47-.02.16.02.31.06.45.12l.13.06.26-.35-1.09-1-.1.04c-.1.03-.21.08-.35.15-.14.07-.28.15-.42.24-.14.1-.29.21-.44.34-.15.13-.29.29-.42.46-.23.31-.39.63-.46.94-.07.31-.08.6-.02.87.05.27.16.52.31.75.15.22.33.41.54.56.28.2.58.33.92.38.32.05.65.05,1,.03.34-.03.68-.08,1.02-.15.33-.07.66-.12.97-.16.3-.04.59-.04.85-.02.25.02.45.1.64.23.11.08.21.18.27.28.06.1.11.2.13.3.02.11.01.22-.02.33-.03.12-.09.24-.19.37-.1.14-.22.24-.33.31-.12.07-.24.12-.35.14-.11.02-.23.03-.33.02-.11-.01-.2-.03-.27-.05l-.12-.04-.25.34,1.02.82.32-.18c.09-.05.19-.12.3-.19s.22-.17.35-.28c.12-.11.24-.24.35-.4.16-.21.28-.45.35-.71.07-.26.1-.52.08-.79-.02-.27-.1-.53-.23-.77-.13-.25-.32-.47-.57-.65Z"/>
        <path class="cls-1" d="M108.25,116.29c-.42-.19-.84-.32-1.25-.39-.41-.07-.8-.08-1.19-.05-.38.04-.75.12-1.09.25-.34.13-.67.3-.96.52-.29.21-.55.46-.78.73-.23.28-.42.58-.56.91-.26.57-.39,1.15-.4,1.72,0,.57.11,1.11.34,1.62.23.51.56.98,1,1.39.44.42.98.77,1.6,1.05.31.14.63.26.96.34.33.09.65.14.95.16h.08s1.01-.98,1.01-.98l-.2-.31-.14.06c-.18.08-.36.14-.55.18-.19.04-.37.06-.56.06-.2,0-.4-.02-.6-.07-.19-.04-.38-.1-.55-.18-.49-.22-.89-.51-1.18-.85-.29-.34-.49-.71-.6-1.12-.11-.41-.13-.86-.07-1.33.06-.47.21-.96.43-1.45.2-.44.44-.8.72-1.07.28-.28.59-.48.93-.6.33-.12.69-.18,1.07-.15.38.03.77.13,1.16.31.41.19.76.43,1.03.71.28.29.49.6.63.93l.05.11h.34s.1-1.31.1-1.31l-.06-.06c-.47-.45-1.03-.83-1.68-1.13Z"/>
        <path class="cls-1" d="M117.21,118.48l-.02.21v.02c.02.07.03.16.03.27,0,.11,0,.24,0,.4,0,.17-.02.36-.03.59-.02.23-.04.49-.07.79l-.13,1.16c-.12,0-.25-.02-.39-.03-.22-.02-.45-.04-.7-.06-.25-.02-.51-.04-.78-.07-.27-.03-.53-.05-.79-.08-.26-.03-.5-.05-.74-.08-.16-.02-.32-.04-.46-.06l.13-1.2c.03-.3.07-.57.1-.79.03-.23.07-.42.1-.58.03-.16.06-.29.09-.39.03-.1.06-.19.09-.25l.03-.25-1.47-.16h-.18s-.02.21-.02.21v.03c.02.07.03.16.03.27,0,.11,0,.24,0,.41,0,.17-.01.36-.03.59-.02.23-.04.49-.08.79l-.38,3.5c-.03.3-.07.57-.1.79-.03.22-.06.42-.1.58-.03.16-.06.29-.09.39-.03.1-.06.19-.09.26l-.04.25,1.47.16h.18s.02-.21.02-.21v-.02c-.02-.07-.03-.16-.03-.27,0-.11,0-.24,0-.4,0-.16.02-.36.03-.59.02-.23.04-.49.07-.79l.16-1.42c.13.01.28.02.44.04.24.02.48.05.77.08l.77.09c.27.03.54.06.79.09.25.03.49.06.7.09.13.02.25.03.36.04l-.16,1.41c-.03.3-.07.57-.1.79-.03.22-.07.42-.1.58-.03.16-.06.29-.09.39-.03.1-.06.19-.09.26l-.03.25,1.47.16h.18s.02-.21.02-.21v-.03c-.02-.07-.03-.16-.03-.27,0-.11,0-.24,0-.4,0-.16.01-.36.03-.58.02-.23.04-.49.08-.79l.38-3.5c.03-.3.07-.57.1-.79.03-.22.06-.42.1-.58.03-.16.06-.29.09-.4.03-.1.06-.19.09-.26l.04-.25-1.47-.16h-.18Z"/>
        <path class="cls-1" d="M123.03,125.96c-.03-.07-.06-.15-.09-.26-.03-.1-.06-.23-.09-.39-.03-.16-.07-.35-.1-.58-.04-.23-.07-.49-.11-.79l-.42-3.5c-.04-.3-.06-.57-.08-.79-.02-.23-.03-.42-.04-.59,0-.16,0-.3,0-.4,0-.11.01-.2.03-.27v-.05s-.02-.21-.02-.21l-1.46.17-.18.04.02.18v.05c.04.07.07.15.1.25.03.11.06.24.09.4.03.16.07.36.1.58.03.23.07.49.1.79l.42,3.5c.04.3.06.57.08.79.02.22.03.42.04.58,0,.16,0,.3,0,.41,0,.1-.01.19-.02.27v.05s.02.21.02.21l1.46-.17.18-.04-.02-.18v-.05Z"/>
        <path class="cls-1" d="M129.27,123.53c-.22.13-.48.26-.76.39-.24.12-.53.24-.86.37-.28.11-.59.21-.93.31l-1.34-4.8c-.08-.29-.15-.55-.2-.77-.05-.22-.09-.41-.13-.58-.03-.16-.05-.29-.06-.4-.01-.11-.02-.19-.02-.27l-.06-.24-1.43.4-.17.07.05.18.02.04c.04.06.08.14.13.24.05.1.1.22.16.37.06.16.12.34.19.56.07.22.14.47.23.77l.95,3.39c.08.29.15.55.2.77.05.22.1.41.13.57.03.16.05.29.06.4.01.11.01.2.01.27l.06.24,2.43-.68s.07-.02.16-.04l.59-.15c.11-.03.22-.06.32-.08l.28-.07c.08-.02.14-.03.18-.04l.16-.03-.13-1.34-.25.14Z"/>
        <path class="cls-1" d="M135.32,120.72c-.19.17-.42.35-.67.53-.21.16-.47.33-.77.53-.26.16-.54.33-.85.49l-1.36-2.71c.16-.08.34-.15.52-.23.24-.1.47-.19.68-.27.24-.09.48-.18.72-.26l.16-.05-.31-1.19-.21.15c-.15.11-.33.23-.54.35-.18.11-.4.24-.65.39-.21.12-.45.26-.71.39l-1.17-2.32.2-.11c.1-.06.19-.11.3-.17.1-.06.19-.11.27-.14.22-.11.43-.2.6-.27.18-.07.34-.12.47-.17.15-.05.28-.08.39-.11l.16-.03-.14-1.25-.25.2c-.07.05-.21.14-.44.26-.23.13-.51.28-.84.45-.33.17-.69.36-1.09.56h0c-.4.2-.8.41-1.2.61l-.15.1.08.16.03.04c.05.05.11.12.17.21.07.09.14.2.23.34.09.14.18.31.29.51.11.2.23.44.37.71l1.59,3.15c.14.27.25.51.35.72.09.2.17.38.23.53.06.15.11.28.14.38.03.1.05.19.07.26l.11.23,2.25-1.13s.08-.04.15-.08l.55-.27c.1-.05.2-.1.3-.14l.26-.12c.08-.03.13-.06.17-.08l.15-.06-.38-1.28-.21.19Z"/>
        <path class="cls-1" d="M109.47,43.12c-.62-.84-1.88-.83-2.48.03l-2.25,3.25h0s-1.07-1.54-1.07-1.54c-.55-.79-1.68-.9-2.37-.22l-5.2,5.33c-.15.15-.25.33-.3.53l-.34,1.43c-.03.14-.11.26-.23.39l-4.41,4.77,1.33.4,3.37-3.62h0c.11-.01.22-.04.31-.06.59-.17,1.27-.62,1.71-.62.21,0,.37.1.44.38.24.88-1.06,2.18.05,2.28.07,0,.14,0,.21,0,1,0,2.05-.64,4.38-2.06.55-.33,1.01-.45,1.4-.45.5,0,.89.19,1.22.38,0,0,.72.46,1.39.12l-.75-1.17h0s0,0-.01-.01c-.42-.24-1.03-.55-1.85-.55-.67,0-1.35.21-2.04.63,0,0-2.15,1.31-2.8,1.61.07-.34.09-.72-.02-1.1-.21-.8-.84-1.29-1.63-1.29-.13,0-.29.03-.44.06h0s-.04,0-.06,0c-.17,0-.3-.13-.3-.3,0-.03,0-.06.01-.09h0s.16-.54.16-.54c.05-.16.14-.31.25-.43l4.78-4.91c.25-.25.67-.21.87.08l8.14,11.66,1.26-.38-5.55-7.9c.05-.03.12-.05.19-.05.74,0,2.32,1.36,2.94,1.36.01,0,.02,0,.03,0,.69-.05.54-.3.43-.83-.16-.77-.05-.98.18-.98.25,0,.62.25.91.33.12.03.32.05.53.05.12,0,.25,0,.37-.02l1.36,1.85,1.28-.39-5.42-7.41ZM106.66,49.2h0,0s0,0,0,0ZM110.44,47.48c-.45,0-.86.19-1.13.53-.19.23-.29.5-.33.77,0,0-.44-.33-1.14-.61-.07-.03-.15-.06-.22-.08-.06-.02-.13-.04-.19-.06-.04-.01-.08-.03-.12-.04h0c-.47-.13-1.01-.21-1.61-.17l-.19-.29,1.05-1.5,1.27-1.83c.2-.29.63-.3.84-.01l1.62,2.2.94,1.27c-.22-.09-.48-.17-.77-.17Z"/>
      </g>
      <g>
        <g>
          <path class="cls-1" d="M62.29,153.22v-12.01h-2.95c-.32,0-.57.26-.57.57v11.19c0,.96-.11,1.78-.33,2.44-.22.66-.61,1.16-1.16,1.5-.56.34-1.32.51-2.31.51s-1.75-.17-2.31-.51c-.56-.34-.94-.84-1.15-1.5-.21-.66-.31-1.49-.31-2.47v-11.74h-2.95c-.32,0-.57.26-.57.57v11.57c0,2.44.61,4.27,1.84,5.49,1.23,1.22,3.04,1.83,5.45,1.83s4.22-.62,5.46-1.87c1.24-1.25,1.86-3.11,1.86-5.58Z"/>
          <path class="cls-1" d="M84.38,160.23v-13.46h-3.01c-.21,0-.38.17-.38.38v13.08h3.38Z"/>
          <path class="cls-1" d="M93.33,155.81l-3.05-8.7c-.07-.2-.26-.33-.47-.33h-3.36l5.51,13.46h2.4c.23,0,.44-.14.52-.35l5.32-13.1h-3.66l-3.22,9.03Z"/>
          <path class="cls-1" d="M122.84,149.89c.31,0,.62.05.93.14.31.09.56.19.76.3l1.64-3.06c-.44-.27-.86-.47-1.27-.59-.41-.12-.84-.18-1.3-.18-.64,0-1.26.17-1.87.51-.61.34-1.12.81-1.54,1.41-.07.1-.13.21-.19.32v-1.96h-3.41v13.46h3.03c.21,0,.38-.17.38-.38v-5.41c0-.75.02-1.31.07-1.71.05-.39.1-.71.18-.97.16-.45.38-.82.64-1.09.26-.27.56-.47.9-.6.34-.13.69-.19,1.05-.19Z"/>
          <path class="cls-1" d="M171.7,160.23h3.11v-8.49c0-1.64-.52-2.92-1.56-3.85-1.04-.93-2.48-1.39-4.34-1.39-1.15,0-2.22.17-3.21.51-.99.34-1.96.89-2.91,1.65l1.72,2.32c.56-.51,1.22-.91,1.95-1.19.74-.28,1.46-.42,2.17-.42.86,0,1.53.2,2.03.59.5.39.75.99.75,1.79v.33h-3.88c-.64,0-1.23.05-1.79.16-.55.11-1.06.3-1.51.57-.53.29-.95.71-1.27,1.27-.32.56-.48,1.22-.48,2.01,0,.87.22,1.65.67,2.32s1.06,1.19,1.83,1.56c.77.36,1.65.55,2.63.55.69,0,1.35-.14,1.96-.41s1.17-.7,1.65-1.3c.08-.09.15-.2.22-.3l.23,1.74ZM170.97,156.29c-.3.46-.7.83-1.2,1.09s-1.05.4-1.65.4c-.67,0-1.21-.15-1.61-.46-.4-.31-.6-.72-.6-1.23,0-.24.05-.45.14-.64s.23-.35.41-.48c.2-.16.44-.27.72-.31.28-.05.57-.07.86-.07h3.38v.11c0,.6-.15,1.13-.45,1.6Z"/>
          <circle class="cls-1" cx="82.68" cy="142.95" r="1.83"/>
          <circle class="cls-1" cx="142.39" cy="142.95" r="1.83"/>
          <path class="cls-1" d="M156.38,148.64c-.07-.11-.14-.23-.22-.34-.46-.6-1-1.05-1.63-1.35-.63-.3-1.31-.45-2.03-.45-1.04,0-1.99.28-2.87.83-.87.56-1.57,1.35-2.09,2.39-.52,1.04-.78,2.29-.78,3.77,0,1.33.23,2.53.7,3.59.46,1.06,1.12,1.9,1.98,2.51s1.87.91,3.06.91c.67,0,1.32-.13,1.95-.4.63-.26,1.18-.71,1.67-1.34.09-.12.18-.26.26-.39l.25,1.85h3.11v-17.87h-2.95c-.22,0-.4.18-.4.4v5.86ZM155.17,156.9c-.48.33-1.06.49-1.73.49s-1.23-.16-1.72-.48c-.49-.32-.87-.77-1.13-1.35-.26-.58-.4-1.27-.4-2.08s.13-1.49.4-2.06c.26-.57.64-1.02,1.13-1.34.49-.32,1.06-.48,1.72-.48s1.25.16,1.73.48c.48.32.86.77,1.12,1.35.26.58.4,1.27.4,2.05s-.13,1.47-.4,2.05c-.26.58-.64,1.04-1.12,1.37Z"/>
          <path class="cls-1" d="M186.95,148.64c-.07-.11-.14-.23-.22-.34-.46-.6-1-1.05-1.63-1.35-.63-.3-1.31-.45-2.03-.45-1.04,0-1.99.28-2.87.83-.87.56-1.57,1.35-2.09,2.39-.52,1.04-.78,2.29-.78,3.77,0,1.33.23,2.53.7,3.59.46,1.06,1.12,1.9,1.98,2.51.86.61,1.87.91,3.06.91.67,0,1.32-.13,1.95-.4.63-.26,1.18-.71,1.67-1.34.09-.12.18-.26.26-.39l.25,1.85h3.11v-17.87h-2.95c-.22,0-.4.18-.4.4v5.86ZM185.74,156.9c-.48.33-1.06.49-1.73.49s-1.23-.16-1.72-.48c-.49-.32-.87-.77-1.13-1.35-.26-.58-.4-1.27-.4-2.08s.13-1.49.4-2.06c.26-.57.64-1.02,1.13-1.34.49-.32,1.06-.48,1.72-.48s1.25.16,1.73.48c.48.32.86.77,1.12,1.35.26.58.4,1.27.4,2.05s-.13,1.47-.4,2.05c-.26.58-.64,1.04-1.12,1.37Z"/>
          <path class="cls-1" d="M72.97,146.5c-.64,0-1.26.11-1.86.34-.6.23-1.13.59-1.58,1.08-.18.2-.34.43-.49.68v-1.83h-3.41v13.46h3.03c.21,0,.38-.17.38-.38v-6.06c0-1.02.11-1.85.33-2.48.22-.64.54-1.11.97-1.41.43-.3.97-.45,1.62-.45.86,0,1.48.26,1.88.78.4.52.6,1.34.6,2.47v7.54h3.03c.21,0,.38-.17.38-.38v-8.41c0-1.57-.43-2.78-1.3-3.65-.86-.86-2.06-1.3-3.59-1.3Z"/>
          <path class="cls-1" d="M112.3,148.51c-.51-.63-1.16-1.12-1.94-1.47-.78-.35-1.7-.53-2.76-.53-1.13,0-2.1.21-2.91.61s-1.47.95-1.98,1.62c-.51.67-.89,1.43-1.15,2.27-.26.84-.38,1.69-.38,2.57s.13,1.78.38,2.61c.25.83.65,1.57,1.19,2.21.54.65,1.22,1.16,2.06,1.54.84.38,1.84.57,3,.57.78,0,1.48-.07,2.09-.21s1.2-.36,1.76-.67c.56-.31,1.17-.71,1.8-1.2l-1.69-2.29c-.51.46-1.09.81-1.75,1.05-.66.25-1.33.37-2.02.37-.95,0-1.73-.25-2.36-.74-.52-.41-.86-.99-1.01-1.73-.05-.23.12-.46.36-.46h8.78c.04-.25.06-.5.07-.72,0-.23.01-.4.01-.53,0-.95-.13-1.84-.4-2.68-.26-.84-.65-1.57-1.16-2.2ZM104.55,152.12c.05-.45.19-.9.42-1.32.23-.43.57-.78,1.02-1.05.45-.27,1.02-.41,1.69-.41.46,0,.86.07,1.21.2.36.14.66.33.91.59s.46.55.6.89c.11.26.18.53.21.82.01.15-.12.28-.27.28h-5.8Z"/>
          <path class="cls-1" d="M136.3,152.81c-.51-.31-1.06-.56-1.64-.74-.58-.18-1.15-.34-1.69-.46-.58-.14-1.05-.28-1.41-.4-.35-.12-.61-.26-.76-.42-.15-.16-.23-.36-.23-.6,0-.35.17-.62.51-.82.34-.2.77-.3,1.3-.3.6,0,1.17.13,1.71.4.42.21.78.5,1.07.87.13.17.39.19.56.05l1.77-1.4c-.51-.8-1.2-1.42-2.08-1.84-.87-.43-1.85-.64-2.92-.64-1.79,0-3.16.5-4.13,1.51-.65.67-.95,1.58-.95,2.51,0,.7.14,1.28.42,1.74.28.47.65.86,1.11,1.16.45.3.96.54,1.5.72.55.18,1.07.35,1.58.49.49.13.94.26,1.34.4.4.14.72.31.96.52.24.21.35.48.35.81,0,.4-.19.73-.56,1s-.9.4-1.57.4c-.86,0-1.57-.21-2.14-.64-.44-.33-.8-.68-1.08-1.05-.14-.18-.41-.21-.58-.05l-1.98,1.72c.31.4.72.82,1.24,1.26s1.15.8,1.9,1.09c.75.29,1.62.44,2.62.44,1.11,0,2.08-.19,2.89-.57s1.46-.91,1.91-1.6c.45-.68.68-1.47.68-2.36,0-.78-.15-1.43-.46-1.94-.31-.51-.72-.92-1.23-1.23Z"/>
          <path class="cls-1" d="M144.09,160.23v-13.46h-3.01c-.21,0-.38.17-.38.38v13.08h3.38Z"/>
        </g>
        <g>
          <path class="cls-1" d="M96.91,174.72c-1.01-.6-2.17-.9-3.48-.9s-2.45.3-3.48.9c-1.03.6-1.83,1.42-2.41,2.47-.58,1.05-.87,2.25-.87,3.61s.3,2.55.89,3.61c.59,1.06,1.4,1.9,2.41,2.5s2.17.9,3.46.9,2.47-.3,3.49-.91c1.02-.61,1.82-1.44,2.4-2.5s.87-2.25.87-3.6-.3-2.57-.89-3.61c-.59-1.05-1.39-1.87-2.4-2.47ZM96.39,182.96c-.26.6-.65,1.06-1.15,1.39-.5.33-1.1.49-1.79.49s-1.32-.16-1.83-.49c-.51-.33-.9-.79-1.17-1.39-.27-.6-.41-1.32-.41-2.16s.14-1.58.41-2.17c.27-.59.66-1.05,1.17-1.36.51-.32,1.12-.48,1.83-.48s1.29.16,1.79.48.88.77,1.15,1.36c.26.59.4,1.31.4,2.17s-.13,1.55-.4,2.16Z"/>
          <path class="cls-1" d="M128.72,168.53l-7.64,19.01h3.85l1.25-3.34c.08-.22.3-.37.54-.37h7.08l1.23,3.35c.08.22.29.36.52.36h3.46l-7.64-19.01h-2.65ZM127.49,180.67l2.59-6.93,2.55,6.93h-5.14Z"/>
          <path class="cls-1" d="M81.76,169.69h2.69v17.86h-3.36v-17.19c0-.37.3-.66.66-.66Z"/>
          <path class="cls-1" d="M165.27,175.95c-.07-.11-.14-.23-.22-.34-.46-.6-1-1.05-1.62-1.35-.63-.3-1.31-.45-2.03-.45-1.04,0-1.99.28-2.87.83-.87.56-1.57,1.35-2.09,2.39-.52,1.04-.78,2.29-.78,3.77,0,1.33.23,2.52.7,3.59.46,1.06,1.12,1.9,1.98,2.51.85.61,1.87.91,3.06.91.67,0,1.32-.13,1.95-.4.63-.26,1.18-.71,1.66-1.34.09-.12.18-.26.26-.39l.25,1.85h3.11v-17.85h-2.95c-.22,0-.4.18-.4.4v5.86ZM164.06,184.21c-.48.33-1.06.49-1.73.49s-1.23-.16-1.72-.48c-.49-.32-.87-.77-1.13-1.35-.26-.58-.4-1.27-.4-2.07s.13-1.49.4-2.06c.26-.57.64-1.02,1.13-1.34.49-.32,1.06-.48,1.72-.48s1.25.16,1.73.48c.48.32.85.77,1.12,1.35.26.58.4,1.26.4,2.05s-.13,1.46-.4,2.05c-.26.58-.64,1.04-1.12,1.36Z"/>
          <path class="cls-1" d="M148.25,173.82c-.64,0-1.26.11-1.86.34-.6.23-1.13.59-1.58,1.08-.18.2-.34.43-.49.68v-1.83h-3.41v13.45h3.03c.21,0,.38-.17.38-.38v-6.06c0-1.02.11-1.85.33-2.48.22-.64.54-1.1.97-1.41.43-.3.97-.45,1.62-.45.85,0,1.48.26,1.88.78.4.52.6,1.34.6,2.47v7.53h3.03c.21,0,.38-.17.38-.38v-8.41c0-1.56-.43-2.78-1.3-3.64-.86-.86-2.06-1.3-3.59-1.3Z"/>
          <path class="cls-1" d="M182.43,175.82c-.51-.63-1.16-1.12-1.94-1.47-.78-.35-1.7-.53-2.76-.53-1.13,0-2.1.2-2.91.61s-1.47.95-1.98,1.62c-.51.67-.89,1.43-1.15,2.27-.25.84-.38,1.69-.38,2.57s.13,1.78.38,2.61c.25.83.65,1.56,1.19,2.21.54.65,1.22,1.16,2.06,1.54.84.38,1.84.57,3,.57.78,0,1.48-.07,2.09-.2.61-.14,1.2-.36,1.76-.67.56-.31,1.16-.71,1.8-1.2l-1.69-2.29c-.51.46-1.09.8-1.75,1.05-.66.25-1.33.37-2.02.37-.95,0-1.73-.25-2.36-.74-.52-.41-.86-.99-1.01-1.73-.05-.23.12-.45.36-.45h8.77c.04-.25.06-.5.07-.72,0-.23.01-.4.01-.53,0-.95-.13-1.84-.4-2.67-.26-.84-.65-1.57-1.16-2.2ZM174.68,179.44c.05-.45.19-.9.42-1.32.23-.43.57-.78,1.02-1.05.45-.27,1.02-.41,1.69-.41.46,0,.86.07,1.21.2.36.14.66.33.91.59s.46.55.6.89c.11.26.18.53.21.82.01.15-.12.28-.27.28h-5.8Z"/>
          <path class="cls-1" d="M195.17,180.12c-.51-.31-1.06-.55-1.64-.74-.58-.18-1.15-.34-1.69-.46-.58-.14-1.05-.28-1.41-.4-.35-.12-.61-.26-.76-.42-.15-.16-.23-.36-.23-.6,0-.35.17-.62.5-.82.34-.2.77-.3,1.3-.3.6,0,1.17.13,1.71.4.42.21.78.5,1.07.87.13.17.39.19.56.05l1.77-1.4c-.51-.8-1.2-1.41-2.07-1.84-.87-.43-1.85-.64-2.92-.64-1.79,0-3.16.5-4.13,1.51-.64.67-.95,1.57-.95,2.51,0,.7.14,1.28.42,1.74.28.47.65.86,1.11,1.16.45.3.95.54,1.5.72.55.18,1.07.35,1.58.49.49.13.94.26,1.34.4.4.14.72.31.96.52.24.21.35.48.35.8,0,.4-.19.73-.56,1s-.9.4-1.57.4c-.86,0-1.57-.21-2.14-.64-.44-.33-.8-.68-1.08-1.05-.14-.18-.41-.21-.58-.05l-1.98,1.72c.31.4.72.82,1.24,1.26.52.44,1.15.8,1.9,1.09.75.29,1.62.44,2.62.44,1.11,0,2.07-.19,2.89-.57.82-.38,1.46-.91,1.91-1.6.45-.68.68-1.47.68-2.36,0-.78-.15-1.43-.46-1.94s-.72-.92-1.23-1.23Z"/>
          <path class="cls-1" d="M111.36,180.12c-.51-.31-1.06-.55-1.64-.74-.58-.18-1.15-.34-1.69-.46-.58-.14-1.05-.28-1.41-.4-.35-.12-.61-.26-.76-.42-.15-.16-.23-.36-.23-.6,0-.35.17-.62.5-.82.34-.2.77-.3,1.3-.3.6,0,1.17.13,1.71.4.42.21.78.5,1.07.87.13.17.39.19.56.05l1.77-1.4c-.51-.8-1.2-1.41-2.07-1.84-.87-.43-1.85-.64-2.92-.64-1.79,0-3.16.5-4.13,1.51-.64.67-.95,1.57-.95,2.51,0,.7.14,1.28.42,1.74.28.47.65.86,1.11,1.16.45.3.95.54,1.5.72.55.18,1.07.35,1.58.49.49.13.94.26,1.34.4.4.14.72.31.96.52.24.21.35.48.35.8,0,.4-.19.73-.56,1s-.9.4-1.57.4c-.86,0-1.57-.21-2.14-.64-.44-.33-.8-.68-1.08-1.05-.14-.18-.41-.21-.58-.05l-1.98,1.72c.31.4.72.82,1.24,1.26s1.15.8,1.9,1.09c.75.29,1.62.44,2.62.44,1.11,0,2.07-.19,2.89-.57.82-.38,1.46-.91,1.91-1.6.45-.68.68-1.47.68-2.36,0-.78-.15-1.43-.46-1.94s-.72-.92-1.23-1.23Z"/>
        </g>
        <g>
          <path class="cls-1" d="M50.82,175.95c-.07-.11-.14-.23-.22-.34-.46-.6-1-1.05-1.62-1.35-.63-.3-1.31-.45-2.03-.45-1.04,0-1.99.28-2.87.83-.87.56-1.57,1.35-2.09,2.39-.52,1.04-.78,2.29-.78,3.77,0,1.33.23,2.52.7,3.59.46,1.06,1.12,1.9,1.98,2.51.85.61,1.87.91,3.06.91.67,0,1.32-.13,1.95-.4.63-.26,1.18-.71,1.66-1.34.09-.12.18-.26.26-.39l.25,1.85h3.11v-17.85h-2.95c-.22,0-.4.18-.4.4v5.86ZM49.6,184.21c-.48.33-1.06.49-1.73.49s-1.23-.16-1.72-.48c-.49-.32-.87-.77-1.13-1.35-.26-.58-.4-1.27-.4-2.07s.13-1.49.4-2.06c.26-.57.64-1.02,1.13-1.34.49-.32,1.06-.48,1.72-.48s1.25.16,1.73.48c.48.32.85.77,1.12,1.35.26.58.4,1.26.4,2.05s-.13,1.46-.4,2.05c-.26.58-.64,1.04-1.12,1.36Z"/>
          <path class="cls-1" d="M67.97,175.82c-.51-.63-1.16-1.12-1.94-1.47-.78-.35-1.7-.53-2.76-.53-1.13,0-2.1.2-2.91.61-.81.41-1.47.95-1.98,1.62-.51.67-.89,1.43-1.15,2.27-.25.84-.38,1.69-.38,2.57s.13,1.78.38,2.61c.25.83.65,1.56,1.19,2.21.54.65,1.22,1.16,2.06,1.54.84.38,1.84.57,3,.57.78,0,1.48-.07,2.09-.2s1.2-.36,1.76-.67c.56-.31,1.16-.71,1.8-1.2l-1.69-2.29c-.51.46-1.09.8-1.75,1.05-.66.25-1.33.37-2.02.37-.95,0-1.73-.25-2.36-.74-.52-.41-.86-.99-1.01-1.73-.05-.23.12-.45.36-.45h8.77c.04-.25.06-.5.07-.72,0-.23.01-.4.01-.53,0-.95-.13-1.84-.4-2.67-.26-.84-.65-1.57-1.16-2.2ZM60.22,179.44c.05-.45.19-.9.42-1.32.23-.43.57-.78,1.02-1.05.45-.27,1.02-.41,1.69-.41.46,0,.86.07,1.21.2.36.14.66.33.91.59s.46.55.6.89c.11.26.18.53.21.82.01.15-.12.28-.27.28h-5.8Z"/>
        </g>
      </g>
      <rect class="cls-1" y="214.99" width="238.08" height="2.1"/>
      <g>
        <path class="cls-1" d="M5.37,260.74v-15.65h2.24v15.65h-2.24Z"/>
        <path class="cls-1" d="M10.75,260.74v-11.27h2.01l.13,1.92c.36-.67.86-1.2,1.52-1.6.66-.39,1.41-.59,2.26-.59.89,0,1.66.18,2.3.54.64.36,1.14.9,1.5,1.62.36.72.54,1.63.54,2.72v6.66h-2.24v-6.44c0-1.04-.23-1.83-.69-2.37-.46-.54-1.13-.8-2.01-.8-.58,0-1.1.14-1.56.41s-.83.68-1.11,1.22-.41,1.19-.41,1.97v6.01h-2.24Z"/>
        <path class="cls-1" d="M28.23,261.01c-.95,0-1.79-.16-2.5-.47-.72-.31-1.28-.75-1.7-1.32-.42-.57-.67-1.23-.76-1.99h2.28c.07.36.22.68.44.98.22.3.51.54.89.71.38.18.83.27,1.35.27.49,0,.9-.07,1.22-.21.32-.14.55-.34.7-.58.15-.25.22-.51.22-.79,0-.42-.1-.73-.3-.95s-.5-.39-.89-.51c-.39-.13-.87-.24-1.42-.35-.52-.09-1.02-.21-1.51-.37-.48-.16-.92-.35-1.3-.59-.38-.24-.68-.54-.91-.91-.22-.36-.33-.82-.33-1.35,0-.64.17-1.22.51-1.73.34-.51.83-.92,1.46-1.21.63-.29,1.38-.44,2.25-.44,1.25,0,2.26.3,3.02.89s1.21,1.44,1.34,2.53h-2.17c-.06-.51-.28-.9-.67-1.17-.39-.28-.9-.41-1.54-.41s-1.13.13-1.47.38c-.34.25-.51.59-.51,1.01,0,.27.1.51.29.71.19.21.48.38.86.53.38.14.85.27,1.4.39.79.15,1.5.34,2.12.56.63.22,1.13.55,1.5.98s.56,1.05.56,1.86c.02.7-.16,1.32-.53,1.85-.37.54-.88.95-1.54,1.25s-1.45.45-2.36.45Z"/>
        <path class="cls-1" d="M39.47,260.74c-.7,0-1.31-.11-1.83-.34s-.92-.59-1.21-1.12c-.28-.52-.42-1.23-.42-2.12v-5.79h-1.94v-1.9h1.94l.27-2.82h1.97v2.82h3.2v1.9h-3.2v5.81c0,.64.13,1.08.4,1.31.27.23.73.35,1.39.35h1.3v1.9h-1.86Z"/>
        <path class="cls-1" d="M45.2,247.35c-.43,0-.79-.13-1.06-.4s-.41-.61-.41-1.03.14-.73.41-.99c.28-.26.63-.39,1.06-.39s.77.13,1.05.39c.28.26.42.59.42.99s-.14.76-.42,1.03-.63.4-1.05.4ZM44.06,260.74v-11.27h2.23v11.27h-2.23Z"/>
        <path class="cls-1" d="M54.12,260.74c-.7,0-1.31-.11-1.83-.34s-.92-.59-1.21-1.12c-.28-.52-.42-1.23-.42-2.12v-5.79h-1.94v-1.9h1.94l.27-2.82h1.97v2.82h3.2v1.9h-3.2v5.81c0,.64.13,1.08.4,1.31.27.23.73.35,1.39.35h1.3v1.9h-1.86Z"/>
        <path class="cls-1" d="M62.68,261.01c-.88,0-1.64-.18-2.29-.54-.65-.36-1.15-.89-1.5-1.61-.35-.72-.53-1.62-.53-2.71v-6.68h2.24v6.44c0,1.06.23,1.86.69,2.39.46.54,1.12.8,1.99.8.58,0,1.11-.14,1.58-.42.47-.28.84-.69,1.11-1.23.27-.54.4-1.19.4-1.97v-6.01h2.24v11.27h-1.99l-.16-1.92c-.34.69-.84,1.22-1.5,1.61-.66.39-1.42.58-2.28.58Z"/>
        <path class="cls-1" d="M76.29,260.74c-.7,0-1.31-.11-1.83-.34s-.92-.59-1.21-1.12c-.28-.52-.42-1.23-.42-2.12v-5.79h-1.94v-1.9h1.94l.27-2.82h1.97v2.82h3.2v1.9h-3.2v5.81c0,.64.13,1.08.4,1.31.27.23.73.35,1.39.35h1.3v1.9h-1.86Z"/>
        <path class="cls-1" d="M85.54,261.01c-1.06,0-2.01-.25-2.85-.74-.84-.49-1.51-1.18-1.99-2.07-.48-.89-.73-1.91-.73-3.07s.25-2.23.74-3.12,1.16-1.58,2.01-2.07c.85-.49,1.8-.74,2.86-.74s2.03.25,2.86.74c.83.49,1.49,1.18,1.98,2.06.48.88.73,1.92.73,3.11s-.24,2.23-.73,3.11c-.48.88-1.15,1.56-2,2.06-.85.49-1.81.74-2.88.74ZM85.54,259.08c.61,0,1.17-.15,1.67-.45.5-.3.9-.74,1.21-1.33.3-.59.46-1.32.46-2.2s-.15-1.61-.45-2.2c-.3-.59-.7-1.03-1.2-1.33-.5-.3-1.05-.45-1.64-.45s-1.15.15-1.65.45c-.51.3-.91.74-1.22,1.33-.31.59-.46,1.32-.46,2.2s.15,1.61.46,2.2c.3.59.71,1.03,1.21,1.33.5.3,1.04.45,1.62.45Z"/>
        <path class="cls-1" d="M104.52,261.01c-1.07,0-2.02-.26-2.84-.77-.82-.51-1.46-1.21-1.91-2.1-.45-.89-.68-1.9-.68-3.03s.23-2.16.68-3.04c.45-.88,1.1-1.58,1.92-2.09.83-.51,1.78-.77,2.85-.77.88,0,1.65.17,2.32.53s1.19.85,1.56,1.49v-6.57h2.23v16.09h-1.99l-.25-1.74c-.22.34-.51.67-.87.97-.36.31-.79.56-1.3.75-.51.19-1.09.29-1.74.29ZM104.88,259.06c.7,0,1.32-.16,1.85-.49.54-.33.95-.79,1.24-1.39s.44-1.29.44-2.08-.15-1.48-.44-2.07c-.29-.59-.7-1.05-1.24-1.39-.54-.34-1.15-.5-1.85-.5s-1.27.17-1.81.5c-.54.34-.95.8-1.25,1.39-.3.59-.45,1.28-.45,2.07s.15,1.48.45,2.08.72,1.06,1.25,1.39c.54.33,1.14.49,1.81.49Z"/>
        <path class="cls-1" d="M118.82,261.01c-1.07,0-2.03-.25-2.86-.74-.83-.49-1.49-1.18-1.96-2.06-.47-.88-.7-1.9-.7-3.06s.23-2.23.7-3.12c.47-.89,1.12-1.58,1.96-2.08.83-.5,1.8-.75,2.91-.75s2.05.25,2.84.74c.79.49,1.4,1.14,1.83,1.95.43.81.65,1.71.65,2.69,0,.15,0,.31-.01.48,0,.17-.02.36-.03.57h-9.21v-1.59h7.02c-.04-.94-.36-1.67-.94-2.2-.58-.53-1.3-.79-2.17-.79-.61,0-1.17.14-1.68.41-.51.28-.91.68-1.22,1.21-.31.53-.46,1.2-.46,2v.63c0,.83.15,1.54.46,2.11.3.57.71,1.01,1.22,1.3.51.29,1.06.44,1.65.44.72,0,1.3-.16,1.77-.47.46-.31.8-.74,1.03-1.27h2.23c-.19.68-.52,1.3-.98,1.84-.46.54-1.03.97-1.71,1.29-.68.31-1.46.47-2.34.47Z"/>
        <path class="cls-1" d="M132.5,260.74v-15.65h2.23v13.88h7.15v1.77h-9.39Z"/>
        <path class="cls-1" d="M145.69,247.35c-.43,0-.79-.13-1.06-.4s-.41-.61-.41-1.03.14-.73.41-.99c.28-.26.63-.39,1.06-.39s.77.13,1.05.39c.28.26.43.59.43.99s-.14.76-.43,1.03c-.28.27-.63.4-1.05.4ZM144.55,260.74v-11.27h2.23v11.27h-2.23Z"/>
        <path class="cls-1" d="M154.61,260.74c-.7,0-1.31-.11-1.83-.34s-.92-.59-1.21-1.12c-.28-.52-.42-1.23-.42-2.12v-5.79h-1.94v-1.9h1.94l.27-2.82h1.97v2.82h3.2v1.9h-3.2v5.81c0,.64.14,1.08.4,1.31.27.23.73.35,1.39.35h1.3v1.9h-1.85Z"/>
        <path class="cls-1" d="M163.82,261.01c-1.07,0-2.03-.25-2.86-.74-.83-.49-1.49-1.18-1.96-2.06-.47-.88-.7-1.9-.7-3.06s.23-2.23.7-3.12c.47-.89,1.12-1.58,1.96-2.08.83-.5,1.8-.75,2.9-.75s2.05.25,2.84.74c.79.49,1.4,1.14,1.83,1.95.43.81.65,1.71.65,2.69,0,.15,0,.31-.01.48,0,.17-.02.36-.03.57h-9.21v-1.59h7.02c-.04-.94-.36-1.67-.94-2.2-.58-.53-1.3-.79-2.17-.79-.61,0-1.17.14-1.68.41s-.91.68-1.22,1.21c-.31.53-.46,1.2-.46,2v.63c0,.83.15,1.54.46,2.11.31.57.71,1.01,1.22,1.3s1.06.44,1.65.44c.71,0,1.3-.16,1.77-.47.46-.31.8-.74,1.03-1.27h2.23c-.19.68-.52,1.3-.98,1.84-.46.54-1.03.97-1.71,1.29-.68.31-1.46.47-2.34.47Z"/>
        <path class="cls-1" d="M171.66,260.74v-11.27h2.01l.2,2.12c.25-.51.58-.93.98-1.29s.88-.62,1.42-.82c.54-.19,1.17-.29,1.87-.29v2.37h-.8c-.46,0-.9.06-1.32.17-.42.11-.79.3-1.11.57-.32.27-.57.63-.75,1.1-.18.46-.27,1.04-.27,1.72v5.61h-2.24Z"/>
        <path class="cls-1" d="M183.93,261.01c-.92,0-1.69-.16-2.3-.47-.61-.31-1.07-.73-1.36-1.26-.3-.53-.45-1.1-.45-1.71,0-.74.19-1.38.58-1.91.39-.53.94-.94,1.65-1.22.71-.28,1.57-.43,2.57-.43h2.93c0-.65-.1-1.2-.29-1.63-.19-.43-.48-.76-.86-.97-.38-.22-.86-.32-1.44-.32-.67,0-1.24.16-1.72.48-.48.32-.77.79-.89,1.42h-2.23c.09-.79.36-1.46.82-2.02.45-.56,1.04-.99,1.75-1.3.71-.31,1.47-.46,2.28-.46,1.06,0,1.94.19,2.66.56.71.37,1.26.9,1.62,1.58.37.68.55,1.49.55,2.42v6.97h-1.95l-.18-1.9c-.16.3-.36.58-.58.85-.22.27-.49.5-.79.69-.31.19-.66.35-1.05.46-.4.11-.83.17-1.31.17ZM184.36,259.2c.48,0,.91-.1,1.3-.29s.72-.46.99-.79.48-.71.63-1.14c.14-.42.22-.86.23-1.31v-.07h-2.66c-.64,0-1.16.08-1.55.23-.39.16-.68.37-.86.64-.18.27-.27.58-.27.94s.09.69.26.95c.17.26.42.47.75.62s.72.22,1.19.22Z"/>
        <path class="cls-1" d="M197.03,260.74c-.7,0-1.31-.11-1.83-.34s-.92-.59-1.21-1.12c-.28-.52-.42-1.23-.42-2.12v-5.79h-1.94v-1.9h1.94l.27-2.82h1.97v2.82h3.2v1.9h-3.2v5.81c0,.64.14,1.08.4,1.31.27.23.73.35,1.39.35h1.3v1.9h-1.85Z"/>
        <path class="cls-1" d="M205.59,261.01c-.88,0-1.64-.18-2.29-.54-.65-.36-1.15-.89-1.5-1.61-.35-.72-.53-1.62-.53-2.71v-6.68h2.23v6.44c0,1.06.23,1.86.69,2.39.46.54,1.13.8,1.99.8.58,0,1.11-.14,1.58-.42.47-.28.84-.69,1.11-1.23.27-.54.4-1.19.4-1.97v-6.01h2.23v11.27h-1.99l-.16-1.92c-.34.69-.84,1.22-1.5,1.61-.65.39-1.42.58-2.28.58Z"/>
        <path class="cls-1" d="M214.58,260.74v-11.27h2.01l.2,2.12c.25-.51.58-.93.98-1.29s.88-.62,1.42-.82c.54-.19,1.17-.29,1.87-.29v2.37h-.8c-.46,0-.9.06-1.32.17-.42.11-.79.3-1.11.57-.32.27-.57.63-.75,1.1-.18.46-.27,1.04-.27,1.72v5.61h-2.24Z"/>
        <path class="cls-1" d="M226.85,261.01c-.92,0-1.69-.16-2.3-.47-.61-.31-1.07-.73-1.36-1.26-.3-.53-.45-1.1-.45-1.71,0-.74.19-1.38.58-1.91.39-.53.94-.94,1.65-1.22.71-.28,1.57-.43,2.57-.43h2.93c0-.65-.1-1.2-.29-1.63-.19-.43-.48-.76-.86-.97-.38-.22-.86-.32-1.44-.32-.67,0-1.24.16-1.72.48-.48.32-.77.79-.89,1.42h-2.23c.09-.79.36-1.46.82-2.02.45-.56,1.04-.99,1.75-1.3.71-.31,1.47-.46,2.28-.46,1.06,0,1.94.19,2.66.56.71.37,1.26.9,1.62,1.58.37.68.55,1.49.55,2.42v6.97h-1.95l-.18-1.9c-.16.3-.36.58-.58.85-.22.27-.49.5-.79.69-.31.19-.66.35-1.05.46-.4.11-.83.17-1.31.17ZM227.28,259.2c.48,0,.91-.1,1.3-.29s.72-.46.99-.79.48-.71.63-1.14c.14-.42.22-.86.23-1.31v-.07h-2.66c-.64,0-1.16.08-1.55.23-.39.16-.68.37-.86.64-.18.27-.27.58-.27.94s.09.69.26.95c.17.26.42.47.75.62s.72.22,1.19.22Z"/>
      </g>
    </g>
  </g>
</svg>