<?xml version="1.0" encoding="UTF-8"?>
<svg id="Capa_2" data-name="Capa 2" xmlns="http://www.w3.org/2000/svg" viewBox="0 0 170.42 186.83">
  <defs>
    <style>
      .cls-1 {
        fill: #1d1e1c;
      }

      .cls-2 {
        fill: #243746;
      }
    </style>
  </defs>
  <g id="Capa_2-2" data-name="Capa 2">
    <g id="clinica_juridica">
      <rect class="cls-2" y="153.9" width="170.42" height="1.5"/>
      <g>
        <path class="cls-2" d="M33.77,186.83c-1.1,0-2.05-.24-2.84-.73-.79-.49-1.41-1.16-1.84-2.03-.43-.87-.65-1.88-.65-3.03s.22-2.15.65-3.02c.43-.87,1.04-1.55,1.84-2.04.79-.49,1.74-.73,2.84-.73,1.31,0,2.38.31,3.19.94.82.63,1.34,1.52,1.56,2.66h-1.76c-.16-.66-.49-1.19-.98-1.58s-1.17-.59-2.01-.59c-.76,0-1.41.18-1.97.53-.55.35-.98.85-1.28,1.5-.3.65-.45,1.43-.45,2.34s.15,1.69.45,2.34c.3.66.73,1.16,1.28,1.5.55.35,1.21.52,1.97.52.84,0,1.51-.19,2.01-.57.5-.38.82-.89.98-1.54h1.76c-.22,1.11-.74,1.98-1.56,2.6-.82.62-1.88.94-3.19.94Z"/>
        <path class="cls-2" d="M40.36,186.64v-11.52h1.6v11.52h-1.6Z"/>
        <path class="cls-2" d="M43.35,177.89l-.16-1.1,3.31-2.03.21,1.31-3.36,1.82ZM44.15,186.64v-8.06h1.6v8.06h-1.6Z"/>
        <path class="cls-2" d="M47.94,186.64v-8.06h1.44l.1,1.38c.26-.48.62-.86,1.09-1.14.47-.28,1.01-.42,1.62-.42.64,0,1.19.13,1.65.38.46.26.82.64,1.07,1.16s.38,1.17.38,1.94v4.77h-1.6v-4.61c0-.75-.17-1.31-.5-1.7-.33-.38-.81-.58-1.44-.58-.42,0-.79.1-1.12.3-.33.2-.59.49-.79.87-.2.38-.3.85-.3,1.41v4.3h-1.6Z"/>
        <path class="cls-2" d="M58.26,177.06c-.31,0-.56-.1-.76-.29s-.3-.44-.3-.74.1-.53.3-.71.45-.28.76-.28.55.09.75.28c.2.19.3.42.3.71s-.1.54-.3.74c-.2.19-.45.29-.75.29ZM57.45,186.64v-8.06h1.6v8.06h-1.6Z"/>
        <path class="cls-2" d="M65.06,186.83c-.78,0-1.47-.18-2.08-.54-.61-.36-1.09-.85-1.43-1.48-.35-.63-.52-1.36-.52-2.19s.17-1.58.52-2.22.82-1.13,1.43-1.49c.61-.36,1.3-.54,2.08-.54.98,0,1.8.26,2.46.77.66.51,1.08,1.21,1.26,2.08h-1.66c-.11-.47-.35-.83-.73-1.09-.38-.26-.83-.38-1.35-.38-.43,0-.82.11-1.18.33-.36.22-.65.54-.87.96s-.33.94-.33,1.56c0,.46.06.87.19,1.22.13.36.3.66.52.9.22.25.47.43.76.55s.59.18.91.18c.35,0,.67-.06.95-.17.28-.11.52-.28.72-.5.2-.22.33-.49.41-.8h1.66c-.18.85-.6,1.54-1.26,2.06-.66.52-1.48.78-2.46.78Z"/>
        <path class="cls-2" d="M73.34,186.83c-.66,0-1.21-.11-1.65-.34-.44-.22-.76-.53-.98-.9-.21-.38-.32-.79-.32-1.22,0-.53.14-.99.42-1.37.28-.38.67-.67,1.18-.87.51-.2,1.12-.3,1.84-.3h2.1c0-.47-.07-.86-.21-1.17s-.34-.54-.62-.7c-.27-.15-.62-.23-1.03-.23-.48,0-.89.11-1.23.34-.34.23-.55.57-.64,1.02h-1.6c.06-.57.26-1.05.58-1.45.33-.4.74-.71,1.26-.93.51-.22,1.06-.33,1.63-.33.76,0,1.39.13,1.9.4.51.27.9.64,1.16,1.13.26.49.39,1.06.39,1.74v4.99h-1.39l-.13-1.36c-.12.21-.26.42-.42.61-.16.19-.35.36-.57.5-.22.14-.47.25-.75.33-.28.08-.59.12-.94.12ZM73.64,185.54c.34,0,.65-.07.93-.21s.51-.33.71-.57c.2-.24.35-.51.45-.82.1-.3.16-.62.17-.94v-.05h-1.9c-.46,0-.83.06-1.11.17-.28.11-.49.26-.62.46-.13.19-.19.42-.19.67s.06.49.18.68c.12.19.3.33.54.44.23.11.52.16.85.16Z"/>
        <path class="cls-2" d="M86.41,186.83c-.69,0-1.29-.13-1.79-.39-.5-.26-.89-.64-1.17-1.14-.28-.5-.42-1.1-.42-1.79h1.62c0,.36.06.69.18.98.12.29.3.52.55.68.25.17.58.25,1,.25s.74-.08.98-.24c.24-.16.41-.38.52-.65s.16-.58.16-.94v-8.14h1.6v8.14c0,1.03-.29,1.83-.86,2.4-.58.57-1.37.85-2.37.85Z"/>
        <path class="cls-2" d="M94.86,186.83c-.63,0-1.18-.13-1.64-.38-.46-.26-.82-.64-1.07-1.15-.25-.51-.38-1.16-.38-1.94v-4.78h1.6v4.61c0,.76.17,1.33.5,1.71.33.38.81.58,1.42.58.42,0,.79-.1,1.13-.3.34-.2.6-.5.79-.88.19-.38.29-.85.29-1.41v-4.3h1.6v8.06h-1.42l-.11-1.38c-.25.49-.6.87-1.07,1.15-.47.28-1.01.42-1.63.42Z"/>
        <path class="cls-2" d="M101.29,186.64v-8.06h1.44l.14,1.52c.18-.36.42-.67.7-.92s.63-.45,1.02-.58c.39-.14.83-.21,1.34-.21v1.7h-.58c-.33,0-.65.04-.94.12s-.56.22-.79.41c-.23.19-.41.45-.54.78s-.19.74-.19,1.23v4.02h-1.6Z"/>
        <path class="cls-2" d="M106.6,177.89l-.16-1.1,3.31-2.03.21,1.31-3.36,1.82ZM107.4,186.64v-8.06h1.6v8.06h-1.6Z"/>
        <path class="cls-2" d="M114.78,186.83c-.77,0-1.45-.18-2.03-.55-.59-.37-1.04-.87-1.37-1.5-.33-.63-.49-1.36-.49-2.17s.16-1.55.49-2.18c.33-.63.78-1.13,1.38-1.5.59-.37,1.27-.55,2.04-.55.63,0,1.18.13,1.66.38.48.25.85.61,1.12,1.06v-4.7h1.6v11.52h-1.42l-.18-1.25c-.16.25-.37.48-.62.7s-.57.4-.93.54c-.36.14-.78.21-1.25.21ZM115.03,185.44c.5,0,.94-.12,1.33-.35.38-.23.68-.57.89-.99s.31-.92.31-1.49-.1-1.06-.31-1.48c-.21-.42-.5-.75-.89-.99-.38-.24-.83-.36-1.33-.36s-.91.12-1.3.36c-.38.24-.68.57-.9.99-.21.42-.32.92-.32,1.48s.11,1.06.32,1.49c.21.43.51.76.9.99.38.23.82.35,1.3.35Z"/>
        <path class="cls-2" d="M122.29,177.06c-.31,0-.56-.1-.76-.29s-.3-.44-.3-.74.1-.53.3-.71.45-.28.76-.28.55.09.75.28c.2.19.3.42.3.71s-.1.54-.3.74c-.2.19-.45.29-.75.29ZM121.48,186.64v-8.06h1.6v8.06h-1.6Z"/>
        <path class="cls-2" d="M129.1,186.83c-.78,0-1.47-.18-2.08-.54-.61-.36-1.09-.85-1.43-1.48-.35-.63-.52-1.36-.52-2.19s.17-1.58.52-2.22.82-1.13,1.43-1.49c.61-.36,1.3-.54,2.08-.54.98,0,1.8.26,2.46.77.66.51,1.08,1.21,1.26,2.08h-1.66c-.11-.47-.35-.83-.73-1.09-.38-.26-.83-.38-1.35-.38-.43,0-.82.11-1.18.33-.36.22-.65.54-.87.96s-.33.94-.33,1.56c0,.46.06.87.19,1.22.13.36.3.66.52.9.22.25.47.43.76.55s.59.18.91.18c.35,0,.67-.06.95-.17.28-.11.52-.28.72-.5.2-.22.33-.49.41-.8h1.66c-.18.85-.6,1.54-1.26,2.06-.66.52-1.48.78-2.46.78Z"/>
        <path class="cls-2" d="M137.37,186.83c-.66,0-1.21-.11-1.65-.34-.44-.22-.76-.53-.98-.9-.21-.38-.32-.79-.32-1.22,0-.53.14-.99.42-1.37.28-.38.67-.67,1.18-.87.51-.2,1.12-.3,1.84-.3h2.1c0-.47-.07-.86-.21-1.17s-.34-.54-.62-.7c-.27-.15-.62-.23-1.03-.23-.48,0-.89.11-1.23.34-.34.23-.55.57-.64,1.02h-1.6c.06-.57.26-1.05.58-1.45.33-.4.74-.71,1.26-.93.51-.22,1.06-.33,1.63-.33.76,0,1.39.13,1.9.4.51.27.9.64,1.16,1.13.26.49.39,1.06.39,1.74v4.99h-1.39l-.13-1.36c-.12.21-.26.42-.42.61-.16.19-.35.36-.57.5-.22.14-.47.25-.75.33-.28.08-.59.12-.94.12ZM137.67,185.54c.34,0,.65-.07.93-.21s.51-.33.71-.57c.2-.24.35-.51.45-.82.1-.3.16-.62.17-.94v-.05h-1.9c-.46,0-.83.06-1.11.17-.28.11-.49.26-.62.46-.13.19-.19.42-.19.67s.06.49.18.68c.12.19.3.33.54.44.23.11.52.16.85.16Z"/>
      </g>
      <g>
        <g>
          <g>
            <path class="cls-1" d="M44.59,111.05v-8.6h-2.11c-.23,0-.41.18-.41.41v8.01c0,.69-.08,1.27-.23,1.75-.16.48-.43.83-.83,1.07-.4.24-.95.36-1.65.36s-1.25-.12-1.65-.36c-.4-.24-.67-.6-.82-1.07-.15-.48-.22-1.06-.22-1.77v-8.4h-2.11c-.23,0-.41.18-.41.41v8.29c0,1.75.44,3.05,1.32,3.93.88.87,2.18,1.31,3.9,1.31s3.02-.45,3.91-1.34c.89-.89,1.33-2.22,1.33-4Z"/>
            <path class="cls-1" d="M60.4,116.08v-9.63h-2.15c-.15,0-.27.12-.27.27v9.36h2.42Z"/>
            <path class="cls-1" d="M66.81,112.91l-2.18-6.23c-.05-.14-.18-.24-.34-.24h-2.41l3.95,9.63h1.72c.17,0,.31-.1.38-.25l3.81-9.38h-2.62l-2.31,6.47Z"/>
            <path class="cls-1" d="M87.93,108.67c.22,0,.44.03.66.1.22.07.4.14.55.21l1.17-2.19c-.31-.2-.62-.34-.91-.42-.29-.08-.6-.13-.93-.13-.46,0-.9.12-1.34.36s-.8.58-1.1,1.01c-.05.07-.09.15-.14.23v-1.4h-2.44v9.63h2.17c.15,0,.27-.12.27-.27v-3.87c0-.53.02-.94.05-1.22.03-.28.07-.51.13-.69.12-.33.27-.59.46-.78.19-.2.4-.34.64-.43.24-.09.49-.14.75-.14Z"/>
            <path class="cls-1" d="M122.9,116.08h2.23v-6.08c0-1.17-.37-2.09-1.11-2.76-.74-.66-1.78-1-3.11-1-.82,0-1.59.12-2.3.36-.71.24-1.4.64-2.08,1.18l1.23,1.66c.4-.36.87-.65,1.4-.85.53-.2,1.05-.3,1.55-.3.61,0,1.1.14,1.46.42.36.28.54.71.54,1.28v.23h-2.77c-.46,0-.88.04-1.28.12-.4.08-.76.22-1.08.41-.38.21-.68.51-.91.91-.23.4-.34.88-.34,1.44,0,.63.16,1.18.48,1.66s.76.85,1.31,1.11c.55.26,1.18.39,1.89.39.49,0,.96-.1,1.41-.29s.84-.5,1.18-.93c.05-.07.1-.14.15-.22l.17,1.24ZM122.39,113.25c-.21.33-.5.59-.86.78s-.75.28-1.18.28c-.48,0-.87-.11-1.15-.33-.29-.22-.43-.51-.43-.88,0-.17.03-.32.1-.46s.16-.25.29-.34c.14-.12.32-.19.52-.22.2-.03.41-.05.62-.05h2.42v.08c0,.43-.11.81-.32,1.14Z"/>
            <circle class="cls-1" cx="59.19" cy="103.71" r="1.31"/>
            <circle class="cls-1" cx="101.93" cy="103.71" r="1.31"/>
            <path class="cls-1" d="M111.94,107.77c-.05-.08-.1-.17-.16-.24-.33-.43-.71-.75-1.16-.97-.45-.21-.93-.32-1.46-.32-.74,0-1.43.2-2.05.6-.63.4-1.12.97-1.5,1.71-.37.74-.56,1.64-.56,2.7,0,.95.17,1.81.5,2.57.33.76.8,1.36,1.42,1.8s1.34.65,2.19.65c.48,0,.95-.09,1.4-.28.45-.19.85-.51,1.19-.96.07-.09.13-.18.19-.28l.18,1.33h2.23v-12.79h-2.11c-.16,0-.29.13-.29.29v4.2ZM111.07,113.69c-.35.23-.76.35-1.24.35s-.88-.11-1.23-.34c-.35-.23-.62-.55-.81-.97-.19-.42-.28-.91-.28-1.49s.09-1.06.28-1.48c.19-.41.46-.73.81-.96.35-.23.76-.34,1.23-.34s.9.11,1.24.34c.35.23.61.55.8.97s.28.91.28,1.47-.09,1.05-.28,1.47c-.19.42-.46.74-.8.98Z"/>
            <path class="cls-1" d="M133.82,107.77c-.05-.08-.1-.17-.16-.24-.33-.43-.71-.75-1.16-.97-.45-.21-.93-.32-1.46-.32-.74,0-1.43.2-2.05.6-.63.4-1.12.97-1.5,1.71-.37.74-.56,1.64-.56,2.7,0,.95.17,1.81.5,2.57.33.76.8,1.36,1.42,1.8s1.34.65,2.19.65c.48,0,.95-.09,1.4-.28.45-.19.85-.51,1.19-.96.07-.09.13-.18.19-.28l.18,1.33h2.23v-12.79h-2.11c-.16,0-.29.13-.29.29v4.2ZM132.96,113.69c-.35.23-.76.35-1.24.35s-.88-.11-1.23-.34c-.35-.23-.62-.55-.81-.97-.19-.42-.28-.91-.28-1.49s.09-1.06.28-1.48c.19-.41.46-.73.81-.96.35-.23.76-.34,1.23-.34s.9.11,1.24.34c.35.23.61.55.8.97s.28.91.28,1.47-.09,1.05-.28,1.47c-.19.42-.46.74-.8.98Z"/>
            <path class="cls-1" d="M52.23,106.24c-.46,0-.9.08-1.33.24-.43.16-.81.42-1.13.77-.13.14-.25.31-.35.49v-1.31h-2.44v9.64h2.17c.15,0,.27-.12.27-.27v-4.34c0-.73.08-1.32.23-1.78.16-.46.39-.79.69-1.01.31-.21.69-.32,1.16-.32.61,0,1.06.19,1.35.56.29.37.43.96.43,1.77v5.39h2.17c.15,0,.27-.12.27-.27v-6.02c0-1.12-.31-1.99-.93-2.61s-1.48-.93-2.57-.93Z"/>
            <path class="cls-1" d="M80.39,107.68c-.37-.45-.83-.8-1.39-1.06-.56-.25-1.22-.38-1.97-.38-.81,0-1.5.15-2.08.44s-1.05.68-1.42,1.16c-.37.48-.64,1.02-.82,1.62-.18.6-.27,1.21-.27,1.84s.09,1.27.27,1.87c.18.59.47,1.12.85,1.58.38.46.88.83,1.48,1.1.6.27,1.32.41,2.15.41.56,0,1.06-.05,1.5-.15s.86-.26,1.26-.48c.4-.22.83-.51,1.29-.86l-1.21-1.64c-.37.33-.78.58-1.25.75-.47.18-.95.26-1.45.26-.68,0-1.24-.18-1.69-.53-.38-.29-.62-.71-.72-1.24-.03-.17.09-.33.26-.33h6.28c.03-.18.04-.35.05-.52,0-.16,0-.29,0-.38,0-.68-.09-1.32-.28-1.92-.19-.6-.47-1.12-.83-1.57ZM74.84,110.27c.04-.33.14-.64.3-.95.16-.31.41-.56.73-.75.33-.2.73-.29,1.21-.29.33,0,.62.05.87.15.25.1.47.24.65.42s.33.39.43.64c.08.19.13.38.15.59,0,.11-.08.2-.19.2h-4.16Z"/>
            <path class="cls-1" d="M97.56,110.76c-.36-.22-.76-.4-1.17-.53-.42-.13-.82-.24-1.21-.33-.42-.1-.75-.2-1.01-.28-.25-.08-.44-.19-.55-.3-.11-.12-.17-.26-.17-.43,0-.25.12-.44.36-.59.24-.14.55-.22.93-.22.43,0,.84.09,1.22.28.3.15.56.36.77.62.1.12.28.13.4.04l1.27-1c-.37-.57-.86-1.01-1.49-1.32-.63-.31-1.32-.46-2.09-.46-1.28,0-2.26.36-2.96,1.08-.46.48-.68,1.13-.68,1.79,0,.5.1.91.3,1.25.2.34.47.62.79.83.33.22.68.39,1.07.52s.77.25,1.13.35c.35.09.67.19.96.28.29.1.51.22.68.37.17.15.25.34.25.58,0,.29-.13.52-.4.71s-.64.28-1.12.28c-.61,0-1.12-.15-1.53-.46-.31-.23-.57-.49-.78-.75-.1-.13-.29-.15-.42-.04l-1.42,1.23c.22.29.52.59.89.9s.82.57,1.36.78c.53.21,1.16.31,1.88.31.79,0,1.49-.14,2.07-.41s1.04-.65,1.37-1.14c.33-.49.49-1.05.49-1.69,0-.56-.11-1.02-.33-1.39s-.51-.66-.88-.88Z"/>
            <path class="cls-1" d="M103.14,116.08v-9.63h-2.15c-.15,0-.27.12-.27.27v9.36h2.42Z"/>
          </g>
          <g>
            <path class="cls-1" d="M69.37,126.45c-.72-.43-1.55-.64-2.49-.64s-1.75.21-2.49.64c-.74.43-1.31,1.02-1.73,1.77-.42.75-.63,1.61-.63,2.59s.21,1.83.63,2.59c.42.76,1,1.36,1.73,1.79s1.56.64,2.48.64,1.77-.22,2.5-.65c.73-.44,1.3-1.03,1.72-1.79.42-.76.63-1.61.63-2.58s-.21-1.84-.63-2.59c-.42-.75-1-1.34-1.72-1.77ZM69,132.34c-.19.43-.46.76-.82,1-.36.23-.78.35-1.28.35s-.94-.12-1.31-.35c-.36-.23-.64-.57-.84-1-.2-.43-.29-.94-.29-1.54s.1-1.13.29-1.55c.2-.42.47-.75.84-.98s.8-.34,1.31-.34.92.11,1.28.34.63.55.82.98c.19.42.28.94.28,1.55s-.09,1.11-.28,1.54Z"/>
            <path class="cls-1" d="M92.14,122.01l-5.47,13.61h2.75l.89-2.39c.06-.16.21-.27.39-.27h5.07l.88,2.4c.06.16.21.26.37.26h2.48l-5.47-13.61h-1.89ZM91.26,130.7l1.85-4.96,1.82,4.96h-3.68Z"/>
            <path class="cls-1" d="M58.53,122.84h1.93v12.78h-2.4v-12.31c0-.26.21-.47.47-.47Z"/>
            <path class="cls-1" d="M118.31,127.33c-.05-.08-.1-.17-.16-.24-.33-.43-.71-.75-1.16-.97-.45-.21-.93-.32-1.46-.32-.74,0-1.43.2-2.05.6-.63.4-1.12.97-1.49,1.71-.37.74-.56,1.64-.56,2.7,0,.95.17,1.81.5,2.57.33.76.8,1.36,1.42,1.8s1.34.65,2.19.65c.48,0,.95-.09,1.4-.28.45-.19.85-.51,1.19-.96.07-.09.13-.18.19-.28l.18,1.33h2.23v-12.78h-2.11c-.16,0-.29.13-.29.29v4.2ZM117.44,133.24c-.35.23-.76.35-1.24.35s-.88-.11-1.23-.34c-.35-.23-.62-.55-.81-.97-.19-.42-.28-.91-.28-1.48s.09-1.06.28-1.47c.19-.41.46-.73.81-.96.35-.23.76-.34,1.23-.34s.9.11,1.24.34c.34.23.61.55.8.97s.28.91.28,1.46-.09,1.05-.28,1.46c-.19.42-.46.74-.8.98Z"/>
            <path class="cls-1" d="M106.12,125.8c-.46,0-.9.08-1.33.24-.43.16-.81.42-1.13.77-.13.14-.25.31-.35.49v-1.31h-2.44v9.63h2.17c.15,0,.27-.12.27-.27v-4.34c0-.73.08-1.32.23-1.78.16-.46.39-.79.69-1.01.31-.21.69-.32,1.16-.32.61,0,1.06.19,1.35.56.29.37.43.96.43,1.77v5.39h2.17c.15,0,.27-.12.27-.27v-6.02c0-1.12-.31-1.99-.93-2.61s-1.47-.93-2.57-.93Z"/>
            <path class="cls-1" d="M130.59,127.23c-.36-.45-.83-.8-1.39-1.06-.56-.25-1.22-.38-1.97-.38-.81,0-1.5.15-2.08.44s-1.05.68-1.42,1.16c-.36.48-.64,1.02-.82,1.62-.18.6-.27,1.21-.27,1.84s.09,1.27.27,1.87c.18.59.47,1.12.85,1.58.38.46.88.83,1.47,1.1.6.27,1.32.41,2.15.41.56,0,1.06-.05,1.49-.15s.86-.26,1.26-.48c.4-.22.83-.51,1.29-.86l-1.21-1.64c-.36.33-.78.58-1.25.75-.47.18-.95.26-1.45.26-.68,0-1.24-.18-1.69-.53-.38-.29-.62-.71-.72-1.24-.03-.17.09-.33.26-.33h6.28c.03-.18.04-.35.05-.52,0-.16,0-.29,0-.38,0-.68-.09-1.32-.28-1.91-.19-.6-.47-1.12-.83-1.57ZM125.04,129.82c.04-.33.14-.64.3-.95.16-.31.41-.56.73-.75.33-.2.73-.29,1.21-.29.33,0,.62.05.87.15.25.1.47.24.65.42s.33.39.43.63c.08.19.13.38.15.59,0,.11-.08.2-.19.2h-4.15Z"/>
            <path class="cls-1" d="M139.71,130.31c-.36-.22-.76-.4-1.17-.53-.42-.13-.82-.24-1.21-.33-.42-.1-.75-.2-1.01-.28-.25-.08-.44-.19-.55-.3-.11-.12-.17-.26-.17-.43,0-.25.12-.44.36-.59.24-.14.55-.22.93-.22.43,0,.84.09,1.22.28.3.15.56.36.77.62.1.12.28.13.4.04l1.26-1c-.36-.57-.86-1.01-1.49-1.32-.63-.31-1.32-.46-2.09-.46-1.28,0-2.26.36-2.95,1.08-.46.48-.68,1.13-.68,1.79,0,.5.1.91.3,1.25.2.34.47.62.79.83.33.22.68.39,1.07.52s.77.25,1.13.35c.35.09.67.19.96.28.29.1.51.22.68.37.17.15.25.34.25.58,0,.29-.13.52-.4.71s-.64.28-1.12.28c-.61,0-1.12-.15-1.53-.46-.31-.23-.57-.49-.78-.75-.1-.13-.29-.15-.42-.04l-1.41,1.23c.22.29.52.59.89.9s.82.57,1.36.78c.53.21,1.16.31,1.88.31.79,0,1.48-.14,2.07-.41.59-.27,1.04-.65,1.37-1.14.33-.49.49-1.05.49-1.69,0-.56-.11-1.02-.33-1.39s-.51-.66-.88-.88Z"/>
            <path class="cls-1" d="M79.71,130.31c-.36-.22-.76-.4-1.17-.53-.42-.13-.82-.24-1.21-.33-.42-.1-.75-.2-1.01-.28-.25-.08-.44-.19-.55-.3-.11-.12-.17-.26-.17-.43,0-.25.12-.44.36-.59.24-.14.55-.22.93-.22.43,0,.84.09,1.22.28.3.15.56.36.77.62.1.12.28.13.4.04l1.26-1c-.36-.57-.86-1.01-1.49-1.32-.63-.31-1.32-.46-2.09-.46-1.28,0-2.26.36-2.95,1.08-.46.48-.68,1.13-.68,1.79,0,.5.1.91.3,1.25.2.34.47.62.79.83.33.22.68.39,1.07.52s.77.25,1.13.35c.35.09.67.19.96.28.29.1.51.22.68.37.17.15.25.34.25.58,0,.29-.13.52-.4.71s-.64.28-1.12.28c-.61,0-1.12-.15-1.53-.46-.31-.23-.57-.49-.78-.75-.1-.13-.29-.15-.42-.04l-1.41,1.23c.22.29.52.59.89.9s.82.57,1.36.78c.53.21,1.16.31,1.88.31.79,0,1.48-.14,2.07-.41s1.04-.65,1.37-1.14c.33-.49.49-1.05.49-1.69,0-.56-.11-1.02-.33-1.39s-.51-.66-.88-.88Z"/>
          </g>
          <g>
            <path class="cls-1" d="M36.37,127.33c-.05-.08-.1-.17-.16-.24-.33-.43-.71-.75-1.16-.97-.45-.21-.93-.32-1.46-.32-.74,0-1.43.2-2.05.6-.63.4-1.12.97-1.49,1.71-.37.74-.56,1.64-.56,2.7,0,.95.17,1.81.5,2.57.33.76.8,1.36,1.42,1.8s1.34.65,2.19.65c.48,0,.95-.09,1.4-.28.45-.19.85-.51,1.19-.96.07-.09.13-.18.19-.28l.18,1.33h2.23v-12.78h-2.11c-.16,0-.29.13-.29.29v4.2ZM35.51,133.24c-.35.23-.76.35-1.24.35s-.88-.11-1.23-.34c-.35-.23-.62-.55-.81-.97-.19-.42-.28-.91-.28-1.48s.09-1.06.28-1.47c.19-.41.46-.73.81-.96.35-.23.76-.34,1.23-.34s.9.11,1.24.34c.34.23.61.55.8.97s.28.91.28,1.46-.09,1.05-.28,1.46c-.19.42-.46.74-.8.98Z"/>
            <path class="cls-1" d="M48.66,127.23c-.36-.45-.83-.8-1.39-1.06-.56-.25-1.22-.38-1.97-.38-.81,0-1.5.15-2.08.44s-1.05.68-1.42,1.16c-.36.48-.64,1.02-.82,1.62-.18.6-.27,1.21-.27,1.84s.09,1.27.27,1.87c.18.59.47,1.12.85,1.58.38.46.88.83,1.47,1.1.6.27,1.32.41,2.15.41.56,0,1.06-.05,1.49-.15s.86-.26,1.26-.48c.4-.22.83-.51,1.29-.86l-1.21-1.64c-.36.33-.78.58-1.25.75-.47.18-.95.26-1.45.26-.68,0-1.24-.18-1.69-.53-.38-.29-.62-.71-.72-1.24-.03-.17.09-.33.26-.33h6.28c.03-.18.04-.35.05-.52,0-.16,0-.29,0-.38,0-.68-.09-1.32-.28-1.91-.19-.6-.47-1.12-.83-1.57ZM43.11,129.82c.04-.33.14-.64.3-.95.16-.31.41-.56.73-.75.33-.2.73-.29,1.21-.29.33,0,.62.05.87.15.25.1.47.24.65.42s.33.39.43.63c.08.19.13.38.15.59,0,.11-.08.2-.19.2h-4.15Z"/>
          </g>
        </g>
        <g>
          <path class="cls-1" d="M85.22,0c-19.47,0-35.26,21.36-35.26,47.71s15.78,47.71,35.26,47.71,35.26-21.36,35.26-47.71S104.69,0,85.22,0ZM85.22,94.27c-18.84,0-34.16-20.88-34.16-46.55S66.38,1.16,85.22,1.16s34.16,20.88,34.16,46.55-15.32,46.55-34.16,46.55Z"/>
          <path class="cls-1" d="M89.58,63.09v-8.1h.95v7.36h.39c.25,0,.47-.05.66-.15.62-.32,1.35-.48,2.11-.48s1.51.17,2.13.49c.18.09.35.14.53.14h.12c.17,0,.35-.05.53-.14.62-.32,1.36-.49,2.13-.49s1.5.17,2.11.48c.19.1.41.15.66.15h.39v-8.25l-.2-.13c-.81-.54-1.86-.83-2.97-.83-.5,0-.99.06-1.45.18h-.04s0,.05,0,.05c.05.27.12.54.2.81v.04s.05-.01.05-.01c.39-.1.81-.15,1.23-.15.83,0,1.63.2,2.26.56v6.67c-1.36-.59-3.16-.59-4.52,0v-7.16l-.2-.13c-.81-.54-1.86-.83-2.97-.83s-2.16.3-2.97.83l-.17.12h-1.89v9.94s13.64,0,13.64,0v-.93h-12.73ZM91.44,54.6c.63-.36,1.43-.56,2.26-.56s1.63.2,2.26.56v6.67c-.68-.29-1.47-.44-2.26-.44s-1.58.15-2.26.44v-6.67Z"/>
          <g>
            <path class="cls-1" d="M95.36,40.07s.05,0,.07,0c2.06.21,3.91-1.28,4.16-3.33.12-1.01-.16-2-.79-2.8-.63-.8-1.53-1.3-2.54-1.42-2.08-.24-3.98,1.24-4.22,3.32-.12,1.01.16,2,.79,2.8s1.53,1.3,2.54,1.42ZM92.95,35.96c.18-1.55,1.59-2.67,3.14-2.52.02,0,.03,0,.05,0,.76.09,1.44.47,1.92,1.07.48.6.69,1.35.6,2.11-.18,1.55-1.59,2.67-3.14,2.52-.02,0-.03,0-.05,0-.76-.09-1.44-.47-1.92-1.07-.47-.6-.69-1.35-.6-2.11Z"/>
            <path class="cls-1" d="M96.14,31.75c.36-.56.74-1.21,1-1.86.11.49.17,1.16.05,2.06.31.1.6.23.88.38.27-1.66.01-2.75-.27-3.39-.36-.1-.72-.17-1.1-.21-.06,0-.12-.01-.18-.02-.18,1.02-.98,2.28-1.56,3.1.38-.07.77-.09,1.17-.06Z"/>
            <path class="cls-1" d="M100.37,36.5c.57.33,1.24.68,1.91.91-.48.14-1.17.23-2.08.15-.09.32-.21.62-.36.9,0,0,.02,0,.02,0,1.67.2,2.74-.11,3.38-.42.06-.27.11-.55.15-.84.02-.15.03-.3.04-.45-1.01-.12-2.3-.85-3.15-1.39.08.37.11.76.09,1.15Z"/>
            <path class="cls-1" d="M94.45,42.7c-.1-.49-.14-1.16,0-2.04-.31-.09-.6-.22-.88-.37-.31,1.64-.07,2.72.19,3.36.37.1.75.18,1.14.22.04,0,.08,0,.12.01.21-1.04,1.08-2.31,1.69-3.11-.39.08-.8.11-1.21.08-.38.55-.78,1.2-1.06,1.85Z"/>
            <path class="cls-1" d="M91.29,37.05c-.06-.37-.08-.76-.04-1.14-.56-.35-1.23-.71-1.88-.96.49-.13,1.18-.2,2.1-.09.1-.31.24-.61.4-.88-1.68-.25-2.78.02-3.43.31-.1.36-.17.73-.22,1.11,0,.06-.01.13-.02.19,1,.16,2.26.9,3.09,1.47Z"/>
            <path class="cls-1" d="M99.33,33.38c.36-.08.73-.19,1.07-.34-.17.24-.35.59-.65.94.16.28.3.57.4.88,1.07-1.12,1.49-2.39,1.58-2.84-.17-.23-.35-.45-.54-.67l-.23.24c-.51.53-1.39.87-2.44,1.02.3.22.58.48.81.77Z"/>
            <path class="cls-1" d="M99.52,38.96c-.22.3-.47.57-.74.81.1.37.23.77.41,1.12-.27-.17-.66-.35-1.05-.67-.28.17-.58.3-.89.41,1.1,1.01,2.34,1.41,2.89,1.52.25-.18.49-.38.71-.6l-.2-.17c-.56-.49-.94-1.36-1.14-2.42Z"/>
            <path class="cls-1" d="M92.29,39.22c-.36.09-.74.21-1.08.38.16-.25.35-.63.65-.99-.16-.28-.3-.58-.4-.89-1.02,1.1-1.43,2.34-1.53,2.86.18.24.37.48.58.7l.19-.21c.5-.55,1.36-.91,2.39-1.09-.3-.22-.56-.47-.8-.75Z"/>
            <path class="cls-1" d="M92.18,33.51c.22-.29.48-.55.76-.77-.09-.36-.21-.73-.37-1.07.25.16.63.35.99.65.28-.16.59-.29.9-.39-1.13-1.05-2.4-1.46-2.9-1.56-.24.17-.47.36-.69.56l.24.22c.54.49.9,1.34,1.07,2.36Z"/>
          </g>
          <path class="cls-1" d="M77.8,56.5l-.6.61,2.22,3.08c.23.32.25.76.06,1.11-.19.35-.42.68-.67.97-.16.19-.36.17-.44.15-.17-.04-.3-.16-.35-.33l-1.44-4.55-.79.35,1.48,4.82c.13.44-.06.91-.44,1.09-.29.13-.59.24-.89.32-.26.07-.49.03-.66-.12-.17-.14-.27-.38-.27-.66l-.03-5.28h-.83s-.03,5.28-.03,5.28c0,.25-.11.47-.29.63-.18.15-.41.2-.64.14-.3-.08-.6-.19-.89-.32-.38-.17-.58-.65-.44-1.09l1.48-4.81-.75-.33-1.48,4.54c-.07.24-.27.31-.35.33-.1.02-.29.03-.44-.15-.25-.3-.48-.63-.68-.98-.2-.35-.17-.79.06-1.11l2.23-3.08-.59-.6-2.16,2.84c-.04.06-.1.06-.15.05-.05-.01-.08-.05-.09-.1,0-.02-.03-.21.04-.93.02-.24.13-.47.29-.64l3.2-3.23s-.22-.3-.27-.39c-.06-.11-.08-.24-.04-.35.03-.09.1-.17.2-.2.04-.02.1-.02.13-.02.46,0,.86,0,1.22,0,.07,0,.11-.02.15-.08.07-.09.13-.17.2-.23.16-.15.39-.22.63-.18.24.03.44.16.56.35.07.11.14.15.26.15,0,0,.95,0,1.14,0,.13,0,.24.05.3.14.07.09.08.22.03.37-.03.07-.07.14-.1.2-.03.04-.15.19-.15.19l3.13,3.3h0l1.23,1.3c0-.18-.02-.42-.05-.76-.04-.46-.24-.89-.56-1.21,0,0-2.32-2.37-2.47-2.53-.12-.12-.15-.22-.11-.39.08-.38,0-.77-.22-1.07-.21-.29-.52-.46-.86-.49-.24-.02-.86-.01-.94-.01h0c-.07,0-.11-.03-.16-.07-.09-.07-.2-.16-.32-.23-.5-.31-1.41-.3-1.95.22-.05.05-.11.08-.18.08,0,0-.65,0-.82,0h0c-.19,0-.38.05-.55.14-.53.28-.8.9-.65,1.52.02.08,0,.13-.05.19-.09.09-2.57,2.65-2.57,2.65-.32.33-.52.76-.56,1.22-.07.76-.05,1.04-.03,1.18.06.34.28.64.6.78h.03s0,.04,0,.04c-.13.51-.06,1.03.19,1.48.22.4.49.78.78,1.13.32.38.8.55,1.28.44h.03s0,.03,0,.03c.12.58.49,1.05.98,1.28.33.15.68.28,1.03.37.49.13,1,.01,1.4-.32.03-.03.06-.06.09-.1l.07-.08.06.07s.08.09.13.13c.39.32.91.43,1.43.29.35-.09.7-.22,1.03-.37.51-.23,1.03-1.31,1.03-1.31.48.1.95-.07,1.28-.44.29-.35.55-.73.78-1.13,0,0,0,0,0-.01.34-.62.24-1.38-.15-1.96l-2.31-3.3Z"/>
          <path class="cls-1" d="M69.76,80.92c-.43,0-.78.35-.78.78s.35.78.78.78.78-.35.78-.78-.35-.78-.78-.78Z"/>
          <path class="cls-1" d="M101.18,80.92c-.43,0-.78.35-.78.78s.35.78.78.78.78-.35.78-.78-.35-.78-.78-.78Z"/>
          <path class="cls-1" d="M85.22,11.85c-12.99,0-23.52,16.05-23.52,35.86s10.53,35.86,23.52,35.86,23.52-16.05,23.52-35.86-10.53-35.86-23.52-35.86ZM107.58,47.12h-21.79V13.03c11.94.47,21.59,15.52,21.79,34.09ZM84.65,13.03v34.09h-21.79c.2-18.57,9.85-33.62,21.79-34.09ZM62.86,48.27h21.79v34.13c-11.95-.47-21.6-15.55-21.79-34.13ZM85.8,82.4v-34.13h21.79c-.19,18.59-9.84,33.66-21.79,34.13Z"/>
          <path class="cls-1" d="M61.81,75.01c-.19.04-.36.07-.51.08-.16.02-.25.01-.29,0h-.06l-.15.11.54.76.09.1.15-.11v-.03s.03-.02.05-.03c.08-.06.18-.1.28-.13.12-.03.23-.06.33-.08l3.84-.81-2.04,3.42c-.08.13-.15.23-.21.3-.06.07-.12.12-.18.16-.01,0-.03.02-.07.04l-.16.11.69.98.09.1.14-.11v-.04s.03-.05.05-.11c.03-.06.06-.13.1-.22.04-.09.09-.18.14-.28.05-.1.11-.2.17-.31l2.72-4.57-.28-.39-5.44,1.06Z"/>
          <path class="cls-1" d="M61.42,72.89l2.29-1.11c.2-.1.37-.18.52-.24.15-.07.28-.12.39-.16.11-.04.2-.07.28-.09.07-.02.14-.04.19-.05l.17-.07-.36-.74-.07-.11-.12.06-.03.02s-.09.07-.15.12c-.06.05-.15.1-.25.16-.1.06-.22.13-.37.2-.15.08-.32.16-.52.26l-2.11,1.02,2-5.24-.14-.29-3.86,1.87c-.2.1-.37.18-.52.24-.15.07-.28.12-.39.16-.11.04-.2.07-.28.1-.07.02-.14.04-.19.05l-.17.07.36.74.07.11.12-.06.03-.02s.09-.08.15-.12c.06-.05.15-.1.25-.16.1-.06.23-.13.37-.21.15-.08.32-.16.52-.26l2.18-1.06-2,5.25.13.28.07.11.12-.06.03-.02s.09-.08.15-.12c.06-.05.15-.1.25-.16.1-.06.23-.13.37-.21.15-.08.32-.16.52-.26Z"/>
          <path class="cls-1" d="M58.5,66.31l2.4-.85c.21-.07.39-.14.55-.19.16-.05.29-.09.4-.12.11-.03.21-.05.29-.07.07-.01.14-.02.19-.03l.17-.06-.36-1-.06-.12-.12.04-.03.02s-.1.07-.16.1c-.07.04-.16.08-.26.13-.11.05-.24.1-.39.16-.15.06-.33.13-.54.2l-2.4.85c-.21.07-.39.14-.55.18-.16.05-.29.09-.41.12-.11.03-.21.05-.28.07-.08.01-.14.02-.19.02l-.17.06.36,1,.06.12.12-.04.03-.02s.1-.06.16-.1c.07-.04.16-.08.27-.13.11-.05.24-.1.39-.16.15-.06.33-.13.54-.2Z"/>
          <path class="cls-1" d="M56.98,63.62l4.19-3.28-.12-.47-5.46-.97c-.2-.03-.37-.07-.51-.11-.16-.04-.23-.07-.27-.09l-.06-.02-.18.04.23.91.05.12.18-.05.02-.02s.02,0,.05-.02c.1-.02.2-.03.31-.02.12.01.23.03.33.04l3.88.63-3.13,2.45c-.12.09-.22.16-.3.2-.08.04-.16.07-.22.09-.02,0-.04,0-.08.01h-.03s-.17.04-.17.04l.29,1.17.05.12.17-.04.03-.04s.04-.04.08-.09c.05-.05.1-.1.17-.17.07-.07.15-.14.24-.21.09-.08.18-.15.27-.22Z"/>
          <path class="cls-1" d="M55,57.04c.12-.03.26-.05.42-.08.16-.03.35-.06.57-.09l2.52-.36c.22-.03.41-.06.57-.07.16-.02.3-.03.42-.04.12,0,.21,0,.29,0,.08,0,.14,0,.2.02l.18-.02-.26-1.8-.07-.56c-.01-.08-.02-.16-.03-.24l-.02-.21c0-.06,0-.1-.01-.14v-.12s-.98-.03-.98-.03l.08.19c.07.17.14.37.21.58.06.18.12.4.18.65.05.21.1.44.14.69l-2.17.31c-.02-.13-.03-.27-.04-.41-.01-.19-.02-.36-.03-.53,0-.19-.01-.37-.01-.55v-.12s-.89-.06-.89-.06l.06.18c.04.13.08.28.12.45.03.15.07.33.12.54.04.18.07.37.1.58l-1.86.27-.03-.16c-.02-.08-.03-.16-.05-.24-.02-.08-.03-.16-.04-.22-.03-.18-.04-.34-.05-.48,0-.14,0-.26,0-.36,0-.11,0-.21.02-.29l.02-.12-.89-.19.08.22s.04.14.08.36c.03.19.07.41.11.68.04.27.09.56.14.88.05.32.1.64.14.96l.03.13.13-.02h.04s.11-.05.18-.08c.08-.02.17-.05.28-.08Z"/>
          <path class="cls-1" d="M53.88,51.94c.05-.02.11-.03.19-.05.08-.02.17-.03.29-.05.12-.01.26-.03.42-.04.16-.01.36-.03.58-.04l2.55-.12c.22-.01.41-.02.58-.02.16,0,.3,0,.42,0,.12,0,.21.01.29.02.08,0,.14.02.19.03h.03s.15,0,.15,0l-.05-1.07-.02-.13h-.13s-.04.01-.04.01c-.05.02-.11.03-.19.05-.08.02-.17.03-.29.05-.12.02-.26.03-.42.04-.16.01-.36.03-.57.04l-.73.03s0-.06,0-.09c0-.08,0-.15,0-.23,0-.07,0-.13-.01-.19,0-.04,0-.07-.01-.11l1.83-1.43c.07-.06.15-.11.22-.15.09-.05.13-.07.15-.07l.11-.02-.06-1.24-.02-.13-.22.02-.03.09s-.03.09-.06.13c-.03.04-.06.09-.1.14-.05.05-.1.11-.16.17-.07.06-.14.12-.23.19l-1.74,1.37c-.06-.1-.13-.2-.21-.29-.11-.13-.24-.23-.39-.32-.15-.09-.31-.15-.48-.2-.17-.04-.36-.06-.56-.05-.26.01-.49.07-.69.18-.2.1-.37.25-.51.42-.13.17-.23.38-.29.61-.06.23-.09.48-.07.74.01.27.04.5.07.68.03.17.05.3.05.39,0,.06,0,.13,0,.19,0,.06,0,.11,0,.16v.16s0,.14,0,.14h.14s.04-.01.04-.01ZM54.1,50.3c0-.16.01-.3.06-.41.05-.12.12-.21.21-.29.09-.08.21-.14.35-.19.14-.05.31-.08.49-.08.04,0,.08,0,.11,0,.18,0,.34.02.47.06.16.05.3.12.41.22.11.09.19.21.25.35.06.14.09.31.1.49,0,.06,0,.13,0,.2,0,.03,0,.06,0,.1l-2.38.11s-.02-.08-.03-.13c-.02-.1-.04-.23-.04-.41Z"/>
          <path class="cls-1" d="M53.85,45.49c.12.15.27.27.45.37.18.1.38.15.61.16.21.01.41-.02.59-.07.18-.06.34-.13.5-.23.15-.1.3-.21.43-.33.13-.12.26-.24.39-.37.12-.12.25-.25.37-.36.12-.11.24-.22.36-.3.12-.09.25-.15.38-.2.12-.05.26-.07.41-.06.1,0,.19.03.27.06.08.04.15.09.2.15.06.07.1.14.13.23.03.09.04.2.04.31,0,.13-.03.25-.08.35-.05.11-.12.2-.19.28-.08.08-.17.15-.27.2-.1.05-.21.09-.32.11l-.1.02v.32s1.04.16,1.04.16l.05-.06c.04-.06.09-.13.15-.23.05-.09.1-.2.15-.32.05-.12.09-.25.12-.38.04-.14.06-.29.06-.45.01-.28-.02-.53-.11-.75-.08-.21-.2-.39-.34-.53-.14-.14-.31-.25-.49-.32-.18-.07-.37-.11-.55-.12-.25-.01-.49.04-.7.14-.21.1-.41.23-.61.39-.19.15-.38.32-.55.5-.17.17-.34.34-.52.49-.17.15-.33.27-.5.36-.15.09-.31.12-.48.12-.1,0-.19-.02-.28-.06-.08-.03-.14-.07-.2-.13-.05-.06-.1-.13-.12-.21-.03-.08-.04-.18-.04-.29,0-.13.03-.23.07-.32.04-.09.09-.17.15-.23.06-.06.12-.11.19-.15.07-.04.13-.06.18-.08l.09-.03v-.3s-.93-.08-.93-.08l-.12.24c-.03.07-.07.15-.1.24-.03.09-.07.19-.09.31-.03.12-.04.24-.05.38,0,.19.02.38.08.57.06.18.15.35.27.5Z"/>
          <path class="cls-1" d="M54.02,40.97h.02c.05-.01.12-.02.19-.02.08,0,.18,0,.3,0,.12,0,.26.01.42.03.16.01.36.03.57.06l2.53.29c.22.03.41.05.57.07.16.02.3.05.42.07.11.02.21.05.29.07.07.02.13.04.18.06l.18.02.12-1.06v-.13s-.15-.02-.15-.02h-.02c-.05.01-.12.02-.19.02-.08,0-.18,0-.29,0-.12,0-.26-.01-.42-.03-.16-.01-.35-.03-.57-.06l-2.53-.29c-.22-.02-.41-.05-.57-.08-.16-.02-.3-.05-.42-.07-.11-.02-.21-.04-.28-.07-.07-.02-.14-.04-.18-.06l-.18-.02-.12,1.06v.13s.15.02.15.02Z"/>
          <path class="cls-1" d="M55.04,38.12c-.01-.17-.02-.35-.02-.56,0-.18.02-.39.04-.64.02-.21.05-.44.09-.68l3.54.7c.22.04.4.08.56.12.16.04.3.07.41.1.11.03.21.06.28.09.07.03.13.05.18.08l.18.04.21-1.05v-.13s-.14-.03-.14-.03h-.02c-.05,0-.12,0-.2,0-.08,0-.17,0-.29-.02-.12-.01-.26-.03-.42-.06-.16-.03-.35-.06-.57-.1l-3.54-.7c.05-.25.11-.47.17-.67.07-.23.14-.44.21-.6.08-.2.16-.37.23-.52l.09-.19-.97-.02v.12s-.02.07-.03.13l-.03.21c-.01.07-.03.15-.04.24l-.08.44c0,.06-.02.1-.02.12l-.43,2.19s-.01.07-.03.12l-.09.43c-.02.08-.03.16-.06.26l-.04.18c-.01.06-.03.1-.03.13l-.03.11.91.35-.02-.21Z"/>
          <path class="cls-1" d="M60.5,33.95c.11.12.16.19.18.22l.04.05.17.05.28-.89.02-.13-.16-.05h-.04s-.02,0-.05,0c-.1-.03-.19-.08-.27-.15-.1-.08-.18-.15-.26-.21l-.79-.69c.04-.13.08-.26.13-.41l.42-1.32c.06-.19.11-.35.16-.47l1.08-.12c.15-.01.27-.02.36-.01.09,0,.17.02.24.04.02,0,.03.01.08.03l.18.07.36-1.15.02-.13-.17-.05-.04.02s-.05.02-.11.03c-.06.02-.14.03-.23.05-.09.02-.2.04-.31.06-.11.02-.23.03-.35.05l-5.29.59-.15.46,4.13,3.7c.15.13.28.25.37.36ZM57.45,30.27l2.21-.24c-.02.06-.03.12-.05.18l-.27.87c-.05.15-.09.3-.14.44l-.07.21-1.68-1.46Z"/>
          <path class="cls-1" d="M58.44,25.68c.13.16.3.28.51.37.19.09.39.14.57.15.18.01.37,0,.55-.03.17-.03.35-.08.53-.14.17-.06.33-.13.5-.2.16-.07.32-.14.48-.2.15-.06.3-.11.45-.15.14-.03.29-.04.43-.05.13,0,.27.03.4.09.09.04.17.09.23.16.06.06.11.14.13.22.03.08.04.17.03.27,0,.1-.03.2-.08.31-.05.12-.12.22-.21.29-.09.08-.18.14-.28.19-.1.05-.21.08-.33.09-.11.01-.23,0-.34-.01l-.1-.02-.13.29.92.54.07-.04c.06-.04.14-.09.22-.16.08-.07.17-.15.26-.24.09-.09.17-.2.26-.31.09-.12.16-.25.23-.39.12-.26.18-.5.18-.73,0-.23-.04-.44-.12-.62-.08-.18-.19-.34-.34-.48-.14-.13-.3-.24-.46-.31-.23-.1-.46-.15-.71-.13-.23.02-.47.06-.71.13-.23.07-.47.16-.7.26-.23.1-.45.19-.66.26-.21.07-.41.12-.6.15-.18.02-.34,0-.49-.07-.09-.04-.17-.09-.23-.15-.06-.06-.11-.12-.14-.2-.03-.07-.04-.15-.04-.24,0-.09.03-.19.08-.29.05-.11.11-.21.18-.27.07-.07.15-.12.23-.15.08-.03.16-.06.23-.07.08,0,.14-.01.2,0h.09s.13-.27.13-.27l-.77-.38-.09-.03-.19.17c-.06.05-.12.11-.18.18-.07.07-.13.16-.2.25-.07.1-.13.21-.19.34-.08.18-.13.36-.14.55-.01.19,0,.38.07.57.06.18.15.36.28.51Z"/>
          <path class="cls-1" d="M62.52,18.04c.1.18.24.34.42.47.17.12.35.21.53.26.18.05.36.08.54.08.18,0,.36,0,.54-.04.18-.03.35-.06.53-.1.17-.04.34-.07.51-.1.16-.03.32-.05.47-.06.15,0,.29,0,.43.04.13.03.26.09.37.17.08.06.15.13.19.2.05.07.08.16.09.24.01.09,0,.17-.02.27-.02.09-.07.19-.14.28-.07.1-.16.19-.26.25-.1.06-.21.11-.32.13-.11.02-.22.03-.34.02-.12-.01-.23-.04-.33-.08l-.1-.04-.19.26.8.71.07-.03c.07-.03.15-.06.25-.11.1-.05.2-.11.3-.18.11-.07.21-.16.31-.25.11-.1.21-.21.3-.34.17-.23.27-.46.32-.68s.05-.44,0-.63c-.04-.2-.12-.38-.24-.54-.11-.16-.24-.29-.39-.4-.2-.15-.43-.23-.67-.27-.23-.03-.47-.03-.72,0-.24.02-.49.06-.74.12-.24.05-.48.09-.7.12-.22.03-.43.04-.62.03-.18-.01-.33-.07-.46-.16-.08-.06-.15-.13-.2-.2-.05-.07-.08-.14-.09-.22-.01-.08-.01-.16.01-.24s.07-.18.13-.27c.07-.1.15-.18.23-.23.08-.05.17-.09.25-.11.09-.02.17-.03.24-.02.08,0,.15.02.2.03l.09.03.18-.25-.75-.58-.23.13c-.06.04-.14.09-.21.14-.08.06-.16.13-.25.21-.09.08-.17.18-.25.29-.11.16-.19.33-.25.52-.05.19-.07.38-.05.57.02.19.08.38.17.55Z"/>
          <path class="cls-1" d="M65.34,14.4c.08-.15.18-.31.29-.48.1-.15.23-.32.38-.51.13-.17.28-.34.46-.52l2.57,2.53c.16.16.29.29.41.41.11.12.21.22.28.31.08.09.14.16.18.23.04.06.08.11.11.16l.13.13.75-.76.08-.1-.09-.09-.03-.02s-.1-.06-.16-.1c-.06-.04-.14-.1-.23-.18-.09-.08-.2-.17-.32-.28-.12-.11-.26-.24-.42-.4l-2.57-2.53c.18-.17.35-.33.51-.46.19-.16.36-.29.51-.39.17-.12.33-.22.48-.3l.18-.1-.8-.55-.08.09s-.05.06-.09.1l-.14.15c-.05.06-.11.11-.16.17l-.31.32s-.07.07-.09.09l-1.57,1.59-.41.4c-.06.06-.12.11-.17.17l-.15.14s-.08.07-.1.09l-.09.08.56.79.1-.18Z"/>
          <path class="cls-1" d="M69.32,9.59s.05.02.1.04c.06.03.13.06.21.11.08.05.18.1.28.15.1.06.2.12.3.19l4.46,2.91.4-.26-.84-5.48c-.03-.2-.05-.37-.06-.51-.01-.17,0-.25,0-.28v-.07s-.1-.15-.1-.15l-.78.51-.1.08.1.15.03.02s.02.02.03.04c.05.08.09.18.12.28.03.12.05.23.07.33l.65,3.87-3.33-2.17c-.13-.08-.22-.16-.29-.22-.06-.06-.12-.13-.15-.18,0-.01-.02-.03-.04-.07l-.1-.17-1.01.65-.1.08.1.15h.05Z"/>
          <path class="cls-1" d="M76.2,5.48s.06.1.09.17c.04.07.08.17.12.27.04.11.09.25.14.4.05.16.11.34.17.56l.72,2.44c.06.21.11.4.16.56.04.16.07.29.1.41.02.11.04.21.05.29,0,.08.01.14.01.19l.05.18.12-.04c.07-.02.17-.05.31-.08l.83-.2c.15-.04.27-.07.37-.1.29-.08.56-.19.82-.31.26-.13.49-.28.7-.45.21-.17.4-.37.55-.59.15-.22.27-.46.35-.73.08-.26.12-.56.11-.87,0-.31-.06-.65-.17-1.01-.15-.5-.35-.91-.6-1.21-.26-.3-.55-.53-.88-.67-.32-.14-.68-.21-1.05-.2-.36,0-.74.07-1.11.17-.14.04-.28.09-.44.14l-.44.15c-.14.05-.27.09-.38.13-.11.04-.18.06-.23.08l-.11.03s-.09.02-.13.03l-.29.09.04.13v.03ZM77.39,5.57s.04-.02.07-.03c.07-.03.15-.05.23-.08l.25-.09c.08-.03.16-.05.22-.07.33-.1.63-.13.91-.1.27.03.52.11.74.25.22.14.42.34.59.6.17.26.31.58.42.95.1.33.15.63.16.9,0,.26-.02.49-.07.69-.06.2-.14.37-.25.52-.11.15-.24.28-.38.39-.14.11-.3.2-.47.27-.17.08-.34.14-.51.19-.04.01-.09.03-.15.04l-.19.05c-.06.01-.13.03-.18.04-.01,0-.02,0-.04,0-.05-.13-.1-.28-.16-.46-.08-.23-.15-.47-.23-.71-.08-.25-.15-.49-.22-.73-.07-.24-.13-.44-.18-.61-.02-.08-.05-.17-.08-.28l-.19-.68c-.03-.12-.07-.23-.1-.35l-.19-.7Z"/>
          <path class="cls-1" d="M83.58,3.89s.03.11.05.19c.02.08.03.18.05.29.02.12.03.26.04.42.01.16.02.36.03.58l.11,2.55c0,.22.02.41.02.58,0,.16,0,.3,0,.42,0,.12-.01.21-.02.29,0,.08-.02.14-.03.19v.03s0,.15,0,.15l1.06-.05.13-.02v-.13s-.01-.04-.01-.04c-.02-.05-.03-.11-.05-.19-.02-.08-.03-.17-.05-.29-.01-.12-.03-.26-.04-.42s-.03-.36-.04-.58l-.11-2.55c0-.22-.02-.41-.02-.58,0-.16,0-.31,0-.43,0-.12.01-.21.02-.29,0-.08.02-.14.03-.19v-.03s0-.15,0-.15l-1.07.05-.13.02v.13s.01.03.01.03Z"/>
          <path class="cls-1" d="M87.11,8.79c.22.32.5.6.84.82.34.22.74.39,1.18.48.22.05.45.07.66.07.06,0,.13,0,.19,0,.27-.02.53-.07.77-.16.24-.09.47-.21.67-.36.21-.15.39-.32.55-.51.16-.19.3-.41.41-.64.11-.23.2-.47.25-.72.1-.44.11-.87.03-1.27-.07-.4-.22-.77-.44-1.09-.22-.32-.5-.6-.84-.83-.34-.23-.74-.39-1.18-.49-.29-.06-.58-.09-.85-.07s-.53.08-.78.16c-.24.09-.47.21-.67.36-.21.15-.39.32-.55.52-.16.19-.3.41-.41.64-.11.23-.2.47-.25.73-.1.44-.11.87-.04,1.27.07.4.22.76.44,1.08ZM87.73,7.51c-.01-.34.02-.71.1-1.09.07-.34.19-.63.33-.88.15-.24.32-.44.52-.58.19-.14.41-.24.65-.28.1-.02.21-.03.32-.03.14,0,.29.02.43.05.33.07.61.2.83.39.22.18.39.41.5.68.12.27.19.58.2.91.02.34-.02.71-.1,1.09-.07.34-.19.64-.33.88-.15.24-.32.44-.52.58-.2.14-.41.24-.65.29-.24.05-.49.04-.76-.02-.33-.07-.61-.2-.83-.39-.22-.19-.39-.42-.51-.68-.12-.27-.18-.58-.2-.92Z"/>
          <path class="cls-1" d="M93.86,11.69l.06-.11v-.03c.03-.05.05-.11.07-.19.03-.07.06-.16.11-.27.05-.11.11-.23.19-.38s.17-.31.28-.51l.36-.63s.05.03.07.05c.06.04.13.08.2.12.06.03.11.06.17.09.03.02.06.03.1.05l.23,2.31c0,.09.01.18,0,.27,0,.1-.02.15-.02.17l-.04.1,1.08.61.12.05.11-.19-.06-.07s-.05-.07-.08-.12c-.02-.05-.04-.1-.06-.16-.02-.07-.04-.14-.05-.23-.02-.09-.03-.19-.04-.3l-.23-2.2c.12,0,.24,0,.36-.03.17-.03.33-.08.48-.16.15-.08.29-.18.42-.3.13-.12.25-.27.34-.45.13-.22.2-.45.22-.68.02-.23-.01-.45-.09-.65-.08-.21-.2-.4-.36-.58-.16-.17-.36-.33-.59-.46-.24-.14-.44-.24-.61-.3-.16-.06-.28-.12-.36-.16-.06-.03-.11-.06-.16-.09-.05-.03-.09-.06-.13-.09l-.14-.09-.13-.07-.07.13v.03c-.03.05-.04.11-.07.19-.03.08-.07.17-.11.27-.05.11-.11.23-.19.38-.08.15-.17.31-.28.51l-1.26,2.22c-.11.19-.21.36-.29.5-.09.14-.16.26-.23.36-.06.1-.12.17-.17.23-.05.06-.09.11-.13.14l-.09.16.93.53.12.05ZM95.93,9.42c-.15-.03-.31-.08-.47-.17-.06-.03-.11-.07-.17-.11-.03-.02-.05-.04-.08-.06l1.18-2.08s.08.02.13.04c.09.03.22.09.37.18.14.08.24.17.32.27.07.1.12.21.14.33.02.12,0,.26-.03.4-.04.15-.1.3-.19.46-.11.2-.23.35-.36.47-.13.11-.26.19-.4.23-.14.04-.28.05-.43.03Z"/>
          <path class="cls-1" d="M104.03,13.31c.19-.08.35-.15.48-.19.16-.05.24-.07.28-.07h.06s.12-.15.12-.15l-.69-.63-.11-.08-.12.14v.03s-.02.02-.04.04c-.07.07-.15.14-.25.18-.11.05-.21.1-.3.15l-3.58,1.61,1.26-3.77c.05-.14.1-.25.14-.33.05-.08.09-.15.14-.2.01-.01.02-.03.06-.05l.14-.14-.89-.81-.11-.08-.12.13v.05s0,.06-.02.12c-.01.06-.03.14-.05.23-.02.09-.05.2-.08.31-.03.11-.06.22-.1.34l-1.69,5.05.36.33,5.09-2.19Z"/>
          <path class="cls-1" d="M103.85,16.29c-.24.12-.47.23-.7.34l-1.22.58c-.11.05-.2.08-.27.09-.08.01-.14.02-.18.02h-.05s-.14.1-.14.1l.6.89.11-.11s.06-.06.1-.09c.03-.03.08-.07.13-.11.05-.04.11-.08.18-.13.06-.04.15-.09.27-.16.13-.07.28-.15.45-.24.17-.09.36-.19.56-.29l.6-.31c.37-.19.77-.39,1.19-.59l-2.14,4.08.2.38,4.57-.5-2.51,2.25s-.06.05-.08.07c-.03.02-.05.04-.08.06-.07.05-.13.08-.18.11-.07.03-.1.04-.11.04l-.17.1.63.92.08.1.14-.09.02-.03s.03-.06.06-.1c.03-.04.06-.09.11-.14.05-.06.11-.12.18-.2.07-.07.16-.16.27-.25l3.57-3.23-.32-.47-5.01.56,2.34-4.48-.39-.57-.39.21c-.13.07-.28.15-.46.23-.18.09-.37.19-.58.29l-.67.33c-.23.11-.46.23-.7.35Z"/>
          <path class="cls-1" d="M107.75,27.41c-.16-.03-.24-.05-.28-.07l-.06-.02-.18.06.31.88.06.12.17-.06.02-.03s.02-.01.05-.02c.1-.03.2-.05.3-.05.12,0,.24,0,.33.01l1.04.08c.05.12.1.26.15.41l.46,1.31c.07.19.12.34.16.47l-.79.74c-.11.1-.21.18-.28.23-.08.05-.15.08-.21.11-.02,0-.04.01-.08.02h-.02s-.16.06-.16.06l.4,1.14.06.12.17-.06.02-.04s.03-.05.07-.09c.04-.05.09-.11.15-.18.06-.07.13-.15.21-.23s.16-.17.25-.25l3.87-3.65-.16-.46-5.52-.48c-.2-.02-.37-.03-.51-.06ZM112.4,28.52l-1.62,1.52c-.02-.06-.04-.11-.06-.17l-.46-1.29-.07-.21,2.22.16Z"/>
          <path class="cls-1" d="M111.04,33.57c-.22.04-.4.08-.57.11-.16.03-.3.05-.42.06-.12.01-.21.02-.29.02-.08,0-.14,0-.19,0l-.18.03.17.81.04.12.13-.03h.03s.11-.06.18-.09c.07-.03.17-.06.28-.09.11-.03.25-.07.41-.11.16-.04.35-.08.56-.13l2.3-.48-3.22,4.6.07.32,4.2-.87c.22-.04.4-.08.57-.11.16-.03.3-.05.42-.06.12-.01.22-.02.3-.03.08,0,.14,0,.19,0l.18-.03-.17-.81-.04-.12-.13.03h-.03s-.11.06-.18.09c-.07.03-.17.06-.28.09-.11.03-.25.07-.41.11-.16.04-.35.08-.56.13l-2.37.49,3.22-4.6-.06-.3-.04-.12-.13.03h-.03s-.11.06-.18.09c-.07.03-.17.06-.28.09-.11.03-.25.07-.41.11-.16.04-.35.08-.56.13l-2.49.52Z"/>
          <path class="cls-1" d="M115.85,40.01c-.12.02-.26.04-.42.06-.17.02-.36.04-.58.05l-2.54.21c-.22.02-.41.03-.58.04-.16,0-.31.01-.42.01-.12,0-.21,0-.29-.01-.08,0-.14-.02-.19-.03h-.03s-.15,0-.15,0v.13c.02.07.02.17.02.3v.42c.02.15.02.3.03.45,0,.15.01.28.02.38.02.3.07.59.14.86.07.28.17.54.3.78.13.24.28.46.46.66.18.2.4.36.64.49.24.13.52.23.83.28.2.04.42.06.65.06.12,0,.24,0,.37-.02.52-.04.96-.16,1.31-.34.35-.19.63-.43.83-.72.2-.29.34-.62.41-.99.07-.36.09-.74.06-1.12-.01-.14-.03-.29-.04-.45l-.1-.86c-.01-.11-.02-.19-.03-.24,0-.03,0-.06,0-.11,0-.05,0-.09,0-.13l-.03-.31h-.14s-.03.02-.03.02c-.05.02-.11.04-.19.06-.08.02-.18.04-.29.06ZM114.91,41.1c.12,0,.24-.02.36-.02l.73-.05s0,.05.01.07c.01.07.02.15.03.24l.03.26c.01.09.02.16.02.23.03.34,0,.64-.08.91-.08.26-.22.49-.4.68-.18.19-.42.34-.71.46-.29.12-.63.19-1.01.22-.35.03-.65.02-.91-.02-.26-.04-.48-.11-.66-.21-.18-.09-.33-.21-.45-.35-.12-.14-.22-.29-.3-.45-.08-.16-.14-.34-.17-.51-.04-.18-.07-.36-.08-.54,0-.04,0-.1,0-.16,0-.06,0-.13,0-.2,0-.07,0-.13,0-.19,0-.01,0-.03,0-.04.14-.02.3-.04.48-.06.24-.03.49-.05.74-.08l.76-.07c.25-.02.46-.04.63-.05.08,0,.18-.01.29-.02l.7-.05Z"/>
          <path class="cls-1" d="M116.88,46.98h-.17c-.05.02-.11.03-.19.04-.08.01-.18.02-.29.03-.12,0-.26.02-.42.02-.16,0-.36,0-.58,0l-2.55-.03c-.22,0-.41,0-.58-.01-.16,0-.3-.02-.42-.03-.12-.01-.21-.02-.29-.04-.08-.01-.14-.03-.19-.04h-.18s-.01,1.06-.01,1.06v.13s.16,0,.16,0h.02c.05-.02.11-.03.19-.05.08-.01.17-.02.29-.03.12,0,.26-.01.42-.02.16,0,.36,0,.58,0l2.55.03c.22,0,.41,0,.58.02.16,0,.31.02.43.03.12,0,.21.02.29.04.08.01.14.03.19.04h.18s.01-1.06.01-1.06v-.13Z"/>
          <path class="cls-1" d="M116.7,50.33h-.02c-.05.01-.12.02-.19.03-.08,0-.18,0-.29,0-.12,0-.26,0-.42-.02-.16-.01-.36-.03-.58-.05l-2.54-.24c-.22-.02-.41-.04-.57-.06-.16-.02-.3-.04-.42-.06-.11-.02-.21-.04-.29-.06-.07-.02-.14-.04-.19-.06l-.18-.02-.08.82v.13s.15.02.15.02h.02c.05-.01.12-.02.19-.03.08,0,.18,0,.29,0,.12,0,.26,0,.42.02.16.01.36.03.58.05l2.34.22-4.39,3.41-.04.03-.03.32,4.27.4c.22.02.41.04.57.06.16.02.3.04.42.06.12.02.21.04.29.06.07.02.14.04.18.06l.18.02.08-.82v-.13s-.15-.02-.15-.02h-.02c-.05.01-.12.02-.19.03-.08,0-.18,0-.29,0-.12,0-.26,0-.42-.02-.16-.01-.36-.03-.58-.05l-2.41-.23,4.39-3.41.04-.03.03-.31v-.13s-.15-.02-.15-.02Z"/>
          <path class="cls-1" d="M115.82,57.62c-.05,0-.12,0-.2,0-.08,0-.18-.01-.29-.02-.12-.01-.26-.04-.42-.06-.16-.03-.35-.06-.57-.11l-2.5-.51c-.22-.04-.4-.09-.56-.12-.16-.04-.29-.07-.41-.11-.11-.03-.2-.06-.28-.09-.07-.03-.13-.06-.18-.08l-.18-.04-.37,1.78s-.01.06-.03.12l-.1.43c-.02.08-.04.16-.05.23l-.05.2c-.01.06-.03.1-.03.13l-.03.11.9.36v-.21c-.02-.19-.02-.39-.01-.62,0-.19.02-.42.05-.67.02-.22.06-.45.11-.7l2.15.44c-.03.13-.06.26-.1.4-.05.18-.1.35-.15.5-.06.18-.12.35-.18.52l-.04.11.81.36v-.19c.02-.13.03-.29.05-.46.02-.15.04-.33.07-.54.03-.18.06-.37.1-.58l1.84.38-.02.16c-.01.08-.02.16-.04.25-.01.08-.03.16-.04.22-.04.18-.08.33-.12.46-.04.13-.08.25-.11.34-.04.1-.08.19-.12.27l-.05.11.77.48v-.23s.01-.14.05-.37c.03-.19.07-.41.12-.67.05-.26.11-.55.17-.87h0c.06-.32.13-.63.19-.95v-.13s-.14-.03-.14-.03h-.02Z"/>
          <path class="cls-1" d="M114.68,62.81c-.05,0-.12,0-.19-.02-.08-.01-.17-.03-.29-.06-.12-.03-.25-.06-.41-.11-.16-.05-.34-.1-.55-.17l-2.42-.8c-.21-.07-.39-.13-.55-.19-.15-.06-.28-.11-.39-.15-.11-.05-.19-.09-.26-.12-.07-.04-.12-.07-.17-.1l-.17-.06-.26.79-.03.13.13.04h.03c.05,0,.12.02.19.03.08.01.17.03.29.06.12.03.25.06.41.11.16.05.34.1.55.17l2.23.74-5.09,2.37-.1.31,4.07,1.35c.21.07.39.13.55.19.15.06.28.11.39.16.11.05.2.09.27.12.07.04.12.07.17.1l.17.06.26-.79.03-.13-.13-.04h-.03c-.05,0-.12-.01-.19-.03-.08-.01-.17-.03-.29-.06-.12-.03-.25-.06-.41-.11-.16-.05-.34-.1-.55-.17l-2.3-.76,5.04-2.34.05-.02.1-.29.03-.13-.12-.04h-.04Z"/>
          <path class="cls-1" d="M111.63,69.54c-.13-.16-.3-.29-.5-.38-.19-.09-.38-.15-.57-.16-.18-.02-.37-.01-.55.02-.18.03-.35.07-.53.13-.17.06-.34.12-.5.19-.16.07-.32.13-.48.19-.15.06-.3.11-.45.14-.14.03-.29.04-.43.04-.13,0-.27-.04-.4-.1-.09-.04-.17-.1-.23-.16-.06-.06-.1-.14-.13-.22-.03-.08-.04-.17-.03-.27,0-.1.04-.2.09-.3.06-.12.13-.21.21-.29.09-.08.18-.14.29-.18.1-.04.21-.07.33-.08.12,0,.23,0,.34.02l.1.02.14-.29-.91-.55-.07.04c-.06.04-.14.09-.22.15-.09.07-.18.14-.26.23-.09.09-.18.19-.26.31-.09.12-.17.25-.23.39-.12.26-.19.5-.19.73,0,.23.03.44.11.62.08.18.19.35.33.49.14.14.29.24.46.32.22.11.46.15.71.14.23-.01.47-.05.71-.12.24-.07.47-.15.71-.25.23-.09.45-.18.67-.25.21-.07.41-.11.6-.14.18-.02.34,0,.48.08.09.04.17.1.23.16.06.06.1.13.13.2.03.07.04.15.03.24,0,.09-.03.18-.08.29-.05.11-.12.2-.19.27-.07.07-.15.12-.23.15-.08.03-.16.05-.23.06-.08,0-.15,0-.2,0h-.09s-.13.27-.13.27l.84.44.2-.17c.06-.05.12-.11.19-.18.07-.07.13-.15.2-.25.07-.1.14-.21.2-.33.08-.17.13-.36.15-.55.02-.19,0-.38-.06-.57-.05-.19-.15-.36-.27-.51Z"/>
          <path class="cls-1" d="M109.89,74.22c-.05-.01-.11-.03-.18-.06-.07-.03-.16-.07-.27-.12-.11-.05-.23-.12-.38-.2-.14-.08-.31-.18-.5-.29l-2.19-1.3c-.19-.11-.35-.21-.49-.3-.14-.09-.25-.17-.35-.23-.09-.07-.17-.13-.23-.18-.06-.05-.11-.09-.14-.13l-.15-.1-.55.92-.05.12.11.07h.03c.05.03.11.05.18.07.07.03.16.07.27.12.11.05.23.12.38.2.14.08.31.17.5.29l2.19,1.3c.19.11.35.21.49.3.14.09.26.17.35.24.1.07.17.13.23.18.06.05.11.09.14.13l.15.1.55-.92.05-.12-.11-.07h-.03Z"/>
          <path class="cls-1" d="M107.16,76.36c-.17-.13-.35-.22-.53-.27-.18-.05-.36-.08-.54-.09-.18,0-.36,0-.54.03-.18.03-.35.05-.53.09-.17.03-.34.07-.51.09-.16.03-.32.04-.47.05-.15,0-.29-.01-.43-.04-.13-.03-.25-.09-.37-.18-.08-.06-.14-.13-.19-.21-.05-.08-.07-.15-.08-.24-.01-.09,0-.18.02-.27.03-.09.07-.19.14-.28.08-.1.17-.18.26-.24.1-.06.21-.1.32-.12.11-.02.22-.03.34-.02.11.01.23.04.33.09l.09.04.19-.26-.78-.72-.07.03c-.07.02-.15.06-.25.11-.1.05-.2.11-.3.18-.1.07-.21.15-.32.25-.11.1-.21.21-.3.34-.17.23-.28.46-.33.68-.05.22-.06.44-.02.63.04.2.11.38.23.54.11.16.24.3.39.41.2.15.42.24.66.28.23.03.47.04.72.02.24-.02.49-.06.74-.11.24-.05.48-.09.7-.11.22-.03.43-.03.62-.02.18.02.33.07.46.17.08.06.15.13.2.2.05.07.08.14.09.22.01.08,0,.16-.01.24-.02.09-.07.17-.13.26-.08.1-.16.18-.24.23-.09.05-.17.09-.25.1-.08.02-.16.02-.24.02-.08,0-.14-.02-.2-.04l-.09-.03-.18.24.74.59.23-.13c.07-.04.14-.08.22-.14s.16-.12.25-.2c.09-.08.17-.18.26-.29.11-.15.2-.33.25-.51.05-.19.07-.38.06-.57-.02-.19-.07-.38-.17-.56-.09-.18-.23-.34-.41-.47Z"/>
          <path class="cls-1" d="M77.98,84.08c-.3-.14-.61-.23-.9-.28-.29-.05-.58-.06-.86-.03-.28.03-.54.09-.79.18-.25.09-.48.22-.69.37-.21.15-.4.33-.56.53-.16.2-.3.42-.41.66-.19.41-.28.83-.29,1.24s.08.8.24,1.17c.16.37.41.71.73,1.01.32.3.71.56,1.16.76.22.1.46.18.7.25.24.06.47.1.69.11h.06s.73-.71.73-.71l-.15-.23-.1.05c-.13.06-.26.1-.4.13-.13.03-.27.04-.41.04-.14,0-.29-.02-.43-.05-.14-.03-.27-.08-.4-.13-.36-.16-.64-.37-.85-.61-.21-.24-.35-.52-.43-.81-.08-.3-.1-.62-.05-.96.05-.34.15-.7.31-1.05.14-.31.32-.58.52-.78.2-.2.43-.35.67-.44.24-.09.5-.13.77-.11.28.02.56.09.84.22.3.13.55.31.75.51.2.21.35.43.46.67l.03.08h.25s.07-.95.07-.95l-.04-.04c-.34-.33-.75-.6-1.22-.81Z"/>
          <path class="cls-1" d="M84.46,85.66v.15s-.01.02-.01.02c0,.05.02.12.02.19,0,.08,0,.18,0,.29,0,.12-.01.26-.02.43-.01.16-.03.36-.05.57l-.09.84c-.09,0-.18-.01-.28-.02-.16-.01-.33-.03-.51-.04-.18-.02-.37-.03-.56-.05-.19-.02-.38-.04-.57-.06-.19-.02-.36-.04-.53-.06-.12-.01-.23-.03-.33-.04l.1-.87c.02-.22.05-.41.07-.57.02-.16.05-.3.07-.42.02-.11.04-.21.06-.28.02-.07.04-.14.06-.18l.02-.18-1.06-.12h-.13s-.02.15-.02.15v.02c.01.05.02.12.02.19,0,.08,0,.18,0,.29,0,.12-.01.26-.02.42-.01.16-.03.36-.06.57l-.28,2.53c-.02.22-.05.41-.07.57-.02.16-.05.3-.07.42-.02.11-.04.21-.07.28-.02.07-.04.14-.06.18l-.03.18,1.06.12h.13s.01-.15.01-.15v-.02c-.01-.05-.02-.12-.02-.19,0-.08,0-.17,0-.29,0-.12.01-.26.02-.42.01-.16.03-.35.05-.57l.11-1.03c.1,0,.2.02.32.03.17.02.35.03.56.06l.56.07c.2.02.39.05.57.07.18.02.35.04.51.06.1.01.18.02.26.03l-.11,1.02c-.02.22-.05.41-.07.57-.02.16-.05.3-.07.42-.02.11-.04.21-.06.28-.02.07-.04.14-.06.18l-.02.18,1.06.12h.13s.02-.15.02-.15v-.02c-.01-.05-.02-.12-.02-.19,0-.08,0-.18,0-.29,0-.12.01-.26.02-.42.01-.16.03-.36.06-.57l.28-2.53c.02-.22.05-.41.07-.57.02-.16.05-.3.07-.42.02-.11.04-.21.07-.29.02-.07.04-.14.06-.19l.03-.18-1.07-.12h-.13Z"/>
          <path class="cls-1" d="M88.68,91.07s-.04-.11-.06-.18c-.02-.07-.05-.17-.07-.28-.02-.12-.05-.26-.07-.42-.03-.16-.05-.35-.08-.57l-.3-2.53c-.03-.22-.05-.41-.06-.57-.01-.16-.02-.31-.03-.43,0-.12,0-.21,0-.29,0-.08.01-.14.02-.19v-.03s-.02-.15-.02-.15l-1.06.13-.13.03.02.13v.03s.05.11.07.18c.02.08.04.17.07.29.02.12.05.26.07.42.02.16.05.35.08.57l.3,2.53c.03.22.05.41.06.57.01.16.02.3.03.42,0,.12,0,.22,0,.29,0,.08,0,.14-.02.19v.03s.02.15.02.15l1.06-.13.13-.03-.02-.13v-.03Z"/>
          <path class="cls-1" d="M93.19,89.31c-.16.09-.34.19-.55.28-.18.08-.38.17-.62.27-.2.08-.43.16-.67.23l-.97-3.47c-.06-.21-.11-.4-.15-.56-.04-.16-.07-.3-.09-.42-.02-.11-.04-.21-.05-.29,0-.08-.01-.14-.01-.19l-.04-.18-1.03.29-.12.05.04.13v.03s.07.1.11.17c.03.07.07.16.11.27.04.11.09.25.14.4.05.16.1.34.16.55l.68,2.45c.06.21.11.4.15.56.04.16.07.3.09.41.02.11.04.21.04.29,0,.08.01.14.01.2l.04.18,1.76-.49s.05-.01.12-.03l.43-.11c.08-.02.16-.04.23-.06l.2-.05c.06-.01.1-.02.13-.03l.12-.02-.09-.97-.18.1Z"/>
          <path class="cls-1" d="M97.56,87.28c-.14.13-.3.26-.48.39-.15.11-.34.24-.56.38-.19.12-.39.24-.61.35l-.99-1.96c.12-.06.24-.11.37-.17.18-.07.34-.14.49-.19.18-.07.35-.13.52-.19l.11-.04-.23-.86-.15.11c-.11.08-.24.16-.39.26-.13.08-.29.17-.47.28-.16.09-.33.18-.52.28l-.85-1.68.14-.08c.07-.04.14-.08.22-.12.07-.04.14-.08.19-.1.16-.08.31-.15.44-.2.13-.05.24-.09.34-.12.11-.03.2-.06.28-.08l.12-.02-.1-.9-.18.14s-.15.1-.32.19c-.17.09-.37.2-.6.32-.24.12-.5.26-.79.41h0c-.29.15-.57.29-.87.44l-.11.07.06.12.02.03s.08.09.12.15c.05.06.1.14.16.24.06.1.13.22.21.37.08.14.17.32.27.51l1.15,2.28c.1.2.18.37.25.52.07.15.12.28.17.39.04.11.08.2.1.27.02.07.04.14.05.19l.08.17,1.63-.82s.06-.03.11-.05l.4-.19c.08-.04.15-.07.22-.1l.19-.09c.06-.03.1-.04.13-.05l.11-.04-.28-.93-.15.14Z"/>
          <path class="cls-1" d="M78.87,31.18c-.45-.61-1.36-.6-1.79.02l-1.63,2.35h0s-.77-1.11-.77-1.11c-.4-.57-1.22-.65-1.71-.16l-3.76,3.85c-.11.11-.18.24-.22.38l-.25,1.03c-.02.1-.08.19-.16.28l-3.19,3.45.96.29,2.44-2.62h0c.08-.01.16-.03.22-.04.43-.12.92-.45,1.24-.45.15,0,.26.07.32.28.18.63-.76,1.58.04,1.65.05,0,.1,0,.15,0,.73,0,1.48-.46,3.16-1.49.4-.24.73-.33,1.02-.33.36,0,.65.14.88.28,0,0,.52.33,1,.09l-.54-.85h0s0,0,0,0c-.31-.18-.74-.4-1.34-.4-.48,0-.98.15-1.48.46,0,0-1.56.95-2.02,1.16.05-.25.07-.52-.01-.8-.15-.58-.6-.94-1.18-.94-.1,0-.21.02-.32.04h0s-.03,0-.04,0c-.12,0-.22-.1-.22-.22,0-.02,0-.04,0-.06h0s.12-.39.12-.39c.04-.12.1-.22.18-.31l3.46-3.55c.18-.18.48-.15.63.06l5.88,8.43.91-.28-4.01-5.71s.08-.03.14-.03c.53,0,1.68.99,2.13.99,0,0,.01,0,.02,0,.5-.04.39-.22.31-.6-.12-.55-.03-.71.13-.71.18,0,.45.18.66.24.09.02.23.04.38.04.09,0,.18,0,.27-.01l.99,1.34.92-.28-3.92-5.36ZM76.83,35.57h0,0s0,0,0,0ZM79.57,34.33c-.32,0-.62.14-.82.39-.14.17-.21.36-.24.55,0,0-.32-.24-.83-.44-.05-.02-.11-.04-.16-.06-.05-.02-.09-.03-.14-.04-.03,0-.06-.02-.09-.03h0c-.34-.09-.73-.16-1.16-.12l-.14-.21.76-1.09.92-1.33c.15-.21.46-.22.61,0l1.17,1.59.68.92c-.16-.07-.34-.13-.56-.13Z"/>
        </g>
      </g>
    </g>
  </g>
</svg>