<?xml version="1.0" encoding="UTF-8"?>
<svg id="Capa_2" data-name="Capa 2" xmlns="http://www.w3.org/2000/svg" viewBox="0 0 369.78 87.47">
  <defs>
    <style>
      .cls-1 {
        fill: #d41317;
      }

      .cls-2 {
        fill: #838085;
      }

      .cls-3 {
        fill: #8f8e94;
      }

      .cls-4 {
        fill: #243746;
      }
    </style>
  </defs>
  <g id="Capa_2-2" data-name="Capa 2">
    <g id="museo_de_artes">
      <rect class="cls-4" x="217.4" y="26.1" width="1.5" height="35.19"/>
      <g>
        <path class="cls-4" d="M116.6,51.22c-.76-.45-1.62-.67-2.6-.67s-1.83.22-2.6.67c-.77.45-1.37,1.06-1.81,1.85-.44.78-.65,1.68-.65,2.7s.22,1.91.66,2.7c.44.8,1.04,1.42,1.81,1.87.76.45,1.63.67,2.59.67s1.85-.23,2.61-.68c.76-.46,1.36-1.08,1.79-1.87.44-.79.65-1.69.65-2.69s-.22-1.92-.66-2.7c-.44-.78-1.04-1.4-1.79-1.85ZM116.21,57.38c-.2.45-.48.8-.86,1.04-.37.25-.82.37-1.34.37s-.99-.12-1.37-.37c-.38-.24-.67-.59-.88-1.04-.2-.45-.31-.99-.31-1.61s.1-1.18.31-1.62c.2-.44.5-.78.88-1.02s.84-.36,1.37-.36.96.12,1.34.36.66.58.86,1.02c.2.44.3.98.3,1.62s-.1,1.16-.3,1.61Z"/>
        <path class="cls-4" d="M140.38,46.59l-5.71,14.22h2.88l.93-2.49c.06-.17.22-.28.4-.28h5.3l.92,2.5c.06.16.22.27.39.27h2.59l-5.71-14.22h-1.98ZM139.47,55.67l1.94-5.18,1.9,5.18h-3.84Z"/>
        <path class="cls-4" d="M105.25,47.46h2.04v13.35h-2.51v-12.88c0-.26.21-.47.47-.47Z"/>
        <path class="cls-4" d="M167.72,52.14c-.05-.09-.1-.17-.16-.25-.34-.45-.75-.79-1.21-1.01-.47-.22-.98-.34-1.52-.34-.78,0-1.49.21-2.14.62-.65.42-1.17,1.01-1.56,1.79-.39.78-.58,1.71-.58,2.82,0,.99.17,1.89.52,2.68.35.8.84,1.42,1.48,1.88s1.4.68,2.29.68c.5,0,.99-.1,1.46-.3.47-.2.88-.53,1.24-1,.07-.09.13-.19.19-.29l.18,1.39h2.33v-13.35h-2.21c-.17,0-.3.14-.3.3v4.38ZM166.81,58.32c-.36.24-.79.37-1.3.37s-.92-.12-1.29-.36c-.37-.24-.65-.57-.85-1.01-.2-.44-.3-.95-.3-1.55s.1-1.11.3-1.54c.2-.43.48-.76.85-1,.37-.24.8-.36,1.29-.36s.94.12,1.3.36c.36.24.64.57.84,1.01s.3.95.3,1.53-.1,1.1-.3,1.53c-.2.44-.48.78-.84,1.02Z"/>
        <path class="cls-4" d="M82.14,52.14c-.05-.09-.1-.17-.16-.25-.34-.45-.75-.79-1.21-1.01-.47-.22-.98-.34-1.52-.34-.78,0-1.49.21-2.14.62-.65.42-1.17,1.01-1.56,1.79-.39.78-.58,1.71-.58,2.82,0,.99.17,1.89.52,2.68.35.8.84,1.42,1.48,1.88.64.46,1.4.68,2.29.68.5,0,.99-.1,1.46-.3.47-.2.88-.53,1.24-1,.07-.09.13-.19.19-.29l.18,1.39h2.33v-13.35h-2.21c-.17,0-.3.14-.3.3v4.38ZM81.23,58.32c-.36.24-.79.37-1.3.37s-.92-.12-1.29-.36c-.37-.24-.65-.57-.85-1.01-.2-.44-.3-.95-.3-1.55s.1-1.11.3-1.54c.2-.43.48-.76.85-1,.37-.24.8-.36,1.29-.36s.94.12,1.3.36c.36.24.64.57.84,1.01s.3.95.3,1.53-.1,1.1-.3,1.53c-.2.44-.48.78-.84,1.02Z"/>
        <path class="cls-4" d="M154.99,50.55c-.48,0-.94.09-1.39.26-.45.17-.84.44-1.18.81-.14.15-.26.32-.37.51v-1.37h-2.55v10.06h2.27c.16,0,.28-.13.28-.28v-4.53c0-.76.08-1.38.24-1.86.16-.48.4-.83.72-1.05.32-.22.72-.34,1.21-.34.64,0,1.11.19,1.41.58.3.39.45,1,.45,1.85v5.63h2.27c.16,0,.28-.13.28-.28v-6.29c0-1.17-.32-2.08-.97-2.72s-1.54-.97-2.68-.97Z"/>
        <path class="cls-4" d="M180.55,52.05c-.38-.47-.86-.84-1.45-1.1-.59-.27-1.27-.4-2.06-.4-.84,0-1.57.15-2.17.46s-1.1.71-1.48,1.21c-.38.5-.67,1.07-.86,1.69-.19.63-.29,1.27-.29,1.92s.1,1.33.29,1.95c.19.62.49,1.17.89,1.65.4.48.91.87,1.54,1.15.63.29,1.37.43,2.24.43.58,0,1.11-.05,1.56-.15s.89-.27,1.32-.5c.42-.23.87-.53,1.35-.9l-1.27-1.71c-.38.34-.82.6-1.31.79-.49.18-.99.28-1.51.28-.71,0-1.3-.18-1.77-.55-.39-.31-.64-.74-.76-1.29-.04-.17.09-.34.27-.34h6.56c.03-.19.04-.37.05-.54,0-.17.01-.3.01-.4,0-.71-.1-1.37-.3-2-.2-.63-.49-1.17-.87-1.64ZM174.76,54.75c.04-.34.15-.67.32-.99.17-.32.42-.58.76-.79.34-.2.76-.31,1.27-.31.34,0,.64.05.91.15.27.1.49.25.68.44s.34.41.45.66c.08.19.14.4.15.61.01.12-.09.21-.2.21h-4.34Z"/>
        <path class="cls-4" d="M190.08,55.26c-.38-.23-.79-.41-1.22-.55-.44-.14-.86-.25-1.27-.35-.44-.11-.79-.21-1.05-.3-.27-.09-.46-.19-.57-.32-.12-.12-.17-.27-.17-.45,0-.26.13-.46.38-.61.25-.15.57-.22.97-.22.45,0,.87.1,1.28.3.32.16.58.37.8.65.1.13.29.14.42.04l1.32-1.05c-.38-.6-.9-1.06-1.55-1.38-.65-.32-1.38-.48-2.18-.48-1.34,0-2.36.38-3.09,1.13-.48.5-.71,1.18-.71,1.87,0,.52.11.95.32,1.3.21.35.49.64.83.87.34.22.71.41,1.12.54s.8.26,1.18.37c.37.1.7.19,1,.3.3.1.54.23.71.39.18.16.27.36.27.6,0,.3-.14.55-.42.75s-.67.3-1.17.3c-.64,0-1.17-.16-1.6-.48-.33-.24-.6-.51-.81-.79-.1-.14-.31-.15-.44-.04l-1.48,1.29c.23.3.54.61.93.94s.86.6,1.42.82c.56.22,1.21.33,1.96.33.83,0,1.55-.14,2.16-.43.61-.29,1.09-.68,1.43-1.19.34-.51.51-1.1.51-1.77,0-.58-.12-1.07-.35-1.45s-.54-.69-.92-.92Z"/>
        <path class="cls-4" d="M127.4,55.26c-.38-.23-.79-.41-1.22-.55-.44-.14-.86-.25-1.27-.35-.44-.11-.79-.21-1.05-.3-.27-.09-.46-.19-.57-.32-.12-.12-.17-.27-.17-.45,0-.26.13-.46.38-.61.25-.15.57-.22.97-.22.45,0,.87.1,1.28.3.32.16.58.37.8.65.1.13.29.14.42.04l1.32-1.05c-.38-.6-.9-1.06-1.55-1.38-.65-.32-1.38-.48-2.18-.48-1.34,0-2.36.38-3.09,1.13-.48.5-.71,1.18-.71,1.87,0,.52.11.95.32,1.3.21.35.49.64.83.87.34.22.71.41,1.12.54s.8.26,1.18.37c.37.1.7.19,1,.3.3.1.54.23.71.39.18.16.27.36.27.6,0,.3-.14.55-.42.75s-.67.3-1.17.3c-.64,0-1.17-.16-1.6-.48-.33-.24-.6-.51-.81-.79-.1-.14-.31-.15-.44-.04l-1.48,1.29c.23.3.54.61.93.94s.86.6,1.42.82c.56.22,1.21.33,1.96.33.83,0,1.55-.14,2.16-.43.61-.29,1.09-.68,1.43-1.19.34-.51.51-1.1.51-1.77,0-.58-.12-1.07-.35-1.45s-.54-.69-.92-.92Z"/>
        <path class="cls-4" d="M94.97,52.05c-.38-.47-.86-.84-1.45-1.1-.59-.27-1.27-.4-2.06-.4-.84,0-1.57.15-2.17.46-.61.31-1.1.71-1.48,1.21-.38.5-.67,1.07-.86,1.69-.19.63-.29,1.27-.29,1.92s.1,1.33.29,1.95c.19.62.49,1.17.89,1.65.4.48.91.87,1.54,1.15.63.29,1.37.43,2.24.43.58,0,1.11-.05,1.56-.15s.89-.27,1.32-.5c.42-.23.87-.53,1.35-.9l-1.27-1.71c-.38.34-.82.6-1.31.79-.49.18-.99.28-1.51.28-.71,0-1.3-.18-1.77-.55-.39-.31-.64-.74-.76-1.29-.04-.17.09-.34.27-.34h6.56c.03-.19.04-.37.05-.54,0-.17.01-.3.01-.4,0-.71-.1-1.37-.3-2-.2-.63-.49-1.17-.87-1.64ZM89.17,54.75c.04-.34.15-.67.32-.99.17-.32.42-.58.76-.79.34-.2.76-.31,1.27-.31.34,0,.64.05.91.15.27.1.49.25.68.44s.34.41.45.66c.08.19.14.4.15.61.01.12-.09.21-.2.21h-4.34Z"/>
        <path class="cls-4" d="M85.87,34.8v-8.98h-2.2c-.24,0-.43.19-.43.43v8.37c0,.72-.08,1.33-.24,1.83-.16.5-.45.87-.87,1.12-.42.25-.99.38-1.72.38s-1.31-.13-1.72-.38c-.42-.25-.7-.63-.86-1.12-.16-.5-.23-1.11-.23-1.85v-8.77h-2.2c-.24,0-.43.19-.43.43v8.65c0,1.82.46,3.19,1.38,4.1.92.91,2.27,1.37,4.07,1.37s3.15-.47,4.08-1.4c.92-.93,1.39-2.32,1.39-4.17Z"/>
        <path class="cls-4" d="M102.38,40.04v-10.06h-2.25c-.16,0-.28.13-.28.28v9.78h2.53Z"/>
        <path class="cls-4" d="M109.07,36.74l-2.28-6.5c-.05-.15-.19-.25-.35-.25h-2.51l4.12,10.06h1.8c.17,0,.33-.1.39-.26l3.97-9.79h-2.73l-2.41,6.75Z"/>
        <path class="cls-4" d="M131.12,32.31c.23,0,.46.03.69.1.23.07.42.14.57.22l1.22-2.28c-.33-.2-.64-.35-.95-.44-.31-.09-.63-.13-.97-.13-.48,0-.94.13-1.4.38s-.84.6-1.15,1.05c-.05.08-.1.16-.14.24v-1.46h-2.55v10.06h2.27c.16,0,.28-.13.28-.28v-4.04c0-.56.02-.98.05-1.28.03-.29.08-.53.13-.72.12-.34.28-.61.48-.82.2-.2.42-.35.67-.45.25-.1.51-.14.79-.14Z"/>
        <path class="cls-4" d="M167.64,40.04h2.33v-6.34c0-1.22-.39-2.18-1.16-2.88-.78-.69-1.86-1.04-3.24-1.04-.86,0-1.66.13-2.4.38-.74.25-1.47.66-2.17,1.23l1.28,1.73c.42-.38.91-.68,1.46-.89.55-.21,1.09-.32,1.62-.32.64,0,1.15.15,1.52.44.37.29.56.74.56,1.34v.24h-2.9c-.48,0-.92.04-1.34.12-.41.08-.79.22-1.13.43-.39.22-.71.53-.95.95-.24.41-.36.91-.36,1.5,0,.65.17,1.23.5,1.73s.79.89,1.37,1.16c.58.27,1.23.41,1.97.41.52,0,1.01-.1,1.47-.31s.87-.53,1.23-.97c.06-.07.11-.15.16-.23l.18,1.3ZM167.1,37.09c-.22.35-.52.62-.9.82s-.79.3-1.23.3c-.5,0-.9-.12-1.2-.35-.3-.23-.45-.54-.45-.92,0-.18.03-.34.1-.48s.17-.26.31-.36c.15-.12.33-.2.54-.23.21-.03.42-.05.64-.05h2.53v.08c0,.45-.11.85-.34,1.19Z"/>
        <circle class="cls-4" cx="101.11" cy="27.13" r="1.37"/>
        <circle class="cls-4" cx="145.74" cy="27.13" r="1.37"/>
        <path class="cls-4" d="M156.19,31.38c-.05-.09-.1-.17-.16-.25-.34-.45-.75-.79-1.21-1.01-.47-.22-.98-.34-1.52-.34-.78,0-1.49.21-2.14.62-.65.42-1.17,1.01-1.56,1.79-.39.78-.58,1.71-.58,2.82,0,.99.17,1.89.52,2.68.35.8.84,1.42,1.48,1.88s1.4.68,2.29.68c.5,0,.99-.1,1.46-.3.47-.2.88-.53,1.24-1,.07-.09.13-.19.19-.29l.18,1.39h2.33v-13.35h-2.21c-.17,0-.3.14-.3.3v4.38ZM155.28,37.55c-.36.24-.79.37-1.3.37s-.92-.12-1.29-.36c-.37-.24-.65-.57-.85-1.01-.2-.44-.3-.95-.3-1.55s.1-1.11.3-1.54c.2-.43.48-.76.85-1,.37-.24.8-.36,1.29-.36s.94.12,1.3.36c.36.24.64.57.84,1.01s.3.95.3,1.53-.1,1.1-.3,1.53c-.2.44-.48.78-.84,1.02Z"/>
        <path class="cls-4" d="M179.04,31.38c-.05-.09-.1-.17-.16-.25-.34-.45-.75-.79-1.21-1.01-.47-.22-.98-.34-1.52-.34-.78,0-1.49.21-2.14.62-.65.42-1.17,1.01-1.56,1.79-.39.78-.58,1.71-.58,2.82,0,.99.17,1.89.52,2.68.35.8.84,1.42,1.48,1.88s1.4.68,2.29.68c.5,0,.99-.1,1.46-.3.47-.2.88-.53,1.24-1,.07-.09.13-.19.19-.29l.18,1.39h2.33v-13.35h-2.21c-.17,0-.3.14-.3.3v4.38ZM178.13,37.55c-.36.24-.79.37-1.3.37s-.92-.12-1.29-.36c-.37-.24-.65-.57-.85-1.01-.2-.44-.3-.95-.3-1.55s.1-1.11.3-1.54c.2-.43.48-.76.85-1,.37-.24.8-.36,1.29-.36s.94.12,1.3.36c.36.24.64.57.84,1.01s.3.95.3,1.53-.1,1.1-.3,1.53c-.2.44-.48.78-.84,1.02Z"/>
        <path class="cls-4" d="M93.85,29.78c-.48,0-.94.09-1.39.26-.45.17-.84.44-1.18.81-.14.15-.26.32-.37.51v-1.37h-2.55v10.06h2.27c.16,0,.28-.13.28-.28v-4.53c0-.76.08-1.38.24-1.86.16-.48.4-.83.72-1.05.32-.22.72-.34,1.21-.34.64,0,1.11.19,1.41.58.3.39.45,1,.45,1.85v5.63h2.27c.16,0,.28-.13.28-.28v-6.29c0-1.17-.32-2.08-.97-2.72s-1.54-.97-2.68-.97Z"/>
        <path class="cls-4" d="M123.25,31.28c-.38-.47-.86-.84-1.45-1.1-.59-.27-1.27-.4-2.06-.4-.84,0-1.57.15-2.17.46-.61.31-1.1.71-1.48,1.21-.38.5-.67,1.07-.86,1.69-.19.63-.29,1.27-.29,1.92s.1,1.33.29,1.95c.19.62.49,1.17.89,1.65.4.48.91.87,1.54,1.15.63.29,1.37.43,2.24.43.58,0,1.11-.05,1.56-.15s.89-.27,1.32-.5c.42-.23.87-.53,1.35-.9l-1.27-1.71c-.38.34-.82.6-1.31.79-.49.18-.99.28-1.51.28-.71,0-1.3-.18-1.77-.55-.39-.31-.64-.74-.76-1.29-.04-.17.09-.34.27-.34h6.56c.03-.19.04-.37.05-.54,0-.17.01-.3.01-.4,0-.71-.1-1.37-.3-2-.2-.63-.49-1.17-.87-1.64ZM117.45,33.98c.04-.34.15-.67.32-.99.17-.32.42-.58.76-.79.34-.2.76-.31,1.27-.31.34,0,.64.05.91.15.27.1.49.25.68.44s.34.41.45.66c.08.19.14.4.15.61.01.12-.09.21-.2.21h-4.34Z"/>
        <path class="cls-4" d="M141.18,34.5c-.38-.23-.79-.41-1.22-.55-.44-.14-.86-.25-1.27-.35-.44-.11-.79-.21-1.05-.3-.27-.09-.46-.19-.57-.32-.12-.12-.17-.27-.17-.45,0-.26.13-.46.38-.61.25-.15.57-.22.97-.22.45,0,.87.1,1.28.3.32.16.58.37.8.65.1.13.29.14.42.04l1.32-1.05c-.38-.6-.9-1.06-1.55-1.38-.65-.32-1.38-.48-2.18-.48-1.34,0-2.36.38-3.09,1.13-.48.5-.71,1.18-.71,1.87,0,.52.11.95.32,1.3.21.35.49.64.83.87.34.22.71.41,1.12.54s.8.26,1.18.37c.37.1.7.19,1,.3.3.1.54.23.71.39.18.16.27.36.27.6,0,.3-.14.55-.42.75s-.67.3-1.17.3c-.64,0-1.17-.16-1.6-.48-.33-.24-.6-.51-.81-.79-.1-.14-.31-.15-.44-.04l-1.48,1.29c.23.3.54.61.93.94s.86.6,1.42.82c.56.22,1.21.33,1.96.33.83,0,1.55-.14,2.16-.43s1.09-.68,1.43-1.19c.34-.51.51-1.1.51-1.77,0-.58-.12-1.07-.35-1.45s-.54-.69-.92-.92Z"/>
        <path class="cls-4" d="M147,40.04v-10.06h-2.25c-.16,0-.28.13-.28.28v9.78h2.53Z"/>
        <g>
          <path class="cls-4" d="M32.32,0C14.47,0,0,19.58,0,43.74s14.47,43.74,32.32,43.74,32.32-19.58,32.32-43.74S50.16,0,32.32,0ZM32.32,86.41c-17.27,0-31.31-19.14-31.31-42.67S15.05,1.06,32.32,1.06s31.31,19.14,31.31,42.67-14.05,42.67-31.31,42.67Z"/>
          <path class="cls-4" d="M36.31,57.83v-7.42h.87v6.75h.36c.23,0,.43-.05.61-.14.56-.29,1.23-.44,1.94-.44s1.38.16,1.95.45c.16.08.32.13.48.13h.11c.16,0,.32-.04.48-.13.57-.3,1.24-.45,1.95-.45s1.37.15,1.94.44c.17.09.38.14.61.14h.36v-7.56l-.19-.12c-.74-.49-1.71-.76-2.72-.76-.46,0-.91.05-1.33.16h-.04s0,.04,0,.04c.04.25.11.5.19.74v.04s.05-.01.05-.01c.36-.09.74-.14,1.13-.14.76,0,1.5.18,2.07.51v6.11c-1.25-.54-2.9-.54-4.15,0v-6.57l-.19-.12c-.74-.49-1.71-.76-2.72-.76s-1.98.27-2.72.76l-.16.11h-1.73v9.11s12.5,0,12.5,0v-.85h-11.67ZM38.02,50.05c.58-.33,1.31-.51,2.07-.51s1.5.18,2.07.51v6.11c-.62-.27-1.35-.41-2.07-.41s-1.45.14-2.07.41v-6.11Z"/>
          <g>
            <path class="cls-4" d="M41.61,36.73s.04,0,.06,0c1.88.19,3.59-1.17,3.81-3.05.11-.92-.15-1.83-.72-2.56-.58-.73-1.4-1.19-2.33-1.3-1.9-.22-3.64,1.14-3.87,3.05-.11.92.15,1.83.72,2.56s1.4,1.19,2.33,1.3ZM39.41,32.96c.17-1.42,1.45-2.45,2.88-2.31.02,0,.03,0,.05,0,.7.08,1.32.43,1.76.98.44.55.63,1.24.55,1.94-.17,1.42-1.45,2.45-2.88,2.31-.02,0-.03,0-.05,0-.7-.08-1.32-.43-1.76-.98-.44-.55-.63-1.24-.55-1.94Z"/>
            <path class="cls-4" d="M42.33,29.1c.33-.51.67-1.11.92-1.71.1.45.16,1.07.04,1.89.28.09.55.21.81.35.25-1.52.01-2.52-.25-3.11-.33-.09-.66-.15-1.01-.19-.05,0-.11,0-.16-.01-.16.93-.89,2.09-1.43,2.84.35-.06.71-.09,1.07-.06Z"/>
            <path class="cls-4" d="M46.21,33.46c.52.31,1.14.62,1.75.83-.44.13-1.07.21-1.91.13-.08.29-.2.56-.33.82,0,0,.02,0,.02,0,1.53.18,2.52-.1,3.1-.38.06-.25.11-.51.14-.77.02-.14.03-.28.04-.42-.93-.11-2.11-.78-2.88-1.27.07.34.1.69.09,1.05Z"/>
            <path class="cls-4" d="M40.78,39.14c-.09-.45-.13-1.06,0-1.87-.28-.09-.55-.2-.81-.34-.28,1.5-.07,2.5.18,3.08.34.09.69.16,1.05.2.04,0,.07,0,.11.01.19-.95.99-2.12,1.55-2.85-.36.07-.73.1-1.11.07-.35.5-.71,1.1-.97,1.7Z"/>
            <path class="cls-4" d="M37.89,33.96c-.06-.34-.07-.69-.04-1.05-.52-.32-1.12-.65-1.73-.88.45-.12,1.08-.18,1.92-.08.09-.29.22-.56.37-.81-1.54-.23-2.55.02-3.14.29-.09.33-.16.67-.2,1.01,0,.06-.01.12-.02.17.91.14,2.07.83,2.83,1.34Z"/>
            <path class="cls-4" d="M45.25,30.6c.33-.07.67-.17.98-.31-.15.22-.33.54-.59.86.15.25.27.52.37.8.98-1.03,1.36-2.19,1.45-2.6-.15-.21-.32-.42-.5-.61l-.21.22c-.47.49-1.27.8-2.23.93.28.2.53.44.75.7Z"/>
            <path class="cls-4" d="M45.43,35.72c-.2.27-.43.52-.68.74.09.34.21.71.37,1.03-.24-.15-.61-.32-.96-.61-.26.15-.53.28-.81.37,1.01.92,2.15,1.29,2.65,1.39.23-.17.45-.35.65-.55l-.18-.16c-.52-.45-.87-1.25-1.04-2.22Z"/>
            <path class="cls-4" d="M38.8,35.95c-.33.08-.68.19-.99.35.15-.23.32-.58.6-.91-.15-.26-.27-.53-.37-.81-.93,1.01-1.31,2.15-1.41,2.62.16.22.34.44.53.64l.18-.2c.46-.5,1.24-.84,2.19-1-.27-.2-.52-.43-.73-.69Z"/>
            <path class="cls-4" d="M38.7,30.71c.2-.26.44-.5.7-.71-.08-.33-.19-.67-.34-.98.23.15.57.32.9.6.26-.15.54-.27.83-.35-1.03-.97-2.2-1.34-2.66-1.43-.22.16-.43.33-.63.51l.22.2c.49.45.82,1.23.98,2.16Z"/>
          </g>
          <path class="cls-4" d="M25.51,51.79l-.55.56,2.04,2.82c.21.29.23.69.05,1.02-.18.32-.38.62-.62.89-.15.17-.33.15-.4.14-.16-.03-.28-.15-.32-.31l-1.32-4.17-.72.32,1.35,4.41c.12.4-.06.84-.41,1-.26.12-.54.22-.82.29-.23.06-.45.02-.61-.11-.16-.13-.25-.35-.25-.61l-.03-4.84h-.76s-.03,4.84-.03,4.84c0,.23-.1.44-.27.57-.17.14-.38.19-.58.13-.28-.07-.55-.17-.82-.29-.35-.16-.53-.6-.41-1l1.35-4.41-.69-.3-1.36,4.16c-.07.22-.25.29-.32.3-.09.02-.26.02-.4-.14-.23-.27-.44-.58-.62-.9-.18-.32-.16-.72.05-1.02l2.04-2.82-.54-.55-1.98,2.6c-.04.05-.1.06-.13.05-.05-.01-.07-.04-.08-.09,0-.02-.03-.19.03-.85.02-.22.12-.43.27-.58l2.93-2.96s-.21-.28-.25-.36c-.06-.11-.07-.22-.04-.32.03-.09.1-.15.18-.19.04-.02.09-.02.12-.02.42,0,.78,0,1.12,0,.06,0,.1-.02.14-.07.06-.08.12-.15.18-.21.14-.13.36-.2.58-.17.22.03.41.14.51.32.06.1.13.14.24.14,0,0,.87,0,1.05,0,.12,0,.22.05.28.13.06.09.07.21.02.33-.02.07-.06.13-.09.18-.02.04-.14.18-.14.18l2.87,3.03h0l1.13,1.19c0-.16-.02-.38-.04-.7-.04-.42-.22-.81-.51-1.11,0,0-2.13-2.18-2.27-2.32-.11-.11-.14-.2-.1-.36.07-.35,0-.7-.2-.98-.19-.26-.47-.42-.79-.45-.22-.02-.79-.01-.86,0h0c-.06,0-.11-.02-.15-.06-.08-.07-.18-.14-.29-.21-.46-.28-1.29-.27-1.78.2-.05.05-.1.07-.17.07,0,0-.59,0-.75,0h0c-.17,0-.34.04-.51.13-.49.25-.73.83-.59,1.39.02.08,0,.12-.04.17-.08.08-2.35,2.42-2.35,2.42-.29.3-.47.7-.51,1.12-.07.7-.05.95-.03,1.08.05.32.26.58.55.72h.02s0,.04,0,.04c-.12.46-.05.95.17,1.36.2.37.45.72.72,1.04.3.35.74.5,1.18.41h.03s0,.02,0,.02c.11.53.45.96.9,1.17.31.14.63.25.95.34.45.12.92.01,1.29-.29.03-.03.06-.06.09-.09l.06-.07.06.06s.07.09.12.12c.36.29.83.39,1.31.26.32-.08.64-.2.95-.34.47-.21.94-1.2.94-1.2.44.09.87-.06,1.17-.41.27-.32.51-.66.71-1.03,0,0,0,0,0-.01.31-.56.22-1.26-.14-1.8l-2.12-3.03Z"/>
          <path class="cls-4" d="M18.14,74.18c-.39,0-.71.32-.71.71s.32.71.71.71.71-.32.71-.71-.32-.71-.71-.71Z"/>
          <path class="cls-4" d="M46.95,74.18c-.39,0-.71.32-.71.71s.32.71.71.71.71-.32.71-.71-.32-.71-.71-.71Z"/>
          <path class="cls-4" d="M32.32,10.87c-11.91,0-21.56,14.72-21.56,32.87s9.65,32.87,21.56,32.87,21.56-14.72,21.56-32.87S44.23,10.87,32.32,10.87ZM52.82,43.19h-19.97V11.94c10.95.43,19.79,14.23,19.97,31.25ZM31.79,11.94v31.25H11.82c.19-17.02,9.03-30.82,19.97-31.25ZM11.82,44.24h19.97v31.29c-10.96-.43-19.8-14.25-19.97-31.29ZM32.85,75.53v-31.29h19.97c-.17,17.04-9.02,30.86-19.97,31.29Z"/>
          <path class="cls-4" d="M10.86,68.76c-.18.04-.33.06-.47.08-.15.02-.23.01-.26,0h-.06l-.14.1.49.7.08.09.13-.1v-.02s.03-.02.05-.03c.08-.05.16-.09.26-.12.11-.03.21-.05.3-.07l3.52-.74-1.87,3.13c-.07.12-.14.21-.19.27-.05.06-.11.11-.16.15-.01,0-.03.02-.06.04l-.15.1.64.9.08.09.13-.1v-.04s.03-.05.05-.1c.02-.06.05-.12.09-.2.04-.08.08-.17.13-.26.05-.09.1-.19.16-.28l2.5-4.19-.26-.36-4.99.97Z"/>
          <path class="cls-4" d="M10.51,66.81l2.1-1.02c.18-.09.34-.16.48-.22.14-.06.26-.11.36-.15.1-.04.18-.07.25-.09.07-.02.13-.03.17-.04l.15-.07-.33-.68-.07-.1-.11.05-.03.02s-.08.07-.14.11c-.06.04-.14.09-.23.14-.09.06-.21.12-.34.19-.13.07-.29.15-.47.24l-1.94.94,1.83-4.81-.13-.27-3.54,1.72c-.18.09-.34.16-.48.22-.14.06-.26.11-.36.15-.1.04-.19.07-.26.09-.07.02-.12.03-.17.04l-.15.07.33.68.07.1.11-.05.03-.02s.08-.07.14-.11c.06-.04.13-.09.23-.15.09-.06.21-.12.34-.19.13-.07.29-.15.47-.24l2-.97-1.84,4.81.12.25.07.1.11-.05.03-.02s.08-.07.14-.11c.06-.04.13-.09.23-.15.09-.06.21-.12.34-.19.13-.07.29-.15.47-.24Z"/>
          <path class="cls-4" d="M7.82,60.78l2.2-.78c.19-.07.36-.12.5-.17.14-.05.27-.08.37-.11.1-.03.19-.05.26-.06.07-.01.13-.02.18-.02l.16-.05-.33-.92-.05-.11-.11.04-.03.02s-.09.06-.15.09c-.06.04-.14.07-.24.12-.1.04-.22.09-.36.15-.14.06-.3.12-.49.19l-2.2.78c-.19.07-.36.12-.5.17-.14.04-.27.08-.38.11-.1.03-.19.05-.26.06-.07.01-.13.02-.18.02l-.16.05.33.92.05.11.11-.04.03-.02s.09-.06.15-.09c.06-.03.15-.08.24-.12.1-.04.22-.1.36-.15.14-.06.31-.12.5-.18Z"/>
          <path class="cls-4" d="M6.44,58.32l3.84-3.01-.11-.43-5-.89c-.18-.03-.34-.06-.46-.1-.15-.04-.21-.07-.25-.09l-.06-.02-.17.04.21.83.04.11.16-.04.02-.02s.02,0,.04-.01c.09-.02.18-.03.28-.02.11.01.21.03.3.04l3.55.57-2.87,2.25c-.11.08-.2.15-.28.18-.07.04-.14.06-.2.08-.02,0-.03,0-.07.01h-.02s-.15.03-.15.03l.27,1.07.04.11.16-.04.03-.04s.03-.04.07-.08c.04-.04.09-.1.16-.15.06-.06.14-.13.22-.2.08-.07.16-.14.25-.21Z"/>
          <path class="cls-4" d="M4.62,52.29c.11-.02.23-.05.38-.08.15-.03.32-.05.52-.08l2.31-.33c.2-.03.37-.05.52-.07.15-.02.28-.03.39-.03.11,0,.2,0,.27,0,.07,0,.13,0,.18.01l.17-.02-.24-1.65-.06-.52c0-.08-.02-.15-.03-.22l-.02-.19c0-.06,0-.1-.01-.12v-.11s-.89-.03-.89-.03l.07.17c.07.16.13.34.19.53.05.17.11.37.17.59.05.19.09.41.13.64l-1.99.28c-.01-.12-.03-.24-.03-.37-.01-.17-.02-.33-.02-.48,0-.17,0-.34-.01-.51v-.11s-.82-.06-.82-.06l.05.17c.04.12.07.26.11.41.03.13.07.3.11.49.03.16.06.34.1.53l-1.71.24-.03-.15c-.02-.07-.03-.15-.04-.22-.01-.08-.03-.14-.03-.2-.02-.16-.04-.31-.04-.44,0-.13,0-.24,0-.33,0-.1,0-.19.02-.27v-.11s-.8-.17-.8-.17l.07.2s.04.13.07.33c.03.17.07.38.1.62.04.24.08.51.12.8.04.29.09.59.13.88l.03.12.12-.02h.03s.1-.05.17-.07c.07-.02.16-.05.26-.07Z"/>
          <path class="cls-4" d="M3.59,47.61s.1-.03.17-.05c.07-.02.16-.03.27-.04.11-.01.24-.03.39-.04.15-.01.33-.02.53-.03l2.33-.11c.2,0,.38-.01.53-.02.15,0,.28,0,.39,0,.11,0,.19,0,.27.02.07,0,.13.02.18.03h.03s.14,0,.14,0l-.05-.98-.02-.12h-.12s-.03.01-.03.01c-.05.02-.1.03-.17.05-.07.02-.16.03-.26.04-.11.01-.24.03-.39.04-.15.01-.33.02-.53.03l-.67.03s0-.05,0-.08c0-.07,0-.14,0-.21,0-.06,0-.12-.01-.18,0-.03,0-.07-.01-.1l1.68-1.31c.07-.05.14-.1.2-.14.08-.05.12-.06.14-.06l.1-.02-.05-1.14-.02-.12h-.2s-.02.09-.02.09c-.01.04-.03.08-.05.12-.02.04-.06.08-.1.13-.04.05-.09.1-.15.15-.06.05-.13.11-.21.18l-1.6,1.25c-.06-.1-.12-.18-.2-.27-.1-.12-.22-.22-.36-.3-.13-.08-.28-.14-.44-.18-.16-.04-.33-.06-.52-.05-.24.01-.45.06-.63.16-.18.1-.34.23-.46.39-.12.16-.21.35-.27.56-.06.21-.08.44-.07.68.01.25.03.46.06.62.03.15.05.27.05.36,0,.06,0,.12,0,.17,0,.05,0,.1,0,.14v.15s0,.13,0,.13h.13s.03-.01.03-.01ZM3.79,46.11c0-.14.01-.27.06-.38.04-.11.11-.19.19-.27.09-.07.19-.13.32-.17.13-.04.28-.07.45-.08.04,0,.07,0,.1,0,.16,0,.31.02.43.06.15.04.28.11.38.2.1.09.18.19.23.32.06.13.09.28.09.45,0,.06,0,.12,0,.18,0,.03,0,.06,0,.09l-2.18.1s-.02-.07-.03-.12c-.02-.09-.03-.21-.04-.37Z"/>
          <path class="cls-4" d="M3.57,41.7c.11.14.25.25.41.34.16.09.35.14.56.15.19.01.37-.01.54-.07.16-.05.31-.12.46-.21.14-.09.27-.19.4-.3.12-.11.24-.22.35-.34.11-.11.23-.23.34-.33.11-.1.22-.2.33-.28.11-.08.23-.14.35-.19.11-.04.24-.06.37-.06.09,0,.18.02.25.06.07.03.14.08.19.14.05.06.09.13.12.22.03.08.04.18.03.29,0,.12-.03.23-.07.32-.05.1-.11.18-.18.26-.07.08-.16.14-.25.19-.09.05-.19.08-.29.1l-.09.02v.29s.95.14.95.14l.04-.06c.04-.05.09-.12.13-.21.05-.08.1-.18.14-.29.04-.11.08-.23.11-.35.03-.13.05-.27.06-.41.01-.26-.02-.49-.1-.68-.08-.19-.18-.36-.31-.49-.13-.13-.28-.23-.45-.29-.17-.07-.34-.1-.5-.11-.23-.01-.44.03-.65.13-.19.09-.38.21-.56.36-.17.14-.34.3-.51.46-.16.16-.32.31-.47.45-.15.13-.31.24-.46.33-.14.08-.29.11-.44.11-.09,0-.18-.02-.25-.05-.07-.03-.13-.07-.18-.12-.05-.05-.09-.11-.11-.19-.03-.08-.04-.17-.03-.27,0-.12.03-.21.06-.29.04-.08.09-.15.14-.21.06-.06.11-.1.17-.13.06-.03.12-.06.17-.07l.08-.02v-.28s-.85-.07-.85-.07l-.11.22c-.03.06-.06.13-.09.22-.03.08-.06.18-.08.28-.03.11-.04.22-.05.35,0,.18.02.35.07.52.06.17.14.32.25.46Z"/>
          <path class="cls-4" d="M3.72,37.56h.02s.11-.02.18-.02c.07,0,.16,0,.27,0,.11,0,.24.01.39.02.15.01.33.03.53.05l2.32.26c.2.02.38.04.52.07.15.02.27.04.38.07.1.02.19.04.26.06.07.02.12.04.17.06l.17.02.11-.97v-.12s-.14-.01-.14-.01h-.02s-.11.02-.18.02c-.07,0-.16,0-.27,0-.11,0-.24-.01-.39-.02-.15-.01-.33-.03-.53-.05l-2.32-.26c-.2-.02-.37-.05-.52-.07-.15-.02-.28-.04-.39-.06-.1-.02-.19-.04-.26-.06-.07-.02-.12-.04-.17-.06l-.17-.02-.11.97v.12s.14.01.14.01Z"/>
          <path class="cls-4" d="M4.66,34.94c-.01-.15-.02-.33-.02-.51,0-.17.02-.36.03-.59.02-.19.05-.4.09-.63l3.24.64c.2.04.37.08.52.11.15.03.27.07.37.1.1.03.19.06.26.08.07.02.12.05.16.07l.16.04.19-.96v-.12s-.12-.03-.12-.03h-.02s-.11,0-.18,0c-.07,0-.16,0-.27-.02-.11-.01-.24-.03-.38-.05-.15-.02-.32-.06-.52-.09l-3.24-.64c.05-.23.1-.43.16-.61.07-.22.13-.4.19-.55.07-.18.14-.34.21-.47l.09-.17-.89-.02v.11s-.02.07-.03.12l-.03.19c-.01.07-.02.14-.04.22l-.07.4c0,.05-.02.09-.02.11l-.4,2.01s-.01.06-.02.11l-.09.4c-.02.08-.03.15-.05.24l-.04.16c-.01.05-.02.09-.03.12l-.03.1.83.33-.02-.19Z"/>
          <path class="cls-4" d="M9.66,31.12c.1.11.15.17.16.2l.04.05.16.05.26-.81.02-.12-.15-.05h-.03s-.02,0-.05,0c-.09-.03-.17-.07-.25-.13-.09-.07-.17-.14-.24-.19l-.72-.63c.03-.12.07-.24.11-.38l.38-1.21c.05-.17.1-.32.14-.43l.99-.11c.14-.01.25-.02.33,0,.08,0,.16.02.22.04.01,0,.03.01.07.03l.17.06.33-1.05.02-.12-.16-.05-.04.02s-.05.02-.1.03c-.06.02-.13.03-.21.05-.08.02-.18.03-.28.05-.11.02-.21.03-.32.04l-4.85.54-.13.42,3.78,3.39c.14.12.26.23.34.33ZM6.86,27.75l2.02-.22c-.02.05-.03.11-.05.16l-.24.8c-.04.14-.09.27-.13.41l-.06.2-1.54-1.34Z"/>
          <path class="cls-4" d="M7.77,23.54c.12.14.28.26.46.34.18.08.35.13.52.14.17.01.34,0,.5-.03.16-.03.32-.07.48-.13.15-.06.31-.12.46-.18.15-.06.29-.13.44-.18.14-.06.28-.1.41-.14.13-.03.26-.04.39-.04.12,0,.25.03.37.09.09.04.15.09.21.15.06.06.1.13.12.2.03.08.04.16.03.24,0,.09-.03.18-.07.28-.05.11-.11.2-.19.27-.08.07-.16.13-.26.17-.09.04-.2.07-.3.08-.1.01-.21,0-.31-.01l-.09-.02-.12.27.84.49.06-.04c.06-.04.13-.08.2-.14.08-.06.16-.13.24-.22.08-.08.16-.18.24-.29.08-.11.15-.23.21-.36.11-.24.16-.46.16-.67,0-.21-.03-.4-.11-.57-.07-.17-.18-.32-.31-.44-.13-.12-.27-.22-.43-.29-.21-.09-.43-.14-.65-.12-.21.01-.43.06-.65.12-.21.07-.43.15-.64.24-.21.09-.41.17-.61.24-.19.07-.38.11-.55.13-.16.02-.31,0-.44-.06-.08-.04-.16-.09-.22-.14-.06-.05-.1-.11-.12-.18-.03-.07-.04-.14-.03-.22,0-.08.03-.17.07-.26.05-.1.1-.19.17-.25.07-.06.14-.11.21-.14.07-.03.14-.05.21-.06.07,0,.13-.01.18,0h.08s.12-.25.12-.25l-.7-.35-.08-.03-.17.15c-.05.05-.11.1-.17.17-.06.07-.12.14-.18.23-.06.09-.12.19-.17.31-.07.16-.12.33-.13.51-.01.18,0,.35.06.52.05.17.14.33.26.47Z"/>
          <path class="cls-4" d="M11.51,16.54c.09.16.22.31.39.43.16.11.32.19.49.24.16.04.33.07.5.07.16,0,.33,0,.5-.03.16-.03.32-.06.48-.09.16-.03.31-.06.47-.09.15-.03.29-.04.43-.05.13,0,.27,0,.39.03.12.03.24.08.34.16.07.05.13.12.18.19.04.07.07.14.08.22.01.08,0,.16-.02.25-.02.09-.07.17-.13.26-.07.09-.15.17-.24.23-.09.06-.19.1-.29.12-.1.02-.2.03-.31.02-.11-.01-.21-.03-.3-.07l-.09-.04-.17.24.73.65.07-.02c.06-.02.14-.06.23-.1.09-.04.18-.1.28-.17.1-.07.19-.15.29-.23.1-.09.19-.19.27-.31.15-.21.25-.42.29-.63s.05-.4,0-.58c-.04-.18-.11-.35-.22-.49-.1-.14-.22-.27-.36-.37-.18-.13-.39-.22-.61-.24-.21-.03-.43-.03-.66,0-.22.02-.45.06-.68.11-.22.05-.44.09-.64.11-.2.03-.39.04-.56.02-.16-.01-.3-.06-.42-.15-.08-.05-.14-.11-.18-.18-.04-.06-.07-.13-.09-.2-.01-.07-.01-.14,0-.22s.06-.16.12-.24c.07-.09.14-.16.22-.21.08-.05.16-.08.23-.1.08-.02.15-.02.22-.02.07,0,.13.02.18.03l.08.02.16-.23-.69-.53-.21.12c-.06.03-.13.08-.2.13-.07.05-.15.12-.23.19-.08.08-.16.17-.23.27-.1.14-.18.3-.23.47-.05.17-.06.35-.04.52.02.18.07.35.16.51Z"/>
          <path class="cls-4" d="M14.09,13.2c.07-.13.16-.28.27-.44.09-.14.21-.29.35-.47.12-.15.26-.31.42-.48l2.35,2.32c.14.14.27.27.37.38.1.11.19.2.26.29.07.08.13.15.17.21.04.06.07.11.1.15l.12.12.69-.69.07-.09-.08-.08-.03-.02s-.09-.06-.15-.09c-.06-.04-.13-.1-.21-.16-.08-.07-.18-.16-.29-.26-.11-.1-.24-.22-.38-.36l-2.35-2.32c.16-.16.32-.3.47-.42.18-.14.33-.26.46-.36.16-.11.3-.2.44-.28l.17-.09-.73-.5-.07.08s-.05.05-.08.09l-.13.14c-.05.05-.1.1-.15.16l-.28.29s-.06.07-.08.08l-1.44,1.46-.37.36c-.05.05-.11.11-.16.15l-.14.13s-.07.07-.09.08l-.08.07.51.73.09-.17Z"/>
          <path class="cls-4" d="M17.75,8.79s.05.02.1.04c.06.03.12.06.2.1.08.04.16.09.25.14.09.05.18.11.28.17l4.09,2.67.37-.24-.77-5.02c-.03-.18-.05-.34-.06-.47-.01-.15,0-.23,0-.26v-.06s-.09-.14-.09-.14l-.72.46-.09.08.09.14h.03s.01.03.03.05c.05.08.09.17.11.26.02.11.04.21.06.3l.6,3.55-3.05-1.99c-.11-.08-.2-.15-.26-.2-.06-.06-.11-.11-.14-.17,0-.01-.02-.03-.04-.07l-.09-.15-.93.6-.09.08.09.14h.04Z"/>
          <path class="cls-4" d="M24.05,5.02s.06.1.09.16c.03.07.07.15.11.25.04.1.08.23.13.37.05.15.1.32.16.51l.66,2.24c.06.19.1.36.14.51.04.14.07.27.09.38.02.1.04.19.04.26,0,.07.01.13.01.18l.04.16.11-.03c.06-.02.15-.04.28-.07l.76-.18c.13-.03.25-.06.34-.09.26-.08.51-.17.75-.29.24-.12.45-.25.65-.41.19-.16.36-.34.5-.54.14-.2.25-.42.32-.67.07-.24.11-.51.1-.8,0-.28-.06-.6-.15-.92-.14-.46-.32-.83-.55-1.11-.23-.28-.5-.49-.8-.61-.3-.13-.62-.2-.96-.18-.33,0-.68.06-1.02.16-.13.04-.26.08-.4.12l-.4.13c-.13.04-.25.08-.35.12-.1.03-.17.06-.21.07l-.1.03s-.08.02-.12.03l-.27.08.04.12v.03ZM25.14,5.11s.04-.02.06-.02c.06-.02.13-.05.21-.08l.23-.08c.08-.03.14-.05.2-.07.3-.09.58-.12.83-.09.25.02.48.1.68.23.2.13.39.32.54.55.16.24.29.53.39.87.09.31.14.58.15.82,0,.24-.01.45-.07.63-.05.18-.13.34-.23.47-.1.14-.22.25-.35.35-.13.1-.28.18-.43.25-.16.07-.31.13-.47.17-.04.01-.09.02-.14.04l-.18.04c-.06.01-.12.03-.17.04-.01,0-.02,0-.03,0-.04-.12-.09-.26-.14-.42-.07-.21-.14-.43-.21-.65-.07-.23-.14-.45-.21-.67-.07-.22-.12-.4-.17-.56-.02-.07-.05-.16-.07-.25l-.17-.62c-.03-.11-.06-.21-.09-.32l-.18-.64Z"/>
          <path class="cls-4" d="M30.81,3.57s.03.1.04.17c.01.07.03.16.04.27.01.11.03.24.04.39.01.15.02.33.03.53l.1,2.33c0,.2.01.38.02.53,0,.15,0,.28,0,.39,0,.11-.01.2-.02.27,0,.07-.02.13-.03.17v.03s0,.14,0,.14l.98-.04.12-.02v-.12s-.01-.03-.01-.03c-.02-.05-.03-.1-.05-.17-.02-.07-.03-.16-.04-.26-.01-.11-.03-.24-.04-.39s-.02-.33-.03-.53l-.1-2.33c0-.2-.01-.38-.01-.53,0-.15,0-.28,0-.39,0-.11,0-.2.02-.27,0-.07.02-.13.03-.18v-.03s0-.14,0-.14l-.98.04-.12.02v.12s.01.03.01.03Z"/>
          <path class="cls-4" d="M34.05,8.06c.2.29.46.55.77.75.31.2.68.35,1.08.44.21.04.41.07.61.07.06,0,.12,0,.18,0,.25-.02.49-.07.71-.15.22-.08.43-.19.62-.33.19-.14.36-.29.51-.47.15-.18.27-.37.38-.58.1-.21.18-.44.23-.66.09-.4.1-.79.03-1.16-.07-.37-.2-.7-.4-1-.2-.29-.46-.55-.77-.76-.31-.21-.68-.36-1.08-.45-.27-.06-.53-.08-.78-.06s-.49.07-.71.15c-.22.08-.43.19-.62.33-.19.14-.36.3-.5.48-.15.18-.27.38-.38.59-.1.21-.18.44-.23.66-.09.41-.1.8-.03,1.16.07.37.2.7.4.99ZM34.62,6.88c-.01-.32.02-.65.09-1,.07-.31.17-.58.31-.8.13-.22.29-.4.47-.53.18-.13.38-.22.6-.26.1-.02.19-.03.3-.03.13,0,.26.02.4.04.3.07.56.19.76.35.2.17.36.38.46.62.11.25.17.53.18.84.02.31-.02.65-.09,1-.07.31-.17.58-.31.81-.13.22-.29.4-.47.54-.18.13-.38.22-.6.26-.22.04-.45.04-.69-.02-.3-.07-.56-.19-.76-.36-.2-.17-.36-.38-.46-.63-.11-.25-.17-.53-.18-.84Z"/>
          <path class="cls-4" d="M40.24,10.72l.06-.1v-.03s.04-.1.07-.17c.02-.07.06-.15.1-.25.05-.1.1-.21.17-.35s.15-.29.25-.46l.33-.58s.04.03.06.04c.06.04.12.08.18.11.05.03.1.06.16.08.03.01.06.03.09.04l.21,2.12c0,.08.01.17,0,.25,0,.09-.01.14-.02.15l-.04.1.99.56.11.05.1-.18-.06-.06s-.05-.07-.07-.11c-.02-.04-.04-.09-.06-.15-.02-.06-.03-.13-.05-.21-.01-.08-.03-.17-.04-.28l-.21-2.02c.11,0,.22,0,.33-.02.15-.03.3-.08.44-.14.14-.07.27-.16.39-.28.12-.11.23-.25.32-.41.12-.21.18-.42.2-.62.02-.21-.01-.41-.08-.6-.07-.19-.18-.37-.33-.53-.15-.16-.33-.3-.54-.42-.22-.13-.41-.22-.56-.28-.15-.06-.26-.11-.33-.15-.05-.03-.1-.06-.15-.09-.05-.03-.09-.05-.12-.08l-.12-.09-.12-.06-.06.12v.03s-.04.1-.06.17c-.02.07-.06.15-.1.25-.05.1-.1.22-.17.35-.07.13-.15.29-.25.46l-1.15,2.03c-.1.18-.19.33-.27.46-.08.13-.15.24-.21.33-.06.09-.11.16-.16.22-.04.05-.08.1-.12.13l-.09.14.85.48.11.05ZM42.14,8.63c-.14-.02-.29-.08-.43-.16-.05-.03-.1-.06-.15-.1-.02-.02-.05-.03-.07-.05l1.08-1.9s.07.02.12.04c.09.03.2.09.34.16.13.07.22.16.29.25.07.09.11.2.13.3.02.11,0,.23-.02.37-.03.14-.09.28-.18.42-.1.18-.21.32-.33.43-.12.1-.24.17-.37.21-.13.04-.26.05-.4.02Z"/>
          <path class="cls-4" d="M49.56,12.2c.17-.07.32-.13.44-.17.14-.05.22-.06.25-.06h.06s.11-.14.11-.14l-.63-.58-.1-.07-.11.12v.03s-.02.02-.04.04c-.06.07-.14.12-.23.17-.1.05-.19.09-.28.13l-3.28,1.48,1.16-3.46c.04-.13.09-.23.13-.31.04-.07.08-.13.13-.18.01-.01.02-.02.05-.05l.13-.13-.81-.74-.1-.07-.11.12v.04s0,.05-.02.11c-.01.06-.03.13-.05.21-.02.09-.04.18-.07.28-.03.1-.06.2-.09.31l-1.55,4.63.33.3,4.67-2.01Z"/>
          <path class="cls-4" d="M49.4,14.93c-.22.11-.43.21-.64.31l-1.12.53c-.1.04-.18.07-.25.09-.07.01-.12.01-.17.02h-.05s-.13.1-.13.1l.55.81.1-.1s.06-.06.09-.09c.03-.03.07-.06.12-.1.05-.04.1-.08.17-.12.05-.03.13-.08.25-.15.12-.07.25-.14.41-.22.16-.08.33-.17.51-.26l.55-.28c.34-.17.7-.35,1.09-.54l-1.96,3.74.18.35,4.19-.46-2.3,2.06s-.05.05-.08.06c-.02.02-.05.04-.07.05-.06.04-.12.08-.17.1-.07.03-.09.03-.1.04l-.16.09.58.85.08.09.13-.08v-.03s.04-.06.07-.09c.02-.04.06-.08.1-.13.04-.05.1-.11.17-.18.07-.07.15-.15.25-.23l3.27-2.96-.29-.43-4.6.51,2.14-4.1-.36-.52-.36.19c-.12.06-.26.13-.42.21-.16.08-.34.17-.54.27l-.61.3c-.21.1-.43.21-.64.32Z"/>
          <path class="cls-4" d="M52.98,25.13c-.15-.03-.22-.05-.25-.06h-.06s-.16.04-.16.04l.28.81.05.11.15-.05.02-.03s.02-.01.04-.02c.09-.03.18-.04.28-.04.11,0,.22,0,.31.01l.95.07c.04.11.09.24.14.37l.42,1.2c.06.17.11.32.15.43l-.72.68c-.1.09-.19.16-.26.21-.07.04-.14.08-.2.1-.02,0-.03.01-.07.02h-.02s-.15.05-.15.05l.36,1.04.05.11.15-.05.02-.04s.03-.04.06-.08c.04-.05.08-.1.14-.17.06-.06.12-.14.2-.21s.15-.15.23-.23l3.55-3.34-.15-.42-5.06-.44c-.18-.01-.34-.03-.47-.05ZM57.23,26.14l-1.49,1.39c-.02-.05-.04-.1-.06-.16l-.42-1.18-.07-.19,2.04.14Z"/>
          <path class="cls-4" d="M55.99,30.77c-.2.04-.37.07-.52.1-.15.03-.27.05-.38.06-.11.01-.19.02-.27.02-.07,0-.13,0-.18,0l-.16.03.15.74.04.11.12-.02h.03s.1-.06.16-.08c.07-.03.15-.05.26-.09.1-.03.23-.06.37-.1.15-.04.32-.07.52-.11l2.11-.44-2.95,4.21.06.29,3.85-.8c.2-.04.37-.07.52-.1.15-.03.28-.05.38-.06.11-.01.2-.02.27-.02.07,0,.13,0,.18,0l.16-.03-.15-.74-.04-.11-.12.02h-.03s-.1.06-.16.08c-.07.03-.15.06-.26.09-.11.03-.23.06-.38.1-.15.04-.32.07-.52.12l-2.18.45,2.95-4.21-.06-.28-.04-.11-.12.02h-.03s-.1.06-.16.08c-.07.03-.15.06-.26.09-.11.03-.23.06-.38.1-.15.04-.32.07-.52.11l-2.29.48Z"/>
          <path class="cls-4" d="M60.4,36.67c-.11.02-.24.04-.39.05-.15.02-.33.03-.53.05l-2.33.19c-.2.02-.38.03-.53.04-.15,0-.28.01-.39.01-.11,0-.2,0-.27-.01-.07,0-.13-.01-.18-.02h-.03s-.14,0-.14,0v.12c.01.07.02.16.02.28v.39c.02.14.02.27.02.41,0,.14.01.25.02.35.02.27.07.54.13.79.07.25.16.5.27.72.11.22.26.42.42.6.17.18.37.33.59.45.22.12.48.21.76.26.18.03.38.05.6.05.11,0,.22,0,.34-.01.48-.04.88-.15,1.2-.32.32-.17.58-.39.76-.66.19-.26.31-.57.38-.9.06-.33.08-.67.05-1.03-.01-.13-.02-.27-.04-.42l-.09-.79c-.01-.1-.02-.18-.02-.22,0-.03,0-.06,0-.1,0-.04,0-.08,0-.12l-.02-.28h-.13s-.03.02-.03.02c-.05.02-.1.03-.17.05-.07.02-.16.04-.27.05ZM59.54,37.67c.11,0,.22-.01.33-.02l.67-.04s0,.04.01.07c.01.07.02.14.03.22l.03.24c0,.08.02.15.02.21.02.31,0,.59-.08.83-.07.24-.2.45-.37.62-.17.17-.39.31-.65.42-.27.11-.58.17-.93.2-.32.03-.6.02-.83-.02-.23-.04-.44-.11-.61-.19-.17-.09-.31-.19-.42-.32-.11-.13-.2-.27-.27-.41-.07-.15-.12-.31-.16-.47-.04-.17-.06-.33-.07-.5,0-.04,0-.09,0-.15,0-.06,0-.12,0-.18,0-.06,0-.12,0-.17,0-.01,0-.02,0-.03.13-.02.27-.04.44-.05.22-.02.45-.05.68-.07l.7-.07c.23-.02.42-.04.58-.05.08,0,.16-.01.26-.02l.64-.04Z"/>
          <path class="cls-4" d="M61.34,43.07h-.15s-.1.03-.17.04c-.07.01-.16.02-.27.03-.11,0-.24.01-.39.02-.15,0-.33,0-.53,0l-2.34-.03c-.2,0-.38,0-.53-.01-.15,0-.28-.01-.39-.03-.11-.01-.2-.02-.27-.03-.07-.01-.13-.02-.17-.04h-.17s-.01.97-.01.97v.12s.15,0,.15,0h.02s.11-.03.18-.04c.07-.01.16-.02.26-.03.11,0,.24-.01.39-.02.15,0,.33,0,.53,0l2.34.03c.2,0,.38,0,.53.02.15,0,.28.02.39.03.11,0,.2.02.27.03.07.01.13.03.17.04h.17s.01-.97.01-.97v-.12Z"/>
          <path class="cls-4" d="M61.18,46.14h-.02s-.11.02-.18.03c-.07,0-.16,0-.27,0-.11,0-.24,0-.39-.02-.15,0-.33-.02-.53-.04l-2.33-.22c-.2-.02-.38-.04-.53-.06-.15-.02-.28-.04-.38-.06-.1-.02-.19-.04-.26-.06-.07-.02-.12-.04-.17-.05l-.17-.02-.07.76v.12s.14.01.14.01h.02s.11-.02.18-.02c.07,0,.16,0,.27,0,.11,0,.24,0,.39.02.15,0,.33.02.53.04l2.14.2-4.02,3.12-.04.03-.03.3,3.91.37c.2.02.38.04.53.06.15.02.28.04.38.06.11.02.19.04.27.06.07.02.12.03.17.05l.17.02.07-.76v-.12s-.14-.01-.14-.01h-.02s-.11.02-.18.02c-.07,0-.16,0-.27,0-.11,0-.24,0-.39-.02-.15,0-.33-.02-.53-.04l-2.21-.21,4.02-3.12.04-.03.03-.28v-.12s-.14-.01-.14-.01Z"/>
          <path class="cls-4" d="M60.37,52.81s-.11,0-.18,0c-.07,0-.16,0-.27-.02-.11-.01-.24-.03-.38-.06-.15-.03-.32-.06-.52-.1l-2.29-.47c-.2-.04-.37-.08-.52-.11-.15-.03-.27-.07-.37-.1-.1-.03-.19-.06-.25-.09-.07-.03-.12-.05-.16-.07l-.16-.04-.34,1.64s-.01.06-.02.11l-.09.4c-.02.07-.03.15-.05.21l-.05.19c-.01.05-.02.09-.03.12l-.03.11.82.33v-.19c-.02-.17-.02-.36-.01-.57,0-.18.02-.38.04-.62.02-.2.05-.41.1-.64l1.97.4c-.03.12-.06.24-.09.36-.05.17-.09.32-.14.46-.05.16-.11.32-.16.48l-.04.1.75.33v-.17c.02-.12.03-.26.05-.42.02-.14.04-.3.07-.5.02-.16.05-.34.09-.53l1.69.35-.02.15c-.01.07-.02.15-.03.23-.01.08-.02.14-.04.2-.03.16-.07.3-.11.43-.04.12-.07.23-.11.31-.04.1-.07.18-.11.25l-.05.1.7.44v-.21s.01-.13.04-.34c.03-.17.07-.38.11-.62.05-.24.1-.51.16-.8h0c.06-.29.12-.58.18-.87v-.12s-.12-.03-.12-.03h-.02Z"/>
          <path class="cls-4" d="M59.33,57.57s-.11,0-.18-.02c-.07-.01-.16-.03-.26-.05-.11-.03-.23-.06-.38-.1-.14-.04-.31-.1-.5-.16l-2.22-.73c-.19-.06-.36-.12-.5-.17-.14-.05-.26-.1-.36-.14-.1-.04-.18-.08-.24-.11-.06-.03-.11-.06-.15-.09l-.16-.06-.24.72-.02.12.12.04h.03s.11.01.18.02c.07.01.16.03.26.06.11.02.23.06.37.1.14.04.31.1.5.16l2.04.68-4.66,2.17-.09.28,3.73,1.23c.19.06.36.12.5.17.14.05.26.1.36.14.1.04.18.08.25.11.06.03.11.06.15.09l.16.06.24-.72.02-.12-.12-.04h-.03s-.11-.01-.18-.02c-.07-.01-.16-.03-.26-.05-.11-.03-.23-.06-.38-.1-.14-.04-.31-.1-.5-.16l-2.11-.7,4.62-2.15.05-.02.09-.27.02-.12-.11-.04h-.04Z"/>
          <path class="cls-4" d="M56.52,63.74c-.12-.14-.27-.26-.46-.35-.17-.08-.35-.13-.52-.15-.17-.02-.34-.01-.5.02-.16.03-.32.07-.48.12-.15.05-.31.11-.46.17-.15.06-.3.12-.44.18-.14.05-.28.1-.42.13-.13.03-.26.04-.39.04-.12,0-.25-.04-.37-.09-.08-.04-.15-.09-.21-.15-.05-.06-.09-.13-.12-.2-.02-.08-.03-.16-.03-.24,0-.09.03-.18.08-.28.05-.11.12-.2.19-.27.08-.07.17-.13.26-.17.1-.04.2-.07.3-.07.11,0,.21,0,.31.02l.09.02.13-.27-.83-.51-.06.04c-.06.03-.13.08-.21.14-.08.06-.16.13-.24.21-.08.08-.16.18-.24.28-.08.11-.15.23-.21.36-.11.23-.17.46-.18.67,0,.21.03.4.1.57.07.17.17.32.3.45.13.12.27.22.42.3.21.1.42.14.65.13.21-.01.43-.05.65-.11.22-.06.43-.14.65-.23.21-.09.41-.16.61-.23.19-.06.38-.1.55-.12.16-.02.31,0,.44.07.08.04.16.09.21.14.05.05.09.11.12.18.03.07.04.14.03.22,0,.08-.03.17-.07.26-.05.1-.11.19-.17.25-.07.06-.14.11-.21.14-.07.03-.14.05-.21.06-.07,0-.13,0-.18,0h-.08s-.12.24-.12.24l.77.4.18-.16c.05-.04.11-.1.17-.16.06-.06.12-.14.19-.23.06-.09.12-.19.18-.3.08-.16.12-.33.14-.51.02-.18,0-.35-.05-.52-.05-.17-.13-.33-.25-.47Z"/>
          <path class="cls-4" d="M54.93,68.03s-.1-.03-.17-.06c-.07-.03-.15-.06-.25-.11-.1-.05-.21-.11-.34-.18-.13-.07-.28-.16-.46-.26l-2.01-1.19c-.17-.1-.32-.2-.45-.28-.13-.08-.23-.15-.32-.22-.09-.06-.16-.12-.21-.16-.05-.04-.1-.08-.13-.12l-.14-.09-.5.84-.05.11.1.06h.03s.1.04.17.07c.07.03.15.06.24.11.1.05.21.11.34.18.13.07.29.16.46.26l2.01,1.19c.17.1.32.2.45.28.13.08.23.15.32.22.09.06.16.12.21.16.05.05.1.09.13.12l.14.09.5-.84.05-.11-.1-.06h-.03Z"/>
          <path class="cls-4" d="M52.43,69.99c-.15-.11-.32-.2-.48-.25-.16-.05-.33-.08-.5-.08-.16,0-.33,0-.5.03-.16.02-.32.05-.48.08-.16.03-.31.06-.47.09-.15.03-.29.04-.43.04-.14,0-.27-.01-.39-.04-.12-.03-.23-.08-.34-.16-.07-.05-.13-.12-.17-.19-.04-.07-.07-.14-.08-.22,0-.08,0-.16.02-.24.02-.09.07-.17.13-.26.07-.09.15-.17.24-.22.09-.06.19-.09.29-.11.1-.02.21-.03.31-.01.11.01.21.04.3.08l.09.04.18-.23-.72-.66-.07.02c-.06.02-.14.05-.23.1-.09.04-.18.1-.28.16-.1.06-.19.14-.29.23-.1.09-.19.19-.28.31-.15.21-.26.42-.3.62-.05.2-.05.4-.02.58.04.18.11.35.21.5.1.15.22.27.35.37.18.14.39.22.61.25.21.03.43.04.66.02.22-.02.45-.05.68-.1.22-.04.44-.08.64-.1.2-.02.39-.03.57-.01.16.01.3.06.42.15.08.06.14.12.18.18.04.06.07.13.08.2.01.07,0,.14-.01.22-.02.08-.06.16-.12.24-.07.09-.14.16-.22.21-.08.05-.16.08-.23.09-.08.02-.15.02-.22.01-.07,0-.13-.02-.18-.03l-.08-.03-.17.22.68.54.21-.12c.06-.03.13-.08.2-.13s.15-.11.23-.19c.08-.07.16-.16.23-.26.11-.14.18-.3.23-.47.05-.17.07-.35.05-.52-.02-.18-.07-.35-.15-.51-.09-.17-.21-.31-.38-.43Z"/>
          <path class="cls-4" d="M25.69,77.07c-.28-.13-.56-.21-.83-.26-.27-.04-.53-.05-.79-.03-.25.02-.5.08-.72.17-.23.09-.44.2-.63.34-.19.14-.36.3-.52.49-.15.18-.28.39-.37.6-.17.38-.26.76-.26,1.14s.07.74.22,1.07c.15.34.37.65.66.92.29.28.65.51,1.06.7.2.09.42.17.64.23.22.06.43.09.63.1h.05s.67-.65.67-.65l-.14-.21-.09.04c-.12.05-.24.09-.36.12-.12.02-.25.04-.37.04-.13,0-.27-.01-.4-.04-.13-.03-.25-.07-.37-.12-.33-.15-.59-.34-.78-.56-.19-.22-.32-.47-.39-.74-.07-.27-.09-.57-.05-.88.04-.31.14-.64.28-.96.13-.29.29-.53.48-.71.19-.18.39-.32.61-.4.22-.08.46-.12.71-.1.25.02.51.08.77.2.27.12.5.28.69.47.18.19.32.4.42.62l.03.07h.23s.06-.87.06-.87l-.04-.04c-.31-.3-.69-.55-1.12-.75Z"/>
          <path class="cls-4" d="M31.62,78.52v.14s-.01.02-.01.02c0,.05.01.11.02.18,0,.07,0,.16,0,.27,0,.11-.01.24-.02.39-.01.15-.03.33-.05.53l-.08.77c-.08,0-.16-.01-.26-.02-.14-.01-.3-.02-.46-.04-.17-.01-.34-.03-.51-.05-.18-.02-.35-.03-.52-.05-.17-.02-.33-.04-.49-.05-.11-.01-.21-.03-.3-.04l.09-.8c.02-.2.04-.38.07-.52.02-.15.04-.28.06-.39.02-.1.04-.19.06-.26.02-.07.04-.12.06-.17l.02-.17-.97-.11h-.12s-.02.14-.02.14v.02s.02.11.02.18c0,.07,0,.16,0,.27,0,.11,0,.24-.02.39-.01.15-.03.33-.05.53l-.25,2.32c-.02.2-.04.38-.06.52-.02.15-.04.28-.06.38-.02.1-.04.19-.06.26-.02.07-.04.12-.06.17l-.02.17.98.11h.12s.01-.14.01-.14v-.02s-.02-.11-.02-.18c0-.07,0-.16,0-.27,0-.11.01-.24.02-.39.01-.15.03-.33.05-.53l.1-.94c.09,0,.19.02.29.03.16.01.32.03.51.06l.51.06c.18.02.36.04.52.06.17.02.32.04.47.06.09.01.17.02.24.03l-.1.94c-.02.2-.04.38-.07.52-.02.15-.04.28-.06.38-.02.1-.04.19-.06.26-.02.07-.04.12-.06.17l-.02.17.97.11h.12s.02-.14.02-.14v-.02s-.02-.11-.02-.18c0-.07,0-.16,0-.27,0-.11,0-.24.02-.39.01-.15.03-.33.05-.53l.25-2.32c.02-.2.04-.38.06-.52.02-.15.04-.28.06-.38.02-.11.04-.19.06-.26.02-.07.04-.12.06-.17l.02-.16-.98-.11h-.12Z"/>
          <path class="cls-4" d="M35.49,83.48s-.04-.1-.06-.17c-.02-.07-.04-.15-.06-.26-.02-.11-.04-.23-.07-.38-.02-.15-.05-.32-.07-.52l-.28-2.32c-.02-.2-.04-.38-.05-.53-.01-.15-.02-.28-.02-.39,0-.11,0-.2,0-.27,0-.07,0-.13.02-.18v-.03s-.01-.14-.01-.14l-.97.12-.12.03v.12s.02.03.02.03c.02.04.04.1.06.17.02.07.04.16.06.26.02.11.04.24.07.38.02.15.05.32.07.52l.28,2.32c.02.2.04.38.06.53.01.15.02.28.02.39,0,.11,0,.2,0,.27,0,.07,0,.13-.02.18v.03s.01.14.01.14l.97-.12.12-.03v-.12s-.02-.03-.02-.03Z"/>
          <path class="cls-4" d="M39.62,81.86c-.15.09-.32.17-.5.26-.16.08-.35.16-.57.24-.19.07-.39.14-.61.21l-.89-3.18c-.05-.19-.1-.36-.13-.51-.03-.15-.06-.27-.08-.38-.02-.1-.03-.19-.04-.27,0-.07-.01-.13-.01-.18l-.04-.16-.95.26-.11.05.03.12v.03s.07.09.1.16c.03.07.07.15.1.25.04.1.08.23.12.37.04.14.09.31.15.51l.63,2.25c.05.19.1.37.14.51.04.14.06.27.08.38.02.1.03.19.04.26,0,.07,0,.13,0,.18l.04.16,1.61-.45s.05-.01.11-.03l.39-.1c.07-.02.14-.04.21-.05l.19-.04c.05-.01.09-.02.12-.03l.11-.02-.08-.89-.16.1Z"/>
          <path class="cls-4" d="M43.63,80c-.13.12-.28.23-.44.35-.14.1-.31.22-.51.35-.17.11-.36.22-.56.32l-.9-1.79c.11-.05.22-.1.34-.15.16-.07.31-.12.45-.18.16-.06.32-.12.48-.17l.1-.04-.21-.79-.14.1c-.1.07-.22.15-.35.23-.12.07-.26.16-.43.26-.14.08-.3.17-.47.26l-.78-1.54.13-.07c.06-.04.13-.08.2-.11.07-.04.13-.07.18-.1.15-.07.28-.13.4-.18.12-.05.22-.08.31-.11.1-.03.18-.05.26-.07l.11-.02-.09-.83-.17.13s-.14.09-.29.18c-.15.08-.34.18-.55.3-.22.11-.46.24-.72.37h0c-.26.13-.53.27-.79.4l-.1.07.06.11.02.03s.07.08.11.14c.04.06.09.13.15.22.06.09.12.21.19.34.07.13.15.29.24.47l1.05,2.09c.09.18.17.34.23.48.06.14.11.25.15.35.04.1.07.18.09.25.02.07.03.13.04.17l.07.15,1.49-.75s.05-.03.1-.05l.37-.18c.07-.03.14-.06.2-.09l.17-.08c.05-.02.09-.04.12-.05l.1-.04-.25-.85-.14.13Z"/>
          <path class="cls-4" d="M26.5,28.58c-.41-.56-1.25-.55-1.64.02l-1.49,2.16h0s-.71-1.02-.71-1.02c-.36-.53-1.11-.59-1.57-.14l-3.45,3.53c-.1.1-.17.22-.2.35l-.23.95c-.02.09-.07.18-.15.26l-2.92,3.16.88.27,2.23-2.4h0c.07,0,.14-.02.2-.04.39-.11.84-.41,1.14-.41.14,0,.24.07.29.25.16.58-.7,1.45.03,1.51.05,0,.09,0,.14,0,.67,0,1.36-.43,2.9-1.36.36-.22.67-.3.93-.3.33,0,.59.13.81.25,0,0,.48.3.92.08l-.5-.78h0s0,0,0,0c-.28-.16-.68-.37-1.23-.37-.44,0-.9.14-1.35.42,0,0-1.43.87-1.85,1.06.05-.23.06-.48-.01-.73-.14-.53-.55-.86-1.08-.86-.09,0-.19.02-.29.04h0s-.03,0-.04,0c-.11,0-.2-.09-.2-.2,0-.02,0-.04,0-.06h0s.11-.36.11-.36c.03-.11.09-.2.17-.28l3.17-3.26c.17-.17.44-.14.57.05l5.39,7.72.83-.25-3.68-5.24s.08-.03.13-.03c.49,0,1.54.9,1.95.9,0,0,.01,0,.02,0,.46-.04.35-.2.29-.55-.11-.51-.03-.65.12-.65.16,0,.41.17.6.22.08.02.21.03.35.03.08,0,.16,0,.25-.01l.9,1.23.85-.26-3.59-4.91ZM24.63,32.6h0,0s0,0,0,0ZM27.14,31.46c-.3,0-.57.13-.75.35-.13.16-.19.33-.22.51,0,0-.29-.22-.76-.41-.05-.02-.1-.04-.14-.06-.04-.01-.09-.03-.13-.04-.03,0-.05-.02-.08-.03h0c-.31-.08-.67-.14-1.07-.11l-.13-.19.69-1,.84-1.22c.13-.19.42-.2.56,0l1.07,1.46.62.84c-.15-.06-.32-.11-.51-.11Z"/>
        </g>
      </g>
      <g>
        <g>
          <path class="cls-2" d="M273.45,52.58c-.44.11-.28-.99,0-1.04,4.28-.44,4.67-.55,4.5-8.67l-.33-19.49-12.79,29.1c-.11.27-.77.39-.99-.05l-13.07-27.51-.33,17.95c-.11,7.25-.11,8.24,5,8.67.16,0,.33,1.15-.11,1.04-1.7-.22-3.19-.33-5.55-.33-3.18,0-4.5,0-6.86.33-.44.11-.27-.99,0-1.04,4.89-.55,5.11-1.04,5.28-8.67l.38-19.27c.06-3.79-1.92-5.54-6.09-5.98-.27-.05-.44-1.1,0-.99,2.75.39,5.11.39,9.83.39l13.45,28.82,8.24-18.83c1.59-3.62,3.13-7.19,3.9-10.1,3.62.27,7.14.11,9.83-.27.55-.06.28.99.11.99-5.71.5-5.65.82-5.49,8.73l.33,16.53c.16,7.91,0,8.18,5.77,8.67.16,0,.38,1.15-.05,1.04-1.76-.22-4.94-.33-7.3-.33-3.18,0-5.22,0-7.63.33"/>
          <path class="cls-1" d="M366.18,33.15c-.78.39-2.47,0-2.47-1.17,0-3-1.3-5.86-.78-9.12.39-1.69,1.96-2.48,3.65-2.87.39-.13.91,0,1.3,0,3.26,4.04,2.08,9.9-1.69,13.16M311.21,28.2c-2.86-.39-6.25,1.3-7.03,4.17,0,1.56-.91,3.26-.39,4.95.39,2.08,1.95,2.87,4.04,2.47,3.78-.78,4.56-3.78,5.47-6.64.39-2.08,0-4.95-2.08-4.95M357.85,41.88c-.39.39-.39,1.17-.78,1.56-2.87,2.08-5.74,3.78-9.12,5.47h-1.17c-1.31.39-2.09.78-3.39.78-6.12,2.09-12.38,4.17-19.02,2.48-4.95-1.7-8.6-6.12-9.12-11.6-.39-.78-.78-2.08-2.48-2.08-4.04,4.95-8.21,10.81-14.46,13.29-4.56-2.48-5.73-8.73-4.95-13.29,4.17-3.65,7.43-7.82,11.2-11.99.78-.39,2.08-.78,2.48-1.17.78-1.7,1.69-3.39,3.26-3.78,2.48-.39,4.17-2.87,6.25-3.65,1.69-.52,2.48-.52,4.17.78,1.17.91,2.86,0,4.17,0,1.95,0,2.47,3.25,1.95,4.95-1.57,3.78-1.17,7.82-1.17,11.98.39,2.87,2.08,5.86,4.95,6.65.79,0,1.7.39,2.09.39,1.69.78,3.25,2.08,4.95,1.69.39,0,1.17-.91,1.69-.91,2.08,0,3.64.52,5.73,0,2.08-.78,3.78-1.56,5.86-1.95,1.95-.52,3.65-1.69,5.34-2.47,1.56-.91,3.64-1.3,4.95-2.48.39,0,1.17,0,1.69-.52.39,3-3,4.17-5.08,5.86"/>
        </g>
        <g>
          <path class="cls-3" d="M251.66,70.49c-.75,0-1.45.02-1.99.09-.07.01-.05-.21-.02-.21,1.01-.1,1.22-.37,1.19-2.06l-.07-4.83-2.98,7.1s-.14.05-.15,0l-3.27-6.96-.07,4.69c-.03,1.47.09,1.95,1.29,2.06.04,0,.07.22,0,.21-.4-.06-.87-.09-1.41-.09-.73,0-1.27.02-1.81.09-.07.01-.03-.21,0-.21,1.17-.12,1.34-.51,1.38-2.06l.08-4.59c0-.63-.55-1.31-1.57-1.41-.04,0-.07-.23,0-.2.65.08,1.52.08,2.72.08l3.12,6.58,1.71-4.22c.37-.88.72-1.7.89-2.39.85.07,2.12.03,2.73-.05.07-.02.04.2.04.2-1.4.12-1.48.44-1.45,2.06l.07,3.94c.04,1.62.14,1.95,1.51,2.06.03,0,.07.22,0,.21-.4-.06-1.4-.09-1.94-.09"/>
          <path class="cls-3" d="M264.05,64.27v3.28c0,1.74-1.25,3.21-3.5,3.21-1.92,0-3.58-1.23-3.58-3.29v-3.07c0-1.71-.19-1.94-1.34-2.08-.03,0-.07-.23,0-.2.54.08,1.36.08,2.11.08.54,0,1.42-.03,1.81-.08.07-.02.05.2,0,.2-1.2.1-1.32.46-1.32,2.08v2.77c0,2.09,1.32,3.01,2.67,3.01,1.75,0,2.65-.98,2.65-2.81v-3.1c0-1.55-.18-1.81-1.33-1.95-.05,0-.07-.23,0-.2.54.08.93.08,1.67.08.52,0,1.1-.03,1.48-.08.09-.02.04.2.04.2-1.24.1-1.37.49-1.37,1.95"/>
          <path class="cls-3" d="M270.08,70.75c-.91,0-1.62-.35-2.29-.92-.05-.05.02-1.01.05-1.92,0-.05.21-.04.21-.02.1,1.36.78,2.44,2.14,2.44.94,0,1.58-.59,1.58-1.46,0-2.18-3.71-2.18-3.71-4.57,0-1.17,1.03-2.37,2.55-2.37.74,0,1.21.21,1.64.47.09.05.19.77.19,1.62,0,.04-.21.04-.21,0-.15-.98-.78-1.68-1.73-1.68-.84,0-1.46.42-1.46,1.26,0,2.09,3.67,2.04,3.67,4.55,0,1.4-1.05,2.6-2.64,2.6"/>
          <path class="cls-3" d="M281.59,70.3c-.05.23-.13.26-.31.26-.48,0-1.28-.07-2.22-.07-1.29,0-2.82.02-3.76.09-.07,0-.04-.21,0-.21,1.32-.16,1.45-.35,1.45-2.06v-3.94c0-1.71-.13-1.92-1.45-2.06-.04-.02-.07-.23,0-.23.94.09,2.42.1,3.71.1.93,0,1.79-.05,2.49-.1-.05.19-.07.57-.07.84,0,.14,0,.53.02.63h-.22c-.09-.6-.3-.92-1.99-.92h-1.14c-.05.31-.09.81-.09,1.66v1.68h.9c1.48,0,1.58-.07,1.71-.65,0-.02.21-.05.21,0-.05.19-.09.75-.09,1.05,0,.16.02.64.02.77.02.02-.21.02-.21.02-.12-.71-.22-.8-1.64-.8h-.9v1.78c0,1.75.14,1.91.73,1.91h.66c1.99,0,2.04-.32,2.23-1.19.02-.02.23-.02.23.02-.05.33-.17,1.17-.26,1.43"/>
          <path class="cls-3" d="M288.7,62.35c-1.85,0-3.19,1.18-3.19,3.58,0,2.91,1.81,4.41,3.53,4.41,1.85,0,3.2-1.19,3.2-3.56,0-2.91-1.81-4.43-3.54-4.43M288.75,70.75c-2.56,0-4.53-2.02-4.53-4.27s2.02-4.55,4.76-4.55c2.58,0,4.53,2.04,4.53,4.29s-2.01,4.53-4.76,4.53"/>
          <path class="cls-3" d="M304.61,62.56c-.92,0-1.05.03-1.27.07-.09.43-.12.73-.12,1.74v4.41c0,.99.08,1.34,1.97,1.34,1.54,0,3.17-1.1,3.17-3.38,0-2.77-1.38-4.19-3.75-4.19M304.82,70.55c-.43,0-1.59-.05-1.9-.05-.73,0-1.76.02-2.29.09-.08,0-.05-.21-.01-.21,1.17-.12,1.34-.37,1.34-2.06v-3.94c0-1.71-.18-1.94-1.34-2.06-.04-.02-.07-.23.01-.23.53.09,1.66.1,2.41.1.31,0,1.5-.05,1.96-.05,3.02,0,4.64,1.77,4.64,4.08s-1.99,4.32-4.82,4.32"/>
          <path class="cls-3" d="M317.88,70.3c-.06.23-.13.26-.32.26-.47,0-1.27-.07-2.21-.07-1.29,0-2.82.02-3.76.09-.07,0-.04-.21,0-.21,1.32-.16,1.45-.35,1.45-2.06v-3.94c0-1.71-.13-1.92-1.45-2.06-.04-.02-.07-.23,0-.23.94.09,2.42.1,3.71.1.93,0,1.79-.05,2.49-.1-.05.19-.07.57-.07.84,0,.14,0,.53.02.63h-.22c-.09-.6-.3-.92-1.99-.92h-1.14c-.06.31-.09.81-.09,1.66v1.68h.91c1.47,0,1.58-.07,1.7-.65,0-.02.21-.05.21,0-.05.19-.09.75-.09,1.05,0,.16.02.64.02.77h-.21c-.11-.7-.22-.79-1.63-.79h-.91v1.78c0,1.75.14,1.91.73,1.91h.66c1.99,0,2.04-.32,2.23-1.19.02-.02.23-.02.23.02-.05.33-.17,1.17-.26,1.43"/>
          <path class="cls-3" d="M328.67,63.82l-1.37,3.14h2.5l-1.13-3.14ZM331.91,70.49c-.73,0-1.64.02-2.18.09-.07,0-.03-.21,0-.21.63-.07.98-.03.98-.4,0-.4-.19-1.01-.44-1.65l-.33-.96h-2.81l-.4.96c-.33.77-.52,1.29-.52,1.64,0,.31.33.37.93.42.05,0,.07.21,0,.21-.38-.06-.93-.09-1.46-.09-.73,0-.86.02-1.41.09-.07,0-.04-.21,0-.21.87-.07,1.32-.58,1.99-2.06l2.81-6.33c.02-.05.12-.05.14,0l2.42,6.33c.49,1.3.75,1.95,2.01,2.06.04,0,.07.21,0,.21-.4-.06-1.15-.09-1.71-.09"/>
          <path class="cls-3" d="M338.52,62.47c-.21,0-.25.02-.47.04-.07.24-.12.75-.12,1.74v2.16c.21,0,.3.02.54.02,1.73,0,2.38-.69,2.38-1.92,0-1.5-.84-2.04-2.34-2.04M339.46,66.69c-.3.07-.7.12-.98.12s-.35,0-.56-.01v1.52c0,1.62.14,1.95,1.34,2.06.04,0,.07.22,0,.21-.4-.06-1.27-.09-1.81-.09-.75,0-1.57.02-2.11.09-.07.01-.04-.21,0-.21,1.15-.12,1.34-.35,1.34-2.06v-3.94c0-1.57-.3-1.9-.9-1.9-.14,0-.3.02-.49.05-.04.02-.09-.19-.02-.21.54-.17,2.02-.23,3.42-.23,2.23,0,3.43.72,3.43,2.07,0,.88-.61,1.71-1.6,2.13.65,1.81,2.32,4.27,3.82,4.27.04,0,.07.21,0,.21-2.76,0-4.32-2.02-4.88-4.08"/>
          <path class="cls-3" d="M353.22,62.94c0,.21.02.65.03.82,0,.03-.21.02-.21.02-.1-.61-.56-1.05-1.96-1.05h-1.19v5.58c0,1.61.12,1.95,1.35,2.06.03,0,.05.21-.02.21-.4-.06-1.27-.09-1.81-.09-.74,0-1.57.02-2.1.09-.09,0-.05-.21-.02-.21,1.17-.12,1.34-.37,1.34-2.06v-5.58h-1.24c-1.35,0-1.87.4-2.02,1.03,0,0-.21.03-.21,0,.05-.28.09-.96.09-1.33,0-.14,0-.38-.07-.67-.02-.04.21-.04.21,0,.09.43.1.49,2.01.49h3.67c1.88,0,1.94-.04,2.04-.49,0-.04.21-.04.21,0-.07.27-.12.75-.12,1.18"/>
          <path class="cls-3" d="M361.72,70.3c-.05.23-.12.26-.31.26-.47,0-1.27-.07-2.22-.07-1.29,0-2.82.02-3.76.09-.07,0-.03-.21,0-.21,1.33-.16,1.45-.35,1.45-2.06v-3.94c0-1.71-.12-1.92-1.45-2.06-.03-.02-.07-.23,0-.23.95.09,2.43.1,3.72.1.93,0,1.79-.05,2.49-.1-.05.19-.07.57-.07.84,0,.14,0,.53.02.63h-.22c-.09-.6-.3-.92-1.99-.92h-1.15c-.05.31-.09.81-.09,1.66v1.68h.91c1.48,0,1.59-.07,1.71-.65,0-.02.21-.05.21,0-.05.19-.09.75-.09,1.05,0,.16.02.64.02.77.02.02-.21.02-.21.02-.12-.71-.22-.8-1.64-.8h-.91v1.78c0,1.75.14,1.91.73,1.91h.66c1.99,0,2.04-.32,2.23-1.19,0,0,.23-.02.23.02-.05.33-.18,1.17-.27,1.43"/>
          <path class="cls-3" d="M367.14,70.75c-.9,0-1.62-.35-2.29-.92-.05-.05.02-1.01.06-1.92,0-.05.2-.04.2-.02.1,1.36.79,2.44,2.14,2.44.94,0,1.59-.59,1.59-1.46,0-2.18-3.71-2.18-3.71-4.57,0-1.17,1.03-2.37,2.55-2.37.73,0,1.2.21,1.64.47.09.05.19.77.19,1.62,0,.04-.21.04-.21,0-.16-.98-.79-1.68-1.73-1.68-.84,0-1.46.42-1.46,1.26,0,2.09,3.66,2.04,3.66,4.55,0,1.4-1.05,2.6-2.63,2.6"/>
        </g>
      </g>
    </g>
  </g>
</svg>