<?xml version="1.0" encoding="UTF-8"?>
<svg id="Capa_2" data-name="Capa 2" xmlns="http://www.w3.org/2000/svg" viewBox="0 0 157.67 188.44">
  <defs>
    <style>
      .cls-1 {
        fill: #243746;
      }
    </style>
  </defs>
  <g id="Capa_2-2" data-name="Capa 2">
    <g id="doctorado_en_literatura">
      <g>
        <g>
          <g>
            <path class="cls-1" d="M41.25,101.47v-7.95h-1.95c-.21,0-.38.17-.38.38v7.41c0,.64-.07,1.18-.22,1.62-.14.44-.4.77-.77.99-.37.22-.88.33-1.53.33s-1.16-.11-1.53-.33c-.37-.22-.62-.55-.76-.99-.14-.44-.21-.99-.21-1.64v-7.77h-1.95c-.21,0-.38.17-.38.38v7.67c0,1.62.41,2.83,1.22,3.63.81.81,2.02,1.21,3.61,1.21s2.8-.41,3.62-1.24c.82-.83,1.23-2.06,1.23-3.7Z"/>
            <path class="cls-1" d="M55.88,106.11v-8.91h-1.99c-.14,0-.25.11-.25.25v8.66h2.24Z"/>
            <path class="cls-1" d="M61.81,103.19l-2.02-5.76c-.05-.13-.17-.22-.31-.22h-2.23l3.65,8.91h1.59c.15,0,.29-.09.35-.23l3.52-8.68h-2.42l-2.13,5.98Z"/>
            <path class="cls-1" d="M81.35,99.26c.2,0,.41.03.62.09.2.06.37.13.51.2l1.08-2.02c-.29-.18-.57-.31-.84-.39-.27-.08-.56-.12-.86-.12-.42,0-.83.11-1.24.33s-.74.53-1.02.93c-.05.07-.09.14-.13.21v-1.3h-2.26v8.91h2.01c.14,0,.25-.11.25-.25v-3.58c0-.49.01-.87.05-1.13.03-.26.07-.47.12-.64.11-.3.25-.54.43-.72.17-.18.37-.31.6-.4.22-.08.45-.13.7-.13Z"/>
            <path class="cls-1" d="M113.71,106.11h2.06v-5.62c0-1.08-.34-1.93-1.03-2.55-.69-.61-1.65-.92-2.87-.92-.76,0-1.47.11-2.12.33-.66.22-1.3.59-1.93,1.09l1.14,1.54c.37-.34.8-.6,1.29-.79.49-.19.97-.28,1.44-.28.57,0,1.02.13,1.35.39.33.26.5.65.5,1.18v.22h-2.57c-.42,0-.82.04-1.18.11-.37.07-.7.2-1,.38-.35.19-.63.47-.84.84-.21.37-.32.81-.32,1.33,0,.58.15,1.09.44,1.54s.7.79,1.21,1.03c.51.24,1.09.36,1.74.36.46,0,.89-.09,1.3-.27s.77-.47,1.09-.86c.05-.06.1-.13.14-.2l.16,1.15ZM113.23,103.5c-.2.31-.46.55-.8.72s-.7.26-1.09.26c-.45,0-.8-.1-1.07-.31-.27-.2-.4-.48-.4-.81,0-.16.03-.3.09-.42s.15-.23.27-.32c.13-.11.29-.18.48-.21.19-.03.38-.05.57-.05h2.24v.07c0,.4-.1.75-.3,1.06Z"/>
            <circle class="cls-1" cx="54.76" cy="94.67" r="1.21"/>
            <circle class="cls-1" cx="94.3" cy="94.67" r="1.21"/>
            <path class="cls-1" d="M103.56,98.43c-.05-.08-.09-.15-.14-.22-.3-.4-.66-.7-1.08-.9-.42-.2-.86-.3-1.35-.3-.69,0-1.32.18-1.9.55-.58.37-1.04.9-1.38,1.58-.34.69-.52,1.52-.52,2.5,0,.88.15,1.67.46,2.38.31.7.74,1.26,1.31,1.66s1.24.61,2.03.61c.45,0,.88-.09,1.29-.26.42-.17.78-.47,1.1-.89.06-.08.12-.17.17-.26l.16,1.23h2.06v-11.83h-1.96c-.15,0-.27.12-.27.27v3.88ZM102.76,103.91c-.32.22-.7.33-1.15.33s-.81-.11-1.14-.32c-.33-.21-.58-.51-.75-.9-.18-.39-.26-.84-.26-1.37s.09-.99.26-1.37c.17-.38.42-.68.75-.89.33-.21.7-.32,1.14-.32s.83.11,1.15.32c.32.21.57.51.74.9.17.39.26.84.26,1.36s-.09.97-.26,1.36c-.17.39-.42.69-.74.9Z"/>
            <path class="cls-1" d="M123.81,98.43c-.05-.08-.09-.15-.14-.22-.3-.4-.66-.7-1.08-.9-.42-.2-.86-.3-1.35-.3-.69,0-1.32.18-1.9.55-.58.37-1.04.9-1.38,1.58-.34.69-.52,1.52-.52,2.5,0,.88.15,1.67.46,2.38.31.7.74,1.26,1.31,1.66.57.4,1.24.61,2.03.61.45,0,.88-.09,1.29-.26.42-.17.78-.47,1.1-.89.06-.08.12-.17.17-.26l.16,1.23h2.06v-11.83h-1.96c-.15,0-.27.12-.27.27v3.88ZM123,103.91c-.32.22-.7.33-1.15.33s-.81-.11-1.14-.32c-.33-.21-.58-.51-.75-.9-.18-.39-.26-.84-.26-1.37s.09-.99.26-1.37c.17-.38.42-.68.75-.89.33-.21.7-.32,1.14-.32s.83.11,1.15.32c.32.21.57.51.74.9s.26.84.26,1.36-.09.97-.26,1.36c-.17.39-.42.69-.74.9Z"/>
            <path class="cls-1" d="M48.32,97.02c-.42,0-.83.08-1.23.23-.4.15-.75.39-1.05.71-.12.13-.23.28-.33.45v-1.21h-2.26v8.91h2.01c.14,0,.25-.11.25-.25v-4.02c0-.67.07-1.22.22-1.65.14-.42.36-.73.64-.93.28-.2.64-.3,1.08-.3.57,0,.98.17,1.25.52.26.34.4.89.4,1.64v4.99h2.01c.14,0,.25-.11.25-.25v-5.57c0-1.04-.29-1.84-.86-2.41-.57-.57-1.37-.86-2.38-.86Z"/>
            <path class="cls-1" d="M74.37,98.35c-.34-.42-.77-.74-1.28-.98-.52-.23-1.13-.35-1.83-.35-.75,0-1.39.14-1.93.41s-.97.63-1.31,1.08c-.34.45-.59.95-.76,1.5-.17.55-.25,1.12-.25,1.7s.08,1.18.25,1.73c.17.55.43,1.04.79,1.46.36.43.81.77,1.37,1.02.55.25,1.22.38,1.99.38.52,0,.98-.05,1.38-.14s.79-.24,1.17-.44c.37-.21.77-.47,1.19-.8l-1.12-1.52c-.34.3-.72.53-1.16.7-.43.16-.88.24-1.34.24-.63,0-1.15-.16-1.56-.49-.35-.27-.57-.65-.67-1.15-.03-.15.08-.3.24-.3h5.81c.02-.17.04-.33.05-.48,0-.15,0-.27,0-.35,0-.63-.09-1.22-.26-1.77-.17-.55-.43-1.04-.77-1.46ZM69.24,100.74c.04-.3.13-.59.28-.88.15-.28.38-.52.68-.7.3-.18.68-.27,1.12-.27.3,0,.57.05.8.14.24.09.44.22.61.39s.3.36.4.59c.07.17.12.35.14.54,0,.1-.08.19-.18.19h-3.84Z"/>
            <path class="cls-1" d="M90.26,101.2c-.34-.21-.7-.37-1.08-.49-.39-.12-.76-.22-1.12-.31-.39-.1-.7-.18-.93-.26-.23-.08-.4-.17-.51-.28-.1-.11-.15-.24-.15-.4,0-.23.11-.41.33-.54.22-.13.51-.2.86-.2.4,0,.77.09,1.13.26.28.14.52.33.71.58.09.11.26.12.37.03l1.17-.93c-.34-.53-.8-.94-1.37-1.22-.58-.28-1.22-.43-1.93-.43-1.18,0-2.1.33-2.74,1-.43.44-.63,1.04-.63,1.66,0,.46.1.85.28,1.15.19.31.43.57.73.77.3.2.63.36.99.48s.71.23,1.05.33c.33.08.62.17.89.26.26.09.48.21.63.34.16.14.23.32.23.53,0,.27-.12.49-.37.66s-.59.26-1.04.26c-.57,0-1.04-.14-1.42-.42-.29-.22-.53-.45-.72-.7-.09-.12-.27-.14-.39-.04l-1.31,1.14c.2.27.48.54.82.83s.76.53,1.26.72c.49.19,1.07.29,1.74.29.74,0,1.37-.13,1.92-.38s.96-.61,1.27-1.06c.3-.45.45-.97.45-1.56,0-.52-.1-.95-.31-1.28s-.48-.61-.81-.81Z"/>
            <path class="cls-1" d="M95.42,106.11v-8.91h-1.99c-.14,0-.25.11-.25.25v8.66h2.24Z"/>
          </g>
          <g>
            <path class="cls-1" d="M64.18,115.71c-.67-.4-1.44-.6-2.3-.6s-1.62.2-2.3.6c-.68.4-1.21.94-1.6,1.64-.39.69-.58,1.49-.58,2.39s.2,1.69.59,2.39c.39.7.92,1.26,1.6,1.65s1.44.6,2.29.6,1.64-.2,2.31-.61c.67-.4,1.2-.95,1.59-1.65s.58-1.49.58-2.38-.2-1.7-.59-2.39c-.39-.69-.92-1.24-1.59-1.64ZM63.84,121.16c-.17.4-.43.7-.76.92-.33.22-.73.33-1.18.33s-.87-.11-1.21-.33c-.34-.22-.6-.52-.78-.92-.18-.4-.27-.87-.27-1.43s.09-1.04.27-1.44c.18-.39.44-.69.78-.9s.74-.32,1.21-.32.85.11,1.18.32.58.51.76.9c.17.39.26.87.26,1.44s-.09,1.03-.26,1.43Z"/>
            <path class="cls-1" d="M85.24,111.61l-5.06,12.59h2.55l.83-2.21c.06-.15.2-.25.36-.25h4.69l.81,2.22c.05.14.19.24.35.24h2.29l-5.06-12.59h-1.75ZM84.43,119.65l1.71-4.59,1.69,4.59h-3.4Z"/>
            <path class="cls-1" d="M54.18,112.37h1.75v11.82h-2.22v-11.35c0-.26.21-.47.47-.47Z"/>
            <path class="cls-1" d="M109.45,116.52c-.05-.08-.09-.15-.14-.22-.3-.4-.66-.7-1.08-.89-.42-.2-.86-.3-1.35-.3-.69,0-1.32.18-1.9.55-.58.37-1.04.89-1.38,1.58-.34.69-.51,1.52-.51,2.49,0,.88.15,1.67.46,2.38.31.7.74,1.26,1.31,1.66s1.24.61,2.02.61c.45,0,.88-.09,1.29-.26.42-.17.78-.47,1.1-.89.06-.08.12-.17.17-.26l.16,1.23h2.06v-11.82h-1.95c-.15,0-.27.12-.27.27v3.88ZM108.65,121.99c-.32.22-.7.33-1.15.33s-.81-.11-1.14-.32c-.33-.21-.58-.51-.75-.89-.18-.39-.26-.84-.26-1.37s.09-.98.26-1.36c.17-.38.42-.67.75-.89.33-.21.7-.32,1.14-.32s.83.11,1.15.32c.32.21.57.51.74.89s.26.84.26,1.36-.09.97-.26,1.36c-.17.39-.42.69-.74.9Z"/>
            <path class="cls-1" d="M98.18,115.11c-.42,0-.83.08-1.23.23-.4.15-.75.39-1.05.71-.12.13-.23.28-.33.45v-1.21h-2.26v8.91h2.01c.14,0,.25-.11.25-.25v-4.01c0-.67.07-1.22.22-1.64.14-.42.36-.73.64-.93.28-.2.64-.3,1.08-.3.57,0,.98.17,1.25.51.26.34.4.89.4,1.64v4.99h2.01c.14,0,.25-.11.25-.25v-5.57c0-1.04-.29-1.84-.86-2.41s-1.36-.86-2.38-.86Z"/>
            <path class="cls-1" d="M120.82,116.44c-.34-.42-.77-.74-1.28-.98-.52-.23-1.13-.35-1.83-.35-.75,0-1.39.14-1.93.41s-.97.63-1.31,1.08c-.34.45-.59.95-.76,1.5-.17.55-.25,1.12-.25,1.7s.08,1.18.25,1.73c.17.55.43,1.04.79,1.46.36.43.81.77,1.36,1.02.55.25,1.22.38,1.99.38.52,0,.98-.05,1.38-.14s.79-.24,1.17-.44c.37-.2.77-.47,1.19-.8l-1.12-1.52c-.34.3-.72.53-1.16.7-.43.16-.88.24-1.34.24-.63,0-1.15-.16-1.56-.49-.35-.27-.57-.65-.67-1.14-.03-.15.08-.3.24-.3h5.81c.02-.17.04-.33.05-.48,0-.15,0-.27,0-.35,0-.63-.09-1.22-.26-1.77-.17-.55-.43-1.04-.77-1.45ZM115.68,118.83c.04-.3.13-.59.28-.88.15-.28.38-.51.68-.7.3-.18.67-.27,1.12-.27.3,0,.57.05.8.14.24.09.44.22.61.39s.3.36.4.59c.07.17.12.35.14.54,0,.1-.08.19-.18.19h-3.84Z"/>
            <path class="cls-1" d="M129.25,119.28c-.34-.2-.7-.37-1.08-.49-.39-.12-.76-.22-1.12-.31-.39-.1-.7-.18-.93-.26-.23-.08-.4-.17-.51-.28-.1-.11-.15-.24-.15-.4,0-.23.11-.41.33-.54.22-.13.51-.2.86-.2.4,0,.77.09,1.13.26.28.14.52.33.71.58.09.11.26.12.37.03l1.17-.93c-.34-.53-.8-.94-1.37-1.22-.58-.28-1.22-.42-1.93-.42-1.18,0-2.09.33-2.73,1-.43.44-.63,1.04-.63,1.66,0,.46.1.85.28,1.15.19.31.43.57.73.77.3.2.63.36.99.48.36.12.71.23,1.05.32.33.08.62.17.89.26.26.09.48.2.63.34.16.14.23.32.23.53,0,.27-.12.49-.37.66s-.59.26-1.04.26c-.57,0-1.04-.14-1.42-.42-.29-.22-.53-.45-.72-.7-.09-.12-.27-.14-.39-.04l-1.31,1.14c.2.27.48.54.82.83s.76.53,1.26.72c.49.19,1.07.29,1.73.29.73,0,1.37-.13,1.92-.38.54-.25.96-.61,1.27-1.06.3-.45.45-.97.45-1.56,0-.52-.1-.95-.31-1.28s-.48-.61-.81-.81Z"/>
            <path class="cls-1" d="M73.74,119.28c-.34-.2-.7-.37-1.08-.49-.39-.12-.76-.22-1.12-.31-.39-.1-.7-.18-.93-.26-.23-.08-.4-.17-.51-.28-.1-.11-.15-.24-.15-.4,0-.23.11-.41.33-.54.22-.13.51-.2.86-.2.4,0,.77.09,1.13.26.28.14.52.33.71.58.09.11.26.12.37.03l1.17-.93c-.34-.53-.8-.94-1.37-1.22-.58-.28-1.22-.42-1.93-.42-1.18,0-2.09.33-2.73,1-.43.44-.63,1.04-.63,1.66,0,.46.1.85.28,1.15.19.31.43.57.73.77.3.2.63.36.99.48s.71.23,1.05.32c.33.08.62.17.89.26.26.09.48.2.63.34.16.14.23.32.23.53,0,.27-.12.49-.37.66s-.59.26-1.04.26c-.57,0-1.04-.14-1.42-.42-.29-.22-.53-.45-.72-.7-.09-.12-.27-.14-.39-.04l-1.31,1.14c.2.27.48.54.82.83s.76.53,1.26.72c.49.19,1.07.29,1.73.29.73,0,1.37-.13,1.92-.38.54-.25.96-.61,1.27-1.06.3-.45.45-.97.45-1.56,0-.52-.1-.95-.31-1.28s-.48-.61-.81-.81Z"/>
          </g>
          <g>
            <path class="cls-1" d="M33.65,116.52c-.05-.08-.09-.15-.14-.22-.3-.4-.66-.7-1.08-.89-.42-.2-.86-.3-1.35-.3-.69,0-1.32.18-1.9.55-.58.37-1.04.89-1.38,1.58-.34.69-.51,1.52-.51,2.49,0,.88.15,1.67.46,2.38.31.7.74,1.26,1.31,1.66s1.24.61,2.02.61c.45,0,.88-.09,1.29-.26.42-.17.78-.47,1.1-.89.06-.08.12-.17.17-.26l.16,1.23h2.06v-11.82h-1.95c-.15,0-.27.12-.27.27v3.88ZM32.85,121.99c-.32.22-.7.33-1.15.33s-.81-.11-1.14-.32c-.33-.21-.58-.51-.75-.89-.18-.39-.26-.84-.26-1.37s.09-.98.26-1.36c.17-.38.42-.67.75-.89.33-.21.7-.32,1.14-.32s.83.11,1.15.32c.32.21.57.51.74.89s.26.84.26,1.36-.09.97-.26,1.36c-.17.39-.42.69-.74.9Z"/>
            <path class="cls-1" d="M45.02,116.44c-.34-.42-.77-.74-1.28-.98-.52-.23-1.13-.35-1.83-.35-.75,0-1.39.14-1.93.41s-.97.63-1.31,1.08c-.34.45-.59.95-.76,1.5-.17.55-.25,1.12-.25,1.7s.08,1.18.25,1.73c.17.55.43,1.04.79,1.46.36.43.81.77,1.36,1.02.55.25,1.22.38,1.99.38.52,0,.98-.05,1.38-.14s.79-.24,1.17-.44c.37-.2.77-.47,1.19-.8l-1.12-1.52c-.34.3-.72.53-1.16.7-.43.16-.88.24-1.34.24-.63,0-1.15-.16-1.56-.49-.35-.27-.57-.65-.67-1.14-.03-.15.08-.3.24-.3h5.81c.02-.17.04-.33.05-.48,0-.15,0-.27,0-.35,0-.63-.09-1.22-.26-1.77-.17-.55-.43-1.04-.77-1.45ZM39.88,118.83c.04-.3.13-.59.28-.88.15-.28.38-.51.68-.7.3-.18.67-.27,1.12-.27.3,0,.57.05.8.14.24.09.44.22.61.39s.3.36.4.59c.07.17.12.35.14.54,0,.1-.08.19-.18.19h-3.84Z"/>
          </g>
        </g>
        <g>
          <path class="cls-1" d="M78.31,0c-17.84,0-32.29,19.57-32.29,43.7s14.46,43.7,32.29,43.7,32.29-19.57,32.29-43.7S96.15,0,78.31,0ZM78.31,86.35c-17.25,0-31.29-19.13-31.29-42.64S61.06,1.06,78.31,1.06s31.29,19.13,31.29,42.64-14.04,42.64-31.29,42.64Z"/>
          <circle class="cls-1" cx="64.15" cy="74.84" r=".71"/>
          <circle class="cls-1" cx="92.94" cy="74.84" r=".71"/>
          <path class="cls-1" d="M78.32,10.86c-11.9,0-21.55,14.71-21.55,32.85s9.65,32.85,21.55,32.85,21.55-14.71,21.55-32.85-9.65-32.85-21.55-32.85ZM98.8,43.16h-19.96V11.93c10.94.43,19.77,14.22,19.96,31.23ZM77.79,11.93v31.23h-19.96c.19-17.01,9.02-30.79,19.96-31.23ZM57.83,44.21h19.96v31.27c-10.95-.43-19.79-14.24-19.96-31.27ZM78.84,75.48v-31.27h19.96c-.17,17.02-9.01,30.84-19.96,31.27Z"/>
          <path class="cls-1" d="M56.87,68.71c-.18.04-.33.06-.47.08-.15.02-.23.01-.26,0h-.06l-.14.1.49.7.08.09.13-.1v-.02s.03-.02.05-.03c.08-.05.16-.09.26-.12.11-.03.21-.05.3-.07l3.52-.74-1.86,3.13c-.07.12-.14.21-.19.27-.05.06-.11.11-.16.15-.01,0-.03.02-.06.04l-.15.1.64.9.08.09.13-.1v-.04s.03-.05.05-.1c.02-.06.05-.12.09-.2.04-.08.08-.17.13-.26.05-.09.1-.19.16-.28l2.49-4.19-.26-.36-4.99.97Z"/>
          <path class="cls-1" d="M56.52,66.77l2.1-1.02c.18-.09.34-.16.48-.22.14-.06.26-.11.36-.15.1-.04.18-.07.25-.09.07-.02.13-.03.17-.04l.15-.07-.33-.68-.07-.1-.11.05-.03.02s-.08.07-.14.11c-.06.04-.13.09-.23.14-.09.06-.21.12-.34.19-.13.07-.29.15-.47.24l-1.93.94,1.83-4.8-.13-.27-3.53,1.71c-.18.09-.34.16-.48.22-.14.06-.26.11-.36.15-.1.04-.19.07-.26.09-.07.02-.12.03-.17.04l-.15.07.33.68.07.1.11-.05.03-.02s.08-.07.14-.11c.06-.04.13-.09.23-.15.09-.06.21-.12.34-.19.13-.07.29-.15.47-.24l2-.97-1.83,4.8.12.25.07.1.11-.05.03-.02s.08-.07.14-.11c.06-.04.13-.09.23-.15.09-.06.21-.12.34-.19.13-.07.29-.15.47-.24Z"/>
          <path class="cls-1" d="M53.84,60.74l2.2-.78c.19-.07.36-.12.5-.17.14-.05.27-.08.37-.11.1-.03.19-.05.26-.06.07-.01.13-.02.17-.02l.16-.05-.33-.92-.05-.11-.11.04-.03.02s-.09.06-.15.09c-.06.04-.14.07-.24.12-.1.04-.22.09-.36.15-.14.06-.3.12-.49.19l-2.2.78c-.19.07-.36.12-.5.17-.14.04-.27.08-.37.11-.1.03-.19.05-.26.06-.07.01-.13.02-.18.02l-.16.05.33.92.05.11.11-.04.03-.02s.09-.06.15-.09c.06-.03.15-.08.24-.12.1-.04.22-.1.36-.15.14-.05.31-.12.5-.18Z"/>
          <path class="cls-1" d="M52.45,58.28l3.84-3.01-.11-.43-5-.89c-.18-.03-.34-.06-.46-.1-.15-.04-.21-.07-.25-.09l-.06-.02-.17.04.21.83.04.11.16-.04.02-.02s.02,0,.04-.01c.09-.02.18-.03.28-.02.11.01.21.03.3.04l3.55.57-2.87,2.25c-.11.08-.2.15-.28.18-.07.04-.14.06-.2.08-.02,0-.03,0-.07.01h-.02s-.15.03-.15.03l.27,1.07.04.11.16-.04.03-.04s.03-.04.07-.08c.04-.04.09-.1.16-.15.06-.06.14-.13.22-.2.08-.07.16-.14.25-.21Z"/>
          <path class="cls-1" d="M50.64,52.25c.11-.02.23-.05.38-.08.15-.03.32-.05.52-.08l2.31-.33c.2-.03.37-.05.52-.07.15-.02.28-.03.39-.03.11,0,.2,0,.27,0,.07,0,.13,0,.18.01l.17-.02-.24-1.65-.06-.52c0-.08-.02-.15-.03-.22l-.02-.19c0-.05,0-.1-.01-.12v-.11s-.89-.03-.89-.03l.07.17c.07.16.13.34.19.53.05.17.11.37.17.59.05.19.09.41.13.63l-1.99.28c-.01-.12-.03-.24-.03-.37-.01-.17-.02-.33-.02-.48,0-.17,0-.34-.01-.51v-.11s-.82-.06-.82-.06l.05.17c.04.12.07.26.11.41.03.13.07.3.11.49.03.16.07.34.1.53l-1.71.24-.03-.15c-.02-.07-.03-.15-.04-.22-.01-.08-.03-.14-.03-.2-.02-.16-.04-.31-.04-.44,0-.13,0-.24,0-.33,0-.1,0-.19.02-.27v-.11s-.8-.17-.8-.17l.07.2s.04.13.07.33c.03.17.07.38.1.62.04.24.08.51.12.8s.09.59.13.88l.03.12.12-.02h.03s.1-.05.17-.07c.07-.02.16-.05.26-.07Z"/>
          <path class="cls-1" d="M49.61,47.58s.1-.03.17-.05c.07-.02.16-.03.27-.04.11-.01.24-.03.39-.04.15-.01.33-.02.53-.03l2.33-.11c.2,0,.38-.01.53-.02.15,0,.28,0,.39,0,.11,0,.19,0,.27.02.07,0,.13.02.18.03h.03s.14,0,.14,0l-.05-.98-.02-.12h-.12s-.03.01-.03.01c-.05.02-.1.03-.17.05-.07.02-.16.03-.26.04-.11.01-.24.03-.39.04-.15.01-.33.02-.53.03l-.67.03s0-.05,0-.08c0-.07,0-.14,0-.21,0-.06,0-.12-.01-.18,0-.03,0-.07-.01-.1l1.67-1.31c.07-.05.14-.1.2-.14.08-.05.12-.06.14-.06l.1-.02-.05-1.14-.02-.12h-.2s-.02.09-.02.09c-.01.04-.03.08-.05.12-.02.04-.06.08-.1.13-.04.05-.09.1-.15.15-.06.05-.13.11-.21.18l-1.6,1.25c-.06-.1-.12-.18-.2-.26-.1-.12-.22-.22-.36-.3-.13-.08-.28-.14-.44-.18-.16-.04-.33-.06-.52-.05-.24.01-.45.06-.63.16-.18.1-.34.23-.46.39-.12.16-.21.35-.27.56-.06.21-.08.44-.07.68.01.25.03.46.06.62.03.15.05.27.05.36,0,.06,0,.12,0,.17,0,.05,0,.1,0,.14v.15s0,.13,0,.13h.13s.03-.01.03-.01ZM49.81,46.08c0-.14.01-.27.06-.38.04-.11.11-.19.19-.27.09-.07.19-.13.32-.17.13-.04.28-.07.45-.08.04,0,.07,0,.1,0,.16,0,.31.02.43.06.15.04.28.11.38.2.1.09.18.19.23.32.05.13.09.28.09.45,0,.06,0,.12,0,.18,0,.03,0,.06,0,.09l-2.18.1s-.02-.07-.03-.12c-.02-.09-.03-.21-.04-.37Z"/>
          <path class="cls-1" d="M49.58,41.67c.11.14.25.25.41.34.16.09.35.14.56.15.19.01.37-.01.54-.07.16-.05.31-.12.46-.21.14-.09.27-.19.4-.3.12-.11.24-.22.35-.34.11-.11.23-.23.34-.33.11-.1.22-.2.33-.28.11-.08.23-.14.35-.19.11-.04.24-.06.37-.06.09,0,.18.02.25.06.07.03.14.08.19.14.05.06.09.13.12.22.03.08.04.18.03.29,0,.12-.03.23-.08.32-.05.1-.11.18-.18.26-.07.08-.16.14-.25.19-.09.05-.19.08-.29.1l-.09.02v.29s.95.14.95.14l.04-.06c.04-.05.09-.12.13-.21.05-.08.1-.18.14-.29.04-.11.08-.23.11-.35.03-.13.05-.27.06-.41.01-.26-.02-.49-.1-.68-.08-.19-.18-.36-.31-.49-.13-.13-.28-.23-.45-.29-.17-.07-.34-.1-.5-.11-.23,0-.44.03-.65.13-.19.09-.38.21-.56.36-.17.14-.34.3-.51.46-.16.16-.32.31-.47.45-.15.13-.31.24-.46.33-.14.08-.29.11-.44.11-.09,0-.18-.02-.25-.05-.07-.03-.13-.07-.18-.12-.05-.05-.09-.11-.11-.19-.03-.08-.04-.17-.03-.27,0-.12.03-.21.06-.29.04-.08.09-.15.14-.21.06-.06.11-.1.17-.13.06-.03.12-.06.17-.07l.08-.02v-.28s-.85-.07-.85-.07l-.11.22c-.03.06-.06.13-.09.22-.03.08-.06.18-.08.28-.03.11-.04.22-.05.35,0,.18.02.35.07.52.05.17.14.32.25.46Z"/>
          <path class="cls-1" d="M49.74,37.53h.02s.11-.02.18-.02c.07,0,.16,0,.27,0,.11,0,.24.01.39.02.15.01.33.03.53.05l2.32.26c.2.02.38.04.52.07.15.02.27.04.38.07.1.02.19.04.26.06.07.02.12.04.17.06l.17.02.11-.97v-.12s-.14-.01-.14-.01h-.02s-.11.02-.18.02c-.07,0-.16,0-.27,0-.11,0-.24-.01-.39-.02-.15-.01-.33-.03-.53-.05l-2.32-.26c-.2-.02-.37-.05-.52-.07-.15-.02-.28-.04-.38-.06-.1-.02-.19-.04-.26-.06-.07-.02-.12-.04-.17-.06l-.17-.02-.11.97v.12s.14.01.14.01Z"/>
          <path class="cls-1" d="M50.67,34.92c-.01-.15-.02-.33-.02-.51,0-.17.02-.36.03-.59.02-.19.05-.4.09-.63l3.24.64c.2.04.37.08.52.11.15.03.27.07.37.1.1.03.19.06.26.08.07.02.12.05.16.07l.16.04.19-.96v-.12s-.12-.03-.12-.03h-.02s-.11,0-.18,0c-.07,0-.16,0-.27-.02-.11-.01-.24-.03-.38-.05-.15-.02-.32-.05-.52-.09l-3.24-.64c.05-.23.1-.43.16-.61.07-.22.13-.4.19-.55.07-.18.14-.34.21-.47l.09-.17-.89-.02v.11s-.02.07-.03.12l-.03.19c-.01.07-.02.14-.04.22l-.07.4c0,.05-.02.09-.02.11l-.4,2.01s-.01.06-.02.11l-.09.4c-.02.08-.03.15-.05.24l-.04.16c-.01.05-.02.09-.03.12l-.03.1.83.33-.02-.19Z"/>
          <path class="cls-1" d="M55.67,31.1c.1.11.15.17.16.2l.04.05.16.05.26-.81.02-.12-.15-.05h-.03s-.02,0-.05,0c-.09-.03-.17-.07-.25-.13-.09-.07-.17-.14-.24-.19l-.72-.63c.03-.12.07-.24.11-.38l.38-1.21c.05-.17.1-.32.14-.43l.98-.11c.14-.01.25-.02.33,0,.08,0,.16.02.22.04.01,0,.03.01.07.03l.17.06.33-1.05.02-.12-.16-.05-.04.02s-.05.02-.1.03c-.06.02-.13.03-.21.05-.08.02-.18.03-.28.05-.1.02-.21.03-.32.04l-4.84.54-.13.42,3.78,3.39c.14.12.26.23.34.33ZM52.87,27.73l2.02-.22c-.02.05-.03.11-.05.16l-.24.79c-.04.14-.09.27-.13.41l-.06.2-1.54-1.34Z"/>
          <path class="cls-1" d="M53.79,23.52c.12.14.27.26.46.34.18.08.35.13.52.14.17.01.34,0,.5-.03.16-.03.32-.07.48-.13.15-.06.3-.12.46-.18.15-.06.29-.13.44-.18.14-.06.28-.1.41-.14.13-.03.26-.04.39-.04.12,0,.25.03.37.09.08.04.15.09.21.15.06.06.1.13.12.2.03.08.04.16.03.24,0,.09-.03.18-.07.28-.05.11-.11.2-.19.27-.08.07-.16.13-.26.17-.1.04-.2.07-.3.08-.1.01-.21,0-.31-.01l-.09-.02-.12.27.84.49.06-.04c.06-.04.13-.08.2-.14.08-.06.16-.13.24-.22.08-.08.16-.18.24-.29.08-.11.15-.23.21-.36.11-.24.16-.46.16-.67,0-.21-.03-.4-.11-.57-.07-.17-.18-.32-.31-.44-.13-.12-.27-.22-.43-.29-.21-.09-.42-.13-.65-.12-.21.01-.43.06-.65.12-.21.07-.43.15-.64.24-.21.09-.41.17-.6.24-.19.07-.38.11-.55.13-.16.02-.31,0-.44-.06-.09-.04-.16-.09-.22-.14-.06-.05-.1-.11-.12-.18-.03-.07-.04-.14-.03-.22,0-.08.03-.17.07-.26.05-.1.1-.19.17-.25.07-.06.14-.11.21-.14.07-.03.14-.05.21-.06.07,0,.13-.01.18,0h.08s.11-.25.11-.25l-.7-.35-.08-.03-.17.15c-.05.05-.11.1-.17.17s-.12.14-.18.23c-.06.09-.12.19-.17.31-.07.16-.12.33-.13.51-.01.18,0,.35.06.52.05.17.14.33.26.47Z"/>
          <path class="cls-1" d="M57.52,16.53c.09.16.22.31.39.43.16.11.32.19.49.24.16.04.33.07.5.07.16,0,.33,0,.5-.03.16-.03.32-.05.48-.09.16-.03.31-.06.47-.09.15-.03.29-.04.43-.05.13,0,.27,0,.39.03.12.03.23.08.34.16.07.05.13.12.18.19.04.07.07.14.08.22.01.08,0,.16-.02.25-.02.09-.07.17-.13.26-.07.09-.15.17-.24.23-.09.06-.19.1-.29.12-.1.02-.2.03-.31.02-.11-.01-.21-.03-.3-.07l-.09-.04-.17.24.73.65.07-.02c.06-.02.14-.06.23-.1.09-.04.18-.1.28-.16.1-.07.19-.15.29-.23.1-.09.19-.19.27-.31.15-.21.25-.42.29-.63.04-.2.05-.4,0-.58-.04-.18-.11-.35-.22-.49-.1-.14-.22-.27-.36-.37-.18-.13-.39-.22-.61-.24-.21-.03-.43-.03-.66,0-.22.02-.45.06-.68.11-.22.05-.44.09-.64.11-.2.03-.39.04-.56.02-.16-.01-.3-.06-.42-.15-.08-.05-.14-.11-.18-.18-.04-.06-.07-.13-.09-.2-.01-.07-.01-.14,0-.22.02-.08.06-.16.12-.24.07-.09.14-.16.21-.21.08-.05.16-.08.23-.1.08-.02.15-.02.22-.02.07,0,.13.02.18.03l.08.02.16-.23-.69-.53-.21.12c-.06.03-.13.08-.2.13-.07.05-.15.12-.23.19-.08.08-.16.17-.23.27-.1.14-.18.3-.23.47-.05.17-.06.35-.04.52.02.18.07.35.16.51Z"/>
          <path class="cls-1" d="M60.1,13.19c.07-.13.16-.28.27-.44.09-.14.21-.29.35-.47.12-.15.26-.31.42-.47l2.35,2.32c.14.14.27.27.37.38.1.11.19.2.26.29.07.08.13.15.17.21.04.06.07.11.1.15l.12.12.69-.69.07-.09-.08-.08-.03-.02s-.09-.05-.15-.09c-.06-.04-.13-.1-.21-.16-.08-.07-.18-.16-.29-.26s-.24-.22-.38-.36l-2.35-2.32c.16-.16.32-.3.47-.42.17-.14.33-.26.46-.36.16-.11.3-.2.44-.28l.17-.09-.73-.5-.07.08s-.05.05-.08.09l-.13.14c-.05.05-.1.1-.15.16l-.28.29s-.06.07-.08.08l-1.44,1.46-.37.36c-.05.05-.11.11-.16.15l-.14.13s-.07.07-.09.08l-.08.07.51.73.09-.17Z"/>
          <path class="cls-1" d="M63.75,8.78s.05.02.1.04c.05.03.12.06.2.1.08.04.16.09.25.14.09.05.18.11.28.17l4.08,2.66.37-.24-.77-5.02c-.03-.18-.05-.34-.06-.47-.01-.15,0-.23,0-.26v-.06s-.09-.14-.09-.14l-.72.46-.09.08.09.14h.03s.01.03.03.05c.05.08.09.17.11.26.02.11.04.21.06.3l.6,3.55-3.05-1.99c-.11-.08-.2-.15-.26-.2-.06-.06-.11-.11-.14-.17,0-.01-.02-.03-.04-.07l-.09-.15-.92.6-.09.08.09.14h.04Z"/>
          <path class="cls-1" d="M70.05,5.02s.06.1.09.16c.03.07.07.15.11.25.04.1.08.23.13.37.05.15.1.32.16.51l.66,2.24c.06.19.1.36.14.51.04.14.07.27.09.38.02.1.04.19.04.26,0,.07.01.13.01.18l.04.16.11-.03c.06-.02.15-.04.28-.07l.76-.18c.13-.03.25-.06.34-.09.26-.08.51-.17.75-.29.24-.12.45-.25.64-.41.19-.16.36-.34.5-.54.14-.2.25-.42.32-.67.07-.24.11-.51.1-.8,0-.28-.06-.6-.15-.92-.14-.46-.32-.83-.55-1.11-.23-.28-.5-.49-.8-.61-.3-.13-.62-.2-.96-.18-.33,0-.67.06-1.02.16-.13.04-.26.08-.4.12l-.4.13c-.13.04-.24.08-.35.12-.1.03-.17.06-.21.07l-.1.03s-.08.02-.12.03l-.27.08.04.12v.03ZM71.14,5.11s.04-.02.06-.02c.06-.02.13-.05.21-.08l.23-.08c.08-.03.14-.05.2-.07.3-.09.58-.12.83-.09.25.02.48.1.68.23.2.13.39.32.54.55.16.24.29.53.39.87.09.3.14.58.15.82,0,.24-.01.45-.07.63-.05.18-.13.34-.23.47-.1.14-.22.25-.35.35-.13.1-.28.18-.43.25-.16.07-.31.13-.47.17-.04.01-.09.02-.14.04l-.18.04c-.06.01-.11.03-.17.04-.01,0-.02,0-.03,0-.04-.12-.09-.26-.14-.42-.07-.21-.14-.43-.21-.65-.07-.23-.14-.45-.21-.67-.07-.22-.12-.4-.17-.56-.02-.07-.05-.16-.07-.25l-.17-.62c-.03-.11-.06-.21-.09-.32l-.18-.64Z"/>
          <path class="cls-1" d="M76.81,3.57s.03.1.04.17c.01.07.03.16.04.27.01.11.03.24.04.39.01.15.02.33.03.53l.1,2.33c0,.2.01.38.02.53,0,.15,0,.28,0,.39,0,.11-.01.2-.02.27,0,.07-.02.13-.03.17v.03s0,.14,0,.14l.97-.04.12-.02v-.12s-.01-.03-.01-.03c-.02-.05-.03-.1-.05-.17-.02-.07-.03-.16-.04-.26-.01-.11-.03-.24-.04-.39-.01-.15-.02-.33-.03-.53l-.1-2.33c0-.2-.01-.38-.01-.53,0-.15,0-.28,0-.39,0-.11,0-.2.02-.27,0-.07.02-.13.03-.18v-.03s0-.14,0-.14l-.98.04-.12.02v.12s.01.03.01.03Z"/>
          <path class="cls-1" d="M80.04,8.05c.2.29.46.55.77.75.31.2.68.35,1.08.44.21.04.41.07.6.07.06,0,.12,0,.18,0,.25-.02.49-.07.71-.15.22-.08.43-.19.62-.33.19-.14.36-.29.5-.47.15-.18.27-.37.38-.58.1-.21.18-.44.23-.66.09-.4.1-.79.03-1.16-.07-.37-.2-.7-.4-1-.2-.29-.46-.55-.77-.76-.31-.21-.68-.36-1.08-.45-.27-.06-.53-.08-.78-.06-.25.02-.49.07-.71.15-.22.08-.43.19-.62.33-.19.14-.36.3-.5.47-.15.18-.27.38-.38.59-.1.21-.18.44-.23.66-.09.41-.1.8-.03,1.16.07.37.2.7.4.99ZM80.61,6.87c-.01-.32.02-.65.09-1,.07-.31.17-.58.31-.8.13-.22.29-.4.47-.53.18-.13.38-.22.59-.26.1-.02.2-.03.3-.03.13,0,.26.02.4.04.3.07.56.19.76.35.2.17.36.38.46.62.11.25.17.53.18.84.01.31-.02.65-.09,1-.07.31-.17.58-.31.81-.13.22-.29.4-.47.53-.18.13-.38.22-.6.26-.22.04-.45.04-.69-.02-.3-.07-.56-.19-.76-.36-.2-.17-.36-.38-.46-.63-.11-.25-.17-.53-.18-.84Z"/>
          <path class="cls-1" d="M86.23,10.71l.06-.1v-.03s.04-.1.07-.17c.02-.07.06-.15.1-.25.05-.1.1-.21.17-.35.07-.13.15-.29.25-.46l.33-.58s.04.03.06.04c.06.04.12.08.18.11.05.03.1.06.16.08.03.01.06.03.09.04l.21,2.11c0,.08.01.17,0,.25,0,.09-.01.14-.02.15l-.04.1.99.56.11.05.1-.18-.06-.06s-.05-.07-.07-.11c-.02-.04-.04-.09-.06-.15-.02-.06-.03-.13-.05-.21-.01-.08-.03-.17-.04-.28l-.21-2.02c.11,0,.22,0,.33-.02.15-.03.3-.08.44-.14.14-.07.27-.16.39-.28.12-.11.22-.25.32-.41.12-.21.18-.41.2-.62.02-.21-.01-.41-.08-.6-.07-.19-.18-.37-.33-.53-.15-.16-.33-.3-.54-.42-.22-.13-.41-.22-.56-.28-.15-.06-.26-.11-.33-.15-.05-.03-.1-.06-.15-.09-.05-.03-.09-.05-.12-.08l-.12-.09-.12-.06-.06.12v.03s-.04.1-.07.17c-.02.07-.06.15-.1.25-.05.1-.1.22-.17.35-.07.13-.15.29-.25.46l-1.15,2.03c-.1.18-.19.33-.27.46-.08.13-.15.24-.21.33-.06.09-.11.16-.16.22-.04.05-.08.1-.12.13l-.09.14.85.48.11.05ZM87.47,8.32l1.08-1.9s.07.02.12.04c.09.03.2.09.34.16.13.07.22.16.29.25.07.09.11.2.13.3.02.11,0,.23-.02.36-.03.14-.09.28-.18.42-.1.18-.21.32-.33.43-.12.1-.24.17-.37.21-.13.04-.26.05-.4.02-.14-.02-.28-.08-.43-.16-.05-.03-.1-.06-.15-.1-.02-.02-.05-.03-.07-.05Z"/>
          <path class="cls-1" d="M95.54,12.19c.17-.07.32-.13.44-.17.14-.05.22-.06.25-.06h.06s.11-.14.11-.14l-.63-.58-.1-.07-.11.12v.03s-.02.02-.04.04c-.06.07-.14.12-.23.17-.1.05-.19.09-.28.13l-3.28,1.47,1.16-3.45c.04-.13.09-.23.13-.31.04-.07.08-.13.13-.18.01-.01.02-.02.05-.05l.13-.13-.81-.74-.1-.07-.11.12v.04s0,.05-.02.11c-.01.06-.03.13-.05.21-.02.09-.04.18-.07.28-.03.1-.06.2-.09.31l-1.55,4.62.33.3,4.66-2.01Z"/>
          <path class="cls-1" d="M95.38,14.92c-.22.11-.43.21-.64.31l-1.11.53c-.1.04-.18.07-.25.09-.07.01-.13.02-.17.02h-.05s-.13.1-.13.1l.55.81.1-.1s.06-.06.09-.09c.03-.03.07-.06.12-.1.05-.04.1-.08.17-.12.05-.03.13-.08.25-.15.12-.07.25-.14.41-.22.16-.08.33-.17.51-.26l.55-.28c.34-.17.7-.35,1.09-.54l-1.96,3.74.18.35,4.19-.46-2.3,2.06s-.05.05-.08.06c-.02.02-.05.04-.07.05-.06.04-.12.08-.17.1-.07.03-.09.03-.1.04l-.16.09.58.85.08.09.13-.08v-.03s.04-.05.07-.09c.02-.04.06-.08.1-.13.04-.05.1-.11.16-.18.07-.07.15-.15.25-.23l3.27-2.95-.29-.43-4.59.51,2.14-4.1-.36-.52-.36.19c-.12.06-.26.13-.42.21-.16.08-.34.17-.54.27l-.61.3c-.21.1-.42.21-.64.32Z"/>
          <path class="cls-1" d="M98.96,25.11c-.15-.03-.22-.05-.25-.06h-.06s-.16.04-.16.04l.28.81.05.11.15-.05.02-.03s.02-.01.04-.02c.09-.03.18-.04.28-.04.11,0,.22,0,.31.01l.95.07c.04.11.09.24.14.37l.42,1.2c.06.17.11.32.15.43l-.72.68c-.1.09-.19.16-.26.21-.07.04-.14.08-.2.1-.02,0-.03.01-.07.02h-.02s-.15.05-.15.05l.36,1.04.05.11.15-.05.02-.04s.03-.04.06-.08c.04-.05.08-.1.14-.17.06-.06.12-.14.2-.21.07-.08.15-.15.23-.23l3.55-3.34-.15-.42-5.06-.44c-.18-.01-.34-.03-.47-.05ZM103.21,26.12l-1.48,1.39c-.02-.05-.04-.1-.06-.16l-.42-1.18-.07-.19,2.03.14Z"/>
          <path class="cls-1" d="M101.97,30.75c-.2.04-.37.07-.52.1-.15.03-.27.05-.38.06-.11.01-.19.02-.27.02-.07,0-.13,0-.18,0l-.16.03.15.74.04.11.12-.02h.03s.1-.06.16-.08c.07-.03.15-.05.26-.09.1-.03.23-.06.37-.1.15-.04.32-.07.52-.11l2.11-.44-2.95,4.21.06.29,3.85-.8c.2-.04.37-.07.52-.1.15-.03.28-.05.38-.06.11-.01.2-.02.27-.02.07,0,.13,0,.18,0l.16-.03-.15-.74-.04-.11-.12.02h-.03s-.1.06-.16.08c-.07.03-.15.06-.26.09-.11.03-.23.06-.38.1-.15.04-.32.07-.52.12l-2.18.45,2.95-4.21-.06-.28-.04-.11-.12.02h-.03s-.1.06-.16.08c-.07.03-.15.06-.26.09-.11.03-.23.06-.38.1-.15.04-.32.07-.52.11l-2.29.48Z"/>
          <path class="cls-1" d="M106.37,36.64c-.11.02-.24.04-.39.05-.15.02-.33.03-.53.05l-2.33.19c-.2.02-.38.03-.53.04-.15,0-.28.01-.39.01-.11,0-.2,0-.27-.01-.07,0-.13-.01-.18-.02h-.03s-.14,0-.14,0v.12c.01.07.02.16.02.28v.39c.02.14.02.27.02.41,0,.14.01.25.02.35.02.27.07.54.13.79.07.25.16.49.27.71.11.22.26.42.42.6.17.18.36.33.59.45.22.12.48.21.76.26.18.03.38.05.6.05.11,0,.22,0,.34-.01.48-.04.88-.15,1.2-.32.32-.17.58-.39.76-.66.19-.26.31-.57.38-.9.06-.33.08-.67.05-1.03-.01-.13-.02-.27-.04-.42l-.09-.79c-.01-.1-.02-.18-.03-.22,0-.03,0-.06,0-.1,0-.04,0-.08,0-.12l-.02-.28h-.13s-.03.02-.03.02c-.05.02-.1.03-.17.05-.07.02-.16.04-.27.05ZM105.51,37.65c.11,0,.22-.01.33-.02l.67-.04s0,.04.01.07c.01.07.02.14.03.22l.03.24c0,.08.02.15.02.21.03.31,0,.59-.08.83-.07.24-.2.45-.37.62-.17.17-.39.31-.65.42-.27.11-.58.17-.93.2-.32.03-.6.02-.83-.02-.23-.04-.44-.11-.61-.19-.17-.09-.31-.19-.42-.32-.11-.13-.2-.26-.27-.41-.07-.15-.12-.31-.16-.47-.04-.17-.06-.33-.07-.5,0-.04,0-.09,0-.15,0-.06,0-.12,0-.18,0-.06,0-.12,0-.17,0-.01,0-.02,0-.03.12-.02.27-.04.44-.05.22-.02.45-.05.68-.07l.7-.07c.23-.02.42-.04.58-.05.08,0,.16-.01.26-.02l.64-.04Z"/>
          <path class="cls-1" d="M107.32,43.04h-.15s-.1.03-.17.04c-.07.01-.16.02-.27.03-.11,0-.24.01-.39.02-.15,0-.33,0-.53,0l-2.33-.03c-.2,0-.38,0-.53-.01-.15,0-.28-.01-.39-.03-.11-.01-.2-.02-.27-.03-.07-.01-.13-.02-.17-.04h-.17s-.01.97-.01.97v.12s.15,0,.15,0h.02s.1-.03.17-.04c.07-.01.16-.02.26-.03.11,0,.24-.01.39-.02.15,0,.33,0,.53,0l2.33.03c.2,0,.38,0,.53.02.15,0,.28.02.39.03.11,0,.2.02.27.03.07.01.13.03.17.04h.17s.01-.97.01-.97v-.12Z"/>
          <path class="cls-1" d="M107.15,46.1h-.02s-.11.02-.18.03c-.07,0-.16,0-.27,0-.11,0-.24,0-.39-.02-.15,0-.33-.02-.53-.04l-2.32-.22c-.2-.02-.38-.04-.53-.06-.15-.02-.28-.04-.38-.06-.1-.02-.19-.04-.26-.06-.07-.02-.12-.04-.17-.05l-.17-.02-.07.75v.12s.14.01.14.01h.02s.11-.02.18-.02c.07,0,.16,0,.27,0,.11,0,.24,0,.39.02.15,0,.33.02.53.04l2.14.2-4.02,3.12-.04.03-.03.3,3.91.37c.2.02.38.04.53.06.15.02.28.04.38.06.11.02.19.04.27.06.07.02.12.03.17.05l.17.02.07-.75v-.12s-.14-.01-.14-.01h-.02s-.11.02-.18.02c-.07,0-.16,0-.27,0-.11,0-.24,0-.39-.02-.15,0-.33-.02-.53-.04l-2.21-.21,4.02-3.12.04-.03.03-.28v-.12s-.14-.01-.14-.01Z"/>
          <path class="cls-1" d="M106.34,52.78s-.11,0-.18,0c-.07,0-.16,0-.27-.02-.11-.01-.24-.03-.38-.06-.15-.03-.32-.06-.52-.1l-2.29-.47c-.2-.04-.37-.08-.52-.11-.15-.03-.27-.07-.37-.1-.1-.03-.19-.06-.25-.09-.07-.03-.12-.05-.16-.07l-.16-.04-.34,1.63s-.01.06-.02.11l-.09.4c-.02.07-.03.15-.05.21l-.05.19c-.01.05-.02.09-.03.12l-.03.11.82.33v-.19c-.02-.17-.02-.36-.01-.57,0-.18.02-.38.04-.62.02-.2.05-.41.1-.64l1.97.4c-.03.12-.06.24-.09.36-.05.17-.09.32-.14.46-.05.16-.11.32-.16.48l-.04.1.75.33v-.17c.02-.12.03-.26.05-.42.02-.14.04-.3.07-.5.02-.16.05-.34.09-.53l1.69.35-.02.15c-.01.07-.02.15-.03.23-.01.08-.02.14-.04.2-.03.16-.07.3-.11.42-.04.12-.07.23-.11.31-.04.1-.07.18-.11.25l-.05.1.7.44v-.21s.01-.13.05-.34c.03-.17.07-.38.11-.62.05-.24.1-.51.15-.8h0c.06-.29.12-.58.18-.87v-.12s-.12-.03-.12-.03h-.02Z"/>
          <path class="cls-1" d="M105.3,57.53s-.11,0-.18-.02c-.07-.01-.16-.03-.26-.05-.11-.03-.23-.06-.38-.1-.14-.04-.31-.1-.5-.16l-2.22-.73c-.19-.06-.36-.12-.5-.17-.14-.05-.26-.1-.36-.14-.1-.04-.18-.08-.24-.11-.06-.03-.11-.06-.15-.09l-.16-.06-.24.72-.02.12.12.04h.03s.11.01.18.02c.07.01.16.03.26.05.11.02.23.06.37.1.14.04.31.1.5.16l2.04.67-4.66,2.17-.09.28,3.73,1.23c.19.06.36.12.5.17.14.05.26.1.36.14.1.04.18.08.25.11.06.03.11.06.15.09l.16.06.24-.72.02-.12-.12-.04h-.03s-.11-.01-.18-.02c-.07-.01-.16-.03-.26-.05-.11-.03-.23-.06-.38-.1-.14-.04-.31-.1-.5-.16l-2.11-.7,4.62-2.14.05-.02.09-.27.02-.12-.11-.04h-.04Z"/>
          <path class="cls-1" d="M102.5,63.7c-.12-.14-.27-.26-.46-.35-.17-.08-.35-.13-.52-.15-.17-.02-.34-.01-.5.02-.16.03-.32.07-.48.12-.15.05-.31.11-.46.17-.15.06-.3.12-.44.18-.14.05-.28.1-.41.13-.13.03-.26.04-.39.04-.12,0-.24-.04-.37-.09-.08-.04-.15-.09-.21-.15-.05-.06-.09-.13-.12-.2-.02-.08-.03-.16-.03-.24,0-.09.03-.18.08-.28.05-.11.12-.2.19-.27.08-.07.17-.13.26-.17.1-.04.2-.07.3-.07.11,0,.21,0,.31.02l.09.02.13-.27-.83-.51-.06.04c-.06.03-.13.08-.21.14-.08.06-.16.13-.24.21-.08.08-.16.18-.24.28-.08.11-.15.23-.21.36-.11.23-.17.46-.18.67,0,.21.03.4.1.57.07.17.17.32.3.45.13.12.27.22.42.3.21.1.42.14.65.13.21-.01.43-.05.65-.11.22-.06.43-.14.65-.23.21-.09.41-.16.61-.23.19-.06.38-.1.55-.12.16-.02.31,0,.44.07.08.04.16.09.21.14.05.05.09.11.12.18.03.07.04.14.03.22,0,.08-.03.17-.07.26-.05.1-.11.19-.17.25-.07.06-.14.11-.21.14-.07.03-.14.05-.21.06-.07,0-.13,0-.18,0h-.09s-.12.24-.12.24l.77.4.18-.16c.05-.04.11-.1.17-.16.06-.06.12-.14.19-.23.06-.09.12-.19.18-.3.08-.16.12-.33.14-.51.02-.18,0-.35-.05-.52-.05-.17-.13-.33-.25-.47Z"/>
          <path class="cls-1" d="M100.91,67.98s-.1-.03-.17-.06c-.07-.03-.15-.06-.25-.11-.1-.05-.21-.11-.34-.18-.13-.07-.28-.16-.46-.26l-2.01-1.19c-.17-.1-.32-.2-.45-.28-.13-.08-.23-.15-.32-.22-.09-.06-.16-.12-.21-.16-.05-.04-.1-.08-.13-.12l-.14-.09-.5.84-.05.11.1.06h.03s.1.04.17.07c.07.03.15.06.24.11.1.05.21.11.34.18.13.07.28.16.46.26l2.01,1.19c.17.1.32.2.45.28.13.08.23.15.32.22.09.06.16.12.21.16.05.05.1.09.13.12l.14.09.5-.84.05-.11-.1-.06h-.03Z"/>
          <path class="cls-1" d="M98.41,69.94c-.15-.11-.32-.2-.48-.25-.16-.05-.33-.08-.5-.08-.16,0-.33,0-.5.03-.16.02-.32.05-.48.08-.16.03-.31.06-.47.09-.15.03-.29.04-.43.04-.14,0-.27-.01-.39-.04-.12-.03-.23-.08-.34-.16-.07-.05-.13-.12-.17-.19-.04-.07-.07-.14-.08-.22,0-.08,0-.16.02-.24.02-.09.07-.17.13-.26.07-.09.15-.17.24-.22.09-.05.19-.09.29-.11.1-.02.21-.03.31-.01.11.01.21.04.3.08l.09.04.17-.23-.72-.66-.07.02c-.06.02-.14.05-.23.1-.09.04-.18.1-.28.16-.1.06-.19.14-.29.23-.1.09-.19.19-.28.31-.15.21-.26.42-.3.62-.05.2-.05.4-.02.58.04.18.11.35.21.5.1.15.22.27.35.37.18.14.39.22.61.25.21.03.43.04.66.02.22-.02.45-.05.68-.1.22-.04.44-.08.64-.1.2-.02.39-.03.56-.01.16.01.3.06.42.15.08.06.14.12.18.18.04.06.07.13.08.2.01.07,0,.14-.01.22-.02.08-.06.16-.12.24-.07.09-.14.16-.22.21-.08.05-.16.08-.23.09-.08.02-.15.02-.22.01-.07,0-.13-.02-.18-.03l-.08-.03-.17.22.68.54.21-.12c.06-.03.13-.08.2-.13.07-.05.15-.11.23-.19s.16-.16.23-.26c.11-.14.18-.3.23-.47.05-.17.07-.35.05-.52-.02-.18-.07-.35-.15-.51-.09-.16-.21-.31-.38-.43Z"/>
          <path class="cls-1" d="M71.69,77.01c-.28-.13-.55-.21-.82-.26-.27-.04-.53-.05-.79-.03-.25.02-.5.08-.72.17-.23.09-.44.2-.63.34-.19.14-.36.3-.51.49s-.28.39-.37.6c-.17.38-.26.76-.26,1.14s.07.74.22,1.07c.15.34.37.65.66.92.29.28.65.51,1.06.7.2.09.42.17.64.23.22.06.43.09.63.1h.05s.67-.65.67-.65l-.14-.21-.09.04c-.12.05-.24.09-.36.12-.12.02-.25.04-.37.04-.14,0-.27-.01-.4-.04-.13-.03-.25-.07-.37-.12-.33-.15-.59-.34-.78-.56-.19-.22-.32-.47-.39-.74-.07-.27-.09-.57-.05-.88.04-.31.14-.64.28-.96.13-.29.29-.53.48-.71.19-.18.39-.32.61-.4.22-.08.46-.12.71-.1.25.02.51.08.77.2.27.12.5.28.69.47.18.19.32.4.42.62l.03.07h.23s.06-.87.06-.87l-.04-.04c-.31-.3-.68-.55-1.12-.75Z"/>
          <path class="cls-1" d="M77.62,78.46v.14s-.01.02-.01.02c0,.05.01.11.02.18,0,.07,0,.16,0,.27,0,.11-.01.24-.02.39-.01.15-.03.33-.05.53l-.08.77c-.08,0-.16-.01-.26-.02-.14-.01-.3-.02-.46-.04-.16-.01-.34-.03-.51-.05-.18-.02-.35-.03-.52-.05-.17-.02-.33-.04-.49-.05-.11-.01-.21-.03-.3-.04l.09-.8c.02-.2.04-.37.07-.52.02-.15.04-.28.06-.39.02-.1.04-.19.06-.26.02-.07.04-.12.06-.17l.02-.17-.97-.11h-.12s-.02.14-.02.14v.02s.02.11.02.18c0,.07,0,.16,0,.27,0,.11,0,.24-.02.39-.01.15-.03.33-.05.53l-.25,2.32c-.02.2-.04.38-.06.52-.02.15-.04.27-.06.38-.02.1-.04.19-.06.26-.02.07-.04.12-.06.17l-.02.16.98.11h.12s.01-.14.01-.14v-.02s-.02-.11-.02-.18c0-.07,0-.16,0-.27,0-.11.01-.24.02-.39.01-.15.03-.33.05-.53l.1-.94c.09,0,.19.02.29.03.16.01.32.03.51.05l.51.06c.18.02.36.04.52.06.17.02.32.04.47.06.09.01.17.02.24.03l-.1.94c-.02.2-.04.37-.07.52-.02.15-.04.28-.06.38-.02.1-.04.19-.06.26-.02.07-.04.12-.06.17l-.02.17.97.11h.12s.02-.14.02-.14v-.02s-.02-.11-.02-.18c0-.07,0-.16,0-.27,0-.11,0-.24.02-.39.01-.15.03-.33.05-.53l.25-2.32c.02-.2.04-.38.06-.52.02-.15.04-.28.06-.38.02-.11.04-.19.06-.26.02-.07.04-.12.06-.17l.02-.16-.98-.11h-.12Z"/>
          <path class="cls-1" d="M81.48,83.42s-.04-.1-.06-.17c-.02-.07-.04-.15-.06-.26-.02-.11-.04-.23-.07-.38-.02-.15-.05-.32-.07-.52l-.28-2.32c-.02-.2-.04-.37-.05-.53-.01-.15-.02-.28-.03-.39,0-.11,0-.2,0-.27,0-.07,0-.13.02-.18v-.03s-.01-.14-.01-.14l-.97.12-.12.03v.12s.02.03.02.03c.02.04.04.1.06.17.02.07.04.16.06.26.02.11.04.24.07.38.02.15.05.32.07.52l.28,2.32c.02.2.04.38.06.53.01.15.02.28.02.39,0,.11,0,.2,0,.27,0,.07,0,.13-.02.18v.03s.01.14.01.14l.97-.12.12-.03v-.12s-.02-.03-.02-.03Z"/>
          <path class="cls-1" d="M85.61,81.81c-.15.09-.32.17-.5.26-.16.08-.35.16-.57.24-.19.07-.39.14-.61.21l-.89-3.18c-.05-.19-.1-.36-.13-.51-.03-.15-.06-.27-.08-.38-.02-.1-.03-.19-.04-.26,0-.07-.01-.13,0-.18l-.04-.16-.94.26-.11.05.03.12v.03s.07.09.1.16c.03.07.07.15.1.25.04.1.08.23.12.37.04.14.09.31.15.51l.63,2.25c.05.19.1.36.13.51.04.14.06.27.08.38.02.1.03.19.04.26,0,.07.01.13,0,.18l.04.16,1.61-.45s.05-.01.11-.03l.39-.1c.07-.02.14-.04.21-.05l.19-.04c.05-.01.09-.02.12-.03l.11-.02-.08-.88-.16.1Z"/>
          <path class="cls-1" d="M89.61,79.95c-.13.12-.28.23-.44.35-.14.1-.31.22-.51.35-.17.11-.36.22-.56.32l-.9-1.79c.11-.05.22-.1.34-.15.16-.07.31-.12.45-.18.16-.06.32-.12.48-.17l.1-.04-.21-.79-.14.1c-.1.07-.22.15-.35.23-.12.07-.26.16-.43.26-.14.08-.3.17-.47.26l-.78-1.54.13-.07c.06-.04.13-.08.2-.11.07-.04.13-.07.18-.1.15-.07.28-.13.4-.18.12-.05.22-.08.31-.11.1-.03.18-.05.26-.07l.11-.02-.09-.82-.17.13s-.14.09-.29.18c-.15.08-.34.18-.55.3-.22.11-.46.24-.72.37h0c-.26.13-.53.27-.79.4l-.1.07.06.11.02.03s.07.08.11.14c.04.06.09.13.15.22.06.09.12.21.19.34.07.13.15.29.24.47l1.05,2.08c.09.18.17.34.23.48.06.14.11.25.15.35.04.1.07.18.09.25.02.07.03.13.04.17l.07.15,1.49-.75s.05-.03.1-.05l.37-.18c.07-.03.14-.06.2-.09l.17-.08c.05-.02.09-.04.11-.05l.1-.04-.25-.85-.14.13Z"/>
          <g>
            <g>
              <path class="cls-1" d="M82.31,50.36h.87v6.74h.36c.23,0,.43-.05.61-.14.56-.29,1.23-.44,1.93-.44.63,0,1.24.12,1.77.36.17.08.31-.03.31-.21v-7.58c-.62-.28-1.33-.44-2.07-.44h0c-1.01,0-1.98.27-2.72.76l-.16.11h-1.73v9.1s12.49,0,12.49,0v-.85h-11.66v-7.42Z"/>
              <path class="cls-1" d="M93.95,49.53l-.16-.11c-.74-.49-1.7-.76-2.72-.76,0,0,0,0,0,0s0,0,0,0c-.24,0-.48.02-.72.05-.05,0-.1.02-.15.03-.16.02-.5.1-.5.1-.25.06-.48.15-.7.25v7.58c0,.18.14.28.31.21.53-.24,1.13-.36,1.76-.36.7,0,1.37.15,1.93.44.17.09.38.14.61.14h.37v-7.57h-.03Z"/>
            </g>
            <path class="cls-1" d="M74.49,53.37c-.04-.42-.22-.81-.51-1.11,0,0-2.13-2.17-2.26-2.31-.11-.11-.14-.2-.1-.36.07-.35,0-.7-.2-.98-.19-.26-.47-.42-.79-.45-.22-.02-.44-.02-.65-.01-.07,0-.14,0-.21,0h0c-.06,0-.1-.02-.15-.06-.08-.07-.18-.14-.29-.21-.46-.28-1.29-.27-1.78.2-.05.05-.1.07-.17.07,0,0,0,0-.01,0-.09,0-.17,0-.26,0-.16,0-.32,0-.48,0h0c-.17,0-.34.04-.5.13-.48.25-.73.83-.59,1.39.02.08,0,.12-.04.17-.08.08-2.35,2.42-2.35,2.42-.29.3-.47.7-.51,1.12-.07.71-.05.96-.02,1.08.03.2.13.38.26.51h0c.05.05.12.09.2.09.09,0,.17-.05.22-.12h0s2.27-3.15,2.27-3.15l.5.51-2.69,3.72h0c-.06.09-.1.18-.1.29,0,.09.03.17.08.24v.02c.2.37.44.72.71,1.03.16.18.35.31.56.37.25.08.51-.07.59-.32l1.51-4.91.64.28-1.68,5.46c-.05.18,0,.37.13.49.1.09.22.17.35.22.31.14.62.25.95.34.27.07.54.06.8-.03.19-.06.31-.25.31-.45v-5.85h.7v5.87c0,.2.13.39.32.45.25.07.52.08.79,0,.32-.08.64-.2.95-.34.12-.05.24-.15.36-.26.13-.13.17-.32.11-.5l-1.67-5.41.64-.28,1.51,4.9c.08.25.34.39.59.32.21-.06.41-.19.56-.37.27-.32.51-.66.71-1.03v-.02c.04-.07.07-.15.07-.24,0-.1-.04-.19-.1-.27v-.02s-2.69-3.73-2.69-3.73l.5-.51,2.28,3.16h0c.05.07.13.11.21.11.08,0,.14-.03.19-.08h0c.14-.14.23-.32.27-.52.02-.12.04-.37-.03-1.09Z"/>
            <path class="cls-1" d="M74.44,31.19h0s0,0,0,0l-1.93-2.63c-.41-.56-1.25-.55-1.64.02l-1.07,1.55c-.08.12-.42.6-.42.6h0s-.71-1.02-.71-1.02c-.36-.53-1.11-.59-1.57-.14l-3.45,3.53c-.1.1-.17.22-.2.35l-.23.95c-.02.09-.07.18-.15.26l-2.92,3.16.88.27,2.23-2.39c.07-.02.14-.03.2-.05.58-.16,1.27-.74,1.43-.16.16.58-.7,1.45.03,1.51.71.06,1.39-.35,3.04-1.35,1.02-.62,1.58-.12,2,.1.38.19,1.87,1.13,2.59,1l.94,1.34.83-.25-3.69-5.23c.4-.24,1.66.9,2.1.87.46-.04.35-.2.29-.55-.23-1.06.36-.53.72-.43.13.03.37.04.6.02l.88,1.2.02.03.85-.26-1.66-2.27ZM67.83,30.45c-.13.42-.32.88-.52,1.26-.22.42-.27.49-.39.91-.05.33-.38,1.17-.72.98-.91-.52-1.12,0-1.54-.01-.12,0-.17-.15-.09-.24.62-.62,2.9-2.97,2.94-3.02.14-.19.4-.08.33.13ZM71.8,29.3s-.38,1.3-.64,1.55c-.26.25-1.09.18-.74-.17l.81-1.17s.19-.37.41-.35c.2.02.16.15.16.15Z"/>
            <g>
              <path class="cls-1" d="M88.28,30.43s-.03,0-.05,0c-1.46-.15-2.78.9-2.95,2.37-.09.72.11,1.42.56,1.99.45.57,1.09.92,1.8,1.01.02,0,.03,0,.05,0,1.46.15,2.78-.91,2.95-2.37.08-.72-.11-1.42-.56-1.99-.45-.57-1.09-.92-1.8-1.01Z"/>
              <path class="cls-1" d="M91.99,32.25s-.12-.45-.12-.44c.79-.83,1.19-1.75,1.35-2.27.05-.17.01-.35-.1-.49-.1-.13-.21-.25-.32-.38l-.21.22c-.46.48-1.25.78-2.19.91,0,0-.26-.18-.4-.26.22-1.31-.18-2.33-.46-2.91-.07-.14-.19-.23-.34-.26-.19-.04-.28-.05-.57-.08h0c-.16.91-.88,2.05-1.4,2.79.01,0-.48.12-.46.11-.85-.79-1.79-1.18-2.33-1.33-.16-.05-.34-.02-.47.09-.14.11-.28.23-.41.35l.21.2c.48.44.8,1.2.96,2.11.01-.02-.29.43-.28.42-1.3-.2-2.35.23-2.93.52-.15.07-.26.22-.29.38s-.04.27-.07.54c.89.14,2.03.81,2.77,1.32,0,0,.08.4.15.61,0,0,0-.01,0-.02-.77.83-1.15,1.75-1.31,2.3-.05.16-.02.34.09.47.12.15.24.29.37.42l.17-.19c.45-.49,1.22-.82,2.15-.98,0,0,.44.28.44.28-.24,1.29.09,2.26.39,2.87.07.14.2.25.36.28.17.03.28.05.56.08h0c.19-.93.97-2.08,1.51-2.79,0,0,0,0,0,0,.18-.04.48-.13.48-.13.84.76,1.76,1.14,2.32,1.3.16.05.34.02.48-.09.15-.12.29-.25.43-.38l-.18-.16c-.5-.44-.85-1.22-1.02-2.17,0,0,.29-.47.28-.46,0,0,0,0,0,0,1.25.15,2.38-.32,2.89-.59.15-.08.25-.22.27-.38,0-.03.01-.08.02-.16.02-.14.03-.27.03-.41-.91-.11-2.06-.76-2.82-1.25ZM91.36,33.51c-.22,1.85-1.89,3.18-3.73,2.99-.02,0-.04,0-.06,0-.91-.11-1.72-.56-2.28-1.28-.57-.72-.82-1.61-.71-2.51.22-1.87,1.93-3.2,3.8-2.99.91.11,1.72.56,2.28,1.28.57.72.82,1.61.71,2.51Z"/>
            </g>
          </g>
        </g>
      </g>
      <rect class="cls-1" y="142.32" width="157.67" height="1.5"/>
      <g>
        <path class="cls-1" d="M30.18,172.67v-10.36h3.18c1.2,0,2.2.21,2.99.64.79.42,1.37,1.02,1.75,1.8.38.77.57,1.7.57,2.76s-.19,1.98-.57,2.75c-.38.77-.96,1.36-1.75,1.78-.78.42-1.78.63-3,.63h-3.18ZM31.66,171.43h1.64c.96,0,1.72-.16,2.28-.47.56-.32.96-.77,1.21-1.35.24-.59.36-1.29.36-2.09s-.12-1.52-.36-2.12c-.24-.59-.64-1.05-1.21-1.36s-1.32-.47-2.28-.47h-1.64v7.88Z"/>
        <path class="cls-1" d="M43.78,172.85c-.7,0-1.33-.16-1.89-.49-.56-.33-1-.78-1.32-1.37-.32-.59-.48-1.27-.48-2.04s.16-1.48.49-2.06c.33-.59.77-1.04,1.33-1.37.56-.33,1.19-.49,1.89-.49s1.34.16,1.9.49c.55.33.99.78,1.31,1.36.32.58.48,1.27.48,2.06s-.16,1.48-.48,2.06c-.32.58-.76,1.04-1.33,1.36-.56.33-1.2.49-1.91.49ZM43.78,171.58c.4,0,.77-.1,1.1-.3.33-.2.6-.49.8-.88.2-.39.3-.88.3-1.46s-.1-1.07-.3-1.46-.46-.68-.79-.88c-.33-.2-.69-.3-1.09-.3s-.76.1-1.09.3c-.34.2-.6.49-.81.88-.2.39-.3.88-.3,1.46s.1,1.07.3,1.46c.2.39.47.68.8.88s.69.3,1.07.3Z"/>
        <path class="cls-1" d="M52.69,172.85c-.72,0-1.36-.17-1.92-.5-.56-.33-1-.79-1.33-1.37-.32-.58-.48-1.26-.48-2.03s.16-1.46.48-2.05c.32-.59.76-1.05,1.33-1.38.56-.33,1.2-.5,1.92-.5.91,0,1.67.24,2.28.71.61.47,1,1.12,1.17,1.92h-1.54c-.1-.43-.32-.77-.67-1.01-.35-.24-.77-.36-1.25-.36-.39,0-.76.1-1.09.3-.34.2-.6.5-.81.89-.2.39-.3.87-.3,1.44,0,.42.06.8.18,1.13.12.33.28.61.48.84.2.23.44.4.7.51.27.11.55.17.84.17.33,0,.62-.05.88-.16s.48-.26.67-.47.31-.45.38-.74h1.54c-.17.79-.56,1.42-1.17,1.9-.61.48-1.37.72-2.28.72Z"/>
        <path class="cls-1" d="M60.77,172.67c-.46,0-.87-.07-1.21-.22-.34-.15-.61-.39-.8-.74s-.28-.81-.28-1.41v-3.83h-1.29v-1.26h1.29l.18-1.86h1.3v1.86h2.12v1.26h-2.12v3.85c0,.42.09.71.27.87.18.15.48.23.92.23h.86v1.26h-1.23Z"/>
        <path class="cls-1" d="M66.9,172.85c-.7,0-1.33-.16-1.89-.49-.56-.33-1-.78-1.32-1.37-.32-.59-.48-1.27-.48-2.04s.16-1.48.49-2.06c.33-.59.77-1.04,1.33-1.37.56-.33,1.19-.49,1.89-.49s1.34.16,1.9.49c.55.33.99.78,1.31,1.36.32.58.48,1.27.48,2.06s-.16,1.48-.48,2.06c-.32.58-.76,1.04-1.33,1.36-.56.33-1.2.49-1.91.49ZM66.9,171.58c.4,0,.77-.1,1.1-.3.33-.2.6-.49.8-.88.2-.39.3-.88.3-1.46s-.1-1.07-.3-1.46-.46-.68-.79-.88c-.33-.2-.69-.3-1.09-.3s-.76.1-1.09.3c-.34.2-.6.49-.81.88-.2.39-.3.88-.3,1.46s.1,1.07.3,1.46c.2.39.47.68.8.88s.69.3,1.07.3Z"/>
        <path class="cls-1" d="M72.36,172.67v-7.46h1.33l.13,1.41c.17-.33.38-.62.65-.85s.58-.41.94-.54c.36-.13.77-.19,1.24-.19v1.57h-.53c-.31,0-.6.04-.87.11-.28.07-.52.2-.73.38-.21.18-.38.42-.5.73-.12.31-.18.69-.18,1.14v3.72h-1.48Z"/>
        <path class="cls-1" d="M80.49,172.85c-.61,0-1.12-.1-1.52-.31-.41-.21-.71-.49-.9-.84-.2-.35-.3-.73-.3-1.13,0-.49.13-.92.38-1.27.26-.35.62-.62,1.1-.81.47-.19,1.04-.28,1.7-.28h1.94c0-.43-.06-.79-.19-1.08-.13-.29-.32-.5-.57-.64-.25-.14-.57-.21-.96-.21-.44,0-.82.11-1.14.32s-.51.53-.59.94h-1.48c.06-.52.24-.97.54-1.34s.69-.66,1.16-.86c.47-.2.98-.3,1.51-.3.7,0,1.29.12,1.76.37.47.25.83.59,1.07,1.04s.36.98.36,1.61v4.62h-1.29l-.12-1.26c-.11.2-.24.38-.38.56-.15.18-.32.33-.53.46-.2.13-.43.23-.7.3-.26.07-.55.11-.87.11ZM80.77,171.65c.32,0,.6-.06.86-.19.26-.13.48-.3.66-.53s.32-.47.41-.75.15-.57.16-.87v-.04h-1.76c-.42,0-.77.05-1.03.16s-.45.24-.57.42c-.12.18-.18.38-.18.62s.06.46.17.63.28.31.5.41c.22.1.48.15.78.15Z"/>
        <path class="cls-1" d="M89.58,172.85c-.71,0-1.34-.17-1.88-.51s-.96-.8-1.27-1.39-.45-1.26-.45-2.01.15-1.43.45-2.01.73-1.04,1.27-1.38c.55-.34,1.18-.51,1.89-.51.58,0,1.1.12,1.54.35.44.23.79.56,1.04.98v-4.35h1.48v10.66h-1.32l-.16-1.15c-.15.23-.34.44-.58.64-.24.2-.52.37-.86.5-.33.13-.72.19-1.15.19ZM89.81,171.56c.46,0,.87-.11,1.23-.33s.63-.52.82-.92.29-.85.29-1.38-.1-.98-.29-1.37-.47-.7-.82-.92c-.36-.22-.77-.33-1.23-.33s-.84.11-1.2.33c-.36.22-.63.53-.83.92s-.3.85-.3,1.37.1.98.3,1.38.47.7.83.92.75.33,1.2.33Z"/>
        <path class="cls-1" d="M99.08,172.85c-.7,0-1.33-.16-1.89-.49-.56-.33-1-.78-1.32-1.37-.32-.59-.48-1.27-.48-2.04s.16-1.48.49-2.06c.33-.59.77-1.04,1.33-1.37.56-.33,1.19-.49,1.89-.49s1.34.16,1.9.49c.55.33.99.78,1.31,1.36.32.58.48,1.27.48,2.06s-.16,1.48-.48,2.06c-.32.58-.76,1.04-1.33,1.36-.56.33-1.2.49-1.91.49ZM99.08,171.58c.4,0,.77-.1,1.1-.3.33-.2.6-.49.8-.88.2-.39.3-.88.3-1.46s-.1-1.07-.3-1.46-.46-.68-.79-.88c-.33-.2-.69-.3-1.09-.3s-.76.1-1.09.3c-.34.2-.6.49-.81.88-.2.39-.3.88-.3,1.46s.1,1.07.3,1.46c.2.39.47.68.8.88s.69.3,1.07.3Z"/>
        <path class="cls-1" d="M111.71,172.85c-.71,0-1.34-.16-1.89-.49-.55-.33-.98-.78-1.3-1.36-.31-.58-.47-1.26-.47-2.03s.16-1.48.47-2.07c.31-.59.74-1.05,1.3-1.38.55-.33,1.19-.5,1.92-.5s1.36.16,1.88.49c.52.33.93.76,1.21,1.29s.43,1.13.43,1.78c0,.1,0,.2,0,.32,0,.11-.01.24-.02.38h-6.1v-1.05h4.65c-.03-.62-.24-1.11-.62-1.46s-.86-.53-1.44-.53c-.41,0-.78.09-1.11.27-.34.18-.6.45-.81.8-.2.35-.3.79-.3,1.32v.42c0,.55.1,1.02.3,1.4s.47.67.81.86c.33.19.7.29,1.1.29.47,0,.86-.1,1.17-.31.31-.21.53-.49.68-.84h1.48c-.13.45-.35.86-.65,1.22s-.68.64-1.13.85c-.45.21-.96.31-1.55.31Z"/>
        <path class="cls-1" d="M116.9,172.67v-7.46h1.33l.09,1.27c.24-.44.57-.8,1.01-1.06.43-.26.93-.39,1.5-.39.59,0,1.1.12,1.52.35.42.24.75.59.99,1.07.24.48.36,1.08.36,1.8v4.41h-1.48v-4.26c0-.69-.15-1.21-.46-1.57-.31-.36-.75-.53-1.33-.53-.38,0-.73.09-1.04.27s-.55.45-.73.81c-.18.35-.27.79-.27,1.3v3.98h-1.48Z"/>
        <path class="cls-1" d="M45.65,188.26v-10.36h1.48v9.19h4.74v1.17h-6.22Z"/>
        <path class="cls-1" d="M54.38,179.39c-.29,0-.52-.09-.7-.27s-.27-.41-.27-.68.09-.49.27-.66.42-.26.7-.26.51.09.7.26.28.39.28.66-.09.5-.28.68-.42.27-.7.27ZM53.63,188.26v-7.46h1.48v7.46h-1.48Z"/>
        <path class="cls-1" d="M60.29,188.26c-.46,0-.87-.07-1.21-.22-.34-.15-.61-.39-.8-.74s-.28-.81-.28-1.41v-3.83h-1.29v-1.26h1.29l.18-1.86h1.3v1.86h2.12v1.26h-2.12v3.85c0,.42.09.71.27.87.18.15.48.23.92.23h.86v1.26h-1.23Z"/>
        <path class="cls-1" d="M66.39,188.44c-.71,0-1.34-.16-1.89-.49-.55-.33-.98-.78-1.3-1.36-.31-.58-.47-1.26-.47-2.03s.16-1.48.47-2.07c.31-.59.74-1.05,1.3-1.38.55-.33,1.19-.5,1.92-.5s1.36.16,1.88.49c.52.33.93.76,1.21,1.29s.43,1.13.43,1.78c0,.1,0,.2,0,.32,0,.11-.01.24-.02.38h-6.1v-1.05h4.65c-.03-.62-.24-1.11-.62-1.46s-.86-.53-1.44-.53c-.41,0-.78.09-1.11.27-.34.18-.6.45-.81.8-.2.35-.3.79-.3,1.32v.42c0,.55.1,1.02.3,1.4s.47.67.81.86c.33.19.7.29,1.1.29.47,0,.86-.1,1.17-.31.31-.21.53-.49.68-.84h1.48c-.13.45-.35.86-.65,1.22s-.68.64-1.13.85c-.45.21-.96.31-1.55.31Z"/>
        <path class="cls-1" d="M71.58,188.26v-7.46h1.33l.13,1.41c.17-.33.38-.62.65-.85s.58-.41.94-.54c.36-.13.77-.19,1.24-.19v1.57h-.53c-.31,0-.6.04-.87.11-.28.07-.52.2-.73.38-.21.18-.38.42-.5.73-.12.31-.18.69-.18,1.14v3.72h-1.48Z"/>
        <path class="cls-1" d="M79.71,188.44c-.61,0-1.12-.1-1.52-.31-.41-.21-.71-.49-.9-.84-.2-.35-.3-.73-.3-1.13,0-.49.13-.92.38-1.27.26-.35.62-.62,1.1-.81.47-.19,1.04-.28,1.7-.28h1.94c0-.43-.06-.79-.19-1.08-.13-.29-.32-.5-.57-.64-.25-.14-.57-.21-.96-.21-.44,0-.82.11-1.14.32s-.51.53-.59.94h-1.48c.06-.52.24-.97.54-1.34s.69-.66,1.16-.86c.47-.2.98-.3,1.51-.3.7,0,1.29.12,1.76.37.47.25.83.59,1.07,1.04s.36.98.36,1.61v4.62h-1.29l-.12-1.26c-.11.2-.24.38-.38.56-.15.18-.32.33-.53.46-.2.13-.43.23-.7.3-.26.07-.55.11-.87.11ZM79.99,187.24c.32,0,.6-.06.86-.19.26-.13.48-.3.66-.53s.32-.47.41-.75.15-.57.16-.87v-.04h-1.76c-.42,0-.77.05-1.03.16s-.45.24-.57.42c-.12.18-.18.38-.18.62s.06.46.17.63.28.31.5.41c.22.1.48.15.78.15Z"/>
        <path class="cls-1" d="M88.39,188.26c-.46,0-.87-.07-1.21-.22-.34-.15-.61-.39-.8-.74s-.28-.81-.28-1.41v-3.83h-1.29v-1.26h1.29l.18-1.86h1.3v1.86h2.12v1.26h-2.12v3.85c0,.42.09.71.27.87.18.15.48.23.92.23h.86v1.26h-1.23Z"/>
        <path class="cls-1" d="M94.05,188.44c-.58,0-1.09-.12-1.52-.36-.43-.24-.76-.59-.99-1.07-.23-.47-.35-1.07-.35-1.79v-4.43h1.48v4.26c0,.7.15,1.23.46,1.58s.75.53,1.32.53c.38,0,.73-.09,1.04-.28.31-.19.55-.46.73-.81s.27-.79.27-1.3v-3.98h1.48v7.46h-1.32l-.1-1.27c-.23.45-.56.81-.99,1.07-.43.26-.94.38-1.51.38Z"/>
        <path class="cls-1" d="M100.01,188.26v-7.46h1.33l.13,1.41c.17-.33.38-.62.65-.85s.58-.41.94-.54c.36-.13.77-.19,1.24-.19v1.57h-.53c-.31,0-.6.04-.87.11-.28.07-.52.2-.73.38-.21.18-.38.42-.5.73-.12.31-.18.69-.18,1.14v3.72h-1.48Z"/>
        <path class="cls-1" d="M108.13,188.44c-.61,0-1.12-.1-1.52-.31-.41-.21-.71-.49-.9-.84-.2-.35-.3-.73-.3-1.13,0-.49.13-.92.38-1.27.26-.35.62-.62,1.1-.81.47-.19,1.04-.28,1.7-.28h1.94c0-.43-.06-.79-.19-1.08-.13-.29-.32-.5-.57-.64-.25-.14-.57-.21-.96-.21-.44,0-.82.11-1.14.32s-.51.53-.59.94h-1.48c.06-.52.24-.97.54-1.34s.69-.66,1.16-.86c.47-.2.98-.3,1.51-.3.7,0,1.29.12,1.76.37.47.25.83.59,1.07,1.04s.36.98.36,1.61v4.62h-1.29l-.12-1.26c-.11.2-.24.38-.38.56-.15.18-.32.33-.53.46-.2.13-.43.23-.7.3-.26.07-.55.11-.87.11ZM108.41,187.24c.32,0,.6-.06.86-.19.26-.13.48-.3.66-.53s.32-.47.41-.75.15-.57.16-.87v-.04h-1.76c-.42,0-.77.05-1.03.16s-.45.24-.57.42c-.12.18-.18.38-.18.62s.06.46.17.63.28.31.5.41c.22.1.48.15.78.15Z"/>
      </g>
    </g>
  </g>
</svg>